<svg width="50" height="50" viewBox="0 0 57 51" fill="none" xmlns="http://www.w3.org/2000/svg">
<path d="M0 26.1289C0.281337 24.7624 0.473361 23.3691 0.857408 22.0309C4.24833 10.2266 12.0052 2.99971 24.061 0.87554C39.2934 -1.80981 53.8901 8.75148 56.4966 24.1119C58.1399 33.7949 55.3459 42.1814 48.5239 49.2223C46.8909 50.9073 46.166 50.8552 44.603 49.1508C43.0505 47.4568 41.4785 45.7807 39.926 44.0868C38.7515 42.8066 38.7917 41.9998 39.9885 40.7539C44.4899 36.0694 46.0767 30.5379 44.216 24.3083C42.3702 18.1309 38.0713 14.3053 31.7851 12.8703C22.76 10.8101 13.391 17.4134 12.1972 26.5531C11.4708 32.1143 13.1097 36.8435 17.0201 40.8224C18.1276 41.9492 18.1618 42.8274 17.099 43.9945C15.4021 45.8567 13.6917 47.7084 11.9754 49.5527C10.9051 50.7034 9.98225 50.7287 8.82862 49.6152C3.96998 44.9233 1.05837 39.2445 0.212871 32.5252C0.186077 32.3153 0.0744306 32.1158 0.00298001 31.9119C2.9074e-06 29.9842 0 28.0565 0 26.1289ZM10.3172 46.0174C11.4604 44.7715 12.5068 43.6328 13.5711 42.4732C10.6149 39.1076 8.95217 35.2254 8.45201 30.8773C6.82056 30.8773 5.28883 30.8773 3.67821 30.8773C4.1605 36.7065 6.374 41.6589 10.3172 46.0174ZM53.2619 30.8625C51.5799 30.8625 50.0452 30.8625 48.7367 30.8625C48.0743 33.0313 47.6337 35.1539 46.7778 37.092C45.9249 39.0227 44.6551 40.7688 43.5313 42.6563C44.4809 43.6878 45.5259 44.8206 46.6275 46.0144C50.5587 41.6679 52.7663 36.714 53.2619 30.8625ZM26.654 4.1965C21.1271 4.63414 16.3815 6.63029 12.4041 10.0242C13.5622 11.2061 14.6414 12.3076 15.7712 13.4628C18.8778 10.8831 22.5739 9.44812 26.6526 8.96881C26.654 7.3567 26.654 5.8488 26.654 4.1965ZM30.3025 8.9569C34.7518 9.65652 34.9349 9.73095 41.2687 13.4315C42.3568 12.3195 43.436 11.215 44.5732 10.0525C40.5482 6.63178 35.8042 4.61628 30.3025 4.20543C30.3025 5.82349 30.3025 7.36266 30.3025 8.9569ZM47.5012 12.9924C46.3461 14.1296 45.2267 15.2312 44.2086 16.2329C45.1255 17.8972 46.2449 19.5688 46.9981 21.3923C47.7483 23.2113 48.1309 25.1821 48.6846 27.1187C50.1047 27.1187 51.629 27.1187 53.2515 27.1187C52.8273 21.6156 50.8088 16.9073 47.5012 12.9924ZM9.56843 12.8167C6.12243 16.9668 4.05036 21.6632 3.7065 27.1515C5.39006 27.1515 6.89052 27.1515 8.45499 27.1515C8.90305 23.0163 10.4288 19.3589 13.0025 16.1779C11.831 15.0317 10.7518 13.9748 9.56843 12.8167Z" fill="#F7421E"/>
<path d="M28.5412 23.9107C28.7257 23.9107 28.9401 23.8497 29.0919 23.9196C30.4971 24.5791 31.2875 23.7142 32.139 22.8017C33.3745 21.4769 34.6829 20.2191 35.975 18.9479C36.9783 17.9595 37.9786 17.897 38.7839 18.7395C39.552 19.5433 39.482 20.5213 38.5398 21.4784C36.956 23.0861 35.3662 24.6862 33.7466 26.2582C33.3313 26.6616 33.2048 27.0024 33.37 27.5889C34.1768 30.441 32.6034 33.1636 29.7484 33.9525C27.0258 34.7042 24.263 33.0728 23.4964 30.2609C22.77 27.5979 24.3806 24.8172 27.1196 24.0536C27.5751 23.9271 28.0618 23.9107 28.5352 23.8422C28.5367 23.8661 28.5397 23.8884 28.5412 23.9107ZM28.501 27.4654C27.6986 27.446 26.9305 28.1903 26.9276 28.9897C26.9246 29.8009 27.6793 30.5779 28.4891 30.5199C29.3703 30.4559 29.9047 29.9334 29.9985 29.0552C30.0803 28.2677 29.3078 27.4847 28.501 27.4654Z" fill="#F7421E"/>
</svg>
