<svg width="30" height="30" viewBox="0 0 51 51" fill="none" xmlns="http://www.w3.org/2000/svg">
<path d="M50.4074 26.8711C50.2802 27.836 50.1931 28.8077 50.0179 29.7637C48.6988 36.9581 44.9803 42.5838 38.8457 46.5597C34.6272 49.2938 29.9555 50.6775 24.9287 50.4818C15.604 50.1187 8.47034 45.906 3.69694 37.8672C1.3533 33.9207 0.234804 29.5827 0.412902 24.9943C0.756375 16.1315 4.65201 9.20622 12.1027 4.35845C15.5434 2.11951 19.3617 0.903165 23.4599 0.58122C23.5871 0.571435 23.7104 0.528378 23.8356 0.5C24.8778 0.5 25.92 0.5 26.9621 0.5C27.8771 0.627212 28.7999 0.71724 29.705 0.892401C30.709 1.08616 31.7042 1.33275 32.6916 1.5999C33.5185 1.82301 33.907 2.50604 33.6799 3.22528C33.4646 3.90929 32.7748 4.23026 31.9684 3.98268C29.4692 3.21745 26.9142 2.89159 24.3073 3.03642C18.342 3.36913 13.2477 5.6658 9.1113 9.97537C5.49259 13.7448 3.33096 18.2745 2.98944 23.4785C2.37099 32.903 6.15703 40.1883 14.2781 45.0537C18.7599 47.7389 23.7123 48.6313 28.8556 47.7369C37.2526 46.2779 43.1475 41.5329 46.365 33.6339C48.3084 28.8615 48.4101 23.9374 46.9325 19.0026C46.5979 17.886 47.3386 17.1394 48.1078 17.1775C48.6646 17.2049 49.0893 17.5152 49.2762 18.116C49.8271 19.8764 50.1706 21.677 50.3164 23.5166C50.333 23.7241 50.3761 23.9306 50.4064 24.137C50.4074 25.0481 50.4074 25.9601 50.4074 26.8711Z" fill="#F7421E"/>
<path d="M25.8886 42.8652C16.9945 42.876 9.71601 36.7238 8.29124 28.3248C6.64922 18.641 13.3298 9.50815 23.0802 8.15872C24.185 8.00606 25.3191 8.03836 26.4396 8.03738C27.147 8.0364 27.6275 8.43174 27.8007 9.02083C28.0463 9.85749 27.4005 10.6178 26.4816 10.5386C23.6252 10.291 20.9508 10.9153 18.435 12.2393C13.0715 15.0644 9.95478 20.9915 10.628 27.0351C11.3884 33.8605 16.5551 39.2034 23.3816 40.2251C31.4478 41.4326 39.1334 35.6904 40.2529 27.5821C40.3938 26.5595 40.3683 25.5095 40.3546 24.4722C40.3439 23.6923 40.7509 23.1003 41.478 23.0171C42.1816 22.9359 42.8451 23.434 42.8431 24.2178C42.8402 25.6446 42.9087 27.1095 42.62 28.4902C41.0719 35.8832 36.5774 40.5284 29.2686 42.4405C28.8292 42.555 28.3771 42.6333 27.926 42.6832C27.1187 42.7742 26.3074 42.829 25.8886 42.8652Z" fill="#F7421E"/>
<path d="M37.0548 17.982C36.2749 17.982 35.4108 17.7726 34.7386 18.0417C34.0839 18.303 33.6211 19.0506 33.0799 19.5908C30.9379 21.7299 28.7978 23.871 26.6567 26.0101C26.5187 26.1481 26.3817 26.29 26.2271 26.4074C25.7075 26.8047 25.0303 26.7587 24.586 26.3076C24.1388 25.8535 24.1007 25.1774 24.5048 24.6656C24.6252 24.5129 24.7681 24.3769 24.906 24.2389C27.4718 21.6722 30.0346 19.1025 32.6112 16.5455C32.8656 16.293 32.9644 16.0425 32.9596 15.6902C32.941 14.4534 32.9596 13.2165 32.9488 11.9796C32.9439 11.4609 33.1093 11.0441 33.4831 10.6722C35.8737 8.29823 38.2555 5.91544 40.6305 3.52678C41.0737 3.08154 41.562 2.86332 42.1658 3.10992C42.7598 3.3526 42.9301 3.85362 42.9232 4.45739C42.9125 5.48292 42.9359 6.50845 42.9125 7.533C42.9037 7.90778 43.0318 8.0027 43.388 7.99585C44.4126 7.97433 45.4391 7.99781 46.4636 7.98509C47.0713 7.97824 47.5655 8.16123 47.8023 8.75522C48.0352 9.33844 47.8366 9.82282 47.404 10.2534C45.0056 12.642 42.6111 15.0356 40.2234 17.435C39.8662 17.7941 39.4611 17.9634 38.9591 17.9537C38.325 17.9409 37.6899 17.9507 37.0548 17.9507C37.0548 17.9615 37.0548 17.9713 37.0548 17.982ZM40.4377 7.31674C40.3154 7.39991 40.2704 7.42046 40.2371 7.45373C38.7056 8.98322 37.1732 10.5127 35.6457 12.0461C35.5694 12.1234 35.4696 12.2281 35.4676 12.3211C35.4549 13.3554 35.4598 14.3897 35.4598 15.4515C36.4501 15.4515 37.3768 15.4671 38.3015 15.4397C38.5168 15.4329 38.779 15.3292 38.9307 15.1804C40.4054 13.7331 41.8625 12.2663 43.3225 10.8033C43.4037 10.7211 43.4663 10.6194 43.5808 10.4696C42.9134 10.4696 42.3302 10.4794 41.747 10.4677C40.9387 10.4511 40.4514 9.95688 40.4396 9.14566C40.4308 8.56342 40.4377 7.98118 40.4377 7.31674Z" fill="#F7421E"/>
<path d="M15.4961 25.4158C15.5264 20.0944 19.697 15.7173 25.0067 15.4609C25.1858 15.4521 25.3658 15.4452 25.5439 15.4589C26.2093 15.5137 26.7064 16.0294 26.7231 16.6704C26.7397 17.2937 26.3013 17.8222 25.6506 17.921C24.993 18.0208 24.3158 18.0277 23.6729 18.1823C20.2078 19.018 17.7448 22.3578 18.0139 25.8042C18.3124 29.6187 21.069 32.4976 24.763 32.8508C29.0472 33.2618 32.7539 30.0336 32.9399 25.7309C32.981 24.7787 33.3313 24.2924 34.0446 24.1965C34.8334 24.0898 35.4724 24.6848 35.4459 25.5586C35.35 28.7213 34.1014 31.3497 31.5885 33.2745C28.5853 35.5742 25.2239 36.0536 21.7324 34.6289C18.2233 33.1963 16.1879 30.4925 15.6125 26.727C15.547 26.2935 15.5333 25.8522 15.4961 25.4158Z" fill="#F7421E"/>
</svg>
