<svg width="50" height="50" viewBox="0 0 70 70" fill="none" xmlns="http://www.w3.org/2000/svg">
<path d="M47.0409 69.9805C45.8748 69.6793 44.6794 69.4946 43.5619 69.0767C38.625 67.2109 33.9701 64.791 29.558 61.9048C23.7855 58.1341 18.6057 53.6735 14.1937 48.348C9.37347 42.5462 5.55424 36.142 2.59021 29.213C1.67671 27.075 0.947846 24.9078 0.996437 22.5658C1.10334 17.697 3.57174 14.2956 7.76026 12.0507C9.10136 11.3316 10.5202 10.7582 12.0654 10.593C13.9896 10.3889 15.7097 10.8651 17.2257 12.0993C19.3346 13.8389 21.113 15.8894 22.6387 18.1343C24.009 20.1557 25.282 22.2839 26.3608 24.4802C27.9059 27.6095 26.7009 30.661 24.145 32.6435C23.766 32.935 23.387 33.2266 22.9789 33.4792C21.8224 34.1789 20.4035 33.8874 19.6455 32.8184C18.8972 31.7688 19.0819 30.3694 20.0926 29.4948C20.5396 29.1061 21.0158 28.7562 21.4725 28.3772C22.1139 27.833 22.25 27.1333 21.8807 26.4044C21.3268 25.3063 20.7534 24.2178 20.0926 23.1877C18.5571 20.8068 16.8564 18.5716 14.8642 16.5405C13.8632 15.5201 12.8137 15.2674 11.4726 15.8117C9.85937 16.4628 8.38222 17.2791 7.3035 18.6688C5.63199 20.8359 5.6417 23.246 6.53577 25.6658C7.81857 29.1547 9.48037 32.4685 11.356 35.6755C14.6407 41.2926 18.5668 46.4043 23.3579 50.8261C29.3831 56.3751 36.2149 60.6608 43.7659 63.8095C44.9515 64.3051 46.2052 64.723 47.4685 64.9174C50.4034 65.3547 52.5997 64.0622 54.1255 61.6132C54.5919 60.8649 54.9126 60.0292 55.2625 59.2128C55.729 58.1244 55.4957 57.1526 54.6502 56.346C53.8436 55.5783 53.037 54.8008 52.1818 54.0914C50.0341 52.3324 47.7795 50.7095 45.3014 49.4267C43.7173 48.6104 43.1245 48.7367 42.0555 50.1555C41.8126 50.486 41.5696 50.8261 41.2781 51.1079C40.4229 51.9437 39.111 52.0214 38.1489 51.3217C37.1868 50.622 36.7786 49.3003 37.3714 48.2799C38.5473 46.2586 40.0633 44.6065 42.4929 44.1011C43.7757 43.8388 45.0196 43.9748 46.2343 44.4704C48.7611 45.5006 51.074 46.9194 53.2022 48.6006C55.0681 50.0778 56.8563 51.691 58.5278 53.382C60.5006 55.3742 60.8893 57.8426 60.0632 60.4762C59.0817 63.6249 57.3908 66.2974 54.5822 68.1535C53.2314 69.0476 51.7542 69.5918 50.1605 69.8542C49.9855 69.8833 49.8203 69.9514 49.6454 70C48.7708 69.9805 47.9059 69.9805 47.0409 69.9805Z" fill="#202124"/>
<path d="M38.5385 0.00029796C53.038 0.252969 65.9048 11.1276 68.4607 25.3549C68.8105 27.2985 68.9174 29.281 69.0243 31.2538C69.0923 32.5755 68.1011 33.6056 66.8669 33.7514C65.6521 33.8874 64.5054 33.1586 64.2041 31.9924C64.0778 31.5162 64.0486 31.0011 64.0389 30.5055C63.9126 25.5784 62.5034 21.0498 59.8115 16.939C56.7309 12.2354 52.5521 8.83408 47.3043 6.76412C44.2819 5.56879 41.1333 5.06345 37.9069 4.94683C36.2256 4.88852 35.2344 3.8584 35.283 2.3618C35.3315 0.913802 36.4589 -0.0191383 38.1401 0.00029796C38.2664 0.00029796 38.4025 0.00029796 38.5385 0.00029796Z" fill="#F7421E"/>
<path d="M38.4795 14.4609C46.0208 14.7232 52.6291 20.2043 54.2423 27.8233C54.4755 28.902 54.5339 30.0293 54.5922 31.1469C54.6602 32.5949 53.6495 33.7028 52.289 33.7708C50.8701 33.8388 49.7331 32.8573 49.6748 31.3801C49.6068 29.8641 49.3735 28.4064 48.839 26.9778C47.2258 22.6824 42.8818 19.5629 38.2949 19.4074C38.0033 19.3977 37.7021 19.3879 37.4105 19.3394C36.0403 19.1256 35.1948 18.0663 35.2725 16.7057C35.3503 15.4327 36.3804 14.4706 37.7215 14.4317C37.9742 14.4123 38.2268 14.4414 38.4795 14.4609Z" fill="#F7421E"/>
</svg>
