<svg width="50" height="50" viewBox="0 0 70 70" fill="none" xmlns="http://www.w3.org/2000/svg">
<path d="M0 25.0432C0.219984 23.7033 0.339968 22.3334 0.679944 21.0235C3.60973 9.86434 10.7392 2.91485 21.9984 0.52502C32.9076 -1.78481 44.4268 3.70479 50.0764 13.4941C59.3757 29.5929 50.1264 48.9215 32.4876 53.0512C27.238 54.2811 22.0884 53.8512 17.0688 51.8913C16.6788 51.7413 16.4288 51.7913 16.0888 52.0213C11.3992 55.1611 6.52953 55.481 1.49989 52.9112C0.259981 52.2813 -0.139992 51.0214 0.559957 49.8615C3.04978 45.7218 3.41975 41.3821 2.00985 36.7924C1.2899 34.4526 0.799934 32.0427 0.209976 29.6529C0.109984 29.2629 0.0699949 28.853 0 28.453C0 27.3131 0 26.1832 0 25.0432ZM5.33961 50.0214C5.5296 50.0714 5.73958 50.1514 5.95956 50.1914C9.18933 50.8514 12.0591 50.1214 14.5289 47.9416C15.4289 47.1417 16.3088 47.0117 17.3987 47.5116C21.5384 49.4315 25.8781 50.0014 30.3878 49.2515C42.3369 47.2616 51.5263 35.9525 49.2364 22.9134C47.2166 11.4142 36.2874 3.01484 24.6682 4.30475C16.4088 5.22468 10.3292 9.50437 6.51952 16.8838C4.47967 20.8136 3.67973 25.0532 4.39968 29.4629C4.72965 31.5128 5.3596 33.5326 5.95956 35.5325C7.02948 39.0622 7.41946 42.612 6.52953 46.2317C6.21955 47.5016 5.74958 48.7315 5.33961 50.0214Z" fill="#202124"/>
<path d="M60.5557 70C59.8657 69.86 59.1758 69.74 58.4958 69.5701C56.876 69.1601 55.3561 68.4901 53.9962 67.4902C53.5762 67.1802 53.2662 67.1602 52.7662 67.3302C42.907 70.76 33.8676 69.2701 25.6782 62.7705C24.8683 62.1306 24.5983 61.2607 24.8983 60.4007C25.1882 59.5708 25.7882 59.1008 26.6581 58.9908C27.3381 58.9108 27.888 59.1908 28.398 59.6208C31.7078 62.3906 35.5075 64.0704 39.7772 64.6904C44.1469 65.3304 48.3666 64.7904 52.3863 62.9705C53.6362 62.4106 54.5761 62.5606 55.606 63.4605C58.2258 65.7403 61.2756 66.2603 64.6554 65.4304C64.6154 65.2504 64.6054 65.1104 64.5554 65.0004C62.4356 60.1207 62.5155 55.2611 64.3154 50.2614C67.1952 42.252 66.0153 34.7726 60.8357 27.9631C60.5357 27.5731 60.2557 27.1231 60.1457 26.6632C59.9257 25.7032 60.4357 24.8133 61.2956 24.4233C62.2056 24.0133 63.1255 24.2333 63.8055 25.0533C65.5853 27.1831 67.0052 29.5429 68.0051 32.1228C70.585 38.7923 70.635 45.4818 68.0651 52.1813C66.3953 56.551 66.8952 60.7507 69.1451 64.8004C69.3451 65.1604 69.575 65.5203 69.665 65.9003C69.905 66.8502 69.455 67.7302 68.5451 68.2402C67.0152 69.0901 65.3953 69.6401 63.6555 69.86C63.4755 69.88 63.3055 69.94 63.1255 69.98C62.2856 70 61.4156 70 60.5557 70Z" fill="#F7421E"/>
<path d="M14.7807 30.2634C12.9407 30.2734 11.4807 28.8234 11.4707 26.9934C11.4707 25.1734 12.9507 23.6834 14.7607 23.6934C16.5407 23.7034 18.0207 25.1634 18.0307 26.9434C18.0607 28.7834 16.6107 30.2534 14.7807 30.2634Z" fill="#F7421E"/>
<path d="M26.9077 30.2632C25.0677 30.2732 23.6077 28.8432 23.5977 27.0032C23.5877 25.1832 25.0677 23.6932 26.8777 23.7032C28.6577 23.7032 30.1277 25.1632 30.1677 26.9432C30.2077 28.7432 28.7277 30.2532 26.9077 30.2632Z" fill="#F7421E"/>
<path d="M42.2675 26.9833C42.2675 28.8233 40.8175 30.2633 38.9775 30.2633C37.1575 30.2533 35.6775 28.7633 35.6975 26.9633C35.7175 25.1833 37.1875 23.7133 38.9675 23.7033C40.7875 23.6833 42.2675 25.1633 42.2675 26.9833Z" fill="#F7421E"/>
</svg>
