<svg width="70" height="71" viewBox="0 0 70 71" fill="none" xmlns="http://www.w3.org/2000/svg">
<circle cx="35" cy="35.627" r="35" fill="#E6FAE9"/>
<path d="M52.5032 46.1417C52.3282 46.5897 51.9782 46.8137 51.5232 46.9607C50.3331 47.3387 49.1571 47.7447 47.9671 48.1297C47.7081 48.2137 47.5891 48.3537 47.5051 48.6057C47.1131 49.8238 46.7001 51.0418 46.2941 52.2528C45.972 53.2189 45.125 53.4149 44.397 52.6868C42.0029 50.2998 39.6159 47.9057 37.2218 45.5117C37.1308 45.4207 37.0538 45.3297 36.9418 45.2037C36.5778 45.5187 36.2348 45.8057 35.8918 46.0997C35.2267 46.6807 34.7928 46.6807 34.1277 46.1137C33.7917 45.8267 33.4557 45.5327 33.0917 45.2247C32.9867 45.3227 32.8957 45.4067 32.7977 45.5047C30.3966 47.9057 27.9956 50.2998 25.6015 52.7008C25.2515 53.0509 24.8665 53.2259 24.3765 53.0509C24.0265 52.9249 23.8444 52.6518 23.7324 52.3088C23.3194 51.0628 22.8994 49.8168 22.4934 48.5637C22.4164 48.3327 22.2974 48.2137 22.0664 48.1367C20.8274 47.7307 19.5883 47.3177 18.3493 46.9047C17.4253 46.5967 17.2153 45.7427 17.9083 45.0496C19.6304 43.3276 21.3524 41.5986 23.0814 39.8835C23.2914 39.6735 23.3964 39.4495 23.3894 39.1625C23.3894 39.1065 23.3754 39.0435 23.3964 38.9945C23.6065 38.3575 23.3055 38.0075 22.7524 37.7695C22.4934 37.6575 22.2624 37.4825 22.0244 37.3355C21.4714 36.9854 21.3174 36.5094 21.5694 35.9004C21.7444 35.4664 21.9194 35.0394 22.1084 34.6124C22.1924 34.4304 22.1784 34.3114 22.0384 34.1574C21.7304 33.8214 21.4364 33.4714 21.1424 33.1213C20.6664 32.5613 20.6734 32.0923 21.1424 31.5393C21.4224 31.2103 21.6954 30.8743 21.9894 30.5593C22.1504 30.3913 22.1924 30.2373 22.0874 30.0133C21.9054 29.6213 21.7514 29.2222 21.5834 28.8232C21.2894 28.1092 21.4364 27.6822 22.1014 27.2762C22.4794 27.0452 22.8504 26.8002 23.2355 26.5902C23.4105 26.4922 23.4594 26.3732 23.4384 26.1772C23.3824 25.6661 23.3334 25.1551 23.3124 24.6441C23.2914 24.1051 23.5715 23.7341 24.0965 23.5941C24.5585 23.4681 25.0205 23.3561 25.4895 23.2651C25.7415 23.2161 25.8675 23.1041 25.9165 22.8451C26.0005 22.3901 26.1195 21.9351 26.2385 21.487C26.3925 20.906 26.7566 20.633 27.3586 20.661C27.8556 20.682 28.3596 20.717 28.8566 20.773C29.0456 20.794 29.1436 20.752 29.2416 20.591C29.4796 20.178 29.7316 19.772 29.9836 19.366C30.3477 18.785 30.8026 18.638 31.4396 18.897C31.8737 19.072 32.3007 19.247 32.7277 19.436C32.9167 19.52 33.0357 19.485 33.1827 19.359C33.6867 18.939 34.2117 18.54 34.7227 18.127C34.9047 18.127 35.0868 18.127 35.2688 18.127C35.7658 18.519 36.2698 18.904 36.7528 19.31C36.9418 19.471 37.0888 19.52 37.3268 19.408C37.7328 19.212 38.1598 19.044 38.5798 18.876C39.1819 18.631 39.6439 18.778 39.9869 19.324C40.2459 19.737 40.5049 20.157 40.7499 20.577C40.8409 20.738 40.9459 20.78 41.1349 20.759C41.6459 20.703 42.157 20.668 42.668 20.64C43.228 20.612 43.606 20.892 43.746 21.431C43.872 21.9141 43.984 22.4041 44.096 22.8871C44.138 23.0691 44.215 23.1741 44.411 23.2161C44.908 23.3211 45.405 23.4401 45.902 23.5731C46.4271 23.7131 46.7001 24.0841 46.6861 24.6231C46.6721 25.0921 46.637 25.5541 46.574 26.0162C46.539 26.2962 46.5741 26.4782 46.8541 26.6182C47.2111 26.7932 47.5401 27.0242 47.8761 27.2342C48.5831 27.6682 48.7161 28.0882 48.3941 28.8652C48.2471 29.2222 48.1071 29.5863 47.9391 29.9293C47.8201 30.1813 47.8341 30.3563 48.0371 30.5663C48.3381 30.8743 48.6111 31.2173 48.8841 31.5463C49.3181 32.0573 49.3251 32.5333 48.9051 33.0513C48.6111 33.4083 48.3101 33.7724 47.9881 34.1084C47.8271 34.2764 47.8271 34.4234 47.9181 34.6194C48.1141 35.0674 48.3031 35.5154 48.4781 35.9704C48.6741 36.4884 48.5271 36.9434 48.0721 37.2514C47.8201 37.4195 47.5611 37.6015 47.2881 37.7275C46.7351 37.9795 46.399 38.3155 46.616 38.9735C46.637 39.0365 46.623 39.1065 46.623 39.1765C46.623 39.4425 46.7211 39.6455 46.9101 39.8345C48.5831 41.4936 50.2491 43.1596 51.9082 44.8326C52.1252 45.0567 52.3002 45.3227 52.4962 45.5747C52.5032 45.7777 52.5032 45.9597 52.5032 46.1417ZM31.3627 21.088C31.1106 21.494 30.8656 21.872 30.6416 22.2641C30.3476 22.7751 29.9206 22.9501 29.3536 22.8731C28.9266 22.8171 28.4996 22.7961 28.0726 22.7681C27.9676 23.2091 27.8486 23.6151 27.7716 24.0281C27.6596 24.6511 27.3026 24.9801 26.6935 25.0921C26.2735 25.1691 25.8605 25.2881 25.4545 25.3861C25.4965 25.8692 25.5315 26.3102 25.5735 26.7512C25.6295 27.2972 25.4195 27.6962 24.9365 27.9622C24.5445 28.1862 24.1665 28.4312 23.7744 28.6762C23.9704 29.1382 24.1455 29.5652 24.3275 29.9923C24.5165 30.4403 24.4605 30.8533 24.1315 31.2313C23.8164 31.5883 23.5155 31.9523 23.2005 32.3233C23.5225 32.7013 23.8234 33.0583 24.1315 33.4083C24.4675 33.7934 24.5165 34.2134 24.3205 34.6754C24.1385 35.1024 23.9635 35.5294 23.7814 35.9704C24.1525 36.1944 24.4885 36.4324 24.8455 36.6214C25.4685 36.9364 25.6575 37.4335 25.5595 38.0915C25.5035 38.4695 25.4895 38.8545 25.4545 39.2605C25.8955 39.3725 26.3225 39.4915 26.7565 39.5755C27.3305 39.6805 27.6525 40.0165 27.7646 40.5835C27.8486 41.0105 27.9676 41.4376 28.0656 41.8716C28.5766 41.8366 29.0526 41.8086 29.5286 41.7666C30.0256 41.7246 30.3826 41.9276 30.6276 42.3546C30.8657 42.7536 31.1106 43.1456 31.3556 43.5586C31.7617 43.3906 32.1607 43.2506 32.5317 43.0616C33.1057 42.7746 33.5957 42.8726 34.0507 43.3136C34.3518 43.6006 34.6807 43.8596 35.0028 44.1326C35.3878 43.8036 35.7448 43.5026 36.0948 43.1946C36.4658 42.8726 36.8718 42.8096 37.3268 43.0056C37.7608 43.1946 38.2018 43.3696 38.6498 43.5586C38.8948 43.1596 39.1398 42.7886 39.3569 42.4036C39.6159 41.9346 39.9939 41.7176 40.5329 41.7736C40.9949 41.8156 41.4569 41.8436 41.9399 41.8786C42.0519 41.3956 42.171 40.9335 42.276 40.4715C42.388 39.9885 42.6959 39.7085 43.172 39.5965C43.557 39.5055 43.942 39.4005 44.334 39.3305C44.53 39.2955 44.565 39.2185 44.544 39.0295C44.495 38.6375 44.474 38.2385 44.439 37.8395C44.397 37.3285 44.6 36.9644 45.041 36.7054C45.44 36.4744 45.832 36.2224 46.238 35.9774C46.056 35.5434 45.902 35.1234 45.72 34.7244C45.482 34.2064 45.559 33.7584 45.944 33.3453C46.2451 33.0233 46.5251 32.6733 46.8191 32.3303C46.5041 31.9593 46.21 31.5953 45.895 31.2523C45.552 30.8673 45.496 30.4543 45.692 29.9923C45.874 29.5652 46.049 29.1382 46.238 28.6832C45.881 28.4662 45.545 28.2282 45.181 28.0462C44.544 27.7242 44.355 27.2202 44.46 26.5482C44.516 26.1702 44.53 25.7852 44.565 25.3931C44.117 25.2881 43.704 25.1761 43.284 25.0991C42.703 24.9871 42.3669 24.6511 42.2549 24.0701C42.1709 23.6431 42.0519 23.2161 41.9469 22.7891C41.4919 22.8311 41.0719 22.8451 40.6519 22.9011C40.0779 22.9781 39.6579 22.7891 39.3709 22.2781C39.1889 21.9491 38.9718 21.641 38.7898 21.312C38.6988 21.151 38.6148 21.116 38.4398 21.2C38.1038 21.361 37.7468 21.48 37.4038 21.634C36.9068 21.8581 36.4658 21.8021 36.0528 21.424C35.7238 21.116 35.3668 20.836 35.0098 20.535C34.6388 20.85 34.2817 21.151 33.9317 21.459C33.5467 21.802 33.1337 21.8581 32.6717 21.655C32.2447 21.452 31.8107 21.277 31.3627 21.088ZM49.5561 45.4277C49.4511 45.3157 49.3811 45.2317 49.2971 45.1547C48.2051 44.0626 47.0781 42.9916 46.028 41.8576C45.559 41.3536 45.125 41.1155 44.453 41.4096C44.271 41.4936 44.145 41.5496 44.103 41.7526C44.019 42.1656 43.914 42.5716 43.823 42.9776C43.634 43.8036 43.2139 44.0976 42.3739 43.9996C41.9539 43.9506 41.5339 43.9156 41.1139 43.8946C41.0159 43.8876 40.8689 43.9296 40.8269 43.9996C40.5399 44.4406 40.2669 44.9026 40.0359 45.2877C41.6599 46.9187 43.256 48.5077 44.845 50.0968C45.139 49.2148 45.461 48.3047 45.741 47.3877C45.909 46.8277 46.231 46.5127 46.791 46.3447C47.7081 46.0647 48.6111 45.7427 49.5561 45.4277ZM20.4494 45.3367C20.4704 45.3717 20.4914 45.4067 20.5124 45.4417C21.2754 45.7007 22.0244 46.0087 22.8085 46.1907C23.7255 46.4077 24.2225 46.9117 24.4395 47.8217C24.6215 48.6057 24.9365 49.3618 25.1955 50.1178C26.8125 48.5007 28.4016 46.9117 30.0116 45.3017C29.7806 44.9236 29.5216 44.5176 29.2906 44.1046C29.1856 43.9156 29.0596 43.8526 28.8566 43.8736C28.3596 43.9226 27.8626 43.9786 27.3586 44.0066C26.8126 44.0346 26.4205 43.7336 26.2735 43.2156C26.1965 42.9426 26.0915 42.6696 26.0775 42.3896C26.0425 41.6546 25.6715 41.3116 24.9505 41.2556C24.7475 41.2416 24.6215 41.2556 24.4745 41.3956C23.2494 42.6346 22.0174 43.8596 20.7784 45.0917C20.6804 45.1897 20.5614 45.2597 20.4494 45.3367Z" fill="#202124"/>
<path d="M33.9542 31.2867C34.0662 31.1327 34.1362 31.0137 34.2342 30.9157C35.7322 29.4177 37.2233 27.9196 38.7213 26.4216C39.3164 25.8266 39.8624 25.8266 40.4644 26.4216C41.4094 27.3596 42.3474 28.3046 43.2924 29.2497C43.8875 29.8447 43.8875 30.3977 43.2924 30.9927C40.4574 33.8278 37.6293 36.6629 34.7943 39.4909C34.1852 40.1 33.6532 40.1 33.0512 39.4979C31.1261 37.5729 29.2011 35.6478 27.283 33.7298C26.702 33.1488 26.695 32.5888 27.276 32.0147C28.235 31.0557 29.1871 30.0967 30.1461 29.1447C30.7061 28.5847 31.2661 28.5847 31.8331 29.1517C32.5192 29.8377 33.1982 30.5237 33.9542 31.2867ZM39.5404 28.4447C39.4564 28.5637 39.3934 28.6757 39.3024 28.7667C37.7833 30.2927 36.2573 31.8117 34.7382 33.3378C34.4652 33.6108 34.1502 33.7998 33.7652 33.7018C33.5272 33.6388 33.2752 33.5058 33.1002 33.3308C32.3862 32.6448 31.7002 31.9377 31.0282 31.2657C30.4611 31.8257 29.9291 32.3578 29.4251 32.8548C30.9231 34.3528 32.4282 35.8648 33.9192 37.3559C36.3273 34.9478 38.7564 32.5188 41.1784 30.0897C40.6744 29.5857 40.1494 29.0537 39.5404 28.4447Z" fill="#202124"/>
</svg>
