<svg width="70" height="71" viewBox="0 0 70 71" fill="none" xmlns="http://www.w3.org/2000/svg">
<circle cx="35" cy="35.627" r="35" fill="#E6FAF8"/>
<path d="M34.53 53.127C33.3333 52.6231 32.1015 52.1891 30.9328 51.6083C25.4179 48.8718 22.0516 44.4627 20.7988 38.4369C20.3369 36.2254 20.1339 33.9858 20.12 31.7323C20.106 29.9336 20.1479 28.135 20.1829 26.3364C20.2179 24.7127 21.6666 23.124 23.2903 22.9281C24.641 22.7671 26.0058 22.6691 27.3215 22.2982C29.4281 21.7103 31.2967 20.6955 32.9204 19.2328C33.2213 18.9599 33.5223 18.6659 33.8652 18.456C34.712 17.9311 35.7058 18.043 36.5177 18.7289C37.0495 19.1768 37.5604 19.6457 38.1133 20.0656C39.954 21.4723 42.0535 22.2982 44.3351 22.6481C45.0979 22.7671 45.8678 22.8231 46.6376 22.9211C48.4082 23.152 49.794 24.7057 49.822 26.4973C49.8499 28.4009 49.9129 30.2976 49.8709 32.2012C49.808 35.0146 49.507 37.8 48.6672 40.5015C47.3585 44.7007 44.8809 48.018 41.1787 50.4045C39.4151 51.5453 37.5254 52.4341 35.5309 53.071C35.5099 53.078 35.5029 53.099 35.4819 53.12C35.1669 53.127 34.845 53.127 34.53 53.127ZM22.2265 30.0176C22.1845 30.0176 22.1495 30.0176 22.1075 30.0176C22.1915 31.6063 22.2615 33.202 22.3595 34.7907C22.4575 36.3793 22.7514 37.947 23.1853 39.4797C24.1721 42.951 26.0547 45.8134 28.9522 47.99C30.7228 49.3197 32.6894 50.2715 34.768 50.9994C34.929 51.0554 35.1599 51.0344 35.3209 50.9644C36.5246 50.4395 37.7634 49.9706 38.9182 49.3477C41.7386 47.822 43.9641 45.6805 45.4758 42.825C46.8966 40.1376 47.4564 37.2332 47.7084 34.2518C47.9183 31.7253 47.8134 29.1988 47.7784 26.6723C47.7644 25.8395 47.3025 25.2096 46.5606 25.0136C46.3227 24.9506 46.0637 24.9436 45.8188 24.9087C44.608 24.7127 43.3833 24.5937 42.1935 24.2998C39.604 23.6559 37.3575 22.3612 35.4189 20.5205C35.006 20.1286 35.013 20.1566 34.565 20.5135C33.6552 21.2344 32.7734 21.9972 31.7936 22.6131C29.4701 24.0618 26.8876 24.7267 24.1721 24.9017C22.8144 24.9856 22.2195 25.5805 22.2125 26.9452C22.2265 27.967 22.2265 28.9958 22.2265 30.0176Z" fill="#202124"/>
<path d="M26.2734 35.6794C26.3014 30.9203 29.9967 26.9451 34.9657 26.9102C39.7387 26.8752 43.6929 30.6474 43.7209 35.5954C43.7489 40.3334 40.0187 44.3016 35.0567 44.3436C30.3466 44.3996 26.3854 40.6834 26.2734 35.6794ZM35.0077 42.2791C38.6819 42.2791 41.6353 39.3326 41.6493 35.6514C41.6633 31.9701 38.6889 28.9887 35.0077 28.9887C31.3334 28.9887 28.38 31.9351 28.366 35.6164C28.345 39.2907 31.3194 42.2791 35.0077 42.2791Z" fill="#202124"/>
<path d="M33.4525 36.9814C33.9494 36.4845 34.4183 36.0156 34.8802 35.5467C35.727 34.6998 36.5739 33.86 37.4137 33.0132C37.7567 32.6702 38.1486 32.5163 38.6175 32.6982C39.2544 32.9502 39.4713 33.748 39.0444 34.2869C38.9744 34.3779 38.8904 34.4549 38.8134 34.5389C37.3227 36.0296 35.839 37.5203 34.3483 39.004C33.7325 39.6198 33.2006 39.6268 32.5847 39.011C32.0248 38.4581 31.4649 37.9122 30.926 37.3383C30.3521 36.7294 30.6041 35.8266 31.3879 35.6026C31.7938 35.4907 32.1298 35.6306 32.4097 35.9106C32.7526 36.2605 33.0886 36.6104 33.4525 36.9814Z" fill="#202124"/>
</svg>
