<svg width="70" height="71" viewBox="0 0 70 71" fill="none" xmlns="http://www.w3.org/2000/svg">
<circle cx="35" cy="35.627" r="35" fill="#FAF3E6"/>
<path d="M31.4565 18.127C32.0374 18.3789 32.2193 18.8268 32.2123 19.4357C32.1913 20.7934 32.2123 22.1441 32.2053 23.5019C32.2053 24.0268 31.8554 24.4537 31.3865 24.5447C30.8896 24.6427 30.4067 24.3907 30.2247 23.9288C30.1688 23.7818 30.1478 23.6209 30.1478 23.4599C30.1408 22.0602 30.1548 20.6604 30.1408 19.2607C30.1338 18.7148 30.3997 18.3719 30.8476 18.127C31.0436 18.127 31.2465 18.127 31.4565 18.127Z" fill="#202124"/>
<path d="M43.2139 30.4934C44.6976 31.3123 45.3065 32.551 45.0475 34.2097C45.7614 34.4336 46.3562 34.8046 46.7902 35.4064C47.308 36.1273 47.539 36.9321 47.385 37.821C47.357 38.0029 47.378 38.0939 47.581 38.1709C49.9045 39.0527 50.5064 41.7962 48.7568 43.5598C46.0063 46.3313 43.2349 49.0887 40.4704 51.8462C39.6166 52.7 38.5808 53.1199 37.37 53.1199C34.2627 53.1129 31.1553 53.1129 28.0409 53.1269C27.621 53.1269 27.2991 53.0009 27.0051 52.707C24.8775 50.5654 22.736 48.4378 20.6084 46.3033C20.1045 45.7994 20.1045 45.2185 20.6084 44.7146C21.4902 43.8258 22.372 42.9369 23.2679 42.0621C23.4498 41.8801 23.5268 41.6982 23.5268 41.4392C23.5198 37.422 23.5268 33.3978 23.5058 29.3806C23.4988 28.7368 23.7508 28.3099 24.2337 27.9389C26.7812 26.0143 30.3224 27.372 31.0223 30.5424C31.1833 31.2633 31.3512 31.9841 31.5122 32.698C31.5262 32.768 31.5612 32.838 31.6102 32.9569C32.478 32.0821 33.3179 31.2353 34.1647 30.3884C36.7052 27.841 39.2597 25.3005 41.7932 22.753C42.479 22.0671 43.2839 21.6612 44.2567 21.6962C45.6074 21.7452 46.6012 22.403 47.1401 23.6348C47.679 24.8596 47.504 26.0493 46.6012 27.0361C45.5934 28.1349 44.5086 29.1637 43.4588 30.2205C43.3888 30.2975 43.3048 30.3884 43.2139 30.4934ZM32.485 35.0075C34.0527 36.6592 34.6756 38.5768 34.3187 40.7884C34.1017 42.1321 33.4858 43.2799 32.541 44.2527C32.1981 44.6026 31.7292 44.6726 31.3162 44.4626C30.9173 44.2597 30.6794 43.8538 30.7844 43.3848C30.8403 43.1469 30.9873 42.9019 31.1553 42.72C32.625 41.1103 32.765 38.7098 31.4492 36.9811C31.1413 36.5752 30.7284 36.2463 30.4064 35.8544C30.2105 35.6164 30.0355 35.3295 29.9585 35.0355C29.6156 33.6498 29.3147 32.2501 28.9857 30.8574C28.6568 29.4716 27.2431 28.7508 25.9693 29.2897C25.6964 29.4016 25.5774 29.5486 25.5774 29.8706C25.5984 33.8668 25.5984 37.863 25.6124 41.8592C25.6124 42.384 25.4654 42.797 25.0805 43.1609C24.2897 43.9097 23.5268 44.7006 22.75 45.4774C22.806 45.5474 22.8479 45.6034 22.8969 45.6454C24.6466 47.395 26.3892 49.1447 28.1459 50.8804C28.2509 50.9853 28.4398 51.0413 28.5938 51.0413C31.4772 51.0483 34.3536 51.0483 37.2371 51.0483C37.9649 51.0483 38.5878 50.8034 39.1057 50.2785C40.5474 48.8228 42.0031 47.3741 43.4518 45.9253C43.5218 45.8554 43.5778 45.7784 43.6408 45.7014C42.402 44.9805 41.9821 44.3437 41.7372 42.8949C39.9105 42.657 38.8747 41.6142 38.6228 39.7946C37.3001 39.5426 36.6002 39.1297 36.0543 38.2899C35.2005 36.9671 35.4104 35.3295 36.5932 34.1467C39.3296 31.4032 42.0661 28.6738 44.8026 25.9303C44.9145 25.8184 45.0335 25.7064 45.1245 25.5804C45.6354 24.9015 45.2785 23.9427 44.4456 23.7608C43.9417 23.6488 43.5708 23.8658 43.2279 24.2087C39.7216 27.722 36.2083 31.2353 32.695 34.7416C32.639 34.8396 32.569 34.9165 32.485 35.0075ZM43.0459 33.6148C43.0109 32.9569 42.794 32.593 42.339 32.397C41.8701 32.1941 41.4292 32.2711 41.0793 32.621C40.0225 33.6568 38.9727 34.6996 37.9369 35.7634C37.468 36.2393 37.496 36.9321 37.9579 37.387C38.4128 37.835 39.1057 37.856 39.5816 37.387C40.6314 36.3583 41.6742 35.3225 42.696 34.2657C42.8919 34.0557 42.9759 33.7408 43.0459 33.6148ZM40.6384 39.6266C40.6664 39.6406 40.6944 39.6616 40.7224 39.6756C40.7294 40.1655 40.9603 40.5294 41.4012 40.7254C41.8701 40.9353 42.318 40.8514 42.689 40.4874C43.4588 39.7316 44.2217 38.9617 44.9845 38.1989C45.4814 37.695 45.4884 36.9881 45.0265 36.5192C44.5506 36.0433 43.8647 36.0503 43.3538 36.5472C42.591 37.2961 41.8281 38.0449 41.0933 38.8218C40.8833 39.0387 40.7854 39.3537 40.6384 39.6266ZM46.4052 40.0465C46.2793 40.1025 45.9993 40.1515 45.8173 40.3195C45.2155 40.8724 44.6276 41.4462 44.0817 42.0551C43.6688 42.503 43.7388 43.1749 44.1657 43.6018C44.5856 44.0217 45.2715 44.0777 45.7124 43.6718C46.3073 43.1259 46.8741 42.552 47.427 41.9571C47.756 41.6002 47.791 41.1593 47.581 40.7184C47.371 40.2915 47.0141 40.0745 46.4052 40.0465Z" fill="#202124"/>
<path d="M37.6842 22.578C37.6212 22.704 37.5442 22.963 37.3833 23.1449C37.0403 23.5369 36.6554 23.9008 36.2775 24.2577C35.8576 24.6566 35.2277 24.6566 34.8288 24.2717C34.4229 23.8868 34.4019 23.2569 34.7938 22.83C35.1647 22.4311 35.5496 22.0392 35.9555 21.6752C36.2845 21.3743 36.6834 21.3113 37.0963 21.5143C37.4882 21.7032 37.6632 22.0252 37.6842 22.578Z" fill="#202124"/>
<path d="M26.7398 24.6356C26.4878 24.4956 26.2079 24.3977 25.9979 24.2157C25.634 23.9078 25.3121 23.5508 24.9831 23.2079C24.5422 22.746 24.5282 22.1371 24.9482 21.7172C25.3681 21.2973 25.9839 21.3113 26.4388 21.7522C26.8028 22.1091 27.1737 22.466 27.5236 22.837C27.8316 23.1659 27.8946 23.5578 27.7056 23.9707C27.5236 24.3627 27.2017 24.5516 26.7398 24.6356Z" fill="#202124"/>
</svg>
