<svg width="70" height="71" viewBox="0 0 70 71" fill="none" xmlns="http://www.w3.org/2000/svg">
<circle cx="35" cy="35.627" r="35" fill="#FCE8FA"/>
<path d="M52.5011 20.7245C52.5011 27.9009 52.5011 35.0843 52.5011 42.2608C52.4871 42.2748 52.4661 42.2958 52.4591 42.3098C52.1721 43.8711 50.7858 44.9003 49.1194 44.8723C45.9198 44.8233 42.7202 44.8583 39.5205 44.8583C39.3875 44.8583 39.2545 44.8583 39.1214 44.8583C39.1214 45.5864 39.1214 46.2726 39.1214 46.9377C39.4925 46.9937 39.8496 47.0147 40.1857 47.0917C42.4051 47.6169 43.8964 49.2832 44.2045 51.5516C44.3165 52.3988 44.1625 52.7419 43.4693 53.127C37.8192 53.127 32.1691 53.127 26.5189 53.127C25.9308 52.8679 25.7418 52.4198 25.7628 51.7897C25.8328 49.9133 27.1981 47.9949 29.0254 47.3298C29.6135 47.1198 30.2437 47.0287 30.8668 46.8747C30.8668 46.2376 30.8668 45.5514 30.8668 44.8513C30.7058 44.8513 30.5657 44.8513 30.4327 44.8513C27.1841 44.8513 23.9424 44.8513 20.6938 44.8513C18.8384 44.8583 17.5011 43.535 17.5011 41.6867C17.5011 34.8813 17.4941 28.0829 17.5151 21.2776C17.5151 20.8015 17.6271 20.2904 17.8302 19.8703C18.3903 18.6941 19.3845 18.127 20.6868 18.127C30.2297 18.127 39.7796 18.127 49.3225 18.127C49.3925 18.127 49.4625 18.127 49.5255 18.127C50.4217 18.169 51.1639 18.533 51.766 19.2052C52.1581 19.6533 52.3261 20.1854 52.5011 20.7245ZM19.5525 38.6831C29.8726 38.6831 40.1507 38.6831 50.4497 38.6831C50.4497 38.536 50.4497 38.41 50.4497 38.284C50.4497 32.6899 50.4497 27.0957 50.4497 21.5016C50.4497 20.5424 50.0786 20.1784 49.1334 20.1784C39.7096 20.1784 30.2927 20.1784 20.8688 20.1784C19.9166 20.1784 19.5525 20.5494 19.5525 21.5016C19.5525 27.0957 19.5525 32.6899 19.5525 38.284C19.5525 38.41 19.5525 38.536 19.5525 38.6831ZM19.5665 40.7765C19.5665 41.1406 19.5315 41.4976 19.5735 41.8407C19.6435 42.4498 20.0426 42.7789 20.6588 42.8139C20.7358 42.8209 20.8198 42.8139 20.8968 42.8139C30.3067 42.8139 39.7096 42.8139 49.1194 42.8139C49.2315 42.8139 49.3505 42.8209 49.4625 42.8069C49.9036 42.7579 50.2747 42.5548 50.3727 42.1068C50.4707 41.6727 50.4497 41.2176 50.4777 40.7765C40.1226 40.7765 29.8586 40.7765 19.5665 40.7765ZM41.964 51.0755C41.943 51.0055 41.929 50.9565 41.908 50.9075C41.4529 49.7733 40.3257 49.0451 38.9884 49.0381C36.3349 49.0311 33.6814 49.0311 31.0278 49.0381C30.3697 49.0381 29.7396 49.1922 29.1935 49.5772C28.6544 49.9553 28.2553 50.4314 28.0312 51.0825C32.7012 51.0755 37.3221 51.0755 41.964 51.0755ZM37.035 44.8863C35.6628 44.8863 34.3115 44.8863 32.9742 44.8863C32.9742 45.6005 32.9742 46.2866 32.9742 46.9657C34.3395 46.9657 35.6768 46.9657 37.035 46.9657C37.035 46.2656 37.035 45.5864 37.035 44.8863Z" fill="#202124"/>
<path d="M42.3066 32.0808C42.0195 32.4379 41.7675 32.76 41.4944 33.068C40.9693 33.6841 40.3042 33.6771 39.7791 33.061C39.513 32.753 39.261 32.4309 38.9739 32.0808C38.7008 32.4099 38.4418 32.7249 38.1897 33.04C37.9307 33.3691 37.6086 33.5231 37.1885 33.5161C36.4744 33.5021 35.7532 33.5161 35.0321 33.5091C34.8291 33.5091 34.703 33.5651 34.577 33.7261C32.9667 35.7776 30.8383 36.7858 28.2547 36.5547C25.3562 36.3027 23.2557 34.7484 22.1845 32.0458C20.6302 28.139 22.6536 23.9312 26.6374 22.5729C29.354 21.6487 32.6096 22.6009 34.388 24.8694C34.647 25.1984 34.8991 25.3245 35.3192 25.3175C38.5678 25.2965 41.8095 25.3105 45.0581 25.2965C45.5762 25.2965 45.9403 25.4785 46.2273 25.9126C46.8295 26.8368 47.4386 27.761 48.0617 28.6711C48.4118 29.1822 48.4048 29.6443 48.0547 30.1484C47.4316 31.0586 46.8225 31.9828 46.2203 32.907C45.9473 33.3271 45.5902 33.5441 45.0791 33.5091C44.736 33.4881 44.393 33.4951 44.0569 33.5091C43.6578 33.5231 43.3568 33.3621 43.1117 33.061C42.8527 32.746 42.5936 32.4309 42.3066 32.0808ZM40.6402 30.8416C40.9063 30.5125 41.1653 30.1974 41.4244 29.8824C41.9565 29.2383 42.6566 29.2312 43.1887 29.8754C43.5738 30.3445 43.9519 30.8136 44.33 31.2827C44.54 31.5417 44.638 31.5417 44.8201 31.2757C45.1981 30.7225 45.5762 30.1624 45.9263 29.5953C45.9823 29.5043 45.9823 29.3083 45.9263 29.2172C45.5972 28.6851 45.2331 28.181 44.8971 27.6489C44.7641 27.4319 44.61 27.3549 44.351 27.3549C41.0043 27.3619 37.6576 27.3549 34.311 27.3689C33.8629 27.3689 33.5198 27.2148 33.2748 26.8368C33.1977 26.7107 33.1067 26.5917 33.0297 26.4657C31.9585 24.8764 29.7951 23.9942 27.9117 24.3863C25.1951 24.9464 23.4798 27.3059 23.7879 30.0644C24.1309 33.194 27.4286 35.2875 30.4112 34.2793C31.5664 33.8872 32.4976 33.215 33.1417 32.1788C33.4708 31.6537 33.8839 31.4297 34.5 31.4577C35.1931 31.4927 35.8863 31.4717 36.5864 31.4577C36.7194 31.4507 36.8875 31.3737 36.9785 31.2687C37.3636 30.8206 37.7276 30.3515 38.0987 29.8894C38.6378 29.2312 39.338 29.2312 39.8841 29.8964C40.1221 30.2044 40.3742 30.5125 40.6402 30.8416Z" fill="#202124"/>
<path d="M31.9239 29.4274C31.9169 31.1217 30.5236 32.501 28.8222 32.487C27.1279 32.473 25.7556 31.0727 25.7696 29.3784C25.7836 27.698 27.1699 26.3328 28.8503 26.3328C30.5516 26.3398 31.9309 27.726 31.9239 29.4274ZM28.8363 30.4286C29.3754 30.4356 29.8655 29.9595 29.8725 29.4134C29.8795 28.8813 29.4174 28.4122 28.8783 28.3842C28.3392 28.3632 27.8421 28.8323 27.828 29.3854C27.814 29.9245 28.2901 30.4216 28.8363 30.4286Z" fill="#202124"/>
</svg>
