<svg width="81" height="80" viewBox="0 0 81 80" fill="none" xmlns="http://www.w3.org/2000/svg">
<circle cx="40.5" cy="40" r="40" fill="#F3FAE1"/>
<path d="M35.0957 20C35.7758 20 36.4493 20 37.1294 20C37.3094 20.0333 37.4828 20.0667 37.6628 20.0933C41.1034 20.6734 43.7572 22.4404 45.6242 25.3809C45.7775 25.6209 45.9175 25.7076 46.2043 25.7143C48.4313 25.7343 50.3249 26.5611 51.8919 28.1414C52.7853 29.0415 53.3988 30.115 53.7989 31.2952C54.2789 31.3286 54.739 31.3352 55.1857 31.4019C57.9595 31.8153 60.1132 34.0823 60.4066 36.8828C60.6933 39.6366 59.0264 42.3237 56.406 43.2772C56.0992 43.3906 56.0392 43.5439 56.0392 43.8373C56.0459 48.7848 56.0459 53.7323 56.0459 58.6798C56.0459 59.5466 55.5925 60 54.7257 60C45.2441 60 35.7625 60 26.2876 60C25.3941 60 24.954 59.5533 24.954 58.6531C24.954 53.5123 24.954 48.3647 24.9607 43.2239C24.9607 42.9172 24.874 42.7438 24.6006 42.5838C22.2202 41.1702 20.8734 39.0698 20.6 36.3294C20.2733 33.0155 22.0802 29.8883 25.0607 28.3881C25.2207 28.3081 25.3674 28.1147 25.4274 27.948C26.801 23.9607 29.4948 21.3802 33.5888 20.3C34.0689 20.1734 34.5823 20.1 35.0957 20ZM24.834 39.9433C24.8674 39.9233 24.9007 39.91 24.934 39.89C24.934 39.1165 24.934 38.3364 24.934 37.5629C24.934 36.8228 25.4141 36.3361 26.1476 36.3361C35.7025 36.3361 45.2574 36.3361 54.819 36.3361C55.5525 36.3361 56.0326 36.8228 56.0326 37.5629C56.0392 38.5364 56.0326 39.5166 56.0326 40.4901C56.0326 40.5968 56.0459 40.7034 56.0526 40.8301C57.5261 40.13 58.3529 38.2564 57.9395 36.6161C57.4128 34.5424 55.4191 33.3222 53.3321 33.7956C52.452 33.9957 51.8985 33.6423 51.7185 32.7488C51.3384 30.9218 50.3583 29.5349 48.6847 28.6748C47.6778 28.1614 46.6043 27.9547 45.4708 28.1013C44.7507 28.1947 44.3439 27.9813 44.0039 27.3412C43.8439 27.0412 43.6972 26.7345 43.5038 26.4611C41.4235 23.4472 38.5696 22.0003 34.909 22.4471C31.3751 22.8738 28.448 25.5543 27.5811 29.0215C27.4078 29.7283 27.0477 30.1284 26.3743 30.4017C23.0537 31.7553 21.8535 35.9627 23.9339 38.8965C24.2072 39.2699 24.534 39.5966 24.834 39.9433ZM27.2944 57.6396C36.1092 57.6396 44.884 57.6396 53.6655 57.6396C53.6655 54.8591 53.6655 52.1054 53.6655 49.3316C44.864 49.3316 36.0892 49.3316 27.2944 49.3316C27.2944 52.1054 27.2944 54.8591 27.2944 57.6396ZM27.3078 38.6898C27.3078 41.4636 27.3078 44.1974 27.3078 46.9378C36.1092 46.9378 44.8774 46.9378 53.6655 46.9378C53.6655 44.184 53.6655 41.4436 53.6655 38.6898C44.8707 38.6898 36.1026 38.6898 27.3078 38.6898Z" fill="#202124"/>
<path d="M34.2356 52.5854C35.2491 52.5854 36.2626 52.5854 37.2761 52.5854C37.9829 52.5854 38.523 53.1055 38.5163 53.7656C38.5096 54.4258 37.9762 54.9258 37.2627 54.9258C35.2357 54.9258 33.2087 54.9258 31.1817 54.9258C30.455 54.9258 29.9415 54.4458 29.9415 53.7656C29.9349 53.0655 30.4483 52.5854 31.2017 52.5854C32.2086 52.5854 33.2221 52.5854 34.2356 52.5854Z" fill="#202124"/>
<path d="M44.864 54.9325C44.1972 54.9325 43.6838 54.4124 43.6904 53.739C43.6971 53.0922 44.2105 52.5854 44.8573 52.5854C45.5241 52.5854 46.0375 53.1055 46.0308 53.7723C46.0242 54.4258 45.5107 54.9258 44.864 54.9325Z" fill="#202124"/>
<path d="M51.0316 53.7657C51.0316 54.4325 50.5048 54.9392 49.8314 54.9326C49.1846 54.9259 48.6845 54.4058 48.6845 53.7524C48.6845 53.0856 49.2113 52.5788 49.8847 52.5855C50.5315 52.5988 51.0316 53.1123 51.0316 53.7657Z" fill="#202124"/>
<path d="M34.2356 44.3041C33.2087 44.3041 32.1819 44.3041 31.1551 44.3041C30.4416 44.3041 29.9349 43.804 29.9415 43.1173C29.9482 42.4572 30.4483 41.9637 31.1484 41.9637C33.2021 41.9571 35.2557 41.9571 37.3094 41.9637C37.9895 41.9637 38.5163 42.4838 38.523 43.1306C38.5296 43.7707 37.9962 44.3041 37.3228 44.3041C36.2893 44.3041 35.2624 44.3041 34.2356 44.3041Z" fill="#202124"/>
<path d="M46.0308 43.117C46.0374 43.7838 45.5174 44.3038 44.8506 44.3038C44.2038 44.3038 43.6904 43.7904 43.6837 43.1437C43.6771 42.4769 44.1905 41.9568 44.8639 41.9568C45.5174 41.9635 46.0241 42.4702 46.0308 43.117Z" fill="#202124"/>
<path d="M51.0319 43.1438C51.0252 43.8106 50.4984 44.3174 49.8317 44.304C49.1849 44.2907 48.6848 43.7773 48.6915 43.1238C48.6981 42.4637 49.2249 41.9503 49.8917 41.9636C50.5384 41.9703 51.0385 42.4904 51.0319 43.1438Z" fill="#202124"/>
</svg>
