<svg width="50" height="51" viewBox="0 0 50 51" fill="none" xmlns="http://www.w3.org/2000/svg">
<path d="M37.5527 50.3318C33.2482 50.2249 28.372 48.1043 23.7403 45.3049C18.9077 42.3823 14.6487 38.7616 10.9193 34.5203C9.77884 33.2243 9.646 32.1097 10.5646 31.2543C11.5155 30.3698 12.6819 30.5885 13.8694 31.9299C16.907 35.3627 20.3334 38.3452 24.1258 40.9178C24.6734 41.2888 25.0833 41.4087 25.7167 40.9745C34.2267 35.1311 40.9434 27.7972 44.6322 18.0187C45.3596 16.0908 45.8505 13.9702 45.9234 11.9209C46.1162 6.463 43.0397 4.10908 37.7746 4.45739C36.7734 4.52381 35.7836 4.77006 34.7824 4.8381C33.6792 4.91262 32.8578 4.21763 32.7282 3.22293C32.5938 2.19259 33.1462 1.26917 34.1976 1.02778C37.1007 0.357091 40.0167 0.162687 42.9117 1.09258C47.0882 2.43397 49.7369 6.10173 49.8973 10.6961C50.0674 15.566 48.4717 19.9643 46.249 24.1716C45.75 25.116 45.7857 25.7916 46.2733 26.7069C48.3777 30.6533 49.8827 34.8022 49.886 39.3464C49.8908 46.0566 45.5167 50.361 37.5527 50.3318ZM43.1839 29.2487C39.1776 34.9091 34.46 39.6396 28.8239 43.633C32.1029 45.2498 35.3381 46.4 38.8519 46.4049C43.3589 46.4097 45.8602 44.0137 45.9687 39.5197C46.0562 35.9217 44.838 32.6184 43.1839 29.2487Z" fill="#F7421E"/>
<path d="M11.1807 50.458C4.66489 50.4564 -0.92099 46.0175 0.127171 37.1916C0.57916 33.3813 1.93675 29.8593 3.73823 26.5075C4.17078 25.7023 4.19021 25.1207 3.7528 24.3042C1.68402 20.4372 0.143376 16.379 0.0510343 11.9288C-0.117449 3.67311 5.7098 -0.401275 13.3321 0.609624C19.8397 1.4731 25.4288 4.4977 30.4752 8.47164C33.5646 10.9049 36.3268 13.7627 39.1748 16.494C40.2554 17.5292 40.2408 18.7605 39.3562 19.5672C38.462 20.3821 37.2858 20.2493 36.2992 19.1298C33.1888 15.5982 29.6879 12.5185 25.795 9.8762C25.2166 9.48254 24.8035 9.43718 24.2025 9.85029C15.6941 15.6937 8.97903 23.0309 5.2886 32.8094C4.57417 34.7016 4.08653 36.7768 4.00553 38.7889C3.78844 44.2581 6.78713 46.6704 12.0571 46.3593C13.0583 46.301 14.0481 46.0548 15.0493 45.977C16.2287 45.8847 17.0792 46.5667 17.2056 47.6084C17.3352 48.6841 16.7374 49.5913 15.592 49.81C14.134 50.0886 12.6516 50.2474 11.1807 50.458ZM6.75148 21.5566C10.7481 15.8946 15.4997 11.1722 21.2362 7.07517C19.3164 6.36722 17.7256 5.68195 16.0748 5.20242C14.7334 4.81199 13.3272 4.51714 11.9372 4.44424C7.00259 4.18666 4.02335 6.317 3.95531 11.5141C3.90995 15.0263 5.11039 18.2664 6.75148 21.5566Z" fill="#F7421E"/>
<path d="M31.7452 25.4107C31.7436 29.1692 28.7546 32.1792 25.0172 32.1824C21.1713 32.1856 18.1839 29.2194 18.1855 25.3961C18.1872 21.5793 21.1794 18.6211 25.0318 18.626C28.7725 18.6325 31.7468 21.6409 31.7452 25.4107ZM25.0318 22.506C23.4993 22.4622 22.0769 23.8522 22.072 25.3977C22.0671 26.893 23.3842 28.2441 24.899 28.2943C26.4315 28.3462 27.8523 26.961 27.8555 25.4091C27.8588 23.9138 26.5303 22.5481 25.0318 22.506Z" fill="#F7421E"/>
</svg>
