<svg width="81" height="80" viewBox="0 0 81 80" fill="none" xmlns="http://www.w3.org/2000/svg">
<circle cx="40.5" cy="40" r="40" fill="#F7E4E1"/>
<path d="M50.823 60C43.9486 60 37.0676 60 30.1933 60C29.4865 59.6066 29.2131 59.1265 29.3532 58.5531C29.5065 57.9464 29.9666 57.6596 30.8067 57.6596C33.5004 57.6596 36.1942 57.6596 38.8879 57.6596C39.0279 57.6596 39.1679 57.6596 39.3079 57.6596C39.3079 55.8927 39.3079 54.1658 39.3079 52.4256C39.1413 52.4256 39.0012 52.4256 38.8546 52.4256C36.9009 52.4256 34.9473 52.4256 32.9937 52.4256C32.8137 52.4256 32.627 52.4256 32.4536 52.3856C31.3068 52.1322 30.58 51.212 30.58 50.0252C30.58 48.965 30.58 47.8982 30.58 46.8381C29.7399 46.7981 28.9264 46.8314 28.133 46.7181C24.5925 46.1913 22.1921 44.2244 20.9519 40.8639C20.7386 40.2905 20.6452 39.6637 20.4985 39.0636C20.4985 38.4368 20.4985 37.8167 20.4985 37.19C20.5519 36.9366 20.6119 36.6899 20.6586 36.4365C21.3587 32.5827 25.0392 29.4822 28.9531 29.4555C29.4798 29.4489 30.0133 29.4555 30.5733 29.4555C30.5733 29.4355 30.5867 29.3622 30.5933 29.2888C30.8 26.9552 31.6468 24.8949 33.2671 23.2013C35.7008 20.6542 38.6812 19.5607 42.175 20.1608C45.3955 20.7142 47.7425 22.5412 49.2961 25.3949C49.4294 25.635 49.5628 25.7083 49.8295 25.7216C50.4496 25.7417 51.0763 25.775 51.6898 25.8683C57.1906 26.7351 61.1045 31.9159 60.4244 37.4634C59.9843 41.0572 58.1107 43.7176 54.9836 45.5045C53.5834 46.3047 52.0565 46.6914 50.4162 46.8114C50.4162 46.9514 50.4162 47.0781 50.4162 47.2115C50.4162 48.1516 50.4162 49.0851 50.4162 50.0252C50.4162 51.4321 49.4161 52.4322 48.0092 52.4322C46.0423 52.4322 44.0753 52.4322 42.1084 52.4322C41.9683 52.4322 41.8283 52.4322 41.6883 52.4322C41.6883 54.1991 41.6883 55.9261 41.6883 57.6663C41.8683 57.6663 42.0283 57.6663 42.1817 57.6663C44.9421 57.6663 47.7025 57.6663 50.4629 57.6663C51.243 57.6663 51.7964 58.3264 51.6498 59.0665C51.5764 59.5333 51.2364 59.8066 50.823 60ZM50.4429 44.4244C50.7296 44.3844 51.0297 44.3644 51.3231 44.3044C54.4968 43.6709 56.7038 41.8507 57.724 38.7902C58.7375 35.7631 58.0774 32.996 55.9104 30.6624C54.1501 28.7621 51.9098 27.8953 49.3161 28.0753C48.1826 28.1553 47.9025 28.0487 47.4625 27.0018C46.1756 23.9414 43.0285 22.0678 39.7347 22.4012C35.6408 22.8146 32.5203 26.6418 32.9937 30.7224C33.127 31.9026 32.1269 32.4893 31.2601 32.1426C30.1733 31.7092 29.0331 31.7025 27.8863 31.9426C24.5991 32.6293 22.3321 35.9365 22.9455 39.1769C23.5723 42.5041 26.5127 44.8978 30.6 44.411C30.8467 44.0043 30.8867 43.6043 30.6733 43.1709C30.5867 42.9975 30.5933 42.7641 30.5933 42.5574C30.5867 40.8372 30.5867 39.1236 30.5933 37.4034C30.6 36.1032 31.6202 35.0763 32.927 35.0763C37.9944 35.0763 43.0552 35.0763 48.1226 35.0763C49.4161 35.0763 50.4363 36.1098 50.4429 37.41C50.4496 39.1303 50.4496 40.8439 50.4429 42.5641C50.4429 42.7841 50.4429 43.0308 50.3496 43.2109C50.1295 43.6376 50.1695 44.0043 50.4429 44.4244ZM43.0885 37.45C39.6747 37.45 36.3142 37.45 32.9604 37.45C32.9604 39.1769 32.9604 40.8705 32.9604 42.5574C38.0144 42.5574 43.0352 42.5574 48.0626 42.5574C48.0626 40.8372 48.0626 39.1436 48.0626 37.45C47.1758 37.45 46.309 37.45 45.4288 37.45C45.4288 37.8968 45.4355 38.3102 45.4288 38.7302C45.4222 39.4236 44.9221 39.9237 44.2553 39.9237C43.5886 39.9237 43.0952 39.417 43.0885 38.7236C43.0885 38.3102 43.0885 37.8968 43.0885 37.45ZM32.947 50.0519C38.0078 50.0519 43.0352 50.0519 48.0559 50.0519C48.0559 48.325 48.0559 46.6314 48.0559 44.9445C47.1691 44.9445 46.3156 44.9445 45.4288 44.9445C45.4288 45.3645 45.4288 45.7712 45.4288 46.1713C45.4222 46.9047 44.9554 47.4182 44.2753 47.4248C43.5752 47.4315 43.0885 46.9247 43.0818 46.1713C43.0818 45.7579 43.0818 45.3512 43.0818 44.9445C39.668 44.9445 36.3142 44.9445 32.9404 44.9445C32.947 46.6514 32.947 48.3383 32.947 50.0519Z" fill="#202124"/>
</svg>
