<svg width="547" height="241" viewBox="0 0 547 241" fill="none" xmlns="http://www.w3.org/2000/svg">
<path d="M128.373 185.546C124.973 169.331 122.274 152.723 124.484 136.189C126.563 120.702 132.564 105.552 142.072 92.185C142.928 90.9818 143.808 89.7949 144.722 88.6162C148.383 83.9097 152.517 79.416 157.181 75.4134C160.597 72.4831 166.395 75.3643 164.756 79.1787C150.495 112.263 145.015 148.041 148.994 182.992" fill="#D0B5E5"/>
<path d="M135.524 170.731C135.377 155.522 141.933 140.535 152.574 129.657C160.303 121.758 170.064 115.996 180.598 112.583C184.194 111.42 187.081 115.578 184.553 118.288C177.671 125.671 171.14 133.373 165.408 141.665C157.425 153.214 151 165.967 147.771 179.62" fill="#D0B5E5"/>
<path d="M120.489 186.16C115.123 146.601 104.882 118.591 86.0712 88.0515C84.0816 84.8265 87.4247 81.045 90.7433 82.7802C98.2367 86.6928 104.882 92.6926 110.19 99.6582C117.871 109.751 132.189 127.946 136.609 171.377" fill="#D0B5E5"/>
<path d="M102.909 175.56C102.909 166.45 94.5836 139.643 71.9404 127.578C68.4832 125.736 69.9754 120.35 73.8647 120.563C86.5113 121.251 96.8912 126.915 105.151 134.928C116.827 146.257 124.182 164.567 126.049 181.331" fill="#D0B5E5"/>
<path d="M183.004 115.89C174.1 120.498 166.15 126.866 159.7 134.552C152.933 142.614 147.894 152.077 144.942 162.193C143.238 168.03 142.243 174.07 142.007 180.152C141.998 180.324 142.267 180.324 142.276 180.152C142.863 169.372 145.659 158.756 150.535 149.13C155.118 140.093 161.527 132.031 169.232 125.483C173.505 121.857 178.152 118.681 183.102 116.061C183.224 116.012 183.118 115.832 183.004 115.89Z" fill="white"/>
<path d="M156.064 83.8359C152.607 88.7716 149.475 93.9284 146.72 99.2897C144.029 104.52 141.705 109.939 139.756 115.488C137.832 120.981 136.266 126.604 135.125 132.317C133.991 137.965 133.249 143.695 132.923 149.441C132.597 155.211 132.695 161.015 133.258 166.769C133.331 167.481 133.404 168.193 133.486 168.905C133.502 169.012 133.665 169.012 133.657 168.905C133.103 163.208 132.923 157.479 133.16 151.757C133.396 145.978 134.024 140.224 135.068 134.535C136.12 128.814 137.563 123.166 139.381 117.649C141.232 112.042 143.474 106.575 146.067 101.271C148.676 95.9256 151.644 90.7443 154.939 85.7922C155.354 85.1701 155.778 84.5481 156.202 83.926C156.268 83.8278 156.129 83.7459 156.064 83.8359Z" fill="white"/>
<path d="M95.8801 90.908C102.982 98.5612 108.673 107.442 113.191 116.839C118.034 126.923 121.491 137.621 124.084 148.491C125.585 154.802 126.783 161.17 127.876 167.563C127.892 167.661 128.047 167.62 128.031 167.522C126.278 156.063 123.799 144.669 120.17 133.651C116.819 123.477 112.441 113.598 106.651 104.577C103.512 99.6744 99.957 95.0498 95.9698 90.8098C95.9127 90.7607 95.823 90.8507 95.8801 90.908Z" fill="white"/>
<path d="M77.1835 125.433C85.1906 128.552 92.3333 133.701 98.2612 139.905C104.711 146.658 109.75 154.761 113.069 163.503C115.025 168.66 116.314 174.013 117.154 179.464C117.17 179.554 117.325 179.538 117.317 179.44C116.232 169.74 112.775 160.213 107.744 151.88C103.088 144.161 96.9484 137.286 89.6181 132.039C85.7858 129.297 81.6192 127.013 77.2161 125.327C77.1509 125.311 77.1183 125.409 77.1835 125.433Z" fill="white"/>
<path d="M91.6484 167.375V176.501C91.6484 212.688 109.195 222.985 109.195 222.985H147.828C147.828 222.985 165.375 212.688 165.375 176.501V167.375H91.6484Z" fill="#FF796D"/>
<path d="M217.275 82.1254H228.658C228.658 82.1254 233.15 79.2605 235.197 79.0886C237.994 78.8676 243.269 79.0641 242.984 80.1445C242.699 81.225 234.806 82.6411 235.05 83.5742C235.295 84.5073 239.347 84.0162 239.347 84.802C239.347 86.4554 228.429 86.529 228.429 86.529L212.211 88.5508" fill="#FFBEA1"/>
<path d="M166.737 39.0056C166.737 39.0056 183.583 42.8363 189.756 53.2643C196.14 64.0443 204.416 78.0329 204.416 78.0329L227.622 82.1255V87.3722C227.622 87.3722 206.471 92.8482 200.127 92.8482C188.508 92.8482 174.076 62.6364 174.076 62.6364" fill="#5694F2"/>
<path d="M225.469 87.9205V81.7488" stroke="#050D75" stroke-width="0.75" stroke-miterlimit="10"/>
<path d="M189.788 226.128C189.788 226.128 188.116 227.929 188.116 230.958C188.116 233.102 188.524 234.543 188.524 234.543H189.453L189.657 232.775C189.657 232.775 192.144 233.045 194.753 234.526C196.017 235.247 202.108 234.772 203.013 234.207C204.024 233.577 203.657 232.595 203.282 232.21C202.907 231.825 196.123 229.378 196.123 229.378" fill="#19202D"/>
<path d="M178.315 156.578C169.762 182.845 189.788 226.128 189.788 226.128L193.734 227.659C193.734 227.659 196.661 182.149 196.661 160.45C196.661 142.148 199.523 112.689 180.761 103.923" fill="#FFBEA1"/>
<path d="M193.294 226.128C193.294 226.128 195.683 228.731 199.197 230.507C200.306 231.064 198.879 231.964 197.697 232.071C193.995 232.398 189.046 227.233 189.046 227.233L190.277 224.778" fill="#FFBEA1"/>
<path d="M142.316 231.236C139.634 233.929 135.712 240.461 138.199 240.968C140.686 241.476 147.355 235.124 147.355 235.124L147.331 235.656L148.309 235.672C148.309 235.672 149.141 232.177 147.657 230.679" fill="#19202D"/>
<path d="M139.438 138.915C139.438 138.915 140.188 161.751 139.764 165.828C139.34 169.896 142.308 230.434 142.308 231.236C142.145 232.415 138.965 236.908 140.563 236.908C142.055 236.908 147.869 231.67 147.633 230.688C147.967 229.82 157.898 196.211 160.035 183.131C162.521 167.882 159.472 158.035 159.472 158.035L167.821 108.736" fill="#FFBEA1"/>
<path d="M181.047 98.103C181.047 98.103 193.237 102.589 196.286 121.988C198.7 137.31 197.722 161.26 197.722 161.26C197.722 161.26 192.927 166.769 174.858 169.863C150.486 174.029 139.731 168.12 139.731 168.12C139.731 168.12 135.263 137.613 138.468 118.132C141.745 98.2176 157.523 91.3584 157.523 91.3584" fill="#212833"/>
<path d="M142.748 169.29C142.748 169.29 133.901 111.846 151.718 97.4482" stroke="#050D75" stroke-width="0.75" stroke-miterlimit="10"/>
<path d="M183.012 53.2643C183.012 53.2643 182.841 56.0718 183.787 57.758C185.605 60.983 188.002 63.4222 188.002 70.5515C188.002 74.947 184.178 79.2442 184.178 80.6112C184.178 81.9781 181.194 97.44 181.194 97.44C181.194 97.44 177.174 97.44 166.085 97.44C153.438 97.44 149.223 92.8481 149.223 92.8481L139.625 57.9544L160.931 39.9551L167.903 39.2102L183.012 53.2643Z" fill="#5694F2"/>
<path d="M174.956 54.6965H181.12" stroke="#050D75" stroke-width="0.75" stroke-miterlimit="10"/>
<path d="M183.012 53.2642C183.012 53.2642 182.841 56.0717 183.787 57.7579C185.605 60.9828 188.002 64.789 188.002 70.5514C188.002 74.9469 184.178 79.2441 184.178 80.6111C184.178 81.978 181.047 98.1029 181.047 98.1029" stroke="#050D75" stroke-width="0.75" stroke-miterlimit="10"/>
<path d="M189.274 71.8364L183.485 97.8491H220.405L226.284 71.4763C226.415 70.9361 226.113 70.4531 225.64 70.4531H190.823C190.114 70.4531 189.462 71.0425 189.274 71.8364Z" fill="#19202D"/>
<path d="M193.661 97.8492H165.008L165.163 96.4004C165.261 95.4755 166.085 94.7224 167.006 94.7224H193.987L193.661 97.8492Z" fill="#19202D"/>
<path d="M207.971 84.1554C207.587 85.8579 206.079 87.2412 204.619 87.2412C203.152 87.2412 202.279 85.8579 202.671 84.1554C203.054 82.4529 204.562 81.0696 206.022 81.0696C207.481 81.0696 208.354 82.4529 207.971 84.1554Z" fill="#19202D"/>
<path d="M154.792 101.312C159.105 101.312 184.504 101.312 184.504 101.312C184.504 101.312 189.511 101.844 193.465 101.77C197.42 101.696 199.784 98.5369 199.784 97.8493C199.784 97.3009 197.477 97.882 194.215 97.8493C192.209 97.8247 190.791 98.144 190.636 97.702C190.261 96.6543 194.069 95.9994 193.318 95.2546C193.033 94.9681 191.345 95.0254 190.195 95.2546C187.342 95.8357 184.357 97.5956 184.357 97.5956L159.57 91.825" fill="#FFBEA1"/>
<path d="M163.166 39.0056C163.166 39.0056 139.674 41.322 135.377 58.6175C130.599 77.82 142.732 99.5519 148.962 101.312C151.555 102.048 181.12 102.057 181.12 102.057L182.474 96.9244L157.531 91.3421L154.8 57.9545" fill="#5694F2"/>
<path d="M179.84 96.3433L179.041 102.065" stroke="#050D75" stroke-width="0.75" stroke-miterlimit="10"/>
<path d="M182.466 96.9325L157.523 91.3501L154.8 57.9543" stroke="#050D75" stroke-width="0.75" stroke-miterlimit="10"/>
<path d="M160.222 16.5453C157.768 17.2001 155.55 18.7389 153.96 20.8098C152.297 22.9789 151.326 25.6391 150.022 28.0619C149.345 29.3224 148.481 30.4684 147.641 31.6225C147.013 32.4819 145.57 33.4069 145.912 34.6265C146.255 35.8461 148.114 36.4354 149.182 36.5664C150.584 36.7383 152.019 36.5336 153.422 36.7546C154.62 36.9429 155.754 37.434 156.887 37.8678C159.382 38.8173 162.106 39.4967 164.788 39.2102C166.452 39.0383 167.862 38.1707 169.46 37.7942C171.091 37.4094 172.975 37.7369 174.663 37.7205C175.315 37.7123 176.024 37.6714 176.497 37.2294C176.929 36.8283 177.052 36.198 177.109 35.6087C177.329 33.2268 176.766 30.7794 175.535 28.7249C174.377 26.7932 172.665 25.2462 171.507 23.3145C170.186 21.1126 169.297 18.9026 167.186 17.2983C165.31 15.9068 162.383 15.9723 160.222 16.5453Z" fill="#19202D"/>
<path d="M168.971 34.4464L168.294 40.5117C168.294 40.5117 167.805 42.6562 165.734 42.8117C161.021 43.1637 160.923 39.9551 160.923 39.9551L164.527 32.3264" fill="#FFBEA1"/>
<path d="M164.854 33.9633C164.854 33.9633 171.833 37.1392 175.242 33.5132C177.191 31.4423 172.225 21.1043 170.064 19.6474C167.903 18.1904 163.671 19.7538 162.775 22.193C161.878 24.6404 159.505 31.0658 164.854 33.9633Z" fill="#FFBEA1"/>
<path d="M173.162 25.6064C173.162 25.8929 172.926 26.1302 172.64 26.1302C172.355 26.1302 172.119 25.8929 172.119 25.6064C172.119 25.3199 172.355 25.0825 172.64 25.0825C172.926 25.0825 173.162 25.3199 173.162 25.6064Z" fill="#19202D"/>
<path d="M167.39 27.7179C167.39 28.0044 167.626 28.2418 167.911 28.2418C168.197 28.2418 168.433 28.0044 168.433 27.7179C168.433 27.4315 168.197 27.1941 167.911 27.1941C167.618 27.1941 167.39 27.4315 167.39 27.7179Z" fill="#19202D"/>
<path d="M168.653 25.5491C168.025 25.2462 167.275 25.2708 166.663 25.6145C166.158 25.901 165.644 26.4494 165.628 27.0633C165.628 27.1615 165.758 27.1943 165.815 27.1124C165.954 26.8914 166.068 26.6622 166.239 26.4576C166.411 26.253 166.598 26.0811 166.835 25.9501C167.357 25.6555 167.993 25.6064 168.563 25.7701C168.694 25.8028 168.783 25.6145 168.653 25.5491Z" fill="#19202D"/>
<path d="M173.374 23.7401C172.926 23.2408 172.159 23.1917 171.572 23.4536C171.287 23.5846 171.05 23.7974 170.871 24.043C170.781 24.1658 170.708 24.3131 170.659 24.4604C170.61 24.6241 170.61 24.7797 170.675 24.9352C170.7 25.0088 170.798 25.0252 170.838 24.9597C170.904 24.8615 170.969 24.7633 171.018 24.6487C171.075 24.5259 171.132 24.4113 171.197 24.3049C171.328 24.1003 171.515 23.9284 171.735 23.8138C172.208 23.5682 172.787 23.6746 173.244 23.8956C173.358 23.9529 173.456 23.8302 173.374 23.7401Z" fill="#19202D"/>
<path d="M170.749 26.2856C170.749 26.2856 172.771 28.4465 172.559 28.9458C172.209 29.7644 170.994 29.7644 170.994 29.7644" stroke="#EF7F7F" stroke-width="0.75" stroke-miterlimit="10"/>
<path d="M171.148 31.5897L173.831 30.6648C173.831 30.6648 174.312 32.2527 173.432 32.5638C171.727 33.1777 171.148 31.5897 171.148 31.5897Z" fill="white"/>
<path d="M168.882 35.2485C168.882 35.2485 167.055 35.3304 164.805 34.0371" stroke="#EF7F7F" stroke-width="0.75" stroke-miterlimit="10"/>
<path d="M162.505 31.0494C165.432 28.9376 166.582 24.7222 167.153 21.1452C169.167 21.6527 171.164 22.2339 173.138 22.8887C173.333 21.9146 173.17 18.1822 168.547 16.7334C166.256 16.0131 163.753 17.1017 162.195 18.9352C159.92 21.6036 159.048 25.4179 159.937 28.8148" fill="#19202D"/>
<path d="M163.256 30.804C161.666 29.2079 160.5 30.141 160.239 30.8122C159.978 31.4752 160.214 32.2364 160.573 32.8585C161.021 33.6361 161.731 34.34 162.62 34.4628C163.508 34.5856 164.519 33.9144 164.487 33.014" fill="#FFBEA1"/>
<path d="M162.065 37.5403C162.065 37.5403 163.459 41.8621 165.726 42.8116C164.511 43.712 162.562 46.5113 162.562 46.5113C159.668 43.6056 159.57 39.2837 159.57 39.2837L162.065 37.5403Z" fill="white"/>
<path d="M168.466 39.0056C168.466 39.0056 167.43 42.0915 165.734 42.8118C166.762 43.7694 168.58 46.094 168.58 46.094C168.58 46.094 169.877 44.989 169.518 41.764C169.51 40.9128 168.466 39.0056 168.466 39.0056Z" fill="white"/>
<path d="M131.594 25.6963C131.594 18.6815 125.927 13.001 118.947 13.001H97.0543C90.0665 13.001 84.4077 18.6815 84.4077 25.6963C84.4077 32.711 90.0665 38.3916 97.0543 38.3916H118.947C120.179 38.3916 121.361 38.2033 122.486 37.8759L127.248 41.1582L125.87 36.3126C129.311 34.0534 131.594 30.1409 131.594 25.6963Z" fill="#F7421E"/>
<path d="M96.8424 26.9323C96.8424 28.0701 95.9211 28.995 94.7877 28.995C93.6543 28.995 92.7329 28.0701 92.7329 26.9323C92.7329 25.7946 93.6543 24.8696 94.7877 24.8696C95.9211 24.8778 96.8424 25.8027 96.8424 26.9323Z" fill="white"/>
<path d="M105.649 26.9323C105.649 28.0701 104.727 28.995 103.594 28.995C102.46 28.995 101.539 28.0701 101.539 26.9323C101.539 25.7946 102.46 24.8696 103.594 24.8696C104.727 24.8778 105.649 25.8027 105.649 26.9323Z" fill="white"/>
<path d="M114.455 26.9323C114.455 28.0701 113.533 28.995 112.4 28.995C111.267 28.995 110.345 28.0701 110.345 26.9323C110.345 25.7946 111.267 24.8696 112.4 24.8696C113.533 24.8696 114.455 25.8027 114.455 26.9323Z" fill="white"/>
<path d="M123.261 26.9323C123.261 28.0701 122.34 28.995 121.206 28.995C120.073 28.995 119.151 28.0701 119.151 26.9323C119.151 25.7946 120.073 24.8696 121.206 24.8696C122.34 24.8778 123.261 25.8027 123.261 26.9323Z" fill="white"/>
<path d="M263 83.9991C308 116.999 403.809 55.2464 374 40.9992C344.709 26.9991 359.108 126.817 412 75.9991C463 26.9992 496.583 14.8296 539.042 32.8425" stroke="black" stroke-dasharray="2 2"/>
<path fill-rule="evenodd" clip-rule="evenodd" d="M543.171 33.9408C543.139 34.0664 543.042 34.1655 542.917 34.2007L521.495 40.2335C521.302 40.2878 521.101 40.1754 521.047 39.9825C520.993 39.7896 521.105 39.5891 521.298 39.5348L539.295 32.8891L526.63 18.5751C526.486 18.4352 526.483 18.2054 526.623 18.0619C526.763 17.9184 526.993 17.9154 527.136 18.0554L543.072 33.5914C543.165 33.682 543.203 33.8151 543.171 33.9408Z" fill="black"/>
<path d="M57.9066 88.4936C57.9066 91.2936 55.6366 93.5736 52.8266 93.5736C50.0266 93.5736 47.7466 91.3036 47.7466 88.4936C47.7466 85.6936 50.0166 83.4136 52.8266 83.4136C55.6366 83.4136 57.9066 85.6936 57.9066 88.4936Z" fill="#DACD5A"/>
<path d="M48.8067 88.5636C50.5575 88.5636 51.9767 87.1444 51.9767 85.3936C51.9767 83.6429 50.5575 82.2236 48.8067 82.2236C47.056 82.2236 45.6367 83.6429 45.6367 85.3936C45.6367 87.1444 47.056 88.5636 48.8067 88.5636Z" stroke="#212833" stroke-width="2" stroke-miterlimit="10"/>
<path d="M2.06758 3.15487L5.53758 10.5549C5.82758 11.1849 6.85758 11.1349 7.29758 10.4849L11.6876 3.91487C12.0476 3.37487 11.7576 2.74487 11.1076 2.68487L3.24758 1.85487C2.46758 1.76487 1.77758 2.53487 2.06758 3.15487Z" stroke="#FF796D" stroke-width="2" stroke-miterlimit="10"/>
</svg>
