<svg width="81" height="80" viewBox="0 0 81 80" fill="none" xmlns="http://www.w3.org/2000/svg">
<circle cx="40.5" cy="40" r="40" fill="#FAE1F3"/>
<path d="M20.4238 52.3113C20.4238 42.5365 20.4238 32.7618 20.4238 22.9804C20.4505 22.9204 20.4772 22.8604 20.4972 22.8004C20.9439 21.0401 22.2641 20 24.071 20C35.0326 20 46.0008 20 56.9624 20C59.0493 20 60.5762 21.5269 60.5762 23.6072C60.5762 32.9618 60.5762 42.3232 60.5762 51.6778C60.5762 53.7581 59.0493 55.285 56.969 55.285C54.0953 55.285 51.2215 55.2917 48.3411 55.2784C48.0544 55.2784 47.9144 55.3584 47.7677 55.6117C46.3208 58.2054 44.1139 59.6856 41.1601 59.9657C37.913 60.2724 34.7325 58.4988 33.2256 55.6051C33.0856 55.3384 32.9323 55.2717 32.6522 55.2717C29.7518 55.2784 26.8514 55.2784 23.951 55.2784C22.9308 55.2784 22.0774 54.8916 21.3706 54.1582C20.8572 53.6515 20.6105 52.998 20.4238 52.3113ZM32.3255 52.9447C31.6588 47.5373 35.9127 43.5233 40.4934 43.5233C45.134 43.5233 49.3279 47.5973 48.6612 52.9447C48.8079 52.9447 48.9479 52.9447 49.0879 52.9447C51.6349 52.9447 54.182 52.9447 56.729 52.9447C57.7691 52.9447 58.2092 52.5046 58.2092 51.4778C58.2092 45.0636 58.2092 38.6493 58.2092 32.2351C58.2092 32.0951 58.2092 31.955 58.2092 31.795C46.3809 31.795 34.5925 31.795 22.7642 31.795C22.7642 31.9417 22.7642 32.0684 22.7642 32.1951C22.7642 38.636 22.7642 45.0769 22.7642 51.5178C22.7642 52.498 23.2176 52.9447 24.2044 52.9447C26.7647 52.9447 29.3251 52.9447 31.8855 52.9447C32.0388 52.9447 32.1788 52.9447 32.3255 52.9447ZM22.7775 29.388C34.6125 29.388 46.4075 29.388 58.2159 29.388C58.2159 27.5344 58.2159 25.7008 58.2159 23.8739C58.2159 22.7804 57.7958 22.3603 56.7023 22.3603C45.8941 22.3603 35.0859 22.3603 24.2777 22.3603C24.1577 22.3603 24.0443 22.3537 23.9243 22.3603C23.2909 22.407 22.7842 22.8604 22.7775 23.4872C22.7642 25.4474 22.7775 27.4011 22.7775 29.388ZM40.4867 45.8837C37.2662 45.8904 34.6058 48.5574 34.6125 51.7779C34.6192 54.985 37.2729 57.6387 40.48 57.6454C43.7005 57.652 46.3742 54.9916 46.3742 51.7645C46.3809 48.5441 43.7071 45.877 40.4867 45.8837Z" fill="#202124"/>
<path d="M29.9116 38.616C29.4648 39.2828 29.0448 39.8962 28.6447 40.5163C28.3314 41.003 27.9113 41.2697 27.3312 41.1631C26.7711 41.0564 26.4911 40.663 26.3644 40.1096C26.0044 38.616 25.6176 37.1292 25.2509 35.6423C25.0776 34.9555 25.4576 34.3021 26.0977 34.1421C26.7378 33.982 27.3712 34.3821 27.5512 35.0689C27.7246 35.7223 27.878 36.3824 28.058 37.1025C28.2513 36.8224 28.438 36.6024 28.5647 36.3557C29.2715 34.9422 30.525 34.9022 31.2718 36.369C31.3918 36.6091 31.5718 36.8158 31.7652 37.1025C31.9452 36.4024 32.1052 35.7623 32.2652 35.1289C32.4519 34.4021 33.052 33.9954 33.7121 34.1421C34.3855 34.2954 34.7456 34.9555 34.5589 35.7023C34.1855 37.1892 33.8121 38.6827 33.4454 40.1696C33.3121 40.703 33.012 41.0697 32.4719 41.1631C31.9252 41.2564 31.5118 41.023 31.2118 40.563C30.7984 39.9296 30.3716 39.3028 29.9116 38.616Z" fill="#202124"/>
<path d="M40.4938 38.616C40.0471 39.2894 39.627 39.9029 39.2269 40.5229C38.9136 41.0097 38.4868 41.2697 37.9134 41.163C37.3734 41.0564 37.0866 40.6763 36.96 40.1429C36.5999 38.6493 36.2199 37.1625 35.8465 35.6756C35.6664 34.9555 36.0332 34.3021 36.6866 34.142C37.34 33.982 37.9601 34.3887 38.1401 35.1155C38.3001 35.7356 38.4535 36.349 38.6135 36.9691C38.6202 36.9891 38.6335 37.0091 38.6735 37.0691C38.9402 36.6757 39.1869 36.3023 39.4403 35.929C40.0271 35.0688 40.9672 35.0688 41.554 35.9223C41.8073 36.2957 42.0607 36.6757 42.3474 37.1091C42.5274 36.4024 42.6874 35.7623 42.8475 35.1222C43.0342 34.4021 43.6409 33.9887 44.301 34.142C44.9744 34.3021 45.3278 34.9555 45.1411 35.7089C44.7744 37.1958 44.3943 38.6894 44.0276 40.1762C43.8943 40.7096 43.5942 41.0697 43.0475 41.163C42.5007 41.2564 42.094 41.0163 41.794 40.5563C41.3806 39.9229 40.9539 39.3028 40.4938 38.616Z" fill="#202124"/>
<path d="M49.2676 37.0491C49.5276 36.6623 49.7877 36.2756 50.0477 35.8889C50.6078 35.0754 51.5546 35.0821 52.1147 35.8956C52.3814 36.2756 52.6347 36.669 52.9281 37.1024C53.1081 36.3956 53.2681 35.7555 53.4348 35.1155C53.6215 34.3954 54.235 33.9886 54.895 34.1486C55.5551 34.3087 55.9152 34.9621 55.7352 35.6822C55.3618 37.1824 54.9817 38.6826 54.615 40.1895C54.4883 40.7096 54.195 41.0696 53.6682 41.1696C53.1281 41.2697 52.7014 41.0563 52.4014 40.5962C51.9813 39.9561 51.5479 39.3227 51.0878 38.6293C50.6278 39.3094 50.1944 39.9561 49.7676 40.6029C49.5476 40.9363 49.2542 41.1563 48.8475 41.1897C48.2408 41.2363 47.7407 40.9029 47.5873 40.3029C47.1806 38.7426 46.7939 37.1757 46.4138 35.6089C46.2538 34.9488 46.6605 34.302 47.2873 34.1553C47.9207 34.0086 48.5475 34.3954 48.7208 35.0554C48.8942 35.7089 49.0542 36.369 49.2209 37.0224C49.2142 37.0157 49.2276 37.0224 49.2676 37.0491Z" fill="#202124"/>
<path d="M51.0416 27.0611C49.9081 27.0611 48.7679 27.0611 47.6344 27.0611C46.881 27.0611 46.3743 26.5677 46.3809 25.8676C46.3876 25.1875 46.901 24.7141 47.6411 24.7141C49.9414 24.7141 52.2351 24.7141 54.5354 24.7141C55.2755 24.7141 55.7823 25.1875 55.7889 25.8676C55.7956 26.5744 55.2822 27.0611 54.5288 27.0611C53.3686 27.0678 52.2018 27.0611 51.0416 27.0611Z" fill="#202124"/>
<path d="M26.3582 27.0612C25.6914 27.0545 25.1847 26.5211 25.2047 25.8477C25.218 25.2009 25.7448 24.7075 26.3982 24.7142C27.0649 24.7208 27.5717 25.2543 27.5517 25.9277C27.5383 26.5744 27.0183 27.0678 26.3582 27.0612Z" fill="#202124"/>
<path d="M31.0857 24.7141C31.7391 24.7141 32.2525 25.2209 32.2592 25.8676C32.2658 26.541 31.7524 27.0611 31.0857 27.0611C30.4189 27.0611 29.9055 26.541 29.9122 25.8676C29.9188 25.2209 30.4323 24.7141 31.0857 24.7141Z" fill="#202124"/>
<path d="M36.9662 25.9007C36.9595 26.5675 36.4328 27.0742 35.7594 27.0609C35.1126 27.0475 34.6125 26.5275 34.6192 25.874C34.6259 25.2073 35.1526 24.7005 35.8261 24.7139C36.4661 24.7205 36.9729 25.2473 36.9662 25.9007Z" fill="#202124"/>
<path d="M39.5331 52.7047C40.5466 51.6913 41.4867 50.7311 42.4469 49.791C43.1203 49.1242 44.1471 49.3576 44.4405 50.2244C44.5939 50.6711 44.4938 51.0845 44.1671 51.4179C42.9203 52.6781 41.6668 53.9382 40.3999 55.1851C39.9065 55.6718 39.2131 55.6652 38.713 55.1851C38.0596 54.5517 37.4128 53.9049 36.7727 53.2448C36.2927 52.7447 36.2927 52.0246 36.7527 51.5579C37.2128 51.0912 37.9396 51.0912 38.4397 51.5712C38.8064 51.918 39.1464 52.298 39.5331 52.7047Z" fill="#202124"/>
</svg>
