<svg width="30" height="30" viewBox="0 0 51 51" fill="none" xmlns="http://www.w3.org/2000/svg">
<path d="M50.4131 25.334C50.329 25.4025 50.2321 25.4602 50.1616 25.5415C46.2846 30.0096 41.655 33.4852 36.2795 35.9351C32.5964 37.6137 28.7214 38.5534 24.6428 38.4105C21.3737 38.295 18.2455 37.508 15.2358 36.2434C11.3598 34.6157 7.89199 32.3381 4.71487 29.6024C3.17134 28.2732 1.69632 26.8765 0.390625 25.2263C0.839885 24.7095 1.26272 24.1761 1.73351 23.6896C5.44015 19.8655 9.64793 16.7275 14.5183 14.539C18.2113 12.88 22.0774 11.9227 26.155 12.0646C29.4242 12.1782 32.5524 12.9661 35.5621 14.2297C39.4234 15.8496 42.9059 18.0861 46.0351 20.8502C47.4827 22.1284 48.7874 23.5692 50.1586 24.9346C50.235 25.011 50.326 25.0726 50.4112 25.1411C50.4131 25.2038 50.4131 25.2694 50.4131 25.334ZM25.3965 14.9785C19.7558 14.9843 15.1389 19.6081 15.1467 25.2429C15.1545 30.8866 19.7714 35.4986 25.4092 35.4956C31.046 35.4927 35.6629 30.868 35.659 25.2292C35.6551 19.5915 31.0313 14.9726 25.3965 14.9785ZM14.3989 17.8698C10.6414 19.7627 7.32038 22.2469 4.3214 25.2371C7.33507 28.2341 10.6482 30.7192 14.4909 32.6895C11.2629 27.8005 11.7132 21.92 14.3989 17.8698ZM36.3363 17.7934C39.3422 22.7862 39.3461 27.6938 36.3676 32.6239C39.0192 31.5375 45.4585 26.7728 46.4324 25.1813C43.4628 22.2381 40.1565 19.752 36.3363 17.7934Z" fill="#F7421E"/>
<path d="M23.9375 48.8832V45.7883C23.9375 45.0336 24.5492 44.4219 25.3039 44.4219H25.5016C26.2562 44.4219 26.868 45.0336 26.868 45.7883V48.8832C26.868 49.6378 26.2562 50.2495 25.5016 50.2495H25.3039C24.5492 50.2505 23.9375 49.6388 23.9375 48.8832Z" fill="#F7421E"/>
<path d="M9.91233 11.7252C9.22327 11.0362 8.53029 10.3442 7.84417 9.65903C7.30976 9.12559 7.30976 8.26035 7.84417 7.72594L7.86864 7.70147C8.40305 7.16706 9.27025 7.16706 9.80369 7.70245C10.4859 8.38759 11.1779 9.08155 11.867 9.77355C12.3984 10.307 12.3984 11.1703 11.866 11.7037C11.8591 11.7106 11.8533 11.7164 11.8464 11.7233C11.312 12.2587 10.4467 12.2596 9.91233 11.7252Z" fill="#F7421E"/>
<path d="M42.9904 9.63562L40.8998 11.7214C40.3654 12.2548 39.5001 12.2539 38.9667 11.7194C38.9559 11.7087 38.9451 11.6979 38.9344 11.6862C38.4019 11.1527 38.4019 10.2875 38.9354 9.75503C39.6274 9.06303 40.3262 8.36418 41.0231 7.66631C41.5565 7.13288 42.4198 7.1319 42.9542 7.66436C42.966 7.6761 42.9777 7.68785 42.9895 7.69959C43.5258 8.23303 43.5258 9.1012 42.9904 9.63562Z" fill="#F7421E"/>
<path d="M11.9119 40.7278C11.216 41.4188 10.5191 42.1108 9.83203 42.794C9.2986 43.3245 8.43727 43.3225 7.90384 42.7911C7.89014 42.7774 7.87643 42.7637 7.86273 42.7509C7.32636 42.2165 7.32733 41.3483 7.86371 40.8149C8.54983 40.1327 9.24673 39.4387 9.94166 38.7477C10.4751 38.2163 11.3384 38.2172 11.8708 38.7487C11.8845 38.7624 11.8992 38.7771 11.9129 38.7908C12.4503 39.3252 12.4493 40.1944 11.9119 40.7278Z" fill="#F7421E"/>
<path d="M38.9075 38.7885C38.9212 38.7748 38.9339 38.762 38.9477 38.7483C39.4811 38.2149 40.3453 38.2139 40.8798 38.7464C41.5796 39.4452 42.2843 40.149 42.9871 40.8498C43.5225 41.3842 43.5215 42.2504 42.9871 42.7848C42.9744 42.7976 42.9606 42.8113 42.9479 42.824C42.4145 43.3564 41.5512 43.3564 41.0178 42.824C40.316 42.1242 39.6113 41.4204 38.9105 40.7216C38.3741 40.1891 38.3741 39.3229 38.9075 38.7885Z" fill="#F7421E"/>
<path d="M23.957 4.68289V1.61638C23.957 0.861738 24.5688 0.25 25.3234 0.25H25.4604C26.2151 0.25 26.8268 0.861738 26.8268 1.61638V4.68289C26.8268 5.43753 26.2151 6.04927 25.4604 6.04927H25.3234C24.5697 6.05025 23.957 5.43851 23.957 4.68289Z" fill="#F7421E"/>
<path d="M32.7296 25.252C32.7198 29.2855 29.4067 32.5801 25.376 32.5635C21.3425 32.5468 18.0538 29.2268 18.0783 25.1972C18.1018 21.1822 21.3944 17.9082 25.4074 17.9102C29.439 17.9121 32.7384 21.2214 32.7296 25.252ZM29.7962 25.2451C29.804 22.8579 27.823 20.8631 25.424 20.8436C23.0417 20.824 21.043 22.7992 21.0117 25.205C20.9794 27.6011 23.0005 29.635 25.4083 29.631C27.7995 29.6262 29.7884 27.6392 29.7962 25.2451Z" fill="#F7421E"/>
<path d="M24.4053 24.2584C24.4122 24.2515 24.4181 24.2457 24.4249 24.2388C24.9593 23.7054 25.8255 23.7054 26.36 24.2398C26.3697 24.2496 26.3795 24.2594 26.3883 24.2682C26.9228 24.8026 26.9218 25.6688 26.3874 26.2032L26.3678 26.2228C25.8334 26.7562 24.9691 26.7562 24.4347 26.2238C24.4249 26.214 24.4151 26.2052 24.4063 26.1954C23.8699 25.661 23.8699 24.7928 24.4053 24.2584Z" fill="#F7421E"/>
</svg>
