<svg width="178" height="101" viewBox="0 0 178 101" fill="none" xmlns="http://www.w3.org/2000/svg">
<path d="M67.99 58.3803C67.3952 58.4125 66.8069 58.2434 66.32 57.9003C66.1165 57.7495 65.9528 57.5514 65.8431 57.3232C65.7333 57.0949 65.6807 56.8434 65.69 56.5903V47.3203C65.6851 47.281 65.6893 47.2412 65.7021 47.2038C65.715 47.1664 65.7362 47.1324 65.7641 47.1045C65.7921 47.0765 65.8261 47.0553 65.8635 47.0424C65.9009 47.0296 65.9407 47.0254 65.98 47.0303H67.66C67.85 47.0303 67.94 47.1303 67.94 47.3203V55.8703C67.94 56.2503 68.11 56.4403 68.46 56.4403C68.6083 56.4464 68.7567 56.4295 68.9 56.3903C69.1 56.3903 69.21 56.4503 69.22 56.6303L69.37 57.8803C69.3772 57.9167 69.3765 57.9543 69.3679 57.9905C69.3594 58.0266 69.3432 58.0605 69.3205 58.0899C69.2977 58.1193 69.269 58.1434 69.2361 58.1607C69.2032 58.1781 69.167 58.1881 69.13 58.1903C68.762 58.3118 68.3775 58.3759 67.99 58.3803Z" fill="white"/>
<path d="M77.4399 57.3105C76.5958 58.008 75.535 58.3895 74.4399 58.3895C73.3449 58.3895 72.2841 58.008 71.4399 57.3105C70.698 56.5615 70.2817 55.5498 70.2817 54.4955C70.2817 53.4412 70.698 52.4296 71.4399 51.6805C72.2858 50.9866 73.3459 50.6074 74.4399 50.6074C75.534 50.6074 76.5941 50.9866 77.4399 51.6805C78.1648 52.4364 78.5695 53.4432 78.5695 54.4905C78.5695 55.5378 78.1648 56.5446 77.4399 57.3005V57.3105ZM73.02 55.9905C73.4117 56.3454 73.9214 56.5419 74.4499 56.5419C74.9785 56.5419 75.4882 56.3454 75.8799 55.9905C76.2345 55.5829 76.4298 55.0608 76.4298 54.5205C76.4298 53.9803 76.2345 53.4582 75.8799 53.0505C75.4882 52.6957 74.9785 52.4991 74.4499 52.4991C73.9214 52.4991 73.4117 52.6957 73.02 53.0505C72.6654 53.4582 72.4701 53.9803 72.4701 54.5205C72.4701 55.0608 72.6654 55.5829 73.02 55.9905Z" fill="white"/>
<path d="M87.8201 50.8604C88.0101 50.8604 88.1001 50.9604 88.1001 51.1504V58.3204C88.1176 58.8043 88.027 59.2861 87.835 59.7306C87.643 60.1752 87.3544 60.5714 86.9901 60.8904C86.1815 61.5799 85.1417 61.9372 84.0801 61.8904C83.1212 61.9241 82.1752 61.6623 81.3701 61.1404C81.0263 60.9147 80.7326 60.6206 80.5072 60.2766C80.2819 59.9325 80.1297 59.5458 80.0601 59.1404C80.0601 58.9404 80.0601 58.8504 80.3301 58.8504H82.0101C82.0814 58.8528 82.1505 58.8758 82.2091 58.9167C82.2676 58.9575 82.3131 59.0143 82.3401 59.0804C82.449 59.3841 82.6663 59.6369 82.9501 59.7904C83.296 59.9689 83.6809 60.0582 84.0701 60.0504C84.3049 60.0633 84.5399 60.0292 84.7614 59.9502C84.9829 59.8713 85.1864 59.7489 85.3601 59.5904C85.5188 59.4246 85.6422 59.2283 85.723 59.0135C85.8038 58.7987 85.8402 58.5697 85.8301 58.3404V57.7104C85.2286 58.1528 84.4965 58.3816 83.7501 58.3604C83.2277 58.3794 82.7068 58.2927 82.2188 58.1053C81.7308 57.918 81.2856 57.634 80.9101 57.2704C80.1891 56.5245 79.7861 55.5278 79.7861 54.4904C79.7861 53.4531 80.1891 52.4563 80.9101 51.7104C81.2875 51.35 81.7331 51.0688 82.2209 50.8833C82.7086 50.6978 83.2286 50.6118 83.7501 50.6304C84.5181 50.6101 85.2699 50.8537 85.8801 51.3204V51.1604C85.8755 51.1221 85.8795 51.0832 85.8918 51.0466C85.9041 51.0101 85.9244 50.9767 85.9512 50.9489C85.978 50.9211 86.0107 50.8997 86.0468 50.8861C86.0829 50.8725 86.1216 50.8672 86.1601 50.8704L87.8201 50.8604ZM83.9401 56.5804C84.1977 56.5884 84.454 56.5397 84.6907 56.4377C84.9274 56.3358 85.1389 56.1831 85.3101 55.9904C85.6425 55.5611 85.823 55.0334 85.823 54.4904C85.823 53.9474 85.6425 53.4198 85.3101 52.9904C85.1395 52.8003 84.9293 52.6499 84.6944 52.5497C84.4594 52.4495 84.2054 52.402 83.9501 52.4104C83.6895 52.4022 83.4302 52.4507 83.1902 52.5526C82.9502 52.6545 82.7352 52.8073 82.5601 53.0004C82.1918 53.4111 81.9981 53.9492 82.0201 54.5004C82.0021 55.0462 82.1914 55.5786 82.5501 55.9904C82.7256 56.183 82.9407 56.3355 83.1806 56.4373C83.4205 56.5391 83.6796 56.5879 83.9401 56.5804Z" fill="white"/>
<path d="M96.7301 57.3105C95.8843 58.0044 94.8241 58.3836 93.7301 58.3836C92.6361 58.3836 91.5759 58.0044 90.7301 57.3105C90.0046 56.5529 89.5996 55.5445 89.5996 54.4955C89.5996 53.4466 90.0046 52.4381 90.7301 51.6805C91.5767 50.9884 92.6366 50.6104 93.7301 50.6104C94.8236 50.6104 95.8835 50.9884 96.7301 51.6805C97.455 52.4364 97.8597 53.4432 97.8597 54.4905C97.8597 55.5378 97.455 56.5446 96.7301 57.3005V57.3105ZM92.3001 55.9905C92.4918 56.1729 92.7178 56.3154 92.965 56.4098C93.2122 56.5042 93.4756 56.5487 93.7401 56.5405C94.0029 56.5473 94.2645 56.5023 94.5099 56.4079C94.7552 56.3135 94.9796 56.1717 95.1701 55.9905C95.5189 55.5801 95.7104 55.0591 95.7104 54.5205C95.7104 53.982 95.5189 53.4609 95.1701 53.0505C94.9796 52.8694 94.7552 52.7275 94.5099 52.6332C94.2645 52.5388 94.0029 52.4937 93.7401 52.5005C93.4756 52.4924 93.2122 52.5368 92.965 52.6312C92.7178 52.7256 92.4918 52.8682 92.3001 53.0505C91.9513 53.4609 91.7598 53.982 91.7598 54.5205C91.7598 55.0591 91.9513 55.5801 92.3001 55.9905Z" fill="white"/>
<path d="M101.47 49.1601C101.205 49.3915 100.866 49.519 100.515 49.519C100.163 49.519 99.824 49.3915 99.5597 49.1601C99.4398 49.047 99.3444 48.9106 99.2791 48.7593C99.2138 48.608 99.1802 48.4449 99.1802 48.2801C99.1802 48.1153 99.2138 47.9523 99.2791 47.801C99.3444 47.6496 99.4398 47.5132 99.5597 47.4001C99.8268 47.1745 100.165 47.0508 100.515 47.0508C100.864 47.0508 101.203 47.1745 101.47 47.4001C101.59 47.5132 101.685 47.6496 101.75 47.801C101.816 47.9523 101.849 48.1153 101.849 48.2801C101.849 48.4449 101.816 48.608 101.75 48.7593C101.685 48.9106 101.59 49.047 101.47 49.1601ZM101.68 58.3801C101.085 58.4093 100.498 58.2405 100.01 57.9001C99.8093 57.7471 99.6485 57.5483 99.5406 57.3204C99.4328 57.0925 99.381 56.8421 99.3897 56.5901V51.1501C99.3848 51.1109 99.389 51.071 99.4018 51.0336C99.4147 50.9962 99.4359 50.9623 99.4639 50.9343C99.4918 50.9063 99.5258 50.8851 99.5632 50.8723C99.6006 50.8594 99.6404 50.8553 99.6797 50.8601H101.36C101.55 50.8601 101.64 50.9601 101.64 51.1501V55.8701C101.64 56.2501 101.81 56.4401 102.15 56.4401C102.301 56.4456 102.453 56.4287 102.6 56.3901C102.8 56.3901 102.91 56.4501 102.92 56.6301L103.07 57.8801C103.077 57.9166 103.076 57.9541 103.068 57.9903C103.059 58.0264 103.043 58.0604 103.02 58.0897C102.997 58.1191 102.969 58.1433 102.936 58.1606C102.903 58.1779 102.867 58.188 102.83 58.1901C102.458 58.3124 102.071 58.3765 101.68 58.3801Z" fill="white"/>
<path d="M109.25 50.6205C109.775 50.5998 110.298 50.6847 110.79 50.8702C111.281 51.0557 111.73 51.3381 112.11 51.7005C112.817 52.4594 113.21 53.4582 113.21 54.4955C113.21 55.5328 112.817 56.5316 112.11 57.2905C111.732 57.6561 111.283 57.9412 110.792 58.1286C110.3 58.3159 109.776 58.4016 109.25 58.3805C108.501 58.3971 107.767 58.1689 107.16 57.7305V61.3405C107.16 61.5305 107.06 61.6205 106.87 61.6205H105.19C105.152 61.6277 105.112 61.6254 105.075 61.6138C105.038 61.6023 105.004 61.5819 104.976 61.5543C104.949 61.5267 104.928 61.4928 104.917 61.4556C104.905 61.4183 104.903 61.3788 104.91 61.3405V53.1405C104.922 53.0603 104.915 52.9784 104.889 52.9015C104.864 52.8245 104.821 52.7546 104.763 52.6973C104.706 52.64 104.636 52.5968 104.559 52.5713C104.482 52.5459 104.4 52.5387 104.32 52.5505H103.99C103.77 52.5505 103.66 52.4705 103.66 52.3105V51.1305C103.655 51.0575 103.675 50.9849 103.717 50.9248C103.759 50.8648 103.82 50.8209 103.89 50.8005C104.236 50.6747 104.602 50.6137 104.97 50.6205C105.337 50.588 105.705 50.6658 106.028 50.844C106.35 51.0221 106.612 51.2925 106.78 51.6205C107.102 51.2947 107.487 51.0379 107.912 50.866C108.337 50.694 108.792 50.6105 109.25 50.6205ZM107.69 55.9905C107.868 56.1768 108.082 56.3251 108.32 56.4264C108.557 56.5278 108.812 56.58 109.07 56.58C109.328 56.58 109.583 56.5278 109.82 56.4264C110.057 56.3251 110.272 56.1768 110.45 55.9905C110.826 55.5716 111.023 55.0227 111 54.4605C111.026 53.8978 110.828 53.3477 110.45 52.9305C110.272 52.7441 110.057 52.5958 109.82 52.4945C109.583 52.3932 109.328 52.341 109.07 52.341C108.812 52.341 108.557 52.3932 108.32 52.4945C108.082 52.5958 107.868 52.7441 107.69 52.9305C107.326 53.3551 107.137 53.9018 107.16 54.4605C107.14 55.0187 107.329 55.5644 107.69 55.9905Z" fill="white"/>
<path d="M117.93 58.3804C117.032 58.4173 116.142 58.2025 115.36 57.7604C115.046 57.5714 114.779 57.3141 114.578 57.0077C114.377 56.7013 114.248 56.3536 114.2 55.9904C114.2 55.7904 114.27 55.6904 114.49 55.6904H115.96C116.03 55.6931 116.097 55.7151 116.156 55.7539C116.214 55.7927 116.26 55.8469 116.29 55.9104C116.5 56.4504 117.05 56.7204 117.93 56.7204C118.237 56.7344 118.542 56.6726 118.82 56.5404C118.915 56.4971 118.998 56.4287 119.058 56.3424C119.117 56.2561 119.153 56.1552 119.16 56.0504C119.16 55.7904 119 55.6104 118.68 55.4904C118.3 55.364 117.908 55.2802 117.51 55.2404C117.038 55.187 116.571 55.1035 116.11 54.9904C115.662 54.8889 115.254 54.6556 114.94 54.3204C114.755 54.0925 114.618 53.8291 114.539 53.5463C114.461 53.2636 114.441 52.9677 114.481 52.6769C114.521 52.3862 114.621 52.1068 114.774 51.8562C114.927 51.6056 115.13 51.3892 115.37 51.2204C116.09 50.7612 116.936 50.5376 117.79 50.5804C118.616 50.5524 119.434 50.7568 120.15 51.1704C120.438 51.3338 120.687 51.5595 120.877 51.8311C121.067 52.1027 121.195 52.4134 121.25 52.7404C121.25 52.9404 121.16 53.0404 120.98 53.0404H119.5C119.437 53.0441 119.375 53.0289 119.322 52.9967C119.268 52.9646 119.226 52.9171 119.2 52.8604C119.101 52.6235 118.915 52.4338 118.68 52.3304C118.415 52.1917 118.119 52.1229 117.82 52.1304C117.527 52.1144 117.234 52.1729 116.97 52.3004C116.877 52.3363 116.796 52.3993 116.739 52.4813C116.682 52.5633 116.651 52.6605 116.65 52.7604C116.656 52.8971 116.706 53.0282 116.793 53.1344C116.879 53.2406 116.997 53.3163 117.13 53.3504C117.514 53.4951 117.913 53.5957 118.32 53.6504C118.787 53.7119 119.251 53.7987 119.71 53.9104C120.158 54.0118 120.565 54.2452 120.88 54.5804C121.048 54.765 121.178 54.9812 121.262 55.2163C121.346 55.4515 121.383 55.701 121.37 55.9504C121.378 56.2961 121.297 56.6381 121.134 56.943C120.971 57.248 120.732 57.5055 120.44 57.6904C119.693 58.17 118.817 58.4107 117.93 58.3804Z" fill="white"/>
<path d="M131.94 57.8804C131.945 57.9159 131.944 57.9521 131.935 57.9871C131.927 58.022 131.911 58.0549 131.89 58.0837C131.869 58.1126 131.842 58.1369 131.811 58.1552C131.78 58.1735 131.745 58.1855 131.71 58.1904C131.345 58.3096 130.964 58.3736 130.58 58.3804C130.2 58.4197 129.816 58.3603 129.466 58.2079C129.115 58.0555 128.81 57.8152 128.58 57.5104C127.873 58.1177 126.96 58.4293 126.03 58.3804C125.598 58.4003 125.167 58.3296 124.764 58.1729C124.361 58.0161 123.995 57.7768 123.69 57.4704C123.387 57.1492 123.152 56.7702 122.999 56.3561C122.846 55.942 122.778 55.5013 122.8 55.0604V51.1504C122.8 50.9604 122.89 50.8604 123.08 50.8604H124.76C124.95 50.8604 125.04 50.9604 125.04 51.1504V54.7604C125.021 55.2101 125.175 55.6499 125.47 55.9904C125.617 56.1463 125.795 56.2689 125.994 56.35C126.192 56.4311 126.406 56.4687 126.62 56.4604C126.839 56.4699 127.058 56.436 127.264 56.3605C127.47 56.285 127.659 56.1693 127.82 56.0204C127.972 55.8633 128.091 55.6767 128.168 55.472C128.246 55.2673 128.28 55.0489 128.27 54.8304V51.1504C128.27 50.9604 128.36 50.8604 128.55 50.8604H130.25C130.44 50.8604 130.53 50.9604 130.53 51.1504V55.8604C130.53 56.2504 130.7 56.4404 131.03 56.4404C131.185 56.4464 131.34 56.4295 131.49 56.3904C131.528 56.3798 131.567 56.3778 131.606 56.3848C131.645 56.3917 131.681 56.4073 131.713 56.4304C131.745 56.4535 131.771 56.4835 131.789 56.5181C131.808 56.5528 131.818 56.5911 131.82 56.6304L131.94 57.8804Z" fill="white"/>
<path d="M147.83 57.8801C147.839 57.9159 147.84 57.9533 147.832 57.9894C147.825 58.0256 147.81 58.0598 147.788 58.0894C147.766 58.119 147.738 58.1434 147.705 58.1608C147.673 58.1783 147.637 58.1883 147.6 58.1901C147.228 58.311 146.841 58.375 146.45 58.3801C145.855 58.4108 145.267 58.2418 144.78 57.9001C144.569 57.7537 144.398 57.5576 144.281 57.3291C144.164 57.1006 144.105 56.8467 144.11 56.5901V54.2401C144.131 53.7917 143.981 53.352 143.69 53.0101C143.55 52.8538 143.376 52.7306 143.183 52.6493C142.989 52.568 142.78 52.5307 142.57 52.5401C142.381 52.533 142.193 52.5689 142.019 52.6451C141.846 52.7213 141.692 52.8359 141.57 52.9801C141.306 53.3152 141.171 53.734 141.19 54.1601V57.8501C141.19 58.0401 141.1 58.1401 140.91 58.1401H139.22C139.181 58.145 139.141 58.1408 139.103 58.128C139.066 58.1151 139.032 58.0939 139.004 58.0659C138.976 58.038 138.955 58.004 138.942 57.9666C138.929 57.9292 138.925 57.8894 138.93 57.8501V54.2401C138.952 53.7966 138.813 53.36 138.54 53.0101C138.418 52.8631 138.265 52.7448 138.092 52.6636C137.919 52.5824 137.731 52.5402 137.54 52.5401C137.336 52.5319 137.132 52.5668 136.943 52.6426C136.753 52.7185 136.582 52.8335 136.44 52.9801C136.154 53.3045 136.007 53.7282 136.03 54.1601V57.8501C136.035 57.8894 136.031 57.9292 136.018 57.9666C136.005 58.004 135.984 58.038 135.956 58.0659C135.928 58.0939 135.894 58.1151 135.856 58.128C135.819 58.1408 135.779 58.145 135.74 58.1401H134.11C133.92 58.1401 133.83 58.0401 133.83 57.8501V53.1401C133.842 53.0599 133.835 52.9781 133.809 52.9011C133.784 52.8242 133.74 52.7542 133.683 52.6969C133.626 52.6396 133.556 52.5965 133.479 52.571C133.402 52.5455 133.32 52.5383 133.24 52.5501H132.91C132.69 52.5501 132.58 52.4701 132.58 52.3101V51.1301C132.575 51.0571 132.595 50.9845 132.637 50.9245C132.678 50.8644 132.74 50.8205 132.81 50.8001C133.156 50.6744 133.522 50.6134 133.89 50.6201C134.243 50.59 134.598 50.6604 134.913 50.8232C135.228 50.986 135.49 51.2345 135.67 51.5401C136.007 51.2204 136.407 50.9736 136.844 50.8153C137.281 50.657 137.746 50.5906 138.21 50.6201C138.66 50.5981 139.11 50.6826 139.522 50.8668C139.933 51.051 140.296 51.3296 140.58 51.6801C140.911 51.3204 141.318 51.0387 141.771 50.8554C142.224 50.6721 142.712 50.5917 143.2 50.6201C143.636 50.5997 144.072 50.67 144.48 50.8266C144.888 50.9833 145.259 51.2228 145.57 51.5301C145.874 51.8506 146.109 52.2295 146.262 52.6437C146.415 53.058 146.483 53.4991 146.46 53.9401V55.8701C146.46 56.2501 146.63 56.4401 146.95 56.4401C147.105 56.4473 147.26 56.4305 147.41 56.3901C147.617 56.3901 147.727 56.4701 147.74 56.6301L147.83 57.8801Z" fill="white"/>
<path d="M30.5697 49.5605C31.3074 46.5952 33.0161 43.9619 35.4236 42.08C37.8311 40.1981 40.7989 39.1758 43.8547 39.1758C46.9104 39.1758 49.8783 40.1981 52.2858 42.08C54.6932 43.9619 56.4019 46.5952 57.1397 49.5605H55.9397C53.9154 49.5307 51.9325 50.1357 50.2697 51.2905C50.1737 51.36 50.0735 51.4234 49.9697 51.4805H49.8297C49.7258 51.4234 49.6256 51.36 49.5297 51.2905C47.8521 50.1624 45.8763 49.5599 43.8547 49.5599C41.833 49.5599 39.8573 50.1624 38.1797 51.2905C38.0837 51.36 37.9835 51.4234 37.8797 51.4805H37.7397C37.6358 51.4234 37.5356 51.36 37.4397 51.2905C35.7768 50.1357 33.794 49.5307 31.7697 49.5605H30.5697ZM53.7797 55.8305C54.3957 55.3508 55.1592 55.0998 55.9397 55.1205H57.5497V51.9105H55.9397C54.5649 51.8939 53.2215 52.3218 52.1097 53.1305C51.484 53.5918 50.727 53.8407 49.9497 53.8407C49.1723 53.8407 48.4154 53.5918 47.7897 53.1305C46.6496 52.3369 45.2938 51.9114 43.9047 51.9114C42.5155 51.9114 41.1598 52.3369 40.0197 53.1305C39.394 53.5918 38.637 53.8407 37.8597 53.8407C37.0823 53.8407 36.3254 53.5918 35.6997 53.1305C34.5741 52.3114 33.2115 51.883 31.8197 51.9105H30.1597V55.1205H31.7697C32.5502 55.0998 33.3137 55.3508 33.9297 55.8305C35.0677 56.6246 36.422 57.0505 37.8097 57.0505C39.1974 57.0505 40.5517 56.6246 41.6897 55.8305C42.3065 55.3522 43.0694 55.1015 43.8497 55.1205C44.6304 55.0981 45.3945 55.3493 46.0097 55.8305C47.1498 56.6241 48.5056 57.0496 49.8947 57.0496C51.2838 57.0496 52.6396 56.6241 53.7797 55.8305ZM53.7797 61.5705C54.3957 61.0908 55.1592 60.8398 55.9397 60.8605H57.5497V57.6505H55.9397C54.5649 57.6339 53.2215 58.0618 52.1097 58.8705C51.484 59.3318 50.727 59.5807 49.9497 59.5807C49.1723 59.5807 48.4154 59.3318 47.7897 58.8705C46.6496 58.0769 45.2938 57.6514 43.9047 57.6514C42.5155 57.6514 41.1598 58.0769 40.0197 58.8705C39.394 59.3318 38.637 59.5807 37.8597 59.5807C37.0823 59.5807 36.3254 59.3318 35.6997 58.8705C34.5741 58.0514 33.2115 57.623 31.8197 57.6505H30.1597V60.8605H31.7697C32.5502 60.8398 33.3137 61.0908 33.9297 61.5705C35.0677 62.3646 36.422 62.7905 37.8097 62.7905C39.1974 62.7905 40.5517 62.3646 41.6897 61.5705C42.3065 61.0922 43.0694 60.8415 43.8497 60.8605C44.6304 60.8381 45.3945 61.0893 46.0097 61.5705C47.1498 62.3641 48.5056 62.7896 49.8947 62.7896C51.2838 62.7896 52.6396 62.3641 53.7797 61.5705Z" fill="white"/>
</svg>
