<svg width="178" height="101" viewBox="0 0 178 101" fill="none" xmlns="http://www.w3.org/2000/svg">
<path d="M55.4299 43.2402H58.4299V57.6902H55.4299V43.2402Z" fill="white"/>
<path d="M60.1099 52.7402C60.1099 51.7005 60.4185 50.6843 60.9968 49.8203C61.575 48.9563 62.3967 48.2834 63.3578 47.887C64.3188 47.4905 65.3759 47.3883 66.3952 47.5933C67.4144 47.7983 68.3498 48.3013 69.0828 49.0386C69.8158 49.7758 70.3134 50.7141 70.5126 51.7344C70.7118 52.7548 70.6035 53.8113 70.2016 54.7701C69.7996 55.7289 69.122 56.5467 68.2547 57.12C67.3874 57.6932 66.3695 57.9961 65.3299 57.9902C64.6403 57.9955 63.9566 57.8632 63.3189 57.6009C62.6812 57.3386 62.1023 56.9516 61.6161 56.4626C61.1299 55.9736 60.7462 55.3925 60.4876 54.7533C60.2289 54.1141 60.1005 53.4296 60.1099 52.7402ZM67.6298 52.7402C67.618 52.292 67.4744 51.8572 67.2168 51.4902C66.9592 51.1232 66.5991 50.8404 66.1816 50.677C65.7641 50.5136 65.3077 50.4769 64.8694 50.5715C64.4311 50.6662 64.0305 50.8879 63.7176 51.209C63.4047 51.5301 63.1935 51.9364 63.1103 52.377C63.027 52.8175 63.0756 53.2728 63.2498 53.686C63.4239 54.0991 63.7161 54.4517 64.0896 54.6997C64.4631 54.9477 64.9015 55.08 65.3498 55.0802C65.6551 55.0861 65.9583 55.029 66.2405 54.9125C66.5227 54.7959 66.7778 54.6224 66.99 54.4028C67.2021 54.1832 67.3666 53.9222 67.4732 53.6361C67.5799 53.35 67.6264 53.045 67.6098 52.7402H67.6298Z" fill="white"/>
<path d="M82.4199 47.7903V57.2003C82.4199 60.5203 79.8199 61.9303 77.1899 61.9303C76.2622 62.0065 75.3317 61.8222 74.5032 61.3982C73.6746 60.9742 72.9808 60.3273 72.4999 59.5303L75.0299 58.0703C75.2349 58.4837 75.561 58.8248 75.9648 59.0481C76.3686 59.2714 76.8308 59.3664 77.2899 59.3203C77.5824 59.3564 77.8792 59.3273 78.1591 59.2353C78.4391 59.1433 78.6952 58.9905 78.9092 58.7879C79.1233 58.5854 79.2899 58.338 79.3972 58.0636C79.5045 57.7891 79.5498 57.4944 79.5299 57.2003V56.2903C79.1808 56.7136 78.7378 57.0497 78.2362 57.2719C77.7345 57.4941 77.1879 57.5963 76.6399 57.5703C75.3138 57.5703 74.042 57.0436 73.1044 56.1059C72.1667 55.1682 71.6399 53.8964 71.6399 52.5703C71.6399 51.2443 72.1667 49.9725 73.1044 49.0348C74.042 48.0971 75.3138 47.5703 76.6399 47.5703C77.1879 47.5444 77.7345 47.6466 78.2362 47.8688C78.7378 48.091 79.1808 48.4271 79.5299 48.8503V47.8503L82.4199 47.7903ZM79.5299 52.5403C79.5498 52.0619 79.4262 51.5885 79.1749 51.1808C78.9236 50.7732 78.5562 50.4501 78.1197 50.253C77.6833 50.056 77.1979 49.9939 76.726 50.0749C76.2541 50.1559 75.8171 50.3763 75.4714 50.7076C75.1257 51.0389 74.887 51.4661 74.786 51.9341C74.685 52.4022 74.7263 52.8898 74.9046 53.3342C75.083 53.7786 75.3902 54.1595 75.7867 54.4279C76.1833 54.6963 76.651 54.8399 77.1299 54.8403C77.4423 54.8629 77.7561 54.8196 78.0507 54.7133C78.3454 54.607 78.6146 54.4401 78.8407 54.2234C79.0669 54.0066 79.2451 53.7449 79.3638 53.455C79.4825 53.1651 79.5391 52.8535 79.5299 52.5403Z" fill="white"/>
<path d="M84.11 52.7402C84.11 51.7015 84.4181 50.686 84.9955 49.8224C85.5728 48.9589 86.3933 48.286 87.3532 47.8889C88.3131 47.4918 89.3692 47.3885 90.3879 47.5918C91.4065 47.7952 92.342 48.2962 93.0758 49.0315C93.8096 49.7667 94.3089 50.7031 94.5103 51.7221C94.7117 52.7412 94.6064 53.7971 94.2075 54.7563C93.8086 55.7154 93.1341 56.5346 92.2694 57.1103C91.4048 57.686 90.3887 57.9922 89.35 57.9902C88.6591 57.9969 87.9739 57.8656 87.3345 57.604C86.6951 57.3425 86.1143 56.9558 85.6262 56.4669C85.1382 55.9779 84.7527 55.3964 84.4923 54.7564C84.2319 54.1165 84.1019 53.431 84.11 52.7402ZM91.63 52.7402C91.6182 52.2916 91.4742 51.8564 91.2162 51.4893C90.9581 51.1221 90.5975 50.8392 90.1794 50.6761C89.7613 50.5131 89.3044 50.477 88.8658 50.5724C88.4273 50.6679 88.0267 50.8906 87.7143 51.2127C87.4018 51.5348 87.1913 51.942 87.1092 52.3832C87.0271 52.8244 87.0771 53.28 87.2528 53.693C87.4285 54.1059 87.7222 54.4578 88.097 54.7046C88.4719 54.9514 88.9112 55.082 89.36 55.0802C89.6652 55.0862 89.9684 55.0291 90.2506 54.9126C90.5328 54.796 90.788 54.6225 91.0001 54.4029C91.2122 54.1833 91.3767 53.9223 91.4834 53.6362C91.59 53.3501 91.6365 53.0451 91.62 52.7402H91.63Z" fill="white"/>
<path d="M95.98 45.1404C95.98 44.7883 96.0844 44.4442 96.28 44.1514C96.4755 43.8587 96.7536 43.6306 97.0788 43.4958C97.4041 43.3611 97.762 43.3259 98.1072 43.3946C98.4525 43.4632 98.7697 43.6328 99.0186 43.8817C99.2676 44.1306 99.4371 44.4478 99.5058 44.7931C99.5745 45.1384 99.5392 45.4963 99.4045 45.8215C99.2698 46.1468 99.0416 46.4248 98.7489 46.6204C98.4562 46.816 98.112 46.9204 97.76 46.9204C97.2895 46.9152 96.8398 46.7259 96.5071 46.3933C96.1744 46.0606 95.9852 45.6108 95.98 45.1404ZM96.27 47.7904H99.27V57.6904H96.27V47.7904Z" fill="white"/>
<path d="M112.11 52.7398C112.143 53.3982 112.047 54.0568 111.825 54.6776C111.603 55.2984 111.26 55.8692 110.817 56.3572C110.374 56.8451 109.838 57.2405 109.241 57.5207C108.645 57.801 107.998 57.9604 107.34 57.9898C106.781 58.027 106.221 57.9375 105.701 57.728C105.182 57.5185 104.717 57.1944 104.34 56.7798V61.6698H101.34V47.7898H104.34V48.7198C104.717 48.3065 105.183 47.9839 105.702 47.7761C106.222 47.5683 106.782 47.4807 107.34 47.5198C107.996 47.5494 108.64 47.7078 109.234 47.9861C109.829 48.2645 110.363 48.6572 110.806 49.1419C111.249 49.6266 111.592 50.1939 111.816 50.8112C112.039 51.4285 112.139 52.0839 112.11 52.7398ZM109.11 52.7398C109.098 52.2754 108.949 51.8248 108.683 51.4444C108.416 51.0641 108.043 50.771 107.61 50.6018C107.177 50.4327 106.704 50.395 106.25 50.4935C105.796 50.5921 105.381 50.8224 105.058 51.1558C104.734 51.4891 104.516 51.9105 104.431 52.3672C104.345 52.8239 104.397 53.2957 104.579 53.7232C104.761 54.1508 105.064 54.5152 105.452 54.7707C105.84 55.0263 106.295 55.1617 106.76 55.1598C107.078 55.1733 107.396 55.1194 107.691 55.0016C107.987 54.8838 108.255 54.7048 108.477 54.4763C108.699 54.2478 108.87 53.975 108.979 53.6757C109.088 53.3765 109.133 53.0575 109.11 52.7398Z" fill="white"/>
<path d="M121.24 54.72C121.24 57 119.24 57.97 117.12 57.97C116.255 58.0478 115.387 57.8645 114.628 57.4438C113.868 57.0231 113.252 56.3843 112.86 55.61L115.44 54.15C115.542 54.5068 115.764 54.8177 116.068 55.0307C116.372 55.2436 116.74 55.3458 117.11 55.32C117.82 55.32 118.18 55.1 118.18 54.7C118.18 53.61 113.31 54.19 113.31 50.76C113.31 48.6 115.13 47.52 117.19 47.52C117.973 47.4849 118.751 47.6626 119.441 48.0341C120.131 48.4056 120.708 48.9571 121.11 49.63L118.53 50.99C118.416 50.732 118.23 50.5125 117.994 50.3581C117.758 50.2038 117.482 50.121 117.2 50.12C116.68 50.12 116.37 50.32 116.37 50.67C116.37 51.81 121.24 51.06 121.24 54.72Z" fill="white"/>
<path d="M132.11 47.79V57.69H129.11V56.76C128.769 57.1717 128.336 57.4975 127.846 57.7111C127.357 57.9248 126.823 58.0203 126.29 57.99C124.29 57.99 122.58 56.56 122.58 53.89V47.79H125.58V53.44C125.556 53.6762 125.584 53.9148 125.662 54.1391C125.739 54.3634 125.865 54.5683 126.029 54.7394C126.194 54.9106 126.393 55.044 126.615 55.1304C126.836 55.2168 127.073 55.2542 127.31 55.24C128.39 55.24 129.15 54.6 129.15 53.24V47.79H132.11Z" fill="white"/>
<path d="M149.11 51.6099V57.6899H146.11V51.8699C146.11 50.8699 145.64 50.2499 144.69 50.2499C143.74 50.2499 143.14 50.9399 143.14 52.1099V57.6899H140.14V51.8699C140.14 50.8699 139.67 50.2499 138.72 50.2499C137.77 50.2499 137.17 50.9399 137.17 52.1099V57.6899H134.17V47.7899H137.17V48.6999C137.481 48.2979 137.886 47.9795 138.351 47.7735C138.815 47.5675 139.323 47.4804 139.83 47.5199C140.337 47.4935 140.843 47.5994 141.297 47.8273C141.751 48.0552 142.138 48.3973 142.42 48.8199C142.749 48.3784 143.186 48.0275 143.687 47.8002C144.189 47.5729 144.741 47.4764 145.29 47.5199C147.63 47.5199 149.11 49.1399 149.11 51.6099Z" fill="white"/>
<path d="M37.5599 40.6406V36.3906H24.1599V65.5906H37.5599V61.3406C34.8149 61.3406 32.1824 60.2502 30.2414 58.3092C28.3004 56.3682 27.2099 53.7356 27.2099 50.9906C27.2099 48.2456 28.3004 45.6131 30.2414 43.6721C32.1824 41.7311 34.8149 40.6406 37.5599 40.6406Z" fill="white"/>
<path d="M37.5598 40.6406V61.3406C40.3048 61.3406 42.9374 60.2502 44.8784 58.3092C46.8194 56.3682 47.9098 53.7356 47.9098 50.9906C47.9098 48.2456 46.8194 45.6131 44.8784 43.6721C42.9374 41.7311 40.3048 40.6406 37.5598 40.6406Z" fill="white"/>
<path d="M151.63 47.7301C152.845 47.7301 153.83 46.7451 153.83 45.5301C153.83 44.3151 152.845 43.3301 151.63 43.3301C150.415 43.3301 149.43 44.3151 149.43 45.5301C149.43 46.7451 150.415 47.7301 151.63 47.7301Z" fill="white"/>
</svg>
