<svg width="233" height="162" viewBox="0 0 233 162" fill="none" xmlns="http://www.w3.org/2000/svg">
<path d="M134.09 166.456C143.338 136.37 126.456 104.515 96.392 95.2552C66.3327 86.0261 34.4495 102.926 25.2012 133.012C15.9528 163.099 32.8349 194.953 62.8991 204.213C92.989 213.437 124.842 196.543 134.09 166.456Z" fill="white"/>
<path d="M134.09 166.456C143.338 136.37 126.456 104.515 96.392 95.2552C66.3327 86.0261 34.4495 102.926 25.2012 133.012C15.9528 163.099 32.8349 194.953 62.8991 204.213C92.989 213.437 124.842 196.543 134.09 166.456Z" fill="url(#paint0_linear_1352_1198)"/>
<path d="M182.962 4.8917C183.867 5.54875 185.14 5.36239 185.81 4.43976C186.467 3.53487 186.25 2.26632 185.345 1.60927C184.441 0.952227 183.168 1.13859 182.498 2.06122C181.841 2.96611 182.058 4.23466 182.962 4.8917Z" fill="white"/>
<path d="M171.799 20.2638C172.704 20.9208 173.977 20.7345 174.647 19.8119C175.304 18.907 175.118 17.6336 174.196 16.9637C173.291 16.3067 172.018 16.4931 171.348 17.4157C170.678 18.3383 170.895 19.6068 171.799 20.2638Z" fill="white"/>
<path d="M160.636 35.6349C161.541 36.2919 162.814 36.1056 163.484 35.183C164.141 34.2781 163.955 33.0047 163.032 32.3348C162.128 31.6778 160.855 31.8642 160.185 32.7868C159.515 33.7094 159.732 34.9779 160.636 35.6349Z" fill="white"/>
<path d="M149.474 51.007C150.378 51.664 151.652 51.4776 152.322 50.555C152.979 49.6502 152.792 48.3768 151.87 47.7069C150.965 47.0499 149.692 47.2362 149.022 48.1588C148.352 49.0814 148.569 50.3499 149.474 51.007Z" fill="white"/>
<path d="M138.311 66.3781C139.215 67.0351 140.489 66.8487 141.158 65.9261C141.815 65.0213 141.629 63.7479 140.707 63.078C139.802 62.421 138.529 62.6073 137.859 63.5299C137.202 64.4348 137.406 65.721 138.311 66.3781Z" fill="white"/>
<path d="M127.148 81.7492C128.053 82.4062 129.326 82.2198 129.996 81.2972C130.653 80.3924 130.467 79.119 129.544 78.4491C128.64 77.7921 127.366 77.9784 126.696 78.901C126.039 79.8059 126.243 81.0921 127.148 81.7492Z" fill="white"/>
<path d="M115.986 97.1212C116.89 97.7783 118.163 97.5919 118.833 96.6693C119.49 95.7644 119.304 94.4911 118.382 93.8212C117.477 93.1641 116.204 93.3505 115.534 94.2731C114.877 95.1779 115.081 96.4642 115.986 97.1212Z" fill="white"/>
<path d="M104.822 112.492C105.727 113.149 107 112.963 107.67 112.04C108.327 111.136 108.141 109.862 107.219 109.192C106.314 108.535 105.041 108.722 104.371 109.644C103.714 110.549 103.918 111.835 104.822 112.492Z" fill="white"/>
<path d="M93.6598 127.864C94.5645 128.521 95.8377 128.335 96.5076 127.412C97.1645 126.508 96.9783 125.234 96.0559 124.564C95.1513 123.907 93.8781 124.094 93.2082 125.016C92.5512 125.921 92.7552 127.207 93.6598 127.864Z" fill="white"/>
<path d="M82.5094 143.218C83.4141 143.875 84.6873 143.689 85.3571 142.766C86.0141 141.861 85.8279 140.588 84.9055 139.918C84.0009 139.261 82.7148 139.465 82.0578 140.37C81.3879 141.292 81.6048 142.561 82.5094 143.218Z" fill="white"/>
<path d="M71.3468 158.59C72.2515 159.247 73.5247 159.061 74.1946 158.138C74.8515 157.233 74.6653 155.96 73.7429 155.29C72.8383 154.633 71.5651 154.819 70.8952 155.742C70.2253 156.664 70.4422 157.933 71.3468 158.59Z" fill="white"/>
<path d="M195.551 14.0333C196.455 14.6903 197.728 14.504 198.398 13.5814C199.055 12.6765 198.856 11.4208 197.934 10.7509C197.029 10.0938 195.756 10.2802 195.086 11.2028C194.447 12.1206 194.646 13.3763 195.551 14.0333Z" fill="white"/>
<path d="M184.388 29.4054C185.293 30.0624 186.566 29.8761 187.236 28.9535C187.893 28.0486 187.706 26.7752 186.784 26.1053C185.879 25.4483 184.606 25.6347 183.936 26.5573C183.284 27.4927 183.483 28.7484 184.388 29.4054Z" fill="white"/>
<path d="M173.225 44.7765C174.129 45.4335 175.403 45.2472 176.072 44.3246C176.729 43.4197 176.543 42.1463 175.621 41.4764C174.716 40.8194 173.443 41.0058 172.773 41.9284C172.121 42.8638 172.32 44.1195 173.225 44.7765Z" fill="white"/>
<path d="M162.062 60.1486C162.967 60.8056 164.24 60.6192 164.91 59.6966C165.567 58.7918 165.381 57.5184 164.458 56.8485C163.554 56.1915 162.28 56.3778 161.611 57.3004C160.958 58.2359 161.158 59.4915 162.062 60.1486Z" fill="white"/>
<path d="M150.899 75.5197C151.804 76.1767 153.077 75.9903 153.747 75.0677C154.404 74.1629 154.218 72.8895 153.295 72.2196C152.391 71.5626 151.117 71.7489 150.447 72.6715C149.808 73.5893 149.994 74.8626 150.899 75.5197Z" fill="white"/>
<path d="M139.736 90.8908C140.641 91.5478 141.914 91.3614 142.584 90.4388C143.241 89.534 143.055 88.2606 142.133 87.5907C141.228 86.9337 139.955 87.12 139.285 88.0426C138.646 88.9604 138.832 90.2337 139.736 90.8908Z" fill="white"/>
<path d="M128.573 106.263C129.478 106.92 130.751 106.734 131.421 105.811C132.078 104.906 131.892 103.633 130.969 102.963C130.065 102.306 128.792 102.492 128.122 103.415C127.483 104.332 127.669 105.606 128.573 106.263Z" fill="white"/>
<path d="M117.411 121.634C118.315 122.291 119.589 122.105 120.259 121.182C120.916 120.277 120.729 119.004 119.807 118.334C118.902 117.677 117.629 117.863 116.959 118.786C116.32 119.704 116.506 120.977 117.411 121.634Z" fill="white"/>
<path d="M106.248 137.006C107.152 137.663 108.426 137.477 109.095 136.554C109.752 135.649 109.566 134.376 108.644 133.706C107.739 133.049 106.466 133.235 105.796 134.158C105.157 135.076 105.343 136.349 106.248 137.006Z" fill="white"/>
<path d="M95.0978 152.36C96.0025 153.017 97.2757 152.83 97.9455 151.908C98.6025 151.003 98.4163 149.729 97.4939 149.059C96.5893 148.402 95.3032 148.607 94.6462 149.511C93.9941 150.447 94.1932 151.702 95.0978 152.36Z" fill="white"/>
<path d="M208.157 23.1876C209.061 23.8446 210.334 23.6583 211.004 22.7357C211.644 21.8179 211.444 20.5622 210.54 19.9052C209.635 19.2481 208.362 19.4345 207.692 20.3571C207.035 21.262 207.252 22.5306 208.157 23.1876Z" fill="white"/>
<path d="M196.994 38.5597C197.898 39.2167 199.172 39.0304 199.842 38.1078C200.499 37.2029 200.312 35.9295 199.39 35.2596C198.485 34.6026 197.212 34.789 196.542 35.7116C195.872 36.6342 196.089 37.9027 196.994 38.5597Z" fill="white"/>
<path d="M185.831 53.9308C186.735 54.5878 188.009 54.4015 188.678 53.4789C189.335 52.574 189.149 51.3006 188.227 50.6307C187.322 49.9737 186.049 50.1601 185.379 51.0827C184.709 52.0053 184.926 53.2738 185.831 53.9308Z" fill="white"/>
<path d="M174.668 69.3029C175.573 69.9599 176.846 69.7735 177.516 68.8509C178.173 67.9461 177.987 66.6727 177.064 66.0028C176.16 65.3458 174.886 65.5321 174.217 66.4547C173.547 67.3773 173.763 68.6458 174.668 69.3029Z" fill="white"/>
<path d="M163.505 84.674C164.41 85.331 165.683 85.1446 166.353 84.222C167.01 83.3172 166.824 82.0438 165.901 81.3739C164.996 80.7169 163.723 80.9032 163.053 81.8258C162.396 82.7307 162.6 84.0169 163.505 84.674Z" fill="white"/>
<path d="M152.342 100.046C153.247 100.703 154.52 100.517 155.19 99.5941C155.847 98.6892 155.661 97.4159 154.739 96.746C153.834 96.0889 152.561 96.2753 151.891 97.1979C151.234 98.1028 151.438 99.389 152.342 100.046Z" fill="white"/>
<path d="M141.179 115.417C142.084 116.074 143.357 115.888 144.027 114.965C144.684 114.06 144.498 112.787 143.575 112.117C142.671 111.46 141.398 111.646 140.728 112.569C140.071 113.474 140.275 114.76 141.179 115.417Z" fill="white"/>
<path d="M130.017 130.789C130.921 131.446 132.195 131.26 132.864 130.337C133.521 129.432 133.335 128.159 132.413 127.489C131.508 126.832 130.235 127.018 129.565 127.941C128.908 128.846 129.112 130.132 130.017 130.789Z" fill="white"/>
<path d="M118.854 146.16C119.758 146.817 121.032 146.631 121.701 145.708C122.358 144.804 122.172 143.53 121.25 142.86C120.345 142.203 119.072 142.39 118.402 143.312C117.745 144.217 117.949 145.503 118.854 146.16Z" fill="white"/>
<path d="M107.704 161.514C108.608 162.171 109.882 161.984 110.551 161.062C111.208 160.157 111.022 158.884 110.1 158.214C109.195 157.557 107.909 157.761 107.252 158.666C106.582 159.588 106.799 160.857 107.704 161.514Z" fill="white"/>
<path d="M220.745 32.3292C221.65 32.9862 222.923 32.7999 223.593 31.8773C224.25 30.9724 224.033 29.7038 223.128 29.0468C222.224 28.3897 220.95 28.5761 220.28 29.4987C219.623 30.4036 219.84 31.6722 220.745 32.3292Z" fill="white"/>
<path d="M209.582 47.7013C210.487 48.3583 211.76 48.172 212.43 47.2494C213.087 46.3445 212.901 45.0711 211.978 44.4012C211.074 43.7442 209.8 43.9306 209.131 44.8532C208.461 45.7758 208.678 47.0443 209.582 47.7013Z" fill="white"/>
<path d="M198.419 63.0724C199.324 63.7294 200.597 63.5431 201.267 62.6205C201.924 61.7156 201.738 60.4422 200.815 59.7723C199.911 59.1153 198.637 59.3017 197.967 60.2243C197.298 61.1469 197.514 62.4154 198.419 63.0724Z" fill="white"/>
<path d="M190.104 77.9925C189.443 78.9038 188.168 79.1062 187.257 78.4445C186.345 77.7828 186.143 76.5076 186.805 75.5963C187.467 74.685 188.742 74.4827 189.653 75.1444C190.564 75.8061 190.766 77.0812 190.104 77.9925Z" fill="white"/>
<path d="M176.093 93.8156C176.998 94.4726 178.271 94.2862 178.941 93.3636C179.598 92.4588 179.412 91.1854 178.49 90.5155C177.585 89.8585 176.312 90.0448 175.642 90.9674C174.985 91.8723 175.189 93.1585 176.093 93.8156Z" fill="white"/>
<path d="M164.931 109.188C165.835 109.845 167.109 109.658 167.779 108.736C168.436 107.831 168.249 106.557 167.327 105.888C166.422 105.231 165.149 105.417 164.479 106.339C163.822 107.244 164.026 108.531 164.931 109.188Z" fill="white"/>
<path d="M153.768 124.559C154.672 125.216 155.946 125.029 156.615 124.107C157.272 123.202 157.086 121.929 156.164 121.259C155.259 120.602 153.986 120.788 153.316 121.711C152.659 122.615 152.863 123.902 153.768 124.559Z" fill="white"/>
<path d="M142.605 139.931C143.51 140.588 144.783 140.401 145.453 139.479C146.11 138.574 145.924 137.301 145.001 136.631C144.097 135.974 142.823 136.16 142.154 137.083C141.497 137.988 141.7 139.274 142.605 139.931Z" fill="white"/>
<path d="M131.442 155.302C132.347 155.959 133.62 155.773 134.29 154.85C134.947 153.945 134.761 152.672 133.838 152.002C132.933 151.345 131.66 151.531 130.99 152.454C130.333 153.359 130.537 154.645 131.442 155.302Z" fill="white"/>
<path d="M233.333 41.4708C234.238 42.1279 235.511 41.9415 236.181 41.0189C236.838 40.114 236.638 38.8583 235.716 38.1884C234.811 37.5313 233.538 37.7177 232.868 38.6403C232.229 39.5581 232.428 40.8138 233.333 41.4708Z" fill="white"/>
<path d="M222.17 56.8429C223.075 57.4999 224.348 57.3136 225.018 56.391C225.675 55.4861 225.489 54.2127 224.566 53.5428C223.662 52.8858 222.388 53.0722 221.718 53.9948C221.066 54.9303 221.265 56.1859 222.17 56.8429Z" fill="white"/>
<path d="M211.007 72.214C211.912 72.871 213.185 72.6847 213.855 71.7621C214.512 70.8572 214.326 69.5838 213.404 68.9139C212.499 68.2569 211.226 68.4433 210.556 69.3659C209.904 70.3013 210.103 71.557 211.007 72.214Z" fill="white"/>
<path d="M199.844 87.5861C200.749 88.2431 202.022 88.0567 202.692 87.1341C203.349 86.2293 203.163 84.9559 202.24 84.286C201.336 83.629 200.063 83.8153 199.393 84.7379C198.741 85.6734 198.94 86.9291 199.844 87.5861Z" fill="white"/>
<path d="M188.682 102.957C189.586 103.614 190.86 103.428 191.53 102.505C192.187 101.6 192 100.327 191.078 99.6571C190.173 99.0001 188.9 99.1864 188.23 100.109C187.591 101.027 187.777 102.3 188.682 102.957Z" fill="white"/>
<path d="M177.519 118.329C178.423 118.986 179.697 118.8 180.366 117.877C181.023 116.972 180.837 115.699 179.915 115.029C179.01 114.372 177.737 114.558 177.067 115.481C176.428 116.399 176.614 117.672 177.519 118.329Z" fill="white"/>
<path d="M166.356 133.7C167.261 134.357 168.534 134.171 169.204 133.248C169.861 132.344 169.675 131.07 168.752 130.4C167.848 129.743 166.574 129.93 165.904 130.852C165.265 131.77 165.451 133.043 166.356 133.7Z" fill="white"/>
<path d="M155.193 149.072C156.098 149.729 157.371 149.543 158.041 148.62C158.698 147.716 158.512 146.442 157.589 145.772C156.684 145.115 155.411 145.302 154.741 146.224C154.102 147.142 154.288 148.415 155.193 149.072Z" fill="white"/>
<path d="M144.03 164.443C144.935 165.101 146.208 164.914 146.878 163.992C147.535 163.087 147.349 161.813 146.427 161.143C145.522 160.486 144.249 160.673 143.579 161.595C142.94 162.513 143.126 163.786 144.03 164.443Z" fill="white"/>
<path d="M223.613 81.3683C224.518 82.0253 225.791 81.839 226.461 80.9164C227.118 80.0115 226.932 78.7381 226.01 78.0682C225.105 77.4112 223.832 77.5976 223.162 78.5202C222.492 79.4428 222.709 80.7113 223.613 81.3683Z" fill="white"/>
<path d="M212.451 96.7404C213.356 97.3974 214.629 97.211 215.299 96.2884C215.956 95.3836 215.769 94.1102 214.847 93.4403C213.942 92.7833 212.669 92.9696 211.999 93.8922C211.329 94.8148 211.546 96.0833 212.451 96.7404Z" fill="white"/>
<path d="M201.288 112.111C202.192 112.768 203.466 112.582 204.135 111.66C204.792 110.755 204.606 109.481 203.684 108.811C202.779 108.154 201.506 108.341 200.836 109.263C200.179 110.168 200.383 111.454 201.288 112.111Z" fill="white"/>
<path d="M190.125 127.484C191.03 128.141 192.303 127.954 192.973 127.032C193.63 126.127 193.444 124.853 192.521 124.183C191.617 123.526 190.343 123.713 189.674 124.635C189.017 125.54 189.22 126.827 190.125 127.484Z" fill="white"/>
<path d="M178.962 142.855C179.867 143.512 181.14 143.325 181.81 142.403C182.467 141.498 182.281 140.224 181.358 139.555C180.454 138.898 179.18 139.084 178.51 140.006C177.853 140.911 178.057 142.198 178.962 142.855Z" fill="white"/>
<path d="M167.799 158.227C168.704 158.884 169.977 158.697 170.647 157.775C171.304 156.87 171.118 155.597 170.196 154.927C169.291 154.27 168.018 154.456 167.348 155.379C166.691 156.283 166.895 157.57 167.799 158.227Z" fill="white"/>
<path d="M225.039 105.882C225.943 106.539 227.217 106.353 227.886 105.43C228.543 104.525 228.357 103.252 227.435 102.582C226.53 101.925 225.257 102.111 224.587 103.034C223.935 103.969 224.134 105.225 225.039 105.882Z" fill="white"/>
<path d="M213.876 121.253C214.781 121.91 216.054 121.724 216.724 120.801C217.381 119.896 217.195 118.623 216.272 117.953C215.368 117.296 214.094 117.482 213.425 118.405C212.785 119.323 212.971 120.596 213.876 121.253Z" fill="white"/>
<path d="M202.713 136.625C203.618 137.282 204.891 137.096 205.561 136.173C206.218 135.268 206.032 133.995 205.109 133.325C204.204 132.668 202.931 132.854 202.261 133.777C201.622 134.695 201.808 135.968 202.713 136.625Z" fill="white"/>
<path d="M191.55 151.996C192.455 152.653 193.728 152.467 194.398 151.544C195.055 150.639 194.869 149.366 193.947 148.696C193.042 148.039 191.769 148.225 191.099 149.148C190.46 150.066 190.646 151.339 191.55 151.996Z" fill="white"/>
<path d="M226.482 130.408C227.387 131.065 228.66 130.879 229.33 129.956C229.987 129.052 229.801 127.778 228.878 127.108C227.974 126.451 226.7 126.638 226.03 127.56C225.373 128.465 225.56 129.738 226.482 130.408Z" fill="white"/>
<path d="M215.319 145.779C216.224 146.436 217.497 146.25 218.167 145.327C218.824 144.423 218.637 143.149 217.715 142.479C216.81 141.822 215.537 142.009 214.867 142.931C214.21 143.836 214.397 145.11 215.319 145.779Z" fill="white"/>
<path d="M204.156 161.152C205.061 161.809 206.334 161.622 207.004 160.7C207.661 159.795 207.475 158.521 206.553 157.851C205.648 157.194 204.375 157.381 203.705 158.303C203.048 159.208 203.234 160.482 204.156 161.152Z" fill="white"/>
<path d="M227.907 154.921C228.812 155.578 230.085 155.392 230.755 154.469C231.412 153.564 231.226 152.291 230.303 151.621C229.399 150.964 228.126 151.15 227.456 152.073C226.799 152.978 227.003 154.264 227.907 154.921Z" fill="white"/>
<defs>
<linearGradient id="paint0_linear_1352_1198" x1="69.6077" y1="151.323" x2="271.341" y2="22.1158" gradientUnits="userSpaceOnUse">
<stop stop-color="#D7352B"/>
<stop offset="1" stop-color="#110966"/>
</linearGradient>
</defs>
</svg>
