<svg width="178" height="101" viewBox="0 0 178 101" fill="none" xmlns="http://www.w3.org/2000/svg">
<path d="M64.0903 45.0599H67.0903V57.1899H64.0903V45.0599ZM68.2803 52.6099C68.2803 49.6099 70.1203 47.8199 72.9603 47.8199C75.8003 47.8199 77.6403 49.6099 77.6403 52.6099C77.6403 55.6099 75.8403 57.4099 72.9603 57.4099C70.0803 57.4099 68.2803 55.6599 68.2803 52.6099ZM74.6303 52.6099C74.6303 50.9599 73.9803 49.9899 72.9603 49.9899C71.9403 49.9899 71.3003 50.9899 71.3003 52.6099C71.3003 54.2299 71.9303 55.2099 72.9603 55.2099C73.9903 55.2099 74.6303 54.2899 74.6303 52.6199V52.6099ZM78.7703 57.7799H81.6503C81.7874 58.0844 82.0191 58.3365 82.311 58.4987C82.6029 58.6609 82.9394 58.7244 83.2703 58.6799C84.4103 58.6799 85.0103 58.0599 85.0103 57.1599V55.4799H84.9503C84.7113 55.9948 84.3235 56.4263 83.8368 56.7186C83.3502 57.0109 82.7872 57.1507 82.2203 57.1199C80.0303 57.1199 78.5803 55.4499 78.5803 52.5799C78.5803 49.7099 79.9603 47.8999 82.2603 47.8999C82.8449 47.877 83.4226 48.0333 83.9159 48.3479C84.4091 48.6624 84.7945 49.1202 85.0203 49.6599V47.9899H88.0203V57.0899C88.0203 59.2799 86.0903 60.6399 83.2403 60.6399C80.5903 60.6399 78.9403 59.4499 78.7703 57.7899V57.7799ZM85.0203 52.5999C85.0203 51.1399 84.3503 50.2199 83.2903 50.2199C82.2303 50.2199 81.5803 51.1299 81.5803 52.5999C81.5803 54.0699 82.2203 54.8999 83.2903 54.8999C84.3603 54.8999 85.0203 54.0899 85.0203 52.6099V52.5999ZM89.1503 52.5999C89.1503 49.5999 90.9903 47.8099 93.8303 47.8099C96.6703 47.8099 98.5203 49.5999 98.5203 52.5999C98.5203 55.5999 96.7203 57.3999 93.8303 57.3999C90.9403 57.3999 89.1503 55.6599 89.1503 52.6099V52.5999ZM95.5003 52.5999C95.5003 50.9499 94.8503 49.9799 93.8303 49.9799C92.8103 49.9799 92.2203 50.9899 92.2203 52.6199C92.2203 54.2499 92.8503 55.2199 93.8703 55.2199C94.8903 55.2199 95.5003 54.2899 95.5003 52.6199V52.5999ZM99.6603 45.8099C99.6525 45.507 99.7347 45.2086 99.8967 44.9525C100.059 44.6964 100.293 44.4942 100.57 44.3714C100.847 44.2487 101.154 44.2109 101.453 44.263C101.751 44.315 102.027 44.4545 102.247 44.6638C102.466 44.8731 102.618 45.1427 102.683 45.4385C102.749 45.7343 102.726 46.0429 102.616 46.3253C102.506 46.6076 102.314 46.851 102.066 47.0245C101.818 47.198 101.523 47.2939 101.22 47.2999C101.02 47.3137 100.818 47.2858 100.628 47.218C100.439 47.1502 100.265 47.044 100.119 46.9059C99.9725 46.7679 99.8561 46.601 99.7772 46.4159C99.6983 46.2307 99.6585 46.0312 99.6603 45.8299V45.8099ZM99.6603 48.0099H102.66V57.1899H99.6603V48.0099ZM113.55 52.5999C113.55 55.5999 112.22 57.3099 109.94 57.3099C109.356 57.3475 108.774 57.2045 108.273 56.9005C107.772 56.5965 107.377 56.146 107.14 55.6099H107.08V60.1299H104.08V47.9899H107.08V49.6299H107.14C107.366 49.085 107.754 48.6228 108.251 48.3061C108.748 47.9894 109.331 47.8336 109.92 47.8599C112.22 47.8999 113.59 49.6199 113.59 52.6199L113.55 52.5999ZM110.55 52.5999C110.55 51.1399 109.88 50.2099 108.83 50.2099C107.78 50.2099 107.11 51.1499 107.1 52.5999C107.09 54.0499 107.78 54.9799 108.83 54.9799C109.88 54.9799 110.55 54.0699 110.55 52.6199V52.5999ZM118.7 47.7999C121.19 47.7999 122.7 48.9799 122.77 50.8699H120.04C120.04 50.2199 119.5 49.8099 118.67 49.8099C117.84 49.8099 117.47 50.1299 117.47 50.5999C117.47 51.0699 117.8 51.2199 118.47 51.3599L120.39 51.7499C122.22 52.1399 123 52.8799 123 54.2699C123 56.1699 121.27 57.3899 118.72 57.3899C116.17 57.3899 114.5 56.1699 114.37 54.2999H117.26C117.35 54.9799 117.89 55.3799 118.77 55.3799C119.65 55.3799 120.05 55.0899 120.05 54.6099C120.05 54.1299 119.77 54.0299 119.05 53.8799L117.32 53.5099C115.53 53.1399 114.59 52.1899 114.59 50.7899C114.61 48.9899 116.22 47.8199 118.7 47.8199V47.7999ZM133.01 57.1699H130.12V55.4599H130.06C129.901 56.0341 129.551 56.5366 129.067 56.884C128.583 57.2314 127.995 57.4029 127.4 57.3699C126.945 57.3958 126.489 57.3236 126.063 57.1581C125.638 56.9927 125.253 56.7378 124.934 56.4107C124.615 56.0837 124.371 55.6921 124.217 55.2624C124.063 54.8327 124.002 54.3749 124.04 53.9199V47.9899H127.04V53.2299C127.04 54.3199 127.6 54.8999 128.53 54.8999C128.748 54.9004 128.964 54.8542 129.163 54.7645C129.362 54.6748 129.539 54.5436 129.683 54.3798C129.827 54.216 129.934 54.0233 129.997 53.8146C130.061 53.6059 130.079 53.3861 130.05 53.1699V47.9899H133.05L133.01 57.1699ZM134.46 47.9899H137.36V49.7599H137.42C137.58 49.1934 137.922 48.6957 138.394 48.3446C138.867 47.9936 139.442 47.8091 140.03 47.8199C140.629 47.772 141.224 47.9511 141.696 48.3217C142.169 48.6923 142.484 49.2272 142.58 49.8199H142.64C142.822 49.2209 143.197 48.6992 143.708 48.3371C144.218 47.975 144.835 47.7931 145.46 47.8199C145.868 47.8062 146.275 47.8785 146.653 48.0321C147.031 48.1857 147.373 48.4171 147.656 48.7113C147.939 49.0056 148.156 49.3561 148.295 49.74C148.434 50.124 148.49 50.5328 148.46 50.9399V57.1899H145.46V51.7399C145.46 50.7399 145.01 50.2799 144.17 50.2799C143.983 50.2783 143.798 50.317 143.626 50.3931C143.455 50.4693 143.302 50.5814 143.178 50.7216C143.054 50.8619 142.962 51.0272 142.907 51.2063C142.852 51.3854 142.836 51.5742 142.86 51.7599V57.1899H140.01V51.6999C140.01 50.7799 139.56 50.2799 138.74 50.2799C138.551 50.28 138.364 50.3202 138.191 50.398C138.018 50.4757 137.864 50.5892 137.738 50.7309C137.612 50.8727 137.518 51.0395 137.462 51.2203C137.405 51.4011 137.388 51.5918 137.41 51.7799V57.1899H134.41L134.46 47.9899Z" fill="white"/>
<path d="M55.7003 45.6101C55.1914 44.4465 54.5179 43.3621 53.7003 42.3901C52.4918 40.9105 50.9836 39.7035 49.275 38.8487C47.5664 37.9939 45.6961 37.5107 43.7873 37.4308C41.8785 37.3509 39.9744 37.6761 38.2003 38.3851C36.4263 39.0941 34.8225 40.1708 33.4945 41.5443C32.1665 42.9177 31.1445 44.5569 30.4956 46.3538C29.8468 48.1507 29.5858 50.0647 29.73 51.9697C29.8741 53.8748 30.4201 55.7277 31.3319 57.4066C32.2437 59.0854 33.5008 60.5521 35.0203 61.7101C35.9953 62.468 37.0727 63.0841 38.2203 63.5401C39.8293 64.1995 41.5514 64.5392 43.2903 64.5401C46.8797 64.5322 50.3195 63.1014 52.8558 60.5614C55.392 58.0215 56.8177 54.5795 56.8203 50.9901C56.823 49.1386 56.4416 47.3067 55.7003 45.6101ZM43.2803 40.1801C44.8419 40.18 46.3846 40.5213 47.8003 41.1801C47.4551 41.3293 47.0921 41.4335 46.7203 41.4901C45.4969 41.6672 44.3636 42.2352 43.4895 43.1093C42.6154 43.9834 42.0474 45.1167 41.8703 46.3401C41.7926 47.0262 41.4805 47.6645 40.9868 48.1473C40.4931 48.6301 39.848 48.9278 39.1603 48.9901C37.9369 49.1672 36.8036 49.7352 35.9295 50.6093C35.0554 51.4834 34.4874 52.6167 34.3103 53.8401C34.2504 54.4925 33.972 55.1056 33.5203 55.5801C32.741 53.9334 32.3909 52.1163 32.5026 50.2978C32.6143 48.4794 33.1842 46.7188 34.1593 45.1799C35.1343 43.6409 36.4829 42.3736 38.0794 41.496C39.6759 40.6183 41.4685 40.1588 43.2903 40.1601L43.2803 40.1801ZM35.0103 57.9901C35.1303 57.8801 35.2503 57.7801 35.3703 57.6601C36.26 56.7976 36.831 55.659 36.9903 54.4301C37.0549 53.7394 37.3633 53.0942 37.8603 52.6101C38.3386 52.1123 38.9823 51.8064 39.6703 51.7501C40.8937 51.573 42.027 51.005 42.9011 50.131C43.7752 49.2569 44.3432 48.1235 44.5203 46.9001C44.5636 46.1776 44.8736 45.497 45.3903 44.9901C45.8804 44.502 46.5302 44.2072 47.2203 44.1601C48.3442 44.0055 49.3924 43.5058 50.2203 42.7301C51.163 43.5122 51.9616 44.453 52.5803 45.5101C52.5423 45.5615 52.4987 45.6084 52.4503 45.6501C51.973 46.1523 51.3301 46.4649 50.6403 46.5301C49.4157 46.7041 48.2806 47.2711 47.406 48.1458C46.5313 49.0204 45.9643 50.1555 45.7903 51.3801C45.7198 52.0686 45.4135 52.7114 44.9233 53.1999C44.433 53.6883 43.789 53.9922 43.1003 54.0601C41.8733 54.2359 40.7358 54.8027 39.8566 55.6765C38.9775 56.5502 38.4036 57.6843 38.2203 58.9101C38.1665 59.3989 37.9987 59.8681 37.7303 60.2801C36.7043 59.671 35.7854 58.8973 35.0103 57.9901ZM43.2803 61.8501C42.2656 61.8512 41.2557 61.7098 40.2803 61.4301C40.614 60.8081 40.8309 60.1303 40.9203 59.4301C40.9904 58.7432 41.2953 58.1015 41.7835 57.6133C42.2717 57.1251 42.9134 56.8202 43.6003 56.7501C44.8255 56.575 45.9611 56.0079 46.8372 55.1337C47.7132 54.2594 48.2827 53.125 48.4603 51.9001C48.5304 51.2132 48.8353 50.5715 49.3235 50.0833C49.8117 49.5951 50.4534 49.2902 51.1403 49.2201C52.0623 49.1002 52.9411 48.7569 53.7003 48.2201C54.1219 49.818 54.1718 51.4913 53.8463 53.1115C53.5208 54.7317 52.8285 56.2558 51.8224 57.5669C50.8164 58.878 49.5235 59.9412 48.0427 60.675C46.562 61.4088 44.9329 61.7937 43.2803 61.8001V61.8501Z" fill="white"/>
</svg>
