<svg width="233" height="191" viewBox="0 0 233 191" fill="none" xmlns="http://www.w3.org/2000/svg">
<g opacity="0.3">
<mask id="mask0_2352_28967" style="mask-type:alpha" maskUnits="userSpaceOnUse" x="0" y="0" width="233" height="191">
<rect x="232.939" y="191" width="232.939" height="190.837" transform="rotate(-180 232.939 191)" fill="white"/>
</mask>
<g mask="url(#mask0_2352_28967)">
<path d="M99.6044 189.026C89.5708 158.283 105.505 126.983 135.184 119.063C164.859 111.174 197.067 129.694 207.101 160.437C217.134 191.18 201.2 222.48 171.521 230.4C141.815 238.282 109.638 219.769 99.6044 189.026Z" fill="white"/>
<path d="M99.6044 189.026C89.5708 158.283 105.505 126.983 135.184 119.063C164.859 111.174 197.067 129.694 207.101 160.437C217.134 191.18 201.2 222.48 171.521 230.4C141.815 238.282 109.638 219.769 99.6044 189.026Z" fill="url(#paint0_linear_2352_28967)"/>
<path d="M50.0778 29.9582C49.195 30.5779 47.922 30.3305 47.2297 29.3695C46.5507 28.4269 46.7318 27.1589 47.6147 26.5392C48.4976 25.9195 49.7705 26.1669 50.4628 27.1279C51.1418 28.0705 50.9607 29.3385 50.0778 29.9582Z" fill="white"/>
<path d="M61.2405 45.33C60.3577 45.9496 59.0848 45.7022 58.3925 44.7414C57.7136 43.799 57.8641 42.5248 58.7642 41.893C59.647 41.2734 60.9199 41.5208 61.6122 42.4817C62.3044 43.4425 62.1233 44.7104 61.2405 45.33Z" fill="white"/>
<path d="M72.4036 60.7016C71.5208 61.3212 70.2479 61.0738 69.5556 60.1129C68.8766 59.1705 69.0272 57.8963 69.9273 57.2646C70.8101 56.645 72.083 56.8924 72.7752 57.8533C73.4675 58.8141 73.2864 60.082 72.4036 60.7016Z" fill="white"/>
<path d="M83.5667 76.0732C82.6839 76.6928 81.411 76.4454 80.7187 75.4845C80.0397 74.5421 80.1903 73.2679 81.0904 72.6362C81.9732 72.0166 83.246 72.264 83.9383 73.2248C84.6306 74.1857 84.4495 75.4536 83.5667 76.0732Z" fill="white"/>
<path d="M94.7297 91.4443C93.8469 92.0638 92.5741 91.8165 91.8818 90.8556C91.2028 89.9132 91.3534 88.639 92.2535 88.0073C93.1363 87.3877 94.4091 87.6351 95.1014 88.5959C95.7804 89.5383 95.6125 90.8247 94.7297 91.4443Z" fill="white"/>
<path d="M105.892 106.816C105.009 107.435 103.736 107.188 103.044 106.227C102.365 105.285 102.515 104.011 103.416 103.379C104.298 102.759 105.571 103.007 106.264 103.968C106.943 104.91 106.775 106.196 105.892 106.816Z" fill="white"/>
<path d="M117.055 122.187C116.172 122.807 114.899 122.56 114.207 121.599C113.528 120.656 113.679 119.382 114.579 118.75C115.461 118.131 116.734 118.378 117.427 119.339C118.106 120.281 117.938 121.568 117.055 122.187Z" fill="white"/>
<path d="M128.218 137.559C127.335 138.179 126.062 137.931 125.37 136.97C124.691 136.028 124.842 134.754 125.742 134.122C126.625 133.502 127.897 133.75 128.59 134.711C129.269 135.653 129.101 136.939 128.218 137.559Z" fill="white"/>
<path d="M139.38 152.931C138.497 153.55 137.224 153.303 136.532 152.342C135.853 151.4 136.004 150.125 136.904 149.494C137.787 148.874 139.06 149.121 139.752 150.082C140.431 151.025 140.263 152.311 139.38 152.931Z" fill="white"/>
<path d="M150.531 168.285C149.648 168.904 148.375 168.657 147.683 167.696C147.004 166.754 147.154 165.479 148.054 164.848C148.937 164.228 150.223 164.494 150.902 165.436C151.594 166.397 151.413 167.665 150.531 168.285Z" fill="white"/>
<path d="M161.694 183.656C160.811 184.276 159.538 184.028 158.846 183.068C158.167 182.125 158.317 180.851 159.217 180.219C160.1 179.6 161.373 179.847 162.065 180.808C162.758 181.769 162.576 183.037 161.694 183.656Z" fill="white"/>
<path d="M37.4889 39.0998C36.6061 39.7195 35.3332 39.4721 34.6408 38.5111C33.9618 37.5686 34.1257 36.3126 35.0258 35.6808C35.9087 35.0611 37.1816 35.3085 37.874 36.2695C38.5357 37.2242 38.3718 38.4801 37.4889 39.0998Z" fill="white"/>
<path d="M48.6526 54.4716C47.7698 55.0912 46.4969 54.8438 45.8046 53.883C45.1257 52.9406 45.2762 51.6664 46.1763 51.0346C47.0591 50.415 48.332 50.6624 49.0243 51.6233C49.6992 52.5963 49.5354 53.852 48.6526 54.4716Z" fill="white"/>
<path d="M59.8157 69.8432C58.9329 70.4628 57.66 70.2154 56.9677 69.2545C56.2888 68.3121 56.4393 67.0379 57.3394 66.4062C58.2222 65.7866 59.4951 66.034 60.1874 66.9949C60.8623 67.9679 60.6985 69.2236 59.8157 69.8432Z" fill="white"/>
<path d="M70.9778 85.2148C70.095 85.8344 68.8221 85.587 68.1298 84.6261C67.4509 83.6837 67.6014 82.4095 68.5015 81.7778C69.3843 81.1582 70.6572 81.4056 71.3495 82.3664C72.0244 83.3395 71.8606 84.5952 70.9778 85.2148Z" fill="white"/>
<path d="M82.1409 100.586C81.2581 101.205 79.9852 100.958 79.2929 99.9972C78.614 99.0548 78.7645 97.7806 79.6646 97.1489C80.5474 96.5293 81.8203 96.7767 82.5125 97.7375C83.1742 98.6921 83.0237 99.9663 82.1409 100.586Z" fill="white"/>
<path d="M93.304 115.957C92.4212 116.577 91.1483 116.33 90.456 115.369C89.777 114.426 89.9276 113.152 90.8277 112.52C91.7105 111.901 92.9833 112.148 93.6756 113.109C94.3373 114.064 94.1868 115.338 93.304 115.957Z" fill="white"/>
<path d="M104.467 131.329C103.584 131.949 102.311 131.701 101.619 130.74C100.94 129.798 101.091 128.524 101.991 127.892C102.874 127.272 104.146 127.52 104.839 128.481C105.5 129.435 105.35 130.709 104.467 131.329Z" fill="white"/>
<path d="M115.629 146.701C114.746 147.32 113.473 147.073 112.781 146.112C112.102 145.17 112.253 143.895 113.153 143.264C114.036 142.644 115.309 142.891 116.001 143.852C116.662 144.807 116.512 146.081 115.629 146.701Z" fill="white"/>
<path d="M126.792 162.072C125.909 162.692 124.637 162.444 123.944 161.484C123.265 160.541 123.416 159.267 124.316 158.635C125.199 158.016 126.472 158.263 127.164 159.224C127.826 160.178 127.675 161.453 126.792 162.072Z" fill="white"/>
<path d="M137.943 177.426C137.06 178.046 135.787 177.798 135.095 176.838C134.416 175.895 134.566 174.621 135.466 173.989C136.349 173.37 137.635 173.635 138.314 174.578C138.989 175.551 138.825 176.807 137.943 177.426Z" fill="white"/>
<path d="M149.105 192.798C148.222 193.417 146.949 193.17 146.257 192.209C145.578 191.267 145.728 189.993 146.628 189.361C147.511 188.741 148.784 188.989 149.476 189.949C150.151 190.922 149.988 192.178 149.105 192.798Z" fill="white"/>
<path d="M24.8835 48.2541C24.0006 48.8738 22.7277 48.6264 22.0354 47.6654C21.3736 46.7107 21.5375 45.4548 22.4204 44.8351C23.3032 44.2154 24.5762 44.4628 25.2685 45.4238C25.9475 46.3664 25.7663 47.6344 24.8835 48.2541Z" fill="white"/>
<path d="M36.0461 63.6259C35.1633 64.2455 33.8905 63.9981 33.1982 63.0372C32.5192 62.0949 32.6698 60.8207 33.5699 60.1889C34.4527 59.5693 35.7255 59.8167 36.4178 60.7776C37.1101 61.7384 36.9289 63.0063 36.0461 63.6259Z" fill="white"/>
<path d="M47.2092 78.9975C46.3264 79.6171 45.0536 79.3697 44.3613 78.4088C43.6823 77.4664 43.8329 76.1922 44.733 75.5605C45.6158 74.9409 46.8886 75.1883 47.5809 76.1492C48.2732 77.11 48.092 78.3779 47.2092 78.9975Z" fill="white"/>
<path d="M58.3723 94.3691C57.4895 94.9886 56.2167 94.7413 55.5244 93.7804C54.8454 92.838 54.9959 91.5638 55.8961 90.9321C56.7789 90.3125 58.0517 90.5599 58.744 91.5207C59.4363 92.4816 59.2551 93.7495 58.3723 94.3691Z" fill="white"/>
<path d="M69.5354 109.741C68.6526 110.36 67.3798 110.113 66.6875 109.152C66.0085 108.21 66.159 106.935 67.0591 106.304C67.9419 105.684 69.2148 105.931 69.9071 106.892C70.5861 107.835 70.4182 109.121 69.5354 109.741Z" fill="white"/>
<path d="M80.6975 125.112C79.8147 125.732 78.5419 125.484 77.8496 124.524C77.1706 123.581 77.3211 122.307 78.2213 121.675C79.104 121.056 80.3769 121.303 81.0692 122.264C81.7482 123.206 81.5803 124.493 80.6975 125.112Z" fill="white"/>
<path d="M91.8606 140.484C90.9778 141.103 89.7049 140.856 89.0127 139.895C88.3337 138.953 88.4842 137.679 89.3843 137.047C90.2671 136.427 91.54 136.675 92.2323 137.635C92.9113 138.578 92.7434 139.864 91.8606 140.484Z" fill="white"/>
<path d="M103.024 155.855C102.141 156.475 100.868 156.228 100.176 155.267C99.4968 154.324 99.6473 153.05 100.547 152.418C101.43 151.799 102.703 152.046 103.395 153.007C104.074 153.949 103.906 155.236 103.024 155.855Z" fill="white"/>
<path d="M114.187 171.227C113.304 171.847 112.031 171.599 111.339 170.638C110.66 169.696 110.81 168.422 111.711 167.79C112.593 167.17 113.866 167.418 114.558 168.379C115.237 169.321 115.07 170.607 114.187 171.227Z" fill="white"/>
<path d="M125.336 186.58C124.453 187.2 123.181 186.953 122.488 185.992C121.809 185.049 121.96 183.775 122.86 183.144C123.743 182.524 125.029 182.79 125.708 183.732C126.4 184.693 126.219 185.961 125.336 186.58Z" fill="white"/>
<path d="M12.2946 57.3957C11.4118 58.0154 10.1388 57.768 9.44649 56.807C8.76746 55.8645 8.94864 54.5964 9.83149 53.9767C10.7143 53.357 11.9873 53.6044 12.6796 54.5654C13.3586 55.508 13.1775 56.776 12.2946 57.3957Z" fill="white"/>
<path d="M23.4583 72.7675C22.5755 73.3871 21.3026 73.1397 20.6103 72.1789C19.9313 71.2365 20.0819 69.9623 20.982 69.3305C21.8648 68.7109 23.1376 68.9583 23.8299 69.9192C24.5222 70.88 24.3411 72.1479 23.4583 72.7675Z" fill="white"/>
<path d="M34.6213 88.1391C33.7385 88.7587 32.4657 88.5113 31.7734 87.5504C31.0944 86.608 31.245 85.3338 32.1451 84.7021C33.0279 84.0825 34.3007 84.3299 34.993 85.2908C35.6853 86.2516 35.5041 87.5195 34.6213 88.1391Z" fill="white"/>
<path d="M42.9355 102.922C43.6193 103.871 44.8944 104.135 45.7835 103.511C46.6725 102.887 46.8389 101.611 46.1551 100.662C45.4713 99.7132 44.1963 99.4497 43.3072 100.074C42.4181 100.698 42.2517 101.973 42.9355 102.922Z" fill="white"/>
<path d="M56.9465 118.882C56.0637 119.502 54.7909 119.254 54.0986 118.294C53.4196 117.351 53.5702 116.077 54.4703 115.445C55.3531 114.826 56.6259 115.073 57.3182 116.034C57.9972 116.976 57.8293 118.263 56.9465 118.882Z" fill="white"/>
<path d="M68.1096 134.254C67.2268 134.873 65.954 134.626 65.2617 133.665C64.5827 132.723 64.7332 131.449 65.6334 130.817C66.5162 130.197 67.789 130.445 68.4813 131.406C69.1603 132.348 68.9924 133.634 68.1096 134.254Z" fill="white"/>
<path d="M79.2727 149.625C78.3899 150.245 77.1171 149.998 76.4248 149.037C75.7458 148.094 75.8963 146.82 76.7964 146.188C77.6792 145.569 78.9521 145.816 79.6444 146.777C80.3234 147.719 80.1555 149.006 79.2727 149.625Z" fill="white"/>
<path d="M90.4348 164.997C89.552 165.617 88.2792 165.369 87.5869 164.408C86.9079 163.466 87.0584 162.192 87.9586 161.56C88.8413 160.94 90.1142 161.188 90.8065 162.149C91.4855 163.091 91.3176 164.377 90.4348 164.997Z" fill="white"/>
<path d="M101.598 180.369C100.715 180.988 99.4422 180.741 98.75 179.78C98.071 178.838 98.2215 177.563 99.1216 176.932C100.004 176.312 101.277 176.559 101.97 177.52C102.649 178.463 102.481 179.749 101.598 180.369Z" fill="white"/>
<path d="M-0.293272 66.5373C-1.17613 67.157 -2.44906 66.9096 -3.1414 65.9486C-3.82042 65.0061 -3.65656 63.7501 -2.7564 63.1183C-1.87354 62.4986 -0.600603 62.746 0.0917344 63.707C0.753447 64.6617 0.589582 65.9176 -0.293272 66.5373Z" fill="white"/>
<path d="M10.8704 81.9091C9.98757 82.5287 8.71471 82.2813 8.02242 81.3205C7.34345 80.3781 7.49399 79.1039 8.3941 78.4721C9.2769 77.8525 10.5498 78.0999 11.242 79.0608C11.917 80.0338 11.7532 81.2895 10.8704 81.9091Z" fill="white"/>
<path d="M22.0325 97.2807C21.1497 97.9003 19.8768 97.6529 19.1845 96.692C18.5056 95.7496 18.6561 94.4754 19.5562 93.8437C20.439 93.2241 21.7119 93.4715 22.4042 94.4324C23.0791 95.4054 22.9153 96.6611 22.0325 97.2807Z" fill="white"/>
<path d="M33.1956 112.652C32.3128 113.272 31.0399 113.024 30.3476 112.064C29.6686 111.121 29.8192 109.847 30.7193 109.215C31.6021 108.596 32.8749 108.843 33.5672 109.804C34.2422 110.777 34.0784 112.033 33.1956 112.652Z" fill="white"/>
<path d="M44.3587 128.024C43.4759 128.643 42.203 128.396 41.5107 127.435C40.8317 126.493 40.9823 125.219 41.8824 124.587C42.7652 123.967 44.038 124.215 44.7303 125.176C45.392 126.13 45.2415 127.404 44.3587 128.024Z" fill="white"/>
<path d="M55.5217 143.395C54.6389 144.015 53.3661 143.768 52.6738 142.807C51.9948 141.864 52.1454 140.59 53.0455 139.958C53.9283 139.339 55.2011 139.586 55.8934 140.547C56.5551 141.502 56.4045 142.776 55.5217 143.395Z" fill="white"/>
<path d="M66.6838 158.767C65.801 159.387 64.5282 159.139 63.8359 158.178C63.1569 157.236 63.3075 155.962 64.2076 155.33C65.0904 154.71 66.3632 154.958 67.0555 155.919C67.7172 156.873 67.5666 158.147 66.6838 158.767Z" fill="white"/>
<path d="M77.8469 174.139C76.9641 174.758 75.6913 174.511 74.999 173.55C74.32 172.608 74.4706 171.333 75.3707 170.702C76.2535 170.082 77.5263 170.329 78.2186 171.29C78.8803 172.245 78.7297 173.519 77.8469 174.139Z" fill="white"/>
<path d="M89.01 189.51C88.1272 190.13 86.8544 189.882 86.1621 188.922C85.4831 187.979 85.6336 186.705 86.5337 186.073C87.4165 185.454 88.6894 185.701 89.3817 186.662C90.0434 187.616 89.8928 188.891 89.01 189.51Z" fill="white"/>
<path d="M9.427 106.435C8.54421 107.055 7.27135 106.807 6.57906 105.846C5.90008 104.904 6.05063 103.63 6.95074 102.998C7.83354 102.378 9.10639 102.626 9.79868 103.587C10.491 104.548 10.3098 105.815 9.427 106.435Z" fill="white"/>
<path d="M20.5891 121.807C19.7063 122.426 18.4335 122.179 17.7412 121.218C17.0622 120.276 17.2127 119.001 18.1128 118.37C18.9956 117.75 20.2685 117.997 20.9608 118.958C21.6531 119.919 21.4719 121.187 20.5891 121.807Z" fill="white"/>
<path d="M31.7522 137.178C30.8694 137.798 29.5966 137.55 28.9043 136.589C28.2253 135.647 28.3758 134.373 29.2759 133.741C30.1587 133.122 31.4316 133.369 32.1239 134.33C32.8029 135.272 32.635 136.559 31.7522 137.178Z" fill="white"/>
<path d="M42.9153 152.55C42.0325 153.169 40.7596 152.922 40.0673 151.961C39.3884 151.019 39.5389 149.744 40.439 149.113C41.3218 148.493 42.5947 148.741 43.287 149.701C43.9659 150.644 43.7981 151.93 42.9153 152.55Z" fill="white"/>
<path d="M54.0784 167.921C53.1956 168.541 51.9227 168.294 51.2304 167.333C50.5515 166.39 50.702 165.116 51.6021 164.484C52.4849 163.865 53.7578 164.112 54.45 165.073C55.129 166.015 54.9612 167.302 54.0784 167.921Z" fill="white"/>
<path d="M65.2405 183.293C64.3577 183.912 63.0848 183.665 62.3925 182.704C61.7136 181.762 61.8641 180.488 62.7642 179.856C63.647 179.236 64.9199 179.484 65.6122 180.445C66.2911 181.387 66.1233 182.673 65.2405 183.293Z" fill="white"/>
<path d="M8.00122 130.948C7.11842 131.568 5.84557 131.32 5.15328 130.36C4.4743 129.417 4.62485 128.143 5.52496 127.511C6.40775 126.892 7.68061 127.139 8.3729 128.1C9.04788 129.073 8.88402 130.329 8.00122 130.948Z" fill="white"/>
<path d="M19.1643 146.32C18.2815 146.939 17.0087 146.692 16.3164 145.731C15.6374 144.789 15.7879 143.515 16.688 142.883C17.5708 142.263 18.8437 142.511 19.536 143.471C20.1977 144.426 20.0471 145.7 19.1643 146.32Z" fill="white"/>
<path d="M30.3274 161.691C29.4446 162.311 28.1717 162.064 27.4795 161.103C26.8005 160.16 26.951 158.886 27.8511 158.254C28.7339 157.635 30.0068 157.882 30.6991 158.843C31.3607 159.798 31.2102 161.072 30.3274 161.691Z" fill="white"/>
<path d="M41.4895 177.063C40.6067 177.682 39.3339 177.435 38.6416 176.474C37.9626 175.532 38.1131 174.258 39.0132 173.626C39.896 173.006 41.1689 173.254 41.8612 174.215C42.5228 175.169 42.3723 176.443 41.4895 177.063Z" fill="white"/>
<path d="M52.6526 192.434C51.7698 193.054 50.4969 192.807 49.8046 191.846C49.1257 190.903 49.2762 189.629 50.1763 188.998C51.0591 188.378 52.332 188.625 53.0243 189.586C53.6859 190.541 53.5354 191.815 52.6526 192.434Z" fill="white"/>
<path d="M6.55787 155.475C5.67507 156.094 4.40222 155.847 3.70992 154.886C3.03095 153.943 3.18149 152.669 4.0816 152.038C4.9644 151.418 6.23725 151.665 6.92954 152.626C7.60852 153.569 7.45798 154.843 6.55787 155.475Z" fill="white"/>
<path d="M17.721 170.846C16.8382 171.466 15.5653 171.218 14.873 170.257C14.194 169.315 14.3446 168.041 15.2447 167.409C16.1275 166.79 17.4003 167.037 18.0926 167.998C18.7716 168.94 18.6211 170.214 17.721 170.846Z" fill="white"/>
<path d="M28.884 186.218C28.0012 186.837 26.7284 186.59 26.0361 185.629C25.3571 184.687 25.5077 183.412 26.4078 182.781C27.2906 182.161 28.5634 182.408 29.2557 183.369C29.9347 184.312 29.7841 185.586 28.884 186.218Z" fill="white"/>
<path d="M5.13306 179.988C4.25027 180.607 2.97741 180.36 2.28512 179.399C1.60614 178.457 1.75669 177.182 2.65679 176.551C3.53959 175.931 4.81245 176.179 5.50474 177.139C6.18371 178.082 6.01586 179.368 5.13306 179.988Z" fill="white"/>
<path d="M16.2952 195.359C15.4124 195.979 14.1395 195.732 13.4472 194.771C12.7682 193.828 12.9188 192.554 13.8189 191.922C14.7017 191.303 15.9746 191.55 16.6668 192.511C17.3458 193.453 17.178 194.74 16.2952 195.359Z" fill="white"/>
</g>
</g>
<defs>
<linearGradient id="paint0_linear_2352_28967" x1="163.39" y1="176.803" x2="-46.4006" y2="45.8178" gradientUnits="userSpaceOnUse">
<stop stop-color="#D7352B"/>
<stop offset="1" stop-color="#110966"/>
</linearGradient>
</defs>
</svg>
