<svg width="51" height="60" viewBox="0 0 51 60" fill="none" xmlns="http://www.w3.org/2000/svg">
<path opacity="0.2" d="M25.9771 60C25.664 60 25.3525 60 25.0394 60C24.9126 59.9577 24.7889 59.9014 24.6589 59.8763C19.6742 58.9354 15.159 56.9377 11.2357 53.7158C4.25639 47.9827 0.43953 40.5572 0.131112 31.5504C-0.116249 24.3128 0.063786 17.0579 0.085704 9.81243C0.0872696 9.38033 0.292365 8.895 0.541291 8.52709C0.978086 7.88364 1.69355 7.82102 2.42467 7.81319C6.921 7.76936 11.2717 6.97248 15.4408 5.25818C18.5595 3.97597 21.4542 2.28672 24.255 0.426819C25.1083 -0.139918 25.9161 -0.143049 26.7599 0.422123C27.4738 0.899622 28.205 1.35207 28.9298 1.81079C35.0215 5.66836 41.6204 7.84294 48.883 7.83041C50.1809 7.82728 50.948 8.63042 50.948 9.92985C50.9512 16.6884 50.9934 23.447 50.923 30.2056C50.9011 32.2252 50.7664 34.287 50.3281 36.2487C47.7277 47.8621 40.6904 55.488 29.3713 59.153C28.2629 59.51 27.1091 59.7213 25.9771 60ZM25.4793 46.9603C35.1592 46.9885 43.0685 39.109 43.1092 29.3977C43.1515 19.6818 35.2547 11.7428 25.5341 11.724C15.8432 11.7052 7.94332 19.5738 7.90262 29.2835C7.86348 38.9994 15.7524 46.9322 25.4793 46.9603Z" fill="#F7421E"/>
<path d="M21.176 34.4435C18.7619 35.087 16.628 36.1469 14.7149 37.6326C11.1454 33.4619 10.3172 25.7233 15.3536 20.1639C20.4324 14.5592 29.0368 14.1067 34.6227 19.1275C40.3026 24.2344 40.4842 32.4443 36.3323 37.6451C34.4067 36.161 32.265 35.0838 29.8352 34.4373C31.861 32.748 32.8458 30.6517 32.647 28.0763C32.5014 26.1836 31.6716 24.6023 30.2626 23.3311C27.3616 20.7134 22.8872 20.9592 20.2022 23.8743C17.6488 26.647 17.4969 31.3938 21.176 34.4435Z" fill="#F7421E"/>
</svg>
