<svg width="382" height="483" viewBox="0 0 382 483" fill="none" xmlns="http://www.w3.org/2000/svg">
<path d="M347.33 316.365C346.276 316.365 345.209 316.081 344.277 315.512L325.937 304.488L327.044 302.632L345.385 313.657C346.573 314.375 348.059 314.375 349.248 313.684L379.096 296.172C379.568 295.888 379.852 295.4 379.838 294.845C379.825 294.289 379.528 293.815 379.055 293.545L339.267 272.186L340.28 270.277L380.068 291.635C381.257 292.272 381.972 293.45 381.999 294.804C382.026 296.159 381.338 297.364 380.19 298.041L350.342 315.553C349.41 316.095 348.37 316.365 347.33 316.365Z" fill="#B2D3EA"/>
<path d="M273.142 482.003C271.846 482.003 270.549 481.678 269.388 481.027L196.186 440.167C195.105 439.571 194.457 438.46 194.457 437.228C194.457 435.982 195.092 434.885 196.172 434.275L229.302 415.545C229.829 415.247 229.883 414.746 229.883 414.542C229.883 414.339 229.829 413.838 229.302 413.54L192.445 392.318C191.432 391.735 190.811 390.679 190.784 389.514C190.757 388.349 191.337 387.266 192.323 386.643L207.382 377.081L208.544 378.909L193.485 388.471C192.985 388.783 192.945 389.27 192.945 389.473C192.945 389.663 193.012 390.151 193.525 390.448L230.383 411.671C231.423 412.281 232.044 413.351 232.044 414.556C232.044 415.761 231.409 416.845 230.369 417.427L197.239 436.158C196.686 436.469 196.632 436.998 196.632 437.214C196.632 437.431 196.699 437.959 197.253 438.271L270.455 479.131C272.197 480.106 274.344 480.066 276.046 479.023L303.882 461.863C304.098 461.728 304.138 461.525 304.138 461.416C304.138 461.322 304.111 461.105 303.882 460.956L283.745 448.672L284.866 446.817L305.016 459.101C305.827 459.588 306.313 460.455 306.313 461.403C306.313 462.351 305.84 463.204 305.03 463.705L277.194 480.865C275.925 481.637 274.534 482.003 273.142 482.003Z" fill="#B2D3EA"/>
<path d="M304.759 317.49L269.468 297.053C267.307 295.793 267.577 293.613 270.076 292.163L304.151 272.43C306.65 270.981 310.432 270.819 312.606 272.078L347.897 292.515C350.058 293.775 349.788 295.956 347.289 297.405L313.214 317.138C310.715 318.587 306.92 318.736 304.759 317.49Z" fill="#B2D3EA"/>
<path d="M359.593 276.954V261.663L325.41 261.65L313.592 254.81C310.877 253.239 306.137 253.442 303.017 255.244L291.996 261.623L257.772 261.609V277.333C257.691 278.389 258.286 279.419 259.596 280.177L303.787 305.761C306.502 307.332 311.242 307.129 314.362 305.327L357.027 280.624C358.823 279.568 359.701 278.213 359.593 276.954Z" fill="#396CAA"/>
<path d="M308.676 253.754C306.69 253.808 304.638 254.309 303.003 255.244L291.983 261.623L257.759 261.609V277.333C257.678 278.39 258.272 279.419 259.582 280.177L303.773 305.761C305.07 306.519 306.853 306.858 308.689 306.817V253.754H308.676Z" fill="#396CAA"/>
<path d="M261.635 261.609H257.759V277.333C257.678 278.39 258.272 279.419 259.582 280.178L261.635 281.369V261.609Z" fill="#5793CE"/>
<path d="M304.449 306.086C306.785 307.088 310.175 307.034 312.903 305.991V288.141H304.449V306.086Z" fill="#5793CE"/>
<path d="M303.773 290.091L259.582 264.507C256.867 262.936 257.205 260.2 260.338 258.386L303.003 233.682C306.137 231.867 310.877 231.678 313.579 233.249L357.77 258.833C360.484 260.404 360.147 263.139 357.013 264.954L314.348 289.658C311.215 291.459 306.488 291.662 303.773 290.091Z" fill="#D4ECFF"/>
<path d="M304.57 285.487L267.537 264.047C265.268 262.733 265.552 260.431 268.172 258.914L303.922 238.206C306.542 236.689 310.513 236.527 312.795 237.84L349.828 259.28C352.097 260.594 351.814 262.896 349.194 264.413L313.444 285.121C310.81 286.638 306.839 286.8 304.57 285.487Z" fill="#5793CE"/>
<path d="M343.345 280.99C343.345 282.128 342.548 283.523 341.563 284.091C340.577 284.66 339.78 284.2 339.78 283.062C339.78 281.924 340.577 280.529 341.563 279.961C342.548 279.378 343.345 279.852 343.345 280.99Z" fill="#D4ECFF"/>
<path d="M349.085 277.658C349.085 278.796 348.288 280.191 347.302 280.76C346.316 281.329 345.52 280.868 345.52 279.73C345.52 278.593 346.316 277.198 347.302 276.629C348.288 276.06 349.085 276.521 349.085 277.658Z" fill="#D4ECFF"/>
<path d="M354.825 274.34C354.825 275.478 354.028 276.873 353.043 277.442C352.057 278.01 351.26 277.55 351.26 276.412C351.26 275.275 352.057 273.88 353.043 273.311C354.028 272.728 354.825 273.202 354.825 274.34Z" fill="#D4ECFF"/>
<path d="M359.593 252.521V237.231L325.41 237.217L313.592 230.378C310.877 228.806 306.137 229.01 303.017 230.811L291.996 237.19L257.772 237.176V252.9C257.691 253.957 258.286 254.986 259.596 255.745L303.787 281.328C306.502 282.899 311.242 282.696 314.362 280.895L357.027 256.191C358.823 255.135 359.701 253.781 359.593 252.521Z" fill="#396CAA"/>
<path d="M308.676 229.321C306.69 229.375 304.638 229.877 303.003 230.811L291.983 237.19L257.759 237.177V252.901C257.678 253.957 258.272 254.986 259.582 255.745L303.773 281.328C305.07 282.087 306.853 282.425 308.689 282.385V229.321H308.676Z" fill="#396CAA"/>
<path d="M261.635 237.177H257.759V252.901C257.678 253.957 258.272 254.986 259.582 255.745L261.635 256.937V237.177Z" fill="#5793CE"/>
<path d="M304.449 281.653C306.785 282.655 310.175 282.601 312.903 281.558V263.708H304.449V281.653Z" fill="#5793CE"/>
<path d="M303.773 265.659L259.582 240.075C256.867 238.504 257.205 235.768 260.338 233.953L303.003 209.25C306.137 207.435 310.877 207.246 313.579 208.817L357.77 234.4C360.484 235.971 360.147 238.707 357.013 240.522L314.348 265.225C311.215 267.027 306.488 267.23 303.773 265.659Z" fill="#D4ECFF"/>
<path d="M304.57 261.054L267.537 239.615C265.268 238.301 265.552 235.998 268.172 234.482L303.922 213.774C306.542 212.257 310.513 212.094 312.795 213.408L349.828 234.847C352.097 236.161 351.814 238.463 349.194 239.98L313.444 260.688C310.81 262.205 306.839 262.368 304.57 261.054Z" fill="#5793CE"/>
<path d="M343.345 256.557C343.345 257.695 342.548 259.09 341.563 259.659C340.577 260.228 339.78 259.767 339.78 258.63C339.78 257.492 340.577 256.097 341.563 255.528C342.548 254.946 343.345 255.42 343.345 256.557Z" fill="#D4ECFF"/>
<path d="M349.085 253.226C349.085 254.363 348.288 255.758 347.302 256.327C346.316 256.896 345.52 256.436 345.52 255.298C345.52 254.16 346.316 252.765 347.302 252.196C348.288 251.628 349.085 252.088 349.085 253.226Z" fill="#D4ECFF"/>
<path d="M354.825 249.907C354.825 251.045 354.028 252.44 353.043 253.009C352.057 253.578 351.26 253.117 351.26 251.98C351.26 250.842 352.057 249.447 353.043 248.878C354.028 248.296 354.825 248.77 354.825 249.907Z" fill="#D4ECFF"/>
<path d="M359.593 228.089V212.798L325.41 212.785L313.592 205.945C310.877 204.374 306.137 204.578 303.017 206.379L291.996 212.758L257.772 212.744V228.468C257.691 229.525 258.286 230.554 259.596 231.312L303.787 256.896C306.502 258.467 311.242 258.264 314.362 256.463L357.027 231.759C358.823 230.703 359.701 229.349 359.593 228.089Z" fill="#396CAA"/>
<path d="M308.676 204.889C306.69 204.943 304.638 205.444 303.003 206.378L291.983 212.757L257.759 212.744V228.468C257.678 229.524 258.272 230.554 259.582 231.312L303.773 256.896C305.07 257.654 306.853 257.993 308.689 257.952V204.889H308.676Z" fill="#396CAA"/>
<path d="M261.635 212.744H257.759V228.468C257.678 229.525 258.272 230.554 259.582 231.312L261.635 232.504V212.744Z" fill="#5793CE"/>
<path d="M304.449 257.221C306.785 258.223 310.175 258.169 312.903 257.126V239.276H304.449V257.221Z" fill="#5793CE"/>
<path d="M303.773 241.226L259.582 215.642C256.867 214.071 257.205 211.336 260.338 209.521L303.003 184.817C306.137 183.003 310.877 182.813 313.579 184.384L357.77 209.968C360.484 211.539 360.147 214.275 357.013 216.089L314.348 240.793C311.215 242.594 306.488 242.797 303.773 241.226Z" fill="#D4ECFF"/>
<path d="M357.027 213.069L314.362 237.772C311.228 239.587 306.488 239.777 303.787 238.206L259.582 212.636C258.974 212.283 258.529 211.877 258.231 211.43C257.299 212.934 257.718 214.559 259.582 215.642L303.773 241.226C306.488 242.797 311.228 242.594 314.348 240.792L357.013 216.089C359.444 214.681 360.187 212.717 359.12 211.173C358.715 211.836 357.999 212.5 357.027 213.069Z" fill="white"/>
<path d="M343.345 232.125C343.345 233.262 342.548 234.657 341.563 235.226C340.577 235.795 339.78 235.335 339.78 234.197C339.78 233.059 340.577 231.664 341.563 231.095C342.548 230.513 343.345 230.974 343.345 232.125Z" fill="#D4ECFF"/>
<path d="M349.085 228.794C349.085 229.931 348.288 231.326 347.302 231.895C346.316 232.464 345.52 232.003 345.52 230.866C345.52 229.728 346.316 228.333 347.302 227.764C348.288 227.195 349.085 227.656 349.085 228.794Z" fill="#D4ECFF"/>
<path d="M354.825 225.475C354.825 226.613 354.028 228.008 353.043 228.577C352.057 229.146 351.26 228.685 351.26 227.547C351.26 226.41 352.057 225.015 353.043 224.446C354.028 223.864 354.825 224.324 354.825 225.475Z" fill="#D4ECFF"/>
<path d="M306.38 225.367L285.702 213.394C284.433 212.663 284.595 211.376 286.053 210.523L306.015 198.957C307.487 198.104 309.702 198.022 310.972 198.754L331.649 210.726C332.919 211.458 332.757 212.744 331.298 213.597L311.336 225.164C309.864 226.003 307.649 226.098 306.38 225.367Z" fill="#5793CE"/>
<path d="M308.365 215.331L305.502 213.678C305.326 213.584 305.353 213.394 305.556 213.286L308.324 211.687C308.527 211.566 308.838 211.552 309.013 211.66L311.876 213.313C312.052 213.421 312.025 213.597 311.822 213.705L309.054 215.304C308.851 215.425 308.541 215.439 308.365 215.331Z" fill="#D4ECFF"/>
<path d="M285.702 213.394L285.756 213.421C285.851 213.353 285.945 213.286 286.053 213.218L306.015 201.652C307.487 200.799 309.702 200.717 310.972 201.449L331.595 213.38C332.77 212.541 332.824 211.403 331.649 210.712L310.972 198.74C309.702 198.009 307.487 198.103 306.015 198.943L286.053 210.509C284.595 211.376 284.433 212.649 285.702 213.394Z" fill="#396CAA"/>
<path d="M225.278 390.801L149.01 347.19C146.215 345.579 146.566 342.748 149.794 340.893L193.674 315.485C196.889 313.616 201.764 313.413 204.56 315.038L280.827 358.648C283.623 360.26 283.272 363.09 280.044 364.946L236.164 390.354C232.936 392.209 228.06 392.412 225.278 390.801Z" fill="#B2D3EA"/>
<path d="M287.621 343.954V165.41L216.836 146.828L203.803 139.284C200.805 137.551 195.578 137.767 192.134 139.772L179.965 146.814L142.216 146.787L153.399 319.156C153.318 320.334 153.966 321.458 155.398 322.298L226.034 375.74C229.032 377.474 234.259 377.257 237.703 375.253L284.784 348.003C286.77 346.838 287.729 345.349 287.621 343.954Z" fill="#396CAA"/>
<path d="M198.374 138.119C196.186 138.173 193.917 138.729 192.121 139.771L179.952 146.814L142.203 146.787V325.819C142.122 326.997 142.77 328.121 144.202 328.961L226.02 375.74C227.452 376.566 229.41 376.945 231.436 376.905L232.274 196.749L198.374 138.119Z" fill="#D4ECFF"/>
<path d="M226.777 376.106C229.356 377.217 233.098 377.149 236.109 375.998V194.623H226.777V376.106Z" fill="#5793CE"/>
<path d="M226.02 196.776L144.202 149.997C141.204 148.263 141.582 145.243 145.039 143.239L192.121 115.989C195.578 113.985 200.805 113.768 203.79 115.501L285.608 162.281C288.607 164.014 288.228 167.035 284.771 169.039L237.703 196.288C234.246 198.279 229.019 198.496 226.02 196.776Z" fill="#D4ECFF"/>
<path d="M284.771 165.707L237.703 192.971C234.246 194.975 229.019 195.192 226.034 193.458L144.216 146.679C143.554 146.286 143.054 145.839 142.716 145.352C141.69 147.004 142.149 148.805 144.216 149.997L226.034 196.776C229.032 198.51 234.259 198.293 237.703 196.289L284.785 169.039C287.472 167.482 288.283 165.315 287.121 163.608C286.635 164.353 285.865 165.084 284.771 165.707Z" fill="#FAFDFF"/>
<path d="M228.343 177.816L173.874 146.151C172.469 145.338 172.645 143.93 174.266 142.982L196.294 130.224C197.914 129.289 200.359 129.181 201.75 129.993L256.219 161.658C257.624 162.471 257.448 163.879 255.828 164.827L233.799 177.585C232.179 178.52 229.734 178.615 228.343 177.816Z" fill="#173D7A"/>
<path d="M198.928 147.573L195.767 145.744C195.578 145.636 195.592 145.433 195.821 145.311L198.874 143.55C199.103 143.415 199.441 143.401 199.63 143.523L202.79 145.351C202.979 145.46 202.966 145.663 202.736 145.785L199.684 147.545C199.468 147.667 199.13 147.681 198.928 147.573Z" fill="#D4ECFF"/>
<path d="M209.475 153.654L206.315 151.825C206.126 151.717 206.14 151.514 206.369 151.392L209.421 149.631C209.651 149.496 209.989 149.482 210.178 149.604L213.338 151.432C213.527 151.541 213.514 151.744 213.284 151.866L210.232 153.626C210.002 153.748 209.665 153.762 209.475 153.654Z" fill="#D4ECFF"/>
<path d="M220.024 159.721L216.863 157.893C216.674 157.784 216.688 157.581 216.917 157.459L219.97 155.699C220.199 155.563 220.537 155.55 220.726 155.671L223.886 157.5C224.076 157.608 224.062 157.811 223.832 157.933L220.78 159.694C220.551 159.829 220.213 159.843 220.024 159.721Z" fill="#D4ECFF"/>
<path d="M230.572 165.802L227.411 163.974C227.222 163.865 227.236 163.662 227.465 163.54L230.518 161.78C230.747 161.644 231.085 161.631 231.274 161.753L234.434 163.581C234.623 163.689 234.61 163.892 234.38 164.014L231.328 165.775C231.098 165.91 230.761 165.924 230.572 165.802Z" fill="#D4ECFF"/>
<path d="M173.861 146.151L173.928 146.191C174.036 146.11 174.131 146.043 174.252 145.961L196.28 133.203C197.901 132.269 200.346 132.16 201.737 132.973L256.152 164.597C257.449 163.676 257.516 162.403 256.219 161.658L201.75 129.993C200.346 129.181 197.901 129.289 196.294 130.224L174.266 142.982C172.645 143.916 172.47 145.338 173.861 146.151Z" fill="#5793CE"/>
<path d="M246.887 232.152L277.856 214.369C279.598 213.354 281.016 210.659 281.016 208.329V197.223C281.016 194.894 279.598 193.824 277.856 194.826L246.887 212.609C245.145 213.611 243.727 216.32 243.727 218.649V229.755C243.74 232.084 245.145 233.154 246.887 232.152Z" fill="#173D7A"/>
<path d="M279.396 194.488C279.882 194.948 280.192 195.734 280.192 196.804V207.909C280.192 210.239 278.774 212.948 277.032 213.95L246.063 231.732C245.509 232.057 244.983 232.139 244.523 232.071C245.104 232.613 245.942 232.694 246.887 232.152L277.856 214.37C279.598 213.367 281.016 210.659 281.016 208.329V197.224C281.016 195.625 280.355 194.65 279.396 194.488Z" fill="white"/>
<path d="M256.206 220.085L259.042 218.446C259.42 218.229 259.731 217.633 259.731 217.132V214.085C259.731 213.57 259.42 213.34 259.042 213.557L256.206 215.196C255.828 215.412 255.517 216.008 255.517 216.509V219.557C255.517 220.071 255.828 220.302 256.206 220.085Z" fill="#396CAA"/>
<path d="M265.701 214.586L268.537 212.947C268.915 212.731 269.226 212.135 269.226 211.634V208.573C269.226 208.058 268.915 207.828 268.537 208.045L265.701 209.683C265.322 209.9 265.012 210.496 265.012 210.997V214.044C265.025 214.573 265.322 214.803 265.701 214.586Z" fill="white"/>
<path d="M246.887 312.411L277.856 294.628C279.598 293.612 281.016 290.917 281.016 288.588V277.482C281.016 275.153 279.598 274.083 277.856 275.085L246.887 292.868C245.145 293.883 243.727 296.578 243.727 298.908V310.014C243.74 312.343 245.145 313.413 246.887 312.411Z" fill="#173D7A"/>
<path d="M279.396 274.746C279.882 275.207 280.192 275.992 280.192 277.062V288.168C280.192 290.497 278.774 293.206 277.032 294.208L246.063 311.991C245.509 312.316 244.983 312.397 244.523 312.329C245.104 312.871 245.942 312.952 246.887 312.411L277.856 294.628C279.598 293.626 281.016 290.917 281.016 288.588V277.482C281.016 275.884 280.355 274.909 279.396 274.746Z" fill="white"/>
<path d="M256.206 300.343L259.042 298.705C259.42 298.488 259.731 297.892 259.731 297.391V294.344C259.731 293.829 259.42 293.599 259.042 293.829L256.206 295.468C255.828 295.685 255.517 296.28 255.517 296.782V299.829C255.517 300.33 255.828 300.56 256.206 300.343Z" fill="#396CAA"/>
<path d="M265.701 294.845L268.537 293.206C268.915 292.989 269.226 292.394 269.226 291.892V288.845C269.226 288.331 268.915 288.1 268.537 288.331L265.701 289.969C265.322 290.186 265.012 290.782 265.012 291.283V294.33C265.025 294.831 265.322 295.062 265.701 294.845Z" fill="#396CAA"/>
<path d="M246.887 352.54L277.856 334.758C279.598 333.742 281.016 331.047 281.016 328.717V317.612C281.016 315.282 279.598 314.212 277.856 315.214L246.887 332.997C245.145 333.999 243.727 336.708 243.727 339.037V350.143C243.74 352.473 245.145 353.542 246.887 352.54Z" fill="#173D7A"/>
<path d="M279.396 314.876C279.882 315.336 280.192 316.122 280.192 317.192V328.298C280.192 330.627 278.774 333.336 277.032 334.338L246.063 352.121C245.509 352.446 244.983 352.527 244.523 352.459C245.104 353.001 245.942 353.082 246.887 352.54L277.856 334.758C279.598 333.756 281.016 331.047 281.016 328.717V317.612C281.016 316.014 280.355 315.038 279.396 314.876Z" fill="white"/>
<path d="M256.206 340.473L259.042 338.834C259.42 338.617 259.731 338.022 259.731 337.52V334.473C259.731 333.958 259.42 333.728 259.042 333.958L256.206 335.597C255.828 335.814 255.517 336.41 255.517 336.911V339.945C255.517 340.459 255.828 340.69 256.206 340.473Z" fill="white"/>
<path d="M265.701 334.974L268.537 333.336C268.915 333.119 269.226 332.523 269.226 332.022V328.975C269.226 328.46 268.915 328.23 268.537 328.46L265.701 330.099C265.322 330.315 265.012 330.911 265.012 331.412V334.46C265.025 334.961 265.322 335.191 265.701 334.974Z" fill="#396CAA"/>
<path d="M246.887 272.281L277.856 254.499C279.598 253.483 281.016 250.788 281.016 248.458V237.353C281.016 235.023 279.598 233.953 277.856 234.956L246.887 252.725C245.145 253.727 243.727 256.436 243.727 258.765V269.871C243.74 272.214 245.145 273.284 246.887 272.281Z" fill="#173D7A"/>
<path d="M279.396 234.617C279.882 235.077 280.192 235.863 280.192 236.933V248.038C280.192 250.368 278.774 253.077 277.032 254.079L246.063 271.861C245.509 272.186 244.983 272.268 244.523 272.2C245.104 272.742 245.942 272.823 246.887 272.281L277.856 254.499C279.598 253.496 281.016 250.788 281.016 248.458V237.352C281.016 235.754 280.355 234.779 279.396 234.617Z" fill="white"/>
<path d="M256.206 260.214L259.042 258.575C259.42 258.359 259.731 257.763 259.731 257.262V254.214C259.731 253.7 259.42 253.469 259.042 253.7L256.206 255.338C255.828 255.555 255.517 256.151 255.517 256.652V259.699C255.517 260.201 255.828 260.431 256.206 260.214Z" fill="white"/>
<path d="M265.701 254.715L268.537 253.076C268.915 252.86 269.226 252.264 269.226 251.763V248.715C269.226 248.201 268.915 247.971 268.537 248.187L265.701 249.826C265.322 250.043 265.012 250.639 265.012 251.14V254.187C265.025 254.702 265.322 254.932 265.701 254.715Z" fill="white"/>
<path d="M220.064 220.775L148.605 179.4C147.011 178.479 145.714 175.987 145.714 173.847V160.181C145.714 158.042 147.011 157.066 148.605 157.987L220.064 199.363C221.658 200.284 222.954 202.776 222.954 204.916V218.581C222.968 220.721 221.671 221.696 220.064 220.775Z" fill="#5793CE"/>
<path opacity="0.4" d="M218.011 215.981L150.658 176.989C149.847 176.515 149.186 175.256 149.186 174.172V163.906C149.186 162.823 149.847 162.322 150.658 162.796L218.011 201.787C218.822 202.261 219.484 203.521 219.484 204.604V214.87C219.484 215.954 218.822 216.455 218.011 215.981Z" fill="#D4ECFF"/>
<path d="M164.704 179.928L154.655 174.104C153.872 173.644 153.224 172.425 153.224 171.368C153.224 170.312 153.858 169.824 154.655 170.285L164.704 176.109C165.487 176.569 166.135 177.788 166.135 178.844C166.122 179.901 165.487 180.375 164.704 179.928Z" fill="#D4ECFF"/>
<path d="M173.266 182.975C173.266 184.032 172.523 184.452 171.618 183.923C170.714 183.395 169.971 182.122 169.971 181.066C169.971 180.009 170.714 179.589 171.618 180.118C172.523 180.646 173.266 181.919 173.266 182.975Z" fill="#173D7A"/>
<path d="M179.074 186.334C179.074 187.391 178.331 187.81 177.426 187.282C176.521 186.754 175.778 185.481 175.778 184.425C175.778 183.368 176.521 182.948 177.426 183.476C178.331 184.005 179.074 185.291 179.074 186.334Z" fill="#173D7A"/>
<path d="M184.881 189.707C184.881 190.763 184.139 191.183 183.234 190.655C182.329 190.127 181.586 188.853 181.586 187.797C181.586 186.741 182.329 186.321 183.234 186.849C184.152 187.377 184.881 188.65 184.881 189.707Z" fill="#D4ECFF"/>
<path d="M190.702 193.065C190.702 194.122 189.959 194.541 189.054 194.013C188.15 193.485 187.407 192.212 187.407 191.155C187.407 190.099 188.15 189.679 189.054 190.207C189.959 190.736 190.702 192.022 190.702 193.065Z" fill="#173D7A"/>
<path d="M215.175 210.266L211.785 208.302C211.285 208.004 210.867 207.218 210.867 206.541V202.952C210.867 202.275 211.272 201.964 211.785 202.262L215.175 204.225C215.675 204.523 216.093 205.309 216.093 205.986V209.575C216.093 210.252 215.688 210.564 215.175 210.266Z" fill="#173D7A"/>
<path d="M220.064 244.869L148.605 203.494C147.011 202.573 145.714 200.081 145.714 197.941V184.276C145.714 182.136 147.011 181.161 148.605 182.082L220.064 223.457C221.658 224.378 222.954 226.87 222.954 229.01V242.675C222.968 244.815 221.671 245.79 220.064 244.869Z" fill="#5793CE"/>
<path opacity="0.4" d="M218.011 240.075L150.658 201.083C149.847 200.609 149.186 199.35 149.186 198.266V188C149.186 186.917 149.847 186.416 150.658 186.89L218.011 225.882C218.822 226.356 219.484 227.615 219.484 228.699V238.965C219.484 240.048 218.822 240.549 218.011 240.075Z" fill="#D4ECFF"/>
<path d="M164.704 204.022L154.655 198.198C153.872 197.738 153.224 196.519 153.224 195.463C153.224 194.406 153.858 193.919 154.655 194.379L164.704 200.203C165.487 200.663 166.135 201.882 166.135 202.939C166.122 203.995 165.487 204.469 164.704 204.022Z" fill="#D4ECFF"/>
<path d="M173.266 207.07C173.266 208.126 172.523 208.546 171.618 208.018C170.714 207.489 169.971 206.216 169.971 205.16C169.971 204.103 170.714 203.684 171.618 204.212C172.523 204.74 173.266 206.013 173.266 207.07Z" fill="white"/>
<path d="M179.074 210.428C179.074 211.485 178.331 211.905 177.426 211.376C176.521 210.848 175.778 209.575 175.778 208.519C175.778 207.462 176.521 207.043 177.426 207.571C178.331 208.099 179.074 209.386 179.074 210.428Z" fill="#173D7A"/>
<path d="M184.881 213.8C184.881 214.857 184.139 215.277 183.234 214.749C182.329 214.22 181.586 212.947 181.586 211.891C181.586 210.834 182.329 210.415 183.234 210.943C184.152 211.471 184.881 212.744 184.881 213.8Z" fill="#D4ECFF"/>
<path d="M190.702 217.159C190.702 218.216 189.959 218.636 189.054 218.107C188.15 217.579 187.407 216.306 187.407 215.25C187.407 214.193 188.15 213.773 189.054 214.302C189.959 214.83 190.702 216.117 190.702 217.159Z" fill="#173D7A"/>
<path d="M215.175 234.359L211.785 232.396C211.285 232.098 210.867 231.312 210.867 230.635V227.046C210.867 226.369 211.272 226.057 211.785 226.355L215.175 228.319C215.675 228.617 216.093 229.403 216.093 230.08V233.669C216.093 234.346 215.688 234.657 215.175 234.359Z" fill="#173D7A"/>
<path d="M220.064 268.963L148.605 227.588C147.011 226.667 145.714 224.175 145.714 222.035V208.369C145.714 206.23 147.011 205.254 148.605 206.175L220.064 247.551C221.658 248.472 222.954 250.964 222.954 253.104V266.769C222.968 268.909 221.671 269.884 220.064 268.963Z" fill="#5793CE"/>
<path opacity="0.4" d="M218.011 264.169L150.658 225.177C149.847 224.703 149.186 223.444 149.186 222.36V212.094C149.186 211.011 149.847 210.51 150.658 210.984L218.011 249.975C218.822 250.449 219.484 251.709 219.484 252.792V263.058C219.484 264.142 218.822 264.643 218.011 264.169Z" fill="#D4ECFF"/>
<path d="M164.704 228.116L154.655 222.292C153.872 221.832 153.224 220.613 153.224 219.556C153.224 218.5 153.858 218.012 154.655 218.473L164.704 224.297C165.487 224.757 166.135 225.976 166.135 227.032C166.122 228.089 165.487 228.563 164.704 228.116Z" fill="#D4ECFF"/>
<path d="M173.266 231.163C173.266 232.22 172.523 232.64 171.618 232.111C170.714 231.583 169.971 230.31 169.971 229.254C169.971 228.197 170.714 227.777 171.618 228.306C172.523 228.834 173.266 230.107 173.266 231.163Z" fill="white"/>
<path d="M179.074 234.522C179.074 235.579 178.331 235.998 177.426 235.47C176.521 234.942 175.778 233.669 175.778 232.613C175.778 231.556 176.521 231.136 177.426 231.664C178.331 232.193 179.074 233.479 179.074 234.522Z" fill="#173D7A"/>
<path d="M184.881 237.894C184.881 238.951 184.139 239.37 183.234 238.842C182.329 238.314 181.586 237.041 181.586 235.985C181.586 234.928 182.329 234.508 183.234 235.037C184.152 235.565 184.881 236.838 184.881 237.894Z" fill="#D4ECFF"/>
<path d="M190.702 241.253C190.702 242.31 189.959 242.729 189.054 242.201C188.15 241.673 187.407 240.4 187.407 239.343C187.407 238.287 188.15 237.867 189.054 238.395C189.959 238.924 190.702 240.21 190.702 241.253Z" fill="#173D7A"/>
<path d="M215.175 258.453L211.785 256.489C211.285 256.191 210.867 255.406 210.867 254.729V251.14C210.867 250.463 211.272 250.151 211.785 250.449L215.175 252.413C215.675 252.711 216.093 253.496 216.093 254.174V257.763C216.093 258.44 215.688 258.751 215.175 258.453Z" fill="#173D7A"/>
<path d="M220.064 293.057L148.605 251.682C147.011 250.761 145.714 248.269 145.714 246.129V232.464C145.714 230.324 147.011 229.349 148.605 230.27L220.064 271.645C221.658 272.566 222.954 275.058 222.954 277.198V290.863C222.968 293.003 221.671 293.978 220.064 293.057Z" fill="#5793CE"/>
<path opacity="0.4" d="M218.011 288.263L150.658 249.271C149.847 248.797 149.186 247.537 149.186 246.454V236.188C149.186 235.104 149.847 234.603 150.658 235.077L218.011 274.069C218.822 274.543 219.484 275.803 219.484 276.886V287.152C219.484 288.236 218.822 288.737 218.011 288.263Z" fill="#D4ECFF"/>
<path d="M164.704 252.21L154.655 246.386C153.872 245.925 153.224 244.707 153.224 243.65C153.224 242.594 153.858 242.106 154.655 242.567L164.704 248.39C165.487 248.851 166.135 250.07 166.135 251.126C166.122 252.183 165.487 252.657 164.704 252.21Z" fill="#D4ECFF"/>
<path d="M173.266 255.258C173.266 256.314 172.523 256.734 171.618 256.206C170.714 255.677 169.971 254.404 169.971 253.348C169.971 252.291 170.714 251.872 171.618 252.4C172.523 252.928 173.266 254.201 173.266 255.258Z" fill="#173D7A"/>
<path d="M179.074 258.616C179.074 259.672 178.331 260.092 177.426 259.564C176.521 259.036 175.778 257.763 175.778 256.706C175.778 255.65 176.521 255.23 177.426 255.758C178.331 256.286 179.074 257.573 179.074 258.616Z" fill="#173D7A"/>
<path d="M184.881 261.988C184.881 263.045 184.139 263.465 183.234 262.937C182.329 262.408 181.586 261.135 181.586 260.079C181.586 259.022 182.329 258.603 183.234 259.131C184.152 259.659 184.881 260.932 184.881 261.988Z" fill="#D4ECFF"/>
<path d="M190.702 265.347C190.702 266.404 189.959 266.824 189.054 266.295C188.15 265.767 187.407 264.494 187.407 263.438C187.407 262.381 188.15 261.961 189.054 262.49C189.959 263.018 190.702 264.305 190.702 265.347Z" fill="#173D7A"/>
<path d="M215.175 282.547L211.785 280.583C211.285 280.285 210.867 279.5 210.867 278.823V275.234C210.867 274.556 211.272 274.245 211.785 274.543L215.175 276.507C215.675 276.805 216.093 277.59 216.093 278.267V281.856C216.093 282.533 215.688 282.845 215.175 282.547Z" fill="#D4ECFF"/>
<path d="M220.064 317.151L148.605 275.776C147.011 274.855 145.714 272.363 145.714 270.223V256.557C145.714 254.418 147.011 253.442 148.605 254.363L220.064 295.739C221.658 296.66 222.954 299.152 222.954 301.292V314.957C222.968 317.097 221.671 318.072 220.064 317.151Z" fill="#5793CE"/>
<path opacity="0.4" d="M218.011 312.356L150.658 273.365C149.847 272.891 149.186 271.631 149.186 270.548V260.282C149.186 259.198 149.847 258.697 150.658 259.171L218.011 298.163C218.822 298.637 219.484 299.896 219.484 300.98V311.246C219.484 312.329 218.822 312.831 218.011 312.356Z" fill="#D4ECFF"/>
<path d="M164.704 276.304L154.655 270.48C153.872 270.02 153.224 268.801 153.224 267.744C153.224 266.688 153.858 266.2 154.655 266.661L164.704 272.485C165.487 272.945 166.135 274.164 166.135 275.22C166.122 276.277 165.487 276.751 164.704 276.304Z" fill="#D4ECFF"/>
<path d="M173.266 279.351C173.266 280.408 172.523 280.828 171.618 280.299C170.714 279.771 169.971 278.498 169.971 277.442C169.971 276.385 170.714 275.965 171.618 276.494C172.523 277.022 173.266 278.295 173.266 279.351Z" fill="#173D7A"/>
<path d="M179.074 282.71C179.074 283.767 178.331 284.186 177.426 283.658C176.521 283.13 175.778 281.857 175.778 280.801C175.778 279.744 176.521 279.324 177.426 279.852C178.331 280.381 179.074 281.667 179.074 282.71Z" fill="white"/>
<path d="M184.881 286.082C184.881 287.139 184.139 287.558 183.234 287.03C182.329 286.502 181.586 285.229 181.586 284.173C181.586 283.116 182.329 282.696 183.234 283.225C184.152 283.753 184.881 285.026 184.881 286.082Z" fill="#D4ECFF"/>
<path d="M190.702 289.441C190.702 290.497 189.959 290.917 189.054 290.389C188.15 289.861 187.407 288.588 187.407 287.531C187.407 286.475 188.15 286.055 189.054 286.583C189.959 287.112 190.702 288.398 190.702 289.441Z" fill="white"/>
<path d="M215.175 306.641L211.785 304.677C211.285 304.379 210.867 303.594 210.867 302.917V299.328C210.867 298.651 211.272 298.339 211.785 298.637L215.175 300.601C215.675 300.899 216.093 301.684 216.093 302.361V305.951C216.093 306.628 215.688 306.939 215.175 306.641Z" fill="#D4ECFF"/>
<path d="M220.064 341.245L148.605 299.869C147.011 298.948 145.714 296.456 145.714 294.317V280.651C145.714 278.511 147.011 277.536 148.605 278.457L220.064 319.833C221.658 320.753 222.954 323.246 222.954 325.385V339.051C222.968 341.191 221.671 342.166 220.064 341.245Z" fill="#5793CE"/>
<path opacity="0.4" d="M218.011 336.45L150.658 297.458C149.847 296.984 149.186 295.725 149.186 294.641V284.375C149.186 283.292 149.847 282.791 150.658 283.265L218.011 322.257C218.822 322.731 219.484 323.99 219.484 325.074V335.34C219.484 336.423 218.822 336.924 218.011 336.45Z" fill="#D4ECFF"/>
<path d="M164.704 300.398L154.655 294.574C153.872 294.113 153.224 292.895 153.224 291.838C153.224 290.782 153.858 290.294 154.655 290.755L164.704 296.578C165.487 297.039 166.135 298.258 166.135 299.314C166.122 300.371 165.487 300.845 164.704 300.398Z" fill="#D4ECFF"/>
<path d="M173.266 303.445C173.266 304.501 172.523 304.921 171.618 304.393C170.714 303.865 169.971 302.592 169.971 301.535C169.971 300.479 170.714 300.059 171.618 300.587C172.523 301.116 173.266 302.389 173.266 303.445Z" fill="#173D7A"/>
<path d="M179.074 306.804C179.074 307.86 178.331 308.28 177.426 307.752C176.521 307.224 175.778 305.951 175.778 304.894C175.778 303.838 176.521 303.418 177.426 303.946C178.331 304.474 179.074 305.761 179.074 306.804Z" fill="#173D7A"/>
<path d="M184.881 310.176C184.881 311.232 184.139 311.652 183.234 311.124C182.329 310.596 181.586 309.323 181.586 308.266C181.586 307.21 182.329 306.79 183.234 307.318C184.152 307.846 184.881 309.12 184.881 310.176Z" fill="#D4ECFF"/>
<path d="M190.702 313.535C190.702 314.591 189.959 315.011 189.054 314.483C188.15 313.955 187.407 312.682 187.407 311.625C187.407 310.569 188.15 310.149 189.054 310.677C189.959 311.205 190.702 312.492 190.702 313.535Z" fill="#173D7A"/>
<path d="M215.175 330.735L211.785 328.771C211.285 328.473 210.867 327.688 210.867 327.011V323.422C210.867 322.744 211.272 322.433 211.785 322.731L215.175 324.695C215.675 324.993 216.093 325.778 216.093 326.455V330.044C216.093 330.721 215.688 331.033 215.175 330.735Z" fill="#173D7A"/>
<path d="M220.064 365.339L148.605 323.963C147.011 323.042 145.714 320.55 145.714 318.41V304.745C145.714 302.605 147.011 301.63 148.605 302.551L220.064 343.926C221.658 344.847 222.954 347.339 222.954 349.479V363.145C222.968 365.284 221.671 366.26 220.064 365.339Z" fill="#5793CE"/>
<path opacity="0.4" d="M218.011 360.544L150.658 321.553C149.847 321.079 149.186 319.819 149.186 318.736V308.47C149.186 307.386 149.847 306.885 150.658 307.359L218.011 346.351C218.822 346.825 219.484 348.084 219.484 349.168V359.434C219.484 360.517 218.822 361.018 218.011 360.544Z" fill="#D4ECFF"/>
<path d="M164.704 324.491L154.655 318.668C153.872 318.207 153.224 316.988 153.224 315.932C153.224 314.876 153.858 314.388 154.655 314.848L164.704 320.672C165.487 321.133 166.135 322.352 166.135 323.408C166.122 324.464 165.487 324.938 164.704 324.491Z" fill="#D4ECFF"/>
<path d="M173.266 327.539C173.266 328.595 172.523 329.015 171.618 328.487C170.714 327.959 169.971 326.686 169.971 325.629C169.971 324.573 170.714 324.153 171.618 324.681C172.523 325.209 173.266 326.482 173.266 327.539Z" fill="white"/>
<path d="M179.074 330.898C179.074 331.954 178.331 332.374 177.426 331.846C176.521 331.317 175.778 330.044 175.778 328.988C175.778 327.932 176.521 327.512 177.426 328.04C178.331 328.568 179.074 329.855 179.074 330.898Z" fill="#173D7A"/>
<path d="M184.881 334.27C184.881 335.327 184.139 335.746 183.234 335.218C182.329 334.69 181.586 333.417 181.586 332.361C181.586 331.304 182.329 330.884 183.234 331.413C184.152 331.927 184.881 333.214 184.881 334.27Z" fill="#D4ECFF"/>
<path d="M190.702 337.629C190.702 338.685 189.959 339.105 189.054 338.577C188.15 338.048 187.407 336.775 187.407 335.719C187.407 334.663 188.15 334.243 189.054 334.771C189.959 335.299 190.702 336.586 190.702 337.629Z" fill="#173D7A"/>
<path d="M215.175 354.829L211.785 352.865C211.285 352.567 210.867 351.782 210.867 351.105V347.516C210.867 346.839 211.272 346.527 211.785 346.825L215.175 348.789C215.675 349.087 216.093 349.872 216.093 350.549V354.139C216.093 354.816 215.688 355.127 215.175 354.829Z" fill="#D4ECFF"/>
<path d="M199.279 145.866C198.684 145.866 198.198 145.379 198.198 144.783V100.252C198.198 99.656 198.684 99.1685 199.279 99.1685C199.873 99.1685 200.359 99.656 200.359 100.252V144.797C200.359 145.392 199.873 145.866 199.279 145.866Z" fill="#5793CE"/>
<path d="M203.142 97.4482H195.43V114.147H203.142V97.4482Z" fill="#5793CE"/>
<path d="M202.007 115.718C200.494 116.585 198.063 116.585 196.551 115.718C195.038 114.852 195.038 113.429 196.551 112.563C198.063 111.696 200.494 111.696 202.007 112.563C203.52 113.443 203.52 114.852 202.007 115.718Z" fill="#5793CE"/>
<path d="M205.532 74.167H193.025V100.36H205.532V74.167Z" fill="#5793CE"/>
<path d="M195.43 100.198V105.845C197.699 106.888 200.886 106.888 203.142 105.845V100.198C200.873 99.1548 197.685 99.1548 195.43 100.198Z" fill="#396CAA"/>
<path d="M203.709 102.92C201.264 104.329 197.307 104.329 194.862 102.92C192.418 101.511 192.418 99.2091 194.862 97.8005C197.307 96.392 201.264 96.392 203.709 97.8005C206.14 99.2226 206.14 101.511 203.709 102.92Z" fill="#5793CE"/>
<path d="M209.827 152.191C209.232 152.191 208.746 151.703 208.746 151.108V106.563C208.746 105.967 209.232 105.479 209.827 105.479C210.421 105.479 210.907 105.967 210.907 106.563V151.108C210.907 151.703 210.421 152.191 209.827 152.191Z" fill="#5793CE"/>
<path d="M213.676 103.76H205.964V120.459H213.676V103.76Z" fill="#5793CE"/>
<path d="M212.555 122.043C211.042 122.91 208.611 122.91 207.098 122.043C205.586 121.176 205.586 119.754 207.098 118.887C208.611 118.021 211.042 118.021 212.555 118.887C214.067 119.754 214.067 121.163 212.555 122.043Z" fill="#5793CE"/>
<path d="M216.08 80.4917H203.574V106.685H216.08V80.4917Z" fill="#5793CE"/>
<path d="M205.964 106.509V112.156C208.233 113.199 211.42 113.199 213.676 112.156V106.509C211.42 105.466 208.233 105.466 205.964 106.509Z" fill="#396CAA"/>
<path d="M214.243 109.231C211.799 110.64 207.841 110.64 205.397 109.231C202.952 107.822 202.952 105.52 205.397 104.112C207.841 102.703 211.799 102.703 214.243 104.112C216.688 105.534 216.688 107.822 214.243 109.231Z" fill="#5793CE"/>
<path d="M220.375 158.503C219.781 158.503 219.294 158.015 219.294 157.419V112.874C219.294 112.279 219.781 111.791 220.375 111.791C220.969 111.791 221.455 112.279 221.455 112.874V157.419C221.455 158.015 220.969 158.503 220.375 158.503Z" fill="#5793CE"/>
<path d="M224.224 110.071H216.512V126.77H224.224V110.071Z" fill="#5793CE"/>
<path d="M223.103 128.355C221.59 129.221 219.159 129.221 217.647 128.355C216.134 127.488 216.134 126.066 217.647 125.199C219.159 124.332 221.59 124.332 223.103 125.199C224.602 126.066 224.602 127.488 223.103 128.355Z" fill="#5793CE"/>
<path d="M226.628 86.8027H214.122V112.996H226.628V86.8027Z" fill="#5793CE"/>
<path d="M216.512 112.82V118.467C218.781 119.51 221.969 119.51 224.224 118.467V112.82C221.969 111.791 218.781 111.791 216.512 112.82Z" fill="#396CAA"/>
<path d="M224.791 115.556C222.347 116.964 218.389 116.964 215.945 115.556C213.5 114.147 213.5 111.845 215.945 110.436C218.389 109.028 222.347 109.028 224.791 110.436C227.236 111.845 227.236 114.134 224.791 115.556Z" fill="#5793CE"/>
<path d="M230.923 164.814C230.329 164.814 229.842 164.326 229.842 163.73V119.186C229.842 118.59 230.329 118.102 230.923 118.102C231.517 118.102 232.003 118.59 232.003 119.186V163.73C232.003 164.326 231.517 164.814 230.923 164.814Z" fill="#5793CE"/>
<path d="M234.772 116.396H227.061V133.095H234.772V116.396Z" fill="#5793CE"/>
<path d="M233.651 134.666C232.139 135.532 229.708 135.532 228.195 134.666C226.682 133.799 226.682 132.377 228.195 131.51C229.708 130.643 232.139 130.643 233.651 131.51C235.151 132.377 235.151 133.799 233.651 134.666Z" fill="#5793CE"/>
<path d="M237.176 93.1143H224.67V119.307H237.176V93.1143Z" fill="#5793CE"/>
<path d="M227.061 119.131V124.779C229.33 125.822 232.517 125.822 234.772 124.779V119.131C232.517 118.102 229.33 118.102 227.061 119.131Z" fill="#396CAA"/>
<path d="M235.339 121.867C232.895 123.276 228.938 123.276 226.493 121.867C224.049 120.459 224.049 118.156 226.493 116.748C228.938 115.339 232.895 115.339 235.339 116.748C237.784 118.156 237.784 120.459 235.339 121.867Z" fill="#5793CE"/>
<path d="M279.936 141.004L296.696 131.104L280.733 111.114L276.532 117.994L279.936 141.004Z" fill="#5793CE"/>
<path d="M158.194 31.3156L184.949 15.876C184.949 15.876 183.936 31.2885 183.936 31.3156C183.936 31.3427 168.566 36.0964 168.566 36.0964L158.194 31.3156Z" fill="#5793CE"/>
<path d="M284.595 90.7442C282.556 89.5659 280.611 88.8752 278.801 88.5908C276.1 74.3701 266.241 59.2691 254.477 52.4567C250.938 50.4116 247.575 49.3146 244.523 49.0843C242.916 31.857 230.963 12.2595 216.458 3.86256C208.881 -0.525538 202.007 -1.04019 196.928 1.64142V1.62788L196.685 1.76331C196.55 1.83103 196.429 1.91229 196.294 1.98001L180.519 11.325L185.759 15.4829C181.045 17.5415 178.074 22.837 178.074 30.6652C178.074 45.089 188.177 62.6414 200.643 69.8601L284.595 129.98C293.955 135.397 301.531 131.009 301.531 120.174C301.531 109.339 293.941 96.1616 284.595 90.7442Z" fill="#5793CE"/>
<path d="M178.844 24.3268L215.053 3.10415C208.017 -0.566141 201.669 -0.877642 196.902 1.64145V1.62791L196.658 1.76334C196.523 1.83106 196.402 1.91232 196.267 1.98004L180.492 11.3251L185.732 15.4829C182.464 16.9321 180.019 19.9658 178.844 24.3268Z" fill="#5793CE"/>
<path d="M245.725 86.7488L272.156 71.2009C267.618 63.3456 261.378 56.4791 254.477 52.4702C253.559 51.942 252.654 51.4815 251.776 51.0752L218.16 70.781L245.725 86.7488Z" fill="#5793CE"/>
<path d="M187.947 13.0721L199.724 19.8845L221.293 7.15361C219.713 5.92115 218.106 4.82413 216.445 3.86254C213.838 2.34567 211.312 1.30282 208.908 0.693359L187.947 13.0721Z" fill="#D4ECFF"/>
<path d="M269.239 66.6235L248.143 79.0836L255.476 87.2909L274.628 75.955C273.115 72.691 271.292 69.5489 269.239 66.6235Z" fill="#D4ECFF"/>
<path d="M268.023 100.536C265.984 99.358 264.039 98.6672 262.229 98.3828C259.528 84.1621 249.669 69.0611 237.905 62.2487C234.367 60.2037 231.004 59.1066 227.951 58.8764C226.344 41.6491 214.392 22.0516 199.886 13.6546C184.287 4.6211 171.632 11.9481 171.632 30.0152C171.632 30.6246 171.646 31.2476 171.673 31.8706C160.26 26.5616 151.346 32.5478 151.346 46.1049C151.346 60.5287 161.449 78.0811 173.915 85.2998L268.023 139.785C277.383 145.203 284.973 140.815 284.973 129.98C284.973 119.131 277.383 105.954 268.023 100.536Z" fill="#D4ECFF"/>
<path d="M171.672 31.8569C171.645 31.2339 171.632 30.6109 171.632 30.0014C171.632 29.9743 171.632 29.9472 171.632 29.9201C165.325 27.4552 159.909 28.5252 156.505 32.4799C160.206 29.4461 165.568 29.0263 171.672 31.8569Z" fill="white"/>
<path d="M269.401 99.1817C267.362 98.0034 265.417 97.3127 263.607 97.0282C260.906 82.8076 251.047 67.7065 239.283 60.8942C235.744 58.8491 232.381 57.7521 229.329 57.5218C227.722 40.2945 215.769 20.697 201.264 12.3C191.54 6.66594 182.963 7.39729 177.885 13.1127C183.058 8.67038 190.999 8.50786 199.886 13.6544C214.392 22.0514 226.344 41.6353 227.952 58.8762C231.004 59.1064 234.367 60.2034 237.905 62.2485C249.669 69.0609 259.542 84.1619 262.229 98.3826C264.039 98.667 265.984 99.3577 268.023 100.536C277.383 105.953 284.973 119.131 284.973 129.966C284.973 133.88 283.974 136.927 282.272 139C284.811 137.036 286.351 133.487 286.351 128.612C286.351 117.777 278.761 104.599 269.401 99.1817Z" fill="white"/>
<path d="M169.687 36.1639L176.764 39.4549L176.4 31.6403C176.373 31.0986 176.359 30.5433 176.359 30.0016C176.359 23.0267 178.453 17.9749 182.275 15.7673C186.083 13.5597 191.499 14.264 197.523 17.7582C210.475 25.2613 221.766 43.5044 223.252 59.3097L223.63 63.2915L227.6 63.603C230.045 63.7926 232.719 64.7136 235.555 66.3659C245.847 72.325 255.112 86.1665 257.597 99.2766L258.218 102.554L261.514 103.069C262.824 103.272 264.228 103.8 265.674 104.64C273.574 109.218 280.246 120.811 280.246 129.953C280.246 133.379 279.301 135.885 277.653 136.846C276.006 137.794 273.358 137.375 270.401 135.654L176.292 81.1689C165.338 74.8306 156.087 58.768 156.087 46.0913C156.087 41.1208 157.546 37.3286 160.098 35.6898C161.152 35.0127 162.421 34.6876 163.853 34.6876C165.582 34.6876 167.567 35.1752 169.687 36.1639Z" fill="#396CAA"/>
<path d="M216.661 95.322L219.132 94.0625L216.688 92.207L216.661 95.322Z" fill="#5793CE"/>
<path d="M209.192 61.6799L211.609 60.4609L211.65 61.734L209.192 61.6799Z" fill="#5793CE"/>
<path d="M223.738 87.4531L226.25 86.18L221.415 81.5752L223.738 87.4531Z" fill="#5793CE"/>
<path d="M218.417 93.9813L206.666 87.0335C206.072 86.6814 205.586 85.7875 205.586 85.0562L205.626 71.4043L219.537 79.6252L219.497 93.2771C219.497 94.022 219.011 94.3335 218.417 93.9813Z" fill="#5793CE"/>
<path d="M211.582 60.4745L198.887 68.6683C198.347 69.0204 198.779 70.307 199.603 70.7946L212.568 78.4467L225.534 86.0988C226.358 86.5863 226.79 85.8008 226.263 84.8257L213.662 61.6934C213.109 60.7047 212.136 60.1223 211.582 60.4745Z" fill="#5793CE"/>
<path d="M215.891 95.2543L204.141 88.3065C203.547 87.9543 203.061 87.0605 203.061 86.3291L203.101 72.6772L217.012 80.8982L216.972 94.55C216.972 95.2949 216.485 95.6064 215.891 95.2543Z" fill="#D4ECFF"/>
<path d="M209.057 61.7479L196.361 69.9417C195.821 70.2939 196.253 71.5805 197.077 72.0681L210.043 79.7201L223.009 87.3722C223.832 87.8598 224.265 87.0743 223.738 86.0991L211.137 62.9668C210.583 61.9781 209.611 61.3958 209.057 61.7479Z" fill="#D4ECFF"/>
<path d="M258.353 337.209H256.908V256.531L266.403 251.032V211.322H267.848V251.858L258.353 257.357V337.209Z" fill="white"/>
<path d="M29.969 354.64C29.1317 354.64 28.2943 354.423 27.538 353.99L1.28257 339.078C0.485723 338.631 -0.000488281 337.819 -0.000488281 336.898C-0.000488281 335.977 0.472217 335.151 1.25556 334.704L66.732 296.728C70.4866 294.547 75.1597 294.547 78.9143 296.728L153.764 340.108L152.683 341.977L77.8473 298.597C74.7545 296.809 70.9188 296.809 67.826 298.597L2.33603 336.573C2.17396 336.667 2.16045 336.816 2.16045 336.884C2.16045 336.965 2.18746 337.114 2.34953 337.196L28.6049 352.107C29.5098 352.622 30.6038 352.595 31.4817 352.026L42.57 344.834L43.745 346.649L32.6567 353.841C31.8328 354.369 30.9009 354.64 29.969 354.64Z" fill="#B2D3EA"/>
<path d="M64.1526 360.395L28.8618 339.958C26.7008 338.699 26.9709 336.518 29.4695 335.069L63.5448 315.336C66.0434 313.887 69.8251 313.725 71.9995 314.984L107.29 335.421C109.451 336.681 109.181 338.861 106.683 340.31L72.6073 360.043C70.0952 361.493 66.3135 361.641 64.1526 360.395Z" fill="#B2D3EA"/>
<path d="M118.986 319.86V304.569L84.8029 304.555L72.9852 297.716C70.2706 296.145 65.53 296.348 62.4101 298.149L51.3894 304.528L17.1655 304.515V320.239C17.0845 321.295 17.6787 322.324 18.9888 323.083L63.18 348.667C65.8947 350.238 70.6352 350.034 73.7551 348.233L116.42 323.53C118.216 322.473 119.081 321.119 118.986 319.86Z" fill="#396CAA"/>
<path d="M68.0694 296.66C66.0841 296.714 64.0312 297.215 62.397 298.149L51.3762 304.528L17.1523 304.515V320.239C17.0713 321.295 17.6655 322.325 18.9756 323.083L63.1668 348.667C64.4634 349.425 66.2461 349.764 68.0829 349.723V296.66H68.0694Z" fill="#396CAA"/>
<path d="M21.0285 304.515H17.1523V320.239C17.0713 321.295 17.6655 322.324 18.9756 323.083L21.0285 324.275V304.515Z" fill="#5793CE"/>
<path d="M63.8418 349.005C66.1783 350.007 69.5683 349.953 72.2965 348.91V331.06H63.8418V349.005Z" fill="#5793CE"/>
<path d="M63.1531 332.997L18.9619 307.413C16.2473 305.842 16.5849 303.106 19.7183 301.291L62.3833 276.588C65.5167 274.773 70.2572 274.584 72.9584 276.155L117.15 301.738C119.864 303.309 119.527 306.045 116.393 307.86L73.7417 332.563C70.6084 334.365 65.8678 334.568 63.1531 332.997Z" fill="#D4ECFF"/>
<path d="M63.95 328.392L26.917 306.952C24.648 305.639 24.9316 303.336 27.5517 301.819L63.3018 281.111C65.9219 279.595 69.8926 279.432 72.1751 280.746L109.208 302.185C111.477 303.499 111.194 305.801 108.573 307.318L72.8234 328.026C70.1898 329.543 66.2325 329.706 63.95 328.392Z" fill="#5793CE"/>
<path d="M102.725 323.896C102.725 325.033 101.928 326.428 100.942 326.997C99.9565 327.566 99.1597 327.105 99.1597 325.968C99.1597 324.83 99.9565 323.435 100.942 322.866C101.928 322.298 102.725 322.758 102.725 323.896Z" fill="#D4ECFF"/>
<path d="M108.479 320.577C108.479 321.715 107.682 323.11 106.696 323.679C105.71 324.248 104.913 323.787 104.913 322.65C104.913 321.512 105.71 320.117 106.696 319.548C107.668 318.966 108.479 319.426 108.479 320.577Z" fill="#D4ECFF"/>
<path d="M114.219 317.246C114.219 318.383 113.422 319.778 112.436 320.347C111.45 320.916 110.653 320.456 110.653 319.318C110.653 318.18 111.45 316.785 112.436 316.216C113.422 315.648 114.219 316.108 114.219 317.246Z" fill="#D4ECFF"/>
<path d="M118.987 295.427V280.137L84.8032 280.123L72.9856 273.284C70.2709 271.713 65.5303 271.916 62.4105 273.717L51.3897 280.096L17.1523 280.083V295.807C17.0713 296.863 17.6655 297.892 18.9756 298.651L63.1668 324.234C65.8815 325.806 70.622 325.602 73.7419 323.801L116.407 299.098C118.217 298.041 119.081 296.687 118.987 295.427Z" fill="#396CAA"/>
<path d="M68.0694 272.227C66.0841 272.281 64.0312 272.782 62.397 273.717L51.3762 280.096L17.1523 280.082V295.806C17.0713 296.863 17.6655 297.892 18.9756 298.65L63.1668 324.234C64.4634 324.993 66.2461 325.331 68.0829 325.291V272.227H68.0694Z" fill="#396CAA"/>
<path d="M21.0285 280.082H17.1523V295.806C17.0713 296.862 17.6655 297.892 18.9756 298.65L21.0285 299.842V280.082Z" fill="#5793CE"/>
<path d="M63.8418 324.573C66.1783 325.575 69.5683 325.521 72.2965 324.478V306.628H63.8418V324.573Z" fill="#5793CE"/>
<path d="M63.1531 308.564L18.9619 282.98C16.2473 281.409 16.5849 278.674 19.7183 276.859L62.3833 252.155C65.5167 250.341 70.2572 250.151 72.9584 251.722L117.15 277.306C119.864 278.877 119.527 281.612 116.393 283.427L73.7417 308.131C70.6084 309.932 65.8678 310.135 63.1531 308.564Z" fill="#D4ECFF"/>
<path d="M63.95 303.96L26.917 282.52C24.648 281.207 24.9316 278.904 27.5517 277.387L63.3018 256.679C65.9219 255.162 69.8926 255 72.1751 256.314L109.208 277.753C111.477 279.067 111.194 281.369 108.573 282.886L72.8234 303.594C70.1898 305.111 66.2325 305.273 63.95 303.96Z" fill="#5793CE"/>
<path d="M102.725 299.463C102.725 300.601 101.928 301.996 100.942 302.564C99.9565 303.133 99.1597 302.673 99.1597 301.535C99.1597 300.398 99.9565 299.003 100.942 298.434C101.928 297.865 102.725 298.325 102.725 299.463Z" fill="#D4ECFF"/>
<path d="M108.479 296.131C108.479 297.269 107.682 298.664 106.696 299.233C105.71 299.802 104.913 299.341 104.913 298.204C104.913 297.066 105.71 295.671 106.696 295.102C107.668 294.533 108.479 294.994 108.479 296.131Z" fill="#D4ECFF"/>
<path d="M114.219 292.813C114.219 293.951 113.422 295.346 112.436 295.915C111.45 296.483 110.653 296.023 110.653 294.885C110.653 293.748 111.45 292.353 112.436 291.784C113.422 291.215 114.219 291.675 114.219 292.813Z" fill="#D4ECFF"/>
<path d="M118.986 270.995V255.704L84.8029 255.691L72.9852 248.851C70.2706 247.28 65.53 247.483 62.4101 249.285L51.3894 255.664L17.1655 255.65V271.374C17.0845 272.43 17.6787 273.46 18.9888 274.218L63.18 299.802C65.8947 301.373 70.6352 301.17 73.7551 299.368L116.42 274.665C118.216 273.609 119.081 272.254 118.986 270.995Z" fill="#396CAA"/>
<path d="M68.0694 247.795C66.0841 247.849 64.0312 248.35 62.397 249.285L51.3762 255.664L17.1523 255.65V271.374C17.0713 272.431 17.6655 273.46 18.9756 274.218L63.1668 299.802C64.4634 300.56 66.2461 300.899 68.0829 300.858V247.795H68.0694Z" fill="#396CAA"/>
<path d="M21.0285 255.65H17.1523V271.374C17.0713 272.43 17.6655 273.46 18.9756 274.218L21.0285 275.41V255.65Z" fill="#5793CE"/>
<path d="M63.8418 300.127C66.1783 301.129 69.5683 301.075 72.2965 300.032V282.182H63.8418V300.127Z" fill="#5793CE"/>
<path d="M63.1531 284.132L18.9619 258.548C16.2473 256.977 16.5849 254.241 19.7183 252.427L62.3833 227.723C65.5167 225.908 70.2572 225.719 72.9584 227.29L117.15 252.873C119.864 254.445 119.527 257.18 116.393 258.995L73.7417 283.685C70.6084 285.5 65.8678 285.703 63.1531 284.132Z" fill="#D4ECFF"/>
<path d="M116.407 255.975L73.7418 280.678C70.6085 282.493 65.8679 282.683 63.1667 281.112L18.9755 255.528C18.3678 255.176 17.9221 254.77 17.6249 254.323C16.693 255.826 17.1117 257.451 18.9755 258.535L63.1667 284.118C65.8814 285.69 70.622 285.486 73.7418 283.685L116.407 258.982C118.838 257.573 119.581 255.609 118.514 254.065C118.095 254.756 117.393 255.406 116.407 255.975Z" fill="white"/>
<path d="M102.725 275.031C102.725 276.168 101.928 277.563 100.942 278.132C99.9565 278.701 99.1597 278.24 99.1597 277.103C99.1597 275.965 99.9565 274.57 100.942 274.001C101.928 273.419 102.725 273.893 102.725 275.031Z" fill="#D4ECFF"/>
<path d="M108.479 271.699C108.479 272.837 107.682 274.231 106.696 274.8C105.71 275.369 104.913 274.909 104.913 273.771C104.913 272.633 105.71 271.238 106.696 270.67C107.668 270.101 108.479 270.561 108.479 271.699Z" fill="#D4ECFF"/>
<path d="M114.219 268.381C114.219 269.518 113.422 270.913 112.436 271.482C111.45 272.051 110.653 271.59 110.653 270.453C110.653 269.315 111.45 267.92 112.436 267.351C113.422 266.769 114.219 267.243 114.219 268.381Z" fill="#D4ECFF"/>
<path d="M65.7733 268.273L45.0958 256.3C43.8262 255.569 43.9883 254.282 45.4469 253.429L65.4086 241.863C66.8673 241.009 69.0957 240.928 70.3653 241.66L91.0428 253.632C92.3123 254.363 92.1502 255.65 90.6916 256.503L70.7299 268.069C69.2578 268.909 67.0428 269.004 65.7733 268.273Z" fill="#5793CE"/>
<path d="M67.7453 258.25L64.882 256.598C64.7065 256.489 64.7335 256.313 64.9361 256.205L67.7048 254.607C67.9074 254.485 68.218 254.471 68.3936 254.58L71.2568 256.232C71.4324 256.327 71.4054 256.517 71.2028 256.625L68.4341 258.223C68.2315 258.331 67.9209 258.345 67.7453 258.25Z" fill="#D4ECFF"/>
<path d="M45.0958 256.3L45.1498 256.327C45.2444 256.259 45.3389 256.191 45.4469 256.124L65.4086 244.558C66.8672 243.704 69.0957 243.623 70.3653 244.354L90.9887 256.286C92.1637 255.447 92.2178 254.309 91.0428 253.618L70.3653 241.646C69.0957 240.914 66.8808 241.009 65.4086 241.849L45.4469 253.415C43.9883 254.282 43.8262 255.568 45.0958 256.3Z" fill="#396CAA"/>
<path d="M60.303 288.601C60.303 289.373 59.7627 289.685 59.1009 289.292C58.4392 288.913 57.8989 287.978 57.8989 287.206C57.8989 286.434 58.4392 286.123 59.1009 286.516C59.7762 286.895 60.303 287.829 60.303 288.601Z" fill="#D4ECFF"/>
<path d="M56.5891 286.461C56.5891 287.233 56.0489 287.545 55.3871 287.152C54.7253 286.773 54.1851 285.838 54.1851 285.066C54.1851 284.294 54.7253 283.983 55.3871 284.376C56.0489 284.755 56.5891 285.689 56.5891 286.461Z" fill="#D4ECFF"/>
<path d="M60.303 293.111C60.303 293.883 59.7627 294.195 59.1009 293.802C58.4392 293.423 57.8989 292.488 57.8989 291.716C57.8989 290.944 58.4392 290.633 59.1009 291.025C59.7762 291.405 60.303 292.339 60.303 293.111Z" fill="#D4ECFF"/>
<path d="M56.5891 290.971C56.5891 291.743 56.0489 292.055 55.3871 291.662C54.7253 291.283 54.1851 290.348 54.1851 289.577C54.1851 288.805 54.7253 288.493 55.3871 288.886C56.0489 289.265 56.5891 290.2 56.5891 290.971Z" fill="#D4ECFF"/>
<path d="M60.303 312.912C60.303 313.684 59.7627 313.995 59.1009 313.603C58.4392 313.223 57.8989 312.289 57.8989 311.517C57.8989 310.745 58.4392 310.433 59.1009 310.826C59.7762 311.205 60.303 312.14 60.303 312.912Z" fill="#D4ECFF"/>
<path d="M56.5891 310.772C56.5891 311.544 56.0489 311.856 55.3871 311.463C54.7253 311.084 54.1851 310.149 54.1851 309.377C54.1851 308.605 54.7253 308.294 55.3871 308.687C56.0489 309.066 56.5891 310 56.5891 310.772Z" fill="#D4ECFF"/>
<path d="M60.303 317.422C60.303 318.194 59.7627 318.505 59.1009 318.112C58.4392 317.733 57.8989 316.799 57.8989 316.027C57.8989 315.255 58.4392 314.943 59.1009 315.336C59.7762 315.715 60.303 316.65 60.303 317.422Z" fill="#D4ECFF"/>
<path d="M56.5891 315.282C56.5891 316.054 56.0489 316.366 55.3871 315.973C54.7253 315.594 54.1851 314.659 54.1851 313.887C54.1851 313.115 54.7253 312.804 55.3871 313.196C56.0489 313.576 56.5891 314.51 56.5891 315.282Z" fill="#D4ECFF"/>
<path d="M60.303 337.222C60.303 337.994 59.7627 338.306 59.1009 337.913C58.4392 337.534 57.8989 336.599 57.8989 335.828C57.8989 335.056 58.4392 334.744 59.1009 335.137C59.7762 335.516 60.303 336.451 60.303 337.222Z" fill="#D4ECFF"/>
<path d="M56.5891 335.083C56.5891 335.855 56.0489 336.166 55.3871 335.774C54.7253 335.394 54.1851 334.46 54.1851 333.688C54.1851 332.916 54.7253 332.604 55.3871 332.997C56.0489 333.376 56.5891 334.311 56.5891 335.083Z" fill="#D4ECFF"/>
<path d="M60.303 341.732C60.303 342.504 59.7627 342.816 59.1009 342.423C58.4392 342.044 57.8989 341.109 57.8989 340.337C57.8989 339.565 58.4392 339.254 59.1009 339.647C59.7762 340.026 60.303 340.96 60.303 341.732Z" fill="#D4ECFF"/>
<path d="M56.5891 339.593C56.5891 340.365 56.0489 340.676 55.3871 340.283C54.7253 339.904 54.1851 338.97 54.1851 338.198C54.1851 337.426 54.7253 337.114 55.3871 337.507C56.0489 337.886 56.5891 338.821 56.5891 339.593Z" fill="#D4ECFF"/>
<path d="M68.6362 378.571C67.3667 378.571 66.1106 378.246 64.9761 377.582L42.705 364.621C41.9486 364.174 41.5029 363.389 41.5029 362.522C41.5029 361.655 41.9621 360.856 42.7185 360.423L57.3588 351.904L58.4393 353.773L43.7989 362.292C43.6909 362.359 43.6639 362.454 43.6639 362.522C43.6639 362.59 43.6909 362.684 43.7989 362.752L66.0701 375.713C67.6368 376.621 69.5951 376.634 71.1753 375.727L114.786 350.807C117.028 349.52 119.81 349.534 122.052 350.834L158.585 371.989C160.165 372.91 162.137 372.923 163.731 372.002L181.343 361.79L182.423 363.659L164.812 373.871C162.556 375.185 159.76 375.171 157.505 373.858L120.971 352.703C119.391 351.782 117.433 351.782 115.853 352.676L72.2423 377.596C71.1348 378.259 69.8923 378.571 68.6362 378.571Z" fill="#B2D3EA"/>
<path d="M262.081 461.024L226.79 440.587C224.629 439.327 224.899 437.147 227.398 435.698L261.473 415.965C263.972 414.516 267.753 414.353 269.928 415.613L305.219 436.05C307.38 437.309 307.109 439.49 304.611 440.939L270.535 460.672C268.023 462.121 264.242 462.27 262.081 461.024Z" fill="#B2D3EA"/>
<path d="M316.915 420.488V405.197L282.732 405.184L270.914 398.344C268.199 396.773 263.459 396.976 260.339 398.778L249.318 405.157L215.094 405.143V420.867C215.013 421.924 215.607 422.953 216.917 423.711L261.109 449.295C263.823 450.866 268.564 450.663 271.684 448.862L314.349 424.158C316.145 423.102 317.023 421.748 316.915 420.488Z" fill="#396CAA"/>
<path d="M265.998 397.288C264.012 397.342 261.959 397.843 260.325 398.778L249.304 405.157L215.081 405.143V420.867C214.999 421.924 215.594 422.953 216.904 423.711L261.095 449.295C262.392 450.054 264.174 450.392 266.011 450.352V397.288H265.998Z" fill="#396CAA"/>
<path d="M218.957 405.143H215.081V420.867C214.999 421.923 215.594 422.953 216.904 423.711L218.957 424.903V405.143Z" fill="#5793CE"/>
<path d="M261.771 449.634C264.107 450.636 267.497 450.582 270.225 449.539V431.688H261.771V449.634Z" fill="#5793CE"/>
<path d="M261.095 433.625L216.904 408.041C214.189 406.47 214.527 403.735 217.66 401.92L260.325 377.216C263.459 375.402 268.199 375.212 270.9 376.783L315.092 402.367C317.806 403.938 317.469 406.673 314.335 408.488L271.67 433.192C268.537 434.993 263.81 435.196 261.095 433.625Z" fill="#D4ECFF"/>
<path d="M261.892 429.02L224.859 407.581C222.59 406.267 222.873 403.965 225.494 402.448L261.244 381.74C263.864 380.223 267.835 380.06 270.117 381.374L307.15 402.814C309.419 404.127 309.135 406.43 306.515 407.947L270.765 428.655C268.132 430.171 264.161 430.334 261.892 429.02Z" fill="#5793CE"/>
<path d="M300.667 424.524C300.667 425.662 299.87 427.057 298.884 427.626C297.898 428.194 297.102 427.734 297.102 426.596C297.102 425.459 297.898 424.064 298.884 423.495C299.87 422.926 300.667 423.386 300.667 424.524Z" fill="#D4ECFF"/>
<path d="M306.407 421.192C306.407 422.33 305.611 423.725 304.625 424.293C303.639 424.862 302.842 424.402 302.842 423.264C302.842 422.127 303.639 420.732 304.625 420.163C305.611 419.594 306.407 420.054 306.407 421.192Z" fill="#D4ECFF"/>
<path d="M312.147 417.874C312.147 419.012 311.35 420.407 310.364 420.976C309.378 421.544 308.582 421.084 308.582 419.946C308.582 418.809 309.378 417.414 310.364 416.845C311.35 416.276 312.147 416.737 312.147 417.874Z" fill="#D4ECFF"/>
<path d="M316.915 396.056V380.765L282.732 380.752L270.914 373.912C268.199 372.341 263.459 372.544 260.339 374.346L249.318 380.725L215.094 380.711V396.435C215.013 397.491 215.607 398.521 216.917 399.279L261.109 424.863C263.823 426.434 268.564 426.231 271.684 424.429L314.349 399.726C316.145 398.67 317.023 397.315 316.915 396.056Z" fill="#396CAA"/>
<path d="M265.998 372.855C264.012 372.91 261.959 373.411 260.325 374.345L249.304 380.724L215.081 380.711V396.435C214.999 397.491 215.594 398.52 216.904 399.279L261.095 424.863C262.392 425.621 264.174 425.96 266.011 425.919V372.855H265.998Z" fill="#396CAA"/>
<path d="M218.957 380.711H215.081V396.435C214.999 397.491 215.594 398.521 216.904 399.279L218.957 400.471V380.711Z" fill="#5793CE"/>
<path d="M261.771 425.188C264.107 426.19 267.497 426.136 270.225 425.093V407.243H261.771V425.188Z" fill="#5793CE"/>
<path d="M261.095 409.193L216.904 383.609C214.189 382.038 214.527 379.302 217.66 377.488L260.325 352.784C263.459 350.969 268.199 350.78 270.9 352.351L315.092 377.935C317.806 379.506 317.469 382.241 314.335 384.056L271.67 408.76C268.537 410.561 263.81 410.764 261.095 409.193Z" fill="#D4ECFF"/>
<path d="M261.892 404.588L224.859 383.149C222.59 381.835 222.873 379.533 225.494 378.016L261.244 357.308C263.864 355.791 267.835 355.628 270.117 356.942L307.15 378.381C309.419 379.695 309.135 381.998 306.515 383.514L270.765 404.222C268.132 405.739 264.161 405.902 261.892 404.588Z" fill="#5793CE"/>
<path d="M300.667 400.092C300.667 401.229 299.87 402.624 298.884 403.193C297.898 403.762 297.102 403.301 297.102 402.164C297.102 401.026 297.898 399.631 298.884 399.062C299.87 398.48 300.667 398.954 300.667 400.092Z" fill="#D4ECFF"/>
<path d="M306.407 396.76C306.407 397.898 305.611 399.292 304.625 399.861C303.639 400.43 302.842 399.97 302.842 398.832C302.842 397.694 303.639 396.299 304.625 395.731C305.611 395.162 306.407 395.622 306.407 396.76Z" fill="#D4ECFF"/>
<path d="M312.147 393.442C312.147 394.579 311.35 395.974 310.364 396.543C309.378 397.112 308.582 396.651 308.582 395.514C308.582 394.376 309.378 392.981 310.364 392.412C311.35 391.83 312.147 392.304 312.147 393.442Z" fill="#D4ECFF"/>
<path d="M316.915 371.623V356.333L282.732 356.319L270.914 349.48C268.199 347.909 263.459 348.112 260.339 349.913L249.318 356.292L215.094 356.278V372.002C215.013 373.059 215.607 374.088 216.917 374.847L261.109 400.43C263.823 402.001 268.564 401.798 271.684 399.997L314.349 375.294C316.145 374.237 317.023 372.883 316.915 371.623Z" fill="#396CAA"/>
<path d="M265.998 348.423C264.012 348.477 261.959 348.978 260.325 349.913L249.304 356.292L215.081 356.278V372.002C214.999 373.058 215.594 374.088 216.904 374.846L261.095 400.43C262.392 401.188 264.174 401.527 266.011 401.486V348.423H265.998Z" fill="#396CAA"/>
<path d="M218.957 356.278H215.081V372.002C214.999 373.059 215.594 374.088 216.904 374.846L218.957 376.038V356.278Z" fill="#5793CE"/>
<path d="M261.771 400.755C264.107 401.757 267.497 401.703 270.225 400.66V382.81H261.771V400.755Z" fill="#5793CE"/>
<path d="M261.095 384.76L216.904 359.177C214.189 357.606 214.527 354.87 217.66 353.055L260.325 328.352C263.459 326.537 268.199 326.347 270.9 327.918L315.105 353.488C317.82 355.059 317.482 357.795 314.349 359.61L271.684 384.313C268.537 386.128 263.81 386.331 261.095 384.76Z" fill="#D4ECFF"/>
<path d="M314.335 356.603L271.67 381.307C268.537 383.122 263.796 383.311 261.095 381.74L216.904 356.157C216.296 355.804 215.85 355.398 215.553 354.951C214.621 356.454 215.04 358.08 216.904 359.163L261.095 384.747C263.81 386.318 268.55 386.115 271.67 384.313L314.335 359.61C316.766 358.202 317.509 356.238 316.442 354.694C316.023 355.385 315.321 356.035 314.335 356.603Z" fill="white"/>
<path d="M300.667 375.659C300.667 376.797 299.87 378.192 298.884 378.76C297.898 379.329 297.102 378.869 297.102 377.731C297.102 376.593 297.898 375.198 298.884 374.63C299.87 374.047 300.667 374.508 300.667 375.659Z" fill="#D4ECFF"/>
<path d="M306.407 372.327C306.407 373.465 305.611 374.86 304.625 375.429C303.639 375.998 302.842 375.537 302.842 374.399C302.842 373.262 303.639 371.867 304.625 371.298C305.611 370.729 306.407 371.19 306.407 372.327Z" fill="#D4ECFF"/>
<path d="M312.147 369.009C312.147 370.147 311.35 371.542 310.364 372.11C309.378 372.679 308.582 372.219 308.582 371.081C308.582 369.943 309.378 368.549 310.364 367.98C311.35 367.397 312.147 367.871 312.147 369.009Z" fill="#D4ECFF"/>
<path d="M263.701 368.901L243.024 356.928C241.754 356.197 241.917 354.911 243.375 354.057L263.337 342.491C264.795 341.638 267.024 341.557 268.293 342.288L288.971 354.26C290.241 354.992 290.078 356.278 288.62 357.132L268.658 368.698C267.186 369.537 264.971 369.632 263.701 368.901Z" fill="#5793CE"/>
<path d="M265.687 358.879L262.823 357.226C262.648 357.118 262.675 356.942 262.877 356.833L265.646 355.235C265.849 355.113 266.159 355.1 266.335 355.208L269.198 356.861C269.374 356.969 269.347 357.145 269.144 357.253L266.375 358.851C266.173 358.96 265.862 358.973 265.687 358.879Z" fill="#D4ECFF"/>
<path d="M243.024 356.928L243.078 356.955C243.173 356.888 243.267 356.82 243.375 356.752L263.337 345.186C264.809 344.333 267.024 344.251 268.293 344.983L288.917 356.915C290.092 356.075 290.146 354.937 288.971 354.247L268.293 342.274C267.024 341.543 264.809 341.638 263.337 342.477L243.375 354.043C241.917 354.91 241.754 356.183 243.024 356.928Z" fill="#396CAA"/>
<path d="M198.104 111.249C198.104 112.021 197.564 112.332 196.902 111.94C196.24 111.56 195.7 110.626 195.7 109.854C195.7 109.082 196.24 108.77 196.902 109.163C197.564 109.542 198.104 110.477 198.104 111.249Z" fill="#D4ECFF"/>
<path d="M208.678 117.682C208.678 118.454 208.138 118.766 207.476 118.373C206.815 117.994 206.274 117.059 206.274 116.287C206.274 115.515 206.815 115.204 207.476 115.597C208.138 115.976 208.678 116.91 208.678 117.682Z" fill="#D4ECFF"/>
<path d="M219.254 124.115C219.254 124.887 218.713 125.199 218.052 124.806C217.39 124.427 216.85 123.492 216.85 122.72C216.85 121.948 217.39 121.637 218.052 122.029C218.713 122.409 219.254 123.343 219.254 124.115Z" fill="#D4ECFF"/>
<path d="M229.843 130.549C229.843 131.321 229.302 131.632 228.64 131.239C227.979 130.86 227.438 129.926 227.438 129.154C227.438 128.382 227.979 128.07 228.64 128.463C229.302 128.842 229.843 129.777 229.843 130.549Z" fill="#D4ECFF"/>
</svg>
