<svg width="54" height="61" viewBox="0 0 54 61" fill="none" xmlns="http://www.w3.org/2000/svg">
<path d="M37.4316 0.990234C36.4291 1.42455 36.0735 2.18989 36.1122 3.26981C36.1709 4.90378 36.1239 6.54245 36.1286 8.17877C36.1322 9.36551 36.847 10.1449 37.9035 10.1308C38.9188 10.1168 39.636 9.32325 39.6407 8.18464C39.6478 6.52836 39.6126 4.87209 39.6537 3.21699C39.6806 2.1312 39.2909 1.3729 38.2521 0.991409C37.9774 0.990236 37.7051 0.990234 37.4316 0.990234Z" fill="#F7421E"/>
<path d="M38.699 36.5962C31.8274 29.7258 24.9945 22.8929 18.1123 16.0107C18.0055 16.168 17.8858 16.33 17.7813 16.5014C12.3442 25.4084 6.90696 34.3154 1.47095 43.2236C0.747874 44.408 0.822998 45.056 1.79258 46.0268C4.1109 48.3462 6.43039 50.6669 8.75105 52.984C9.61734 53.8492 10.331 53.9384 11.3663 53.3057C20.3403 47.8286 29.313 42.3503 38.2858 36.8721C38.4173 36.7911 38.5429 36.7007 38.699 36.5962Z" fill="#F7421E"/>
<path opacity="0.2" d="M49.8505 29.6964C49.8294 28.6951 49.4209 27.5436 48.5664 26.5611C48.3997 26.3697 48.2248 26.1854 48.0452 26.007C41.6009 19.5603 35.1507 13.1195 28.7122 6.66698C27.0008 4.95084 25.0146 4.36745 22.7315 5.24665C19.4988 6.49208 18.4095 10.5981 20.5377 13.3379C20.7043 13.5527 20.8851 13.7604 21.0776 13.9529C27.6464 20.524 34.2093 27.101 40.7909 33.658C42.5024 35.3636 44.8629 35.7369 46.9348 34.7192C48.7119 33.8447 49.8517 31.9959 49.8505 29.6964Z" fill="#F7421E"/>
<path opacity="0.2" d="M17.1211 53.9088C17.6916 54.4582 18.2304 54.9641 18.7539 55.4841C20.0697 56.7906 21.361 58.1229 22.6944 59.4106C24.2298 60.8931 26.0622 61.3638 28.0894 60.6877C30.0896 60.0198 31.2916 58.5748 31.6308 56.4901C31.8973 54.8561 31.4582 53.3759 30.3173 52.168C29.1388 50.9191 27.9062 49.7218 26.6796 48.5198C26.5692 48.4118 26.2723 48.3472 26.1549 48.4176C23.1663 50.2159 20.1895 52.0366 17.1211 53.9088Z" fill="#F7421E"/>
<path d="M42.5879 10.2692C42.7041 11.0169 43.021 11.5545 43.6584 11.855C44.3111 12.1626 45.0001 12.1332 45.5225 11.6308C47.0132 10.1964 48.4829 8.73851 49.9102 7.24187C50.5429 6.57749 50.4396 5.53982 49.8058 4.90361C49.1731 4.26739 48.1342 4.1594 47.4687 4.79327C45.9709 6.21947 44.5153 7.69262 43.0821 9.18339C42.8215 9.45454 42.7475 9.90294 42.5879 10.2692Z" fill="#F7421E"/>
<path d="M49.0948 18.5776C50.0304 18.5776 50.9659 18.587 51.9014 18.5753C52.9262 18.5623 53.6786 17.8522 53.7127 16.8908C53.7467 15.9224 52.9896 15.0902 51.966 15.0749C50.0761 15.0455 48.1839 15.0444 46.294 15.0772C45.2928 15.0948 44.5615 15.9001 44.5744 16.8568C44.5873 17.824 45.3315 18.5471 46.3457 18.5788C46.3844 18.58 46.4232 18.58 46.4631 18.58C47.3411 18.5776 48.218 18.5776 49.0948 18.5776Z" fill="#F7421E"/>
</svg>
