<svg width="60" height="61" viewBox="0 0 60 61" fill="none" xmlns="http://www.w3.org/2000/svg">
<path d="M59.9936 8.94806C59.8794 10.108 59.7776 11.271 59.6508 12.4294C58.6443 21.6148 55.1927 29.6935 48.8296 36.4762C45.1151 40.4365 40.9653 43.8239 36.1582 46.3785C36.0549 46.4333 35.9516 46.4865 35.8921 46.5178C28.7525 39.3768 21.6349 32.256 14.4453 25.0648C14.8633 24.3307 15.3078 23.4917 15.8056 22.6855C19.9428 15.9952 25.3119 10.5244 32.0867 6.50143C36.1519 4.08767 40.5944 2.62251 45.2387 1.82262C47.33 1.46259 49.4573 1.31389 51.5674 1.06813C51.7208 1.05091 51.8711 1.01021 52.0245 0.980469C53.5867 0.980469 55.1489 0.980469 56.7111 0.980469C56.8818 1.01334 57.0508 1.05874 57.223 1.07909C58.5003 1.23562 59.5507 2.1623 59.8402 3.40832C59.906 3.68851 59.942 3.97653 59.9921 4.26143C59.9936 5.82364 59.9936 7.38585 59.9936 8.94806ZM32.3215 19.8945C32.3293 24.7659 36.2364 28.6542 41.1156 28.6479C45.9744 28.6416 49.9034 24.7064 49.8925 19.8585C49.8815 15.0185 45.9212 11.0769 41.0796 11.0879C36.2286 11.0973 32.3137 15.0341 32.3215 19.8945Z" fill="#F7421E"/>
<path opacity="0.2" d="M12.814 28.6636C19.3243 35.1738 25.7939 41.6434 32.2885 48.1396C32.1805 48.1897 32.0364 48.2679 31.8862 48.3258C29.7542 49.1539 27.5596 49.7613 25.3039 50.1448C24.2943 50.317 23.3832 50.0509 22.6632 49.3355C18.9799 45.6757 15.3076 42.0034 11.6494 38.3186C10.8856 37.5485 10.6633 36.592 10.8574 35.5104C11.2753 33.1608 11.9281 30.8817 12.814 28.6636Z" fill="#F7421E"/>
<path opacity="0.2" d="M26.5645 53.4976C32.8947 52.2578 38.519 49.5451 43.7644 45.7397C43.7378 46.2454 43.7269 46.6414 43.6956 47.0374C43.5923 48.3398 43.4874 49.6437 43.3747 50.9461C43.2479 52.4191 42.567 53.5915 41.3491 54.4086C38.3186 56.4389 35.285 58.4628 32.2216 60.4414C30.2117 61.7391 27.6884 60.5745 27.3017 58.2171C27.0466 56.6611 26.8149 55.1036 26.5645 53.4976Z" fill="#F7421E"/>
<path opacity="0.2" d="M15.2571 17.1816C11.4267 22.4521 8.71714 28.0796 7.47426 34.4286C5.68038 34.128 3.90215 33.959 2.19906 33.5097C0.137506 32.965 -0.616989 30.5168 0.594586 28.6525C2.14584 26.2638 3.72996 23.897 5.30156 21.5223C5.72108 20.8884 6.13119 20.2466 6.56635 19.6236C7.40851 18.4198 8.55904 17.7248 10.032 17.6012C11.721 17.4571 13.4116 17.3288 15.2571 17.1816Z" fill="#F7421E"/>
<path d="M12.8325 46.4365C14.1647 46.4631 14.9661 47.8876 14.3008 49.0553C14.2054 49.2228 14.0801 49.3794 13.9439 49.5155C10.3296 53.1346 6.71363 56.749 3.09612 60.3649C2.62339 60.8361 2.06613 61.074 1.39773 60.9269C0.107887 60.642 -0.416513 59.1706 0.389638 58.1202C0.483559 57.9966 0.597835 57.8886 0.708974 57.7774C4.25604 54.2288 7.80467 50.6833 11.347 47.1331C11.7634 46.7167 12.2189 46.4162 12.8325 46.4365Z" fill="#F7421E"/>
<path d="M9.40356 42.9927C9.17502 43.4044 9.0216 43.8881 8.7054 44.2137C6.85673 46.1124 4.97519 47.9799 3.09209 49.8442C2.32037 50.6081 1.2403 50.6065 0.537457 49.8771C-0.148163 49.1664 -0.130943 48.1176 0.617291 47.3631C2.48318 45.4816 4.36001 43.6095 6.23686 41.7389C6.80038 41.1769 7.46879 41.0125 8.21859 41.3115C8.87446 41.5761 9.27364 42.2006 9.40356 42.9927Z" fill="#F7421E"/>
<path d="M19.9129 53.5057C19.6984 53.9048 19.5607 54.3791 19.257 54.6922C17.3801 56.6176 15.4751 58.5179 13.5591 60.4041C12.8156 61.1367 11.7277 61.1023 11.0468 60.39C10.3768 59.6888 10.3784 58.6447 11.0953 57.9199C12.9862 56.0086 14.8897 54.1068 16.7994 52.2143C17.3504 51.6695 18.0219 51.5506 18.742 51.8386C19.3947 52.0969 19.8049 52.7418 19.9129 53.5057Z" fill="#F7421E"/>
<path d="M41.1054 25.1338C38.1923 25.14 35.8536 22.8218 35.838 19.9118C35.8208 16.983 38.1719 14.6069 41.0897 14.6006C43.9934 14.5943 46.3931 16.9987 46.3759 19.8962C46.3587 22.7936 44.0091 25.1275 41.1054 25.1338Z" fill="#F7421E"/>
</svg>
