<svg width="416" height="468" viewBox="0 0 416 468" fill="none" xmlns="http://www.w3.org/2000/svg">
<g clip-path="url(#clip0_1324_1950)">
<path d="M111.549 255.436L40.9999 215.139C38.417 213.646 38.7499 211.045 41.7188 209.312L82.3122 185.843C85.2944 184.123 89.7945 183.936 92.3773 185.43L162.926 225.727C165.509 227.22 165.176 229.82 162.207 231.554L121.614 255.022C118.645 256.743 114.132 256.929 111.549 255.436Z" fill="#B2D3EA"/>
<path d="M169.224 212.166V47.2051L103.747 30.0437L91.685 23.0697C88.9157 21.4696 84.0829 21.6696 80.8876 23.5231L69.6375 30.0303L34.7158 30.0037L45.0605 189.244C44.9807 190.324 45.5798 191.377 46.9111 192.138L112.255 241.515C115.024 243.115 119.857 242.915 123.052 241.062L166.601 215.886C168.438 214.819 169.33 213.446 169.224 212.166Z" fill="#396CAA"/>
<path d="M86.6792 21.9893C84.6556 22.0426 82.552 22.5493 80.8878 23.5094L69.6377 30.0166L34.716 30.0033V195.404C34.6361 196.484 35.2353 197.538 36.5666 198.298L112.255 241.515C113.586 242.288 115.397 242.635 117.261 242.581L118.046 76.1406L86.6792 21.9893Z" fill="#D4ECFF"/>
<path d="M112.947 241.862C115.33 242.888 118.791 242.835 121.574 241.768V74.1938H112.947V241.862Z" fill="#5793CE"/>
<path d="M112.255 76.1807L36.5665 32.9504C33.7973 31.3502 34.1434 28.55 37.3387 26.7098L80.8877 1.53435C84.083 -0.319145 88.9158 -0.519162 91.6851 1.08097L167.373 44.298C170.142 45.8981 169.796 48.6984 166.601 50.5385L123.052 75.7274C119.857 77.5808 115.024 77.7809 112.255 76.1807Z" fill="#D4ECFF"/>
<path d="M166.601 47.485L123.052 72.6605C119.857 74.514 115.024 74.714 112.255 73.1139L36.5666 29.8835C35.9541 29.5235 35.5015 29.1101 35.1819 28.6567C34.2367 30.1902 34.6627 31.857 36.5666 32.9504L112.255 76.1675C115.024 77.7676 119.857 77.5676 123.052 75.7141L166.601 50.5386C169.091 49.0985 169.836 47.0983 168.758 45.5248C168.318 46.2316 167.6 46.8983 166.601 47.485Z" fill="#FAFDFF"/>
<path d="M114.385 58.6595L64.0059 29.4036C62.7144 28.6569 62.8742 27.3501 64.3653 26.4834L84.7485 14.6957C86.2397 13.829 88.503 13.7356 89.8077 14.4823L140.2 43.7382C141.491 44.4849 141.332 45.7917 139.84 46.6584L119.457 58.4461C117.953 59.3129 115.689 59.4062 114.385 58.6595Z" fill="#173D7A"/>
<path d="M87.1848 30.7236L84.2691 29.0301C84.0961 28.9235 84.1094 28.7501 84.3224 28.6301L87.1449 27.0033C87.3579 26.8833 87.6641 26.87 87.8505 26.9766L90.7662 28.6701C90.9393 28.7768 90.926 28.9501 90.713 29.0701L87.8905 30.6969C87.6774 30.8036 87.3712 30.817 87.1848 30.7236Z" fill="#D4ECFF"/>
<path d="M96.9436 36.3374L94.0279 34.6439C93.8548 34.5372 93.8682 34.3639 94.0812 34.2439L96.9037 32.6171C97.1167 32.4971 97.4229 32.4837 97.6093 32.5904L100.525 34.2839C100.698 34.3906 100.685 34.5639 100.472 34.6839L97.6492 36.3107C97.4362 36.4307 97.1167 36.4441 96.9436 36.3374Z" fill="#D4ECFF"/>
<path d="M106.703 41.9512L103.787 40.2577C103.614 40.151 103.627 39.9777 103.84 39.8576L106.663 38.2308C106.876 38.1108 107.182 38.0975 107.369 38.2042L110.284 39.8976C110.457 40.0043 110.444 40.1777 110.231 40.2977L107.409 41.9245C107.195 42.0445 106.876 42.0578 106.703 41.9512Z" fill="#D4ECFF"/>
<path d="M116.448 47.5786L113.532 45.8851C113.359 45.7784 113.373 45.6051 113.586 45.4851L116.408 43.8583C116.621 43.7383 116.927 43.7249 117.114 43.8316L120.029 45.5251C120.202 45.6318 120.189 45.8051 119.976 45.9251L117.154 47.5519C116.941 47.6586 116.634 47.6719 116.448 47.5786Z" fill="#D4ECFF"/>
<path d="M64.0059 29.4035L64.0591 29.4435C64.1523 29.3768 64.2455 29.2968 64.3653 29.2301L84.7486 17.4425C86.2397 16.5757 88.503 16.4824 89.8077 17.2291L140.133 46.4449C141.332 45.5915 141.385 44.4181 140.187 43.738L89.7944 14.4955C88.503 13.7488 86.2397 13.8421 84.7352 14.7089L64.352 26.4966C62.8742 27.35 62.7145 28.6567 64.0059 29.4035Z" fill="#5793CE"/>
<path d="M131.546 108.863L160.197 92.4352C161.808 91.5018 163.113 89.0083 163.113 86.8481V76.5805C163.113 74.4337 161.808 73.4336 160.197 74.367L131.546 90.7951C129.935 91.7285 128.63 94.222 128.63 96.3822V106.65C128.63 108.797 129.935 109.797 131.546 108.863Z" fill="#173D7A"/>
<path d="M161.622 74.0605C162.074 74.4873 162.354 75.2073 162.354 76.1941V86.4616C162.354 88.6085 161.049 91.1153 159.438 92.0487L130.787 108.477C130.268 108.77 129.789 108.864 129.363 108.784C129.895 109.29 130.668 109.37 131.546 108.864L160.197 92.4354C161.808 91.502 163.113 89.0085 163.113 86.8483V76.5808C163.126 75.1273 162.514 74.2206 161.622 74.0605Z" fill="white"/>
<path d="M140.173 97.716L142.796 96.1958C143.142 95.9958 143.435 95.4491 143.435 94.9824V92.1688C143.435 91.7021 143.155 91.4888 142.796 91.6888L140.173 93.2089C139.827 93.4089 139.534 93.9557 139.534 94.4224V97.2359C139.534 97.7026 139.814 97.916 140.173 97.716Z" fill="#396CAA"/>
<path d="M148.96 92.6354L151.583 91.1153C151.929 90.9153 152.222 90.3686 152.222 89.9018V87.0883C152.222 86.6216 151.943 86.4082 151.583 86.6082L148.96 88.1284C148.614 88.3284 148.321 88.8751 148.321 89.3418V92.1554C148.321 92.6221 148.601 92.8354 148.96 92.6354Z" fill="white"/>
<path d="M131.546 183.003L160.197 166.575C161.808 165.642 163.113 163.148 163.113 160.988V150.721C163.113 148.574 161.808 147.574 160.197 148.507L131.546 164.949C129.935 165.882 128.63 168.376 128.63 170.536V180.803C128.63 182.95 129.935 183.937 131.546 183.003Z" fill="#173D7A"/>
<path d="M161.622 148.214C162.074 148.641 162.354 149.361 162.354 150.347V160.615C162.354 162.762 161.049 165.269 159.438 166.202L130.787 182.63C130.268 182.924 129.789 183.017 129.363 182.937C129.895 183.444 130.668 183.524 131.546 183.017L160.197 166.589C161.808 165.655 163.113 163.162 163.113 161.002V150.734C163.126 149.267 162.514 148.361 161.622 148.214Z" fill="white"/>
<path d="M140.173 171.856L142.796 170.336C143.142 170.136 143.435 169.589 143.435 169.123V166.309C143.435 165.842 143.155 165.629 142.796 165.829L140.173 167.349C139.827 167.549 139.534 168.096 139.534 168.563V171.376C139.534 171.843 139.814 172.069 140.173 171.856Z" fill="#396CAA"/>
<path d="M148.96 166.776L151.583 165.255C151.929 165.055 152.222 164.509 152.222 164.042V161.228C152.222 160.762 151.943 160.548 151.583 160.748L148.96 162.268C148.614 162.469 148.321 163.015 148.321 163.482V166.296C148.321 166.762 148.601 166.989 148.96 166.776Z" fill="white"/>
<path d="M131.546 220.086L160.197 203.658C161.808 202.725 163.113 200.231 163.113 198.071V187.804C163.113 185.657 161.808 184.657 160.197 185.59L131.546 202.018C129.935 202.952 128.63 205.445 128.63 207.605V217.873C128.63 220.02 129.935 221.02 131.546 220.086Z" fill="#173D7A"/>
<path d="M161.622 185.284C162.074 185.71 162.354 186.43 162.354 187.417V197.685C162.354 199.832 161.049 202.338 159.438 203.272L130.787 219.7C130.268 219.993 129.789 220.087 129.363 220.007C129.895 220.513 130.668 220.593 131.546 220.087L160.197 203.659C161.808 202.725 163.113 200.232 163.113 198.071V187.804C163.126 186.35 162.514 185.444 161.622 185.284Z" fill="white"/>
<path d="M140.173 208.939L142.796 207.419C143.142 207.219 143.435 206.672 143.435 206.206V203.392C143.435 202.925 143.155 202.712 142.796 202.912L140.173 204.432C139.827 204.632 139.534 205.179 139.534 205.646V208.459C139.534 208.926 139.814 209.139 140.173 208.939Z" fill="#396CAA"/>
<path d="M148.96 203.859L151.583 202.338C151.929 202.138 152.222 201.592 152.222 201.125V198.311C152.222 197.845 151.943 197.631 151.583 197.831L148.96 199.352C148.614 199.552 148.321 200.098 148.321 200.565V203.379C148.321 203.845 148.601 204.059 148.96 203.859Z" fill="white"/>
<path d="M131.546 145.933L160.197 129.505C161.808 128.572 163.113 126.078 163.113 123.918V113.65C163.113 111.504 161.808 110.503 160.197 111.437L131.546 127.878C129.935 128.812 128.63 131.305 128.63 133.465V143.733C128.63 145.88 129.935 146.867 131.546 145.933Z" fill="#173D7A"/>
<path d="M161.622 111.144C162.074 111.57 162.354 112.29 162.354 113.277V123.545C162.354 125.691 161.049 128.198 159.438 129.132L130.787 145.56C130.268 145.853 129.789 145.947 129.363 145.867C129.895 146.373 130.668 146.453 131.546 145.947L160.197 129.518C161.808 128.585 163.113 126.092 163.113 123.931V113.664C163.126 112.197 162.514 111.29 161.622 111.144Z" fill="white"/>
<path d="M140.173 134.786L142.796 133.266C143.142 133.066 143.435 132.519 143.435 132.052V129.239C143.435 128.772 143.155 128.559 142.796 128.759L140.173 130.279C139.827 130.479 139.534 131.025 139.534 131.492V134.306C139.534 134.772 139.814 134.986 140.173 134.786Z" fill="#396CAA"/>
<path d="M148.96 129.705L151.583 128.185C151.929 127.985 152.222 127.438 152.222 126.972V124.158C152.222 123.691 151.943 123.478 151.583 123.678L148.96 125.198C148.614 125.398 148.321 125.945 148.321 126.412V129.225C148.321 129.692 148.601 129.905 148.96 129.705Z" fill="white"/>
<path d="M106.743 98.3561L40.6404 60.1395C39.1626 59.2861 37.9644 56.9925 37.9644 55.019V42.3913C37.9644 40.4178 39.1626 39.511 40.6404 40.3644L106.743 78.581C108.221 79.4345 109.419 81.728 109.419 83.7015V96.3292C109.419 98.3027 108.221 99.2095 106.743 98.3561Z" fill="#5793CE"/>
<path opacity="0.4" d="M104.839 93.9291L42.5443 57.8994C41.7987 57.4593 41.1863 56.2992 41.1863 55.2991V45.805C41.1863 44.8049 41.7987 44.3382 42.5443 44.7782L104.839 80.808C105.584 81.248 106.197 82.4081 106.197 83.4082V92.9024C106.197 93.9024 105.584 94.3692 104.839 93.9291Z" fill="#D4ECFF"/>
<path d="M55.525 60.6198L46.2321 55.246C45.4999 54.8193 44.9141 53.6992 44.9141 52.7257C44.9141 51.7523 45.4999 51.299 46.2321 51.7257L55.525 57.0995C56.2573 57.5262 56.8431 58.6463 56.8431 59.6197C56.8431 60.5931 56.2573 61.0331 55.525 60.6198Z" fill="#D4ECFF"/>
<path d="M62.993 64.429C63.5852 64.0866 63.5824 62.9714 62.9868 61.9382C62.3912 60.9051 61.4284 60.3451 60.8362 60.6876C60.244 61.03 60.2467 62.1452 60.8423 63.1783C61.4379 64.2115 62.4008 64.7714 62.993 64.429Z" fill="#173D7A"/>
<path d="M68.8253 66.5399C68.8253 67.5133 68.1463 67.9133 67.3076 67.4199C66.4688 66.9399 65.7898 65.7531 65.7898 64.7797C65.7898 63.8063 66.4688 63.4063 67.3076 63.8996C68.1463 64.3797 68.8253 65.5664 68.8253 66.5399Z" fill="#173D7A"/>
<path d="M74.2042 69.6468C74.2042 70.6202 73.5252 71.0202 72.6865 70.5269C71.8477 70.0335 71.1687 68.86 71.1687 67.8866C71.1687 66.9132 71.8477 66.5132 72.6865 67.0066C73.5119 67.4866 74.2042 68.6734 74.2042 69.6468Z" fill="#D4ECFF"/>
<path d="M79.5695 72.7537C79.5695 73.7271 78.8905 74.1272 78.0517 73.6338C77.2129 73.1537 76.5339 71.967 76.5339 70.9936C76.5339 70.0202 77.2129 69.6201 78.0517 70.1135C78.8905 70.6069 79.5695 71.7803 79.5695 72.7537Z" fill="#173D7A"/>
<path d="M102.216 88.6488L99.0874 86.8353C98.6214 86.5686 98.2354 85.8352 98.2354 85.2085V81.8882C98.2354 81.2615 98.6081 80.9815 99.0874 81.2481L102.216 83.0616C102.682 83.3283 103.068 84.0617 103.068 84.6884V88.0087C103.068 88.6221 102.682 88.9155 102.216 88.6488Z" fill="#173D7A"/>
<path d="M106.743 120.611L40.6404 82.3944C39.1626 81.541 37.9644 79.2474 37.9644 77.2739V64.6462C37.9644 62.6727 39.1626 61.7659 40.6404 62.6193L106.743 100.836C108.221 101.689 109.419 103.983 109.419 105.956V118.584C109.419 120.558 108.221 121.464 106.743 120.611Z" fill="#5793CE"/>
<path opacity="0.4" d="M104.839 116.184L42.5443 80.1674C41.7987 79.7274 41.1863 78.5673 41.1863 77.5672V68.0731C41.1863 67.073 41.7987 66.6063 42.5443 67.0463L104.839 103.076C105.584 103.516 106.197 104.676 106.197 105.676V115.17C106.197 116.157 105.584 116.624 104.839 116.184Z" fill="#D4ECFF"/>
<path d="M55.525 82.8746L46.2321 77.5008C45.4999 77.0741 44.9141 75.954 44.9141 74.9806C44.9141 74.0072 45.4999 73.5538 46.2321 73.9805L55.525 79.3543C56.2573 79.781 56.8431 80.9011 56.8431 81.8745C56.8431 82.848 56.2573 83.288 55.525 82.8746Z" fill="#D4ECFF"/>
<path d="M63.4466 85.6878C63.4466 86.6612 62.7676 87.0612 61.9289 86.5679C61.0901 86.0878 60.4111 84.9011 60.4111 83.9276C60.4111 82.9542 61.0901 82.5542 61.9289 83.0476C62.7676 83.541 63.4466 84.7144 63.4466 85.6878Z" fill="white"/>
<path d="M68.8253 88.7947C68.8253 89.7681 68.1463 90.1682 67.3076 89.6748C66.4688 89.1948 65.7898 88.008 65.7898 87.0346C65.7898 86.0612 66.4688 85.6611 67.3076 86.1545C68.1463 86.6479 68.8253 87.8213 68.8253 88.7947Z" fill="#173D7A"/>
<path d="M74.2042 91.9153C74.2042 92.8888 73.5252 93.2888 72.6865 92.7954C71.8477 92.3154 71.1687 91.1286 71.1687 90.1552C71.1687 89.1818 71.8477 88.7817 72.6865 89.2751C73.5119 89.7552 74.2042 90.9419 74.2042 91.9153Z" fill="#D4ECFF"/>
<path d="M79.1287 96.014C79.7209 95.6715 79.7182 94.5564 79.1226 93.5232C78.527 92.49 77.5641 91.9301 76.9719 92.2725C76.3797 92.615 76.3825 93.7301 76.9781 94.7633C77.5736 95.7965 78.5365 96.3564 79.1287 96.014Z" fill="#173D7A"/>
<path d="M102.216 110.904L99.0874 109.09C98.6214 108.823 98.2354 108.09 98.2354 107.463V104.143C98.2354 103.516 98.6081 103.236 99.0874 103.503L102.216 105.317C102.682 105.583 103.068 106.317 103.068 106.943V110.264C103.068 110.89 102.682 111.17 102.216 110.904Z" fill="#173D7A"/>
<path d="M106.743 142.88L40.6404 104.65C39.1626 103.796 37.9644 101.503 37.9644 99.5293V86.9015C37.9644 84.928 39.1626 84.0213 40.6404 84.8747L106.743 123.091C108.221 123.945 109.419 126.238 109.419 128.212V140.839C109.419 142.826 108.221 143.733 106.743 142.88Z" fill="#5793CE"/>
<path opacity="0.4" d="M104.839 138.453L42.5443 102.423C41.7987 101.983 41.1863 100.823 41.1863 99.8226V90.3284C41.1863 89.3283 41.7987 88.8616 42.5443 89.3017L104.839 125.331C105.584 125.771 106.197 126.932 106.197 127.932V137.426C106.197 138.426 105.584 138.879 104.839 138.453Z" fill="#D4ECFF"/>
<path d="M55.525 105.13L46.2321 99.7557C45.4999 99.329 44.9141 98.2089 44.9141 97.2355C44.9141 96.2621 45.4999 95.8087 46.2321 96.2354L55.525 101.609C56.2573 102.036 56.8431 103.156 56.8431 104.129C56.8431 105.103 56.2573 105.556 55.525 105.13Z" fill="#D4ECFF"/>
<path d="M63.4466 107.957C63.4466 108.93 62.7676 109.33 61.9289 108.837C61.0901 108.357 60.4111 107.17 60.4111 106.197C60.4111 105.223 61.0901 104.823 61.9289 105.317C62.7676 105.797 63.4466 106.983 63.4466 107.957Z" fill="white"/>
<path d="M68.8253 111.064C68.8253 112.037 68.1463 112.437 67.3076 111.944C66.4688 111.464 65.7898 110.277 65.7898 109.304C65.7898 108.33 66.4688 107.93 67.3076 108.424C68.1463 108.904 68.8253 110.09 68.8253 111.064Z" fill="#173D7A"/>
<path d="M74.2042 114.171C74.2042 115.144 73.5252 115.544 72.6865 115.051C71.8477 114.571 71.1687 113.384 71.1687 112.411C71.1687 111.437 71.8477 111.037 72.6865 111.53C73.5119 112.011 74.2042 113.197 74.2042 114.171Z" fill="#D4ECFF"/>
<path d="M79.5695 117.278C79.5695 118.251 78.8905 118.651 78.0517 118.158C77.2129 117.664 76.5339 116.491 76.5339 115.517C76.5339 114.544 77.2129 114.144 78.0517 114.637C78.8905 115.117 79.5695 116.304 79.5695 117.278Z" fill="#173D7A"/>
<path d="M102.216 133.159L99.0874 131.345C98.6214 131.079 98.2354 130.345 98.2354 129.719V126.412C98.2354 125.785 98.6081 125.505 99.0874 125.772L102.216 127.585C102.682 127.852 103.068 128.585 103.068 129.212V132.532C103.068 133.146 102.682 133.439 102.216 133.159Z" fill="#173D7A"/>
<path d="M106.743 165.135L40.6404 126.918C39.1626 126.065 37.9644 123.771 37.9644 121.798V109.17C37.9644 107.197 39.1626 106.29 40.6404 107.143L106.743 145.36C108.221 146.213 109.419 148.507 109.419 150.48V163.108C109.419 165.082 108.221 165.988 106.743 165.135Z" fill="#5793CE"/>
<path opacity="0.4" d="M104.839 160.708L42.5443 124.678C41.7987 124.238 41.1863 123.078 41.1863 122.078V112.584C41.1863 111.584 41.7987 111.117 42.5443 111.557L104.839 147.587C105.584 148.027 106.197 149.187 106.197 150.187V159.681C106.197 160.681 105.584 161.148 104.839 160.708Z" fill="#D4ECFF"/>
<path d="M55.525 127.398L46.2321 122.024C45.4999 121.598 44.9141 120.477 44.9141 119.504C44.9141 118.531 45.4999 118.077 46.2321 118.504L55.525 123.878C56.2573 124.304 56.8431 125.425 56.8431 126.398C56.8431 127.371 56.2573 127.811 55.525 127.398Z" fill="#D4ECFF"/>
<path d="M63.4466 130.212C63.4466 131.185 62.7676 131.585 61.9289 131.092C61.0901 130.612 60.4111 129.425 60.4111 128.452C60.4111 127.478 61.0901 127.078 61.9289 127.572C62.7676 128.052 63.4466 129.238 63.4466 130.212Z" fill="#173D7A"/>
<path d="M68.368 134.314C68.9602 133.971 68.9574 132.856 68.3618 131.823C67.7662 130.79 66.8034 130.23 66.2112 130.572C65.619 130.915 65.6217 132.03 66.2173 133.063C66.8129 134.096 67.7758 134.656 68.368 134.314Z" fill="#173D7A"/>
<path d="M74.2042 136.426C74.2042 137.399 73.5252 137.799 72.6865 137.306C71.8477 136.812 71.1687 135.639 71.1687 134.665C71.1687 133.692 71.8477 133.292 72.6865 133.785C73.5119 134.265 74.2042 135.452 74.2042 136.426Z" fill="#D4ECFF"/>
<path d="M79.5695 139.533C79.5695 140.506 78.8905 140.906 78.0517 140.413C77.2129 139.919 76.5339 138.746 76.5339 137.772C76.5339 136.799 77.2129 136.399 78.0517 136.892C78.8905 137.386 79.5695 138.559 79.5695 139.533Z" fill="#173D7A"/>
<path d="M102.216 155.428L99.0874 153.614C98.6214 153.347 98.2354 152.614 98.2354 151.987V148.667C98.2354 148.04 98.6081 147.76 99.0874 148.027L102.216 149.84C102.682 150.107 103.068 150.841 103.068 151.467V154.788C103.068 155.401 102.682 155.694 102.216 155.428Z" fill="#D4ECFF"/>
<path d="M106.743 187.39L40.6404 149.174C39.1626 148.32 37.9644 146.027 37.9644 144.053V131.425C37.9644 129.452 39.1626 128.545 40.6404 129.399L106.743 167.615C108.221 168.469 109.419 170.762 109.419 172.736V185.363C109.419 187.337 108.221 188.244 106.743 187.39Z" fill="#5793CE"/>
<path opacity="0.4" d="M104.839 182.963L42.5443 146.947C41.7987 146.507 41.1863 145.347 41.1863 144.347V134.852C41.1863 133.852 41.7987 133.386 42.5443 133.826L104.839 169.855C105.584 170.295 106.197 171.455 106.197 172.456V181.95C106.197 182.936 105.584 183.403 104.839 182.963Z" fill="#D4ECFF"/>
<path d="M55.525 149.653L46.2321 144.28C45.4999 143.853 44.9141 142.733 44.9141 141.759C44.9141 140.786 45.4999 140.333 46.2321 140.759L55.525 146.133C56.2573 146.56 56.8431 147.68 56.8431 148.653C56.8431 149.627 56.2573 150.067 55.525 149.653Z" fill="#D4ECFF"/>
<path d="M63.4466 152.467C63.4466 153.44 62.7676 153.841 61.9289 153.347C61.0901 152.867 60.4111 151.68 60.4111 150.707C60.4111 149.734 61.0901 149.334 61.9289 149.827C62.7676 150.32 63.4466 151.494 63.4466 152.467Z" fill="#173D7A"/>
<path d="M68.8253 155.574C68.8253 156.547 68.1463 156.947 67.3076 156.454C66.4688 155.961 65.7898 154.787 65.7898 153.814C65.7898 152.84 66.4688 152.44 67.3076 152.934C68.1463 153.427 68.8253 154.601 68.8253 155.574Z" fill="white"/>
<path d="M74.2042 158.695C74.2042 159.668 73.5252 160.068 72.6865 159.575C71.8477 159.081 71.1687 157.908 71.1687 156.934C71.1687 155.961 71.8477 155.561 72.6865 156.054C73.5119 156.534 74.2042 157.721 74.2042 158.695Z" fill="#D4ECFF"/>
<path d="M79.5695 161.802C79.5695 162.775 78.8905 163.175 78.0517 162.682C77.2129 162.202 76.5339 161.015 76.5339 160.041C76.5339 159.068 77.2129 158.668 78.0517 159.161C78.8905 159.641 79.5695 160.828 79.5695 161.802Z" fill="white"/>
<path d="M102.216 177.683L99.0874 175.869C98.6214 175.603 98.2354 174.869 98.2354 174.243V170.922C98.2354 170.296 98.6081 170.016 99.0874 170.282L102.216 172.096C102.682 172.363 103.068 173.096 103.068 173.723V177.043C103.068 177.67 102.682 177.95 102.216 177.683Z" fill="#D4ECFF"/>
<path d="M106.743 209.659L40.6404 171.442C39.1626 170.589 37.9644 168.295 37.9644 166.322V153.694C37.9644 151.721 39.1626 150.814 40.6404 151.667L106.743 189.884C108.221 190.737 109.419 193.031 109.419 195.004V207.632C109.419 209.605 108.221 210.512 106.743 209.659Z" fill="#5793CE"/>
<path opacity="0.4" d="M104.839 205.232L42.5443 169.202C41.7987 168.762 41.1863 167.602 41.1863 166.602V157.108C41.1863 156.108 41.7987 155.641 42.5443 156.081L104.839 192.111C105.584 192.551 106.197 193.711 106.197 194.711V204.205C106.197 205.205 105.584 205.659 104.839 205.232Z" fill="#D4ECFF"/>
<path d="M55.525 171.909L46.2321 166.535C45.4999 166.108 44.9141 164.988 44.9141 164.015C44.9141 163.041 45.4999 162.588 46.2321 163.015L55.525 168.389C56.2573 168.815 56.8431 169.935 56.8431 170.909C56.8431 171.882 56.2573 172.336 55.525 171.909Z" fill="#D4ECFF"/>
<path d="M62.9844 175.72C63.5766 175.377 63.5739 174.262 62.9783 173.229C62.3827 172.196 61.4198 171.636 60.8276 171.978C60.2354 172.321 60.2382 173.436 60.8338 174.469C61.4294 175.502 62.3923 176.062 62.9844 175.72Z" fill="#173D7A"/>
<path d="M68.8253 177.843C68.8253 178.816 68.1463 179.216 67.3076 178.723C66.4688 178.243 65.7898 177.056 65.7898 176.082C65.7898 175.109 66.4688 174.709 67.3076 175.202C68.1463 175.682 68.8253 176.869 68.8253 177.843Z" fill="#173D7A"/>
<path d="M74.2042 180.95C74.2042 181.923 73.5252 182.323 72.6865 181.83C71.8477 181.35 71.1687 180.163 71.1687 179.189C71.1687 178.216 71.8477 177.816 72.6865 178.309C73.5119 178.789 74.2042 179.976 74.2042 180.95Z" fill="#D4ECFF"/>
<path d="M79.5695 184.056C79.5695 185.03 78.8905 185.43 78.0517 184.937C77.2129 184.456 76.5339 183.27 76.5339 182.296C76.5339 181.323 77.2129 180.923 78.0517 181.416C78.8905 181.896 79.5695 183.083 79.5695 184.056Z" fill="#173D7A"/>
<path d="M102.216 199.938L99.0874 198.124C98.6214 197.858 98.2354 197.124 98.2354 196.498V193.177C98.2354 192.551 98.6081 192.271 99.0874 192.537L102.216 194.351C102.682 194.617 103.068 195.351 103.068 195.978V199.298C103.068 199.925 102.682 200.218 102.216 199.938Z" fill="#173D7A"/>
<path d="M106.743 231.914L40.6404 193.698C39.1626 192.844 37.9644 190.551 37.9644 188.577V175.949C37.9644 173.976 39.1626 173.069 40.6404 173.923L106.743 212.139C108.221 212.993 109.419 215.286 109.419 217.26V229.887C109.419 231.861 108.221 232.768 106.743 231.914Z" fill="#5793CE"/>
<path opacity="0.4" d="M104.839 227.487L42.5443 191.457C41.7987 191.017 41.1863 189.857 41.1863 188.857V179.363C41.1863 178.363 41.7987 177.896 42.5443 178.336L104.839 214.366C105.584 214.806 106.197 215.966 106.197 216.966V226.46C106.197 227.461 105.584 227.914 104.839 227.487Z" fill="#D4ECFF"/>
<path d="M55.525 194.164L46.2321 188.79C45.4999 188.364 44.9141 187.244 44.9141 186.27C44.9141 185.297 45.4999 184.843 46.2321 185.27L55.525 190.644C56.2573 191.071 56.8431 192.191 56.8431 193.164C56.8431 194.151 56.2573 194.591 55.525 194.164Z" fill="#D4ECFF"/>
<path d="M65.1509 198.191C65.1509 200.031 63.8595 200.778 62.2752 199.858C60.6908 198.938 59.3994 196.698 59.3994 194.871C59.3994 193.031 60.6908 192.284 62.2752 193.204C63.8595 194.124 65.1509 196.351 65.1509 198.191Z" fill="white"/>
<path d="M76.2811 204.725C76.2811 205.699 75.6021 206.099 74.7634 205.605C73.9246 205.125 73.2456 203.939 73.2456 202.965C73.2456 201.992 73.9246 201.592 74.7634 202.085C75.6021 202.565 76.2811 203.752 76.2811 204.725Z" fill="#173D7A"/>
<path d="M81.6598 207.832C81.6598 208.806 80.9808 209.206 80.142 208.712C79.3033 208.232 78.6243 207.046 78.6243 206.072C78.6243 205.099 79.3033 204.699 80.142 205.192C80.9675 205.672 81.6598 206.859 81.6598 207.832Z" fill="#D4ECFF"/>
<path d="M87.0384 210.939C87.0384 211.913 86.3594 212.313 85.5207 211.819C84.6819 211.339 84.0029 210.153 84.0029 209.179C84.0029 208.206 84.6819 207.806 85.5207 208.299C86.3461 208.779 87.0384 209.966 87.0384 210.939Z" fill="#173D7A"/>
<path d="M102.216 222.207L99.0874 220.393C98.6214 220.127 98.2354 219.393 98.2354 218.767V215.446C98.2354 214.82 98.6081 214.54 99.0874 214.806L102.216 216.62C102.682 216.886 103.068 217.62 103.068 218.247V221.567C103.068 222.18 102.682 222.474 102.216 222.207Z" fill="#D4ECFF"/>
<path d="M102.349 287.799C102.123 287.799 101.897 287.745 101.697 287.625L26.5547 244.862C25.6361 244.342 25.0902 243.408 25.0769 242.355C25.0636 241.301 25.6094 240.355 26.5148 239.821L58.7471 220.766C59.8788 220.1 60.5844 218.859 60.5844 217.539V196.538C60.5844 195.804 61.1835 195.204 61.9158 195.204C62.648 195.204 63.2472 195.804 63.2472 196.538V217.539C63.2472 219.806 62.0356 221.913 60.0918 223.073L27.8595 242.128C27.7796 242.181 27.7396 242.248 27.7396 242.341C27.7396 242.435 27.7796 242.515 27.8728 242.555L103.015 285.318C103.654 285.678 103.88 286.492 103.521 287.132C103.268 287.559 102.815 287.799 102.349 287.799Z" fill="#5793CE"/>
<path d="M88.0355 282.614L91.585 276.414L78.2221 268.74L74.6726 274.94L88.0355 282.614Z" fill="#5793CE"/>
<path d="M73.938 273.291C73.938 271.677 75.0563 269.717 76.4543 268.904C77.8522 268.09 78.9839 268.744 78.9839 270.357C78.9839 271.971 77.8655 273.931 76.4676 274.744C75.0697 275.558 73.938 274.904 73.938 273.291Z" fill="#5793CE"/>
<path d="M105.565 295.243L111.32 285.191L90.3573 273.153L84.6026 283.205L105.565 295.243Z" fill="#5793CE"/>
<path d="M89.3954 275.144L84.8687 272.544C82.9915 273.891 81.527 276.451 81.314 278.744L85.8406 281.345C87.7178 279.998 89.1823 277.438 89.3954 275.144Z" fill="#396CAA"/>
<path d="M83.3907 280.545C83.3774 277.931 85.2014 274.757 87.4647 273.437C89.7147 272.13 91.552 273.184 91.5653 275.784C91.5786 278.398 89.7546 281.571 87.4913 282.891C85.2413 284.198 83.404 283.145 83.3907 280.545Z" fill="#5793CE"/>
<path d="M78.145 271.637C77.4927 271.264 77.4927 270.651 78.145 270.264C78.7974 269.877 79.8625 269.877 80.5149 270.251C81.1672 270.624 81.1672 271.237 80.5149 271.624C79.8625 272.011 78.7974 272.011 78.145 271.637Z" fill="#D4ECFF"/>
<path d="M71.7969 292.447L75.3464 286.247L61.9836 278.573L58.434 284.773L71.7969 292.447Z" fill="#5793CE"/>
<path d="M57.6821 283.132C57.6821 281.518 58.8005 279.558 60.1984 278.744C61.5963 277.931 62.728 278.584 62.728 280.198C62.728 281.811 61.6097 283.772 60.2117 284.585C58.8138 285.398 57.6821 284.745 57.6821 283.132Z" fill="#5793CE"/>
<path d="M89.3156 305.066L95.0703 295.014L74.1078 282.976L68.3531 293.028L89.3156 305.066Z" fill="#5793CE"/>
<path d="M73.1392 284.972L68.6126 282.372C66.7354 283.718 65.2709 286.279 65.0579 288.572L69.5845 291.172C71.4617 289.839 72.9262 287.265 73.1392 284.972Z" fill="#396CAA"/>
<path d="M67.148 290.372C67.1347 287.759 68.9587 284.585 71.222 283.265C73.472 281.958 75.3093 283.012 75.3226 285.612C75.3359 288.212 73.5119 291.399 71.2486 292.719C68.9853 294.039 67.1613 292.986 67.148 290.372Z" fill="#5793CE"/>
<path d="M61.9026 281.478C61.2502 281.105 61.2502 280.491 61.9026 280.105C62.555 279.718 63.6201 279.718 64.2724 280.091C64.9248 280.465 64.9248 281.078 64.2724 281.465C63.6201 281.851 62.555 281.851 61.9026 281.478Z" fill="#D4ECFF"/>
<path d="M331.451 168.028C331.358 168.028 331.251 168.015 331.145 167.988C330.426 167.828 329.986 167.108 330.146 166.388L343.127 109.93C343.287 109.21 344.006 108.757 344.724 108.93C345.443 109.09 345.883 109.81 345.723 110.53L332.742 166.988C332.609 167.615 332.05 168.028 331.451 168.028Z" fill="#5793CE"/>
<path d="M314.196 164.042C314.103 164.042 313.997 164.028 313.89 164.002C313.171 163.842 312.732 163.122 312.892 162.401L325.872 105.943C326.032 105.223 326.751 104.77 327.47 104.943C328.189 105.103 328.628 105.823 328.469 106.543L315.488 163.002C315.341 163.628 314.795 164.042 314.196 164.042Z" fill="#5793CE"/>
<path d="M296.928 160.068C296.835 160.068 296.729 160.054 296.622 160.028C295.903 159.868 295.464 159.148 295.624 158.428L308.604 101.969C308.764 101.249 309.483 100.809 310.202 100.969C310.921 101.129 311.36 101.849 311.201 102.569L298.22 159.028C298.087 159.654 297.541 160.068 296.928 160.068Z" fill="#5793CE"/>
<path d="M310.305 117.107L303.357 115.476L299.842 130.496L306.789 132.127L310.305 117.107Z" fill="#5793CE"/>
<path d="M305.449 133.319C303.905 133.786 301.708 133.266 300.537 132.159C299.365 131.052 299.658 129.785 301.202 129.319C302.747 128.852 304.943 129.372 306.115 130.479C307.287 131.572 306.994 132.852 305.449 133.319Z" fill="#5793CE"/>
<path d="M317.369 96.6868L306.104 94.0425L300.59 117.606L311.854 120.25L317.369 96.6868Z" fill="#5793CE"/>
<path d="M302.786 117.957L301.602 123.038C303.426 124.451 306.288 125.118 308.551 124.665L309.736 119.584C307.912 118.171 305.036 117.504 302.786 117.957Z" fill="#396CAA"/>
<path d="M309.67 122.158C307.167 122.918 303.612 122.078 301.708 120.291C299.804 118.504 300.284 116.438 302.787 115.691C305.29 114.931 308.844 115.771 310.748 117.558C312.652 119.345 312.159 121.398 309.67 122.158Z" fill="#5793CE"/>
<path d="M302.653 129.745C302.48 130.478 301.894 130.665 301.348 130.145C300.803 129.625 300.496 128.612 300.669 127.878C300.843 127.145 301.428 126.958 301.974 127.478C302.52 127.998 302.826 129.012 302.653 129.745Z" fill="#D4ECFF"/>
<path d="M326.307 126.653L319.359 125.022L315.844 140.043L322.791 141.674L326.307 126.653Z" fill="#5793CE"/>
<path d="M321.452 142.853C319.908 143.319 317.711 142.799 316.539 141.693C315.368 140.586 315.661 139.319 317.205 138.852C318.75 138.386 320.946 138.906 322.118 140.013C323.29 141.119 322.997 142.399 321.452 142.853Z" fill="#5793CE"/>
<path d="M333.374 106.22L322.11 103.576L316.596 127.139L327.86 129.783L333.374 106.22Z" fill="#5793CE"/>
<path d="M318.789 127.492L317.604 132.572C319.428 133.985 322.291 134.652 324.554 134.199L325.739 129.118C323.915 127.718 321.039 127.038 318.789 127.492Z" fill="#396CAA"/>
<path d="M325.673 131.705C323.17 132.465 319.615 131.625 317.711 129.838C315.807 128.051 316.287 125.984 318.79 125.238C321.292 124.478 324.847 125.318 326.751 127.105C328.655 128.891 328.162 130.945 325.673 131.705Z" fill="#5793CE"/>
<path d="M318.656 139.292C318.483 140.026 317.897 140.212 317.351 139.692C316.806 139.172 316.499 138.159 316.672 137.426C316.845 136.692 317.431 136.505 317.977 137.026C318.523 137.532 318.829 138.546 318.656 139.292Z" fill="#D4ECFF"/>
<path d="M342.496 136.123L335.548 134.492L332.033 149.512L338.981 151.143L342.496 136.123Z" fill="#5793CE"/>
<path d="M337.628 152.334C336.084 152.8 333.887 152.28 332.715 151.174C331.544 150.067 331.837 148.8 333.381 148.333C334.925 147.867 337.122 148.387 338.294 149.493C339.465 150.587 339.172 151.867 337.628 152.334Z" fill="#5793CE"/>
<path d="M349.548 115.699L338.284 113.055L332.769 136.618L344.034 139.262L349.548 115.699Z" fill="#5793CE"/>
<path d="M334.965 136.972L333.78 142.053C335.604 143.466 338.467 144.133 340.73 143.68L341.915 138.599C340.104 137.186 337.229 136.519 334.965 136.972Z" fill="#396CAA"/>
<path d="M341.849 141.173C339.346 141.933 335.791 141.093 333.887 139.306C331.983 137.519 332.462 135.452 334.965 134.706C337.468 133.945 341.023 134.786 342.927 136.572C344.831 138.359 344.351 140.413 341.849 141.173Z" fill="#5793CE"/>
<path d="M334.846 148.76C334.673 149.494 334.087 149.68 333.541 149.16C332.995 148.64 332.689 147.627 332.862 146.893C333.035 146.16 333.621 145.973 334.167 146.493C334.712 147.013 335.019 148.027 334.846 148.76Z" fill="#D4ECFF"/>
<path d="M225.514 416.89L70.8893 327.483C66.5091 324.949 67.0682 320.535 72.1141 317.615L177.399 256.756C182.444 253.836 190.086 253.516 194.467 256.05L349.091 345.457C353.472 347.991 352.912 352.405 347.867 355.325L242.582 416.183C237.523 419.104 229.894 419.424 225.514 416.89Z" fill="#B2D3EA"/>
<path d="M385.304 187.057L230.68 97.6493C228.882 96.6092 227.058 96.4492 225.434 97.0093L225.447 96.9959L225.168 97.1026C225.141 97.1159 225.128 97.1159 225.101 97.1293L219.509 99.2761L224.529 101.73C224.502 101.823 224.475 101.903 224.462 101.996L199.273 216.819C198.008 222.567 200.537 229.274 204.904 231.807L355.815 319.068L355.282 325.469L361.393 323.095C363.443 322.135 365.081 319.962 365.773 316.868L390.963 202.045C392.214 196.298 389.685 189.59 385.304 187.057Z" fill="#173D7A"/>
<path d="M385.305 187.057L230.68 97.6493C228.883 96.6092 227.059 96.4492 225.434 97.0093L225.448 96.9959L225.168 97.1026C225.141 97.1159 225.128 97.1159 225.102 97.1293L219.51 99.2761L224.529 101.73C224.502 101.823 224.476 101.903 224.462 101.996L207.86 177.669L283.522 236.701L390.204 193.231C389.166 190.564 387.462 188.31 385.305 187.057Z" fill="#396CAA"/>
<path d="M379.487 204.712L391.256 199.698C391.469 195.138 389.578 190.417 386.49 187.897L367.864 195.751L379.487 204.712Z" fill="#274F89"/>
<path d="M349.904 324.855L195.279 235.448C190.899 232.914 188.382 226.207 189.647 220.46L214.837 105.637C216.101 99.8895 220.668 97.276 225.035 99.8095L379.66 189.217C384.04 191.751 386.556 198.458 385.291 204.205L360.102 319.028C358.85 324.789 354.284 327.389 349.904 324.855Z" fill="#D4ECFF"/>
<path d="M346.562 316.321L201.137 232.274C197.129 229.954 194.826 223.82 195.971 218.566L219.017 113.491C220.175 108.237 224.356 105.85 228.35 108.157L373.775 192.204C377.782 194.524 380.085 200.658 378.941 205.912L355.895 310.988C354.736 316.255 350.556 318.628 346.562 316.321Z" fill="white"/>
<path d="M346.562 316.321L201.137 232.274C197.129 229.954 194.826 223.82 195.971 218.566L219.017 113.491C220.175 108.237 224.356 105.85 228.35 108.157L373.775 192.204C377.782 194.524 380.085 200.658 378.941 205.912L355.895 310.988C354.736 316.255 350.556 318.628 346.562 316.321Z" fill="white"/>
<path d="M352.047 328.749L330.905 325.949L194.467 247.049C190.086 244.515 182.458 244.835 177.398 247.756L80.7147 303.64L67.9336 301.947V309.214H67.9469C67.867 310.894 68.8123 312.508 70.8759 313.694L225.501 403.102C229.881 405.636 237.51 405.316 242.569 402.395L347.853 341.537C350.689 339.897 352.114 337.777 352.034 335.79V328.749H352.047Z" fill="#173D7A"/>
<path d="M249.532 278.905L239.84 273.304H133.264L80.7281 303.667L67.947 301.973V309.241H67.9603C67.8805 310.921 68.8257 312.534 70.8893 313.721L225.514 403.129C227.831 404.462 231.053 404.995 234.328 404.782L249.532 278.905Z" fill="#396CAA"/>
<path d="M73.6052 302.72L67.9336 301.974V309.241H67.9469C67.867 310.921 68.8123 312.535 70.8759 313.721L73.6052 315.295V302.72Z" fill="#5793CE"/>
<path d="M227.072 403.862C231.212 405.435 237.15 405.089 241.57 402.955V386.754H227.072V403.862Z" fill="#274F89"/>
<path d="M225.514 395.875L70.8893 306.467C66.5091 303.934 67.0682 299.52 72.1141 296.6L177.399 235.741C182.444 232.821 190.086 232.501 194.467 235.035L349.091 324.442C353.472 326.976 352.912 331.39 347.867 334.31L242.582 395.168C237.523 398.089 229.894 398.409 225.514 395.875Z" fill="#D4ECFF"/>
<path d="M347.867 331.656L242.582 392.514C237.536 395.435 229.894 395.755 225.514 393.221L70.8893 303.813C69.4514 302.987 68.5594 301.947 68.1733 300.84C67.4943 302.907 68.3597 305.014 70.8893 306.467L225.514 395.875C229.894 398.408 237.523 398.088 242.582 395.168L347.867 334.309C351.262 332.349 352.606 329.709 351.807 327.415C351.315 328.922 349.997 330.416 347.867 331.656Z" fill="white"/>
<path d="M136.646 276.865L129.643 272.825C129.083 272.505 129.15 271.931 129.802 271.558L138.057 266.784C138.709 266.411 139.681 266.371 140.254 266.691L147.243 270.731C147.802 271.051 147.736 271.625 147.083 271.998L138.829 276.772C138.19 277.145 137.218 277.185 136.646 276.865Z" fill="#173D7A"/>
<path d="M147.456 283.105L140.467 279.065C139.908 278.745 139.974 278.172 140.627 277.798L148.881 273.024C149.533 272.651 150.505 272.611 151.078 272.931L158.067 276.971C158.627 277.291 158.56 277.865 157.908 278.238L149.653 283.012C149.001 283.399 148.016 283.439 147.456 283.105Z" fill="#173D7A"/>
<path d="M158.267 289.359L151.264 285.319C150.705 284.999 150.772 284.425 151.424 284.052L159.678 279.278C160.331 278.905 161.303 278.865 161.875 279.185L168.865 283.225C169.424 283.545 169.357 284.119 168.705 284.492L160.451 289.266C159.798 289.639 158.826 289.679 158.267 289.359Z" fill="#173D7A"/>
<path d="M173.205 284.199L166.202 280.158C165.642 279.838 165.709 279.265 166.361 278.892L173.298 274.878C173.95 274.505 174.922 274.465 175.495 274.785L182.498 278.825C183.057 279.145 182.99 279.718 182.338 280.092L175.401 284.105C174.749 284.479 173.764 284.519 173.205 284.199Z" fill="#173D7A"/>
<path d="M184.002 290.439L177.013 286.399C176.454 286.079 176.52 285.506 177.172 285.132L184.109 281.119C184.761 280.745 185.733 280.705 186.306 281.025L193.295 285.066C193.854 285.386 193.788 285.959 193.136 286.332L186.199 290.346C185.547 290.733 184.575 290.773 184.002 290.439Z" fill="#173D7A"/>
<path d="M194.813 296.693L187.81 292.653C187.251 292.333 187.317 291.76 187.97 291.386L194.906 287.373C195.559 286.999 196.53 286.959 197.103 287.279L204.106 291.32C204.665 291.64 204.599 292.213 203.946 292.586L197.01 296.6C196.357 296.973 195.372 297.013 194.813 296.693Z" fill="#173D7A"/>
<path d="M205.61 302.947L198.621 298.907C198.061 298.587 198.128 298.014 198.78 297.64L205.717 293.626C206.369 293.253 207.341 293.213 207.914 293.533L214.903 297.573C215.462 297.894 215.396 298.467 214.743 298.84L207.807 302.854C207.155 303.227 206.183 303.267 205.61 302.947Z" fill="#173D7A"/>
<path d="M216.421 309.188L209.418 305.147C208.859 304.827 208.925 304.254 209.578 303.88L216.514 299.867C217.167 299.493 218.138 299.453 218.711 299.773L225.714 303.814C226.273 304.134 226.206 304.707 225.554 305.08L218.618 309.094C217.965 309.468 216.98 309.508 216.421 309.188Z" fill="#173D7A"/>
<path d="M227.232 315.441L220.242 311.401C219.683 311.081 219.75 310.508 220.402 310.134L227.338 306.121C227.991 305.747 228.963 305.707 229.535 306.027L236.525 310.068C237.084 310.388 237.017 310.961 236.365 311.334L229.429 315.348C228.763 315.721 227.791 315.761 227.232 315.441Z" fill="#173D7A"/>
<path d="M238.029 321.682L231.026 317.642C230.467 317.322 230.533 316.748 231.186 316.375L238.122 312.361C238.774 311.988 239.746 311.948 240.319 312.268L247.322 316.308C247.881 316.628 247.814 317.202 247.162 317.575L240.226 321.589C239.573 321.962 238.588 322.016 238.029 321.682Z" fill="#173D7A"/>
<path d="M248.84 327.936L241.837 323.896C241.278 323.576 241.344 323.002 241.997 322.629L248.933 318.615C249.585 318.242 250.557 318.202 251.13 318.522L258.133 322.562C258.692 322.882 258.625 323.456 257.973 323.829L251.037 327.843C250.371 328.216 249.399 328.256 248.84 327.936Z" fill="#173D7A"/>
<path d="M259.637 334.176L252.634 330.136C252.075 329.816 252.142 329.243 252.794 328.869L259.73 324.855C260.383 324.482 261.355 324.442 261.927 324.762L268.93 328.803C269.489 329.123 269.423 329.696 268.77 330.069L261.834 334.083C261.182 334.47 260.196 334.51 259.637 334.176Z" fill="#173D7A"/>
<path d="M270.448 340.43L263.445 336.39C262.886 336.07 262.952 335.496 263.605 335.123L270.541 331.109C271.193 330.736 272.165 330.696 272.738 331.016L279.741 335.056C280.3 335.376 280.233 335.95 279.581 336.323L272.645 340.337C271.992 340.71 271.007 340.75 270.448 340.43Z" fill="#173D7A"/>
<path d="M189.128 281.239L182.138 277.198C181.579 276.878 181.646 276.305 182.298 275.932L189.234 271.918C189.887 271.545 190.859 271.505 191.431 271.825L198.421 275.865C198.98 276.185 198.913 276.758 198.261 277.132L191.325 281.145C190.672 281.519 189.687 281.559 189.128 281.239Z" fill="#396CAA"/>
<path d="M178.158 274.905L171.168 270.864C170.609 270.544 170.675 269.971 171.328 269.598L178.264 265.584C178.917 265.211 179.888 265.171 180.461 265.491L187.451 269.531C188.01 269.851 187.943 270.424 187.291 270.798L180.354 274.811C179.702 275.185 178.717 275.225 178.158 274.905Z" fill="#396CAA"/>
<path d="M167.174 268.544L152.103 259.837C151.543 259.517 151.61 258.943 152.262 258.57L159.199 254.556C159.851 254.183 160.823 254.143 161.395 254.463L176.467 263.17C177.026 263.49 176.959 264.064 176.307 264.437L169.37 268.451C168.718 268.837 167.733 268.877 167.174 268.544Z" fill="#173D7A"/>
<path d="M174.856 260.823L162.634 253.756C162.075 253.436 162.141 252.863 162.794 252.489L169.73 248.476C170.382 248.102 171.354 248.062 171.927 248.382L184.149 255.45C184.708 255.77 184.641 256.343 183.989 256.716L177.052 260.73C176.4 261.103 175.415 261.143 174.856 260.823Z" fill="#173D7A"/>
<path d="M199.925 287.492L192.936 283.452C192.376 283.132 192.443 282.558 193.095 282.185L200.032 278.171C200.684 277.798 201.656 277.758 202.228 278.078L209.218 282.118C209.777 282.438 209.711 283.012 209.058 283.385L202.122 287.399C201.47 287.772 200.484 287.812 199.925 287.492Z" fill="#396CAA"/>
<path d="M210.736 293.733L203.747 289.693C203.187 289.373 203.254 288.799 203.906 288.426L210.843 284.412C211.495 284.039 212.467 283.999 213.039 284.319L220.029 288.359C220.588 288.679 220.522 289.253 219.869 289.626L212.933 293.64C212.281 294.013 211.295 294.066 210.736 293.733Z" fill="#173D7A"/>
<path d="M221.534 299.987L214.544 295.946C213.985 295.626 214.051 295.053 214.704 294.68L221.64 290.666C222.292 290.293 223.264 290.253 223.837 290.573L230.827 294.613C231.386 294.933 231.319 295.506 230.667 295.88L223.73 299.893C223.078 300.267 222.093 300.307 221.534 299.987Z" fill="#173D7A"/>
<path d="M232.344 306.228L225.354 302.187C224.795 301.867 224.862 301.294 225.514 300.92L232.451 296.907C233.103 296.533 234.075 296.493 234.647 296.813L241.637 300.854C242.196 301.174 242.13 301.747 241.477 302.121L234.541 306.134C233.889 306.521 232.903 306.561 232.344 306.228Z" fill="#173D7A"/>
<path d="M243.142 312.481L236.152 308.427C235.593 308.107 235.659 307.534 236.312 307.161L243.248 303.147C243.9 302.774 244.872 302.734 245.445 303.054L252.434 307.094C252.994 307.414 252.927 307.987 252.275 308.361L245.338 312.374C244.686 312.761 243.701 312.801 243.142 312.481Z" fill="#173D7A"/>
<path d="M253.952 318.722L246.949 314.681C246.39 314.361 246.457 313.788 247.109 313.415L254.045 309.401C254.698 309.028 255.67 308.988 256.242 309.308L263.245 313.348C263.804 313.668 263.738 314.241 263.085 314.615L256.149 318.628C255.497 319.015 254.511 319.055 253.952 318.722Z" fill="#173D7A"/>
<path d="M264.749 324.976L257.76 320.935C257.201 320.615 257.267 320.042 257.92 319.668L264.856 315.655C265.508 315.281 266.48 315.241 267.053 315.561L274.042 319.602C274.602 319.922 274.535 320.495 273.883 320.869L266.946 324.882C266.294 325.256 265.309 325.296 264.749 324.976Z" fill="#173D7A"/>
<path d="M275.56 331.216L268.557 327.176C267.998 326.856 268.065 326.283 268.717 325.909L275.653 321.896C276.306 321.522 277.278 321.482 277.85 321.802L284.853 325.843C285.412 326.163 285.346 326.736 284.693 327.109L277.757 331.123C277.105 331.51 276.119 331.55 275.56 331.216Z" fill="#173D7A"/>
<path d="M286.358 337.47L279.368 333.429C278.809 333.109 278.876 332.536 279.528 332.163L286.464 328.149C287.117 327.776 288.089 327.736 288.661 328.056L295.651 332.096C296.21 332.416 296.143 332.989 295.491 333.363L288.555 337.376C287.902 337.75 286.93 337.79 286.358 337.47Z" fill="#173D7A"/>
<path d="M305.569 348.578L290.298 339.75C289.739 339.43 289.806 338.857 290.458 338.483L297.395 334.47C298.047 334.096 299.019 334.056 299.591 334.376L314.862 343.204C315.421 343.524 315.355 344.097 314.702 344.471L307.766 348.484C307.113 348.858 306.128 348.898 305.569 348.578Z" fill="#173D7A"/>
<path d="M326.605 336.417L313.717 328.963C313.158 328.643 313.225 328.069 313.877 327.696L320.813 323.682C321.466 323.309 322.438 323.269 323.01 323.589L335.898 331.043C336.457 331.363 336.39 331.936 335.738 332.31L328.802 336.323C328.149 336.697 327.164 336.737 326.605 336.417Z" fill="#173D7A"/>
<path d="M218.844 286.266L211.841 282.225C211.282 281.905 211.349 281.332 212.001 280.959L218.937 276.945C219.59 276.571 220.562 276.531 221.134 276.851L228.137 280.892C228.696 281.212 228.63 281.785 227.977 282.159L221.041 286.172C220.389 286.546 219.403 286.586 218.844 286.266Z" fill="#173D7A"/>
<path d="M207.78 279.865L200.777 275.825C200.218 275.505 200.285 274.931 200.937 274.558L207.874 270.544C208.526 270.171 209.498 270.131 210.07 270.451L217.073 274.491C217.632 274.811 217.566 275.385 216.914 275.758L209.977 279.772C209.311 280.145 208.34 280.185 207.78 279.865Z" fill="#173D7A"/>
<path d="M196.704 273.464L189.701 269.424C189.142 269.104 189.208 268.531 189.86 268.157L196.797 264.144C197.449 263.77 198.421 263.73 198.994 264.05L205.997 268.091C206.556 268.411 206.489 268.984 205.837 269.357L198.9 273.371C198.248 273.744 197.263 273.784 196.704 273.464Z" fill="#396CAA"/>
<path d="M185.626 267.051L178.637 263.01C178.078 262.69 178.144 262.117 178.796 261.744L185.733 257.73C186.385 257.357 187.357 257.317 187.93 257.637L194.919 261.677C195.478 261.997 195.412 262.57 194.76 262.944L187.823 266.957C187.171 267.344 186.186 267.384 185.626 267.051Z" fill="#173D7A"/>
<path d="M229.655 292.52L222.665 288.479C222.106 288.159 222.172 287.586 222.825 287.212L229.761 283.199C230.414 282.825 231.385 282.785 231.958 283.105L238.948 287.146C239.507 287.466 239.44 288.039 238.788 288.412L231.851 292.426C231.199 292.8 230.214 292.84 229.655 292.52Z" fill="#173D7A"/>
<path d="M240.452 298.76L233.449 294.72C232.89 294.4 232.957 293.827 233.609 293.453L240.545 289.439C241.198 289.066 242.17 289.026 242.742 289.346L249.745 293.386C250.304 293.706 250.238 294.28 249.585 294.653L242.649 298.667C241.997 299.04 241.025 299.08 240.452 298.76Z" fill="#173D7A"/>
<path d="M251.263 305.014L244.273 300.973C243.714 300.653 243.78 300.08 244.433 299.707L251.369 295.693C252.021 295.32 252.993 295.28 253.566 295.6L260.556 299.64C261.115 299.96 261.048 300.533 260.396 300.907L253.459 304.92C252.807 305.294 251.822 305.334 251.263 305.014Z" fill="#173D7A"/>
<path d="M262.06 311.254L255.057 307.214C254.498 306.894 254.565 306.321 255.217 305.947L262.153 301.934C262.806 301.56 263.778 301.52 264.35 301.84L271.353 305.881C271.912 306.201 271.846 306.774 271.193 307.147L264.257 311.161C263.604 311.534 262.633 311.574 262.06 311.254Z" fill="#173D7A"/>
<path d="M272.871 317.508L265.881 313.468C265.322 313.148 265.389 312.575 266.041 312.201L272.978 308.188C273.63 307.814 274.602 307.774 275.174 308.094L282.164 312.135C282.723 312.455 282.657 313.028 282.004 313.401L275.068 317.415C274.415 317.788 273.43 317.828 272.871 317.508Z" fill="#173D7A"/>
<path d="M283.668 323.749L276.679 319.709C276.12 319.389 276.186 318.815 276.838 318.442L283.775 314.428C284.427 314.055 285.399 314.015 285.972 314.335L292.961 318.375C293.52 318.695 293.454 319.269 292.802 319.642L285.865 323.656C285.213 324.029 284.241 324.082 283.668 323.749Z" fill="#173D7A"/>
<path d="M294.479 330.003L287.489 325.963C286.93 325.643 286.997 325.069 287.649 324.696L294.585 320.682C295.238 320.309 296.21 320.269 296.782 320.589L303.772 324.629C304.331 324.949 304.264 325.523 303.612 325.896L296.676 329.91C296.023 330.283 295.038 330.323 294.479 330.003Z" fill="#173D7A"/>
<path d="M305.276 336.243L298.287 332.203C297.727 331.883 297.794 331.309 298.446 330.936L305.383 326.922C306.035 326.549 307.007 326.509 307.58 326.829L314.569 330.869C315.128 331.189 315.062 331.763 314.409 332.136L307.473 336.15C306.821 336.537 305.849 336.577 305.276 336.243Z" fill="#173D7A"/>
<path d="M316.087 342.497L309.097 338.457C308.538 338.137 308.605 337.563 309.257 337.19L316.193 333.176C316.846 332.803 317.818 332.763 318.39 333.083L325.38 337.123C325.939 337.443 325.872 338.017 325.22 338.39L318.284 342.404C317.631 342.777 316.646 342.817 316.087 342.497Z" fill="#173D7A"/>
<path d="M213.159 270.811L206.156 266.771C205.597 266.451 205.664 265.877 206.316 265.504L213.252 261.49C213.905 261.117 214.877 261.077 215.449 261.397L222.452 265.437C223.011 265.757 222.945 266.331 222.292 266.704L215.356 270.718C214.704 271.091 213.718 271.131 213.159 270.811Z" fill="#173D7A"/>
<path d="M202.402 264.597L195.412 260.557C194.853 260.237 194.92 259.663 195.572 259.29L202.508 255.276C203.161 254.903 204.133 254.863 204.705 255.183L211.695 259.223C212.254 259.543 212.187 260.117 211.535 260.49L204.599 264.504C203.946 264.877 202.974 264.917 202.402 264.597Z" fill="#173D7A"/>
<path d="M191.658 258.383L184.668 254.343C184.109 254.023 184.175 253.45 184.828 253.076L191.764 249.063C192.417 248.689 193.388 248.649 193.961 248.969L200.951 253.01C201.51 253.33 201.443 253.903 200.791 254.276L193.854 258.29C193.202 258.663 192.217 258.703 191.658 258.383Z" fill="#173D7A"/>
<path d="M180.914 252.156L173.911 248.116C173.351 247.796 173.418 247.222 174.07 246.849L181.007 242.835C181.659 242.462 182.631 242.422 183.204 242.742L190.207 246.782C190.766 247.103 190.699 247.676 190.047 248.049L183.11 252.063C182.445 252.45 181.473 252.49 180.914 252.156Z" fill="#173D7A"/>
<path d="M191.964 245.769L184.974 241.728C184.415 241.408 184.482 240.835 185.134 240.462L187.424 239.142C188.076 238.768 189.048 238.728 189.621 239.048L196.624 243.089C197.183 243.409 197.116 243.982 196.464 244.355L194.174 245.676C193.508 246.049 192.523 246.089 191.964 245.769Z" fill="#173D7A"/>
<path d="M205.997 253.876L199.007 249.836C198.448 249.516 198.514 248.943 199.167 248.569L201.457 247.249C202.109 246.876 203.081 246.836 203.653 247.156L210.643 251.196C211.202 251.516 211.136 252.089 210.483 252.463L208.193 253.783C207.541 254.17 206.556 254.21 205.997 253.876Z" fill="#173D7A"/>
<path d="M216.701 260.077L209.711 256.037C209.152 255.717 209.218 255.143 209.871 254.77L212.161 253.45C212.813 253.076 213.785 253.036 214.357 253.356L221.347 257.397C221.906 257.717 221.84 258.29 221.187 258.663L218.897 259.984C218.245 260.357 217.26 260.397 216.701 260.077Z" fill="#173D7A"/>
<path d="M227.405 266.264L220.402 262.224C219.843 261.904 219.909 261.33 220.562 260.957L222.852 259.637C223.504 259.263 224.476 259.223 225.048 259.543L232.038 263.584C232.597 263.904 232.531 264.477 231.878 264.85L229.588 266.171C228.949 266.544 227.964 266.584 227.405 266.264Z" fill="#173D7A"/>
<path d="M238.109 272.451L231.106 268.411C230.547 268.091 230.613 267.517 231.266 267.144L233.556 265.824C234.208 265.45 235.18 265.41 235.752 265.73L242.742 269.771C243.301 270.091 243.235 270.664 242.582 271.038L240.292 272.358C239.653 272.744 238.668 272.784 238.109 272.451Z" fill="#173D7A"/>
<path d="M297.874 307.014L290.871 302.974C290.312 302.654 290.378 302.08 291.031 301.707L293.321 300.387C293.973 300.013 294.945 299.973 295.518 300.293L302.507 304.334C303.066 304.654 303 305.227 302.347 305.601L300.058 306.921C299.418 307.294 298.433 307.347 297.874 307.014Z" fill="#173D7A"/>
<path d="M308.578 313.201L301.588 309.161C301.029 308.841 301.096 308.268 301.748 307.894L304.038 306.574C304.69 306.201 305.662 306.161 306.235 306.481L313.224 310.521C313.784 310.841 313.717 311.415 313.065 311.788L310.775 313.108C310.122 313.495 309.151 313.535 308.578 313.201Z" fill="#173D7A"/>
<path d="M319.296 319.402L312.306 315.361C311.747 315.041 311.814 314.468 312.466 314.095L314.756 312.774C315.408 312.401 316.38 312.361 316.953 312.681L323.942 316.721C324.501 317.041 324.435 317.615 323.783 317.988L321.493 319.308C320.827 319.682 319.855 319.722 319.296 319.402Z" fill="#173D7A"/>
<path d="M330 325.589L322.997 321.549C322.437 321.229 322.504 320.655 323.156 320.282L325.446 318.962C326.099 318.589 327.071 318.549 327.643 318.869L334.633 322.909C335.192 323.229 335.125 323.802 334.473 324.176L332.183 325.496C331.544 325.869 330.559 325.909 330 325.589Z" fill="#173D7A"/>
<path d="M223.97 277.065L216.98 273.025C216.421 272.705 216.487 272.131 217.14 271.758L224.076 267.744C224.729 267.371 225.7 267.331 226.273 267.651L233.263 271.691C233.822 272.011 233.755 272.585 233.103 272.958L226.166 276.972C225.501 277.345 224.529 277.385 223.97 277.065Z" fill="#173D7A"/>
<path d="M234.767 283.305L227.764 279.265C227.205 278.945 227.272 278.371 227.924 277.998L234.86 273.984C235.513 273.611 236.485 273.571 237.057 273.891L244.06 277.931C244.619 278.251 244.553 278.825 243.9 279.198L236.964 283.212C236.312 283.585 235.326 283.639 234.767 283.305Z" fill="#173D7A"/>
<path d="M245.578 289.559L238.588 285.519C238.029 285.199 238.096 284.625 238.748 284.252L245.685 280.238C246.337 279.865 247.309 279.825 247.881 280.145L254.871 284.185C255.43 284.505 255.364 285.079 254.711 285.452L247.775 289.466C247.109 289.839 246.137 289.879 245.578 289.559Z" fill="#173D7A"/>
<path d="M256.375 295.8L249.386 291.759C248.827 291.439 248.893 290.866 249.545 290.493L256.482 286.479C257.134 286.106 258.106 286.066 258.679 286.386L265.668 290.426C266.228 290.746 266.161 291.319 265.509 291.693L258.572 295.706C257.92 296.093 256.935 296.133 256.375 295.8Z" fill="#173D7A"/>
<path d="M267.186 302.054L260.196 298.013C259.637 297.693 259.704 297.12 260.356 296.747L267.292 292.733C267.945 292.36 268.917 292.32 269.489 292.64L276.479 296.68C277.038 297 276.972 297.573 276.319 297.947L269.383 301.96C268.717 302.334 267.745 302.374 267.186 302.054Z" fill="#173D7A"/>
<path d="M277.983 308.294L270.994 304.254C270.434 303.934 270.501 303.36 271.153 302.987L278.09 298.973C278.742 298.6 279.714 298.56 280.287 298.88L287.276 302.92C287.835 303.24 287.769 303.814 287.116 304.187L280.18 308.201C279.528 308.587 278.542 308.627 277.983 308.294Z" fill="#173D7A"/>
<path d="M288.794 314.548L281.791 310.508C281.232 310.187 281.298 309.614 281.951 309.241L288.887 305.227C289.54 304.854 290.511 304.814 291.084 305.134L298.087 309.174C298.646 309.494 298.58 310.067 297.927 310.441L290.991 314.455C290.338 314.828 289.353 314.868 288.794 314.548Z" fill="#173D7A"/>
<path d="M299.591 320.789L292.602 316.748C292.042 316.428 292.109 315.855 292.761 315.481L299.698 311.468C300.35 311.094 301.322 311.054 301.894 311.374L308.884 315.415C309.443 315.735 309.377 316.308 308.724 316.682L301.788 320.695C301.136 321.082 300.15 321.122 299.591 320.789Z" fill="#173D7A"/>
<path d="M310.402 327.042L303.399 323.002C302.84 322.682 302.906 322.109 303.559 321.735L310.495 317.722C311.147 317.348 312.119 317.308 312.692 317.628L319.695 321.669C320.254 321.989 320.187 322.562 319.535 322.935L312.599 326.949C311.946 327.323 310.961 327.363 310.402 327.042Z" fill="#173D7A"/>
<path d="M162.194 277.825L141.585 265.904C141.026 265.584 141.092 265.011 141.745 264.637L148.681 260.624C149.333 260.25 150.305 260.21 150.878 260.53L171.487 272.451C172.047 272.771 171.98 273.345 171.328 273.718L164.391 277.732C163.739 278.118 162.754 278.158 162.194 277.825Z" fill="#173D7A"/>
<path d="M294.932 354.592L274.322 342.671C273.763 342.351 273.83 341.777 274.482 341.404L281.418 337.39C282.071 337.017 283.043 336.977 283.615 337.297L304.225 349.218C304.784 349.538 304.717 350.111 304.065 350.485L297.129 354.498C296.476 354.872 295.491 354.912 294.932 354.592Z" fill="#173D7A"/>
<path d="M251.716 343.404L244.726 339.363C244.167 339.043 244.233 338.47 244.886 338.097L253.14 333.323C253.793 332.949 254.765 332.909 255.337 333.229L262.327 337.27C262.886 337.59 262.819 338.163 262.167 338.537L253.912 343.31C253.26 343.684 252.275 343.724 251.716 343.404Z" fill="#173D7A"/>
<path d="M173.258 298.027L162.075 291.56C161.516 291.24 161.582 290.666 162.234 290.293L170.489 285.519C171.141 285.146 172.113 285.106 172.686 285.426L183.869 291.893C184.428 292.213 184.362 292.786 183.709 293.16L175.455 297.933C174.803 298.32 173.817 298.36 173.258 298.027Z" fill="#173D7A"/>
<path d="M241.304 337.376L230.121 330.909C229.561 330.589 229.628 330.016 230.28 329.642L238.535 324.869C239.187 324.495 240.159 324.455 240.732 324.775L251.915 331.243C252.474 331.563 252.408 332.136 251.755 332.509L243.501 337.283C242.848 337.67 241.877 337.71 241.304 337.376Z" fill="#173D7A"/>
<path d="M188.848 307.041L177.665 300.574C177.106 300.254 177.172 299.68 177.825 299.307L186.079 294.533C186.732 294.16 187.704 294.12 188.276 294.44L199.459 300.907C200.019 301.227 199.952 301.8 199.3 302.174L191.045 306.948C190.393 307.334 189.408 307.374 188.848 307.041Z" fill="#173D7A"/>
<path d="M188.342 294.479L236.991 322.615C237.59 322.962 237.59 323.535 236.991 323.882L228.563 328.749C227.964 329.096 226.979 329.096 226.38 328.749L177.731 300.613L188.342 294.479Z" fill="#173D7A"/>
<path d="M281.911 354.725L289.699 359.232C290.165 359.498 290.099 359.965 289.566 360.272L286.185 362.219C285.652 362.525 284.853 362.565 284.387 362.299L276.599 357.792C276.133 357.525 276.199 357.058 276.732 356.752L280.114 354.805C280.646 354.498 281.458 354.458 281.911 354.725Z" fill="#173D7A"/>
<path d="M271.02 348.431L278.809 352.938C279.275 353.205 279.208 353.671 278.676 353.978L275.294 355.925C274.761 356.232 273.963 356.272 273.497 356.005L265.708 351.498C265.242 351.231 265.309 350.764 265.841 350.458L269.223 348.511C269.755 348.191 270.568 348.164 271.02 348.431Z" fill="#173D7A"/>
<path d="M260.223 342.177L268.011 346.684C268.477 346.951 268.411 347.417 267.878 347.724L264.497 349.671C263.964 349.978 263.165 350.018 262.699 349.751L254.911 345.244C254.445 344.977 254.511 344.51 255.044 344.204L258.426 342.257C258.958 341.95 259.757 341.91 260.223 342.177Z" fill="#173D7A"/>
<path d="M276.985 344.977L284.773 349.484C285.239 349.751 285.172 350.218 284.64 350.524L281.258 352.471C280.726 352.778 279.927 352.818 279.461 352.551L271.672 348.044C271.206 347.777 271.273 347.311 271.806 347.004L275.187 345.057C275.72 344.75 276.532 344.71 276.985 344.977Z" fill="#173D7A"/>
<path d="M262.672 153.467L252.327 147.493C251.369 146.933 250.81 145.56 251.063 144.426C251.329 143.293 252.314 142.813 253.273 143.373L263.617 149.347C264.576 149.907 265.135 151.28 264.882 152.414C264.616 153.547 263.631 154.027 262.672 153.467Z" fill="#D4ECFF"/>
<path d="M287.303 167.708L272.058 158.894C271.1 158.334 270.541 156.961 270.794 155.827C271.06 154.694 272.045 154.214 273.004 154.774L288.248 163.588C289.206 164.148 289.766 165.521 289.513 166.655C289.246 167.788 288.261 168.268 287.303 167.708Z" fill="#D4ECFF"/>
<path d="M244.645 201.805L234.301 195.831C233.342 195.271 232.783 193.897 233.036 192.764C233.302 191.63 234.287 191.15 235.246 191.71L245.591 197.684C246.549 198.244 247.108 199.618 246.855 200.751C246.602 201.885 245.604 202.365 244.645 201.805Z" fill="#D4ECFF"/>
<path d="M266.6 214.499L251.356 205.685C250.397 205.125 249.838 203.751 250.091 202.618C250.357 201.484 251.343 201.004 252.301 201.564L267.545 210.379C268.504 210.939 269.063 212.312 268.81 213.445C268.557 214.579 267.559 215.059 266.6 214.499Z" fill="#D4ECFF"/>
<path d="M232.171 145.626L225.714 141.893C224.755 141.333 224.196 139.959 224.449 138.826C224.715 137.692 225.7 137.212 226.659 137.772L233.116 141.506C234.075 142.066 234.634 143.44 234.381 144.573C234.128 145.706 233.129 146.173 232.171 145.626Z" fill="#D4ECFF"/>
<path d="M252.074 166.935L232.344 155.521C231.385 154.961 230.826 153.587 231.079 152.454C231.345 151.32 232.33 150.84 233.289 151.4L253.02 162.815C253.978 163.375 254.537 164.748 254.285 165.882C254.032 167.015 253.033 167.482 252.074 166.935Z" fill="#D4ECFF"/>
<path d="M234.82 176.536L228.363 172.802C227.405 172.242 226.845 170.868 227.098 169.735C227.365 168.602 228.35 168.122 229.308 168.682L235.766 172.415C236.724 172.975 237.283 174.349 237.03 175.482C236.764 176.616 235.779 177.096 234.82 176.536Z" fill="#D4ECFF"/>
<path d="M269.928 236.008L252.674 226.033C251.715 225.473 251.156 224.1 251.409 222.966C251.675 221.833 252.66 221.353 253.619 221.913L270.873 231.887C271.832 232.447 272.391 233.821 272.138 234.954C271.872 236.088 270.887 236.568 269.928 236.008Z" fill="#D4ECFF"/>
<path d="M228.523 192.484L224.382 190.084C223.424 189.524 222.864 188.15 223.117 187.017C223.384 185.883 224.369 185.403 225.327 185.963L229.468 188.364C230.427 188.924 230.986 190.297 230.733 191.43C230.48 192.564 229.481 193.031 228.523 192.484Z" fill="#D4ECFF"/>
<path d="M225.54 210.339L220.388 207.365C219.429 206.805 218.87 205.431 219.123 204.298C219.39 203.165 220.375 202.685 221.333 203.245L226.486 206.218C227.444 206.778 228.003 208.152 227.75 209.285C227.498 210.419 226.499 210.899 225.54 210.339Z" fill="#D4ECFF"/>
<path d="M245.577 221.926L231.997 214.072C231.039 213.512 230.48 212.139 230.733 211.006C230.999 209.872 231.984 209.392 232.943 209.952L246.523 217.806C247.481 218.366 248.04 219.74 247.787 220.873C247.521 222.007 246.536 222.473 245.577 221.926Z" fill="#D4ECFF"/>
<path d="M228.163 221.647L218.404 216.006C217.446 215.446 216.886 214.073 217.139 212.939C217.406 211.806 218.391 211.326 219.349 211.886L229.108 217.526C230.067 218.086 230.626 219.46 230.373 220.593C230.107 221.727 229.122 222.207 228.163 221.647Z" fill="#D4ECFF"/>
<path d="M284.733 244.608L278.462 240.981C277.504 240.421 276.945 239.048 277.197 237.914C277.464 236.781 278.449 236.301 279.408 236.861L285.678 240.488C286.637 241.048 287.196 242.421 286.943 243.555C286.677 244.688 285.692 245.168 284.733 244.608Z" fill="#D4ECFF"/>
<path d="M258.851 190.43L241.597 180.456C240.638 179.896 240.079 178.523 240.332 177.389C240.598 176.256 241.583 175.776 242.542 176.336L259.796 186.31C260.755 186.87 261.314 188.244 261.061 189.377C260.795 190.51 259.81 190.977 258.851 190.43Z" fill="#D4ECFF"/>
<path d="M260.422 181.549L230.36 164.161C229.401 163.601 228.842 162.228 229.095 161.094C229.361 159.961 230.346 159.481 231.305 160.041L261.367 177.429C262.326 177.989 262.885 179.363 262.632 180.496C262.366 181.63 261.381 182.096 260.422 181.549Z" fill="#D4ECFF"/>
<path d="M243.621 191.417L226.366 181.443C225.407 180.883 224.848 179.51 225.101 178.376C225.368 177.243 226.353 176.763 227.311 177.323L244.566 187.297C245.524 187.857 246.084 189.23 245.831 190.364C245.564 191.497 244.579 191.977 243.621 191.417Z" fill="#D4ECFF"/>
<path d="M271.925 197.991L265.655 194.364C264.696 193.804 264.137 192.43 264.39 191.297C264.656 190.164 265.641 189.684 266.6 190.244L272.871 193.871C273.829 194.431 274.388 195.804 274.135 196.938C273.882 198.071 272.884 198.551 271.925 197.991Z" fill="#D4ECFF"/>
<path d="M333.794 194.604L296.675 173.135C295.717 172.575 295.157 171.202 295.41 170.069C295.677 168.935 296.662 168.455 297.62 169.015L334.739 190.484C335.697 191.044 336.257 192.417 336.004 193.551C335.751 194.684 334.752 195.151 333.794 194.604Z" fill="#D4ECFF"/>
<path d="M243.128 210.712L222.385 198.724C221.427 198.164 220.867 196.791 221.12 195.657C221.387 194.524 222.372 194.044 223.33 194.604L244.073 206.592C245.032 207.152 245.591 208.525 245.338 209.659C245.072 210.792 244.086 211.272 243.128 210.712Z" fill="#D4ECFF"/>
<path d="M242.955 142.066L227.711 133.252C226.752 132.692 226.193 131.319 226.446 130.185C226.712 129.052 227.697 128.572 228.656 129.132L243.9 137.946C244.859 138.506 245.418 139.879 245.165 141.013C244.899 142.146 243.914 142.613 242.955 142.066Z" fill="#D4ECFF"/>
<path d="M225.447 229.874L207.793 219.659C206.835 219.099 206.276 217.726 206.529 216.592C206.795 215.459 207.78 214.979 208.739 215.539L226.393 225.753C227.351 226.313 227.91 227.687 227.657 228.82C227.391 229.954 226.406 230.42 225.447 229.874Z" fill="#D4ECFF"/>
<path d="M344.937 267.143L334.593 261.17C333.634 260.61 333.075 259.236 333.328 258.103C333.594 256.969 334.579 256.489 335.538 257.049L345.883 263.023C346.841 263.583 347.4 264.957 347.147 266.09C346.894 267.223 345.896 267.704 344.937 267.143Z" fill="#D4ECFF"/>
<path d="M352.366 232.274L332.636 220.86C331.677 220.3 331.118 218.926 331.371 217.793C331.637 216.659 332.622 216.179 333.581 216.739L353.312 228.154C354.27 228.714 354.83 230.087 354.577 231.22C354.324 232.354 353.325 232.821 352.366 232.274Z" fill="#D4ECFF"/>
<path d="M335.112 241.874L328.655 238.141C327.696 237.581 327.137 236.207 327.39 235.074C327.656 233.94 328.641 233.46 329.6 234.02L336.057 237.754C337.016 238.314 337.575 239.688 337.322 240.821C337.056 241.954 336.07 242.435 335.112 241.874Z" fill="#D4ECFF"/>
<path d="M328.814 257.823L324.674 255.423C323.715 254.863 323.156 253.489 323.409 252.356C323.675 251.222 324.66 250.742 325.619 251.302L329.76 253.702C330.718 254.262 331.277 255.636 331.024 256.769C330.758 257.903 329.773 258.369 328.814 257.823Z" fill="#D4ECFF"/>
<path d="M359.129 255.769L341.875 245.795C340.916 245.235 340.357 243.862 340.61 242.728C340.876 241.595 341.862 241.115 342.82 241.675L360.075 251.649C361.033 252.209 361.592 253.582 361.339 254.716C361.086 255.849 360.088 256.316 359.129 255.769Z" fill="#D4ECFF"/>
<path d="M360.714 246.888L330.652 229.5C329.693 228.94 329.134 227.567 329.387 226.433C329.653 225.3 330.638 224.82 331.597 225.38L361.659 242.768C362.618 243.328 363.177 244.702 362.924 245.835C362.658 246.968 361.673 247.435 360.714 246.888Z" fill="#D4ECFF"/>
<path d="M343.912 256.756L326.658 246.782C325.699 246.222 325.14 244.848 325.393 243.715C325.659 242.582 326.644 242.102 327.603 242.662L344.857 252.636C345.816 253.196 346.375 254.569 346.122 255.703C345.856 256.836 344.871 257.316 343.912 256.756Z" fill="#D4ECFF"/>
<path d="M343.406 276.051L322.663 264.063C321.705 263.503 321.146 262.13 321.399 260.996C321.665 259.863 322.65 259.383 323.609 259.943L344.351 271.931C345.31 272.491 345.869 273.864 345.616 274.997C345.363 276.131 344.365 276.611 343.406 276.051Z" fill="#D4ECFF"/>
<path d="M389.832 151.641L406.114 145.147L402.453 121.145L394.545 128.159L389.832 151.641Z" fill="#5793CE"/>
<path d="M280.779 39.7111L320.148 23.9497C320.148 23.9497 312.892 39.6711 312.879 39.7111C312.865 39.7377 291.856 44.5781 291.856 44.5781L280.779 39.7111Z" fill="#5793CE"/>
<path d="M404.223 105.037C402.146 103.837 399.99 103.13 397.846 102.837C400.016 88.3286 393.759 73.0073 381.75 66.0601C378.142 63.9666 374.201 62.7531 370.5 62.5131C375.213 44.9249 367.93 24.9366 353.125 16.3625C345.39 11.8821 337.016 11.3487 329.64 14.0956V14.0823L329.281 14.229C329.094 14.309 328.908 14.3757 328.708 14.4557L316.38 19.3094L321.292 23.5498C314.622 25.6566 308.858 31.0571 305.809 39.0444C300.19 53.7657 305.955 71.6739 318.683 79.0345L394.318 142.893C403.877 148.427 409.669 146.12 413.889 135.053C418.109 124.012 413.782 110.557 404.223 105.037Z" fill="#5793CE"/>
<path d="M309.257 32.564L351.688 15.5893C344.352 11.8423 336.55 11.5222 329.641 14.0958V14.0825L329.281 14.2291C329.095 14.3091 328.908 14.3758 328.709 14.4558L316.38 19.3096L321.293 23.5499C316.633 25.0301 312.413 28.1237 309.257 32.564Z" fill="#5793CE"/>
<path d="M368.317 96.2759L396.329 85.0883C393.746 77.061 388.633 70.0604 381.577 65.98C380.645 65.4333 379.7 64.9666 378.754 64.5532L340.158 79.9945L368.317 96.2759Z" fill="#5793CE"/>
<path d="M324.98 21.0964L337.003 28.057L357.865 19.7363C356.374 18.4829 354.79 17.3494 353.112 16.376C350.449 14.8292 347.707 13.7758 344.951 13.1357L324.98 21.0964Z" fill="#D4ECFF"/>
<path d="M394.478 80.4082L374.308 88.4489L380.259 96.8229L397.567 89.929C396.954 86.6087 395.902 83.4085 394.478 80.4082Z" fill="#D4ECFF"/>
<path d="M390.737 110.344C388.66 109.144 386.503 108.437 384.359 108.143C386.53 93.6356 380.112 78.2209 368.103 71.2737C364.495 69.1801 360.728 68.0601 357.013 67.82C361.726 50.2319 354.444 30.2435 339.639 21.6694C323.702 12.4553 305.09 19.9226 298.047 38.3642C297.807 38.9909 297.594 39.6176 297.381 40.2577C285.226 34.8439 271.779 40.9377 266.507 54.7789C260.889 69.5002 266.653 87.4084 279.381 94.769L375.479 150.374C385.038 155.908 396.195 151.427 400.416 140.36C404.636 129.292 400.296 115.877 390.737 110.344Z" fill="#D4ECFF"/>
<path d="M392.72 109.237C390.643 108.037 388.487 107.33 386.343 107.037C388.513 92.529 382.096 77.1144 370.087 70.1671C366.479 68.0736 362.711 66.9535 358.997 66.7135C363.71 49.1253 356.427 29.137 341.623 20.5629C332.103 15.0558 321.625 15.5091 313.238 20.6962C321.266 16.5892 330.852 16.5892 339.639 21.683C354.457 30.2571 361.726 50.2454 357.013 67.8336C360.728 68.0736 364.495 69.1937 368.103 71.2872C380.112 78.2345 386.53 93.6491 384.359 108.157C386.503 108.45 388.66 109.144 390.737 110.357C400.296 115.891 404.623 129.332 400.402 140.386C398.778 144.654 396.102 147.934 392.893 150.041C396.981 148.08 400.429 144.4 402.386 139.266C406.606 128.212 402.28 114.758 392.72 109.237Z" fill="white"/>
<path d="M297.381 40.2711C297.568 39.711 297.754 39.1643 297.967 38.6176C291.377 36.1774 284.534 37.0175 278.889 40.5644C284.52 37.7642 291.111 37.4708 297.381 40.2711Z" fill="white"/>
<path d="M286.517 43.1514C284.733 43.1514 283.016 43.4981 281.445 44.1782C277.624 45.845 274.335 49.712 272.392 54.7924C267.452 67.7268 272.738 84.1282 283.908 90.5955L380.006 146.2C383.028 147.947 386.157 148.387 388.58 147.414C391.016 146.44 393.173 143.88 394.505 140.386C398.059 131.052 394.265 119.211 386.197 114.544C384.719 113.691 383.175 113.144 381.63 112.944L377.729 112.411L378.235 109.064C380.246 95.6759 374.068 81.5547 363.564 75.4875C360.675 73.8074 357.692 72.8606 354.723 72.6739L349.89 72.3672L350.982 68.3002C355.296 52.1788 348.319 33.5506 335.099 25.8966C328.948 22.3363 322.478 21.6162 316.859 23.8698C311.254 26.1233 306.661 31.2837 303.945 38.4043C303.732 38.951 303.546 39.5111 303.359 40.0711L300.763 48.0452L293.227 44.6849C290.964 43.6448 288.688 43.1514 286.517 43.1514Z" fill="#396CAA"/>
<path d="M333.608 104.997L336.91 103.664L334.34 101.677L333.608 104.997Z" fill="#5793CE"/>
<path d="M331.943 69.0739L335.165 67.7671L334.939 69.1139L331.943 69.0739Z" fill="#5793CE"/>
<path d="M344.006 96.596L347.361 95.2492L342.461 90.3154L344.006 96.596Z" fill="#5793CE"/>
<path d="M336.044 103.583L323.223 96.1694C322.57 95.796 322.184 94.8493 322.344 94.0492L325.42 79.4746L340.597 88.2487L337.522 102.823C337.362 103.61 336.696 103.957 336.044 103.583Z" fill="#5793CE"/>
<path d="M335.125 67.7804L317.791 76.5278C317.059 76.9012 317.298 78.288 318.19 78.7947L332.343 86.9687L346.495 95.1427C347.387 95.6628 348.093 94.8227 347.667 93.7826L337.389 69.0738C336.949 68.0204 335.884 67.407 335.125 67.7804Z" fill="#5793CE"/>
<path d="M332.689 104.944L319.868 97.5297C319.215 97.1564 318.829 96.2096 318.989 95.4095L322.065 80.835L337.242 89.609L334.167 104.184C333.994 104.97 333.328 105.317 332.689 104.944Z" fill="#D4ECFF"/>
<path d="M331.77 69.1407L314.436 77.8882C313.704 78.2615 313.943 79.6483 314.836 80.155L328.988 88.329L343.14 96.5031C344.032 97.0231 344.751 96.183 344.312 95.143L334.034 70.4342C333.581 69.3808 332.516 68.7674 331.77 69.1407Z" fill="#D4ECFF"/>
<path d="M7.38293 395.541L58.6538 366.032C62.7012 363.712 69.7574 364.019 74.4039 366.726L179.542 427.824C184.202 430.531 184.694 434.611 180.66 436.932L129.389 466.441C125.342 468.761 118.286 468.454 113.639 465.747L8.48796 404.649C3.82818 401.942 3.33557 397.862 7.38293 395.541Z" fill="#B2D3EA"/>
<path d="M131.44 456.68L183.935 426.464C186.239 425.144 187.384 423.384 187.45 421.517L187.49 412.463L185.799 415.37C184.987 414.423 183.895 413.516 182.511 412.716L76.7871 351.298C70.7959 347.817 61.7293 347.417 56.5237 350.418L4.02791 380.634C3.46874 380.954 2.98945 381.3 2.56341 381.674L0.553049 379.087L0.499795 387.594C0.419913 389.941 2.09743 392.435 5.43916 394.368L111.163 455.8C117.167 459.28 126.234 459.68 131.44 456.68Z" fill="#396CAA"/>
<path d="M4.05443 373.9L56.5635 343.684C61.7691 340.697 70.8357 341.083 76.8269 344.564L182.551 405.996C188.542 409.476 189.181 414.73 183.975 417.717L131.466 447.933C126.261 450.92 117.194 450.533 111.203 447.053L5.49231 385.621C-0.498836 382.14 -1.13789 376.9 4.05443 373.9Z" fill="#D4ECFF"/>
<path d="M183.975 417.73L131.466 447.946C126.261 450.933 117.194 450.546 111.203 447.066L5.4924 385.621C2.59003 383.941 0.952447 381.834 0.619606 379.78C0.206882 382.3 1.85778 385.061 5.4924 387.168L111.216 448.6C117.207 452.08 126.274 452.48 131.48 449.48L183.989 419.264C186.665 417.717 187.783 415.583 187.424 413.383C187.157 415.023 186.026 416.557 183.975 417.73Z" fill="white"/>
<path d="M7.38293 375.113L58.6538 345.604C62.7012 343.284 69.7574 343.59 74.4039 346.297L179.542 407.396C184.202 410.103 184.694 414.183 180.66 416.503L129.389 446.013C125.342 448.333 118.286 448.026 113.639 445.319L8.48796 384.234C3.82818 381.527 3.33557 377.447 7.38293 375.113Z" fill="white"/>
<path d="M89.9809 385.847L70.9956 374.873C70.29 374.46 70.3832 373.753 71.1953 373.286C72.0074 372.82 73.2323 372.766 73.9379 373.166L92.9232 384.14C93.6288 384.554 93.5356 385.261 92.7235 385.727C91.9113 386.207 90.6865 386.261 89.9809 385.847Z" fill="#B2D3EA"/>
<path d="M71.9942 382.14L65.2175 378.22C64.5119 377.806 64.6051 377.1 65.4172 376.633C66.2294 376.166 67.4542 376.113 68.1598 376.513L74.9365 380.433C75.6421 380.847 75.5489 381.553 74.7368 382.02C73.9246 382.487 72.6998 382.54 71.9942 382.14Z" fill="#B2D3EA"/>
<path d="M83.3506 388.701L76.574 384.78C75.8683 384.367 75.9615 383.66 76.7737 383.193C77.5858 382.727 78.8107 382.673 79.5163 383.073L86.2929 386.994C86.9986 387.407 86.9054 388.114 86.0932 388.581C85.2811 389.061 84.0562 389.114 83.3506 388.701Z" fill="#396CAA"/>
<path d="M106.33 401.995L87.9438 391.368C87.2382 390.954 87.3314 390.248 88.1435 389.781C88.9557 389.314 90.1805 389.261 90.8862 389.661L109.272 400.288C109.978 400.702 109.885 401.409 109.073 401.875C108.26 402.342 107.036 402.395 106.33 401.995Z" fill="#B2D3EA"/>
<path d="M83.1511 395.275L59.4394 381.567C58.7338 381.154 58.827 380.447 59.6391 379.98C60.4513 379.513 61.6761 379.46 62.3818 379.86L86.0934 393.568C86.799 393.981 86.7058 394.688 85.8937 395.155C85.0815 395.635 83.8567 395.675 83.1511 395.275Z" fill="#B2D3EA"/>
<path d="M111.669 418.45L53.6479 384.9C52.9423 384.487 53.0355 383.78 53.8476 383.314C54.6598 382.847 55.8846 382.794 56.5903 383.194L114.598 416.743C115.303 417.157 115.21 417.863 114.398 418.33C113.613 418.81 112.374 418.863 111.669 418.45Z" fill="#396CAA"/>
<path d="M128.604 408.182L95.2265 388.874C94.5209 388.461 94.6141 387.754 95.4263 387.287C96.2384 386.82 97.4632 386.767 98.1689 387.167L131.546 406.475C132.252 406.889 132.159 407.596 131.346 408.062C130.534 408.542 129.31 408.596 128.604 408.182Z" fill="#B2D3EA"/>
<path d="M87.7043 439.705L82.8182 436.878C82.3389 436.598 81.9395 435.838 81.9395 435.198C81.9395 434.545 82.3389 434.251 82.8182 434.531L87.7043 437.358C88.1836 437.638 88.583 438.398 88.583 439.038C88.5963 439.692 88.1969 439.985 87.7043 439.705Z" fill="#D4ECFF"/>
<path d="M95.3864 444.159L90.5003 441.332C90.021 441.052 89.6216 440.292 89.6216 439.652C89.6216 438.998 90.021 438.705 90.5003 438.985L95.3864 441.812C95.8657 442.092 96.2651 442.852 96.2651 443.492C96.2651 444.145 95.879 444.439 95.3864 444.159Z" fill="#D4ECFF"/>
</g>
<defs>
<clipPath id="clip0_1324_1950">
<rect width="415" height="468" fill="white" transform="translate(0.5 0.000976562)"/>
</clipPath>
</defs>
</svg>
