<svg width="61" height="60" viewBox="0 0 61 60" fill="none" xmlns="http://www.w3.org/2000/svg">
<path opacity="0.2" d="M33.0125 1.10791e-10C33.3281 0.0890625 33.6468 0.164056 33.9562 0.267181C36.3047 1.04218 37.8015 3.14062 37.8047 5.70312C37.8125 12.0891 37.8078 18.4734 37.8078 24.8594C37.8078 28.1016 37.8109 31.3422 37.8062 34.5844C37.8015 38.0531 35.4297 40.4266 31.964 40.4297C27.5203 40.4328 23.0765 40.4313 18.6328 40.4313C18.4218 40.4313 18.2093 40.4313 17.9234 40.4313C17.9234 41.2016 17.9234 41.9359 17.9234 42.6719C17.9234 43.4719 17.925 44.2734 17.9234 45.0734C17.9218 46.1234 17.5562 46.7344 16.7578 47.025C15.964 47.3141 15.314 47.0828 14.6156 46.2641C13.0562 44.4406 11.5031 42.6109 9.92341 40.8047C9.74997 40.6063 9.41403 40.4609 9.14684 40.4469C7.99996 40.3859 6.83434 40.5016 5.70621 40.3359C2.85934 39.9156 0.973408 37.6516 0.96872 34.7609C0.957783 29.0781 0.965592 23.3969 0.965592 17.7141C0.965592 13.8484 0.965592 9.98125 0.965592 6.11563C0.965592 2.80938 2.47809 0.865625 5.66715 0.0687504C5.70152 0.0593754 5.72965 0.0249935 5.7609 0.00311852C14.8453 -6.48492e-06 23.9281 1.10791e-10 33.0125 1.10791e-10ZM17.6312 26.4187C17.7968 26.4578 17.875 26.4656 17.9421 26.4937C21.2296 27.8625 24.5172 29.2281 27.7953 30.6203C27.964 30.6922 28.1297 30.9828 28.1422 31.1797C28.1781 31.7969 28.3328 32.3375 28.839 32.7234C29.4015 33.1516 30.0234 33.2219 30.6562 32.925C31.3422 32.6047 31.6562 32.0203 31.6609 31.2734C31.6687 29.9656 31.6656 28.6562 31.6656 27.3484C31.6656 21.3344 31.6687 15.3203 31.6625 9.30469C31.6609 8.12656 30.9812 7.36094 29.9562 7.33438C28.9281 7.30781 28.1953 8.05156 28.1703 9.21562C28.1625 9.60625 27.9937 9.74218 27.6703 9.87656C24.2375 11.2984 20.7937 12.7016 17.389 14.1891C16.1078 14.7484 14.8328 15.0734 13.4406 14.9562C12.9578 14.9156 12.4656 14.9422 11.9797 14.975C9.23121 15.1578 7.09996 17.4656 7.11246 20.2312C7.12496 22.9812 9.22653 25.2625 11.9547 25.45C12.6484 25.4984 13.35 25.4578 14.1234 25.4578C14.1234 25.7891 14.1234 26.0172 14.1234 26.2453C14.1234 28.7062 14.1109 31.1656 14.1312 33.6266C14.1406 34.6984 14.8828 35.4375 15.8734 35.4391C16.8625 35.4406 17.5859 34.7047 17.625 33.6328C17.6453 33.0875 17.6296 32.5391 17.6296 31.9922C17.6312 30.1594 17.6312 28.325 17.6312 26.4187Z" fill="#F7421E"/>
<path d="M33.4799 59.9999C32.9142 59.8061 32.3174 59.6749 31.7893 59.4061C29.8814 58.4358 28.7674 56.8467 28.7158 54.7108C28.6314 51.1999 28.6892 47.6858 28.6892 44.1733C28.6892 44.1186 28.7111 44.0639 28.7361 43.9452C29.9142 43.9452 31.0955 43.9733 32.2767 43.9405C35.7955 43.8405 38.4471 42.2514 40.2049 39.1999C40.9689 37.8733 41.2939 36.4139 41.3283 34.828C42.5533 34.828 43.7689 34.828 45.0596 34.828C45.0596 33.742 45.0596 32.7139 45.0596 31.6874C45.0596 31.4139 45.0596 31.1405 45.0596 30.867C45.0596 30.0655 45.4002 29.4655 46.1502 29.1624C46.8939 28.8608 47.5596 29.0342 48.1252 29.603C49.3767 30.8592 50.7017 32.053 51.8642 33.3889C52.808 34.4749 53.8236 34.8983 55.2814 34.8452C58.0127 34.7452 60.1955 36.6545 60.7455 39.3452C60.7643 39.4358 60.8142 39.5217 60.8486 39.6092C60.8486 44.8045 60.8486 49.9999 60.8486 55.1952C60.8111 55.303 60.7627 55.4077 60.7377 55.517C60.2642 57.6123 59.0064 59.0077 56.9971 59.7295C56.6893 59.8405 56.3689 59.9108 56.0533 59.9999C48.5299 59.9999 41.0049 59.9999 33.4799 59.9999ZM53.5377 50.3077C53.5377 49.2327 53.5377 48.2202 53.5377 47.2092C53.5377 45.7452 53.5549 44.2811 53.5314 42.8171C53.5111 41.553 52.5111 40.7436 51.3611 41.0186C50.5346 41.2155 50.0377 41.9061 50.0346 42.9124C50.0267 45.1577 50.0314 47.403 50.0314 49.6467C50.0314 49.8545 50.0314 50.0639 50.0314 50.2858C48.8236 50.2858 47.6908 50.2858 46.5205 50.2858C46.5205 48.6342 46.5267 47.0342 46.5158 45.4358C46.5127 45.1077 46.497 44.7639 46.3955 44.4561C46.1377 43.6639 45.333 43.2108 44.4986 43.3342C43.6564 43.4592 43.0455 44.1217 43.0267 45.0389C42.9955 46.5811 43.0158 48.1233 43.0127 49.6655C43.0127 49.8733 42.9955 50.0811 42.9846 50.2999C41.8064 50.2999 40.6877 50.2999 39.5033 50.2999C39.5033 50.0327 39.5049 49.803 39.5033 49.5749C39.4971 48.7936 39.5299 48.0108 39.4736 47.2342C39.4064 46.3061 38.6596 45.6577 37.7533 45.6561C36.8502 45.6545 36.1017 46.3061 36.0252 47.2295C35.9721 47.8702 36.0017 48.517 35.9971 49.1608C35.9939 49.542 35.9971 49.9233 35.9971 50.3452C35.7033 50.3452 35.5096 50.3327 35.3174 50.3467C34.3705 50.4186 33.6767 51.1467 33.6658 52.0717C33.6549 52.9733 34.2986 53.7045 35.2221 53.8233C35.4533 53.853 35.6877 53.8546 35.9221 53.8546C41.8252 53.8561 47.7299 53.8561 53.633 53.8546C53.8861 53.8546 54.1408 53.8499 54.3908 53.8108C55.2736 53.6749 55.8892 52.9358 55.8705 52.0546C55.8517 51.1733 55.2033 50.4592 54.3205 50.3577C54.0877 50.3311 53.8564 50.3264 53.5377 50.3077Z" fill="#F7421E"/>
<path d="M28.1205 13.5532C28.1205 18.0204 28.1205 22.4376 28.1205 26.9313C27.0799 26.497 26.0987 26.0876 25.1174 25.6782C22.7674 24.697 20.419 23.711 18.0627 22.7438C17.744 22.6142 17.619 22.4548 17.6252 22.1032C17.6455 20.8345 17.619 19.5657 17.6487 18.2985C17.6534 18.1048 17.8221 17.811 17.9893 17.7392C21.283 16.3423 24.5862 14.9704 27.8893 13.5954C27.9408 13.5751 28.0002 13.5735 28.1205 13.5532Z" fill="#F7421E"/>
<path d="M14.0919 18.511C14.0919 19.6563 14.0919 20.7751 14.0919 21.911C13.3575 21.911 12.6388 21.986 11.9419 21.8907C11.156 21.7844 10.6138 20.9969 10.6232 20.1938C10.6325 19.386 11.195 18.6235 11.981 18.5282C12.6654 18.4454 13.3654 18.511 14.0919 18.511Z" fill="#F7421E"/>
</svg>
