<svg width="25" height="25" viewBox="0 0 25 25" fill="none" xmlns="http://www.w3.org/2000/svg">
<path fill-rule="evenodd" clip-rule="evenodd" d="M17.943 1.0456C15.7351 0.942602 10.2662 0.947602 8.05622 1.0456C6.11425 1.1366 4.40128 1.60559 3.02031 2.98657C0.955035 5.05184 0.974086 7.75931 1.00093 11.574C1.00408 12.0223 1.00734 12.4858 1.00734 12.9654C1.00734 13.4143 1.00494 13.848 1.00262 14.2675C0.980764 18.2105 0.965915 20.8898 3.02031 22.9442C5.08936 25.0124 7.82668 24.992 11.5983 24.964H11.5984C12.0502 24.9607 12.5169 24.9572 12.9991 24.9572H13.0642H13.0642C17.6381 24.9572 19.2267 24.9572 20.854 24.3272C23.0769 23.4642 24.7549 21.4772 24.9189 17.9083C25.0229 15.6993 25.0169 10.2314 24.9189 8.02148C24.7209 3.80855 22.46 1.2536 17.943 1.0456ZM21.438 21.4172C20.0446 22.8106 18.1542 22.8063 14.0711 22.7969C13.7206 22.7961 13.354 22.7952 12.9701 22.7952C12.7346 22.7952 12.5058 22.7954 12.2833 22.7955H12.2833C7.78255 22.7988 5.89635 22.8001 4.50228 21.4022C3.05197 19.9588 3.07595 17.7627 3.11076 14.5753C3.11639 14.0596 3.12231 13.518 3.12231 12.9494C3.12231 12.4672 3.11799 11.9968 3.11379 11.5396C3.06989 6.7581 3.03925 3.42077 8.10021 3.16156L8.15761 3.15954C9.38622 3.11611 9.79785 3.10156 12.9561 3.10156L13.0011 3.13156C13.4577 3.13156 13.9059 3.12747 14.3439 3.12346L14.3439 3.12346C19.0177 3.08074 22.5325 3.04861 22.7619 8.11748C22.8189 9.38246 22.8319 9.76245 22.8319 12.9644C22.8319 13.2523 22.8321 13.5303 22.8324 13.7989C22.8365 18.1396 22.8383 20.0103 21.438 21.4172ZM12.9991 6.80751C9.59615 6.80751 6.8412 9.56546 6.8412 12.9654C6.8412 16.3683 9.59915 19.1233 12.9991 19.1233C16.402 19.1233 19.157 16.3653 19.157 12.9654C19.157 9.56246 16.399 6.80751 12.9991 6.80751ZM12.9991 16.9623C10.7901 16.9623 9.00216 15.1734 9.00216 12.9654C9.00216 10.7574 10.7911 8.96847 12.9991 8.96847C15.2071 8.96847 16.996 10.7574 16.996 12.9654C16.997 15.1734 15.2081 16.9623 12.9991 16.9623ZM20.8396 6.56439C20.8396 7.35912 20.1953 8.00337 19.4006 8.00337C18.6059 8.00337 17.9616 7.35912 17.9616 6.56439C17.9616 5.76966 18.6059 5.12541 19.4006 5.12541C20.1953 5.12541 20.8396 5.76966 20.8396 6.56439Z" fill="white"/>
</svg>
