<svg width="111" height="33" viewBox="0 0 111 33" fill="none" xmlns="http://www.w3.org/2000/svg">
<path d="M28.371 7.47391L15.9582 0.282424C15.3061 -0.0941414 14.5024 -0.0941414 13.8503 0.282424L1.44201 7.47391C0.789908 7.85047 0.390381 8.54391 0.390381 9.29704V23.703C0.390381 24.4515 0.789908 25.1449 1.44201 25.5215L13.8503 32.7176C14.5024 33.0941 15.3061 33.0941 15.9582 32.7176L28.3664 25.5215C29.014 25.1449 29.4135 24.4515 29.4135 23.703V9.29704C29.4181 8.54391 29.0185 7.85047 28.371 7.47391ZM13.2671 30.8348L2.06196 24.4194C1.85072 24.2954 1.71754 24.0703 1.71754 23.8224V9.88485C1.71754 9.35674 2.29617 9.02609 2.7508 9.29244L13.7631 15.7905C13.9697 15.9145 14.0983 16.1349 14.1029 16.3691L14.2912 30.2286C14.3003 30.7613 13.7263 31.1011 13.2671 30.8348ZM27.6592 24.2678L16.5827 30.8302C16.1235 31.1011 15.5494 30.7705 15.5494 30.2423V27.5651C15.5494 27.3171 15.6826 27.0921 15.8939 26.9727L27.1633 20.4884C27.6225 20.2266 27.944 20.5619 27.9394 21.09L27.9991 23.6846C27.9945 23.928 27.8659 24.1484 27.6592 24.2678ZM27.6592 18.6698L16.5827 25.2322C16.1235 25.5031 15.5494 25.1725 15.5494 24.6444V21.9671C15.5494 21.7191 15.6826 21.4941 15.8939 21.3747L27.1633 14.8904C27.6225 14.6287 27.944 14.9639 27.9394 15.492L27.9991 18.0866C27.9945 18.3254 27.8659 18.5504 27.6592 18.6698ZM27.6592 13.0719L16.5827 19.6296C16.1235 19.9006 15.5494 19.5699 15.5494 19.0418V16.3645C15.5494 16.1211 15.6826 15.8915 15.8939 15.7721L27.1633 9.28785C27.6225 9.02609 27.944 9.36133 27.9394 9.88944L27.9991 12.4887C27.9945 12.7275 27.8659 12.9479 27.6592 13.0719Z" fill="white"/>
<path d="M22.8282 14.4312L16.67 17.9167C16.5689 17.9718 16.4449 17.9029 16.4449 17.7835V17.058C16.4449 17.0028 16.4725 16.9523 16.523 16.9248L22.6812 13.4393C22.7823 13.3841 22.9063 13.453 22.9063 13.5724V14.298C22.9017 14.3531 22.8741 14.4036 22.8282 14.4312Z" fill="#FA7532"/>
<path d="M24.8808 13.3244L24.417 13.5678C24.2655 13.6505 24.0818 13.5403 24.0818 13.3658V12.8101C24.0818 12.7275 24.1277 12.6494 24.2012 12.6081L24.665 12.3647C24.8165 12.282 25.0002 12.3922 25.0002 12.5667V13.1224C25.0048 13.2096 24.9543 13.2877 24.8808 13.3244Z" fill="white"/>
<path d="M6.30062 16.7962L4.04582 15.5655C3.94479 15.5104 3.8208 15.5792 3.8208 15.6986V16.4242C3.8208 16.4793 3.84835 16.5298 3.89887 16.5574L6.15367 17.7881C6.2547 17.8432 6.37869 17.7743 6.37869 17.655V16.9294C6.3741 16.8743 6.34655 16.8238 6.30062 16.7962Z" fill="white"/>
<path d="M6.30062 18.6836L4.04582 17.4529C3.94479 17.3978 3.8208 17.4667 3.8208 17.5861V18.3116C3.8208 18.3668 3.84835 18.4173 3.89887 18.4448L6.15367 19.6755C6.2547 19.7307 6.37869 19.6618 6.37869 19.5424V18.8168C6.3741 18.7617 6.34655 18.7112 6.30062 18.6836Z" fill="white"/>
<path d="M6.30062 20.5756L4.04582 19.3449C3.94479 19.2898 3.8208 19.3587 3.8208 19.4781V20.2037C3.8208 20.2588 3.84835 20.3093 3.89887 20.3368L6.15367 21.5676C6.2547 21.6227 6.37869 21.5538 6.37869 21.4344V20.7088C6.3741 20.6491 6.34655 20.5986 6.30062 20.5756Z" fill="white"/>
<path d="M6.30062 22.4631L4.04582 21.2323C3.94479 21.1772 3.8208 21.2461 3.8208 21.3655V22.0911C3.8208 22.1462 3.84835 22.1967 3.89887 22.2243L6.15367 23.455C6.2547 23.5101 6.37869 23.4412 6.37869 23.3218V22.5917C6.3741 22.5365 6.34655 22.486 6.30062 22.4631Z" fill="white"/>
<path d="M6.30062 24.3505L4.04582 23.1197C3.94479 23.0646 3.8208 23.1335 3.8208 23.2529V23.9785C3.8208 24.0336 3.84835 24.0841 3.89887 24.1117L6.15367 25.3424C6.2547 25.3975 6.37869 25.3286 6.37869 25.2092V24.4836C6.3741 24.4285 6.34655 24.378 6.30062 24.3505Z" fill="white"/>
<path d="M11.2877 19.6526L9.03288 18.4219C8.93185 18.3667 8.80786 18.4356 8.80786 18.555V19.2806C8.80786 19.3357 8.83541 19.3862 8.88593 19.4138L11.1407 20.6445C11.2418 20.6996 11.3658 20.6307 11.3658 20.5113V19.7858C11.3658 19.7307 11.3336 19.6801 11.2877 19.6526Z" fill="white"/>
<path d="M11.2877 21.54L9.03288 20.3093C8.93185 20.2542 8.80786 20.3231 8.80786 20.4425V21.1681C8.80786 21.2232 8.83541 21.2737 8.88593 21.3012L11.1407 22.532C11.2418 22.5871 11.3658 22.5182 11.3658 22.3988V21.6732C11.3658 21.6181 11.3336 21.5676 11.2877 21.54Z" fill="white"/>
<path d="M11.2877 23.4274L9.03288 22.1966C8.93185 22.1415 8.80786 22.2104 8.80786 22.3298V23.0554C8.80786 23.1105 8.83541 23.161 8.88593 23.1886L11.1407 24.4193C11.2418 24.4744 11.3658 24.4055 11.3658 24.2861V23.5605C11.3658 23.5054 11.3336 23.4549 11.2877 23.4274Z" fill="white"/>
<path d="M11.2877 25.3148L9.03288 24.0841C8.93185 24.029 8.80786 24.0979 8.80786 24.2173V24.9428C8.80786 24.9979 8.83541 25.0485 8.88593 25.076L11.1407 26.3067C11.2418 26.3618 11.3658 26.293 11.3658 26.1736V25.448C11.3658 25.3929 11.3336 25.3424 11.2877 25.3148Z" fill="white"/>
<path d="M11.2877 27.2023L9.03288 25.9715C8.93185 25.9164 8.80786 25.9853 8.80786 26.1047V26.8303C8.80786 26.8854 8.83541 26.9359 8.88593 26.9635L11.1407 28.1942C11.2418 28.2493 11.3658 28.1804 11.3658 28.061V27.3354C11.3658 27.2803 11.3336 27.2298 11.2877 27.2023Z" fill="white"/>
<path d="M22.8282 20.0291L16.67 23.5147C16.5689 23.5698 16.4449 23.5009 16.4449 23.3815V22.6559C16.4449 22.6008 16.4725 22.5503 16.523 22.5227L22.6812 19.0372C22.7823 18.9821 22.9063 19.051 22.9063 19.1704V19.896C22.9017 19.9511 22.8741 20.0016 22.8282 20.0291Z" fill="white"/>
<path d="M24.8808 18.9224L24.417 19.1658C24.2655 19.2485 24.0818 19.1382 24.0818 18.9637V18.4081C24.0818 18.3254 24.1277 18.2473 24.2012 18.206L24.665 17.9626C24.8165 17.88 25.0002 17.9902 25.0002 18.1647V18.7203C25.0048 18.8076 24.9543 18.8811 24.8808 18.9224Z" fill="#FA7532"/>
<path d="M22.8282 25.843L16.67 29.3285C16.5689 29.3836 16.4449 29.3147 16.4449 29.1953V28.4697C16.4449 28.4146 16.4725 28.3641 16.523 28.3366L22.6812 24.851C22.7823 24.7959 22.9063 24.8648 22.9063 24.9842V25.7098C22.9017 25.7649 22.8741 25.8154 22.8282 25.843Z" fill="#FA7532"/>
<path d="M24.8808 24.7362L24.417 24.9796C24.2655 25.0623 24.0818 24.9521 24.0818 24.7776V24.2219C24.0818 24.1392 24.1277 24.0612 24.2012 24.0198L24.665 23.7764C24.8165 23.6938 25.0002 23.804 25.0002 23.9785V24.5342C25.0048 24.6214 24.9543 24.6995 24.8808 24.7362Z" fill="white"/>
<path d="M39.4136 8.30737H42.4353V14.709H49.1721V8.30737H52.1938V24.3298H49.1721V17.5746H42.4353V24.3344H39.4136V8.30737Z" fill="white"/>
<path d="M60.2486 13.0099C61.0981 13.0099 61.8788 13.1568 62.586 13.4462C63.2932 13.7355 63.904 14.1396 64.4229 14.6539C64.9373 15.1683 65.3414 15.7836 65.6307 16.5C65.92 17.2164 66.067 17.9971 66.067 18.8512C66.067 19.7008 65.92 20.4861 65.6307 21.2025C65.3414 21.9189 64.9373 22.5342 64.4229 23.0486C63.9086 23.5629 63.2978 23.967 62.586 24.2563C61.8788 24.5457 61.0981 24.6926 60.2486 24.6926C59.399 24.6926 58.6183 24.5457 57.9111 24.2563C57.2039 23.967 56.5931 23.5629 56.0742 23.0486C55.5599 22.5342 55.1558 21.9189 54.8664 21.2025C54.5771 20.4861 54.4302 19.7054 54.4302 18.8512C54.4302 18.0017 54.5771 17.2164 54.8664 16.5C55.1558 15.7836 55.5599 15.1683 56.0742 14.6539C56.5885 14.1396 57.1993 13.7355 57.9111 13.4462C58.6183 13.1522 59.399 13.0099 60.2486 13.0099ZM60.2486 21.9832C60.6205 21.9832 60.9833 21.9143 61.3323 21.7719C61.6814 21.6296 61.9936 21.4229 62.26 21.1566C62.5263 20.8902 62.7422 20.5596 62.8983 20.1738C63.0544 19.7881 63.1325 19.3472 63.1325 18.8558C63.1325 18.3645 63.0544 17.9236 62.8983 17.5379C62.7422 17.1521 62.5309 16.8215 62.26 16.5551C61.9936 16.2888 61.6814 16.0821 61.3323 15.9398C60.9833 15.7974 60.6205 15.7285 60.2486 15.7285C59.8582 15.7285 59.4954 15.7974 59.151 15.9398C58.8066 16.0821 58.5035 16.2888 58.2326 16.5551C57.9662 16.8215 57.7504 17.1521 57.5942 17.5379C57.4381 17.9282 57.36 18.3645 57.36 18.8558C57.36 19.3472 57.4381 19.7881 57.5942 20.1738C57.7504 20.5642 57.9616 20.8902 58.2326 21.1566C58.4989 21.4229 58.8066 21.6296 59.151 21.7719C59.4954 21.9097 59.8582 21.9832 60.2486 21.9832Z" fill="white"/>
<path d="M72.1748 24.688C71.4584 24.688 70.8201 24.6007 70.2598 24.4216C69.6996 24.2425 69.2174 24.0083 68.8041 23.719C68.3954 23.4297 68.0464 23.0945 67.7616 22.7133C67.4769 22.3322 67.2611 21.951 67.1141 21.5607L69.7317 20.4402C69.9843 21.005 70.3241 21.4275 70.7512 21.703C71.1783 21.9786 71.6513 22.1163 72.1702 22.1163C72.7075 22.1163 73.1346 22.0199 73.4469 21.827C73.7591 21.6341 73.9153 21.3999 73.9153 21.1336C73.9153 20.8351 73.7821 20.5917 73.5249 20.408C73.2632 20.2197 72.8131 20.0544 72.1702 19.9029L70.6272 19.5676C70.2828 19.4941 69.9292 19.3747 69.5618 19.2094C69.1944 19.0441 68.8638 18.8375 68.5653 18.5849C68.2668 18.3323 68.0188 18.0246 67.8259 17.6664C67.6331 17.3082 67.5366 16.8903 67.5366 16.4127C67.5366 15.8754 67.6514 15.3978 67.8856 14.98C68.1153 14.5621 68.4321 14.2085 68.8362 13.9191C69.2404 13.6298 69.7134 13.4048 70.2552 13.2487C70.8017 13.0925 71.3849 13.0145 72.0141 13.0145C73.0565 13.0145 73.9888 13.2211 74.8108 13.6298C75.6328 14.0385 76.2344 14.6906 76.6247 15.5861L74.0944 16.6148C73.8831 16.1831 73.58 15.8709 73.1759 15.6734C72.7718 15.4805 72.3723 15.3841 71.9682 15.3841C71.5503 15.3841 71.1829 15.4713 70.8706 15.6412C70.5583 15.8112 70.4022 16.0316 70.4022 16.3025C70.4022 16.5551 70.5308 16.7572 70.7925 16.9087C71.0543 17.0602 71.4079 17.1934 71.8579 17.3128L73.5341 17.7169C74.6546 17.9833 75.4858 18.415 76.0277 19.0028C76.5742 19.5906 76.8451 20.2886 76.8451 21.0968C76.8451 21.5744 76.7349 22.0291 76.5099 22.4607C76.2849 22.8924 75.968 23.2782 75.5593 23.6134C75.1506 23.9486 74.6546 24.215 74.0806 24.4079C73.5158 24.5916 72.8774 24.688 72.1748 24.688Z" fill="white"/>
<path d="M79.7384 15.8709H77.8142V13.3635H79.7384V10.0111H82.6682V13.3681H85.3547V15.8755H82.6682V20.2565C82.6682 20.5182 82.6958 20.7616 82.7463 20.9821C82.7968 21.2071 82.8978 21.3954 83.0494 21.5469C83.256 21.7949 83.5545 21.9143 83.9449 21.9143C84.1975 21.9143 84.3995 21.8867 84.5511 21.8362C84.698 21.7857 84.8404 21.7122 84.9781 21.625L85.8048 24.1966C85.4603 24.362 85.0929 24.486 84.698 24.564C84.3031 24.6467 83.8668 24.688 83.3892 24.688C82.8381 24.688 82.3422 24.6008 81.9013 24.4263C81.4605 24.2517 81.0931 24.0129 80.7946 23.7053C80.092 23.021 79.743 22.0475 79.743 20.78V15.8709H79.7384Z" fill="white"/>
<path d="M92.5829 13.0099C93.4325 13.0099 94.2132 13.1568 94.9204 13.4461C95.6276 13.7354 96.2384 14.1396 96.7573 14.6539C97.2716 15.1682 97.6757 15.7836 97.9651 16.5C98.2544 17.2164 98.4013 17.9971 98.4013 18.8512C98.4013 19.7008 98.2544 20.4861 97.9651 21.2025C97.6757 21.9188 97.2716 22.5342 96.7573 23.0485C96.243 23.5629 95.6322 23.967 94.9204 24.2563C94.2132 24.5456 93.4325 24.6926 92.5829 24.6926C91.7334 24.6926 90.9527 24.5456 90.2455 24.2563C89.5383 23.967 88.9275 23.5629 88.4086 23.0485C87.8942 22.5342 87.4901 21.9188 87.2008 21.2025C86.9115 20.4861 86.7645 19.7054 86.7645 18.8512C86.7645 18.0016 86.9115 17.2164 87.2008 16.5C87.4901 15.7836 87.8942 15.1682 88.4086 14.6539C88.9229 14.1396 89.5337 13.7354 90.2455 13.4461C90.9573 13.1568 91.7334 13.0099 92.5829 13.0099ZM92.5829 21.9831C92.9549 21.9831 93.3177 21.9143 93.6667 21.7719C94.0157 21.6295 94.328 21.4229 94.5943 21.1565C94.8607 20.8902 95.0765 20.5595 95.2327 20.1738C95.3888 19.788 95.4669 19.3472 95.4669 18.8558C95.4669 18.3644 95.3888 17.9236 95.2327 17.5378C95.0765 17.1521 94.8653 16.8214 94.5943 16.5551C94.328 16.2887 94.0157 16.0821 93.6667 15.9397C93.3177 15.7974 92.9549 15.7285 92.5829 15.7285C92.1926 15.7285 91.8298 15.7974 91.4854 15.9397C91.141 16.0821 90.8379 16.2887 90.5669 16.5551C90.3006 16.8214 90.0847 17.1521 89.9286 17.5378C89.7725 17.9282 89.6944 18.3644 89.6944 18.8558C89.6944 19.3472 89.7725 19.788 89.9286 20.1738C90.0847 20.5641 90.296 20.8902 90.5669 21.1565C90.8333 21.4229 91.141 21.6295 91.4854 21.7719C91.8298 21.9097 92.1972 21.9831 92.5829 21.9831Z" fill="white"/>
<path d="M102.81 14.8008H102.989C103.333 14.2498 103.793 13.8135 104.376 13.492C104.959 13.1706 105.62 13.0099 106.369 13.0099C107.053 13.0099 107.659 13.1201 108.183 13.3451C108.706 13.5701 109.133 13.887 109.469 14.2957C109.804 14.7044 110.056 15.2004 110.231 15.7744C110.401 16.3484 110.488 16.9868 110.488 17.6894V24.3344H107.558V18.043C107.558 17.2531 107.384 16.6653 107.035 16.2841C106.686 15.903 106.171 15.7147 105.501 15.7147C105.097 15.7147 104.743 15.802 104.44 15.9719C104.132 16.1418 103.875 16.376 103.655 16.6653C103.439 16.9546 103.274 17.299 103.163 17.694C103.053 18.0889 102.993 18.5114 102.993 18.9568V24.3252H100.064V13.3681H102.814V14.8008H102.81Z" fill="white"/>
</svg>
