<svg width="50" height="50" viewBox="0 0 82 70" fill="none" xmlns="http://www.w3.org/2000/svg">
<path d="M65.2232 12.765C61.4837 14.9464 57.9058 17.0354 54.3278 19.1129C49.6304 21.8483 44.9214 24.5606 40.2471 27.3306C37.1308 29.1772 34.0954 29.1888 30.9676 27.3421C22.9808 22.6331 14.9593 17.9819 6.94946 13.319C6.67246 13.1575 6.37238 13.0074 5.9915 12.7997C5.9915 13.2152 5.9915 13.5152 5.9915 13.8153C5.9915 24.272 5.9915 34.7288 5.9915 45.1855C5.9915 47.4707 6.98408 48.4518 9.26932 48.4518C17.9602 48.4518 26.651 48.4518 35.3534 48.4518C37.4424 48.4518 38.8044 50.1945 38.1349 52.0181C37.7425 53.0915 36.9461 53.6801 35.8151 53.8186C35.5611 53.8532 35.3072 53.8302 35.0533 53.8302C26.4433 53.8302 17.8332 53.8302 9.22316 53.8302C4.00634 53.8302 0.601562 50.4139 0.601562 45.197C0.601562 32.9975 0.601562 20.8096 0.601562 8.61006C0.601562 3.4625 4.05251 0 9.18854 0C26.8011 0 44.4136 0 62.0261 0C67.1968 0 70.6131 3.41632 70.6131 8.58698C70.6131 13.7692 70.6246 18.9629 70.6131 24.1451C70.6131 25.4493 69.8629 26.4303 68.6741 26.7881C67.5776 27.1228 66.3311 26.742 65.731 25.7263C65.4309 25.23 65.2578 24.5721 65.2462 23.9951C65.2001 20.6018 65.2232 17.2086 65.2232 13.8153C65.2232 13.5383 65.2232 13.2267 65.2232 12.765ZM64.8076 6.77495C64.1152 5.64387 63.1572 5.38994 62.0261 5.38994C44.4136 5.40148 26.8011 5.40149 9.18854 5.40149C8.93462 5.40149 8.6807 5.3784 8.42679 5.42456C7.56116 5.56306 6.85714 5.92086 6.41855 6.78648C6.88022 7.06348 7.28416 7.30586 7.68812 7.54823C16.3559 12.6035 25.0237 17.6356 33.6683 22.7255C35.0072 23.5103 36.1729 23.5103 37.5117 22.7255C43.7557 19.0321 50.0344 15.3965 56.3015 11.7494C59.1176 10.0989 61.9222 8.46003 64.8076 6.77495Z" fill="#202124"/>
<path d="M66.4934 58.2042C62.4654 59.9586 58.9221 59.3007 56.4061 56.4153C54.1093 53.7722 53.8092 49.8596 55.6905 46.8704C57.5718 43.8811 61.2074 42.4499 64.6006 43.3617C68.04 44.2966 70.4869 47.332 70.6023 50.8176C70.6369 51.7986 70.6023 52.7797 70.6138 53.7607C70.6369 55.3419 71.7911 56.5307 73.2799 56.5307C74.7803 56.5422 75.946 55.365 75.9922 53.7953C76.0845 50.7483 75.9576 47.7591 74.4802 44.9544C71.5371 39.3221 65.0623 36.4829 58.9568 38.1795C52.7589 39.9108 48.6385 45.7162 49.0887 52.1103C49.585 59.0237 55.2634 64.4252 62.2577 64.5983C63.5388 64.6329 64.4967 65.1177 65.0046 66.2949C65.4547 67.3452 65.2239 68.3378 64.439 69.1688C63.8735 69.769 63.1464 69.9998 62.3154 69.9998C53.5437 69.9882 45.6262 63.4211 44.0334 54.811C42.1291 44.5505 48.4423 34.994 58.599 32.7203C69.2865 30.3312 80.1126 38.0641 81.209 48.9479C81.4052 50.9446 81.4976 52.999 81.2436 54.9841C80.7935 58.4928 78.6583 60.7549 75.242 61.6667C72.0681 62.5208 68.8133 61.2743 66.782 58.562C66.6897 58.4582 66.5973 58.3427 66.4934 58.2042ZM62.5116 53.8415C63.9658 53.853 65.2008 52.6527 65.2123 51.1869C65.2239 49.7211 64.0466 48.4977 62.5808 48.4631C61.0804 48.4285 59.8339 49.6519 59.8339 51.1523C59.8455 52.6296 61.0458 53.83 62.5116 53.8415Z" fill="#F7421E"/>
</svg>
