<svg width="50" height="51" viewBox="0 0 50 51" fill="none" xmlns="http://www.w3.org/2000/svg">
<path d="M15.3881 46.6339C14.0401 46.6339 12.882 46.6339 11.5372 46.6339C11.5372 47.2725 11.5581 47.895 11.5324 48.5143C11.4825 49.7126 10.6847 50.4831 9.5555 50.4542C8.4842 50.4252 7.75392 49.6676 7.69601 48.5175C7.68797 48.3582 7.6751 48.1942 7.69762 48.0365C7.85848 46.9105 7.57698 46.1577 6.42526 45.5803C5.63546 45.1846 5.02904 44.287 4.5336 43.4924C4.18133 42.9278 3.8564 42.6881 3.22424 42.7556C2.82854 42.7975 2.42319 42.7733 2.02266 42.7605C0.782466 42.7186 0.0151876 41.9932 0.00231915 40.864C-0.0105493 39.7332 0.75833 38.9675 1.97439 38.9241C2.53417 38.9032 3.09395 38.9209 3.75024 38.9209C3.75024 37.671 3.75024 36.4549 3.75024 35.1392C2.3122 34.8689 -0.015382 35.6764 0.0553943 33.0625C0.121345 30.6352 2.2945 31.3912 3.78884 31.1805C3.78884 29.9242 3.78884 28.7371 3.78884 27.4358C2.31541 27.1865 -0.00412212 27.9811 0.0553943 25.3801C0.111694 22.9463 2.28324 23.6975 3.78562 23.4884C3.78562 22.2402 3.78562 21.0531 3.78562 19.6842C3.17437 19.6842 2.55187 19.7051 1.93097 19.6794C0.780856 19.6311 0.0264458 18.8896 0.000709029 17.8151C-0.0266363 16.6826 0.739037 15.8945 1.94384 15.8462C2.53418 15.8221 3.12612 15.8414 3.7808 15.8414C3.7808 14.5545 3.7808 13.3674 3.7808 11.9905C3.18081 11.9905 2.55991 12.0114 1.94062 11.9857C0.740642 11.9374 -0.0266363 11.1428 0.000709029 10.012C0.0280544 8.93747 0.782458 8.21041 1.93418 8.15089C2.09343 8.14285 2.25751 8.12837 2.41515 8.1525C3.54274 8.31979 4.29071 8.02703 4.8714 6.88174C5.27192 6.09355 6.16629 5.48552 6.9593 4.98848C7.51908 4.63782 7.77483 4.31932 7.70084 3.68394C7.65902 3.32845 7.68798 2.96331 7.69441 2.603C7.72015 1.26629 8.42147 0.473278 9.58606 0.458801C10.7635 0.444324 11.5035 1.2309 11.5356 2.5467C11.5485 3.06626 11.5372 3.58743 11.5372 4.20511C12.7855 4.20511 13.9999 4.20511 15.3286 4.20511C15.5811 2.7719 14.7785 0.44754 17.3875 0.511882C19.8213 0.571399 19.0588 2.74938 19.2808 4.24372C20.5274 4.24372 21.7145 4.24372 23.0802 4.24372C23.0802 3.62765 23.0593 3.00514 23.085 2.38263C23.1317 1.23412 23.8748 0.481321 24.9509 0.458801C26.0834 0.434673 26.8683 1.20195 26.9166 2.40675C26.9407 2.99709 26.9214 3.58904 26.9214 4.2405C28.2131 4.2405 29.4002 4.2405 30.7723 4.2405C30.7723 3.63569 30.7514 3.01318 30.7771 2.39389C30.8222 1.24056 31.5589 0.487755 32.6334 0.458801C33.7658 0.429847 34.5588 1.19552 34.6087 2.3971C34.6328 2.98905 34.6135 3.58261 34.6135 4.23729C35.8971 4.23729 37.0842 4.23729 38.4644 4.23729C38.4644 3.64373 38.4451 3.02283 38.4692 2.40354C38.5158 1.19873 39.304 0.433064 40.4365 0.458801C41.511 0.48293 42.2429 1.23734 42.3056 2.38584C42.3136 2.54509 42.3281 2.70916 42.304 2.8668C42.1319 3.996 42.4295 4.74237 43.5715 5.32467C44.3597 5.7268 44.9645 6.61955 45.4632 7.41257C45.8138 7.96912 46.1275 8.22971 46.7661 8.15893C47.1618 8.1155 47.5672 8.14124 47.9677 8.15411C49.2031 8.19271 49.9816 8.91978 49.9977 10.0393C50.0154 11.2152 49.224 11.9615 47.9114 11.9921C47.3629 12.005 46.8127 11.9937 46.2095 11.9937C46.2095 13.2983 46.2095 14.4854 46.2095 15.7851C47.6894 16.0296 50.0073 15.2446 49.943 17.8456C49.8835 20.2713 47.7055 19.5201 46.2112 19.7373C46.2112 20.9871 46.2112 22.1742 46.2112 23.4852C47.6862 23.7184 50.0025 22.9367 49.9414 25.5329C49.8851 27.9586 47.7168 27.2251 46.2128 27.4229C46.2128 28.676 46.2128 29.8631 46.2128 31.2304C46.8256 31.2304 47.4481 31.2095 48.069 31.2352C49.2175 31.2818 49.9719 32.0282 49.9961 33.1011C50.0202 34.2303 49.2513 35.0201 48.0465 35.0684C47.4562 35.0925 46.8642 35.0732 46.2144 35.0732C46.2144 36.3665 46.2144 37.5536 46.2144 38.9241C46.8208 38.9241 47.4433 38.9032 48.0642 38.9289C49.2143 38.9756 49.9703 39.7171 49.9961 40.79C50.0234 41.9208 49.2545 42.7042 48.0529 42.7653C47.8937 42.7733 47.7296 42.7862 47.572 42.7637C46.4492 42.6093 45.6803 42.8747 45.1206 44.0441C44.757 44.8049 43.9045 45.4291 43.1308 45.865C42.4504 46.2478 42.222 46.6467 42.2959 47.3625C42.341 47.7985 42.3297 48.2456 42.2943 48.6832C42.2091 49.7351 41.4305 50.4493 40.3979 50.4574C39.3636 50.4654 38.5528 49.7577 38.4756 48.7153C38.429 48.0783 38.4676 47.4365 38.4676 46.7046C37.2065 46.7046 35.9904 46.7046 34.6119 46.7046C34.6119 47.2708 34.6264 47.8547 34.6087 48.437C34.5717 49.6692 33.8334 50.4461 32.7106 50.4574C31.5814 50.4686 30.8012 49.6965 30.7755 48.4805C30.7482 47.2387 30.7482 45.9969 30.7755 44.7551C30.8045 43.4763 31.5122 42.7878 32.8232 42.7766C35.1459 42.7556 37.4703 42.7782 39.7947 42.7685C41.5737 42.7605 42.304 42.0591 42.3056 40.3139C42.3136 30.4181 42.3136 20.5239 42.3056 10.6281C42.304 8.8683 41.5834 8.15572 39.8156 8.15411C29.9197 8.14767 20.0256 8.14767 10.1297 8.15411C8.43273 8.15572 7.69441 8.87956 7.6928 10.5573C7.68476 20.4933 7.68476 30.4277 7.6928 40.3637C7.69441 42.0382 8.43595 42.7637 10.1314 42.7669C14.9393 42.7782 19.7457 42.7685 24.5536 42.7717C26.2973 42.7733 26.9134 43.4023 26.9198 45.1653C26.9246 46.2864 26.9455 47.4092 26.9134 48.5303C26.8796 49.6772 26.1204 50.4333 25.0474 50.4574C23.9166 50.4831 23.1301 49.7126 23.0818 48.5078C23.0593 47.9175 23.0786 47.3255 23.0786 46.6741C21.7869 46.6741 20.5998 46.6741 19.2277 46.6741C19.2277 47.2805 19.2486 47.903 19.2229 48.5223C19.173 49.7174 18.3687 50.4879 17.2412 50.4558C16.1699 50.4252 15.4364 49.6676 15.3897 48.5126C15.3688 47.9207 15.3881 47.3288 15.3881 46.6339Z" fill="#F7421E"/>
<path d="M15.3869 25.4413C15.3869 22.9577 15.3773 20.4724 15.3918 17.9888C15.3998 16.5411 16.0802 15.8495 17.5199 15.8462C22.5273 15.835 27.5363 15.8334 32.5437 15.8479C33.9078 15.8511 34.6011 16.5588 34.6107 17.9309C34.6284 20.3743 34.6654 22.8209 34.5802 25.2611C34.5593 25.8707 34.244 26.601 33.8209 27.0418C31.4628 29.4964 29.0564 31.9092 26.5953 34.2625C26.1305 34.7065 25.3487 35.0105 24.7005 35.0347C22.3407 35.1247 19.9745 35.0781 17.61 35.0668C16.0384 35.0588 15.3918 34.388 15.3869 32.7714C15.3821 30.328 15.3869 27.8846 15.3869 25.4413ZM19.2845 31.224C20.8448 31.224 22.3182 31.253 23.7884 31.2015C24.0924 31.1902 24.4383 30.9377 24.6747 30.706C26.5551 28.8546 28.4178 26.9839 30.2773 25.1099C30.4671 24.9185 30.7341 24.6756 30.7389 24.452C30.7792 22.874 30.7599 21.2944 30.7599 19.7486C26.8286 19.7486 23.0839 19.7486 19.2845 19.7486C19.2845 23.5576 19.2845 27.304 19.2845 31.224Z" fill="#F7421E"/>
</svg>
