<svg width="406" height="301" viewBox="0 0 406 301" fill="none" xmlns="http://www.w3.org/2000/svg">
<g clip-path="url(#clip0_1327_3204)">
<path d="M390.466 258.169C389.358 258.169 388.24 257.883 387.252 257.31L376.408 251.048C375.78 250.687 375.401 250.032 375.401 249.311C375.401 248.581 375.78 247.935 376.408 247.575L387.252 241.312C389.238 240.167 391.704 240.167 393.681 241.312L404.525 247.575C405.153 247.935 405.532 248.591 405.532 249.311C405.532 250.041 405.153 250.687 404.525 251.048L393.681 257.31C392.693 257.883 391.575 258.169 390.466 258.169ZM390.466 242.171C389.654 242.171 388.841 242.384 388.111 242.799L377.267 249.062C377.138 249.136 377.119 249.247 377.119 249.311C377.119 249.376 377.138 249.487 377.267 249.561L388.111 255.823C389.561 256.664 391.372 256.664 392.822 255.823L403.666 249.561C403.795 249.487 403.814 249.376 403.814 249.311C403.814 249.247 403.795 249.136 403.666 249.062L392.822 242.799C392.092 242.384 391.279 242.171 390.466 242.171Z" fill="url(#paint0_linear_1327_3204)"/>
<path d="M359.459 222.654C357.648 222.654 355.847 222.192 354.231 221.259L335.572 210.489C334.686 209.981 334.15 209.057 334.15 208.032C334.15 207.007 334.676 206.092 335.572 205.575L354.231 194.805C357.454 192.948 361.454 192.939 364.677 194.805L383.336 205.575C384.222 206.083 384.758 207.007 384.758 208.032C384.758 209.057 384.232 209.972 383.345 210.489L364.687 221.259C363.07 222.183 361.269 222.654 359.459 222.654ZM355.099 219.763C357.796 221.315 361.14 221.315 363.828 219.763L382.486 208.993C382.985 208.697 383.04 208.217 383.04 208.023C383.04 207.829 382.985 207.349 382.486 207.053L363.828 196.283C361.13 194.731 357.787 194.731 355.099 196.283L336.441 207.053C335.942 207.349 335.886 207.829 335.886 208.023C335.886 208.217 335.942 208.697 336.441 208.993L355.099 219.763Z" fill="url(#paint1_linear_1327_3204)"/>
<path d="M25.8092 239.603C23.9988 239.603 22.1976 239.141 20.5812 238.208L1.92299 227.438C1.03626 226.921 0.509766 226.007 0.509766 224.981C0.509766 223.956 1.03626 223.042 1.93222 222.524L20.5904 211.754C23.8141 209.889 27.8136 209.889 31.0372 211.754L49.6954 222.524C50.5821 223.032 51.1179 223.956 51.1179 224.981C51.1179 226.007 50.5914 226.921 49.6954 227.438L31.0372 238.208C29.4208 239.141 27.6104 239.603 25.8092 239.603ZM25.8092 212.078C24.3036 212.078 22.7888 212.466 21.4402 213.241L2.782 224.011C2.28322 224.307 2.2278 224.787 2.2278 224.981C2.2278 225.175 2.28322 225.656 2.782 225.951L21.4402 236.721C24.1373 238.273 27.481 238.273 30.1689 236.721L48.8271 225.951C49.3352 225.656 49.3813 225.175 49.3813 224.981C49.3813 224.787 49.3259 224.307 48.8271 224.011L30.1689 213.241C28.8296 212.466 27.3148 212.078 25.8092 212.078Z" fill="url(#paint2_linear_1327_3204)"/>
<path opacity="0.6" d="M214.747 286.59L81.3312 209.574C79.3823 208.448 79.6317 206.489 81.8762 205.196L167.501 155.761C169.745 154.468 173.144 154.32 175.084 155.447L308.49 232.472C310.439 233.599 310.19 235.557 307.945 236.851L222.321 286.286C220.086 287.579 216.686 287.717 214.747 286.59Z" fill="#020230"/>
<path d="M217.795 300.501C216.234 300.501 214.738 300.178 213.601 299.513L61.3431 211.607C60.0961 210.886 59.4126 209.852 59.4126 208.688C59.4126 207.349 60.3455 206.046 61.9619 205.114L165.755 144.317C168.6 142.673 172.784 142.516 175.278 143.957L327.537 231.863C328.784 232.584 329.467 233.618 329.467 234.782C329.467 236.121 328.534 237.414 326.918 238.357L223.134 299.162C221.582 300.049 219.642 300.501 217.795 300.501ZM171.094 144.696C169.533 144.696 167.88 145.075 166.614 145.804L62.8302 206.61C61.768 207.229 61.1399 208.005 61.1399 208.697C61.1399 209.362 61.7218 209.843 62.2113 210.12L214.47 298.026C216.409 299.153 219.984 298.986 222.266 297.666L326.049 236.86C327.112 236.241 327.74 235.465 327.74 234.773C327.74 234.108 327.158 233.627 326.668 233.35L174.41 145.444C173.551 144.945 172.359 144.696 171.094 144.696Z" fill="url(#paint3_linear_1327_3204)"/>
<path d="M343.932 103.334L211.052 26.6226C210.138 26.0962 209.186 25.9853 208.336 26.2347H208.327L205.87 27.0937L206.738 27.2969C206.387 27.7126 206.11 28.2206 205.926 28.821L175.879 126.389C175.13 128.809 176.22 131.746 178.317 132.956L311.197 209.676C311.52 209.861 311.843 209.99 312.176 210.073L311.843 210.794L314.189 209.972H314.18C315.141 209.593 315.935 208.725 316.314 207.487L346.361 109.92C347.118 107.481 346.028 104.544 343.932 103.334Z" fill="url(#paint4_radial_1327_3204)"/>
<path d="M306.431 213.316L306.477 213.371L175.223 137.593C173.292 136.475 169.921 136.614 167.686 137.907L82.8831 186.871L80.0566 185.79L80.851 189.753C80.9526 190.353 81.3775 190.907 82.1257 191.341L214.59 267.822C216.52 268.939 219.892 268.801 222.127 267.508L307.142 218.424C308.195 217.814 308.795 217.066 308.943 216.327L308.952 216.336L309.765 212.475L306.431 213.316Z" fill="url(#paint5_radial_1327_3204)"/>
<path d="M214.747 264.321L81.3312 187.305C79.3823 186.178 79.6317 184.22 81.8762 182.927L167.501 133.492C169.745 132.199 173.144 132.051 175.084 133.178L308.49 210.203C310.439 211.33 310.19 213.288 307.945 214.581L222.321 264.016C220.086 265.309 216.686 265.448 214.747 264.321Z" fill="url(#paint6_radial_1327_3204)"/>
<path d="M307.955 213.537L222.33 262.972C220.086 264.265 216.687 264.413 214.747 263.286L81.3316 186.261C80.6665 185.882 80.2786 185.393 80.1216 184.875C79.8629 185.771 80.2416 186.667 81.3316 187.296L214.738 264.321C216.687 265.448 220.077 265.3 222.321 264.007L307.946 214.572C309.424 213.713 310.015 212.576 309.701 211.579C309.507 212.272 308.934 212.974 307.955 213.537Z" fill="white"/>
<g opacity="0.4">
<path opacity="0.4" d="M144.972 174.798L140.465 172.194C140.105 171.981 140.151 171.621 140.567 171.381L145.887 168.314C146.303 168.074 146.94 168.046 147.3 168.259L151.808 170.863C152.168 171.076 152.122 171.436 151.706 171.676L146.386 174.743C145.961 174.983 145.333 175.011 144.972 174.798Z" fill="#06033E"/>
<path opacity="0.4" d="M151.928 178.816L147.42 176.212C147.06 175.999 147.106 175.639 147.522 175.399L152.842 172.332C153.258 172.092 153.895 172.064 154.255 172.277L158.763 174.881C159.123 175.094 159.077 175.454 158.661 175.694L153.341 178.761C152.916 179.001 152.288 179.029 151.928 178.816Z" fill="#06033E"/>
<path opacity="0.4" d="M158.883 182.834L154.376 180.23C154.015 180.017 154.062 179.657 154.477 179.417L159.798 176.35C160.213 176.11 160.851 176.082 161.211 176.295L165.718 178.9C166.079 179.112 166.032 179.472 165.617 179.712L160.296 182.779C159.871 183.019 159.243 183.047 158.883 182.834Z" fill="#06033E"/>
<path opacity="0.4" d="M168.498 179.518L163.991 176.913C163.631 176.701 163.677 176.341 164.092 176.101L168.554 173.524C168.969 173.283 169.607 173.256 169.967 173.468L174.475 176.073C174.835 176.285 174.789 176.646 174.373 176.886L169.912 179.463C169.496 179.703 168.859 179.721 168.498 179.518Z" fill="#06033E"/>
<path opacity="0.4" d="M175.454 183.536L170.946 180.932C170.586 180.719 170.632 180.359 171.048 180.119L175.509 177.542C175.925 177.301 176.562 177.274 176.923 177.486L181.43 180.091C181.79 180.303 181.744 180.664 181.328 180.904L176.867 183.481C176.451 183.712 175.814 183.739 175.454 183.536Z" fill="#06033E"/>
<path opacity="0.4" d="M182.409 187.545L177.901 184.94C177.541 184.728 177.587 184.368 178.003 184.127L182.464 181.55C182.88 181.31 183.517 181.283 183.878 181.495L188.385 184.1C188.745 184.312 188.699 184.672 188.284 184.913L183.822 187.49C183.407 187.73 182.769 187.758 182.409 187.545Z" fill="#06033E"/>
<path opacity="0.4" d="M189.364 191.563L184.857 188.958C184.496 188.746 184.543 188.386 184.958 188.146L189.42 185.568C189.835 185.328 190.473 185.301 190.833 185.513L195.34 188.118C195.7 188.33 195.654 188.691 195.239 188.931L190.777 191.508C190.362 191.748 189.724 191.776 189.364 191.563Z" fill="#06033E"/>
<path opacity="0.4" d="M196.32 195.581L191.812 192.976C191.452 192.764 191.498 192.404 191.914 192.164L196.375 189.587C196.791 189.346 197.428 189.319 197.788 189.531L202.296 192.136C202.656 192.348 202.61 192.709 202.194 192.949L197.733 195.526C197.317 195.766 196.68 195.794 196.32 195.581Z" fill="#06033E"/>
<path opacity="0.4" d="M203.275 199.599L198.767 196.994C198.407 196.782 198.453 196.421 198.869 196.181L203.33 193.604C203.746 193.364 204.383 193.336 204.743 193.549L209.251 196.153C209.611 196.366 209.565 196.726 209.149 196.966L204.688 199.543C204.272 199.774 203.635 199.802 203.275 199.599Z" fill="#06033E"/>
<path opacity="0.4" d="M210.23 203.608L205.722 201.003C205.362 200.79 205.408 200.43 205.824 200.19L210.285 197.613C210.701 197.373 211.338 197.345 211.698 197.558L216.206 200.162C216.566 200.375 216.52 200.735 216.104 200.975L211.643 203.552C211.227 203.792 210.59 203.82 210.23 203.608Z" fill="#06033E"/>
<path opacity="0.4" d="M217.185 207.626L212.678 205.021C212.318 204.808 212.364 204.448 212.779 204.208L217.241 201.631C217.656 201.391 218.294 201.363 218.654 201.576L223.162 204.18C223.522 204.393 223.476 204.753 223.06 204.993L218.599 207.57C218.183 207.81 217.546 207.838 217.185 207.626Z" fill="#06033E"/>
<path opacity="0.4" d="M224.14 211.644L219.633 209.039C219.273 208.826 219.319 208.466 219.735 208.226L224.196 205.649C224.612 205.409 225.249 205.381 225.609 205.594L230.117 208.198C230.477 208.411 230.431 208.771 230.015 209.011L225.554 211.588C225.138 211.828 224.51 211.856 224.14 211.644Z" fill="#06033E"/>
<path opacity="0.4" d="M231.096 215.662L226.588 213.057C226.228 212.845 226.274 212.484 226.69 212.244L231.151 209.667C231.567 209.427 232.204 209.399 232.565 209.612L237.072 212.216C237.432 212.429 237.386 212.789 236.971 213.029L232.509 215.606C232.094 215.837 231.465 215.865 231.096 215.662Z" fill="#06033E"/>
<path opacity="0.4" d="M178.751 177.615L174.244 175.011C173.884 174.798 173.93 174.438 174.345 174.198L178.807 171.621C179.222 171.381 179.86 171.353 180.22 171.565L184.727 174.17C185.088 174.383 185.042 174.743 184.626 174.983L180.165 177.56C179.74 177.8 179.112 177.828 178.751 177.615Z" fill="#06033E"/>
<path opacity="0.4" d="M171.685 173.542L167.178 170.937C166.818 170.725 166.864 170.365 167.279 170.125L171.741 167.548C172.156 167.307 172.794 167.28 173.154 167.492L177.662 170.097C178.022 170.309 177.976 170.67 177.56 170.91L173.099 173.487C172.683 173.727 172.055 173.745 171.685 173.542Z" fill="#06033E"/>
<path opacity="0.4" d="M164.619 169.46L154.921 163.862C154.56 163.65 154.606 163.289 155.022 163.049L159.483 160.472C159.899 160.232 160.536 160.204 160.897 160.417L170.595 166.014C170.955 166.227 170.909 166.587 170.494 166.827L166.032 169.404C165.607 169.644 164.979 169.663 164.619 169.46Z" fill="#06033E"/>
<path opacity="0.4" d="M169.561 164.49L161.691 159.946C161.331 159.733 161.377 159.373 161.793 159.133L166.254 156.556C166.67 156.316 167.307 156.288 167.667 156.5L175.537 161.045C175.897 161.257 175.851 161.618 175.435 161.858L170.974 164.435C170.558 164.675 169.921 164.703 169.561 164.49Z" fill="#06033E"/>
<path opacity="0.4" d="M185.706 181.633L181.199 179.029C180.839 178.816 180.885 178.456 181.3 178.216L185.762 175.639C186.177 175.399 186.815 175.371 187.175 175.583L191.683 178.188C192.043 178.401 191.997 178.761 191.581 179.001L187.12 181.578C186.695 181.818 186.067 181.837 185.706 181.633Z" fill="#06033E"/>
<path opacity="0.4" d="M192.662 185.652L188.154 183.047C187.794 182.834 187.84 182.474 188.256 182.234L192.717 179.657C193.133 179.417 193.77 179.389 194.131 179.601L198.638 182.206C198.998 182.419 198.952 182.779 198.536 183.019L194.075 185.596C193.65 185.827 193.022 185.855 192.662 185.652Z" fill="#06033E"/>
<path opacity="0.4" d="M199.617 189.66L195.109 187.056C194.749 186.843 194.795 186.483 195.211 186.243L199.672 183.666C200.088 183.426 200.725 183.398 201.086 183.61L205.593 186.215C205.953 186.427 205.907 186.788 205.492 187.028L201.03 189.605C200.605 189.845 199.977 189.873 199.617 189.66Z" fill="#06033E"/>
<path opacity="0.4" d="M206.572 193.678L202.065 191.074C201.704 190.861 201.751 190.501 202.166 190.261L206.628 187.684C207.043 187.444 207.68 187.416 208.041 187.628L212.548 190.233C212.908 190.446 212.862 190.806 212.447 191.046L207.985 193.623C207.56 193.863 206.932 193.891 206.572 193.678Z" fill="#06033E"/>
<path opacity="0.4" d="M213.528 197.696L209.02 195.092C208.66 194.879 208.706 194.519 209.122 194.279L213.583 191.702C213.999 191.462 214.636 191.434 214.996 191.646L219.504 194.251C219.864 194.464 219.818 194.824 219.402 195.064L214.941 197.641C214.516 197.881 213.888 197.9 213.528 197.696Z" fill="#06033E"/>
<path opacity="0.4" d="M220.483 201.714L215.975 199.109C215.615 198.897 215.661 198.537 216.077 198.296L220.538 195.719C220.954 195.479 221.591 195.452 221.951 195.664L226.459 198.269C226.819 198.481 226.773 198.841 226.357 199.082L221.896 201.659C221.471 201.89 220.843 201.917 220.483 201.714Z" fill="#06033E"/>
<path opacity="0.4" d="M227.438 205.723L222.931 203.118C222.571 202.906 222.617 202.545 223.032 202.305L227.494 199.728C227.909 199.488 228.547 199.46 228.907 199.673L233.414 202.277C233.775 202.49 233.729 202.85 233.313 203.09L228.852 205.667C228.427 205.908 227.799 205.935 227.438 205.723Z" fill="#06033E"/>
<path opacity="0.4" d="M234.393 209.741L229.886 207.136C229.526 206.924 229.572 206.563 229.987 206.323L234.449 203.746C234.864 203.506 235.502 203.478 235.862 203.691L240.37 206.296C240.73 206.508 240.684 206.868 240.268 207.108L235.807 209.685C235.382 209.926 234.754 209.953 234.393 209.741Z" fill="#06033E"/>
<path opacity="0.4" d="M241.348 213.759L236.841 211.154C236.481 210.942 236.527 210.581 236.943 210.341L241.404 207.764C241.82 207.524 242.457 207.496 242.817 207.709L247.325 210.314C247.685 210.526 247.639 210.886 247.223 211.126L242.762 213.704C242.337 213.944 241.709 213.962 241.348 213.759Z" fill="#06033E"/>
<path opacity="0.4" d="M253.717 220.899L243.889 215.227C243.529 215.015 243.575 214.655 243.99 214.415L248.452 211.838C248.867 211.597 249.505 211.57 249.865 211.782L259.693 217.453C260.053 217.666 260.007 218.026 259.591 218.266L255.13 220.843C254.705 221.084 254.077 221.102 253.717 220.899Z" fill="#06033E"/>
<path opacity="0.4" d="M267.258 213.076L258.963 208.291C258.603 208.078 258.649 207.718 259.065 207.478L263.526 204.901C263.942 204.661 264.579 204.633 264.939 204.846L273.234 209.63C273.594 209.843 273.548 210.203 273.132 210.443L268.671 213.02C268.246 213.26 267.618 213.288 267.258 213.076Z" fill="#06033E"/>
<path opacity="0.4" d="M197.881 180.848L193.373 178.244C193.013 178.031 193.059 177.671 193.475 177.431L197.936 174.854C198.352 174.613 198.989 174.586 199.349 174.798L203.857 177.403C204.217 177.615 204.171 177.976 203.755 178.216L199.294 180.793C198.878 181.033 198.25 181.051 197.881 180.848Z" fill="#06033E"/>
<path opacity="0.4" d="M190.759 176.729L186.252 174.124C185.891 173.911 185.938 173.551 186.353 173.311L190.815 170.734C191.23 170.494 191.868 170.466 192.228 170.679L196.735 173.283C197.096 173.496 197.049 173.856 196.634 174.096L192.172 176.673C191.747 176.913 191.119 176.941 190.759 176.729Z" fill="#06033E"/>
<path opacity="0.4" d="M183.628 172.618L179.121 170.014C178.76 169.801 178.807 169.441 179.222 169.201L183.684 166.624C184.099 166.384 184.737 166.356 185.097 166.568L189.604 169.173C189.965 169.385 189.918 169.746 189.503 169.986L185.041 172.563C184.617 172.794 183.988 172.822 183.628 172.618Z" fill="#06033E"/>
<path opacity="0.4" d="M176.497 168.499L171.99 165.894C171.63 165.681 171.676 165.321 172.091 165.081L176.553 162.504C176.968 162.264 177.606 162.236 177.966 162.449L182.474 165.053C182.834 165.266 182.788 165.626 182.372 165.866L177.911 168.443C177.495 168.683 176.858 168.711 176.497 168.499Z" fill="#06033E"/>
<path opacity="0.4" d="M204.836 184.866L200.328 182.262C199.968 182.049 200.014 181.689 200.43 181.449L204.891 178.872C205.307 178.632 205.944 178.604 206.304 178.816L210.812 181.421C211.172 181.633 211.126 181.994 210.71 182.234L206.249 184.811C205.833 185.042 205.205 185.07 204.836 184.866Z" fill="#06033E"/>
<path opacity="0.4" d="M211.791 188.875L207.283 186.27C206.923 186.058 206.969 185.698 207.385 185.458L211.846 182.881C212.262 182.64 212.899 182.613 213.259 182.825L217.767 185.43C218.127 185.642 218.081 186.003 217.665 186.243L213.204 188.82C212.788 189.06 212.16 189.088 211.791 188.875Z" fill="#06033E"/>
<path opacity="0.4" d="M218.756 192.893L214.248 190.288C213.888 190.076 213.934 189.716 214.35 189.476L218.811 186.899C219.227 186.658 219.864 186.631 220.224 186.843L224.732 189.448C225.092 189.66 225.046 190.021 224.63 190.261L220.169 192.838C219.744 193.078 219.116 193.106 218.756 192.893Z" fill="#06033E"/>
<path opacity="0.4" d="M225.711 196.911L221.203 194.307C220.843 194.094 220.889 193.734 221.305 193.494L225.766 190.917C226.182 190.676 226.819 190.649 227.179 190.861L231.687 193.466C232.047 193.678 232.001 194.039 231.585 194.279L227.124 196.856C226.699 197.096 226.071 197.114 225.711 196.911Z" fill="#06033E"/>
<path opacity="0.4" d="M232.666 200.929L228.158 198.324C227.798 198.112 227.844 197.751 228.26 197.511L232.721 194.934C233.137 194.694 233.774 194.666 234.134 194.879L238.642 197.484C239.002 197.696 238.956 198.056 238.54 198.296L234.079 200.873C233.654 201.104 233.026 201.132 232.666 200.929Z" fill="#06033E"/>
<path opacity="0.4" d="M239.621 204.938L235.114 202.333C234.754 202.12 234.8 201.76 235.215 201.52L239.677 198.943C240.092 198.703 240.73 198.675 241.09 198.888L245.598 201.492C245.958 201.705 245.912 202.065 245.496 202.305L241.035 204.882C240.61 205.122 239.982 205.15 239.621 204.938Z" fill="#06033E"/>
<path opacity="0.4" d="M246.576 208.956L242.069 206.351C241.709 206.138 241.755 205.778 242.171 205.538L246.632 202.961C247.048 202.721 247.685 202.693 248.045 202.906L252.553 205.51C252.913 205.723 252.867 206.083 252.451 206.323L247.99 208.9C247.565 209.14 246.937 209.168 246.576 208.956Z" fill="#06033E"/>
<path opacity="0.4" d="M253.532 212.974L249.025 210.369C248.664 210.157 248.71 209.796 249.126 209.556L253.587 206.979C254.003 206.739 254.64 206.711 255.001 206.924L259.508 209.528C259.868 209.741 259.822 210.101 259.407 210.341L254.945 212.918C254.52 213.159 253.892 213.177 253.532 212.974Z" fill="#06033E"/>
<path opacity="0.4" d="M260.487 216.992L255.98 214.387C255.619 214.175 255.666 213.814 256.081 213.574L260.543 210.997C260.958 210.757 261.596 210.729 261.956 210.942L266.463 213.547C266.824 213.759 266.777 214.119 266.362 214.359L261.9 216.936C261.475 217.167 260.847 217.195 260.487 216.992Z" fill="#06033E"/>
<path opacity="0.4" d="M194.223 170.91L189.715 168.305C189.355 168.093 189.401 167.732 189.817 167.492L194.278 164.915C194.694 164.675 195.331 164.647 195.692 164.86L200.199 167.465C200.559 167.677 200.513 168.037 200.098 168.277L195.636 170.854C195.211 171.095 194.583 171.122 194.223 170.91Z" fill="#06033E"/>
<path opacity="0.4" d="M187.305 166.92L182.797 164.315C182.437 164.102 182.483 163.742 182.899 163.502L187.36 160.925C187.776 160.685 188.413 160.657 188.773 160.87L193.281 163.474C193.641 163.687 193.595 164.047 193.179 164.287L188.718 166.864C188.293 167.104 187.665 167.123 187.305 166.92Z" fill="#06033E"/>
<path opacity="0.4" d="M180.377 162.92L175.869 160.315C175.509 160.103 175.555 159.743 175.971 159.502L180.432 156.925C180.848 156.685 181.485 156.658 181.845 156.87L186.353 159.475C186.713 159.687 186.667 160.047 186.251 160.288L181.79 162.865C181.374 163.105 180.746 163.133 180.377 162.92Z" fill="#06033E"/>
<path opacity="0.4" d="M173.459 158.93L168.951 156.325C168.591 156.113 168.637 155.752 169.053 155.512L173.514 152.935C173.93 152.695 174.567 152.667 174.927 152.88L179.435 155.485C179.795 155.697 179.749 156.057 179.333 156.297L174.872 158.874C174.456 159.105 173.819 159.133 173.459 158.93Z" fill="#06033E"/>
<path opacity="0.4" d="M180.58 154.819L176.072 152.215C175.712 152.002 175.758 151.642 176.174 151.402L177.652 150.552C178.068 150.312 178.705 150.284 179.065 150.496L183.573 153.101C183.933 153.314 183.887 153.674 183.471 153.914L181.993 154.764C181.568 155.004 180.94 155.022 180.58 154.819Z" fill="#06033E"/>
<path opacity="0.4" d="M189.604 160.029L185.097 157.424C184.737 157.212 184.783 156.851 185.198 156.611L186.676 155.761C187.092 155.521 187.729 155.493 188.09 155.706L192.597 158.311C192.957 158.523 192.911 158.883 192.495 159.124L191.018 159.973C190.602 160.213 189.974 160.241 189.604 160.029Z" fill="#06033E"/>
<path opacity="0.4" d="M196.504 164.01L191.997 161.405C191.636 161.192 191.683 160.832 192.098 160.592L193.576 159.742C193.992 159.502 194.629 159.474 194.989 159.687L199.497 162.292C199.857 162.504 199.811 162.864 199.395 163.104L197.917 163.954C197.493 164.194 196.864 164.222 196.504 164.01Z" fill="#06033E"/>
<path opacity="0.4" d="M203.395 167.991L198.887 165.386C198.527 165.173 198.573 164.813 198.989 164.573L200.467 163.723C200.882 163.483 201.52 163.455 201.88 163.668L206.388 166.273C206.748 166.485 206.702 166.845 206.286 167.085L204.808 167.935C204.383 168.175 203.755 168.194 203.395 167.991Z" fill="#06033E"/>
<path opacity="0.4" d="M210.285 171.972L205.778 169.367C205.418 169.155 205.464 168.795 205.88 168.554L207.357 167.705C207.773 167.465 208.41 167.437 208.771 167.649L213.278 170.254C213.638 170.466 213.592 170.827 213.177 171.067L211.699 171.917C211.274 172.148 210.646 172.175 210.285 171.972Z" fill="#06033E"/>
<path opacity="0.4" d="M248.766 194.186L244.258 191.582C243.898 191.369 243.944 191.009 244.36 190.769L245.838 189.919C246.254 189.679 246.891 189.651 247.251 189.864L251.759 192.468C252.119 192.681 252.073 193.041 251.657 193.281L250.179 194.131C249.754 194.371 249.126 194.39 248.766 194.186Z" fill="#06033E"/>
<path opacity="0.4" d="M255.657 198.167L251.149 195.563C250.789 195.35 250.835 194.99 251.251 194.75L252.729 193.9C253.144 193.66 253.782 193.632 254.142 193.845L258.649 196.449C259.009 196.662 258.963 197.022 258.548 197.262L257.07 198.112C256.645 198.343 256.017 198.371 255.657 198.167Z" fill="#06033E"/>
<path opacity="0.4" d="M262.547 202.139L258.039 199.534C257.679 199.322 257.725 198.962 258.141 198.722L259.619 197.872C260.034 197.632 260.672 197.604 261.032 197.816L265.539 200.421C265.9 200.634 265.853 200.994 265.438 201.234L263.96 202.084C263.535 202.324 262.907 202.352 262.547 202.139Z" fill="#06033E"/>
<path opacity="0.4" d="M269.437 206.12L264.93 203.515C264.57 203.303 264.616 202.943 265.031 202.702L266.509 201.853C266.925 201.613 267.562 201.585 267.923 201.797L272.43 204.402C272.79 204.614 272.744 204.975 272.328 205.215L270.851 206.065C270.435 206.305 269.798 206.333 269.437 206.12Z" fill="#06033E"/>
<path opacity="0.4" d="M201.178 174.928L196.671 172.323C196.31 172.111 196.356 171.75 196.772 171.51L201.233 168.933C201.649 168.693 202.286 168.665 202.647 168.878L207.154 171.483C207.514 171.695 207.468 172.055 207.053 172.295L202.591 174.872C202.166 175.113 201.538 175.14 201.178 174.928Z" fill="#06033E"/>
<path opacity="0.4" d="M208.133 178.945L203.626 176.341C203.265 176.128 203.312 175.768 203.727 175.528L208.189 172.951C208.604 172.711 209.242 172.683 209.602 172.895L214.109 175.5C214.47 175.713 214.423 176.073 214.008 176.313L209.546 178.89C209.131 179.13 208.493 179.158 208.133 178.945Z" fill="#06033E"/>
<path opacity="0.4" d="M215.089 182.964L210.581 180.359C210.221 180.146 210.267 179.786 210.683 179.546L215.144 176.969C215.56 176.729 216.197 176.701 216.557 176.913L221.065 179.518C221.425 179.731 221.379 180.091 220.963 180.331L216.502 182.908C216.086 183.139 215.449 183.167 215.089 182.964Z" fill="#06033E"/>
<path opacity="0.4" d="M222.044 186.972L217.536 184.368C217.176 184.155 217.222 183.795 217.638 183.555L222.099 180.978C222.515 180.738 223.152 180.71 223.512 180.922L228.02 183.527C228.38 183.739 228.334 184.1 227.918 184.34L223.457 186.917C223.041 187.157 222.404 187.185 222.044 186.972Z" fill="#06033E"/>
<path opacity="0.4" d="M228.999 190.99L224.492 188.386C224.132 188.173 224.178 187.813 224.593 187.573L229.055 184.996C229.47 184.756 230.108 184.728 230.468 184.94L234.975 187.545C235.336 187.758 235.29 188.118 234.874 188.358L230.413 190.935C229.997 191.175 229.36 191.203 228.999 190.99Z" fill="#06033E"/>
<path opacity="0.4" d="M235.954 195.008L231.447 192.404C231.087 192.191 231.133 191.831 231.548 191.591L236.01 189.014C236.425 188.774 237.063 188.746 237.423 188.958L241.931 191.563C242.291 191.776 242.245 192.136 241.829 192.376L237.368 194.953C236.952 195.193 236.315 195.221 235.954 195.008Z" fill="#06033E"/>
<path opacity="0.4" d="M242.909 199.027L238.402 196.422C238.042 196.209 238.088 195.849 238.504 195.609L242.965 193.032C243.381 192.792 244.018 192.764 244.378 192.976L248.886 195.581C249.246 195.794 249.2 196.154 248.784 196.394L244.323 198.971C243.907 199.202 243.27 199.23 242.909 199.027Z" fill="#06033E"/>
<path opacity="0.4" d="M249.865 203.035L245.358 200.43C244.997 200.218 245.043 199.857 245.459 199.617L249.92 197.04C250.336 196.8 250.973 196.772 251.334 196.985L255.841 199.59C256.201 199.802 256.155 200.162 255.74 200.402L251.278 202.979C250.863 203.22 250.225 203.247 249.865 203.035Z" fill="#06033E"/>
<path opacity="0.4" d="M256.82 207.053L252.313 204.448C251.952 204.236 251.999 203.875 252.414 203.635L256.876 201.058C257.291 200.818 257.929 200.79 258.289 201.003L262.796 203.608C263.157 203.82 263.11 204.18 262.695 204.42L258.233 206.997C257.818 207.238 257.18 207.265 256.82 207.053Z" fill="#06033E"/>
<path opacity="0.4" d="M161.414 175.427L148.15 167.769C147.79 167.557 147.836 167.197 148.252 166.957L152.713 164.38C153.129 164.139 153.766 164.112 154.126 164.324L167.39 171.981C167.75 172.194 167.704 172.554 167.289 172.794L162.827 175.371C162.402 175.611 161.774 175.63 161.414 175.427Z" fill="#06033E"/>
<path opacity="0.4" d="M246.863 224.76L233.599 217.102C233.239 216.89 233.285 216.53 233.7 216.29L238.162 213.713C238.577 213.472 239.215 213.445 239.575 213.657L252.839 221.314C253.199 221.527 253.153 221.887 252.737 222.127L248.276 224.704C247.851 224.944 247.223 224.972 246.863 224.76Z" fill="#06033E"/>
<path opacity="0.4" d="M219.042 217.574L214.534 214.969C214.174 214.756 214.22 214.396 214.636 214.156L219.956 211.089C220.372 210.849 221.009 210.822 221.369 211.034L225.877 213.639C226.237 213.851 226.191 214.212 225.775 214.452L220.455 217.518C220.039 217.749 219.411 217.777 219.042 217.574Z" fill="#06033E"/>
<path opacity="0.4" d="M168.535 188.404L161.331 184.248C160.97 184.035 161.017 183.675 161.432 183.435L166.753 180.368C167.168 180.128 167.806 180.1 168.166 180.313L175.371 184.469C175.731 184.682 175.685 185.042 175.269 185.282L169.949 188.349C169.524 188.589 168.896 188.617 168.535 188.404Z" fill="#06033E"/>
<path opacity="0.4" d="M212.345 213.704L205.141 209.547C204.781 209.335 204.827 208.974 205.242 208.734L210.563 205.668C210.978 205.427 211.616 205.4 211.976 205.612L219.181 209.769C219.541 209.981 219.495 210.341 219.079 210.582L213.759 213.648C213.334 213.888 212.706 213.907 212.345 213.704Z" fill="#06033E"/>
<path opacity="0.4" d="M178.567 194.205L171.362 190.048C171.002 189.836 171.048 189.475 171.464 189.235L176.784 186.169C177.2 185.928 177.837 185.901 178.197 186.113L185.402 190.27C185.762 190.482 185.716 190.842 185.3 191.083L179.98 194.149C179.564 194.38 178.936 194.408 178.567 194.205Z" fill="#06033E"/>
<path opacity="0.4" d="M178.243 186.132L209.556 204.217C209.944 204.439 209.944 204.809 209.556 205.03L204.134 208.161C203.746 208.383 203.118 208.383 202.73 208.161L171.417 190.085L178.243 186.132Z" fill="#06033E"/>
<path opacity="0.4" d="M238.485 224.852L243.501 227.753C243.796 227.928 243.76 228.224 243.418 228.418L241.247 229.674C240.905 229.868 240.388 229.895 240.093 229.72L235.077 226.82C234.781 226.644 234.818 226.349 235.16 226.155L237.331 224.898C237.673 224.704 238.19 224.677 238.485 224.852Z" fill="#06033E"/>
<path opacity="0.4" d="M231.475 220.806L236.49 223.707C236.786 223.882 236.749 224.178 236.407 224.372L234.236 225.628C233.895 225.822 233.377 225.85 233.082 225.674L228.066 222.774C227.771 222.598 227.808 222.303 228.149 222.109L230.32 220.853C230.662 220.649 231.179 220.631 231.475 220.806Z" fill="#06033E"/>
<path opacity="0.4" d="M224.519 216.789L229.535 219.689C229.83 219.865 229.793 220.16 229.451 220.354L227.281 221.61C226.939 221.804 226.422 221.832 226.126 221.656L221.111 218.756C220.815 218.581 220.852 218.285 221.194 218.091L223.364 216.835C223.706 216.641 224.223 216.613 224.519 216.789Z" fill="#06033E"/>
<path opacity="0.4" d="M235.317 218.58L240.332 221.481C240.628 221.656 240.591 221.952 240.249 222.146L238.079 223.402C237.737 223.596 237.22 223.624 236.924 223.448L231.909 220.548C231.613 220.372 231.65 220.077 231.992 219.883L234.162 218.627C234.495 218.433 235.012 218.414 235.317 218.58Z" fill="#06033E"/>
</g>
<g opacity="0.4">
<path opacity="0.4" d="M144.972 174.798L140.465 172.194C140.105 171.981 140.151 171.621 140.567 171.381L145.887 168.314C146.303 168.074 146.94 168.046 147.3 168.259L151.808 170.863C152.168 171.076 152.122 171.436 151.706 171.676L146.386 174.743C145.961 174.983 145.333 175.011 144.972 174.798Z" fill="#06033E"/>
<path opacity="0.4" d="M151.928 178.816L147.42 176.212C147.06 175.999 147.106 175.639 147.522 175.399L152.842 172.332C153.258 172.092 153.895 172.064 154.255 172.277L158.763 174.881C159.123 175.094 159.077 175.454 158.661 175.694L153.341 178.761C152.916 179.001 152.288 179.029 151.928 178.816Z" fill="#06033E"/>
<path opacity="0.4" d="M158.883 182.834L154.376 180.23C154.015 180.017 154.062 179.657 154.477 179.417L159.798 176.35C160.213 176.11 160.851 176.082 161.211 176.295L165.718 178.9C166.079 179.112 166.032 179.472 165.617 179.712L160.296 182.779C159.871 183.019 159.243 183.047 158.883 182.834Z" fill="#06033E"/>
<path opacity="0.4" d="M168.498 179.518L163.991 176.913C163.631 176.701 163.677 176.341 164.092 176.101L168.554 173.524C168.969 173.283 169.607 173.256 169.967 173.468L174.475 176.073C174.835 176.285 174.789 176.646 174.373 176.886L169.912 179.463C169.496 179.703 168.859 179.721 168.498 179.518Z" fill="#06033E"/>
<path opacity="0.4" d="M175.454 183.536L170.946 180.932C170.586 180.719 170.632 180.359 171.048 180.119L175.509 177.542C175.925 177.301 176.562 177.274 176.923 177.486L181.43 180.091C181.79 180.303 181.744 180.664 181.328 180.904L176.867 183.481C176.451 183.712 175.814 183.739 175.454 183.536Z" fill="#06033E"/>
<path opacity="0.4" d="M182.409 187.545L177.901 184.94C177.541 184.728 177.587 184.368 178.003 184.127L182.464 181.55C182.88 181.31 183.517 181.283 183.878 181.495L188.385 184.1C188.745 184.312 188.699 184.672 188.284 184.913L183.822 187.49C183.407 187.73 182.769 187.758 182.409 187.545Z" fill="#06033E"/>
<path opacity="0.4" d="M189.364 191.563L184.857 188.958C184.496 188.746 184.543 188.386 184.958 188.146L189.42 185.568C189.835 185.328 190.473 185.301 190.833 185.513L195.34 188.118C195.7 188.33 195.654 188.691 195.239 188.931L190.777 191.508C190.362 191.748 189.724 191.776 189.364 191.563Z" fill="#06033E"/>
<path opacity="0.4" d="M196.32 195.581L191.812 192.976C191.452 192.764 191.498 192.404 191.914 192.164L196.375 189.587C196.791 189.346 197.428 189.319 197.788 189.531L202.296 192.136C202.656 192.348 202.61 192.709 202.194 192.949L197.733 195.526C197.317 195.766 196.68 195.794 196.32 195.581Z" fill="#06033E"/>
<path opacity="0.4" d="M203.275 199.599L198.767 196.994C198.407 196.782 198.453 196.421 198.869 196.181L203.33 193.604C203.746 193.364 204.383 193.336 204.743 193.549L209.251 196.153C209.611 196.366 209.565 196.726 209.149 196.966L204.688 199.543C204.272 199.774 203.635 199.802 203.275 199.599Z" fill="#06033E"/>
<path opacity="0.4" d="M210.23 203.608L205.722 201.003C205.362 200.79 205.408 200.43 205.824 200.19L210.285 197.613C210.701 197.373 211.338 197.345 211.698 197.558L216.206 200.162C216.566 200.375 216.52 200.735 216.104 200.975L211.643 203.552C211.227 203.792 210.59 203.82 210.23 203.608Z" fill="#06033E"/>
<path opacity="0.4" d="M217.185 207.626L212.678 205.021C212.318 204.808 212.364 204.448 212.779 204.208L217.241 201.631C217.656 201.391 218.294 201.363 218.654 201.576L223.162 204.18C223.522 204.393 223.476 204.753 223.06 204.993L218.599 207.57C218.183 207.81 217.546 207.838 217.185 207.626Z" fill="#06033E"/>
<path opacity="0.4" d="M224.14 211.644L219.633 209.039C219.273 208.826 219.319 208.466 219.735 208.226L224.196 205.649C224.612 205.409 225.249 205.381 225.609 205.594L230.117 208.198C230.477 208.411 230.431 208.771 230.015 209.011L225.554 211.588C225.138 211.828 224.51 211.856 224.14 211.644Z" fill="#06033E"/>
<path opacity="0.4" d="M231.096 215.662L226.588 213.057C226.228 212.845 226.274 212.484 226.69 212.244L231.151 209.667C231.567 209.427 232.204 209.399 232.565 209.612L237.072 212.216C237.432 212.429 237.386 212.789 236.971 213.029L232.509 215.606C232.094 215.837 231.465 215.865 231.096 215.662Z" fill="#06033E"/>
<path opacity="0.4" d="M178.751 177.615L174.244 175.011C173.884 174.798 173.93 174.438 174.345 174.198L178.807 171.621C179.222 171.381 179.86 171.353 180.22 171.565L184.727 174.17C185.088 174.383 185.042 174.743 184.626 174.983L180.165 177.56C179.74 177.8 179.112 177.828 178.751 177.615Z" fill="#06033E"/>
<path opacity="0.4" d="M171.685 173.542L167.178 170.937C166.818 170.725 166.864 170.365 167.279 170.125L171.741 167.548C172.156 167.307 172.794 167.28 173.154 167.492L177.662 170.097C178.022 170.309 177.976 170.67 177.56 170.91L173.099 173.487C172.683 173.727 172.055 173.745 171.685 173.542Z" fill="#06033E"/>
<path opacity="0.4" d="M164.619 169.46L154.921 163.862C154.56 163.65 154.606 163.289 155.022 163.049L159.483 160.472C159.899 160.232 160.536 160.204 160.897 160.417L170.595 166.014C170.955 166.227 170.909 166.587 170.494 166.827L166.032 169.404C165.607 169.644 164.979 169.663 164.619 169.46Z" fill="#06033E"/>
<path opacity="0.4" d="M169.561 164.49L161.691 159.946C161.331 159.733 161.377 159.373 161.793 159.133L166.254 156.556C166.67 156.316 167.307 156.288 167.667 156.5L175.537 161.045C175.897 161.257 175.851 161.618 175.435 161.858L170.974 164.435C170.558 164.675 169.921 164.703 169.561 164.49Z" fill="#06033E"/>
<path opacity="0.4" d="M185.706 181.633L181.199 179.029C180.839 178.816 180.885 178.456 181.3 178.216L185.762 175.639C186.177 175.399 186.815 175.371 187.175 175.583L191.683 178.188C192.043 178.401 191.997 178.761 191.581 179.001L187.12 181.578C186.695 181.818 186.067 181.837 185.706 181.633Z" fill="#06033E"/>
<path opacity="0.4" d="M192.662 185.652L188.154 183.047C187.794 182.834 187.84 182.474 188.256 182.234L192.717 179.657C193.133 179.417 193.77 179.389 194.131 179.601L198.638 182.206C198.998 182.419 198.952 182.779 198.536 183.019L194.075 185.596C193.65 185.827 193.022 185.855 192.662 185.652Z" fill="#06033E"/>
<path opacity="0.4" d="M199.617 189.66L195.109 187.056C194.749 186.843 194.795 186.483 195.211 186.243L199.672 183.666C200.088 183.426 200.725 183.398 201.086 183.61L205.593 186.215C205.953 186.427 205.907 186.788 205.492 187.028L201.03 189.605C200.605 189.845 199.977 189.873 199.617 189.66Z" fill="#06033E"/>
<path opacity="0.4" d="M206.572 193.678L202.065 191.074C201.704 190.861 201.751 190.501 202.166 190.261L206.628 187.684C207.043 187.444 207.68 187.416 208.041 187.628L212.548 190.233C212.908 190.446 212.862 190.806 212.447 191.046L207.985 193.623C207.56 193.863 206.932 193.891 206.572 193.678Z" fill="#06033E"/>
<path opacity="0.4" d="M213.528 197.696L209.02 195.092C208.66 194.879 208.706 194.519 209.122 194.279L213.583 191.702C213.999 191.462 214.636 191.434 214.996 191.646L219.504 194.251C219.864 194.464 219.818 194.824 219.402 195.064L214.941 197.641C214.516 197.881 213.888 197.9 213.528 197.696Z" fill="#06033E"/>
<path opacity="0.4" d="M220.483 201.714L215.975 199.109C215.615 198.897 215.661 198.537 216.077 198.296L220.538 195.719C220.954 195.479 221.591 195.452 221.951 195.664L226.459 198.269C226.819 198.481 226.773 198.841 226.357 199.082L221.896 201.659C221.471 201.89 220.843 201.917 220.483 201.714Z" fill="#06033E"/>
<path opacity="0.4" d="M227.438 205.723L222.931 203.118C222.571 202.906 222.617 202.545 223.032 202.305L227.494 199.728C227.909 199.488 228.547 199.46 228.907 199.673L233.414 202.277C233.775 202.49 233.729 202.85 233.313 203.09L228.852 205.667C228.427 205.908 227.799 205.935 227.438 205.723Z" fill="#06033E"/>
<path opacity="0.4" d="M234.393 209.741L229.886 207.136C229.526 206.924 229.572 206.563 229.987 206.323L234.449 203.746C234.864 203.506 235.502 203.478 235.862 203.691L240.37 206.296C240.73 206.508 240.684 206.868 240.268 207.108L235.807 209.685C235.382 209.926 234.754 209.953 234.393 209.741Z" fill="#06033E"/>
<path opacity="0.4" d="M241.348 213.759L236.841 211.154C236.481 210.942 236.527 210.581 236.943 210.341L241.404 207.764C241.82 207.524 242.457 207.496 242.817 207.709L247.325 210.314C247.685 210.526 247.639 210.886 247.223 211.126L242.762 213.704C242.337 213.944 241.709 213.962 241.348 213.759Z" fill="#06033E"/>
<path opacity="0.4" d="M253.717 220.899L243.889 215.227C243.529 215.015 243.575 214.655 243.99 214.415L248.452 211.838C248.867 211.597 249.505 211.57 249.865 211.782L259.693 217.453C260.053 217.666 260.007 218.026 259.591 218.266L255.13 220.843C254.705 221.084 254.077 221.102 253.717 220.899Z" fill="#06033E"/>
<path opacity="0.4" d="M267.258 213.076L258.963 208.291C258.603 208.078 258.649 207.718 259.065 207.478L263.526 204.901C263.942 204.661 264.579 204.633 264.939 204.846L273.234 209.63C273.594 209.843 273.548 210.203 273.132 210.443L268.671 213.02C268.246 213.26 267.618 213.288 267.258 213.076Z" fill="#06033E"/>
<path opacity="0.4" d="M197.881 180.848L193.373 178.244C193.013 178.031 193.059 177.671 193.475 177.431L197.936 174.854C198.352 174.613 198.989 174.586 199.349 174.798L203.857 177.403C204.217 177.615 204.171 177.976 203.755 178.216L199.294 180.793C198.878 181.033 198.25 181.051 197.881 180.848Z" fill="#06033E"/>
<path opacity="0.4" d="M190.759 176.729L186.252 174.124C185.891 173.911 185.938 173.551 186.353 173.311L190.815 170.734C191.23 170.494 191.868 170.466 192.228 170.679L196.735 173.283C197.096 173.496 197.049 173.856 196.634 174.096L192.172 176.673C191.747 176.913 191.119 176.941 190.759 176.729Z" fill="#06033E"/>
<path opacity="0.4" d="M183.628 172.618L179.121 170.014C178.76 169.801 178.807 169.441 179.222 169.201L183.684 166.624C184.099 166.384 184.737 166.356 185.097 166.568L189.604 169.173C189.965 169.385 189.918 169.746 189.503 169.986L185.041 172.563C184.617 172.794 183.988 172.822 183.628 172.618Z" fill="#06033E"/>
<path opacity="0.4" d="M176.497 168.499L171.99 165.894C171.63 165.681 171.676 165.321 172.091 165.081L176.553 162.504C176.968 162.264 177.606 162.236 177.966 162.449L182.474 165.053C182.834 165.266 182.788 165.626 182.372 165.866L177.911 168.443C177.495 168.683 176.858 168.711 176.497 168.499Z" fill="#06033E"/>
<path opacity="0.4" d="M204.836 184.866L200.328 182.262C199.968 182.049 200.014 181.689 200.43 181.449L204.891 178.872C205.307 178.632 205.944 178.604 206.304 178.816L210.812 181.421C211.172 181.633 211.126 181.994 210.71 182.234L206.249 184.811C205.833 185.042 205.205 185.07 204.836 184.866Z" fill="#06033E"/>
<path opacity="0.4" d="M211.791 188.875L207.283 186.27C206.923 186.058 206.969 185.698 207.385 185.458L211.846 182.881C212.262 182.64 212.899 182.613 213.259 182.825L217.767 185.43C218.127 185.642 218.081 186.003 217.665 186.243L213.204 188.82C212.788 189.06 212.16 189.088 211.791 188.875Z" fill="#06033E"/>
<path opacity="0.4" d="M218.756 192.893L214.248 190.288C213.888 190.076 213.934 189.716 214.35 189.476L218.811 186.899C219.227 186.658 219.864 186.631 220.224 186.843L224.732 189.448C225.092 189.66 225.046 190.021 224.63 190.261L220.169 192.838C219.744 193.078 219.116 193.106 218.756 192.893Z" fill="#06033E"/>
<path opacity="0.4" d="M225.711 196.911L221.203 194.307C220.843 194.094 220.889 193.734 221.305 193.494L225.766 190.917C226.182 190.676 226.819 190.649 227.179 190.861L231.687 193.466C232.047 193.678 232.001 194.039 231.585 194.279L227.124 196.856C226.699 197.096 226.071 197.114 225.711 196.911Z" fill="#06033E"/>
<path opacity="0.4" d="M232.666 200.929L228.158 198.324C227.798 198.112 227.844 197.751 228.26 197.511L232.721 194.934C233.137 194.694 233.774 194.666 234.134 194.879L238.642 197.484C239.002 197.696 238.956 198.056 238.54 198.296L234.079 200.873C233.654 201.104 233.026 201.132 232.666 200.929Z" fill="#06033E"/>
<path opacity="0.4" d="M239.621 204.938L235.114 202.333C234.754 202.12 234.8 201.76 235.215 201.52L239.677 198.943C240.092 198.703 240.73 198.675 241.09 198.888L245.598 201.492C245.958 201.705 245.912 202.065 245.496 202.305L241.035 204.882C240.61 205.122 239.982 205.15 239.621 204.938Z" fill="#06033E"/>
<path opacity="0.4" d="M246.576 208.956L242.069 206.351C241.709 206.138 241.755 205.778 242.171 205.538L246.632 202.961C247.048 202.721 247.685 202.693 248.045 202.906L252.553 205.51C252.913 205.723 252.867 206.083 252.451 206.323L247.99 208.9C247.565 209.14 246.937 209.168 246.576 208.956Z" fill="#06033E"/>
<path opacity="0.4" d="M253.532 212.974L249.025 210.369C248.664 210.157 248.71 209.796 249.126 209.556L253.587 206.979C254.003 206.739 254.64 206.711 255.001 206.924L259.508 209.528C259.868 209.741 259.822 210.101 259.407 210.341L254.945 212.918C254.52 213.159 253.892 213.177 253.532 212.974Z" fill="#06033E"/>
<path opacity="0.4" d="M260.487 216.992L255.98 214.387C255.619 214.175 255.666 213.814 256.081 213.574L260.543 210.997C260.958 210.757 261.596 210.729 261.956 210.942L266.463 213.547C266.824 213.759 266.777 214.119 266.362 214.359L261.9 216.936C261.475 217.167 260.847 217.195 260.487 216.992Z" fill="#06033E"/>
<path opacity="0.4" d="M194.223 170.91L189.715 168.305C189.355 168.093 189.401 167.732 189.817 167.492L194.278 164.915C194.694 164.675 195.331 164.647 195.692 164.86L200.199 167.465C200.559 167.677 200.513 168.037 200.098 168.277L195.636 170.854C195.211 171.095 194.583 171.122 194.223 170.91Z" fill="#06033E"/>
<path opacity="0.4" d="M187.305 166.92L182.797 164.315C182.437 164.102 182.483 163.742 182.899 163.502L187.36 160.925C187.776 160.685 188.413 160.657 188.773 160.87L193.281 163.474C193.641 163.687 193.595 164.047 193.179 164.287L188.718 166.864C188.293 167.104 187.665 167.123 187.305 166.92Z" fill="#06033E"/>
<path opacity="0.4" d="M180.377 162.92L175.869 160.315C175.509 160.103 175.555 159.743 175.971 159.502L180.432 156.925C180.848 156.685 181.485 156.658 181.845 156.87L186.353 159.475C186.713 159.687 186.667 160.047 186.251 160.288L181.79 162.865C181.374 163.105 180.746 163.133 180.377 162.92Z" fill="#06033E"/>
<path opacity="0.4" d="M173.459 158.93L168.951 156.325C168.591 156.113 168.637 155.752 169.053 155.512L173.514 152.935C173.93 152.695 174.567 152.667 174.927 152.88L179.435 155.485C179.795 155.697 179.749 156.057 179.333 156.297L174.872 158.874C174.456 159.105 173.819 159.133 173.459 158.93Z" fill="#06033E"/>
<path opacity="0.4" d="M180.58 154.819L176.072 152.215C175.712 152.002 175.758 151.642 176.174 151.402L177.652 150.552C178.068 150.312 178.705 150.284 179.065 150.496L183.573 153.101C183.933 153.314 183.887 153.674 183.471 153.914L181.993 154.764C181.568 155.004 180.94 155.022 180.58 154.819Z" fill="#06033E"/>
<path opacity="0.4" d="M189.604 160.029L185.097 157.424C184.737 157.212 184.783 156.851 185.198 156.611L186.676 155.761C187.092 155.521 187.729 155.493 188.09 155.706L192.597 158.311C192.957 158.523 192.911 158.883 192.495 159.124L191.018 159.973C190.602 160.213 189.974 160.241 189.604 160.029Z" fill="#06033E"/>
<path opacity="0.4" d="M196.504 164.01L191.997 161.405C191.636 161.192 191.683 160.832 192.098 160.592L193.576 159.742C193.992 159.502 194.629 159.474 194.989 159.687L199.497 162.292C199.857 162.504 199.811 162.864 199.395 163.104L197.917 163.954C197.493 164.194 196.864 164.222 196.504 164.01Z" fill="#06033E"/>
<path opacity="0.4" d="M203.395 167.991L198.887 165.386C198.527 165.173 198.573 164.813 198.989 164.573L200.467 163.723C200.882 163.483 201.52 163.455 201.88 163.668L206.388 166.273C206.748 166.485 206.702 166.845 206.286 167.085L204.808 167.935C204.383 168.175 203.755 168.194 203.395 167.991Z" fill="#06033E"/>
<path opacity="0.4" d="M210.285 171.972L205.778 169.367C205.418 169.155 205.464 168.795 205.88 168.554L207.357 167.705C207.773 167.465 208.41 167.437 208.771 167.649L213.278 170.254C213.638 170.466 213.592 170.827 213.177 171.067L211.699 171.917C211.274 172.148 210.646 172.175 210.285 171.972Z" fill="#06033E"/>
<path opacity="0.4" d="M248.766 194.186L244.258 191.582C243.898 191.369 243.944 191.009 244.36 190.769L245.838 189.919C246.254 189.679 246.891 189.651 247.251 189.864L251.759 192.468C252.119 192.681 252.073 193.041 251.657 193.281L250.179 194.131C249.754 194.371 249.126 194.39 248.766 194.186Z" fill="#06033E"/>
<path opacity="0.4" d="M255.657 198.167L251.149 195.563C250.789 195.35 250.835 194.99 251.251 194.75L252.729 193.9C253.144 193.66 253.782 193.632 254.142 193.845L258.649 196.449C259.009 196.662 258.963 197.022 258.548 197.262L257.07 198.112C256.645 198.343 256.017 198.371 255.657 198.167Z" fill="#06033E"/>
<path opacity="0.4" d="M262.547 202.139L258.039 199.534C257.679 199.322 257.725 198.962 258.141 198.722L259.619 197.872C260.034 197.632 260.672 197.604 261.032 197.816L265.539 200.421C265.9 200.634 265.853 200.994 265.438 201.234L263.96 202.084C263.535 202.324 262.907 202.352 262.547 202.139Z" fill="#06033E"/>
<path opacity="0.4" d="M269.437 206.12L264.93 203.515C264.57 203.303 264.616 202.943 265.031 202.702L266.509 201.853C266.925 201.613 267.562 201.585 267.923 201.797L272.43 204.402C272.79 204.614 272.744 204.975 272.328 205.215L270.851 206.065C270.435 206.305 269.798 206.333 269.437 206.12Z" fill="#06033E"/>
<path opacity="0.4" d="M201.178 174.928L196.671 172.323C196.31 172.111 196.356 171.75 196.772 171.51L201.233 168.933C201.649 168.693 202.286 168.665 202.647 168.878L207.154 171.483C207.514 171.695 207.468 172.055 207.053 172.295L202.591 174.872C202.166 175.113 201.538 175.14 201.178 174.928Z" fill="#06033E"/>
<path opacity="0.4" d="M208.133 178.945L203.626 176.341C203.265 176.128 203.312 175.768 203.727 175.528L208.189 172.951C208.604 172.711 209.242 172.683 209.602 172.895L214.109 175.5C214.47 175.713 214.423 176.073 214.008 176.313L209.546 178.89C209.131 179.13 208.493 179.158 208.133 178.945Z" fill="#06033E"/>
<path opacity="0.4" d="M215.089 182.964L210.581 180.359C210.221 180.146 210.267 179.786 210.683 179.546L215.144 176.969C215.56 176.729 216.197 176.701 216.557 176.913L221.065 179.518C221.425 179.731 221.379 180.091 220.963 180.331L216.502 182.908C216.086 183.139 215.449 183.167 215.089 182.964Z" fill="#06033E"/>
<path opacity="0.4" d="M222.044 186.972L217.536 184.368C217.176 184.155 217.222 183.795 217.638 183.555L222.099 180.978C222.515 180.738 223.152 180.71 223.512 180.922L228.02 183.527C228.38 183.739 228.334 184.1 227.918 184.34L223.457 186.917C223.041 187.157 222.404 187.185 222.044 186.972Z" fill="#06033E"/>
<path opacity="0.4" d="M228.999 190.99L224.492 188.386C224.132 188.173 224.178 187.813 224.593 187.573L229.055 184.996C229.47 184.756 230.108 184.728 230.468 184.94L234.975 187.545C235.336 187.758 235.29 188.118 234.874 188.358L230.413 190.935C229.997 191.175 229.36 191.203 228.999 190.99Z" fill="#06033E"/>
<path opacity="0.4" d="M235.954 195.008L231.447 192.404C231.087 192.191 231.133 191.831 231.548 191.591L236.01 189.014C236.425 188.774 237.063 188.746 237.423 188.958L241.931 191.563C242.291 191.776 242.245 192.136 241.829 192.376L237.368 194.953C236.952 195.193 236.315 195.221 235.954 195.008Z" fill="#06033E"/>
<path opacity="0.4" d="M242.909 199.027L238.402 196.422C238.042 196.209 238.088 195.849 238.504 195.609L242.965 193.032C243.381 192.792 244.018 192.764 244.378 192.976L248.886 195.581C249.246 195.794 249.2 196.154 248.784 196.394L244.323 198.971C243.907 199.202 243.27 199.23 242.909 199.027Z" fill="#06033E"/>
<path opacity="0.4" d="M249.865 203.035L245.358 200.43C244.997 200.218 245.043 199.857 245.459 199.617L249.92 197.04C250.336 196.8 250.973 196.772 251.334 196.985L255.841 199.59C256.201 199.802 256.155 200.162 255.74 200.402L251.278 202.979C250.863 203.22 250.225 203.247 249.865 203.035Z" fill="#06033E"/>
<path opacity="0.4" d="M256.82 207.053L252.313 204.448C251.952 204.236 251.999 203.875 252.414 203.635L256.876 201.058C257.291 200.818 257.929 200.79 258.289 201.003L262.796 203.608C263.157 203.82 263.11 204.18 262.695 204.42L258.233 206.997C257.818 207.238 257.18 207.265 256.82 207.053Z" fill="#06033E"/>
<path opacity="0.4" d="M161.414 175.427L148.15 167.769C147.79 167.557 147.836 167.197 148.252 166.957L152.713 164.38C153.129 164.139 153.766 164.112 154.126 164.324L167.39 171.981C167.75 172.194 167.704 172.554 167.289 172.794L162.827 175.371C162.402 175.611 161.774 175.63 161.414 175.427Z" fill="#06033E"/>
<path opacity="0.4" d="M246.863 224.76L233.599 217.102C233.239 216.89 233.285 216.53 233.7 216.29L238.162 213.713C238.577 213.472 239.215 213.445 239.575 213.657L252.839 221.314C253.199 221.527 253.153 221.887 252.737 222.127L248.276 224.704C247.851 224.944 247.223 224.972 246.863 224.76Z" fill="#06033E"/>
<path opacity="0.4" d="M219.042 217.574L214.534 214.969C214.174 214.756 214.22 214.396 214.636 214.156L219.956 211.089C220.372 210.849 221.009 210.822 221.369 211.034L225.877 213.639C226.237 213.851 226.191 214.212 225.775 214.452L220.455 217.518C220.039 217.749 219.411 217.777 219.042 217.574Z" fill="#06033E"/>
<path opacity="0.4" d="M168.535 188.404L161.331 184.248C160.97 184.035 161.017 183.675 161.432 183.435L166.753 180.368C167.168 180.128 167.806 180.1 168.166 180.313L175.371 184.469C175.731 184.682 175.685 185.042 175.269 185.282L169.949 188.349C169.524 188.589 168.896 188.617 168.535 188.404Z" fill="#06033E"/>
<path opacity="0.4" d="M212.345 213.704L205.141 209.547C204.781 209.335 204.827 208.974 205.242 208.734L210.563 205.668C210.978 205.427 211.616 205.4 211.976 205.612L219.181 209.769C219.541 209.981 219.495 210.341 219.079 210.582L213.759 213.648C213.334 213.888 212.706 213.907 212.345 213.704Z" fill="#06033E"/>
<path opacity="0.4" d="M178.567 194.205L171.362 190.048C171.002 189.836 171.048 189.475 171.464 189.235L176.784 186.169C177.2 185.928 177.837 185.901 178.197 186.113L185.402 190.27C185.762 190.482 185.716 190.842 185.3 191.083L179.98 194.149C179.564 194.38 178.936 194.408 178.567 194.205Z" fill="#06033E"/>
<path opacity="0.4" d="M178.243 186.132L209.556 204.217C209.944 204.439 209.944 204.809 209.556 205.03L204.134 208.161C203.746 208.383 203.118 208.383 202.73 208.161L171.417 190.085L178.243 186.132Z" fill="#06033E"/>
<path opacity="0.4" d="M238.485 224.852L243.501 227.753C243.796 227.928 243.76 228.224 243.418 228.418L241.247 229.674C240.905 229.868 240.388 229.895 240.093 229.72L235.077 226.82C234.781 226.644 234.818 226.349 235.16 226.155L237.331 224.898C237.673 224.704 238.19 224.677 238.485 224.852Z" fill="#06033E"/>
<path opacity="0.4" d="M231.475 220.806L236.49 223.707C236.786 223.882 236.749 224.178 236.407 224.372L234.236 225.628C233.895 225.822 233.377 225.85 233.082 225.674L228.066 222.774C227.771 222.598 227.808 222.303 228.149 222.109L230.32 220.853C230.662 220.649 231.179 220.631 231.475 220.806Z" fill="#06033E"/>
<path opacity="0.4" d="M224.519 216.789L229.535 219.689C229.83 219.865 229.793 220.16 229.451 220.354L227.281 221.61C226.939 221.804 226.422 221.832 226.126 221.656L221.111 218.756C220.815 218.581 220.852 218.285 221.194 218.091L223.364 216.835C223.706 216.641 224.223 216.613 224.519 216.789Z" fill="#06033E"/>
<path opacity="0.4" d="M235.317 218.58L240.332 221.481C240.628 221.656 240.591 221.952 240.249 222.146L238.079 223.402C237.737 223.596 237.22 223.624 236.924 223.448L231.909 220.548C231.613 220.372 231.65 220.077 231.992 219.883L234.162 218.627C234.495 218.433 235.012 218.414 235.317 218.58Z" fill="#06033E"/>
</g>
<path d="M308.924 210.461L176.045 133.741C173.957 132.531 172.867 129.594 173.606 127.174L203.653 29.6061C204.402 27.1861 206.692 26.207 208.789 27.4077L341.669 104.128C343.756 105.338 344.846 108.275 344.107 110.695L314.06 208.263C313.312 210.683 311.012 211.671 308.924 210.461Z" fill="url(#paint7_radial_1327_3204)"/>
<path d="M307.668 207.044L178.779 132.568C176.784 131.414 175.74 128.596 176.451 126.287L205.178 33.0146C205.889 30.6961 208.087 29.754 210.092 30.9086L338.981 105.384C340.976 106.539 342.02 109.356 341.309 111.665L312.582 204.938C311.871 207.256 309.673 208.199 307.668 207.044Z" fill="url(#paint8_linear_1327_3204)"/>
<path opacity="0.4" d="M307.668 207.044L178.779 132.568C176.784 131.414 175.74 128.596 176.451 126.287L205.178 33.0146C205.889 30.6961 208.087 29.754 210.092 30.9086L338.981 105.384C340.976 106.539 342.02 109.356 341.309 111.665L312.582 204.938C311.871 207.256 309.673 208.199 307.668 207.044Z" fill="#06033E"/>
<path opacity="0.4" d="M307.668 207.044L178.779 132.568C176.784 131.414 175.74 128.596 176.451 126.287L205.178 33.0146C205.889 30.6961 208.087 29.754 210.092 30.9086L338.981 105.384C340.976 106.539 342.02 109.356 341.309 111.665L312.582 204.938C311.871 207.256 309.673 208.199 307.668 207.044Z" fill="#06033E"/>
<path opacity="0.5" d="M300.75 178.539L213.5 128.162C212.123 127.368 211.412 125.437 211.902 123.849L231.631 59.7826C232.121 58.1939 233.626 57.5473 235.003 58.3417L322.253 108.719C323.629 109.513 324.34 111.444 323.851 113.032L304.121 177.098C303.632 178.687 302.117 179.334 300.75 178.539Z" fill="#06033E"/>
<path d="M288.964 180.082L201.714 129.705C200.338 128.91 199.626 126.98 200.116 125.391L219.846 61.3251C220.335 59.7364 221.841 59.0898 223.217 59.8841L310.467 110.261C311.844 111.056 312.555 112.986 312.065 114.575L292.336 178.641C291.837 180.23 290.331 180.876 288.964 180.082Z" fill="url(#paint9_radial_1327_3204)"/>
<g opacity="0.5">
<path opacity="0.5" d="M288.964 180.082L201.714 129.705C200.338 128.91 199.626 126.98 200.116 125.391L219.846 61.3251C220.335 59.7364 221.841 59.0898 223.217 59.8841L310.467 110.261C311.844 111.056 312.555 112.986 312.065 114.575L292.336 178.641C291.837 180.23 290.331 180.876 288.964 180.082Z" fill="#06033E"/>
</g>
<path d="M310.458 110.271L223.207 59.8935C222.348 59.3947 221.434 59.4686 220.75 59.9766C221.166 59.9673 221.591 60.0597 222.007 60.2999L309.257 110.677C310.633 111.471 311.344 113.402 310.855 114.991L291.125 179.057C290.94 179.648 290.617 180.11 290.211 180.414C291.144 180.387 291.984 179.749 292.317 178.65L312.046 114.584C312.545 112.986 311.834 111.065 310.458 110.271Z" fill="white"/>
<path opacity="0.4" d="M178.918 232.399C177.717 232.399 176.562 232.149 175.685 231.641L140.724 211.459C139.8 210.923 139.292 210.157 139.292 209.307C139.292 208.319 139.994 207.34 141.222 206.638L159.216 196.246C161.414 194.981 164.638 194.851 166.568 195.96L201.52 216.142C202.444 216.678 202.952 217.445 202.961 218.294C202.961 219.283 202.259 220.262 201.03 220.964L183.037 231.355C181.836 232.048 180.34 232.399 178.918 232.399ZM163.344 196.228C162.079 196.228 160.74 196.533 159.714 197.124L141.721 207.515C140.816 208.042 140.299 208.697 140.299 209.316C140.299 209.926 140.807 210.351 141.232 210.591L176.193 230.773C177.781 231.688 180.682 231.558 182.529 230.487L200.522 220.095C201.428 219.569 201.945 218.922 201.945 218.294C201.945 217.685 201.437 217.26 201.012 217.02L166.06 196.837C165.349 196.431 164.37 196.228 163.344 196.228Z" fill="#06033E"/>
<path d="M98.9828 161.931C96.4889 161.931 93.995 161.285 91.7689 160.001L65.3611 144.751C64.2157 144.086 63.5322 142.904 63.5322 141.583C63.5322 140.262 64.2157 139.08 65.3611 138.414L91.7689 123.165C96.221 120.597 101.754 120.597 106.206 123.165L132.614 138.414C133.759 139.08 134.443 140.262 134.443 141.583C134.443 142.904 133.759 144.086 132.614 144.751L106.206 160.001C103.98 161.294 101.477 161.931 98.9828 161.931ZM92.6279 158.514C96.5536 160.777 101.421 160.777 105.347 158.514L131.755 143.264C132.364 142.913 132.725 142.285 132.725 141.583C132.725 140.881 132.364 140.253 131.755 139.902L105.347 124.652C101.421 122.389 96.5536 122.389 92.6279 124.652L66.2201 139.902C65.6105 140.253 65.2503 140.881 65.2503 141.583C65.2503 142.285 65.6105 142.913 66.2201 143.264L92.6279 158.514Z" fill="url(#paint10_linear_1327_3204)"/>
<path opacity="0.6" d="M98.8534 152.427C108.872 152.427 116.994 147.737 116.994 141.952C116.994 136.168 108.872 131.478 98.8534 131.478C88.8344 131.478 80.7124 136.168 80.7124 141.952C80.7124 147.737 88.8344 152.427 98.8534 152.427Z" fill="#020230"/>
<path d="M125.742 67.3013H74.0713L78.8744 123.248C78.8744 126.352 80.925 129.464 85.0353 131.829C93.2468 136.568 106.566 136.568 114.778 131.829C118.888 129.455 120.938 126.352 120.938 123.239L125.742 67.3013Z" fill="url(#paint11_radial_1327_3204)"/>
<path opacity="0.4" d="M125.742 67.3013H74.0713L74.8656 76.5011C76.048 78.0159 77.6459 79.4753 79.6503 80.8054C89.5244 87.3542 105.818 88.6197 116.93 83.8997L115.212 124.818C115.138 126.601 114.519 128.338 113.364 129.695C111.693 131.663 108.469 133.981 102.271 135.293C106.843 134.997 111.277 133.843 114.778 131.82C118.888 129.446 120.938 126.342 120.938 123.23L124.79 78.3669L125.742 67.3013Z" fill="#06033E"/>
<path opacity="0.4" d="M99.9064 82.2185C114.175 82.2185 125.742 75.5397 125.742 67.3011C125.742 59.0625 114.175 52.3838 99.9064 52.3838C85.6381 52.3838 74.0713 59.0625 74.0713 67.3011C74.0713 75.5397 85.6381 82.2185 99.9064 82.2185Z" fill="#06033E"/>
<path opacity="0.4" d="M99.9066 74.8846C112.196 74.8846 122.158 69.1322 122.158 62.0363C122.158 54.9404 112.196 49.188 99.9066 49.188C87.6175 49.188 77.6553 54.9404 77.6553 62.0363C77.6553 69.1322 87.6175 74.8846 99.9066 74.8846Z" fill="#06033E"/>
<path d="M127.275 66.5993V66.5531C127.275 66.5254 127.266 66.4977 127.266 66.4792L126.767 61.4637L126.748 61.5191C126.527 57.732 123.913 53.9727 118.906 51.0816C108.413 45.0223 91.4086 45.0223 80.9156 51.0816C75.78 54.0466 73.166 57.9168 73.0552 61.8054L73.0459 61.7962L72.5748 66.2575C72.5656 66.3776 72.5471 66.4885 72.5379 66.6085L72.5287 66.6824H72.5379C72.2516 70.9313 74.921 75.2357 80.5369 78.4777C91.233 84.6571 108.58 84.6571 119.276 78.4777C124.938 75.2079 127.598 70.8667 127.275 66.5993Z" fill="url(#paint12_linear_1327_3204)"/>
<path d="M99.9066 74.8846C112.196 74.8846 122.158 69.1322 122.158 62.0363C122.158 54.9404 112.196 49.188 99.9066 49.188C87.6175 49.188 77.6553 54.9404 77.6553 62.0363C77.6553 69.1322 87.6175 74.8846 99.9066 74.8846Z" fill="url(#paint13_linear_1327_3204)"/>
<path d="M98.8534 74.8846C111.142 74.8846 121.105 69.1322 121.105 62.0363C121.105 54.9404 111.142 49.188 98.8534 49.188C86.5643 49.188 76.6021 54.9404 76.6021 62.0363C76.6021 69.1322 86.5643 74.8846 98.8534 74.8846Z" fill="url(#paint14_linear_1327_3204)"/>
<path opacity="0.4" d="M86.8085 54.8685C95.5003 49.8529 109.586 49.8529 118.278 54.8685C118.389 54.9331 118.481 55.007 118.592 55.0717C117.752 54.3235 116.772 53.6123 115.646 52.9565C106.954 47.9409 92.8678 47.9409 84.176 52.9565C75.5951 57.9074 75.5027 65.8972 83.862 70.9312C78.2738 65.9433 79.2529 59.2282 86.8085 54.8685Z" fill="#06033E"/>
<path d="M84.1672 55.1825C92.8589 50.167 106.945 50.167 115.637 55.1825C119.488 57.4086 121.631 60.2443 122.066 63.1538C122.61 59.5053 120.468 55.746 115.637 52.9565C106.945 47.9409 92.8589 47.9409 84.1672 52.9565C79.3271 55.746 77.1934 59.5053 77.7384 63.1538C78.1818 60.2443 80.3154 57.4086 84.1672 55.1825Z" fill="url(#paint15_linear_1327_3204)"/>
<path d="M119.063 51.2015C108.589 45.0313 91.5195 44.8835 80.9342 50.8689C70.3489 56.8543 70.2658 66.7099 80.7402 72.8801C91.2147 79.0502 108.284 79.198 118.869 73.2126C129.455 67.2272 129.538 57.3716 119.063 51.2015ZM115.646 71.1251C112.746 72.797 109.236 73.9054 105.522 74.4596L105.116 73.1295C104.95 72.5937 104.46 72.2243 103.897 72.2243H95.9069C95.3435 72.2243 94.854 72.5937 94.6877 73.1295L94.2813 74.4596C90.5773 73.9054 87.0674 72.797 84.167 71.1251C75.4753 66.1096 75.4753 57.972 84.167 52.9564C92.8588 47.9409 106.945 47.9409 115.637 52.9564C124.338 57.972 124.338 66.1096 115.646 71.1251Z" fill="url(#paint16_radial_1327_3204)"/>
<path d="M115.646 52.0048C106.954 46.9893 92.8681 46.9893 84.1764 52.0048C79.6227 54.6373 77.4613 58.1195 77.6829 61.5648C77.8862 58.4336 80.0475 55.3393 84.1764 52.9562C92.8681 47.9407 106.954 47.9407 115.646 52.9562C119.784 55.3393 121.945 58.4336 122.149 61.5648C122.361 58.1195 120.2 54.6373 115.646 52.0048Z" fill="white"/>
<path d="M118.869 72.261C108.284 78.2464 91.2146 78.0986 80.7401 71.9284C75.7523 68.9912 73.166 65.2226 72.9628 61.4263C72.7596 65.5366 75.3458 69.6932 80.7401 72.8798C91.2146 79.05 108.284 79.1978 118.869 73.2123C124.411 70.0719 127.072 65.8784 126.841 61.7034C126.656 65.5551 123.996 69.3606 118.869 72.261Z" fill="white"/>
<path d="M102.299 75.1526H97.5232C97.1907 75.1526 96.9229 74.8847 96.9229 74.5522V74.469C96.9229 74.1365 97.1907 73.8687 97.5232 73.8687H102.299C102.631 73.8687 102.899 74.1365 102.899 74.469V74.5522C102.899 74.8847 102.631 75.1526 102.299 75.1526Z" fill="#0C0A78"/>
<path d="M102.299 73.8594H97.5232C97.1907 73.8594 96.9229 74.1272 96.9229 74.4598V74.5429C96.9229 74.5983 96.9413 74.6537 96.9598 74.6999C97.0337 74.4505 97.2554 74.2566 97.5325 74.2566H102.308C102.585 74.2566 102.807 74.4505 102.881 74.6999C102.899 74.6445 102.917 74.5983 102.917 74.5429V74.4598C102.899 74.1272 102.631 73.8594 102.299 73.8594Z" fill="url(#paint17_linear_1327_3204)"/>
<path d="M100.636 117.493C100.054 119.701 97.7913 121.003 95.5838 120.421C93.3762 119.839 92.0738 117.576 92.6557 115.369C93.2376 113.161 95.3159 112.542 97.5235 113.124C99.7311 113.715 101.227 115.295 100.636 117.493Z" fill="#E8975B"/>
<path d="M103.887 113.152C103.056 113.965 101.994 113.864 101.292 113.134C100.59 112.413 100.507 111.351 101.338 110.538C102.169 109.725 103.749 109.328 104.451 110.049C105.153 110.769 104.719 112.339 103.887 113.152Z" fill="#E8975B"/>
<path d="M99.5737 109.698C99.3705 110.843 98.4468 111.379 97.4493 111.194C96.4517 111.019 95.7682 110.196 95.9714 109.051C96.1746 107.906 97.2276 106.659 98.2252 106.844C99.2135 107.019 99.7769 108.552 99.5737 109.698Z" fill="#E8975B"/>
<path d="M94.2535 109.162C94.6968 110.233 94.1981 111.185 93.2651 111.563C92.3322 111.951 91.3162 111.628 90.8728 110.547C90.4295 109.476 90.6511 107.859 91.5841 107.472C92.517 107.102 93.8101 108.09 94.2535 109.162Z" fill="#E8975B"/>
<path opacity="0.5" d="M101.597 74.5056C101.597 74.5056 116.043 69.6656 110.196 53.0671C104.349 36.4687 92.9603 31.407 97.5418 18.1338C97.5418 18.1338 90.3556 28.8854 97.0707 43.424C103.786 57.9718 105.264 56.3 105.181 63.2553C105.088 71.5221 98.41 74.5056 98.41 74.5056H101.597Z" fill="white"/>
<path opacity="0.5" d="M102.899 20.4339C102.899 20.4339 101.393 10.5044 110.713 0.500977C110.713 0.500977 102.474 18.9006 105.171 27.9803C105.162 27.9803 102.991 22.2073 102.899 20.4339Z" fill="white"/>
</g>
<defs>
<linearGradient id="paint0_linear_1327_3204" x1="375.405" y1="249.31" x2="405.527" y2="249.31" gradientUnits="userSpaceOnUse">
<stop stop-color="#E39A65"/>
<stop offset="1" stop-color="#E95F8D"/>
</linearGradient>
<linearGradient id="paint1_linear_1327_3204" x1="334.162" y1="208.028" x2="384.759" y2="208.028" gradientUnits="userSpaceOnUse">
<stop stop-color="#E39A65"/>
<stop offset="1" stop-color="#E95F8D"/>
</linearGradient>
<linearGradient id="paint2_linear_1327_3204" x1="0.509766" y1="224.98" x2="51.107" y2="224.98" gradientUnits="userSpaceOnUse">
<stop stop-color="#E39A65"/>
<stop offset="1" stop-color="#E95F8D"/>
</linearGradient>
<linearGradient id="paint3_linear_1327_3204" x1="59.4167" y1="221.735" x2="329.46" y2="221.735" gradientUnits="userSpaceOnUse">
<stop stop-color="#E39A65"/>
<stop offset="1" stop-color="#E95F8D"/>
</linearGradient>
<radialGradient id="paint4_radial_1327_3204" cx="0" cy="0" r="1" gradientUnits="userSpaceOnUse" gradientTransform="translate(208.577 21.8012) scale(206.253)">
<stop stop-color="#E39A65"/>
<stop offset="0.4742" stop-color="#A92FFB"/>
<stop offset="0.5947" stop-color="#891CFB"/>
<stop offset="0.7421" stop-color="#6507FA"/>
<stop offset="0.8016" stop-color="#0D0C6F"/>
</radialGradient>
<radialGradient id="paint5_radial_1327_3204" cx="0" cy="0" r="1" gradientUnits="userSpaceOnUse" gradientTransform="translate(82.4288 187.437) scale(225.536)">
<stop stop-color="#E39A65"/>
<stop offset="0.4742" stop-color="#A92FFB"/>
<stop offset="0.5679" stop-color="#891CFB"/>
<stop offset="0.6825" stop-color="#6507FA"/>
<stop offset="0.7381" stop-color="#0D0C6F"/>
</radialGradient>
<radialGradient id="paint6_radial_1327_3204" cx="0" cy="0" r="1" gradientUnits="userSpaceOnUse" gradientTransform="translate(103.172 142.168) scale(202.248)">
<stop stop-color="#E39A65"/>
<stop offset="0.4742" stop-color="#A92FFB"/>
<stop offset="0.5875" stop-color="#891CFB"/>
<stop offset="0.7262" stop-color="#6507FA"/>
<stop offset="1" stop-color="#3919BB"/>
</radialGradient>
<radialGradient id="paint7_radial_1327_3204" cx="0" cy="0" r="1" gradientUnits="userSpaceOnUse" gradientTransform="translate(153.556 64.8235) scale(206.294)">
<stop stop-color="#E39A65"/>
<stop offset="0.4742" stop-color="#A92FFB"/>
<stop offset="0.5875" stop-color="#891CFB"/>
<stop offset="0.7262" stop-color="#6507FA"/>
<stop offset="1" stop-color="#3919BB"/>
</radialGradient>
<linearGradient id="paint8_linear_1327_3204" x1="176.23" y1="118.976" x2="341.537" y2="118.976" gradientUnits="userSpaceOnUse">
<stop stop-color="#3919BB"/>
<stop offset="1" stop-color="#6507FA"/>
</linearGradient>
<radialGradient id="paint9_radial_1327_3204" cx="0" cy="0" r="1" gradientUnits="userSpaceOnUse" gradientTransform="translate(78.2476 20.7705) scale(321.298)">
<stop stop-color="#E39A65"/>
<stop offset="0.4742" stop-color="#A92FFB"/>
<stop offset="0.5875" stop-color="#891CFB"/>
<stop offset="0.7262" stop-color="#6507FA"/>
<stop offset="1" stop-color="#3919BB"/>
</radialGradient>
<linearGradient id="paint10_linear_1327_3204" x1="63.5272" y1="141.589" x2="134.443" y2="141.589" gradientUnits="userSpaceOnUse">
<stop stop-color="#E39A65"/>
<stop offset="1" stop-color="#E95F8D"/>
</linearGradient>
<radialGradient id="paint11_radial_1327_3204" cx="0" cy="0" r="1" gradientUnits="userSpaceOnUse" gradientTransform="translate(69.8143 83.7435) scale(152.729)">
<stop stop-color="#E39A65"/>
<stop offset="0.1528" stop-color="#A92FFB"/>
<stop offset="0.4087" stop-color="#3919BB"/>
<stop offset="0.9311" stop-color="#3919BB"/>
</radialGradient>
<linearGradient id="paint12_linear_1327_3204" x1="72.5172" y1="64.8235" x2="127.3" y2="64.8235" gradientUnits="userSpaceOnUse">
<stop stop-color="#E39A65"/>
<stop offset="0.252" stop-color="#A92FFB"/>
<stop offset="0.5556" stop-color="#3919BB"/>
</linearGradient>
<linearGradient id="paint13_linear_1327_3204" x1="77.6542" y1="62.0399" x2="122.161" y2="62.0399" gradientUnits="userSpaceOnUse">
<stop stop-color="#4F1FEC"/>
<stop offset="1" stop-color="#A92FFB"/>
</linearGradient>
<linearGradient id="paint14_linear_1327_3204" x1="76.598" y1="62.0399" x2="121.105" y2="62.0399" gradientUnits="userSpaceOnUse">
<stop stop-color="#4F1FEC"/>
<stop offset="1" stop-color="#A92FFB"/>
</linearGradient>
<linearGradient id="paint15_linear_1327_3204" x1="77.6579" y1="56.1735" x2="133.773" y2="56.1735" gradientUnits="userSpaceOnUse">
<stop stop-color="#131060"/>
<stop offset="0.1857" stop-color="#141062"/>
<stop offset="0.2823" stop-color="#19106A"/>
<stop offset="0.3584" stop-color="#221078"/>
<stop offset="0.4238" stop-color="#2E0F8B"/>
<stop offset="0.4823" stop-color="#3E0FA3"/>
<stop offset="0.5359" stop-color="#510EC2"/>
<stop offset="0.5847" stop-color="#680DE5"/>
<stop offset="0.6071" stop-color="#740DF8"/>
<stop offset="0.6179" stop-color="#7A14F0"/>
<stop offset="0.6826" stop-color="#9B3CC3"/>
<stop offset="0.7477" stop-color="#B75D9D"/>
<stop offset="0.8123" stop-color="#CC7680"/>
<stop offset="0.8762" stop-color="#DC886C"/>
<stop offset="0.9391" stop-color="#E5935F"/>
<stop offset="1" stop-color="#E8975B"/>
</linearGradient>
<radialGradient id="paint16_radial_1327_3204" cx="0" cy="0" r="1" gradientUnits="userSpaceOnUse" gradientTransform="translate(65.6796 49.324) scale(99.9087)">
<stop stop-color="#E39A65"/>
<stop offset="0.252" stop-color="#A92FFB"/>
<stop offset="0.7357" stop-color="#3919BB"/>
</radialGradient>
<linearGradient id="paint17_linear_1327_3204" x1="96.385" y1="74.2844" x2="104.148" y2="74.2844" gradientUnits="userSpaceOnUse">
<stop stop-color="#131060"/>
<stop offset="0.1857" stop-color="#141062"/>
<stop offset="0.2823" stop-color="#19106A"/>
<stop offset="0.3584" stop-color="#221078"/>
<stop offset="0.4238" stop-color="#2E0F8B"/>
<stop offset="0.4823" stop-color="#3E0FA3"/>
<stop offset="0.5359" stop-color="#510EC2"/>
<stop offset="0.5847" stop-color="#680DE5"/>
<stop offset="0.6071" stop-color="#740DF8"/>
<stop offset="0.6179" stop-color="#7A14F0"/>
<stop offset="0.6826" stop-color="#9B3CC3"/>
<stop offset="0.7477" stop-color="#B75D9D"/>
<stop offset="0.8123" stop-color="#CC7680"/>
<stop offset="0.8762" stop-color="#DC886C"/>
<stop offset="0.9391" stop-color="#E5935F"/>
<stop offset="1" stop-color="#E8975B"/>
</linearGradient>
<clipPath id="clip0_1327_3204">
<rect width="405.022" height="300" fill="white" transform="translate(0.509766 0.500977)"/>
</clipPath>
</defs>
</svg>
