<svg width="96" height="96" viewBox="0 0 96 96" fill="none" xmlns="http://www.w3.org/2000/svg">
<g filter="url(#filter0_d_2352_25972)">
<rect x="18" y="13" width="60" height="60" rx="30" fill="white"/>
</g>
<g clip-path="url(#clip0_2352_25972)">
<path opacity="0.2" d="M66.6567 50.6756C66.5981 50.324 66.2934 50.0721 65.9419 50.0721H64.9751C64.7641 49.4861 64.4477 48.9412 64.0434 48.4666L64.5239 47.6287C64.6997 47.324 64.6294 46.9373 64.3598 46.7088C63.7973 46.24 63.1645 45.8709 62.479 45.6189C62.145 45.49 61.77 45.6248 61.5942 45.9354L61.1137 46.7732C60.4985 46.6619 59.8716 46.6619 59.2563 46.7732L58.7759 45.9354C58.6001 45.6248 58.2251 45.49 57.8911 45.6189C57.2056 45.8768 56.5727 46.2459 56.0102 46.7088C55.7349 46.9314 55.6704 47.324 55.8462 47.6287L56.3267 48.4666C55.9224 48.9412 55.606 49.4861 55.395 50.0721H54.4282C54.0708 50.0721 53.772 50.3299 53.7134 50.6814C53.5903 51.4021 53.5903 52.1346 53.7134 52.8553C53.772 53.2068 54.0767 53.4588 54.4282 53.4588H55.395C55.606 54.0447 55.9224 54.5896 56.3267 55.0643L55.8462 55.9021C55.6704 56.2068 55.7407 56.5935 56.0102 56.8221C56.5727 57.2908 57.2056 57.66 57.8911 57.9119C58.2251 58.0408 58.6001 57.9061 58.7759 57.5955L59.2563 56.7576C59.8716 56.8689 60.4985 56.8689 61.1137 56.7576L61.5942 57.5955C61.77 57.9061 62.145 58.0408 62.479 57.9119C63.1645 57.6541 63.7973 57.285 64.3598 56.8221C64.6352 56.5994 64.6997 56.2068 64.5239 55.9021L64.0434 55.0643C64.4477 54.5896 64.7641 54.0447 64.9751 53.4588H65.9419C66.2993 53.4588 66.5981 53.201 66.6567 52.8494C66.7798 52.1287 66.7798 51.3963 66.6567 50.6756ZM58.6411 53.3064C56.9067 51.0506 59.479 48.4783 61.7348 50.2127C63.4692 52.4686 60.897 55.0408 58.6411 53.3064ZM66.6567 33.1619C66.5981 32.8104 66.2934 32.5584 65.9419 32.5584H64.9751C64.7641 31.9725 64.4477 31.4275 64.0434 30.9529L64.5239 30.115C64.6997 29.8104 64.6294 29.4236 64.3598 29.1951C63.7973 28.7264 63.1645 28.3572 62.479 28.1053C62.145 27.9764 61.77 28.1111 61.5942 28.4217L61.1137 29.2596C60.4985 29.1482 59.8716 29.1482 59.2563 29.2596L58.7759 28.4217C58.6001 28.1111 58.2251 27.9764 57.8911 28.1053C57.2056 28.3631 56.5727 28.7322 56.0102 29.1951C55.7349 29.4178 55.6704 29.8104 55.8462 30.115L56.3267 30.9529C55.9224 31.4275 55.606 31.9725 55.395 32.5584H54.4282C54.0708 32.5584 53.772 32.8162 53.7134 33.1678C53.5903 33.8885 53.5903 34.6209 53.7134 35.3416C53.772 35.6932 54.0767 35.9451 54.4282 35.9451H55.395C55.606 36.5311 55.9224 37.076 56.3267 37.5506L55.8462 38.3885C55.6704 38.6932 55.7407 39.0799 56.0102 39.3084C56.5727 39.7771 57.2056 40.1463 57.8911 40.3982C58.2251 40.5271 58.6001 40.3924 58.7759 40.0818L59.2563 39.2439C59.8716 39.3553 60.4985 39.3553 61.1137 39.2439L61.5942 40.0818C61.77 40.3924 62.145 40.5271 62.479 40.3982C63.1645 40.1404 63.7973 39.7713 64.3598 39.3084C64.6352 39.0857 64.6997 38.6932 64.5239 38.3885L64.0434 37.5506C64.4477 37.076 64.7641 36.5311 64.9751 35.9451H65.9419C66.2993 35.9451 66.5981 35.6873 66.6567 35.3357C66.7798 34.615 66.7798 33.8826 66.6567 33.1619ZM58.6411 35.7986C56.9067 33.5428 59.479 30.9647 61.7348 32.7049C63.4692 34.9607 60.897 37.533 58.6411 35.7986Z" fill="#F7421E"/>
<path d="M53.8599 45.8005L51.8853 44.8162C52.1138 43.5857 52.1138 42.3259 51.8853 41.0955L53.8599 40.1111C54.4517 39.7654 54.6802 39.0447 54.4458 38.406C53.9244 36.988 52.9283 35.6873 51.979 34.5505C51.5396 34.0291 50.7896 33.9002 50.2037 34.24L48.4986 35.2244C47.5494 34.4158 46.4595 33.783 45.2818 33.3669V31.3982C45.2818 30.7127 44.7837 30.1267 44.1099 30.0154C42.6334 29.7693 41.1275 29.7693 39.6568 30.0212C38.9888 30.1384 38.5084 30.7185 38.5084 31.3982V33.3728C37.3306 33.7888 36.2408 34.4158 35.2916 35.2302L33.5865 34.2459C33.0005 33.906 32.2505 34.0349 31.8111 34.5564C30.8619 35.6931 29.8599 36.9939 29.3384 38.4119C29.0982 39.0505 29.3619 39.7712 29.9537 40.1111L31.9048 41.1013C31.6763 42.3318 31.6763 43.5857 31.9048 44.8162L29.9537 45.8005C29.3619 46.1462 29.1041 46.8611 29.3384 47.5056C29.8599 48.9177 30.8619 50.2185 31.8111 51.3552C32.2505 51.8767 33.0005 52.0056 33.5865 51.6658L35.2916 50.6873C36.2408 51.4959 37.3306 52.1287 38.5084 52.5447V54.5134C38.5084 55.199 39.0064 55.7849 39.6802 55.8962C41.1509 56.1482 42.6568 56.1482 44.1275 55.8962C44.7955 55.7732 45.2818 55.1931 45.2818 54.5134V52.5447C46.4595 52.1287 47.5494 51.5017 48.4986 50.6873L50.2037 51.6716C50.7896 52.0115 51.5396 51.8826 51.979 51.3611C52.9283 50.2244 53.9537 48.9236 54.4751 47.5056C54.7154 46.8611 54.4517 46.1404 53.8599 45.8005ZM44.9947 46.0525C40.483 49.5212 35.3326 44.3709 38.8013 39.8591C43.313 36.3904 48.4634 41.5408 44.9947 46.0525Z" fill="#F7421E"/>
</g>
<defs>
<filter id="filter0_d_2352_25972" x="0" y="0" width="96" height="96" filterUnits="userSpaceOnUse" color-interpolation-filters="sRGB">
<feFlood flood-opacity="0" result="BackgroundImageFix"/>
<feColorMatrix in="SourceAlpha" type="matrix" values="0 0 0 0 0 0 0 0 0 0 0 0 0 0 0 0 0 0 127 0" result="hardAlpha"/>
<feMorphology radius="2" operator="erode" in="SourceAlpha" result="effect1_dropShadow_2352_25972"/>
<feOffset dy="5"/>
<feGaussianBlur stdDeviation="10"/>
<feComposite in2="hardAlpha" operator="out"/>
<feColorMatrix type="matrix" values="0 0 0 0 0.129412 0 0 0 0 0.156863 0 0 0 0 0.2 0 0 0 0.08 0"/>
<feBlend mode="normal" in2="BackgroundImageFix" result="effect1_dropShadow_2352_25972"/>
<feBlend mode="normal" in="SourceGraphic" in2="effect1_dropShadow_2352_25972" result="shape"/>
</filter>
<clipPath id="clip0_2352_25972">
<rect width="37.5" height="30" fill="white" transform="translate(29.25 28)"/>
</clipPath>
</defs>
</svg>
