<svg width="96" height="96" viewBox="0 0 96 96" fill="none" xmlns="http://www.w3.org/2000/svg">
<g filter="url(#filter0_d_2352_25984)">
<rect x="18" y="13" width="60" height="60" rx="30" fill="white"/>
</g>
<g clip-path="url(#clip0_2352_25984)">
<path opacity="0.95" d="M55.8606 34H40.9866C40.7623 34 40.5471 34.0891 40.3884 34.2478C40.2298 34.4064 40.1406 34.6216 40.1406 34.846V36.082H43.9326C44.0439 36.0812 44.1543 36.1025 44.2573 36.1448C44.3603 36.187 44.4539 36.2493 44.5326 36.328C44.6894 36.4885 44.7776 36.7036 44.7786 36.928V41.722H56.7066V34.846C56.7066 34.6216 56.6175 34.4064 56.4588 34.2478C56.3002 34.0891 56.085 34 55.8606 34Z" fill="#F7421E"/>
<path opacity="0.2" d="M42.6836 33.7361V34.0001H44.8136V33.7361C44.8516 32.8044 45.2484 31.9235 45.9211 31.2777C46.5938 30.6319 47.4901 30.2713 48.4226 30.2713C49.3551 30.2713 50.2514 30.6319 50.9241 31.2777C51.5967 31.9235 51.9936 32.8044 52.0316 33.7361V34.0001H54.1616V33.7361C54.1134 32.2461 53.4877 30.8333 52.4166 29.7964C51.3456 28.7595 49.9133 28.1797 48.4226 28.1797C46.9319 28.1797 45.4996 28.7595 44.4285 29.7964C43.3575 30.8333 42.7318 32.2461 42.6836 33.7361Z" fill="#F7421E"/>
<path opacity="0.95" d="M43.931 38.4282V37.2102C43.931 37.1354 43.9013 37.0637 43.8484 37.0108C43.7955 36.9579 43.7238 36.9282 43.649 36.9282H39.575C39.5002 36.9282 39.4284 36.9579 39.3756 37.0108C39.3227 37.0637 39.293 37.1354 39.293 37.2102V38.4282C39.293 38.503 39.3227 38.5747 39.3756 38.6276C39.4284 38.6805 39.5002 38.7102 39.575 38.7102H43.649C43.7238 38.7102 43.7955 38.6805 43.8484 38.6276C43.9013 38.5747 43.931 38.503 43.931 38.4282ZM40.607 37.8222C40.607 37.9336 40.5627 38.0404 40.484 38.1192C40.4052 38.198 40.2984 38.2422 40.187 38.2422C40.1313 38.243 40.076 38.2327 40.0244 38.212C39.9727 38.1912 39.9257 38.1604 39.8861 38.1213C39.8465 38.0823 39.815 38.0357 39.7935 37.9843C39.772 37.933 39.761 37.8779 39.761 37.8222C39.761 37.7092 39.8059 37.6009 39.8857 37.521C39.9656 37.4411 40.074 37.3962 40.187 37.3962C40.2426 37.3962 40.2977 37.4073 40.3491 37.4288C40.4004 37.4502 40.447 37.4817 40.4861 37.5214C40.5252 37.561 40.556 37.608 40.5767 37.6597C40.5975 37.7113 40.6078 37.7666 40.607 37.8222ZM43.463 37.8222C43.463 37.8779 43.4519 37.933 43.4304 37.9843C43.409 38.0357 43.3775 38.0823 43.3378 38.1213C43.2982 38.1604 43.2512 38.1912 43.1995 38.212C43.1479 38.2327 43.0926 38.243 43.037 38.2422C42.9256 38.2422 42.8187 38.198 42.74 38.1192C42.6612 38.0404 42.617 37.9336 42.617 37.8222C42.6162 37.7666 42.6264 37.7113 42.6472 37.6597C42.668 37.608 42.6988 37.561 42.7378 37.5214C42.7769 37.4817 42.8235 37.4502 42.8748 37.4288C42.9262 37.4073 42.9813 37.3962 43.037 37.3962C43.15 37.3962 43.2583 37.4411 43.3382 37.521C43.4181 37.6009 43.463 37.7092 43.463 37.8222Z" fill="#F7421E"/>
<path opacity="0.35" d="M43.0372 37.396C42.9816 37.396 42.9265 37.407 42.8751 37.4285C42.8238 37.45 42.7772 37.4815 42.7381 37.5211C42.699 37.5608 42.6682 37.6078 42.6475 37.6594C42.6267 37.7111 42.6164 37.7663 42.6172 37.822C42.6172 37.9334 42.6615 38.0402 42.7402 38.119C42.819 38.1977 42.9258 38.242 43.0372 38.242C43.0929 38.2428 43.1481 38.2325 43.1998 38.2118C43.2514 38.191 43.2985 38.1602 43.3381 38.1211C43.3777 38.082 43.4092 38.0355 43.4307 37.9841C43.4522 37.9328 43.4632 37.8777 43.4632 37.822C43.4632 37.709 43.4183 37.6007 43.3385 37.5208C43.2586 37.4409 43.1502 37.396 43.0372 37.396Z" fill="#F7421E"/>
<path opacity="0.35" d="M40.6077 37.8193C40.6077 37.5855 40.4183 37.396 40.1847 37.396C39.9511 37.396 39.7617 37.5855 39.7617 37.8193C39.7617 38.0531 39.9511 38.2426 40.1847 38.2426C40.4183 38.2426 40.6077 38.0531 40.6077 37.8193Z" fill="#F7421E"/>
<path opacity="0.95" d="M43.931 41.062V39.844C43.931 39.7692 43.9013 39.6975 43.8484 39.6446C43.7955 39.5917 43.7238 39.562 43.649 39.562H39.575C39.5002 39.562 39.4284 39.5917 39.3756 39.6446C39.3227 39.6975 39.293 39.7692 39.293 39.844V41.062C39.293 41.1368 39.3227 41.2085 39.3756 41.2614C39.4284 41.3143 39.5002 41.344 39.575 41.344H43.649C43.7238 41.344 43.7955 41.3143 43.8484 41.2614C43.9013 41.2085 43.931 41.1368 43.931 41.062ZM40.607 40.45C40.6078 40.5057 40.5975 40.5609 40.5767 40.6126C40.556 40.6642 40.5252 40.7112 40.4861 40.7509C40.447 40.7905 40.4004 40.822 40.3491 40.8435C40.2977 40.865 40.2426 40.876 40.187 40.876C40.074 40.876 39.9656 40.8311 39.8857 40.7512C39.8059 40.6713 39.761 40.563 39.761 40.45C39.761 40.3943 39.772 40.3392 39.7935 40.2879C39.815 40.2365 39.8465 40.19 39.8861 40.1509C39.9257 40.1118 39.9727 40.081 40.0244 40.0602C40.076 40.0395 40.1313 40.0292 40.187 40.03C40.2984 40.03 40.4052 40.0743 40.484 40.153C40.5627 40.2318 40.607 40.3386 40.607 40.45ZM43.463 40.45C43.463 40.563 43.4181 40.6713 43.3382 40.7512C43.2583 40.8311 43.15 40.876 43.037 40.876C42.9813 40.876 42.9262 40.865 42.8748 40.8435C42.8235 40.822 42.7769 40.7905 42.7378 40.7509C42.6988 40.7112 42.668 40.6642 42.6472 40.6126C42.6264 40.5609 42.6162 40.5057 42.617 40.45C42.617 40.3386 42.6612 40.2318 42.74 40.153C42.8187 40.0743 42.9256 40.03 43.037 40.03C43.0926 40.0292 43.1479 40.0395 43.1995 40.0602C43.2512 40.081 43.2982 40.1118 43.3378 40.1509C43.3775 40.19 43.409 40.2365 43.4304 40.2879C43.4519 40.3392 43.463 40.3943 43.463 40.45Z" fill="#F7421E"/>
<path opacity="0.35" d="M43.0372 40.0303C42.9258 40.0303 42.819 40.0746 42.7402 40.1533C42.6615 40.2321 42.6172 40.3389 42.6172 40.4503C42.6164 40.506 42.6267 40.5612 42.6475 40.6129C42.6682 40.6645 42.699 40.7115 42.7381 40.7512C42.7772 40.7908 42.8238 40.8223 42.8751 40.8438C42.9265 40.8653 42.9816 40.8763 43.0372 40.8763C43.1502 40.8763 43.2586 40.8314 43.3385 40.7515C43.4183 40.6717 43.4632 40.5633 43.4632 40.4503C43.4632 40.3947 43.4522 40.3395 43.4307 40.2882C43.4092 40.2368 43.3777 40.1903 43.3381 40.1512C43.2985 40.1121 43.2514 40.0813 43.1998 40.0605C43.1481 40.0398 43.0929 40.0295 43.0372 40.0303Z" fill="#F7421E"/>
<path opacity="0.35" d="M40.6077 40.4536C40.6077 40.2198 40.4183 40.0303 40.1847 40.0303C39.9511 40.0303 39.7617 40.2198 39.7617 40.4536C39.7617 40.6874 39.9511 40.8769 40.1847 40.8769C40.4183 40.8769 40.6077 40.6874 40.6077 40.4536Z" fill="#F7421E"/>
<path opacity="0.2" d="M60.1437 41.7041H35.8557C35.5438 41.7041 35.2447 41.828 35.0241 42.0485C34.8036 42.2691 34.6797 42.5682 34.6797 42.8801V48.3341C34.6813 48.6455 34.8057 48.9437 35.0259 49.1639C35.2461 49.3841 35.5443 49.5085 35.8557 49.5101H60.1437C60.4551 49.5085 60.7533 49.3841 60.9735 49.1639C61.1937 48.9437 61.3181 48.6455 61.3197 48.3341V42.8801C61.3197 42.5682 61.1958 42.2691 60.9752 42.0485C60.7547 41.828 60.4556 41.7041 60.1437 41.7041Z" fill="#F7421E"/>
<path opacity="0.2" d="M60.1437 50.1943H35.8557C35.5438 50.1943 35.2447 50.3182 35.0241 50.5388C34.8036 50.7593 34.6797 51.0584 34.6797 51.3703V56.8243C34.6797 57.1362 34.8036 57.4354 35.0241 57.6559C35.2447 57.8764 35.5438 58.0003 35.8557 58.0003H60.1437C60.4556 58.0003 60.7547 57.8764 60.9752 57.6559C61.1958 57.4354 61.3197 57.1362 61.3197 56.8243V51.3703C61.3197 51.0584 61.1958 50.7593 60.9752 50.5388C60.7547 50.3182 60.4556 50.1943 60.1437 50.1943Z" fill="#F7421E"/>
<path opacity="0.95" d="M51.5639 46.4139C51.4034 46.4139 51.2466 46.3663 51.1133 46.277C50.9799 46.1877 50.8761 46.0609 50.815 45.9125C50.7539 45.7642 50.7382 45.601 50.7699 45.4437C50.8017 45.2864 50.8794 45.1421 50.9933 45.0291C51.1072 44.916 51.2521 44.8394 51.4096 44.8088C51.5671 44.7782 51.7301 44.7951 51.878 44.8573C52.0259 44.9196 52.152 45.0243 52.2403 45.1583C52.3286 45.2923 52.3751 45.4495 52.3739 45.6099C52.3739 45.716 52.3529 45.8211 52.3121 45.919C52.2713 46.0169 52.2116 46.1058 52.1363 46.1806C52.061 46.2553 51.9716 46.3144 51.8734 46.3545C51.7752 46.3945 51.67 46.4147 51.5639 46.4139ZM54.6599 46.4139C54.4997 46.4139 54.3431 46.3664 54.2099 46.2774C54.0767 46.1884 53.9728 46.0619 53.9115 45.9139C53.8502 45.7659 53.8342 45.603 53.8654 45.4459C53.8967 45.2888 53.9738 45.1445 54.0871 45.0312C54.2004 44.9179 54.3447 44.8408 54.5019 44.8095C54.659 44.7783 54.8218 44.7943 54.9698 44.8556C55.1179 44.9169 55.2444 45.0207 55.3334 45.1539C55.4224 45.2871 55.4699 45.4437 55.4699 45.6039C55.4707 45.7105 55.4503 45.8162 55.4098 45.9149C55.3694 46.0135 55.3098 46.1031 55.2344 46.1785C55.159 46.2539 55.0694 46.3135 54.9708 46.3539C54.8722 46.3943 54.7665 46.4147 54.6599 46.4139ZM57.5999 46.4139C57.4397 46.4139 57.2831 46.3664 57.1499 46.2774C57.0167 46.1884 56.9128 46.0619 56.8515 45.9139C56.7902 45.7659 56.7742 45.603 56.8054 45.4459C56.8367 45.2888 56.9138 45.1445 57.0271 45.0312C57.1404 44.9179 57.2847 44.8408 57.4418 44.8095C57.599 44.7783 57.7618 44.7943 57.9098 44.8556C58.0579 44.9169 58.1844 45.0207 58.2734 45.1539C58.3624 45.2871 58.4099 45.4437 58.4099 45.6039C58.4107 45.7105 58.3903 45.8162 58.3498 45.9149C58.3094 46.0135 58.2498 46.1031 58.1744 46.1785C58.099 46.2539 58.0094 46.3135 57.9108 46.3539C57.8122 46.3943 57.7065 46.4147 57.5999 46.4139Z" fill="#F7421E"/>
<path opacity="0.95" d="M51.5639 54.9102C51.4037 54.9102 51.2471 54.8627 51.1139 54.7737C50.9807 54.6847 50.8769 54.5582 50.8156 54.4102C50.7543 54.2622 50.7382 54.0993 50.7695 53.9422C50.8007 53.785 50.8779 53.6407 50.9912 53.5274C51.1044 53.4141 51.2488 53.337 51.4059 53.3057C51.563 53.2745 51.7259 53.2905 51.8739 53.3518C52.0219 53.4131 52.1484 53.517 52.2374 53.6502C52.3264 53.7834 52.3739 53.94 52.3739 54.1002C52.3747 54.2068 52.3543 54.3125 52.3139 54.4111C52.2734 54.5097 52.2138 54.5994 52.1384 54.6747C52.0631 54.7501 51.9735 54.8097 51.8748 54.8502C51.7762 54.8906 51.6705 54.911 51.5639 54.9102ZM54.6599 54.9042C54.4997 54.9042 54.3431 54.8567 54.2099 54.7677C54.0767 54.6787 53.9729 54.5522 53.9116 54.4042C53.8503 54.2562 53.8342 54.0933 53.8655 53.9362C53.8967 53.779 53.9739 53.6347 54.0871 53.5214C54.2004 53.4081 54.3448 53.331 54.5019 53.2997C54.659 53.2685 54.8219 53.2845 54.9699 53.3458C55.1179 53.4071 55.2444 53.511 55.3334 53.6442C55.4224 53.7774 55.4699 53.934 55.4699 54.0942C55.4707 54.2008 55.4503 54.3065 55.4099 54.4051C55.3694 54.5037 55.3098 54.5934 55.2344 54.6687C55.1591 54.7441 55.0694 54.8037 54.9708 54.8442C54.8722 54.8846 54.7665 54.905 54.6599 54.9042ZM57.5999 54.9042C57.4397 54.9042 57.2831 54.8567 57.1499 54.7677C57.0167 54.6787 56.9129 54.5522 56.8516 54.4042C56.7902 54.2562 56.7742 54.0933 56.8055 53.9362C56.8367 53.779 56.9139 53.6347 57.0271 53.5214C57.1404 53.4081 57.2847 53.331 57.4419 53.2997C57.599 53.2685 57.7619 53.2845 57.9099 53.3458C58.0579 53.4071 58.1844 53.511 58.2734 53.6442C58.3624 53.7774 58.4099 53.934 58.4099 54.0942C58.4107 54.2008 58.3903 54.3065 58.3499 54.4051C58.3094 54.5037 58.2498 54.5934 58.1744 54.6687C58.0991 54.7441 58.0094 54.8037 57.9108 54.8442C57.8122 54.8846 57.7065 54.905 57.5999 54.9042Z" fill="#F7421E"/>
<path opacity="0.2" d="M43.6506 41.344H40.1406V41.704H44.7786V36.9281C44.7776 36.7037 44.6894 36.4885 44.5326 36.3281C44.4539 36.2493 44.3603 36.1871 44.2573 36.1448C44.1543 36.1026 44.0439 36.0813 43.9326 36.0821H40.1406V36.9281H43.6506C43.7254 36.9281 43.7971 36.9578 43.85 37.0106C43.9029 37.0635 43.9326 37.1353 43.9326 37.2101V38.4281C43.9326 38.5028 43.9029 38.5746 43.85 38.6275C43.7971 38.6803 43.7254 38.71 43.6506 38.71H40.1406V39.562H43.6506C43.7254 39.562 43.7971 39.5918 43.85 39.6446C43.9029 39.6975 43.9326 39.7693 43.9326 39.844V41.062C43.9326 41.1368 43.9029 41.2086 43.85 41.2615C43.7971 41.3143 43.7254 41.344 43.6506 41.344Z" fill="#F7421E"/>
</g>
<defs>
<filter id="filter0_d_2352_25984" x="0" y="0" width="96" height="96" filterUnits="userSpaceOnUse" color-interpolation-filters="sRGB">
<feFlood flood-opacity="0" result="BackgroundImageFix"/>
<feColorMatrix in="SourceAlpha" type="matrix" values="0 0 0 0 0 0 0 0 0 0 0 0 0 0 0 0 0 0 127 0" result="hardAlpha"/>
<feMorphology radius="2" operator="erode" in="SourceAlpha" result="effect1_dropShadow_2352_25984"/>
<feOffset dy="5"/>
<feGaussianBlur stdDeviation="10"/>
<feComposite in2="hardAlpha" operator="out"/>
<feColorMatrix type="matrix" values="0 0 0 0 0.129412 0 0 0 0 0.156863 0 0 0 0 0.2 0 0 0 0.08 0"/>
<feBlend mode="normal" in2="BackgroundImageFix" result="effect1_dropShadow_2352_25984"/>
<feBlend mode="normal" in="SourceGraphic" in2="effect1_dropShadow_2352_25984" result="shape"/>
</filter>
<clipPath id="clip0_2352_25984">
<rect width="30" height="30" fill="white" transform="translate(33 28)"/>
</clipPath>
</defs>
</svg>
