<svg width="96" height="96" viewBox="0 0 96 96" fill="none" xmlns="http://www.w3.org/2000/svg">
<g filter="url(#filter0_d_2352_26017)">
<rect x="18" y="13" width="60" height="60" rx="30" fill="white"/>
</g>
<g clip-path="url(#clip0_2352_26017)">
<path opacity="0.2" d="M61.674 47.9736H34.326C33.9758 47.9752 33.6404 48.1146 33.3922 48.3616C33.1441 48.6087 33.0032 48.9435 33 49.2936V55.4377C33.0032 55.7878 33.1441 56.1226 33.3922 56.3697C33.6404 56.6167 33.9758 56.7561 34.326 56.7577H61.674C62.0242 56.7561 62.3596 56.6167 62.6078 56.3697C62.8559 56.1226 62.9968 55.7878 63 55.4377V49.2936C63 49.1198 62.9657 48.9477 62.8989 48.7871C62.8322 48.6266 62.7345 48.4808 62.6113 48.3581C62.4881 48.2355 62.3418 48.1384 62.181 48.0724C62.0201 48.0064 61.8478 47.9729 61.674 47.9736Z" fill="#F7421E"/>
<path opacity="0.95" d="M52.0077 53.2781C51.8273 53.2781 51.651 53.2246 51.501 53.1244C51.351 53.0242 51.2342 52.8817 51.1651 52.7151C51.0961 52.5485 51.078 52.3651 51.1132 52.1882C51.1484 52.0113 51.2353 51.8488 51.3628 51.7212C51.4904 51.5937 51.6529 51.5068 51.8298 51.4716C52.0067 51.4364 52.1901 51.4545 52.3567 51.5235C52.5234 51.5925 52.6658 51.7094 52.766 51.8594C52.8662 52.0094 52.9197 52.1857 52.9197 52.3661C52.9197 52.608 52.8236 52.8399 52.6526 53.011C52.4816 53.182 52.2496 53.2781 52.0077 53.2781ZM55.4937 53.2781C55.3133 53.2781 55.137 53.2246 54.987 53.1244C54.837 53.0242 54.7201 52.8817 54.6511 52.7151C54.5821 52.5485 54.564 52.3651 54.5992 52.1882C54.6344 52.0113 54.7213 51.8488 54.8488 51.7212C54.9764 51.5937 55.1389 51.5068 55.3158 51.4716C55.4927 51.4364 55.6761 51.4545 55.8427 51.5235C56.0094 51.5925 56.1518 51.7094 56.252 51.8594C56.3522 52.0094 56.4057 52.1857 56.4057 52.3661C56.4057 52.608 56.3096 52.8399 56.1386 53.011C55.9675 53.182 55.7356 53.2781 55.4937 53.2781ZM58.8117 53.2781C58.6313 53.2781 58.455 53.2246 58.305 53.1244C58.155 53.0242 58.0381 52.8817 57.9691 52.7151C57.9001 52.5485 57.882 52.3651 57.9172 52.1882C57.9524 52.0113 58.0393 51.8488 58.1668 51.7212C58.2944 51.5937 58.4569 51.5068 58.6338 51.4716C58.8107 51.4364 58.9941 51.4545 59.1607 51.5235C59.3273 51.5925 59.4698 51.7094 59.57 51.8594C59.6702 52.0094 59.7237 52.1857 59.7237 52.3661C59.7245 52.4861 59.7014 52.605 59.6559 52.716C59.6103 52.827 59.5432 52.9279 59.4583 53.0128C59.3735 53.0976 59.2726 53.1647 59.1616 53.2103C59.0506 53.2558 58.9317 53.2789 58.8117 53.2781Z" fill="#F7421E"/>
<path opacity="0.2" d="M40.7271 38.4098C40.8004 37.4123 41.0825 36.4413 41.5551 35.5598L42.4011 36.0458C42.4625 36.0809 42.5353 36.0906 42.6037 36.0726C42.6722 36.0546 42.7308 36.0105 42.7671 35.9498C42.7849 35.9197 42.7965 35.8862 42.801 35.8515C42.8055 35.8168 42.8029 35.7815 42.7934 35.7479C42.7838 35.7142 42.7675 35.6828 42.7455 35.6556C42.7234 35.6284 42.6961 35.606 42.6651 35.5898L41.8191 35.0978C42.4094 34.1596 43.2029 33.366 44.1411 32.7758L44.6391 33.6338C44.6742 33.6941 44.7318 33.7381 44.7993 33.7561C44.8667 33.7741 44.9386 33.7646 44.9991 33.7298C45.0594 33.6947 45.1034 33.6371 45.1214 33.5696C45.1394 33.5021 45.1299 33.4303 45.0951 33.3698L44.6031 32.5118C45.573 32.0012 46.6456 31.7161 47.7411 31.6778V32.8358C47.7411 32.9058 47.7689 32.9729 47.8184 33.0224C47.8679 33.0719 47.9351 33.0998 48.0051 33.0998C48.0751 33.0998 48.1422 33.0719 48.1918 33.0224C48.2413 32.9729 48.2691 32.9058 48.2691 32.8358V31.6778C49.3872 31.717 50.4813 32.0126 51.4671 32.5418L50.9331 33.4598C50.8979 33.5212 50.8883 33.5939 50.9062 33.6624C50.9242 33.7308 50.9683 33.7895 51.0291 33.8258C51.0596 33.8437 51.0935 33.8554 51.1287 33.86C51.1638 33.8645 51.1996 33.862 51.2337 33.8525C51.2679 33.843 51.2998 33.8267 51.3275 33.8045C51.3552 33.7824 51.3782 33.755 51.3951 33.7238L51.9231 32.8118C52.8311 33.3897 53.6012 34.1598 54.1791 35.0678L53.2791 35.5898C53.2487 35.6066 53.2219 35.6294 53.2003 35.6566C53.1788 35.6839 53.1628 35.7151 53.1533 35.7486C53.1438 35.782 53.141 35.817 53.1451 35.8515C53.1492 35.8861 53.1601 35.9194 53.1771 35.9498H53.1831C53.1993 35.9808 53.2218 36.0081 53.2489 36.0302C53.2761 36.0522 53.3075 36.0685 53.3412 36.0781C53.3748 36.0876 53.4101 36.0902 53.4448 36.0857C53.4795 36.0811 53.513 36.0696 53.5431 36.0518L54.4431 35.5298C54.9215 36.4208 55.2096 37.4015 55.2891 38.4098H55.8051C55.5111 34.3598 52.1271 31.1558 48.0051 31.1558C43.8831 31.1558 40.4991 34.3598 40.2051 38.4098H40.7271Z" fill="#F7421E"/>
<path d="M48.7738 40.0116C48.1378 40.2396 47.4838 40.0896 47.0398 39.6456C46.8146 39.4199 46.6613 39.1325 46.5992 38.8198C46.5372 38.507 46.5691 38.1829 46.6911 37.8883C46.813 37.5937 47.0195 37.3418 47.2845 37.1644C47.5494 36.987 47.861 36.8921 48.1798 36.8916C48.8098 36.8916 49.3798 37.2456 49.6678 37.8636L49.6858 37.9116C49.9918 38.7456 49.6318 39.6156 48.8218 39.9936L48.7738 40.0116ZM48.1798 37.6356C48.0087 37.6369 47.8417 37.6885 47.6998 37.7842C47.5579 37.8799 47.4473 38.0153 47.382 38.1735C47.3167 38.3317 47.2995 38.5057 47.3325 38.6736C47.3656 38.8415 47.4474 38.996 47.5678 39.1176C47.7322 39.276 47.9516 39.3645 48.1798 39.3645C48.4081 39.3645 48.6275 39.276 48.7918 39.1176C48.8742 39.0385 48.9395 38.9434 48.9839 38.8382C49.0282 38.733 49.0507 38.6198 49.0498 38.5056C49.0498 38.2749 48.9582 38.0536 48.795 37.8904C48.6318 37.7273 48.4106 37.6356 48.1798 37.6356Z" fill="#F7421E"/>
<path opacity="0.95" d="M48.1807 38.8537C48.3895 38.8537 48.5587 38.6979 48.5587 38.5057C48.5587 38.3135 48.3895 38.1577 48.1807 38.1577C47.972 38.1577 47.8027 38.3135 47.8027 38.5057C47.8027 38.6979 47.972 38.8537 48.1807 38.8537Z" fill="#F7421E"/>
<path opacity="0.95" d="M48.7738 40.0116C48.1378 40.2396 47.4838 40.0896 47.0398 39.6456C46.8146 39.4199 46.6613 39.1325 46.5992 38.8198C46.5372 38.507 46.5691 38.1829 46.6911 37.8883C46.813 37.5937 47.0195 37.3418 47.2845 37.1644C47.5494 36.987 47.861 36.8921 48.1798 36.8916C48.8098 36.8916 49.3798 37.2456 49.6678 37.8636L49.6858 37.9116C49.9918 38.7456 49.6318 39.6156 48.8218 39.9936L48.7738 40.0116ZM48.1798 37.6356C48.0087 37.6369 47.8417 37.6885 47.6998 37.7842C47.5579 37.8799 47.4473 38.0153 47.382 38.1735C47.3167 38.3317 47.2995 38.5057 47.3325 38.6736C47.3656 38.8415 47.4474 38.996 47.5678 39.1176C47.7322 39.276 47.9516 39.3645 48.1798 39.3645C48.4081 39.3645 48.6275 39.276 48.7918 39.1176C48.8742 39.0385 48.9395 38.9434 48.9839 38.8382C49.0282 38.733 49.0507 38.6198 49.0498 38.5056C49.0498 38.2749 48.9582 38.0536 48.795 37.8904C48.6318 37.7273 48.4106 37.6356 48.1798 37.6356Z" fill="#F7421E"/>
<path opacity="0.2" d="M39.3352 38.4099C39.4772 36.207 40.4524 34.1408 42.0627 32.6309C43.6731 31.1211 45.7977 30.2808 48.0052 30.2808C50.2126 30.2808 52.3373 31.1211 53.9476 32.6309C55.5579 34.1408 56.5332 36.207 56.6752 38.4099H57.7252C57.5744 35.9342 56.4848 33.6094 54.6785 31.9097C52.8722 30.2101 50.4854 29.2637 48.0052 29.2637C45.5249 29.2637 43.1382 30.2101 41.3319 31.9097C39.5256 33.6094 38.4359 35.9342 38.2852 38.4099H39.3352Z" fill="#F7421E"/>
<path opacity="0.95" d="M46.4585 36.7959C46.694 36.5599 46.9755 36.3749 47.2855 36.2524C47.5955 36.1299 47.9274 36.0725 48.2606 36.0838C48.5938 36.095 48.921 36.1747 49.2221 36.3179C49.5231 36.461 49.7915 36.6646 50.0105 36.9159L51.0785 36.4119C51.1686 36.3707 51.2712 36.3664 51.3643 36.4001C51.4574 36.4338 51.5336 36.5026 51.5765 36.5919C51.6175 36.681 51.6215 36.7828 51.5878 36.8749C51.5541 36.9671 51.4853 37.0422 51.3965 37.0839L50.4245 37.5459L50.4545 37.6119C50.5489 37.8657 50.6016 38.1332 50.6105 38.4039H55.2905C55.211 37.3956 54.9229 36.4149 54.4445 35.5239L53.5445 36.0459C53.5144 36.0637 53.481 36.0753 53.4463 36.0798C53.4116 36.0843 53.3763 36.0817 53.3426 36.0722C53.3089 36.0626 53.2776 36.0463 53.2504 36.0243C53.2232 36.0022 53.2008 35.9749 53.1845 35.9439H53.1785C53.1615 35.9136 53.1506 35.8802 53.1466 35.8457C53.1425 35.8111 53.1452 35.7761 53.1547 35.7427C53.1642 35.7092 53.1802 35.678 53.2018 35.6507C53.2234 35.6235 53.2501 35.6008 53.2805 35.5839L54.1805 35.0619C53.6026 34.1539 52.8325 33.3838 51.9245 32.8059L51.3965 33.7179C51.3796 33.7491 51.3567 33.7765 51.3289 33.7987C51.3012 33.8208 51.2693 33.8371 51.2352 33.8466C51.201 33.8561 51.1653 33.8587 51.1301 33.8541C51.095 33.8495 51.0611 33.8378 51.0305 33.8199C50.9697 33.7836 50.9256 33.725 50.9077 33.6565C50.8897 33.5881 50.8994 33.5153 50.9345 33.4539L51.4685 32.5359C50.4828 32.0067 49.3886 31.7111 48.2705 31.6719V32.8359C48.2705 32.9059 48.2427 32.973 48.1932 33.0226C48.1437 33.0721 48.0765 33.0999 48.0065 33.0999C47.9365 33.0999 47.8693 33.0721 47.8198 33.0226C47.7703 32.973 47.7425 32.9059 47.7425 32.8359V31.6779C46.6471 31.7162 45.5744 32.0013 44.6045 32.5119L45.0965 33.3699C45.1314 33.4304 45.1408 33.5022 45.1229 33.5697C45.1049 33.6372 45.0609 33.6948 45.0005 33.7299C44.94 33.7647 44.8682 33.7742 44.8007 33.7562C44.7332 33.7382 44.6756 33.6942 44.6405 33.6339L44.1425 32.7759C43.2043 33.3662 42.4108 34.1597 41.8205 35.0979L42.6665 35.5899C42.6975 35.6061 42.7249 35.6286 42.7469 35.6557C42.769 35.6829 42.7853 35.7143 42.7948 35.748C42.8044 35.7817 42.8069 35.8169 42.8024 35.8516C42.7979 35.8863 42.7864 35.9198 42.7685 35.9499C42.7323 36.0107 42.6736 36.0548 42.6051 36.0727C42.5367 36.0907 42.4639 36.081 42.4025 36.0459L41.5565 35.5599C41.0839 36.4414 40.8018 37.4124 40.7285 38.4099H45.7505C45.7739 37.8017 46.0269 37.225 46.4585 36.7959Z" fill="#F7421E"/>
<path opacity="0.95" d="M40.2059 38.4098C40.4999 34.3598 43.8839 31.1558 48.0059 31.1558C52.1279 31.1558 55.5119 34.3598 55.8059 38.4098H56.6759C56.5339 36.2069 55.5587 34.1407 53.9484 32.6309C52.338 31.121 50.2134 30.2808 48.0059 30.2808C45.7985 30.2808 43.6738 31.121 42.0635 32.6309C40.4532 34.1407 39.478 36.2069 39.3359 38.4098H40.2059Z" fill="#F7421E"/>
<path opacity="0.2" d="M51.5759 36.592C51.533 36.5027 51.4568 36.4339 51.3636 36.4002C51.2705 36.3666 51.1679 36.3708 51.0779 36.412L50.0099 36.916C49.7972 36.6623 49.535 36.4545 49.2393 36.3055C48.9436 36.1565 48.6207 36.0694 48.2902 36.0494C47.9597 36.0294 47.6286 36.0769 47.3171 36.1892C47.0056 36.3015 46.7203 36.476 46.4785 36.7023C46.2368 36.9285 46.0437 37.2016 45.9111 37.505C45.7784 37.8084 45.709 38.1356 45.7071 38.4667C45.7051 38.7978 45.7707 39.1258 45.8998 39.4307C46.0289 39.7356 46.2188 40.0109 46.4579 40.24C47.1299 40.912 48.1199 41.14 49.0799 40.792L49.1459 40.768C50.3699 40.198 50.9099 38.884 50.4539 37.618L50.4239 37.552L51.3959 37.09C51.4406 37.0694 51.4808 37.0401 51.5141 37.0038C51.5474 36.9675 51.5732 36.925 51.59 36.8786C51.6067 36.8323 51.6141 36.7831 51.6117 36.7339C51.6092 36.6847 51.5971 36.6365 51.5759 36.592Z" fill="#F7421E"/>
<path opacity="0.2" d="M61.674 38.4097H50.61C50.615 38.4394 50.617 38.4695 50.616 38.4997C50.6172 38.6181 50.6092 38.7365 50.592 38.8537V38.8657L50.574 38.9437V38.9557C50.5552 39.0678 50.5271 39.1782 50.49 39.2857C50.49 39.2917 50.484 39.2977 50.484 39.3037C50.484 39.3097 50.466 39.3517 50.46 39.3757C50.454 39.3997 50.454 39.3877 50.448 39.3997C50.442 39.4117 50.388 39.5377 50.358 39.6097C50.3543 39.6125 50.3512 39.6161 50.3492 39.6203C50.3471 39.6244 50.346 39.629 50.346 39.6337C50.3338 39.6503 50.3237 39.6685 50.316 39.6877L50.292 39.7237C50.2842 39.7409 50.2741 39.7571 50.262 39.7717L50.244 39.8077L50.208 39.8557L50.172 39.9097L50.13 39.9757L50.094 40.0177L50.064 40.0537L50.028 40.0957L49.998 40.1377L49.95 40.1797L49.926 40.2097L49.854 40.2817L49.824 40.3057L49.776 40.3537L49.74 40.3837L49.686 40.4257L49.656 40.4497L49.584 40.5037L49.572 40.5157L49.482 40.5757L49.452 40.5937L49.386 40.6357L49.35 40.6537L49.278 40.6897L49.248 40.7077L49.146 40.7557L49.08 40.7797C48.12 41.1277 47.13 40.8997 46.458 40.2277L46.368 40.1377L46.344 40.1017L46.284 40.0357L46.254 39.9997L46.212 39.9397L46.182 39.8977L46.14 39.8317L46.11 39.7897L46.074 39.7297C46.0636 39.715 46.0556 39.6988 46.05 39.6817L46.014 39.6217C46.0072 39.6051 45.9992 39.589 45.99 39.5737L45.96 39.5197L45.942 39.4717C45.9309 39.4502 45.9209 39.4282 45.912 39.4057L45.894 39.3577C45.888 39.3337 45.876 39.3157 45.87 39.2917C45.864 39.2677 45.864 39.2617 45.858 39.2437C45.8473 39.2207 45.8393 39.1965 45.834 39.1717C45.8327 39.157 45.8287 39.1428 45.822 39.1297L45.804 39.0517C45.804 39.0397 45.798 39.0217 45.798 39.0097L45.78 38.9317C45.78 38.9197 45.774 38.9017 45.774 38.8897C45.774 38.8777 45.768 38.8357 45.762 38.8057V38.7697C45.756 38.7397 45.756 38.7097 45.75 38.6797V38.6497C45.751 38.6176 45.749 38.5854 45.744 38.5537V38.5297C45.743 38.4896 45.745 38.4495 45.75 38.4097H34.326C33.9748 38.4112 33.6385 38.5515 33.3901 38.7998C33.1418 39.0481 33.0016 39.3845 33 39.7357V45.8737C33.0016 46.2249 33.1418 46.5612 33.3901 46.8095C33.6385 47.0579 33.9748 47.1981 34.326 47.1997H61.674C62.0252 47.1981 62.3615 47.0579 62.6099 46.8095C62.8582 46.5612 62.9984 46.2249 63 45.8737V39.7357C63 39.384 62.8603 39.0467 62.6116 38.798C62.3629 38.5494 62.0257 38.4097 61.674 38.4097Z" fill="#F7421E"/>
<path opacity="0.95" d="M58.8124 41.8897C58.632 41.8897 58.4557 41.9432 58.3057 42.0434C58.1557 42.1436 58.0388 42.286 57.9698 42.4527C57.9008 42.6193 57.8827 42.8027 57.9179 42.9796C57.9531 43.1565 58.04 43.319 58.1675 43.4466C58.2951 43.5741 58.4576 43.661 58.6345 43.6962C58.8114 43.7314 58.9948 43.7133 59.1614 43.6443C59.3281 43.5752 59.4705 43.4583 59.5707 43.3084C59.6709 43.1584 59.7244 42.9821 59.7244 42.8017C59.7252 42.6817 59.7022 42.5627 59.6566 42.4517C59.6111 42.3407 59.5439 42.2399 59.4591 42.155C59.3742 42.0702 59.2734 42.003 59.1623 41.9575C59.0513 41.9119 58.9324 41.8889 58.8124 41.8897Z" fill="#F7421E"/>
<path opacity="0.95" d="M55.494 41.8896C55.3137 41.8896 55.1373 41.9431 54.9873 42.0433C54.8374 42.1436 54.7205 42.286 54.6515 42.4526C54.5824 42.6193 54.5644 42.8027 54.5996 42.9796C54.6347 43.1565 54.7216 43.319 54.8491 43.4465C54.9767 43.5741 55.1392 43.661 55.3161 43.6961C55.493 43.7313 55.6764 43.7133 55.843 43.6442C56.0097 43.5752 56.1521 43.4583 56.2523 43.3083C56.3525 43.1584 56.406 42.982 56.406 42.8017C56.406 42.5598 56.3099 42.3278 56.1389 42.1568C55.9679 41.9857 55.7359 41.8896 55.494 41.8896Z" fill="#F7421E"/>
<path opacity="0.95" d="M52.0077 41.896C51.8273 41.896 51.651 41.9495 51.501 42.0497C51.351 42.1499 51.2342 42.2923 51.1651 42.459C51.0961 42.6256 51.078 42.809 51.1132 42.9859C51.1484 43.1628 51.2353 43.3253 51.3628 43.4529C51.4904 43.5804 51.6529 43.6673 51.8298 43.7025C52.0067 43.7376 52.1901 43.7196 52.3567 43.6506C52.5233 43.5815 52.6658 43.4646 52.766 43.3147C52.8662 43.1647 52.9197 42.9884 52.9197 42.808C52.9197 42.5661 52.8236 42.3341 52.6526 42.1631C52.4815 41.9921 52.2496 41.896 52.0077 41.896Z" fill="#F7421E"/>
</g>
<defs>
<filter id="filter0_d_2352_26017" x="0" y="0" width="96" height="96" filterUnits="userSpaceOnUse" color-interpolation-filters="sRGB">
<feFlood flood-opacity="0" result="BackgroundImageFix"/>
<feColorMatrix in="SourceAlpha" type="matrix" values="0 0 0 0 0 0 0 0 0 0 0 0 0 0 0 0 0 0 127 0" result="hardAlpha"/>
<feMorphology radius="2" operator="erode" in="SourceAlpha" result="effect1_dropShadow_2352_26017"/>
<feOffset dy="5"/>
<feGaussianBlur stdDeviation="10"/>
<feComposite in2="hardAlpha" operator="out"/>
<feColorMatrix type="matrix" values="0 0 0 0 0.129412 0 0 0 0 0.156863 0 0 0 0 0.2 0 0 0 0.08 0"/>
<feBlend mode="normal" in2="BackgroundImageFix" result="effect1_dropShadow_2352_26017"/>
<feBlend mode="normal" in="SourceGraphic" in2="effect1_dropShadow_2352_26017" result="shape"/>
</filter>
<clipPath id="clip0_2352_26017">
<rect width="30" height="30" fill="white" transform="translate(33 28)"/>
</clipPath>
</defs>
</svg>
