<svg width="96" height="96" viewBox="0 0 96 96" fill="none" xmlns="http://www.w3.org/2000/svg">
<g filter="url(#filter0_d_2352_26057)">
<rect x="18" y="13" width="60" height="60" rx="30" fill="white"/>
</g>
<g clip-path="url(#clip0_2352_26057)">
<path opacity="0.2" d="M48 58C56.2843 58 63 51.2843 63 43C63 34.7157 56.2843 28 48 28C39.7157 28 33 34.7157 33 43C33 51.2843 39.7157 58 48 58Z" fill="#F7421E"/>
<path d="M47.982 58C45.9794 58.0104 43.9962 57.6081 42.156 56.818C40.3746 56.0588 38.7554 54.965 37.386 53.596C36.0299 52.215 34.9434 50.5933 34.182 48.814C33.4019 46.9696 33 44.9875 33 42.985C33 40.9825 33.4019 39.0003 34.182 37.156C34.974 35.328 36.042 33.738 37.386 32.386C38.73 31.034 40.32 29.966 42.156 29.182C44.0003 28.4019 45.9825 28 47.985 28C49.9875 28 51.9697 28.4019 53.814 29.182C55.5933 29.9434 57.2151 31.0299 58.596 32.386C59.9651 33.7554 61.0588 35.3746 61.818 37.156C62.598 39.0003 63 40.9825 63 42.985C63 44.9875 62.598 46.9696 61.818 48.814C60.2912 52.4205 57.4206 55.2912 53.814 56.818C51.9716 57.6075 49.9865 58.0099 47.982 58ZM47.982 29.062C46.062 29.062 44.256 29.428 42.564 30.16C40.9109 30.8682 39.405 31.8797 38.124 33.142C36.85 34.4102 35.8315 35.9114 35.124 37.564C34.392 39.256 34.026 41.062 34.026 42.982C34.026 44.902 34.392 46.708 35.124 48.4C36.5511 51.747 39.2169 54.4128 42.564 55.84C44.256 56.572 46.062 56.938 47.982 56.938C49.902 56.938 51.708 56.572 53.4 55.84C56.7471 54.4128 59.4129 51.747 60.84 48.4C61.572 46.708 61.938 44.902 61.938 42.982C61.938 41.062 61.572 39.256 60.84 37.564C60.1324 35.9114 59.114 34.4102 57.84 33.142C56.5601 31.8783 55.0539 30.8667 53.4 30.16C51.708 29.428 49.902 29.062 47.982 29.062ZM44.382 55.258C44.9612 55.4219 45.5504 55.5482 46.146 55.636C48.1957 55.9452 50.2902 55.7326 52.236 55.018L48.222 44.218L44.382 55.258ZM41.436 35.746C41.5741 35.7471 41.7076 35.7958 41.814 35.884C41.9209 35.9697 41.9933 36.0912 42.018 36.226C42.06 36.55 41.904 36.73 41.538 36.778C41.2997 36.8194 41.0594 36.8474 40.818 36.862L40.098 36.916L44.76 50.662L47.574 42.364L45.546 36.946C45.114 36.904 44.778 36.862 44.538 36.826L44.142 36.778C44.0062 36.756 43.8838 36.6831 43.8 36.574C43.7562 36.5226 43.7271 36.4604 43.7155 36.394C43.7038 36.3275 43.7102 36.2591 43.734 36.196C43.7436 36.1283 43.7666 36.0632 43.8017 36.0045C43.8367 35.9458 43.883 35.8946 43.938 35.854C43.9888 35.8092 44.0506 35.7789 44.1171 35.7663C44.1836 35.7536 44.2523 35.759 44.316 35.782L44.796 35.854L46.146 35.956C47.052 36.022 47.754 36.022 48.258 35.956C48.762 35.89 49.686 35.818 51.036 35.746C51.1741 35.7471 51.3076 35.7958 51.414 35.884C51.5209 35.9697 51.5933 36.0912 51.618 36.226C51.66 36.55 51.504 36.73 51.138 36.778C50.8997 36.8194 50.6594 36.8474 50.418 36.862L49.734 36.916L54.36 50.662C54.728 49.426 55.03 48.398 55.266 47.578C55.506 46.756 55.71 46.078 55.866 45.556C56.022 45.034 56.19 44.482 56.28 44.116C56.5244 43.347 56.6241 42.5393 56.574 41.734C56.514 40.966 56.328 40.318 56.004 39.796C55.8214 39.4421 55.6212 39.0977 55.404 38.764C55.1346 38.3438 54.8998 37.9023 54.702 37.444C54.503 36.9966 54.3657 36.5243 54.294 36.04C54.2188 35.6012 54.2905 35.1498 54.498 34.756C54.792 34.228 55.128 33.892 55.494 33.742C55.8506 33.5949 56.2388 33.5412 56.622 33.586C55.4752 32.5317 54.1453 31.696 52.698 31.12C51.1984 30.5205 49.5969 30.2169 47.982 30.226C45.746 30.226 43.694 30.746 41.826 31.786C39.958 32.826 38.456 34.216 37.32 35.956C37.864 35.98 38.482 35.98 39.174 35.956C39.9311 35.9244 40.686 35.8543 41.436 35.746ZM35.226 42.982C35.2228 44.2124 35.3966 45.437 35.742 46.618C36.0755 47.7634 36.5726 48.8546 37.218 49.858C37.8547 50.8481 38.6215 51.7481 39.498 52.534C40.3733 53.3189 41.36 53.9699 42.426 54.466L36.294 37.876C35.5837 39.4842 35.2198 41.2239 35.226 42.982ZM60.738 42.982C60.738 40.834 60.246 38.846 59.262 37.018C59.3091 37.2612 59.3332 37.5083 59.334 37.756C59.334 37.996 59.322 38.242 59.298 38.494C59.1791 39.6365 58.9377 40.763 58.578 41.854C58.234 42.854 57.902 43.814 57.582 44.734C57.444 45.118 57.228 45.76 56.934 46.654C56.64 47.548 56.316 48.472 55.974 49.444C55.632 50.416 55.308 51.34 55.014 52.204C54.72 53.068 54.498 53.692 54.36 54.058C55.3151 53.5115 56.1912 52.8373 56.964 52.054C57.737 51.2684 58.412 50.392 58.974 49.444C59.5352 48.4871 59.9727 47.463 60.276 46.396C60.5863 45.2846 60.7418 44.1358 60.738 42.982Z" fill="#F7421E"/>
</g>
<defs>
<filter id="filter0_d_2352_26057" x="0" y="0" width="96" height="96" filterUnits="userSpaceOnUse" color-interpolation-filters="sRGB">
<feFlood flood-opacity="0" result="BackgroundImageFix"/>
<feColorMatrix in="SourceAlpha" type="matrix" values="0 0 0 0 0 0 0 0 0 0 0 0 0 0 0 0 0 0 127 0" result="hardAlpha"/>
<feMorphology radius="2" operator="erode" in="SourceAlpha" result="effect1_dropShadow_2352_26057"/>
<feOffset dy="5"/>
<feGaussianBlur stdDeviation="10"/>
<feComposite in2="hardAlpha" operator="out"/>
<feColorMatrix type="matrix" values="0 0 0 0 0.129412 0 0 0 0 0.156863 0 0 0 0 0.2 0 0 0 0.08 0"/>
<feBlend mode="normal" in2="BackgroundImageFix" result="effect1_dropShadow_2352_26057"/>
<feBlend mode="normal" in="SourceGraphic" in2="effect1_dropShadow_2352_26057" result="shape"/>
</filter>
<clipPath id="clip0_2352_26057">
<rect width="30" height="30" fill="white" transform="translate(33 28)"/>
</clipPath>
</defs>
</svg>
