<svg width="96" height="96" viewBox="0 0 96 96" fill="none" xmlns="http://www.w3.org/2000/svg">
<g filter="url(#filter0_d_2352_25946)">
<rect x="18" y="13" width="60" height="60" rx="30" fill="white"/>
</g>
<g clip-path="url(#clip0_2352_25946)">
<path opacity="0.2" d="M61.674 48.856H34.326C33.9748 48.8575 33.6385 48.9977 33.3901 49.2461C33.1418 49.4944 33.0016 49.8308 33 50.182V56.32C33.0016 56.6711 33.1418 57.0075 33.3901 57.2558C33.6385 57.5042 33.9748 57.6444 34.326 57.646H61.674C62.0252 57.6444 62.3615 57.5042 62.6099 57.2558C62.8582 57.0075 62.9984 56.6711 63 56.32V50.182C63 49.8303 62.8603 49.493 62.6116 49.2443C62.3629 48.9957 62.0257 48.856 61.674 48.856Z" fill="#F7421E"/>
<path opacity="0.95" d="M58.8124 52.3418C58.632 52.3418 58.4557 52.3953 58.3057 52.4955C58.1557 52.5957 58.0388 52.7382 57.9698 52.9048C57.9008 53.0715 57.8827 53.2548 57.9179 53.4317C57.9531 53.6086 58.04 53.7711 58.1675 53.8987C58.2951 54.0262 58.4576 54.1131 58.6345 54.1483C58.8114 54.1835 58.9948 54.1654 59.1614 54.0964C59.3281 54.0274 59.4705 53.9105 59.5707 53.7605C59.6709 53.6105 59.7244 53.4342 59.7244 53.2538C59.7252 53.1338 59.7022 53.0149 59.6566 52.9039C59.6111 52.7929 59.5439 52.692 59.4591 52.6072C59.3742 52.5223 59.2734 52.4552 59.1623 52.4096C59.0513 52.3641 58.9324 52.341 58.8124 52.3418Z" fill="#F7421E"/>
<path opacity="0.95" d="M55.494 52.3418C55.3136 52.3418 55.1373 52.3953 54.9873 52.4955C54.8374 52.5957 54.7205 52.7382 54.6515 52.9048C54.5824 53.0715 54.5644 53.2548 54.5996 53.4317C54.6347 53.6086 54.7216 53.7711 54.8491 53.8987C54.9767 54.0262 55.1392 54.1131 55.3161 54.1483C55.493 54.1835 55.6764 54.1654 55.843 54.0964C56.0097 54.0274 56.1521 53.9105 56.2523 53.7605C56.3525 53.6105 56.406 53.4342 56.406 53.2538C56.4068 53.1338 56.3838 53.0149 56.3382 52.9039C56.2927 52.7929 56.2255 52.692 56.1407 52.6072C56.0558 52.5223 55.955 52.4552 55.844 52.4096C55.733 52.3641 55.614 52.341 55.494 52.3418Z" fill="#F7421E"/>
<path opacity="0.95" d="M52.0077 52.3418C51.8273 52.3418 51.651 52.3953 51.501 52.4955C51.351 52.5957 51.2342 52.7381 51.1651 52.9048C51.0961 53.0714 51.078 53.2548 51.1132 53.4317C51.1484 53.6086 51.2353 53.7711 51.3628 53.8987C51.4904 54.0262 51.6529 54.1131 51.8298 54.1483C52.0067 54.1835 52.1901 54.1654 52.3567 54.0964C52.5233 54.0274 52.6658 53.9105 52.766 53.7605C52.8662 53.6105 52.9197 53.4342 52.9197 53.2538C52.9197 53.0119 52.8236 52.78 52.6526 52.6089C52.4815 52.4379 52.2496 52.3418 52.0077 52.3418Z" fill="#F7421E"/>
<path opacity="0.2" d="M52.2955 34.9301L51.9175 34.5521C51.8316 34.4675 51.7635 34.3666 51.7172 34.2553C51.6708 34.144 51.6471 34.0246 51.6475 33.9041V33.6641C51.6498 33.5726 51.6304 33.482 51.5907 33.3995C51.5511 33.3171 51.4924 33.2453 51.4195 33.1901C49.1335 31.5101 45.7735 32.1161 44.6995 32.3681C44.5995 32.3913 44.5105 32.448 44.4472 32.5288C44.384 32.6095 44.3502 32.7095 44.3515 32.8121V33.9041C44.3518 34.0246 44.3281 34.144 44.2818 34.2553C44.2354 34.3666 44.1673 34.4675 44.0815 34.5521L43.7035 34.9301C43.5343 35.1009 43.4394 35.3316 43.4395 35.5721V36.1061C43.4385 36.815 43.6029 37.5144 43.9195 38.1487C44.2362 38.783 44.6963 39.3347 45.2635 39.7601V43.4081H50.7355V39.7601C51.3026 39.3347 51.7628 38.783 52.0794 38.1487C52.396 37.5144 52.5604 36.815 52.5595 36.1061V35.5721C52.5595 35.3316 52.4647 35.1009 52.2955 34.9301Z" fill="#F7421E"/>
<path opacity="0.2" d="M60.0537 38.5299C59.3517 37.8399 58.0557 37.5279 56.5977 37.4859C56.4754 37.4817 56.3536 37.503 56.2399 37.5484C56.1263 37.5939 56.0234 37.6625 55.9377 37.7499L55.1097 38.5779C54.9407 38.7513 54.846 38.9837 54.8457 39.2259V39.7599C54.8444 40.2405 54.9702 40.7129 55.2105 41.1291C55.4508 41.5454 55.7969 41.8906 56.2137 42.1299V44.0559H58.9497V42.1299C59.3657 41.8897 59.7111 41.5442 59.9513 41.1282C60.1914 40.7122 60.3178 40.2402 60.3177 39.7599V39.1779C60.3192 39.0577 60.2966 38.9385 60.2512 38.8272C60.2059 38.7159 60.1387 38.6148 60.0537 38.5299Z" fill="#F7421E"/>
<path d="M47.9996 43.4081L46.5416 44.8601C46.4959 44.9062 46.4409 44.9419 46.3802 44.965C46.3196 44.9881 46.2548 44.9979 46.1901 44.994C46.1253 44.99 46.0622 44.9722 46.0048 44.9419C45.9475 44.9116 45.8973 44.8694 45.8576 44.8181L44.3516 42.8261L44.7416 41.9981C44.7691 41.9399 44.8086 41.8881 44.8575 41.8463C44.9064 41.8044 44.9637 41.7734 45.0255 41.7553C45.0872 41.7371 45.1522 41.7323 45.216 41.7411C45.2797 41.7498 45.341 41.772 45.3956 41.8061L47.9996 43.4081Z" fill="#F7421E"/>
<path d="M48 43.4081L49.458 44.8601C49.5037 44.9062 49.5587 44.9419 49.6193 44.965C49.6799 44.9881 49.7448 44.9979 49.8095 44.994C49.8742 44.99 49.9374 44.9722 49.9947 44.9419C50.0521 44.9116 50.1023 44.8694 50.142 44.8181L51.648 42.8261L51.258 41.9981C51.2305 41.9399 51.191 41.8881 51.1421 41.8463C51.0931 41.8044 51.0359 41.7734 50.9741 41.7553C50.9123 41.7371 50.8474 41.7323 50.7836 41.7411C50.7198 41.7498 50.6586 41.772 50.604 41.8061L48 43.4081Z" fill="#F7421E"/>
<path opacity="0.95" d="M52.1044 28.354H46.6324C45.6649 28.354 44.737 28.7383 44.0529 29.4225C43.3687 30.1066 42.9844 31.0345 42.9844 32.002V33.088C42.9835 33.5775 43.0626 34.0639 43.2184 34.528L43.3684 34.984C43.4161 35.123 43.4404 35.269 43.4404 35.416V35.572C43.4403 35.3316 43.5352 35.1008 43.7044 34.93L44.0824 34.552C44.1682 34.4674 44.2363 34.3665 44.2827 34.2552C44.3291 34.1439 44.3527 34.0245 44.3524 33.904V32.812C44.3511 32.7094 44.3849 32.6095 44.4482 32.5287C44.5115 32.4479 44.6005 32.3913 44.7004 32.368C45.7744 32.116 49.1344 31.51 51.4204 33.19C51.4933 33.2452 51.552 33.317 51.5916 33.3995C51.6313 33.4819 51.6507 33.5726 51.6484 33.664V33.904C51.648 34.0245 51.6717 34.1439 51.7181 34.2552C51.7644 34.3665 51.8325 34.4674 51.9184 34.552L52.2964 34.93C52.4656 35.1008 52.5604 35.3316 52.5604 35.572V35.65V35.416C52.5604 35.269 52.5847 35.123 52.6324 34.984L52.7824 34.528C52.9382 34.0639 53.0172 33.5775 53.0164 33.088V29.266C53.0164 29.0241 52.9203 28.7922 52.7493 28.6211C52.5782 28.4501 52.3463 28.354 52.1044 28.354Z" fill="#F7421E"/>
<path opacity="0.95" d="M59.8627 35.1938H56.6707C56.3079 35.1938 55.96 35.338 55.7034 35.5945C55.4469 35.8511 55.3027 36.199 55.3027 36.5618C55.3027 36.8043 55.3986 37.0369 55.5695 37.2089C55.7403 37.3808 55.9723 37.4783 56.2147 37.4798L56.2807 37.5338C56.3825 37.4971 56.4906 37.4808 56.5987 37.4858C58.0567 37.5278 59.3527 37.8398 60.0547 38.5298C60.204 38.6795 60.2954 38.8772 60.3127 39.0878L60.6367 37.9658C60.7279 37.6396 60.7743 37.3026 60.7747 36.9638V36.1058C60.7747 35.864 60.6786 35.632 60.5076 35.461C60.3366 35.2899 60.1046 35.1938 59.8627 35.1938Z" fill="#F7421E"/>
<path opacity="0.95" d="M54.8466 39.2259C54.8469 38.9838 54.9416 38.7513 55.1106 38.5779L55.9386 37.7499C56.0243 37.6625 56.1272 37.5939 56.2409 37.5485C56.3545 37.503 56.4763 37.4817 56.5986 37.4859H56.6706V35.6499H55.7586C55.3958 35.6499 55.0479 35.794 54.7913 36.0506C54.5348 36.3071 54.3906 36.6551 54.3906 37.0179V37.3419C54.3894 37.7335 54.4522 38.1226 54.5766 38.4939L54.8466 39.3039V39.2259Z" fill="#F7421E"/>
<path opacity="0.95" d="M34.2417 42.8859C34.9205 43.1975 35.6363 43.4213 36.3717 43.5519C36.5139 43.3842 36.5925 43.1717 36.5937 42.9519V42.1299C36.2296 41.92 35.9189 41.6288 35.6858 41.2791C35.4527 40.9295 35.3034 40.5307 35.2497 40.1139C35.2351 40.0197 35.2505 39.9233 35.2935 39.8383C35.3366 39.7533 35.4052 39.6839 35.4897 39.6399C35.7806 39.4911 36.0526 39.3078 36.2997 39.0939C36.5579 38.8619 36.7697 38.583 36.9237 38.2719C36.9678 38.1771 37.0431 38.1003 37.137 38.0545C37.231 38.0086 37.3378 37.9964 37.4397 38.0199C38.5767 38.314 39.6342 38.857 40.5357 39.6099C40.5895 39.6536 40.6319 39.7098 40.659 39.7735C40.6862 39.8373 40.6974 39.9068 40.6917 39.9759C40.6565 40.4185 40.5141 40.8459 40.2768 41.2211C40.0395 41.5964 39.7144 41.9083 39.3297 42.1299V42.9519C39.3308 43.1786 39.4164 43.3968 39.5697 43.5639C40.3347 43.4381 41.0794 43.2101 41.7837 42.8859C41.8908 42.8383 41.9755 42.7513 42.0202 42.6429C42.0649 42.5346 42.0662 42.4131 42.0237 42.3039C41.6337 41.2719 41.3217 39.4959 41.2557 38.5719C41.1297 36.8139 39.8037 35.3799 38.0097 35.3799C36.2157 35.3799 34.8957 36.8139 34.7697 38.5719C34.6977 39.4959 34.3917 41.2719 34.0017 42.3039C33.9592 42.4131 33.9604 42.5346 34.0051 42.6429C34.0498 42.7513 34.1345 42.8383 34.2417 42.8859Z" fill="#F7421E"/>
<path opacity="0.95" d="M34.1874 48.868L34.3254 48.856H40.5534C40.4627 48.8258 40.3837 48.7679 40.3278 48.6903C40.2718 48.6128 40.2416 48.5197 40.2414 48.424V45.598C40.2423 45.348 40.2944 45.1009 40.3945 44.8718C40.4946 44.6427 40.6406 44.4365 40.8234 44.266L40.2594 43.978C40.0124 44.3632 39.6724 44.6802 39.2709 44.8997C38.8693 45.1192 38.4191 45.2342 37.9614 45.2342C37.5038 45.2342 37.0535 45.1192 36.652 44.8997C36.2504 44.6802 35.9105 44.3632 35.6634 43.978L34.6134 44.506C34.3866 44.6203 34.1959 44.7951 34.0624 45.0112C33.929 45.2272 33.858 45.4761 33.8574 45.73V48.424C33.8572 48.5237 33.8891 48.6209 33.9486 48.7009C34.0081 48.7809 34.0919 48.8395 34.1874 48.868Z" fill="#F7421E"/>
<path opacity="0.95" d="M55.7584 45.598V48.4241C55.7583 48.5197 55.7281 48.6129 55.6721 48.6904C55.6161 48.7679 55.5371 48.8259 55.4464 48.8561H61.6744L61.8124 48.8681C61.9079 48.8396 61.9917 48.7809 62.0512 48.7009C62.1107 48.6209 62.1427 48.5238 62.1424 48.4241V45.088C62.1422 44.7913 62.0456 44.5026 61.867 44.2656C61.6884 44.0286 61.4376 43.856 61.1524 43.774L58.9504 43.144L58.6744 43.33C58.3505 43.5442 57.9707 43.6584 57.5824 43.6584C57.1941 43.6584 56.8143 43.5442 56.4904 43.33L56.2144 43.144L54.1504 43.738L54.5524 43.882C54.9056 44.0092 55.2109 44.2423 55.4267 44.5494C55.6425 44.8565 55.7584 45.2227 55.7584 45.598Z" fill="#F7421E"/>
<path opacity="0.2" d="M34.1874 48.868L34.3254 48.856H40.5534C40.4627 48.8258 40.3837 48.7678 40.3278 48.6903C40.2718 48.6128 40.2416 48.5196 40.2414 48.424V45.598C40.2423 45.348 40.2944 45.1008 40.3945 44.8717C40.4946 44.6426 40.6406 44.4365 40.8234 44.266L39.8334 43.768C39.6824 43.6917 39.5553 43.575 39.4664 43.431C39.3774 43.287 39.33 43.1212 39.3294 42.952V42.13C39.7142 41.9084 40.0392 41.5965 40.2765 41.2212C40.5138 40.846 40.6562 40.4186 40.6914 39.976C40.6972 39.9069 40.686 39.8374 40.6588 39.7737C40.6316 39.7099 40.5892 39.6537 40.5354 39.61C39.634 38.8571 38.5765 38.3141 37.4394 38.02C37.3376 37.9965 37.2307 38.0087 37.1368 38.0546C37.0428 38.1004 36.9675 38.1772 36.9234 38.272C36.7695 38.5831 36.5577 38.862 36.2994 39.094C36.0523 39.3079 35.7804 39.4912 35.4894 39.64C35.4049 39.684 35.3363 39.7534 35.2933 39.8384C35.2502 39.9234 35.2349 40.0198 35.2494 40.114C35.3032 40.5308 35.4524 40.9296 35.6855 41.2793C35.9186 41.6289 36.2293 41.9201 36.5934 42.13V42.952C36.5942 43.1215 36.5474 43.2879 36.4583 43.4321C36.3692 43.5764 36.2414 43.6928 36.0894 43.768L34.6134 44.506C34.3866 44.6202 34.1959 44.7951 34.0624 45.0111C33.929 45.2272 33.858 45.476 33.8574 45.73V48.424C33.8572 48.5237 33.8891 48.6208 33.9486 48.7008C34.0081 48.7809 34.0919 48.8395 34.1874 48.868Z" fill="#F7421E"/>
<path opacity="0.2" d="M40.5542 48.8561H55.4462C55.5369 48.8259 55.6159 48.7679 55.6719 48.6904C55.7279 48.6129 55.7581 48.5197 55.7582 48.4241V45.5981C55.7582 45.2227 55.6423 44.8565 55.4265 44.5494C55.2107 44.2423 54.9054 44.0093 54.5522 43.8821L50.7362 42.4961L48.0002 43.4081L45.2642 42.4961L41.4482 43.8821C41.095 44.0093 40.7897 44.2423 40.5739 44.5494C40.358 44.8565 40.2422 45.2227 40.2422 45.5981V48.4241C40.2423 48.5197 40.2725 48.6129 40.3285 48.6904C40.3845 48.7679 40.4635 48.8259 40.5542 48.8561Z" fill="#F7421E"/>
</g>
<defs>
<filter id="filter0_d_2352_25946" x="0" y="0" width="96" height="96" filterUnits="userSpaceOnUse" color-interpolation-filters="sRGB">
<feFlood flood-opacity="0" result="BackgroundImageFix"/>
<feColorMatrix in="SourceAlpha" type="matrix" values="0 0 0 0 0 0 0 0 0 0 0 0 0 0 0 0 0 0 127 0" result="hardAlpha"/>
<feMorphology radius="2" operator="erode" in="SourceAlpha" result="effect1_dropShadow_2352_25946"/>
<feOffset dy="5"/>
<feGaussianBlur stdDeviation="10"/>
<feComposite in2="hardAlpha" operator="out"/>
<feColorMatrix type="matrix" values="0 0 0 0 0.129412 0 0 0 0 0.156863 0 0 0 0 0.2 0 0 0 0.08 0"/>
<feBlend mode="normal" in2="BackgroundImageFix" result="effect1_dropShadow_2352_25946"/>
<feBlend mode="normal" in="SourceGraphic" in2="effect1_dropShadow_2352_25946" result="shape"/>
</filter>
<clipPath id="clip0_2352_25946">
<rect width="30" height="30" fill="white" transform="translate(33 28)"/>
</clipPath>
</defs>
</svg>
