<svg width="40" height="40" viewBox="0 0 40 40" fill="none" xmlns="http://www.w3.org/2000/svg">
<mask id="mask0_2352_38049" style="mask-type:alpha" maskUnits="userSpaceOnUse" x="1" y="2" width="38" height="37">
<path d="M3.70482 28.3761C5.71321 32.343 9.10776 35.4346 13.2445 37.0646C17.3812 38.6947 21.9723 38.7495 26.1469 37.2191C30.3215 35.6885 33.7891 32.679 35.8918 28.7613C37.9947 24.8437 38.5863 20.2904 37.5547 15.9655C36.5229 11.6406 33.9397 7.84476 30.2949 5.29812C26.6503 2.75147 22.1975 1.6312 17.7816 2.14982C13.3656 2.66844 9.29367 4.78987 6.33814 8.11167C3.38259 11.4335 1.74911 15.7245 1.74756 20.1708" fill="white"/>
</mask>
<g mask="url(#mask0_2352_38049)">
<path d="M19.355 9.84814V20.1707H29.6776" stroke="#F7421E" stroke-width="2" stroke-miterlimit="10" stroke-linecap="square"/>
<path d="M1.40252 29.5416C3.69646 34.0725 7.57363 37.6037 12.2985 39.4654L14.1906 34.6634C10.642 33.2652 7.73012 30.6131 6.00727 27.2103L1.40252 29.5416ZM12.2985 39.4654C17.0234 41.3272 22.2673 41.39 27.0354 39.6418L25.2586 34.796C21.6776 36.1089 17.7393 36.0618 14.1906 34.6634L12.2985 39.4654ZM27.0354 39.6418C31.8034 37.8936 35.764 34.4562 38.1657 29.9816L33.6181 27.5407C31.8144 30.9014 28.8398 33.4831 25.2586 34.796L27.0354 39.6418ZM38.1657 29.9816C40.5675 25.5071 41.2433 20.3064 40.0649 15.3667L35.0444 16.5642C35.9295 20.2743 35.422 24.1801 33.6181 27.5407L38.1657 29.9816ZM40.0649 15.3667C38.8866 10.4268 35.936 6.09125 31.7732 3.18254L28.8169 7.41337C31.9435 9.59794 34.1595 12.8541 35.0444 16.5642L40.0649 15.3667ZM31.7732 3.18254C27.6102 0.273825 22.5244 -1.00572 17.4807 -0.41337L18.0827 4.71269C21.8707 4.2678 25.6905 5.22881 28.8169 7.41337L31.7732 3.18254ZM17.4807 -0.41337C12.4369 0.178983 7.78597 2.60203 4.41023 6.3961L8.26619 9.82691C10.8015 6.97739 14.2946 5.15758 18.0827 4.71269L17.4807 -0.41337ZM4.41023 6.3961C1.03449 10.1902 -0.83124 15.0913 -0.833008 20.1698L4.32828 20.1716C4.32961 16.3574 5.73086 12.6764 8.26619 9.82691L4.41023 6.3961Z" fill="#F7421E"/>
<path d="M5.08077 37.59L3.87109 27.9126L13.5485 29.1223" stroke="#F7421E" stroke-width="2" stroke-miterlimit="10" stroke-linecap="square"/>
</g>
</svg>
