<svg width="37" height="41" viewBox="0 0 37 41" fill="none" xmlns="http://www.w3.org/2000/svg">
<path d="M17.6572 40.1304C8.7721 36.4721 3.24347 29.9047 0.793435 20.693C0.220454 18.5385 0.00597893 16.3277 0.00206512 14.0982C-0.000283156 12.6562 -0.00106592 11.2141 0.00206512 9.77281C0.00597893 8.312 0.762903 7.19725 2.1296 6.68636C4.23053 5.90049 5.66298 4.46624 6.44339 2.3672C6.96001 0.977473 8.07388 0.213476 9.55408 0.212695C15.2941 0.210352 21.0348 0.210352 26.7748 0.212695C28.2558 0.213476 29.3689 0.976692 29.8863 2.36642C30.6722 4.47952 32.1148 5.91924 34.2376 6.69495C35.4807 7.14882 36.3182 8.28857 36.3198 9.57752C36.3221 11.668 36.3487 13.7623 36.2486 15.8489C36.0513 19.9563 34.9226 23.824 32.9563 27.4322C29.9356 32.9755 25.5459 37.0744 19.791 39.7046C19.4294 39.8702 19.0458 39.989 18.6725 40.1296C18.3343 40.1304 17.9961 40.1304 17.6572 40.1304ZM18.1809 2.55078C15.3301 2.55078 12.4793 2.54999 9.62845 2.55156C9.0359 2.55156 8.8175 2.70311 8.60694 3.25853C7.58544 5.95127 5.72326 7.80814 3.03448 8.84399C2.50298 9.04866 2.34643 9.26895 2.34564 9.83687C2.34408 11.175 2.35034 12.5132 2.34408 13.8514C2.33625 15.4919 2.43958 17.1277 2.7699 18.7338C4.5679 27.4807 9.4946 33.7911 17.5938 37.6204C17.9938 37.8095 18.3445 37.8024 18.7445 37.6212C23.3956 35.5136 27.1177 32.3264 29.88 28.0416C32.2925 24.2997 33.6717 20.2 33.9081 15.7512C34.0114 13.8076 33.9668 11.8562 33.9848 9.90796C33.9911 9.24864 33.8424 9.04553 33.2201 8.80493C30.5696 7.78002 28.7505 5.93096 27.7345 3.28899C27.5043 2.69061 27.3063 2.55156 26.6558 2.55156C23.8301 2.55078 21.0059 2.55078 18.1809 2.55078Z" fill="#F7421E"/>
<path d="M13.2728 15.3463C13.2728 14.2144 13.265 13.1239 13.2744 12.0334C13.2979 9.27199 15.5264 7.10817 18.2895 7.15504C20.8531 7.19879 23.0056 9.32902 23.0534 11.8889C23.0745 13.0309 23.0573 14.1738 23.0573 15.3455C23.296 15.3768 23.5152 15.3924 23.7281 15.4361C24.979 15.6947 25.9324 16.7743 25.9465 18.0562C25.9731 20.459 25.9989 22.8642 25.9363 25.2655C25.8682 27.873 23.581 30.0978 20.972 30.1485C19.0981 30.1853 17.2226 30.186 15.3487 30.1478C12.7609 30.0946 10.4682 27.8738 10.3985 25.2928C10.3335 22.8783 10.3578 20.4606 10.3883 18.0444C10.4056 16.6594 11.503 15.5463 12.8877 15.3994C13.002 15.3869 13.1155 15.3682 13.2728 15.3463ZM18.1776 17.7109C16.5894 17.7109 15.0019 17.7085 13.4137 17.7117C12.8454 17.7124 12.7155 17.8406 12.7147 18.3944C12.7131 20.5379 12.7053 22.6806 12.717 24.8241C12.7264 26.6075 13.9585 27.816 15.7518 27.8207C17.34 27.8246 18.9275 27.823 20.5157 27.8215C22.4053 27.8191 23.6115 26.62 23.6162 24.732C23.6209 22.6408 23.6178 20.5496 23.617 18.4585C23.617 17.8226 23.5066 17.7124 22.8632 17.7117C21.3016 17.7093 19.7392 17.7109 18.1776 17.7109ZM20.6793 15.3565C20.6965 15.2799 20.7122 15.2432 20.7122 15.2065C20.7137 14.155 20.7247 13.1036 20.7122 12.0521C20.6949 10.6117 19.5756 9.49462 18.1682 9.49306C16.7608 9.4915 15.636 10.6101 15.6187 12.0459C15.6062 13.0583 15.6156 14.0707 15.6172 15.0831C15.6172 15.1698 15.6383 15.2565 15.6508 15.3557C17.333 15.3565 18.9948 15.3565 20.6793 15.3565Z" fill="#F7421E"/>
<path d="M16.9951 22.7833C16.9944 22.42 16.9834 22.0567 16.9975 21.6951C17.0249 20.9943 17.5251 20.4905 18.1716 20.4951C18.8057 20.4998 19.309 20.9889 19.3293 21.6693C19.3512 22.4075 19.352 23.1473 19.3285 23.8847C19.3066 24.5659 18.7994 25.0464 18.1591 25.0425C17.5196 25.0386 17.0304 24.5534 16.9991 23.8715C16.9818 23.5098 16.9951 23.1457 16.9951 22.7833Z" fill="#F7421E"/>
</svg>
