<svg width="32" height="41" viewBox="0 0 32 41" fill="none" xmlns="http://www.w3.org/2000/svg">
<path d="M16.3564 0.670898C17.1459 1.18989 17.9583 1.6797 18.7185 2.23934C19.2114 2.60201 19.698 2.67183 20.2817 2.57491C21.1412 2.43214 22.011 2.34564 22.8788 2.26331C23.001 2.25184 23.19 2.36231 23.261 2.47278C23.8217 3.34819 24.3533 4.24236 24.9151 5.11672C25.0164 5.27513 25.1991 5.42103 25.3766 5.4846C26.3426 5.83268 27.3168 6.15784 28.2932 6.47778C28.5188 6.55177 28.619 6.65598 28.641 6.90923C28.7297 7.94513 28.8394 8.97894 28.9668 10.0107C28.9887 10.1847 29.0983 10.3775 29.2236 10.5047C29.9358 11.2279 30.6584 11.9407 31.3946 12.64C31.5951 12.8307 31.6275 12.9923 31.5294 13.2497C31.1743 14.1845 30.8328 15.1245 30.5164 16.0718C30.4496 16.273 30.4506 16.5346 30.5185 16.7357C30.8401 17.6955 31.1858 18.648 31.544 19.5943C31.6327 19.8288 31.5931 19.9695 31.4187 20.1362C30.6762 20.847 29.939 21.565 29.2195 22.2977C29.0869 22.4321 28.9866 22.6447 28.9636 22.8323C28.8373 23.864 28.7496 24.8999 28.6201 25.9316C28.6034 26.0671 28.4519 26.2464 28.3214 26.2974C27.7909 26.5059 27.2438 26.6726 26.6485 26.8738C27.7638 30.3566 28.8728 33.8208 29.9974 37.3338C29.3886 37.3036 28.8331 37.2776 28.2776 37.2473C27.0683 37.1796 25.8591 37.0973 24.6488 37.0514C24.4285 37.0431 24.159 37.1244 23.9857 37.2588C22.671 38.2812 21.374 39.3275 20.0708 40.3655C19.981 40.4363 19.8849 40.4989 19.7554 40.5906C18.8073 37.634 17.8695 34.7118 16.9088 31.7187C16.4932 32.12 16.0849 32.1867 15.6588 31.6895C14.6971 34.6878 13.7583 37.6121 12.8028 40.5885C12.6827 40.503 12.5804 40.4374 12.4864 40.3623C11.2041 39.341 9.91547 38.326 8.64566 37.289C8.39086 37.0806 8.14546 37.0202 7.82905 37.041C6.21778 37.1452 4.60441 37.2317 2.99209 37.3234C2.86678 37.3307 2.74042 37.3245 2.56499 37.3245C3.68443 33.8301 4.79133 30.3743 5.91181 26.8769C5.35836 26.6883 4.83623 26.4986 4.3068 26.3339C4.05618 26.2558 3.93505 26.1495 3.91207 25.8566C3.83166 24.8332 3.71784 23.813 3.59149 22.7948C3.56956 22.6197 3.46618 22.4248 3.33982 22.2977C2.6172 21.5661 1.88205 20.847 1.13959 20.1362C0.964154 19.9684 0.926561 19.8278 1.01428 19.5943C1.37559 18.6345 1.72228 17.6695 2.05122 16.6982C2.11178 16.52 2.11283 16.2865 2.05226 16.1083C1.72437 15.137 1.37768 14.1709 1.01532 13.2122C0.926561 12.9777 0.966242 12.837 1.13854 12.6702C1.87892 11.9574 2.61511 11.2394 3.3346 10.5047C3.46722 10.3692 3.5706 10.1587 3.59358 9.97107C3.72097 8.93934 3.82644 7.90553 3.91938 6.86963C3.93922 6.6466 4.03112 6.56323 4.23057 6.49758C5.2059 6.17659 6.18018 5.85144 7.14507 5.49815C7.34348 5.4252 7.54606 5.26054 7.66197 5.08233C8.20707 4.2434 8.73233 3.39092 9.23984 2.52906C9.3923 2.2706 9.55311 2.22371 9.8361 2.26331C10.8542 2.40504 11.8766 2.51864 12.8989 2.63119C13.0305 2.64578 13.1923 2.62702 13.3009 2.55928C14.2501 1.96838 15.191 1.36289 16.134 0.759481C16.1632 0.740723 16.1778 0.701121 16.1998 0.670898C16.253 0.670898 16.3042 0.670898 16.3564 0.670898ZM21.7875 28.0556C21.8429 28.0087 21.986 27.9315 22.0622 27.8117C22.4893 27.1447 22.8861 26.4569 23.3257 25.7983C23.45 25.6107 23.6578 25.4356 23.8666 25.3553C24.6196 25.0687 25.386 24.8197 26.1525 24.5716C26.354 24.506 26.4365 24.4132 26.4553 24.1944C26.5284 23.3669 26.6162 22.5394 26.7258 21.7161C26.7488 21.5421 26.8511 21.3493 26.9754 21.2211C27.5184 20.6604 28.0698 20.1071 28.6441 19.5797C28.8853 19.3577 28.9104 19.1712 28.7945 18.8773C28.5083 18.1541 28.2494 17.4183 28.004 16.6794C27.9486 16.5116 27.9465 16.2938 28.0029 16.1271C28.2609 15.3517 28.5386 14.5826 28.831 13.8187C28.9198 13.5873 28.878 13.4467 28.7026 13.281C28.1167 12.7265 27.5393 12.1638 26.9764 11.5864C26.8522 11.4593 26.7519 11.2665 26.7279 11.0924C26.6193 10.2816 26.5253 9.46771 26.4627 8.65275C26.4418 8.37866 26.3279 8.28278 26.0899 8.20671C25.3223 7.9618 24.559 7.70439 23.8029 7.42614C23.6369 7.36569 23.4677 7.22813 23.3717 7.08014C22.9247 6.3944 22.4945 5.6972 22.0789 4.99271C21.9515 4.77802 21.821 4.73113 21.5766 4.76552C20.7652 4.8812 19.9507 4.97291 19.1341 5.05107C18.9702 5.0667 18.7728 5.02293 18.6318 4.93747C17.9207 4.50498 17.219 4.0579 16.5245 3.59935C16.3449 3.48054 16.2175 3.48054 16.0389 3.59935C15.3445 4.05685 14.6428 4.50602 13.9317 4.93852C13.7907 5.02397 13.5923 5.06878 13.4283 5.05211C12.5992 4.97082 11.7721 4.87599 10.9472 4.75927C10.7101 4.72592 10.5974 4.79678 10.4825 4.98958C10.0836 5.65864 9.65754 6.31207 9.26072 6.98322C9.11348 7.23334 8.93387 7.38653 8.65192 7.47512C7.89589 7.71273 7.15134 7.98681 6.39843 8.23276C6.19898 8.29738 6.11753 8.39013 6.09978 8.61002C6.02981 9.42498 5.94627 10.2399 5.83454 11.0497C5.80739 11.2477 5.69461 11.4655 5.55468 11.6104C5.01376 12.1731 4.45404 12.7171 3.88597 13.2528C3.69174 13.4352 3.63535 13.5863 3.73977 13.8521C4.03425 14.6003 4.30053 15.36 4.55324 16.1239C4.60859 16.2917 4.60963 16.5095 4.55429 16.6763C4.30158 17.4402 4.0332 18.1989 3.73977 18.9482C3.63639 19.2108 3.69069 19.364 3.88492 19.5474C4.46239 20.0914 5.02838 20.6479 5.58078 21.218C5.70505 21.3462 5.80634 21.5379 5.82931 21.713C5.93896 22.5363 6.02563 23.3638 6.10082 24.1913C6.12066 24.4059 6.19271 24.5018 6.40052 24.5685C7.19206 24.8238 7.97943 25.0917 8.75948 25.3803C8.92447 25.4418 9.0926 25.5794 9.18867 25.7284C9.62099 26.3923 10.045 27.0634 10.4365 27.7512C10.5963 28.0316 10.7822 28.0743 11.0704 28.0326C11.8296 27.9232 12.5919 27.8221 13.3563 27.7554C13.5683 27.7367 13.8199 27.8044 14.0047 27.9138C14.6762 28.3109 15.333 28.733 15.9805 29.1686C16.1966 29.3134 16.3512 29.3228 16.5705 29.1748C17.1845 28.7611 17.8309 28.3932 18.4365 27.967C18.755 27.7429 19.0673 27.7148 19.4265 27.7638C20.1763 27.8638 20.926 27.9493 21.7875 28.0556ZM24.5997 28.1858C24.228 28.784 23.8646 29.2926 23.5837 29.8429C23.3048 30.391 22.9749 30.7099 22.3232 30.4786C22.1917 30.4317 22.0403 30.4431 21.8982 30.4265C21.1485 30.3368 20.4008 30.2347 19.65 30.1617C19.1278 30.1117 18.9378 30.3598 19.0923 30.8433C19.532 32.2148 19.9726 33.5863 20.4133 34.9577C20.5908 35.5101 20.7684 36.0614 20.9595 36.6575C21.7541 36.0239 22.5018 35.4205 23.261 34.8327C23.3832 34.7389 23.5586 34.6649 23.71 34.6659C24.2175 34.6701 24.724 34.7128 25.2315 34.7378C25.7077 34.7618 26.1838 34.7816 26.7206 34.8066C26.0115 32.5941 25.3202 30.4348 24.5997 28.1858ZM11.5904 36.6492C11.6385 36.5147 11.6646 36.4428 11.6886 36.3709C12.287 34.5054 12.8853 32.639 13.4837 30.7725C13.6038 30.3983 13.4315 30.1597 13.0315 30.1513C12.9281 30.1492 12.8237 30.1638 12.7203 30.1774C11.958 30.2712 11.1811 30.3035 10.4386 30.4786C9.65962 30.662 9.21686 30.4265 8.8921 29.7178C8.65401 29.1978 8.29688 28.7309 7.9575 28.1837C7.23801 30.4327 6.54463 32.5983 5.83662 34.8118C6.85372 34.7597 7.78728 34.6982 8.72189 34.6753C8.93178 34.6701 9.18345 34.7493 9.35053 34.8754C10.0961 35.4392 10.8198 36.0343 11.5904 36.6492Z" fill="#F7421E"/>
<path d="M16.2726 25.511C11.2278 25.5047 7.12598 21.3997 7.14165 16.3745C7.15731 11.3587 11.2539 7.28911 16.2841 7.29224C21.3299 7.29536 25.4296 11.3952 25.415 16.4245C25.4014 21.4372 21.2944 25.5183 16.2726 25.511ZM16.2726 23.1682C20.012 23.1735 23.0665 20.1335 23.0686 16.4058C23.0707 12.6749 20.0256 9.63706 16.283 9.63497C12.5394 9.63289 9.49017 12.6655 9.48703 16.3954C9.48495 20.1241 12.53 23.163 16.2726 23.1682Z" fill="#F7421E"/>
</svg>
