<svg width="41" height="41" viewBox="0 0 41 41" fill="none" xmlns="http://www.w3.org/2000/svg">
<path d="M20.0136 40.6709C10.5061 40.6149 2.3134 33.9177 0.400662 24.5948C-1.53236 15.1777 3.68441 5.60586 12.698 2.09054C17.7895 0.105439 22.8702 0.225712 27.9128 2.3037C28.7337 2.6419 29.0905 3.42308 28.7898 4.18282C28.4831 4.95686 27.6598 5.29386 26.8246 4.94019C24.5026 3.95776 22.0851 3.50048 19.5638 3.54335C11.883 3.67434 4.95041 9.25574 3.33598 16.7448C1.96378 23.1074 3.62594 28.64 8.3332 33.1639C11.1719 35.8933 14.6334 37.3866 18.571 37.6974C26.0573 38.2881 32.7954 34.2916 35.7725 27.4384C37.6399 23.1396 37.6542 18.7645 35.9885 14.3846C35.9097 14.1762 35.8167 13.9738 35.7415 13.7642C35.4623 12.9937 35.7916 12.2161 36.5195 11.916C37.2617 11.61 38.0599 11.9458 38.3964 12.7234C39.1076 14.3668 39.6016 16.0756 39.8438 17.8487C40.4201 22.0631 39.8008 26.1023 37.7748 29.8463C34.485 35.9243 29.3804 39.486 22.5039 40.4577C21.6782 40.5732 20.8429 40.6018 20.0136 40.6709Z" fill="#F7421E"/>
<path d="M18.4967 28.5188C16.158 28.5236 14.0699 27.1398 13.2119 25.0178C12.3098 22.7873 12.8158 20.2782 14.5806 18.6813C17.8023 15.7649 21.2507 13.1272 24.7731 10.5872C26.6536 9.23081 28.5604 7.9066 30.6521 6.88724C31.2606 6.59072 31.9121 6.34184 32.572 6.19536C34.3212 5.80596 35.6171 7.07063 35.1469 8.78901C34.8534 9.86077 34.3761 10.9111 33.8225 11.8792C31.8859 15.266 29.5161 18.3586 27.0903 21.4036C25.6465 23.216 24.1574 24.994 22.6312 26.7373C21.5728 27.946 20.1052 28.5165 18.4967 28.5188ZM31.7797 9.68333C31.7474 9.65713 31.7164 9.62974 31.6842 9.60354C31.5756 9.64641 31.4623 9.68095 31.3597 9.73454C31.0959 9.87267 30.8299 10.0072 30.5781 10.1632C25.6167 13.2332 21.0526 16.8284 16.6591 20.6486C15.3156 21.8168 15.2702 23.6662 16.4837 24.8653C17.6734 26.0395 19.5086 25.9657 20.6803 24.6534C21.6409 23.578 22.5728 22.4753 23.4796 21.3547C26.1465 18.0609 28.7429 14.7134 30.979 11.1064C31.2666 10.6431 31.5148 10.1573 31.7797 9.68333Z" fill="#F7421E"/>
</svg>
