<svg width="81" height="80" viewBox="0 0 81 80" fill="none" xmlns="http://www.w3.org/2000/svg">
<circle cx="40.5" cy="40" r="40" fill="#E1F7E6"/>
<path d="M41.5905 20C42.1238 20.1 42.6637 20.1667 43.1904 20.3C48.0034 21.4732 51.2298 24.393 52.8497 29.0727C52.963 29.3927 53.123 29.4927 53.4497 29.546C56.3161 30.0193 58.4627 31.5392 59.7026 34.1724C61.8358 38.7121 59.5359 43.9384 54.7562 45.465C54.0496 45.6916 53.283 45.7516 52.5431 45.8449C52.0964 45.8983 51.6365 45.8516 51.1565 45.8516C51.1432 45.9583 51.1232 46.0449 51.1232 46.1249C51.1232 47.1782 51.1165 48.2314 51.1232 49.2847C51.1298 50.138 51.6031 50.6046 52.4631 50.6113C52.4764 50.6113 52.4897 50.6113 52.5031 50.6113C53.223 50.7113 53.703 50.5446 54.123 49.8047C54.9362 48.3648 56.9228 47.8715 58.4093 48.5714C60.0359 49.338 60.8558 51.0979 60.3492 52.7511C59.9026 54.211 58.696 55.1976 57.2361 55.291C55.7495 55.391 54.4096 54.5977 53.7896 53.2244C53.6896 53.0111 53.5763 52.9578 53.3563 52.9511C52.6697 52.9178 51.9631 52.9578 51.3098 52.7845C49.7899 52.3845 48.81 51.0379 48.79 49.4714C48.7766 48.4048 48.79 47.3382 48.79 46.2716C48.79 46.1449 48.79 46.0183 48.79 45.8716C46.4168 45.8716 44.077 45.8716 41.7038 45.8716C41.6971 45.9783 41.6838 46.0916 41.6838 46.2049C41.6838 48.4048 41.6838 50.6046 41.6771 52.8045C41.6771 53.0578 41.7371 53.1844 41.9838 53.2978C43.5237 53.9844 44.3636 55.7643 43.917 57.3442C43.4237 59.0907 41.8104 60.1973 40.0906 59.9707C38.3573 59.744 37.0508 58.3108 36.9974 56.5909C36.9574 55.1576 37.7507 53.8911 39.0506 53.2778C39.1706 53.2178 39.3239 53.0578 39.3239 52.9445C39.3373 50.6046 39.3373 48.2581 39.3373 45.8916C36.9708 45.8916 34.6243 45.8916 32.2444 45.8916C32.2378 46.0116 32.2244 46.1383 32.2244 46.2649C32.2244 47.3182 32.2311 48.3714 32.2244 49.4247C32.2111 51.4246 30.6845 52.9445 28.6913 52.9711C28.6113 52.9711 28.5313 52.9778 28.458 52.9711C27.7647 52.8845 27.3114 53.0445 26.8981 53.7511C26.1582 55.011 24.9049 55.5043 23.445 55.251C21.9251 54.9843 20.9918 54.0377 20.5919 52.5578C20.5585 52.4778 20.5252 52.4112 20.4985 52.3378C20.4985 51.9712 20.4985 51.6112 20.4985 51.2446C20.5252 51.1713 20.5585 51.1046 20.5785 51.0313C20.9852 49.538 21.9318 48.5848 23.465 48.3314C24.9249 48.0915 26.1582 48.6048 26.9048 49.858C27.2981 50.5246 27.7114 50.7179 28.3913 50.618C28.4313 50.6113 28.4713 50.618 28.5113 50.618C29.3913 50.6113 29.8646 50.1447 29.8712 49.2714C29.8779 48.2314 29.8712 47.1915 29.8712 46.1516C29.8712 46.0516 29.8512 45.9583 29.8446 45.8849C29.0646 45.8449 28.318 45.8716 27.5914 45.7583C24.4316 45.2716 22.2384 43.5118 21.0452 40.552C20.7918 39.932 20.6785 39.2454 20.4985 38.5921C20.4985 37.9921 20.4985 37.3922 20.4985 36.7989C20.5252 36.7389 20.5652 36.6789 20.5719 36.6189C20.6985 35.479 21.0652 34.4124 21.6718 33.4458C23.045 31.2259 25.0249 29.8993 27.6181 29.5394C27.9314 29.4994 28.0514 29.3527 28.1447 29.0794C29.7712 24.3997 32.991 21.4732 37.804 20.3C38.3307 20.1733 38.8706 20.1 39.4039 20C40.1306 20 40.8572 20 41.5905 20ZM50.5432 29.5794C50.0099 28.0261 49.2099 26.6862 48.07 25.5596C45.4369 22.9531 42.2637 21.8665 38.6307 22.5332C34.9109 23.2131 32.2577 25.3796 30.7312 28.8527C30.4579 29.4794 30.3045 30.1527 30.0979 30.8126C29.8979 31.4659 29.5446 31.7459 28.858 31.7925C28.598 31.8059 28.338 31.8325 28.078 31.8592C23.8983 32.2592 21.4918 36.9655 23.6383 40.5653C24.8049 42.5252 26.5848 43.4851 28.8513 43.4984C31.7245 43.5184 34.6043 43.5051 37.4774 43.5051C42.3571 43.5051 47.2367 43.5118 52.1164 43.5051C55.8495 43.4984 58.596 40.4253 58.0427 36.7789C57.4894 33.1391 53.843 30.9526 50.2365 32.1192C49.2366 32.4458 48.3633 33.0058 47.5167 33.6191C46.9234 34.0457 46.2235 33.9257 45.8368 33.3724C45.4569 32.8325 45.5769 32.1592 46.1435 31.7192C47.1034 30.9726 48.1367 30.346 49.2833 29.946C49.6966 29.8127 50.1166 29.706 50.5432 29.5794ZM25.1782 51.7845C25.1716 51.1646 24.6183 50.6113 23.9983 50.6246C23.385 50.638 22.8584 51.1646 22.845 51.7779C22.8317 52.3978 23.385 52.9578 24.005 52.9578C24.6316 52.9645 25.1849 52.4045 25.1782 51.7845ZM56.9628 52.9578C57.5827 52.9711 58.1427 52.4178 58.1427 51.7979C58.1494 51.1912 57.6227 50.6513 57.0094 50.6246C56.3961 50.598 55.8295 51.1379 55.8095 51.7645C55.7895 52.3845 56.3361 52.9445 56.9628 52.9578ZM41.6638 56.4642C41.6505 55.8376 41.0838 55.291 40.4705 55.311C39.8572 55.331 39.3306 55.8643 39.3306 56.4776C39.3306 57.0975 39.8839 57.6508 40.5039 57.6508C41.1238 57.6375 41.6705 57.0775 41.6638 56.4642Z" fill="#202124"/>
<path d="M32.3378 31.5659C32.4912 30.5526 32.8245 29.646 33.3311 28.8261C34.9643 26.2129 37.2975 24.7863 40.404 24.6863C41.1372 24.6597 41.6505 25.153 41.6639 25.8263C41.6772 26.5129 41.1906 26.9928 40.4573 27.0262C37.6041 27.1528 35.4443 28.9127 34.7043 31.7059C34.551 32.2992 34.171 32.6658 33.6644 32.7258C33.1711 32.7791 32.6845 32.5258 32.4778 32.0792C32.3978 31.9059 32.3778 31.7125 32.3378 31.5659Z" fill="#202124"/>
</svg>
