<svg width="71" height="70" viewBox="0 0 71 70" fill="none" xmlns="http://www.w3.org/2000/svg">
<circle cx="35.8867" cy="34.9998" r="35" fill="white"/>
<circle cx="35.8867" cy="34.9998" r="34.5" stroke="#ED8321" stroke-opacity="0.5"/>
<path d="M53.394 52.4998C49.269 52.4998 45.139 52.4998 41.014 52.4998C41.014 50.1098 41.014 47.7198 41.014 45.2948C39.629 45.2948 38.279 45.2948 36.899 45.2948C36.899 42.1848 36.899 39.1148 36.899 36.0448C36.204 36.0448 35.539 36.0448 34.839 36.0448C34.839 40.1648 34.839 44.2598 34.839 48.3848C34.659 48.3848 34.514 48.3848 34.369 48.3848C29.184 48.3848 24.004 48.3848 18.819 48.3848C18.669 48.3848 18.524 48.3948 18.374 48.3998C18.379 39.4598 18.379 30.5248 18.379 21.5848C23.869 21.5848 29.354 21.5848 34.869 21.5848C34.869 25.7348 34.869 29.8298 34.869 33.9448C35.559 33.9448 36.224 33.9448 36.924 33.9448C36.924 30.8548 36.924 27.7848 36.924 24.6698C38.304 24.6698 39.654 24.6698 41.034 24.6698C41.034 22.2498 41.034 19.8748 41.034 17.4998C45.169 17.4998 49.264 17.4998 53.374 17.4998C53.374 22.9898 53.374 28.4648 53.374 33.9398C49.244 33.9398 45.139 33.9398 40.999 33.9398C40.999 31.5398 40.999 29.1598 40.999 26.7848C40.309 26.7848 39.654 26.7848 38.989 26.7848C38.989 32.2648 38.989 37.7298 38.989 43.1948C39.669 43.1948 40.329 43.1948 41.019 43.1948C41.019 40.7998 41.019 38.4248 41.019 36.0348C45.159 36.0348 49.264 36.0348 53.399 36.0348C53.394 41.5398 53.394 47.0198 53.394 52.4998ZM20.444 29.7848C24.584 29.7848 28.689 29.7848 32.789 29.7848C32.789 27.7248 32.789 25.6948 32.789 23.6648C28.659 23.6648 24.554 23.6648 20.444 23.6648C20.444 25.7098 20.444 27.7348 20.444 29.7848ZM20.444 38.0448C24.579 38.0448 28.684 38.0448 32.789 38.0448C32.789 35.9898 32.789 33.9548 32.789 31.9198C28.664 31.9198 24.559 31.9198 20.444 31.9198C20.444 33.9698 20.444 35.9948 20.444 38.0448ZM20.459 40.1248C20.459 42.1798 20.459 44.2248 20.459 46.2748C24.584 46.2748 28.679 46.2748 32.784 46.2748C32.784 44.2148 32.784 42.1748 32.784 40.1248C28.664 40.1248 24.579 40.1248 20.459 40.1248ZM43.089 19.5498C43.089 20.4698 43.089 21.3598 43.089 22.2498C45.849 22.2498 48.589 22.2498 51.324 22.2498C51.324 21.3348 51.324 20.4498 51.324 19.5498C48.579 19.5498 45.849 19.5498 43.089 19.5498ZM43.094 29.1848C43.094 30.1098 43.094 31.0048 43.094 31.8948C45.849 31.8948 48.579 31.8948 51.324 31.8948C51.324 30.9848 51.324 30.0898 51.324 29.1848C48.574 29.1848 45.844 29.1848 43.094 29.1848ZM43.084 40.7898C45.849 40.7898 48.584 40.7898 51.319 40.7898C51.319 39.8698 51.319 38.9798 51.319 38.0898C48.564 38.0898 45.829 38.0898 43.084 38.0898C43.084 38.9898 43.084 39.8748 43.084 40.7898ZM51.329 47.7298C48.564 47.7298 45.824 47.7298 43.094 47.7298C43.094 48.6498 43.094 49.5398 43.094 50.4298C45.854 50.4298 48.584 50.4298 51.329 50.4298C51.329 49.5248 51.329 48.6398 51.329 47.7298ZM43.079 27.0648C45.844 27.0648 48.584 27.0648 51.324 27.0648C51.324 26.1548 51.324 25.2698 51.324 24.3848C48.564 24.3848 45.829 24.3848 43.079 24.3848C43.079 25.2848 43.079 26.1598 43.079 27.0648ZM43.079 45.5948C45.849 45.5948 48.584 45.5948 51.324 45.5948C51.324 44.6848 51.324 43.7998 51.324 42.9198C48.564 42.9198 45.829 42.9198 43.079 42.9198C43.079 43.8198 43.079 44.6948 43.079 45.5948Z" fill="#ED8321"/>
<path d="M28.7344 25.7097C29.4094 25.7097 30.0644 25.7097 30.7394 25.7097C30.7394 26.3897 30.7394 27.0547 30.7394 27.7447C30.0744 27.7447 29.4144 27.7447 28.7344 27.7447C28.7344 27.0797 28.7344 26.4147 28.7344 25.7097Z" fill="#ED8321"/>
<path d="M28.7344 33.9148C29.4094 33.9148 30.0644 33.9148 30.7394 33.9148C30.7394 34.5948 30.7394 35.2598 30.7394 35.9498C30.0744 35.9498 29.4144 35.9498 28.7344 35.9498C28.7344 35.2848 28.7344 34.6198 28.7344 33.9148Z" fill="#ED8321"/>
<path d="M30.729 44.2297C30.064 44.2297 29.404 44.2297 28.729 44.2297C28.729 43.5547 28.729 42.8847 28.729 42.1997C29.389 42.1997 30.044 42.1997 30.729 42.1997C30.729 42.8647 30.729 43.5397 30.729 44.2297Z" fill="#ED8321"/>
</svg>
