<svg width="71" height="71" viewBox="0 0 71 71" fill="none" xmlns="http://www.w3.org/2000/svg">
<circle cx="35.8867" cy="35.4998" r="35" fill="white"/>
<circle cx="35.8867" cy="35.4998" r="34.5" stroke="#0DBDB3" stroke-opacity="0.5"/>
<path d="M18.3203 46.2721C18.3203 37.7192 18.3203 29.1663 18.3203 20.6076C18.3436 20.5551 18.367 20.5026 18.3845 20.4501C18.7754 18.9099 19.9305 17.9998 21.5116 17.9998C31.103 17.9998 40.7002 17.9998 50.2915 17.9998C52.1176 17.9998 53.4536 19.3358 53.4536 21.156C53.4536 29.3414 53.4536 37.5325 53.4536 45.7179C53.4536 47.5381 52.1176 48.8742 50.2974 48.8742C47.7828 48.8742 45.2683 48.88 42.748 48.8683C42.4971 48.8683 42.3746 48.9383 42.2462 49.16C40.9802 51.4295 39.0491 52.7247 36.4646 52.9697C33.6233 53.2381 30.8404 51.6862 29.5219 49.1542C29.3994 48.9208 29.2652 48.8625 29.0202 48.8625C26.4823 48.8683 23.9444 48.8683 21.4066 48.8683C20.514 48.8683 19.7672 48.5299 19.1488 47.8882C18.6995 47.4448 18.4837 46.873 18.3203 46.2721ZM28.7343 46.8264C28.1509 42.0949 31.8731 38.5827 35.8811 38.5827C39.9417 38.5827 43.6114 42.1474 43.028 46.8264C43.1564 46.8264 43.2789 46.8264 43.4014 46.8264C45.63 46.8264 47.8587 46.8264 50.0873 46.8264C50.9975 46.8264 51.3825 46.4413 51.3825 45.5428C51.3825 39.9304 51.3825 34.3179 51.3825 28.7054C51.3825 28.5829 51.3825 28.4604 51.3825 28.3204C41.0327 28.3204 30.7179 28.3204 20.3681 28.3204C20.3681 28.4487 20.3681 28.5596 20.3681 28.6704C20.3681 34.3062 20.3681 39.942 20.3681 45.5778C20.3681 46.4355 20.7648 46.8264 21.6283 46.8264C23.8686 46.8264 26.1089 46.8264 28.3492 46.8264C28.4834 46.8264 28.6059 46.8264 28.7343 46.8264ZM20.3798 26.2143C30.7354 26.2143 41.056 26.2143 51.3884 26.2143C51.3884 24.5924 51.3884 22.988 51.3884 21.3894C51.3884 20.4326 51.0208 20.065 50.064 20.065C40.6068 20.065 31.1496 20.065 21.6925 20.065C21.5874 20.065 21.4883 20.0592 21.3832 20.065C20.829 20.1059 20.3856 20.5026 20.3798 21.051C20.3681 22.7663 20.3798 24.4757 20.3798 26.2143ZM35.8753 40.648C33.0574 40.6538 30.7296 42.9875 30.7354 45.8054C30.7412 48.6116 33.0632 50.9336 35.8695 50.9394C38.6874 50.9453 41.0269 48.6174 41.0269 45.7937C41.0327 42.9758 38.6932 40.6421 35.8753 40.648Z" fill="#0DBDB3"/>
<path d="M26.6226 34.2887C26.2317 34.8721 25.8641 35.4089 25.5141 35.9515C25.2399 36.3774 24.8723 36.6107 24.3648 36.5174C23.8747 36.424 23.6297 36.0798 23.5188 35.5956C23.2038 34.2887 22.8654 32.9877 22.5445 31.6867C22.3928 31.0858 22.7254 30.514 23.2854 30.374C23.8455 30.234 24.3998 30.584 24.5573 31.185C24.709 31.7567 24.8432 32.3343 25.0007 32.9644C25.1699 32.7193 25.3332 32.5268 25.4441 32.3109C26.0625 31.0741 27.1593 31.0391 27.8128 32.3226C27.9178 32.5326 28.0753 32.7135 28.2445 32.9644C28.402 32.3518 28.542 31.7917 28.682 31.2375C28.8454 30.6015 29.3705 30.2457 29.9481 30.374C30.5373 30.5082 30.8523 31.0858 30.689 31.7392C30.3623 33.0402 30.0356 34.3471 29.7147 35.6481C29.598 36.1148 29.3355 36.4357 28.8629 36.5174C28.3845 36.5991 28.0228 36.3949 27.7602 35.9923C27.3985 35.4381 27.0251 34.8896 26.6226 34.2887Z" fill="#0DBDB3"/>
<path d="M35.8813 34.2888C35.4904 34.878 35.1228 35.4148 34.7728 35.9573C34.4986 36.3832 34.1252 36.6108 33.6235 36.5174C33.1509 36.4241 32.9 36.0915 32.7892 35.6248C32.4741 34.3179 32.1416 33.0169 31.8149 31.7159C31.6574 31.0858 31.9782 30.5141 32.55 30.374C33.1217 30.234 33.6643 30.5899 33.8218 31.2258C33.9618 31.7684 34.096 32.3051 34.2361 32.8477C34.2419 32.8652 34.2536 32.8827 34.2886 32.9352C34.5219 32.591 34.7378 32.2643 34.9595 31.9376C35.4729 31.185 36.2955 31.185 36.8089 31.9318C37.0306 32.2585 37.2523 32.591 37.5032 32.9702C37.6607 32.3518 37.8007 31.7917 37.9408 31.2317C38.1041 30.6016 38.635 30.2399 39.2126 30.374C39.8018 30.5141 40.1111 31.0858 39.9477 31.7451C39.6268 33.0461 39.2943 34.3529 38.9734 35.654C38.8567 36.1207 38.5942 36.4357 38.1158 36.5174C37.6374 36.5991 37.2815 36.3891 37.019 35.9865C36.6572 35.4323 36.2839 34.8897 35.8813 34.2888Z" fill="#0DBDB3"/>
<path d="M43.5588 32.9178C43.7864 32.5794 44.0139 32.241 44.2414 31.9026C44.7315 31.1909 45.56 31.1967 46.05 31.9085C46.2834 32.241 46.5051 32.5852 46.7618 32.9645C46.9193 32.346 47.0593 31.7859 47.2052 31.2259C47.3685 30.5958 47.9053 30.2399 48.4829 30.3799C49.0605 30.5199 49.3755 31.0917 49.218 31.7218C48.8913 33.0345 48.5587 34.3471 48.2378 35.6657C48.127 36.1207 47.8703 36.4358 47.4094 36.5233C46.9368 36.6108 46.5634 36.4241 46.3009 36.0216C45.9333 35.4615 45.5541 34.9072 45.1516 34.3005C44.749 34.8956 44.3698 35.4615 43.9964 36.0274C43.8039 36.3191 43.5472 36.5116 43.1913 36.5408C42.6604 36.5816 42.2228 36.2899 42.0886 35.7649C41.7328 34.3997 41.3944 33.0286 41.0618 31.6576C40.9218 31.08 41.2777 30.5141 41.8261 30.3858C42.3803 30.2574 42.9288 30.5958 43.0804 31.1734C43.2321 31.7451 43.3721 32.3227 43.518 32.8944C43.5122 32.8886 43.5238 32.8944 43.5588 32.9178Z" fill="#0DBDB3"/>
<path d="M45.1109 24.1781C44.119 24.1781 43.1214 24.1781 42.1296 24.1781C41.4703 24.1781 41.0269 23.7464 41.0328 23.1338C41.0386 22.5387 41.4878 22.1245 42.1354 22.1245C44.1482 22.1245 46.1552 22.1245 48.168 22.1245C48.8156 22.1245 49.2589 22.5387 49.2648 23.1338C49.2706 23.7522 48.8214 24.1781 48.1621 24.1781C47.147 24.184 46.126 24.1781 45.1109 24.1781Z" fill="#0DBDB3"/>
<path d="M23.5127 24.1782C22.9293 24.1724 22.4859 23.7056 22.5034 23.1164C22.5151 22.5505 22.976 22.1187 23.5478 22.1246C24.1312 22.1304 24.5746 22.5971 24.5571 23.1864C24.5454 23.7523 24.0903 24.184 23.5127 24.1782Z" fill="#0DBDB3"/>
<path d="M27.6489 22.1245C28.2207 22.1245 28.6699 22.5679 28.6758 23.1338C28.6816 23.7231 28.2324 24.1781 27.6489 24.1781C27.0655 24.1781 26.6163 23.7231 26.6221 23.1338C26.628 22.5679 27.0772 22.1245 27.6489 22.1245Z" fill="#0DBDB3"/>
<path d="M32.7949 23.163C32.7891 23.7464 32.3282 24.1898 31.7389 24.1781C31.173 24.1664 30.7354 23.7114 30.7413 23.1396C30.7471 22.5562 31.208 22.1128 31.7973 22.1245C32.3573 22.1303 32.8007 22.5912 32.7949 23.163Z" fill="#0DBDB3"/>
<path d="M35.0412 46.6163C35.928 45.7295 36.7506 44.8894 37.5907 44.0668C38.18 43.4834 39.0784 43.6876 39.3351 44.446C39.4693 44.8369 39.3818 45.1986 39.0959 45.4903C38.005 46.593 36.9081 47.6957 35.7996 48.7867C35.3679 49.2125 34.7612 49.2067 34.3236 48.7867C33.7518 48.2324 33.1859 47.6665 32.6259 47.0889C32.2058 46.6513 32.2058 46.0213 32.6084 45.6129C33.0109 45.2045 33.6468 45.2045 34.0844 45.6245C34.4053 45.9279 34.7028 46.2605 35.0412 46.6163Z" fill="#0DBDB3"/>
</svg>
