<svg width="71" height="71" viewBox="0 0 71 71" fill="none" xmlns="http://www.w3.org/2000/svg">
<circle cx="35.4434" cy="35.4998" r="35" fill="white"/>
<circle cx="35.4434" cy="35.4998" r="34.5" stroke="#E82F24" stroke-opacity="0.5"/>
<path d="M44.4763 52.9998C38.4612 52.9998 32.4403 52.9998 26.4253 52.9998C25.8069 52.6555 25.5677 52.2355 25.6902 51.7337C25.8244 51.2028 26.2269 50.952 26.962 50.952C29.319 50.952 31.6761 50.952 34.0331 50.952C34.1556 50.952 34.2781 50.952 34.4006 50.952C34.4006 49.4059 34.4006 47.8948 34.4006 46.3721C34.2548 46.3721 34.1322 46.3721 34.0039 46.3721C32.2945 46.3721 30.5851 46.3721 28.8756 46.3721C28.7181 46.3721 28.5548 46.3721 28.4031 46.3371C27.3996 46.1154 26.7637 45.3103 26.7637 44.2718C26.7637 43.3442 26.7637 42.4107 26.7637 41.4831C26.0286 41.4481 25.3168 41.4772 24.6225 41.3781C21.5246 40.9172 19.4243 39.1961 18.3391 36.2556C18.1524 35.7539 18.0707 35.2055 17.9424 34.6804C17.9424 34.132 17.9424 33.5894 17.9424 33.041C17.9891 32.8193 18.0416 32.6034 18.0824 32.3817C18.695 29.0096 21.9155 26.2967 25.3401 26.2733C25.801 26.2675 26.2678 26.2733 26.7578 26.2733C26.7578 26.2558 26.7695 26.1917 26.7753 26.1275C26.9562 24.0855 27.6971 22.2828 29.1148 20.8009C31.2443 18.5722 33.8522 17.6154 36.9093 18.1405C39.7272 18.6247 41.7809 20.2233 43.1402 22.7203C43.2569 22.9304 43.3736 22.9945 43.607 23.0062C44.1496 23.0237 44.698 23.0529 45.2347 23.1346C50.0479 23.893 53.4726 28.4262 52.8775 33.2802C52.4924 36.4248 50.853 38.7527 48.1168 40.3162C46.8916 41.0163 45.5556 41.3547 44.1204 41.4597C44.1204 41.5823 44.1204 41.6931 44.1204 41.8098C44.1204 42.6324 44.1204 43.4492 44.1204 44.2718C44.1204 45.5028 43.2452 46.3779 42.0142 46.3779C40.2931 46.3779 38.5721 46.3779 36.851 46.3779C36.7285 46.3779 36.6059 46.3779 36.4834 46.3779C36.4834 47.924 36.4834 49.4351 36.4834 50.9578C36.641 50.9578 36.781 50.9578 36.9152 50.9578C39.3305 50.9578 41.7458 50.9578 44.1612 50.9578C44.8438 50.9578 45.3281 51.5354 45.1997 52.183C45.1355 52.5914 44.838 52.8306 44.4763 52.9998ZM44.1437 39.3711C44.3946 39.3361 44.6571 39.3186 44.9138 39.2661C47.6909 38.7118 49.622 37.1191 50.5146 34.4412C51.4014 31.7925 50.8239 29.3713 48.9278 27.3293C47.3875 25.6666 45.4272 24.9081 43.1577 25.0657C42.1659 25.1357 41.9209 25.0423 41.5358 24.1264C40.4098 21.4485 37.6561 19.8091 34.774 20.1008C31.1918 20.4625 28.4614 23.8113 28.8756 27.3818C28.9923 28.4145 28.1172 28.9279 27.3588 28.6245C26.4078 28.2453 25.4101 28.2395 24.4067 28.4495C21.5304 29.0504 19.5468 31.9442 20.0835 34.7796C20.6319 37.6908 23.2048 39.7853 26.7812 39.3594C26.997 39.0035 27.032 38.6535 26.8453 38.2743C26.7695 38.1226 26.7753 37.9184 26.7753 37.7375C26.7695 36.2323 26.7695 34.7329 26.7753 33.2277C26.7812 32.09 27.6738 31.1916 28.8173 31.1916C33.2513 31.1916 37.6794 31.1916 42.1134 31.1916C43.2453 31.1916 44.1379 32.0959 44.1437 33.2335C44.1496 34.7387 44.1496 36.2381 44.1437 37.7434C44.1437 37.9359 44.1437 38.1517 44.062 38.3093C43.8695 38.6827 43.9045 39.0035 44.1437 39.3711ZM37.7086 33.2685C34.7215 33.2685 31.7811 33.2685 28.8465 33.2685C28.8465 34.7796 28.8465 36.2615 28.8465 37.7375C33.2688 37.7375 37.6619 37.7375 42.0609 37.7375C42.0609 36.2323 42.0609 34.7504 42.0609 33.2685C41.285 33.2685 40.5265 33.2685 39.7564 33.2685C39.7564 33.6594 39.7622 34.0211 39.7564 34.3887C39.7506 34.9954 39.313 35.433 38.7296 35.433C38.1462 35.433 37.7144 34.9896 37.7086 34.3829C37.7086 34.0211 37.7086 33.6594 37.7086 33.2685ZM28.8348 44.2951C33.2629 44.2951 37.6619 44.2951 42.0551 44.2951C42.0551 42.7841 42.0551 41.3022 42.0551 39.8262C41.2791 39.8262 40.5323 39.8262 39.7564 39.8262C39.7564 40.1937 39.7564 40.5496 39.7564 40.8996C39.7506 41.5414 39.3422 41.9906 38.7471 41.9965C38.1345 42.0023 37.7086 41.5589 37.7028 40.8996C37.7028 40.5379 37.7028 40.182 37.7028 39.8262C34.7157 39.8262 31.7811 39.8262 28.829 39.8262C28.8348 41.3197 28.8348 42.7958 28.8348 44.2951Z" fill="#E82F24"/>
</svg>
