<svg width="70" height="71" viewBox="0 0 70 71" fill="none" xmlns="http://www.w3.org/2000/svg">
<circle cx="35" cy="35.4998" r="35" fill="white"/>
<circle cx="35" cy="35.4998" r="34.5" stroke="#C024E8" stroke-opacity="0.5"/>
<path d="M30.271 17.9998C30.8661 17.9998 31.4553 17.9998 32.0504 17.9998C32.2079 18.0289 32.3596 18.0581 32.5172 18.0814C35.5277 18.589 37.8497 20.1351 39.4833 22.708C39.6175 22.9181 39.74 22.9939 39.9909 22.9998C41.9396 23.0173 43.5965 23.7407 44.9676 25.1234C45.7494 25.9111 46.2861 26.8504 46.6362 27.8831C47.0563 27.9122 47.4588 27.9181 47.8497 27.9764C50.2768 28.3381 52.1613 30.3218 52.418 32.7722C52.6689 35.1818 51.2103 37.533 48.9174 38.3673C48.649 38.4665 48.5965 38.6007 48.5965 38.8574C48.6023 43.1865 48.6024 47.5155 48.6024 51.8446C48.6024 52.603 48.2056 52.9998 47.4472 52.9998C39.1508 52.9998 30.8544 52.9998 22.5638 52.9998C21.782 52.9998 21.397 52.6089 21.397 51.8212C21.397 47.323 21.397 42.8189 21.4028 38.3206C21.4028 38.0523 21.327 37.9006 21.0878 37.7605C19.0049 36.5237 17.8264 34.6859 17.5872 32.288C17.3013 29.3883 18.8824 26.652 21.4903 25.3393C21.6303 25.2693 21.7587 25.1001 21.8112 24.9542C23.0131 21.4653 25.3701 19.2075 28.9524 18.2623C29.3725 18.1514 29.8217 18.0873 30.271 17.9998ZM21.292 35.4502C21.3211 35.4327 21.3503 35.421 21.3795 35.4035C21.3795 34.7267 21.3795 34.0441 21.3795 33.3673C21.3795 32.7197 21.7995 32.2938 22.4413 32.2938C30.8019 32.2938 39.1624 32.2938 47.5288 32.2938C48.1706 32.2938 48.5907 32.7197 48.5907 33.3673C48.5965 34.2191 48.5907 35.0768 48.5907 35.9286C48.5907 36.0219 48.6023 36.1153 48.6082 36.2261C49.8976 35.6135 50.621 33.9741 50.2593 32.5388C49.7984 30.7244 48.0539 29.6567 46.2278 30.0709C45.4577 30.246 44.9734 29.9367 44.8159 29.1549C44.4833 27.5563 43.6257 26.3428 42.1613 25.5902C41.2803 25.1409 40.341 24.9601 39.3491 25.0884C38.719 25.1701 38.3631 24.9834 38.0656 24.4233C37.9256 24.1608 37.7972 23.8924 37.628 23.6532C35.8077 21.0161 33.3106 19.75 30.1076 20.1409C27.0154 20.5143 24.4542 22.8597 23.6957 25.8936C23.544 26.512 23.229 26.8621 22.6397 27.1013C19.7342 28.2856 18.684 31.9671 20.5043 34.5342C20.7435 34.8609 21.0294 35.1468 21.292 35.4502ZM23.4448 50.9344C31.1578 50.9344 38.8357 50.9344 46.5195 50.9344C46.5195 48.5015 46.5195 46.0919 46.5195 43.6649C38.8182 43.6649 31.1403 43.6649 23.4448 43.6649C23.4448 46.0919 23.4448 48.5015 23.4448 50.9344ZM23.4565 34.3533C23.4565 36.7804 23.4565 39.1725 23.4565 41.5704C31.1578 41.5704 38.8299 41.5704 46.5195 41.5704C46.5195 39.1608 46.5195 36.7629 46.5195 34.3533C38.8241 34.3533 31.1519 34.3533 23.4565 34.3533Z" fill="#C024E8"/>
<path d="M29.5183 46.512C30.4052 46.512 31.292 46.512 32.1788 46.512C32.7972 46.512 33.2698 46.967 33.264 47.5446C33.2581 48.1222 32.7914 48.5598 32.1671 48.5598C30.3935 48.5598 28.6199 48.5598 26.8462 48.5598C26.2103 48.5598 25.761 48.1397 25.761 47.5446C25.7552 46.932 26.2044 46.512 26.8637 46.512C27.7447 46.512 28.6315 46.512 29.5183 46.512Z" fill="#C024E8"/>
<path d="M38.8182 48.5656C38.2347 48.5656 37.7855 48.1106 37.7913 47.5213C37.7972 46.9554 38.2464 46.512 38.8123 46.512C39.3958 46.512 39.845 46.967 39.8392 47.5505C39.8333 48.1222 39.3841 48.5598 38.8182 48.5656Z" fill="#C024E8"/>
<path d="M44.2148 47.5447C44.2148 48.1281 43.7539 48.5715 43.1646 48.5657C42.5987 48.5599 42.1611 48.1048 42.1611 47.533C42.1611 46.9496 42.622 46.5062 43.2113 46.512C43.7772 46.5237 44.2148 46.9729 44.2148 47.5447Z" fill="#C024E8"/>
<path d="M29.5183 39.2658C28.6199 39.2658 27.7214 39.2658 26.8229 39.2658C26.1986 39.2658 25.7552 38.8283 25.761 38.2273C25.7669 37.6497 26.2044 37.218 26.8171 37.218C28.614 37.2122 30.411 37.2122 32.2079 37.218C32.803 37.218 33.264 37.6731 33.2698 38.239C33.2756 38.7991 32.8089 39.2658 32.2196 39.2658C31.3153 39.2658 30.4168 39.2658 29.5183 39.2658Z" fill="#C024E8"/>
<path d="M39.8391 38.2273C39.845 38.8108 39.3899 39.2658 38.8065 39.2658C38.2405 39.2658 37.7913 38.8166 37.7855 38.2507C37.7796 37.6672 38.2289 37.2122 38.8181 37.2122C39.3899 37.218 39.8333 37.6614 39.8391 38.2273Z" fill="#C024E8"/>
<path d="M44.2149 38.2507C44.2091 38.8341 43.7481 39.2775 43.1647 39.2658C42.5988 39.2542 42.1612 38.8049 42.167 38.2332C42.1729 37.6556 42.6338 37.2063 43.2172 37.218C43.7832 37.2238 44.2207 37.6789 44.2149 38.2507Z" fill="#C024E8"/>
</svg>
