<svg width="70" height="70" viewBox="0 0 70 70" fill="none" xmlns="http://www.w3.org/2000/svg">
<circle cx="35" cy="34.9998" r="35" fill="white"/>
<circle cx="35" cy="34.9998" r="34.5" stroke="#2495E8" stroke-opacity="0.5"/>
<path d="M15.9538 48.8596C16.2222 48.2354 16.7005 48.0137 17.3713 48.0312C18.608 48.0662 19.8505 48.0371 21.093 48.0487C21.3205 48.0487 21.4314 47.9962 21.5364 47.7746C22.1547 46.5029 23.1756 45.8087 24.6047 45.8145C26.0164 45.8204 27.0198 46.5204 27.6323 47.7804C27.7314 47.9787 27.8306 48.0487 28.0464 48.0429C29.2131 48.0312 30.3798 48.0371 31.5465 48.0429C31.739 48.0429 31.8557 48.0137 31.9432 47.8096C32.2815 47.0104 32.8648 46.4504 33.6524 46.0829C33.7515 46.0362 33.8798 45.9079 33.8798 45.8145C33.8973 44.5895 33.8915 43.3645 33.8915 42.087C33.7224 42.087 33.5824 42.087 33.4365 42.087C29.779 42.087 26.1156 42.052 22.4581 42.0987C19.4772 42.1395 16.4672 39.9695 16.0413 36.4169C15.703 33.6111 17.5347 30.706 20.2355 29.8135C20.5389 29.7143 20.5972 29.5685 20.5564 29.2827C20.043 25.7476 22.2481 22.1484 25.6548 20.9584C27.4748 20.3226 29.2948 20.3342 31.1032 21.0284C31.3132 21.1101 31.424 21.0692 31.5698 20.9059C34.154 17.9484 37.4032 16.8517 41.1658 17.8725C44.87 18.8759 47.1042 21.4251 47.88 25.2051C47.9792 25.6776 48.0025 26.1618 48.0608 26.6168C48.685 26.8851 49.3442 27.1126 49.945 27.4452C52.8909 29.0668 54.2734 32.1702 53.9409 35.1219C53.5267 38.8378 50.6859 41.4161 47.6467 41.947C47.1742 42.0286 46.69 42.087 46.2117 42.087C43.0091 42.0987 39.8124 42.0928 36.6099 42.0928C36.4641 42.0928 36.3182 42.0928 36.1199 42.0928C36.1199 42.3962 36.1199 42.6762 36.1199 42.9562C36.1199 43.8603 36.1257 44.7645 36.114 45.6745C36.114 45.8962 36.1607 46.0245 36.3824 46.1237C37.1524 46.4562 37.7124 47.022 38.0507 47.7921C38.1382 47.9962 38.2491 48.0604 38.4649 48.0604C39.6316 48.0487 40.7983 48.0487 41.9649 48.0604C42.1808 48.0604 42.2799 47.9962 42.3791 47.7921C42.9975 46.5204 44.0183 45.8204 45.4416 45.8262C46.8533 45.832 47.8625 46.5262 48.4692 47.7862C48.5742 48.0021 48.6908 48.0604 48.9184 48.0546C50.2309 48.0429 51.5492 48.0487 52.8617 48.0487C53.5792 48.0487 54.0634 48.5154 54.0576 49.1804C54.0517 49.8279 53.5676 50.2771 52.8676 50.2771C51.5551 50.2771 50.2367 50.2829 48.9242 50.2712C48.7025 50.2712 48.58 50.3179 48.475 50.5396C47.8567 51.8113 46.8358 52.5113 45.4067 52.4996C43.995 52.4938 42.9916 51.7938 42.3791 50.5337C42.2799 50.3354 42.1866 50.2654 41.9649 50.2654C40.7983 50.2771 39.6316 50.2771 38.4649 50.2654C38.2491 50.2654 38.1499 50.3354 38.0507 50.5337C37.4324 51.8054 36.4115 52.5054 34.9824 52.4996C33.5707 52.4938 32.5673 51.7938 31.949 50.5396C31.8557 50.3471 31.7565 50.2654 31.5407 50.2712C30.374 50.2829 29.2073 50.2829 28.0406 50.2712C27.8248 50.2712 27.7256 50.3354 27.6264 50.5337C27.0081 51.8054 25.9873 52.5054 24.5639 52.4996C23.1522 52.4938 22.1431 51.7938 21.5305 50.5396C21.4255 50.3238 21.3089 50.2654 21.0814 50.2712C19.8388 50.2829 18.6022 50.2537 17.3597 50.2887C16.683 50.3062 16.2105 50.0846 15.9421 49.4604C15.9538 49.2621 15.9538 49.0637 15.9538 48.8596ZM33.3198 22.3059C33.4482 22.4284 33.5357 22.5101 33.629 22.5976C35.2449 24.1609 36.1082 26.0626 36.1199 28.326C36.1257 28.9618 35.6415 29.4402 35.0232 29.446C34.399 29.4518 33.9207 28.991 33.8915 28.361C33.8799 28.1277 33.8565 27.8943 33.8332 27.6551C33.4948 24.5109 30.4381 22.2418 27.3348 22.8368C23.9981 23.4726 22.0206 26.751 23.0064 30.0002C23.0647 30.1985 23.1231 30.4085 23.1172 30.6185C23.1114 31.2719 22.6622 31.6452 21.8047 31.7444C19.4772 32.0127 17.8147 34.3927 18.3747 36.6736C18.8588 38.6453 20.4572 39.8703 22.5689 39.8703C30.3798 39.8703 38.1966 39.8703 46.0075 39.8645C46.3925 39.8645 46.7833 39.847 47.1508 39.7653C49.4025 39.2811 50.9367 37.9511 51.5317 35.7111C52.1267 33.4886 51.4792 31.581 49.7759 30.041C49.2159 29.5335 48.5625 29.1718 47.8042 28.9735C47.7692 29.0843 47.74 29.1485 47.7225 29.2185C47.3725 30.5194 46.7775 31.686 45.9317 32.7302C45.5816 33.1619 45.0391 33.2902 44.5608 33.0627C44.1 32.841 43.82 32.351 43.9541 31.8319C44.03 31.546 44.2225 31.2835 44.4033 31.0327C45.6342 29.2943 46.0892 27.3752 45.6108 25.2926C44.7358 21.5126 41.2183 19.22 37.3916 19.9084C35.7582 20.2001 34.4224 21.0167 33.3198 22.3059ZM25.7014 49.1746C25.7131 48.5854 25.1823 48.0487 24.5931 48.0487C24.0214 48.0429 23.4964 48.5504 23.4731 49.1279C23.4497 49.7112 23.9689 50.2596 24.5639 50.2771C25.1472 50.2946 25.6898 49.7696 25.7014 49.1746ZM36.1199 49.1746C36.1315 48.5854 35.6007 48.0487 35.0115 48.0487C34.4399 48.0429 33.9149 48.5504 33.8915 49.1279C33.8682 49.7112 34.3874 50.2596 34.9824 50.2771C35.5657 50.2946 36.1082 49.7696 36.1199 49.1746ZM46.5383 49.1629C46.5442 48.5737 46.0075 48.0429 45.4183 48.0429C44.8408 48.0487 44.3275 48.5562 44.31 49.1337C44.2925 49.7171 44.8175 50.2596 45.4125 50.2712C45.9958 50.2829 46.5383 49.7521 46.5383 49.1629Z" fill="#2495E8"/>
</svg>
