<svg width="119" height="120" viewBox="0 0 119 120" fill="none" xmlns="http://www.w3.org/2000/svg">
<g clip-path="url(#clip0_1344_603)">
<path d="M110.105 49.4168L87.0341 72.7874L55.4202 64.3261L46.8823 32.4889L69.9583 9.11303" stroke="#231F20" stroke-width="2" stroke-miterlimit="10" stroke-linecap="round" stroke-linejoin="round"/>
<path d="M69.9583 9.11315L78.4962 40.9503L55.3677 64.2732" stroke="#231F20" stroke-width="2" stroke-miterlimit="10" stroke-linecap="round" stroke-linejoin="round"/>
<path d="M78.4961 40.9502L110.105 49.4167" stroke="#231F20" stroke-width="2" stroke-miterlimit="10" stroke-linecap="round" stroke-linejoin="round"/>
<path d="M40.6351 119.47L63.8162 96.2003L55.4202 64.3261L23.8483 55.7164L0.667235 78.9863L9.06328 110.861L40.6351 119.47Z" stroke="#231F20" stroke-width="2" stroke-miterlimit="10" stroke-linecap="round" stroke-linejoin="round"/>
<path d="M38.4126 0.529897L69.9949 8.97001L46.9242 32.3406L15.3103 23.8793L38.4126 0.529897Z" stroke="#231F20" stroke-width="2" stroke-miterlimit="10" stroke-linecap="round" stroke-linejoin="round"/>
<path d="M0.525391 79.0234L23.7065 55.7535L15.3104 23.8793" stroke="#231F20" stroke-width="2" stroke-miterlimit="10" stroke-linecap="round" stroke-linejoin="round"/>
<path d="M40.6353 119.47L63.7112 96.0944L95.3199 104.561" stroke="#231F20" stroke-width="2" stroke-miterlimit="10" stroke-linecap="round" stroke-linejoin="round"/>
<path d="M118.475 81.2646L110.105 49.4169L86.929 72.6815L95.3197 104.561L118.475 81.2646Z" stroke="#231F20" stroke-width="2" stroke-miterlimit="10" stroke-linecap="round" stroke-linejoin="round"/>
<path d="M0.667236 78.9863L32.2443 87.5959L55.3676 64.2731" stroke="#231F20" stroke-width="2" stroke-miterlimit="10" stroke-linecap="round" stroke-linejoin="round"/>
<path d="M32.2444 87.596L40.6352 119.47" stroke="#231F20" stroke-width="2" stroke-miterlimit="10" stroke-linecap="round" stroke-linejoin="round"/>
</g>
<defs>
<clipPath id="clip0_1344_603">
<rect width="120" height="119" fill="white" transform="translate(0 120) rotate(-90)"/>
</clipPath>
</defs>
</svg>
