<svg width="71" height="70" viewBox="0 0 71 70" fill="none" xmlns="http://www.w3.org/2000/svg">
<circle cx="35.4434" cy="34.9998" r="35" fill="white"/>
<circle cx="35.4434" cy="34.9998" r="34.5" stroke="#21D233" stroke-opacity="0.5"/>
<path d="M36.3973 17.4998C36.864 17.5873 37.3364 17.6456 37.7972 17.7622C42.0086 18.7888 44.8318 21.3437 46.2492 25.4384C46.3483 25.7184 46.4883 25.8059 46.7741 25.8525C49.2823 26.2667 51.1605 27.5966 52.2454 29.9006C54.112 33.8728 52.0996 38.4459 47.9174 39.7816C47.2991 39.9799 46.6283 40.0324 45.9809 40.1141C45.59 40.1607 45.1876 40.1199 44.7676 40.1199C44.7559 40.2132 44.7384 40.2891 44.7384 40.3591C44.7384 41.2807 44.7326 42.2023 44.7384 43.1239C44.7443 43.8705 45.1584 44.2788 45.9109 44.2846C45.9225 44.2846 45.9342 44.2846 45.9459 44.2846C46.5758 44.3721 46.9958 44.2263 47.3633 43.5788C48.0749 42.3189 49.8131 41.8873 51.1138 42.4998C52.5371 43.1705 53.2545 44.7104 52.8112 46.157C52.4204 47.4344 51.3647 48.2977 50.0872 48.3794C48.7865 48.4669 47.6141 47.7727 47.0716 46.5711C46.9841 46.3845 46.885 46.3378 46.6925 46.332C46.0917 46.3028 45.4734 46.3378 44.9018 46.1862C43.5718 45.8362 42.7144 44.6579 42.6969 43.2872C42.6852 42.3539 42.6969 41.4207 42.6969 40.4874C42.6969 40.3766 42.6969 40.2657 42.6969 40.1374C40.6204 40.1374 38.573 40.1374 36.4965 40.1374C36.4907 40.2307 36.479 40.3299 36.479 40.4291C36.479 42.3539 36.479 44.2788 36.4732 46.2037C36.4732 46.4253 36.5257 46.5361 36.7415 46.6353C38.0889 47.2361 38.8238 48.7935 38.433 50.1759C38.0014 51.7041 36.5898 52.6724 35.0849 52.4741C33.5683 52.2758 32.4251 51.0217 32.3784 49.5168C32.3434 48.2627 33.0376 47.1544 34.175 46.6178C34.28 46.5653 34.4141 46.4253 34.4141 46.3262C34.4258 44.2788 34.4258 42.2256 34.4258 40.1549C32.3551 40.1549 30.3019 40.1549 28.2195 40.1549C28.2137 40.2599 28.202 40.3707 28.202 40.4816C28.202 41.4032 28.2079 42.3248 28.202 43.2464C28.1904 44.9963 26.8546 46.3262 25.1106 46.3495C25.0406 46.3495 24.9706 46.3553 24.9064 46.3495C24.2998 46.2737 23.9032 46.4137 23.5415 47.0319C22.8941 48.1344 21.7975 48.566 20.5201 48.3444C19.1901 48.111 18.3735 47.2828 18.0236 45.9878C17.9944 45.9179 17.9652 45.8595 17.9419 45.7954C17.9419 45.4746 17.9419 45.1596 17.9419 44.8388C17.9652 44.7746 17.9944 44.7163 18.0119 44.6521C18.3677 43.3455 19.196 42.5114 20.5376 42.2898C21.815 42.0798 22.8941 42.5289 23.5474 43.6255C23.8915 44.2088 24.2531 44.378 24.8481 44.2905C24.8831 44.2846 24.9181 44.2905 24.9531 44.2905C25.723 44.2846 26.1372 43.8763 26.143 43.1122C26.1488 42.2023 26.143 41.2923 26.143 40.3824C26.143 40.2949 26.1255 40.2132 26.1197 40.1491C25.4372 40.1141 24.7839 40.1374 24.1481 40.0382C21.3833 39.6124 19.4643 38.0725 18.4202 35.4827C18.1985 34.9403 18.0994 34.3395 17.9419 33.7678C17.9419 33.2429 17.9419 32.7179 17.9419 32.1988C17.9652 32.1463 18.0002 32.0938 18.0061 32.0413C18.1169 31.0438 18.4377 30.1106 18.9685 29.2648C20.1701 27.3224 21.9025 26.1617 24.1715 25.8467C24.4456 25.8117 24.5506 25.6834 24.6323 25.4442C26.0555 21.3495 28.8728 18.7888 33.0842 17.7622C33.545 17.6514 34.0175 17.5873 34.4841 17.4998C35.1199 17.4998 35.7557 17.4998 36.3973 17.4998ZM44.231 25.8817C43.7643 24.5226 43.0644 23.3502 42.0669 22.3644C39.7629 20.0837 36.9865 19.133 33.8075 19.7163C30.5527 20.3112 28.2312 22.2069 26.8955 25.2459C26.6563 25.7942 26.5222 26.3833 26.3413 26.9608C26.1663 27.5324 25.8572 27.7774 25.2564 27.8182C25.0289 27.8299 24.8014 27.8532 24.574 27.8766C20.9167 28.2265 18.811 32.3446 20.6892 35.4944C21.71 37.2093 23.2674 38.0492 25.2506 38.0609C27.7646 38.0784 30.2844 38.0667 32.7984 38.0667C37.0681 38.0667 41.3378 38.0725 45.6075 38.0667C48.874 38.0609 51.2772 35.3719 50.793 32.1813C50.3089 28.9965 47.1183 27.0833 43.9627 28.104C43.0877 28.3899 42.3236 28.8798 41.5828 29.4165C41.0637 29.7898 40.4512 29.6848 40.1129 29.2006C39.7804 28.7282 39.8854 28.139 40.3812 27.7541C41.2212 27.1008 42.1253 26.5525 43.1285 26.2025C43.4902 26.0858 43.8577 25.9925 44.231 25.8817ZM22.0366 45.3112C22.0308 44.7688 21.5467 44.2846 21.0042 44.2963C20.4676 44.308 20.0068 44.7688 19.9951 45.3054C19.9834 45.8479 20.4676 46.3378 21.01 46.3378C21.5583 46.3437 22.0425 45.8537 22.0366 45.3112ZM49.8481 46.3378C50.3906 46.3495 50.8805 45.8654 50.8805 45.3229C50.8864 44.7921 50.4256 44.3196 49.8889 44.2963C49.3523 44.273 48.8565 44.7454 48.839 45.2937C48.8215 45.8362 49.2998 46.3262 49.8481 46.3378ZM36.4615 49.406C36.4498 48.8577 35.954 48.3794 35.4174 48.3969C34.8808 48.4144 34.42 48.881 34.42 49.4176C34.42 49.9601 34.9041 50.4442 35.4466 50.4442C35.989 50.4326 36.4673 49.9426 36.4615 49.406Z" fill="#21D233"/>
<path d="M28.3013 27.6199C28.4354 26.7333 28.7271 25.94 29.1704 25.2225C30.5994 22.936 32.641 21.6878 35.3591 21.6003C36.0008 21.5769 36.4499 22.0086 36.4616 22.5977C36.4732 23.1985 36.0474 23.6185 35.4058 23.6476C32.9093 23.7585 31.0194 25.2984 30.372 27.7424C30.2378 28.2615 29.9053 28.5823 29.462 28.6348C29.0304 28.6815 28.6046 28.4598 28.4238 28.069C28.3538 27.9173 28.3363 27.7482 28.3013 27.6199Z" fill="#21D233"/>
</svg>
