<svg width="81" height="81" viewBox="0 0 81 81" fill="none" xmlns="http://www.w3.org/2000/svg">
<circle cx="40.5" cy="40.9988" r="40" fill="#E1F5FA"/>
<path d="M18.7331 56.8386C19.0397 56.1252 19.5864 55.8719 20.3531 55.8919C21.7664 55.9319 23.1865 55.8986 24.6065 55.9119C24.8665 55.9119 24.9931 55.8519 25.1131 55.5985C25.8198 54.1452 26.9865 53.3519 28.6198 53.3585C30.2332 53.3652 31.3799 54.1652 32.0799 55.6052C32.1932 55.8319 32.3066 55.9119 32.5532 55.9052C33.8866 55.8919 35.2199 55.8986 36.5533 55.9052C36.7733 55.9052 36.9066 55.8719 37.0066 55.6385C37.3933 54.7252 38.06 54.0852 38.96 53.6652C39.0733 53.6119 39.22 53.4652 39.22 53.3585C39.24 51.9585 39.2333 50.5585 39.2333 49.0985C39.04 49.0985 38.88 49.0985 38.7133 49.0985C34.5333 49.0985 30.3465 49.0585 26.1665 49.1118C22.7598 49.1585 19.3197 46.6784 18.8331 42.6184C18.4464 39.4117 20.5398 36.0917 23.6265 35.0716C23.9731 34.9583 24.0398 34.7916 23.9931 34.465C23.4065 30.4249 25.9265 26.3115 29.8199 24.9515C31.8999 24.2248 33.9799 24.2382 36.0466 25.0315C36.2866 25.1249 36.4133 25.0782 36.5799 24.8915C39.5333 21.5115 43.2467 20.2581 47.5467 21.4248C51.7801 22.5715 54.3335 25.4849 55.2202 29.8049C55.3335 30.3449 55.3602 30.8983 55.4268 31.4183C56.1402 31.7249 56.8935 31.9849 57.5802 32.3649C60.9469 34.2183 62.5269 37.765 62.1469 41.1384C61.6736 45.3851 58.4269 48.3318 54.9535 48.9385C54.4135 49.0318 53.8601 49.0985 53.3135 49.0985C49.6534 49.1118 46.0001 49.1051 42.34 49.1051C42.1734 49.1051 42.0067 49.1051 41.78 49.1051C41.78 49.4518 41.78 49.7718 41.78 50.0918C41.78 51.1252 41.7867 52.1585 41.7733 53.1985C41.7733 53.4519 41.8267 53.5985 42.08 53.7119C42.96 54.0919 43.6 54.7385 43.9867 55.6185C44.0867 55.8519 44.2134 55.9252 44.46 55.9252C45.7934 55.9119 47.1267 55.9119 48.4601 55.9252C48.7068 55.9252 48.8201 55.8519 48.9334 55.6185C49.6401 54.1652 50.8068 53.3652 52.4335 53.3719C54.0468 53.3785 55.2002 54.1719 55.8935 55.6119C56.0135 55.8586 56.1468 55.9252 56.4068 55.9185C57.9069 55.9052 59.4135 55.9119 60.9136 55.9119C61.7336 55.9119 62.2869 56.4452 62.2802 57.2052C62.2736 57.9452 61.7202 58.4586 60.9202 58.4586C59.4202 58.4586 57.9135 58.4652 56.4135 58.4519C56.1602 58.4519 56.0202 58.5053 55.9002 58.7586C55.1935 60.2119 54.0268 61.0119 52.3935 60.9986C50.7801 60.9919 49.6334 60.1919 48.9334 58.7519C48.8201 58.5252 48.7134 58.4453 48.4601 58.4453C47.1267 58.4586 45.7934 58.4586 44.46 58.4453C44.2134 58.4453 44.1 58.5252 43.9867 58.7519C43.28 60.2053 42.1133 61.0053 40.48 60.9986C38.8666 60.9919 37.72 60.1919 37.0133 58.7586C36.9066 58.5386 36.7933 58.4452 36.5466 58.4519C35.2133 58.4652 33.8799 58.4652 32.5466 58.4519C32.2999 58.4519 32.1866 58.5252 32.0732 58.7519C31.3665 60.2053 30.1999 61.0053 28.5732 60.9986C26.9598 60.9919 25.8065 60.1919 25.1065 58.7586C24.9865 58.5119 24.8531 58.4452 24.5931 58.4519C23.1731 58.4652 21.7598 58.4319 20.3398 58.4719C19.5664 58.4919 19.0264 58.2386 18.7197 57.5252C18.7331 57.2986 18.7331 57.0719 18.7331 56.8386ZM38.58 26.4915C38.7266 26.6315 38.8266 26.7249 38.9333 26.8249C40.78 28.6116 41.7667 30.7849 41.78 33.3716C41.7867 34.0983 41.2333 34.645 40.5267 34.6516C39.8133 34.6583 39.2666 34.1316 39.2333 33.4116C39.22 33.145 39.1933 32.8783 39.1666 32.6049C38.78 29.0116 35.2866 26.4182 31.7399 27.0982C27.9265 27.8249 25.6665 31.5716 26.7932 35.285C26.8598 35.5116 26.9265 35.7516 26.9198 35.9916C26.9132 36.7383 26.3998 37.165 25.4198 37.2783C22.7598 37.585 20.8598 40.305 21.4998 42.9117C22.0531 45.1651 23.8798 46.5651 26.2932 46.5651C35.2199 46.5651 44.1534 46.5651 53.0801 46.5584C53.5201 46.5584 53.9668 46.5384 54.3868 46.4451C56.9602 45.8918 58.7135 44.3718 59.3935 41.8117C60.0736 39.2717 59.3335 37.0917 57.3868 35.3316C56.7468 34.7516 56.0002 34.3383 55.1335 34.1116C55.0935 34.2383 55.0602 34.3116 55.0402 34.3916C54.6402 35.8783 53.9601 37.2117 52.9935 38.405C52.5935 38.8984 51.9734 39.045 51.4268 38.785C50.9001 38.5317 50.5801 37.9717 50.7334 37.3783C50.8201 37.0517 51.0401 36.7517 51.2468 36.465C52.6535 34.4783 53.1735 32.2849 52.6268 29.9049C51.6268 25.5849 47.6067 22.9648 43.2334 23.7515C41.3667 24.0848 39.84 25.0182 38.58 26.4915ZM29.8732 57.1986C29.8865 56.5252 29.2799 55.9119 28.6065 55.9119C27.9532 55.9052 27.3532 56.4852 27.3265 57.1452C27.2998 57.8119 27.8932 58.4386 28.5732 58.4586C29.2398 58.4786 29.8599 57.8786 29.8732 57.1986ZM41.78 57.1986C41.7933 56.5252 41.1867 55.9119 40.5133 55.9119C39.86 55.9052 39.26 56.4852 39.2333 57.1452C39.2066 57.8119 39.8 58.4386 40.48 58.4586C41.1467 58.4786 41.7667 57.8786 41.78 57.1986ZM53.6868 57.1852C53.6935 56.5119 53.0801 55.9052 52.4068 55.9052C51.7468 55.9119 51.1601 56.4919 51.1401 57.1519C51.1201 57.8186 51.7201 58.4386 52.4001 58.4519C53.0668 58.4652 53.6868 57.8586 53.6868 57.1852Z" fill="#202124"/>
</svg>
