<svg width="50" height="51" viewBox="0 0 50 51" fill="none" xmlns="http://www.w3.org/2000/svg">
<path d="M0 44.8225C0.274258 44.324 0.499541 43.7892 0.830609 43.3317C2.73964 40.695 6.60275 40.9232 8.22479 43.7853C8.50884 44.2868 8.80171 44.4484 9.35316 44.4444C12.9293 44.4219 16.5064 44.4229 20.0825 44.4435C20.5967 44.4464 20.8357 44.2711 21.1374 43.8381C21.6066 43.1662 22.3011 42.6559 22.8613 42.0418C23.1111 41.7675 23.401 41.4208 23.4353 41.0828C23.5176 40.2532 23.4627 39.4099 23.4627 38.5548C21.59 38.3569 19.8132 38.2247 18.054 37.971C15.6405 37.6233 13.2799 37.0679 11.1309 35.8328C9.59118 34.9483 8.80563 33.7004 8.81249 31.8688C8.84677 23.5783 8.84579 15.2869 8.81249 6.99653C8.80563 5.18251 9.52556 3.88762 11.0692 2.99335C13.3622 1.66516 15.8981 1.10685 18.4722 0.763044C24.0857 0.0127538 29.6913 0.0548716 35.1922 1.5486C36.6976 1.95704 38.1336 2.71027 39.5117 3.46938C40.6763 4.11095 41.1249 5.29221 41.1249 6.61061C41.1288 15.1292 41.1249 23.6469 41.1288 32.1655C41.1298 33.7004 40.4363 34.8307 39.163 35.6369C36.9454 37.0405 34.4438 37.5919 31.904 37.969C30.1458 38.2306 28.368 38.3559 26.4962 38.5538C26.4962 39.5049 26.4727 40.4403 26.5148 41.3737C26.5237 41.5726 26.7519 41.7793 26.9145 41.9487C27.5756 42.6373 28.2397 43.3249 28.9283 43.9851C29.132 44.18 29.421 44.4111 29.6727 44.4131C33.3791 44.4405 37.0855 44.4425 40.7919 44.4111C41.0662 44.4092 41.4462 44.1741 41.5951 43.9351C42.7685 42.0369 44.6129 41.1338 46.5033 41.5892C48.3947 42.0457 49.816 43.654 49.9423 45.4798C50.0912 47.6464 49.0333 49.2156 46.8314 50.102C46.7551 50.1333 46.7012 50.2234 46.6375 50.2852C45.9225 50.2852 45.2065 50.2852 44.4914 50.2852C43.2024 49.7122 42.075 48.9687 41.4834 47.6004C41.4237 47.4623 41.1073 47.3682 40.9094 47.3673C36.9934 47.3535 33.0765 47.3575 29.1183 47.3575C28.5982 48.9325 27.3778 49.7229 25.9526 50.2852C25.3022 50.2852 24.6518 50.2852 24.0015 50.2852C22.5303 49.7406 21.3451 48.8688 20.8005 47.3575C16.8473 47.3575 12.9949 47.3535 9.14257 47.3673C8.91239 47.3682 8.54117 47.4515 8.47554 47.6023C7.87707 48.9677 6.75359 49.7122 5.46458 50.2852C4.74955 50.2852 4.03355 50.2852 3.31852 50.2852C1.73664 49.6553 0.630793 48.5495 0 46.9696C0 46.2536 0 45.5385 0 44.8225ZM11.8567 27.5443C11.8567 28.2652 11.8567 29.0047 11.8567 29.7433C11.8567 33.3253 11.8567 33.3253 15.3418 34.3753C15.4652 34.4125 15.5896 34.4517 15.715 34.482C20.9974 35.7475 26.3336 35.823 31.666 34.9875C33.528 34.6956 35.3293 33.9727 37.1286 33.3586C37.5155 33.2263 38.0248 32.7297 38.0464 32.3752C38.1453 30.7649 38.0895 29.1448 38.0895 27.5551C29.3191 30.3486 20.6369 30.3623 11.8567 27.5443ZM38.0963 9.98692C29.2888 12.7951 20.6095 12.7863 11.8567 9.9879C11.8567 11.4131 11.8998 12.8421 11.8381 14.2663C11.8078 14.9715 12.0957 15.4094 12.6736 15.6435C13.8108 16.1029 14.9451 16.62 16.1312 16.8992C21.4499 18.1549 26.8263 18.1745 32.1851 17.2528C33.9178 16.955 35.5879 16.2498 37.251 15.6327C37.6125 15.4985 38.0346 14.9569 38.0572 14.5807C38.1502 13.0625 38.0963 11.5345 38.0963 9.98692ZM11.8567 18.771C11.8567 20.1864 11.8979 21.6145 11.8391 23.0396C11.8097 23.739 12.083 24.1856 12.6668 24.4207C13.805 24.8791 14.9382 25.3973 16.1234 25.6803C20.9817 26.8381 25.9144 26.9713 30.8305 26.2298C32.9824 25.9056 35.0697 25.122 37.1639 24.4736C37.5302 24.36 38.0268 23.8937 38.0454 23.5666C38.1365 21.9622 38.0865 20.3509 38.0865 18.77C29.3221 21.5694 20.6712 21.5645 11.8567 18.771ZM38.2893 6.05034C37.3118 5.57137 36.5625 5.11884 35.7554 4.825C33.1088 3.85922 30.3407 3.52325 27.5462 3.37241C23.0092 3.12754 18.5192 3.36947 14.1752 4.83479C13.3524 5.11199 12.6061 5.6174 11.8244 6.01704C11.8313 6.14535 11.8381 6.27464 11.845 6.40296C12.6443 6.79181 13.4171 7.2512 14.2467 7.5568C16.86 8.51866 19.5986 8.83111 22.3598 8.99763C26.4375 9.24348 30.4759 9.0084 34.4389 7.96427C35.7416 7.62144 37.0473 7.23552 38.2893 6.05034ZM5.82993 45.8637C5.80838 45.135 5.0767 44.4356 4.35874 44.4572C3.63 44.4787 2.93064 45.2104 2.95219 45.9284C2.97374 46.6571 3.70542 47.3565 4.42338 47.3349C5.15115 47.3134 5.8505 46.5817 5.82993 45.8637ZM45.4308 47.3202C46.1497 47.4064 46.8971 46.7874 46.9891 46.0302C47.0753 45.3113 46.4563 44.5639 45.6992 44.4719C44.9802 44.3857 44.2329 45.0047 44.1408 45.7619C44.0536 46.4818 44.6726 47.2291 45.4308 47.3202ZM25.0143 47.331C25.7724 47.3055 26.3865 46.6395 26.3699 45.8588C26.3542 45.089 25.6852 44.4356 24.9398 44.4601C24.1807 44.4856 23.5675 45.1516 23.5842 45.9323C23.6008 46.7022 24.2689 47.3555 25.0143 47.331Z" fill="#F7421E"/>
</svg>
