<svg width="233" height="191" viewBox="0 0 233 191" fill="none" xmlns="http://www.w3.org/2000/svg">
<g opacity="0.3">
<mask id="mask0_1795_2296" style="mask-type:alpha" maskUnits="userSpaceOnUse" x="0" y="0" width="233" height="191">
<rect x="0.0605469" y="0.000976562" width="232.939" height="190.837" fill="white"/>
</mask>
<g mask="url(#mask0_1795_2296)">
<path d="M134.09 -0.453377C143.338 29.633 126.456 61.488 96.392 70.7477C66.3327 79.9768 34.4495 63.0772 25.2012 32.9908C15.9528 2.9044 32.8349 -28.9505 62.8991 -38.2103C92.989 -47.4346 124.841 -30.5398 134.09 -0.453377Z" fill="white"/>
<path d="M134.09 -0.453377C143.338 29.633 126.456 61.488 96.392 70.7477C66.3327 79.9768 34.4495 63.0772 25.2012 32.9908C15.9528 2.9044 32.8349 -28.9505 62.8991 -38.2103C92.989 -47.4346 124.841 -30.5398 134.09 -0.453377Z" fill="url(#paint0_linear_1795_2296)"/>
<path d="M182.962 161.11C183.866 160.453 185.14 160.64 185.809 161.562C186.466 162.467 186.25 163.736 185.345 164.393C184.44 165.05 183.167 164.863 182.497 163.941C181.84 163.036 182.057 161.767 182.962 161.11Z" fill="white"/>
<path d="M171.799 145.739C172.704 145.082 173.977 145.268 174.647 146.191C175.304 147.096 175.117 148.369 174.195 149.039C173.29 149.696 172.017 149.51 171.347 148.587C170.677 147.665 170.894 146.396 171.799 145.739Z" fill="white"/>
<path d="M160.636 130.367C161.541 129.71 162.814 129.896 163.484 130.819C164.141 131.724 163.954 132.997 163.032 133.667C162.127 134.324 160.854 134.138 160.184 133.215C159.514 132.293 159.731 131.024 160.636 130.367Z" fill="white"/>
<path d="M149.473 114.996C150.378 114.339 151.651 114.525 152.321 115.448C152.978 116.353 152.792 117.626 151.869 118.296C150.965 118.953 149.692 118.767 149.022 117.844C148.352 116.921 148.569 115.653 149.473 114.996Z" fill="white"/>
<path d="M138.31 99.6249C139.215 98.9678 140.488 99.1542 141.158 100.077C141.815 100.982 141.629 102.255 140.706 102.925C139.802 103.582 138.528 103.396 137.859 102.473C137.202 101.568 137.406 100.282 138.31 99.6249Z" fill="white"/>
<path d="M127.148 84.2528C128.052 83.5958 129.325 83.7821 129.995 84.7047C130.652 85.6096 130.466 86.883 129.544 87.5529C128.639 88.2099 127.366 88.0235 126.696 87.1009C126.039 86.1961 126.243 84.9098 127.148 84.2528Z" fill="white"/>
<path d="M115.985 68.8817C116.89 68.2247 118.163 68.411 118.833 69.3336C119.49 70.2385 119.304 71.5119 118.381 72.1818C117.476 72.8388 116.203 72.6524 115.533 71.7298C114.876 70.825 115.08 69.5387 115.985 68.8817Z" fill="white"/>
<path d="M104.822 53.5096C105.727 52.8526 107 53.039 107.67 53.9616C108.327 54.8664 108.14 56.1398 107.218 56.8097C106.313 57.4667 105.04 57.2804 104.37 56.3578C103.713 55.4529 103.917 54.1667 104.822 53.5096Z" fill="white"/>
<path d="M93.6593 38.1385C94.564 37.4815 95.8372 37.6679 96.5071 38.5905C97.1641 39.4953 96.9778 40.7687 96.0554 41.4386C95.1508 42.0956 93.8776 41.9093 93.2077 40.9867C92.5507 40.0818 92.7547 38.7956 93.6593 38.1385Z" fill="white"/>
<path d="M82.5089 22.784C83.4136 22.127 84.6868 22.3134 85.3567 23.236C86.0137 24.1408 85.8274 25.4142 84.905 26.0841C84.0004 26.7411 82.7143 26.537 82.0573 25.6322C81.3874 24.7096 81.6043 23.4411 82.5089 22.784Z" fill="white"/>
<path d="M71.3463 7.41295C72.251 6.75592 73.5242 6.94228 74.1941 7.86489C74.8511 8.76975 74.6648 10.0431 73.7424 10.713C72.8378 11.3701 71.5646 11.1837 70.8947 10.2611C70.2248 9.33849 70.4417 8.06997 71.3463 7.41295Z" fill="white"/>
<path d="M195.55 151.969C196.455 151.312 197.728 151.498 198.398 152.421C199.055 153.325 198.856 154.581 197.933 155.251C197.029 155.908 195.756 155.722 195.086 154.799C194.446 153.881 194.646 152.626 195.55 151.969Z" fill="white"/>
<path d="M184.387 136.598C185.292 135.94 186.565 136.127 187.235 137.049C187.892 137.954 187.706 139.228 186.783 139.898C185.879 140.555 184.606 140.368 183.936 139.446C183.284 138.51 183.483 137.255 184.387 136.598Z" fill="white"/>
<path d="M173.224 121.225C174.129 120.568 175.402 120.755 176.072 121.677C176.729 122.582 176.543 123.856 175.62 124.526C174.716 125.183 173.443 124.996 172.773 124.074C172.121 123.138 172.32 121.882 173.224 121.225Z" fill="white"/>
<path d="M162.062 105.854C162.966 105.197 164.24 105.384 164.909 106.306C165.566 107.211 165.38 108.485 164.458 109.154C163.553 109.811 162.28 109.625 161.61 108.703C160.958 107.767 161.157 106.511 162.062 105.854Z" fill="white"/>
<path d="M150.899 90.4833C151.803 89.8262 153.076 90.0126 153.746 90.9352C154.403 91.8401 154.217 93.1134 153.295 93.7833C152.39 94.4404 151.117 94.254 150.447 93.3314C149.808 92.4137 149.994 91.1403 150.899 90.4833Z" fill="white"/>
<path d="M139.736 75.1112C140.641 74.4542 141.914 74.6405 142.584 75.5631C143.241 76.468 143.054 77.7414 142.132 78.4113C141.227 79.0683 139.954 78.8819 139.284 77.9593C138.645 77.0416 138.831 75.7682 139.736 75.1112Z" fill="white"/>
<path d="M128.573 59.7401C129.478 59.0831 130.751 59.2694 131.421 60.192C132.078 61.0969 131.891 62.3703 130.969 63.0402C130.064 63.6972 128.791 63.5108 128.121 62.5882C127.482 61.6705 127.668 60.3971 128.573 59.7401Z" fill="white"/>
<path d="M117.41 44.368C118.315 43.711 119.588 43.8974 120.258 44.82C120.915 45.7248 120.729 46.9982 119.806 47.6681C118.902 48.3251 117.629 48.1388 116.959 47.2162C116.319 46.2984 116.506 45.0251 117.41 44.368Z" fill="white"/>
<path d="M106.247 28.9969C107.152 28.3399 108.425 28.5263 109.095 29.4489C109.752 30.3537 109.566 31.6271 108.643 32.297C107.739 32.954 106.465 32.7677 105.796 31.8451C105.156 30.9273 105.343 29.654 106.247 28.9969Z" fill="white"/>
<path d="M95.0973 13.6424C96.002 12.9854 97.2752 13.1718 97.945 14.0944C98.602 14.9992 98.4158 16.2726 97.4934 16.9425C96.5888 17.5995 95.3027 17.3954 94.6457 16.4906C93.9936 15.5551 94.1927 14.2995 95.0973 13.6424Z" fill="white"/>
<path d="M83.9347 -1.72865C84.8394 -2.38568 86.1126 -2.19932 86.7824 -1.27672C87.4394 -0.371856 87.2532 0.901519 86.3308 1.57143C85.4262 2.22845 84.153 2.04209 83.4831 1.11949C82.831 0.184005 83.0301 -1.07163 83.9347 -1.72865Z" fill="white"/>
<path d="M208.156 142.814C209.061 142.157 210.334 142.344 211.004 143.266C211.643 144.184 211.444 145.44 210.539 146.097C209.635 146.754 208.361 146.567 207.692 145.645C207.035 144.74 207.251 143.471 208.156 142.814Z" fill="white"/>
<path d="M196.993 127.443C197.898 126.786 199.171 126.973 199.841 127.895C200.498 128.8 200.312 130.073 199.389 130.743C198.485 131.4 197.212 131.214 196.542 130.291C195.872 129.369 196.089 128.1 196.993 127.443Z" fill="white"/>
<path d="M185.83 112.071C186.735 111.414 188.008 111.6 188.678 112.523C189.335 113.428 189.149 114.701 188.226 115.371C187.322 116.028 186.048 115.842 185.379 114.919C184.709 113.997 184.926 112.728 185.83 112.071Z" fill="white"/>
<path d="M174.668 96.7001C175.572 96.043 176.845 96.2294 177.515 97.152C178.172 98.0569 177.986 99.3302 177.064 100C176.159 100.657 174.886 100.471 174.216 99.5482C173.546 98.6256 173.763 97.3571 174.668 96.7001Z" fill="white"/>
<path d="M163.505 81.328C164.409 80.671 165.682 80.8573 166.352 81.7799C167.009 82.6848 166.823 83.9582 165.901 84.6281C164.996 85.2851 163.723 85.0987 163.053 84.1761C162.396 83.2713 162.6 81.985 163.505 81.328Z" fill="white"/>
<path d="M152.342 65.9569C153.247 65.2999 154.52 65.4862 155.19 66.4088C155.847 67.3137 155.66 68.5871 154.738 69.257C153.833 69.914 152.56 69.7276 151.89 68.805C151.233 67.9002 151.437 66.6139 152.342 65.9569Z" fill="white"/>
<path d="M141.179 50.5848C142.084 49.9278 143.357 50.1142 144.027 51.0368C144.684 51.9416 144.497 53.215 143.575 53.8849C142.67 54.5419 141.397 54.3556 140.727 53.433C140.07 52.5281 140.274 51.2419 141.179 50.5848Z" fill="white"/>
<path d="M130.016 35.2137C130.921 34.5567 132.194 34.7431 132.864 35.6657C133.521 36.5705 133.335 37.8439 132.412 38.5138C131.508 39.1708 130.235 38.9845 129.565 38.0619C128.908 37.157 129.112 35.8708 130.016 35.2137Z" fill="white"/>
<path d="M118.853 19.8417C119.758 19.1846 121.031 19.371 121.701 20.2936C122.358 21.1984 122.172 22.4718 121.249 23.1417C120.345 23.7988 119.071 23.6124 118.402 22.6898C117.745 21.7849 117.949 20.4987 118.853 19.8417Z" fill="white"/>
<path d="M107.703 4.48814C108.608 3.83112 109.881 4.01748 110.551 4.94008C111.208 5.84494 111.022 7.11832 110.099 7.78823C109.195 8.44525 107.909 8.24115 107.252 7.33629C106.582 6.41368 106.799 5.14517 107.703 4.48814Z" fill="white"/>
<path d="M220.744 133.673C221.649 133.016 222.922 133.202 223.592 134.125C224.249 135.03 224.032 136.298 223.128 136.955C222.223 137.612 220.95 137.426 220.28 136.503C219.623 135.598 219.84 134.33 220.744 133.673Z" fill="white"/>
<path d="M209.582 118.302C210.486 117.645 211.76 117.831 212.429 118.754C213.086 119.658 212.9 120.932 211.978 121.602C211.073 122.259 209.8 122.072 209.13 121.15C208.46 120.227 208.677 118.959 209.582 118.302Z" fill="white"/>
<path d="M198.419 102.93C199.323 102.273 200.596 102.459 201.266 103.381C201.923 104.286 201.737 105.56 200.815 106.23C199.91 106.887 198.637 106.7 197.967 105.778C197.297 104.855 197.514 103.587 198.419 102.93Z" fill="white"/>
<path d="M190.104 88.0104C189.442 87.0991 188.167 86.8968 187.256 87.5585C186.345 88.2202 186.143 89.4953 186.804 90.4066C187.466 91.3179 188.741 91.5202 189.652 90.8585C190.563 90.1968 190.765 88.9217 190.104 88.0104Z" fill="white"/>
<path d="M176.093 72.1864C176.998 71.5294 178.271 71.7157 178.941 72.6383C179.598 73.5432 179.411 74.8166 178.489 75.4865C177.584 76.1435 176.311 75.9571 175.641 75.0345C174.984 74.1297 175.188 72.8434 176.093 72.1864Z" fill="white"/>
<path d="M164.93 56.8153C165.835 56.1583 167.108 56.3446 167.778 57.2672C168.435 58.1721 168.249 59.4455 167.326 60.1154C166.422 60.7724 165.149 60.586 164.479 59.6634C163.822 58.7586 164.026 57.4723 164.93 56.8153Z" fill="white"/>
<path d="M153.767 41.4432C154.672 40.7862 155.945 40.9726 156.615 41.8952C157.272 42.8 157.086 44.0734 156.163 44.7433C155.259 45.4003 153.986 45.214 153.316 44.2914C152.659 43.3865 152.863 42.1002 153.767 41.4432Z" fill="white"/>
<path d="M142.605 26.0721C143.509 25.4151 144.782 25.6015 145.452 26.5241C146.109 27.4289 145.923 28.7023 145.001 29.3722C144.096 30.0292 142.823 29.8429 142.153 28.9203C141.496 28.0154 141.7 26.7292 142.605 26.0721Z" fill="white"/>
<path d="M131.442 10.7001C132.346 10.043 133.619 10.2294 134.289 11.152C134.946 12.0568 134.76 13.3302 133.838 14.0001C132.933 14.6572 131.66 14.4708 130.99 13.5482C130.333 12.6433 130.537 11.3571 131.442 10.7001Z" fill="white"/>
<path d="M233.332 124.531C234.237 123.874 235.51 124.06 236.18 124.983C236.837 125.888 236.638 127.144 235.716 127.814C234.811 128.471 233.538 128.284 232.868 127.362C232.229 126.444 232.428 125.188 233.332 124.531Z" fill="white"/>
<path d="M222.17 109.16C223.074 108.503 224.347 108.689 225.017 109.612C225.674 110.517 225.488 111.79 224.566 112.46C223.661 113.117 222.388 112.931 221.718 112.008C221.066 111.073 221.265 109.817 222.17 109.16Z" fill="white"/>
<path d="M211.007 93.7879C211.912 93.1309 213.185 93.3173 213.855 94.2399C214.512 95.1447 214.325 96.4181 213.403 97.088C212.498 97.7451 211.225 97.5587 210.555 96.6361C209.903 95.7006 210.102 94.445 211.007 93.7879Z" fill="white"/>
<path d="M199.844 78.4169C200.749 77.7598 202.022 77.9462 202.692 78.8688C203.349 79.7737 203.162 81.047 202.24 81.7169C201.335 82.374 200.062 82.1876 199.392 81.265C198.74 80.3295 198.939 79.0739 199.844 78.4169Z" fill="white"/>
<path d="M188.681 63.0448C189.586 62.3878 190.859 62.5741 191.529 63.4967C192.186 64.4016 192 65.675 191.077 66.3449C190.173 67.0019 188.9 66.8155 188.23 65.8929C187.59 64.9752 187.777 63.7018 188.681 63.0448Z" fill="white"/>
<path d="M177.518 47.6737C178.423 47.0167 179.696 47.203 180.366 48.1256C181.023 49.0305 180.837 50.3039 179.914 50.9738C179.01 51.6308 177.736 51.4444 177.067 50.5218C176.427 49.6041 176.614 48.3307 177.518 47.6737Z" fill="white"/>
<path d="M166.356 32.3016C167.26 31.6446 168.533 31.831 169.203 32.7536C169.86 33.6584 169.674 34.9318 168.752 35.6017C167.847 36.2587 166.574 36.0724 165.904 35.1498C165.265 34.232 165.451 32.9586 166.356 32.3016Z" fill="white"/>
<path d="M155.193 16.9305C156.097 16.2735 157.37 16.4599 158.04 17.3825C158.697 18.2873 158.511 19.5607 157.589 20.2306C156.684 20.8876 155.411 20.7013 154.741 19.7787C154.102 18.8609 154.288 17.5876 155.193 16.9305Z" fill="white"/>
<path d="M144.03 1.55846C144.935 0.901433 146.208 1.08779 146.878 2.01039C147.535 2.91525 147.348 4.18863 146.426 4.85853C145.521 5.51556 144.248 5.3292 143.578 4.4066C142.939 3.48886 143.125 2.21548 144.03 1.55846Z" fill="white"/>
<path d="M223.613 84.6337C224.518 83.9766 225.791 84.163 226.461 85.0856C227.118 85.9904 226.931 87.2638 226.009 87.9337C225.104 88.5908 223.831 88.4044 223.161 87.4818C222.491 86.5592 222.708 85.2907 223.613 84.6337Z" fill="white"/>
<path d="M212.45 69.2626C213.355 68.6055 214.628 68.7919 215.298 69.7145C215.955 70.6194 215.769 71.8927 214.846 72.5626C213.942 73.2197 212.669 73.0333 211.999 72.1107C211.329 71.1881 211.546 69.9196 212.45 69.2626Z" fill="white"/>
<path d="M201.287 53.8905C202.192 53.2335 203.465 53.4198 204.135 54.3424C204.792 55.2473 204.606 56.5207 203.683 57.1906C202.779 57.8476 201.506 57.6612 200.836 56.7386C200.179 55.8338 200.383 54.5475 201.287 53.8905Z" fill="white"/>
<path d="M190.125 38.5194C191.029 37.8624 192.303 38.0487 192.972 38.9713C193.629 39.8762 193.443 41.1496 192.521 41.8195C191.616 42.4765 190.343 42.2901 189.673 41.3675C189.016 40.4627 189.22 39.1764 190.125 38.5194Z" fill="white"/>
<path d="M178.962 23.1473C179.866 22.4903 181.139 22.6767 181.809 23.5993C182.466 24.5041 182.28 25.7775 181.358 26.4474C180.453 27.1044 179.18 26.9181 178.51 25.9955C177.853 25.0906 178.057 23.8043 178.962 23.1473Z" fill="white"/>
<path d="M167.799 7.77623C168.704 7.11921 169.977 7.30556 170.647 8.22816C171.304 9.13302 171.117 10.4064 170.195 11.0763C169.29 11.7333 168.017 11.547 167.347 10.6244C166.69 9.71952 166.894 8.43326 167.799 7.77623Z" fill="white"/>
<path d="M225.038 60.121C225.943 59.4639 227.216 59.6503 227.886 60.5729C228.543 61.4778 228.357 62.7511 227.434 63.421C226.53 64.0781 225.256 63.8917 224.587 62.9691C223.934 62.0336 224.134 60.778 225.038 60.121Z" fill="white"/>
<path d="M213.876 44.7489C214.78 44.0919 216.053 44.2782 216.723 45.2008C217.38 46.1057 217.194 47.3791 216.272 48.049C215.367 48.706 214.094 48.5196 213.424 47.597C212.785 46.6793 212.971 45.4059 213.876 44.7489Z" fill="white"/>
<path d="M202.713 29.3778C203.617 28.7208 204.89 28.9071 205.56 29.8297C206.217 30.7346 206.031 32.008 205.109 32.6779C204.204 33.3349 202.931 33.1485 202.261 32.2259C201.622 31.3082 201.808 30.0348 202.713 29.3778Z" fill="white"/>
<path d="M191.55 14.0057C192.455 13.3487 193.728 13.5351 194.398 14.4577C195.055 15.3625 194.868 16.6359 193.946 17.3058C193.041 17.9628 191.768 17.7765 191.098 16.8539C190.459 15.9361 190.645 14.6627 191.55 14.0057Z" fill="white"/>
<path d="M180.387 -1.36537C181.292 -2.0224 182.565 -1.83604 183.235 -0.913437C183.892 -0.00857745 183.705 1.2648 182.783 1.93471C181.878 2.59173 180.605 2.40538 179.935 1.48277C179.296 0.565031 179.482 -0.708346 180.387 -1.36537Z" fill="white"/>
<path d="M226.482 35.5946C227.386 34.9376 228.659 35.1239 229.329 36.0465C229.986 36.9514 229.8 38.2248 228.878 38.8947C227.973 39.5517 226.7 39.3653 226.03 38.4427C225.373 37.5379 225.559 36.2645 226.482 35.5946Z" fill="white"/>
<path d="M215.319 20.2225C216.223 19.5655 217.496 19.7519 218.166 20.6745C218.823 21.5793 218.637 22.8527 217.715 23.5226C216.81 24.1796 215.537 23.9933 214.867 23.0707C214.21 22.1658 214.396 20.8924 215.319 20.2225Z" fill="white"/>
<path d="M204.156 4.85143C205.061 4.1944 206.334 4.38076 207.004 5.30336C207.661 6.20822 207.474 7.4816 206.552 8.1515C205.647 8.80853 204.374 8.62217 203.704 7.69957C203.047 6.79471 203.234 5.52133 204.156 4.85143Z" fill="white"/>
<path d="M227.907 11.0809C228.812 10.4239 230.085 10.6103 230.755 11.5329C231.412 12.4377 231.225 13.7111 230.303 14.381C229.398 15.038 228.125 14.8517 227.455 13.9291C226.798 13.0242 227.002 11.7379 227.907 11.0809Z" fill="white"/>
<path d="M216.744 -4.29018C217.649 -4.9472 218.922 -4.76084 219.592 -3.83824C220.249 -2.93338 220.063 -1.66001 219.14 -0.990098C218.236 -0.333072 216.963 -0.519429 216.293 -1.44203C215.636 -2.34689 215.84 -3.63315 216.744 -4.29018Z" fill="white"/>
</g>
</g>
<defs>
<linearGradient id="paint0_linear_1795_2296" x1="69.6077" y1="14.6796" x2="271.341" y2="143.887" gradientUnits="userSpaceOnUse">
<stop stop-color="#D7352B"/>
<stop offset="1" stop-color="#110966"/>
</linearGradient>
</defs>
</svg>
