<svg width="50" height="50" viewBox="0 0 63 70" fill="none" xmlns="http://www.w3.org/2000/svg">
<path d="M2.2678 70C1.08047 69.4547 0.737463 68.5136 0.746258 67.2471C0.781438 55.3562 0.763847 43.4653 0.763847 31.5744C0.763847 29.701 1.48504 28.9886 3.37598 28.9886C7.11389 28.9886 10.8518 29.015 14.5897 28.9798C17.325 28.9622 19.383 30.0352 20.6671 32.489C20.6935 32.5506 20.7462 32.5946 20.8166 32.6825C22.0743 32.0053 23.332 31.3281 24.5897 30.6597C26.0321 29.8857 27.4745 29.1029 28.9345 28.3642C31.8016 26.913 33.4551 24.5559 34.1235 21.4776C34.6424 19.1205 35.1174 16.7635 35.6187 14.3976C35.9089 13.0256 36.6741 12.4187 38.0725 12.4627C43.9828 12.6474 48.6266 18.197 47.879 24.1073C47.5272 26.8866 46.4718 29.4108 45.4076 31.9525C45.2581 32.3043 45.1174 32.6561 44.9327 33.0959C45.2493 33.0959 45.4956 33.0959 45.733 33.0959C49.1015 33.0959 52.4788 33.0871 55.8474 33.0959C58.4067 33.1047 60.4032 34.1513 61.5817 36.4644C62.6899 38.6368 62.514 40.7828 61.1156 42.7793C60.8166 43.2014 60.7814 43.4565 61.098 43.8874C62.6723 45.9631 62.6547 48.927 61.098 51.0202C60.843 51.3633 60.7286 51.6007 61.0364 52.0141C63.4991 55.3474 62.1182 59.9473 58.2396 61.4072C58.0901 61.46 57.9494 61.5215 57.9494 61.5215C58.0021 62.6385 58.1693 63.6851 58.0637 64.6966C57.7911 67.3527 55.689 69.4547 53.0241 69.8945C52.9186 69.9121 52.8131 69.9648 52.7075 70C46.1024 70 39.4885 70 32.8834 70C32.2326 69.9296 31.5818 69.8593 30.9309 69.7977C27.3425 69.4811 23.8245 68.7951 20.3856 67.7485C20.2185 67.6957 19.9283 67.6957 19.8403 67.8012C18.8025 69.015 17.4481 69.6394 15.9353 69.9912C11.3883 70 6.82365 70 2.2678 70ZM21.2739 63.6675C21.3883 63.7291 21.4674 63.7819 21.5466 63.8083C25.5571 64.9956 29.6469 65.8047 33.8333 65.8663C39.8491 65.9455 45.865 65.9015 51.8808 65.9015C53.1385 65.9015 54.0356 65.0836 54.0883 63.949C54.1411 62.8144 53.3056 61.9261 52.0655 61.8118C50.799 61.6887 49.9723 60.8443 49.9986 59.7098C50.025 58.54 50.9309 57.7221 52.2326 57.7133C53.4815 57.7045 54.7392 57.7221 55.9881 57.7045C57.2722 57.6957 58.178 56.8426 58.1956 55.6728C58.2044 54.4767 57.2897 53.6148 55.9617 53.606C54.7128 53.5972 53.4551 53.6148 52.2062 53.5972C50.9221 53.5884 50.0162 52.7353 50.0074 51.5655C49.9986 50.3694 50.9133 49.5075 52.2414 49.4987C53.4727 49.4899 54.704 49.4987 55.9353 49.4987C57.2722 49.4899 58.1956 48.6632 58.2044 47.467C58.2132 46.2445 57.281 45.409 55.9001 45.4002C54.7128 45.3914 53.5343 45.4002 52.3469 45.4002C50.9485 45.3914 50.0162 44.5823 50.0074 43.3685C49.9986 42.1284 50.9397 41.3017 52.3733 41.3017C53.6222 41.3017 54.8799 41.3281 56.1288 41.2929C57.7559 41.2489 58.7145 39.5867 57.9054 38.2322C57.4393 37.4407 56.7005 37.1944 55.821 37.1944C49.8931 37.2032 43.974 37.2032 38.0461 37.2032C36.5862 37.2032 35.6539 36.4116 35.6363 35.1715C35.6187 33.9138 36.5774 33.1047 38.0725 33.0959C38.6882 33.0959 39.3038 33.0695 39.9195 33.1047C40.3417 33.1311 40.5615 32.9991 40.7198 32.5858C41.2475 31.2313 41.8896 29.9209 42.3733 28.5488C42.9098 27.0097 43.4463 25.4442 43.7453 23.8523C44.3082 20.7828 42.303 17.6869 39.3566 16.8602C39.3038 17.0273 39.2423 17.2032 39.2071 17.3791C38.8289 19.1117 38.4771 20.8532 38.0813 22.577C37.1402 26.6755 34.9327 29.8329 31.1596 31.8382C28.0462 33.4917 24.9591 35.1979 21.8456 36.8602C21.3971 37.0977 21.2652 37.3791 21.2652 37.8716C21.2827 46.2533 21.2739 54.635 21.2739 63.0167C21.2739 63.219 21.2739 63.4477 21.2739 63.6675ZM4.88873 65.9015C8.23966 65.9015 11.5202 65.9015 14.792 65.9015C16.3839 65.9015 17.1666 65.1012 17.1666 63.4917C17.1666 54.1513 17.1666 44.8197 17.1666 35.4794C17.1666 33.8787 16.3751 33.0959 14.7744 33.0871C11.6785 33.0871 8.58266 33.0871 5.478 33.0871C5.28451 33.0871 5.09102 33.1135 4.87994 33.1223C4.88873 44.0633 4.88873 54.9428 4.88873 65.9015Z" fill="#202124"/>
<path d="M41.7853 4.18651C41.7853 4.87253 41.8029 5.54975 41.7853 6.23577C41.7501 7.44948 40.8706 8.34658 39.7184 8.33779C38.6015 8.32899 37.7132 7.44948 37.6956 6.27094C37.6692 4.85493 37.6692 3.44773 37.6956 2.03172C37.722 0.86198 38.6366 -0.00872903 39.7536 6.60359e-05C40.8706 0.0088611 41.7413 0.88836 41.7853 2.0669C41.8029 2.7793 41.7853 3.48291 41.7853 4.18651Z" fill="#F7421E"/>
<path d="M32.4699 9.77999C32.338 10.6507 31.951 11.2664 31.221 11.627C30.4822 11.9876 29.7083 11.9612 29.1102 11.4071C27.9756 10.3605 26.8675 9.26987 25.8296 8.12651C25.1348 7.36134 25.2668 6.1916 25.9968 5.46161C26.7179 4.74041 27.9053 4.59969 28.6705 5.2945C29.8138 6.33232 30.8956 7.4493 31.951 8.57507C32.2149 8.8741 32.294 9.36662 32.4699 9.77999Z" fill="#F7421E"/>
<path d="M47.0859 9.51644C47.2091 9.27018 47.3674 8.74248 47.6928 8.38188C48.6163 7.37045 49.5925 6.42058 50.5776 5.47072C51.4659 4.61759 52.706 4.64397 53.5151 5.47951C54.2979 6.29745 54.2979 7.49357 53.4536 8.36429C52.5037 9.34933 51.545 10.3168 50.5512 11.2579C49.9004 11.8823 49.1088 12.0142 48.2733 11.6273C47.5081 11.2755 47.1299 10.6334 47.0859 9.51644Z" fill="#F7421E"/>
<path d="M13.0685 59.7187C13.0861 60.8357 12.1626 61.7768 11.0456 61.7856C9.92863 61.8032 8.98756 60.8797 8.97876 59.7627C8.96117 58.6457 9.88466 57.7047 11.0016 57.6959C12.1098 57.6871 13.0509 58.6105 13.0685 59.7187Z" fill="#F7421E"/>
</svg>
