<svg width="360" height="315" viewBox="0 0 379 500" fill="none" xmlns="http://www.w3.org/2000/svg">
<path opacity="0.8" d="M182.522 359.674L121.876 324.664C117.562 322.183 118.099 317.832 123.079 314.944L181.3 281.321C186.28 278.452 193.814 278.137 198.127 280.618L258.773 315.629C263.086 318.109 262.55 322.46 257.57 325.349L199.349 358.971C194.369 361.84 186.835 362.155 182.522 359.674Z" fill="#0C0F38"/>
<path d="M189.741 369.394C186.39 369.394 183.169 368.709 180.781 367.339L109.343 326.089C106.899 324.682 105.548 322.701 105.548 320.498C105.548 317.906 107.455 315.314 110.75 313.407L179.337 273.804C185.391 270.305 194.61 269.935 199.867 272.99L271.306 314.24C273.749 315.647 275.101 317.628 275.101 319.831C275.101 322.423 273.194 325.015 269.899 326.922L201.311 366.525C198.016 368.413 193.777 369.394 189.741 369.394ZM181.503 366.08C186.372 368.894 194.943 368.524 200.608 365.266L269.195 325.663C272.046 324.016 273.694 321.886 273.694 319.813C273.694 318.146 272.602 316.61 270.621 315.462L199.182 274.212C194.314 271.398 185.743 271.768 180.078 275.026L111.472 314.629C108.621 316.277 106.973 318.406 106.973 320.479C106.973 322.146 108.066 323.682 110.046 324.83L181.503 366.08Z" fill="url(#paint0_linear_1864_4081)"/>
<path d="M261.699 164.199H231.616L198.128 144.87C193.814 142.389 186.28 142.686 181.3 145.574L149.052 164.199H118.988V251.235H119.007C118.877 252.92 119.821 254.55 121.895 255.734L182.541 290.745C186.854 293.226 194.388 292.93 199.368 290.042L257.589 256.42C260.181 254.92 261.55 253.031 261.68 251.217H261.699V164.199Z" fill="url(#paint1_linear_1864_4081)"/>
<path d="M257.589 255.049L199.368 288.672C194.388 291.541 186.854 291.856 182.541 289.375L121.895 254.364C119.821 253.161 118.877 251.55 119.007 249.865H118.988V251.254H119.007C118.877 252.939 119.821 254.568 121.895 255.753L182.541 290.764C186.854 293.245 194.388 292.948 199.368 290.06L257.589 256.438C260.181 254.938 261.55 253.05 261.68 251.236H261.699V249.847H261.68C261.55 251.68 260.162 253.568 257.589 255.049Z" fill="url(#paint2_linear_1864_4081)"/>
<path d="M120.895 252.643L120.877 165.606H150.94L183.207 146.962C188.187 144.093 195.721 143.778 200.035 146.259L233.523 165.588H261.699V164.199H231.616L198.128 144.87C193.814 142.389 186.28 142.686 181.3 145.574L149.052 164.199H118.988V251.235H119.007C118.877 252.92 119.821 254.55 121.895 255.734L122.228 255.938C121.247 254.957 120.802 253.809 120.895 252.643Z" fill="#D4088C"/>
<path d="M259.995 165.828V252.772H259.976C259.902 253.809 259.402 254.864 258.551 255.845C260.513 254.457 261.587 252.828 261.698 251.254H261.716V164.403C261.087 164.81 260.494 165.273 259.995 165.828Z" fill="#6EE8FC"/>
<path d="M182.522 203.728L121.876 168.717C117.562 166.236 118.099 161.885 123.079 158.997L181.3 125.375C186.28 122.505 193.814 122.19 198.127 124.671L258.773 159.682C263.086 162.163 262.55 166.514 257.57 169.402L199.349 203.024C194.369 205.912 186.835 206.227 182.522 203.728Z" fill="url(#paint3_linear_1864_4081)"/>
<path d="M258.791 159.7L198.145 124.689C195.905 123.393 192.814 122.875 189.648 123.042C191.944 123.171 194.091 123.727 195.757 124.689L256.403 159.7C260.716 162.181 260.179 166.532 255.2 169.42L196.979 203.042C194.572 204.431 191.592 205.209 188.648 205.375C192.295 205.597 196.294 204.801 199.348 203.042L257.569 169.42C262.567 166.532 263.104 162.181 258.791 159.7Z" fill="#6EE8FC"/>
<path d="M184.522 193.637L139.371 167.569C136.168 165.717 136.557 162.477 140.278 160.33L183.633 135.298C187.336 133.151 192.945 132.928 196.166 134.78L241.317 160.848C244.52 162.7 244.131 165.94 240.41 168.087L197.054 193.119C193.334 195.248 187.724 195.489 184.522 193.637Z" fill="url(#paint4_linear_1864_4081)"/>
<path d="M186.131 185.528L153.42 166.643C151.087 165.292 151.383 162.959 154.068 161.404L185.483 143.26C188.167 141.704 192.24 141.538 194.554 142.889L227.265 161.774C229.597 163.125 229.301 165.458 226.617 167.014L195.202 185.158C192.517 186.694 188.445 186.861 186.131 185.528Z" fill="#6DE0F6"/>
<path d="M185.243 203.727L124.597 168.717C120.284 166.236 120.821 161.885 125.8 158.997L184.04 125.375C186.409 124.004 189.334 123.227 192.24 123.042C188.538 122.783 184.428 123.579 181.318 125.375L123.098 158.997C118.118 161.866 117.581 166.217 121.894 168.717L182.54 203.727C184.799 205.042 187.964 205.56 191.167 205.357C188.927 205.209 186.872 204.672 185.243 203.727Z" fill="#D4088C"/>
<path d="M154.049 163.959L185.464 145.814C188.148 144.259 192.221 144.093 194.535 145.444L227.265 164.347C227.783 164.644 228.153 164.995 228.412 165.384C229.19 164.107 228.857 162.718 227.265 161.792L194.535 142.889C192.202 141.538 188.148 141.723 185.464 143.259L154.049 161.404C151.957 162.607 151.346 164.292 152.253 165.625C152.623 165.014 153.197 164.44 154.049 163.959Z" fill="#267FE5"/>
<path d="M154.049 167.032L185.464 148.888C188.148 147.333 192.221 147.166 194.535 148.518L227.265 167.421C227.672 167.661 227.968 167.939 228.227 168.217C229.264 166.865 228.986 165.329 227.265 164.329L194.535 145.426C192.203 144.074 188.148 144.259 185.464 145.796L154.049 163.959C151.828 165.236 151.272 167.05 152.438 168.402C152.809 167.902 153.346 167.439 154.049 167.032Z" fill="#25BFEC"/>
<path d="M152.753 171.809C153.105 171.457 153.512 171.105 154.049 170.79L185.464 152.646C188.149 151.091 192.221 150.924 194.535 152.276L227.265 171.179C227.505 171.327 227.709 171.475 227.913 171.642C229.301 170.198 229.134 168.495 227.265 167.421L194.535 148.518C192.203 147.166 188.149 147.351 185.464 148.888L154.049 167.032C151.643 168.421 151.18 170.439 152.753 171.809Z" fill="#18D0F7"/>
<path d="M211.252 267.861L207.883 269.805C207.013 270.305 206.31 269.768 206.31 268.62V221.649C206.31 220.502 207.013 219.15 207.883 218.65L211.252 216.706C212.122 216.206 212.826 216.743 212.826 217.891V264.862C212.807 266.01 212.104 267.362 211.252 267.861Z" fill="#6DE0F6"/>
<path d="M211.252 216.706L210.438 217.169V263.288C210.438 264.436 209.734 265.788 208.864 266.288L206.31 267.769V268.62C206.31 269.768 207.013 270.305 207.883 269.805L211.252 267.861C212.122 267.362 212.826 266.028 212.826 264.862V217.891C212.807 216.743 212.104 216.206 211.252 216.706Z" fill="#267FE5"/>
<path d="M223.637 260.696L220.268 262.64C219.398 263.14 218.694 262.603 218.694 261.455V214.484C218.694 213.337 219.398 211.985 220.268 211.485L223.637 209.541C224.507 209.041 225.21 209.578 225.21 210.726V257.697C225.21 258.863 224.507 260.197 223.637 260.696Z" fill="#6DE0F6"/>
<path d="M236.021 253.55L232.652 255.494C231.782 255.994 231.078 255.457 231.078 254.309V207.338C231.078 206.19 231.782 204.838 232.652 204.339L236.021 202.394C236.891 201.895 237.594 202.432 237.594 203.579V250.55C237.594 251.698 236.891 253.05 236.021 253.55Z" fill="#6DE0F6"/>
<path d="M248.425 246.385L245.056 248.329C244.186 248.829 243.482 248.292 243.482 247.144V200.173C243.482 199.025 244.186 197.673 245.056 197.173L248.425 195.229C249.295 194.73 249.998 195.266 249.998 196.414V243.385C249.98 244.552 249.295 245.885 248.425 246.385Z" fill="#6DE0F6"/>
<path d="M223.637 209.541L222.822 210.004V256.123C222.822 257.271 222.119 258.623 221.249 259.123L218.694 260.604V261.455C218.694 262.603 219.398 263.14 220.268 262.64L223.637 260.696C224.507 260.197 225.21 258.863 225.21 257.697V210.726C225.21 209.578 224.507 209.041 223.637 209.541Z" fill="#267FE5"/>
<path d="M236.021 202.394L235.206 202.857V248.977C235.206 250.125 234.503 251.476 233.633 251.976L231.078 253.457V254.309C231.078 255.457 231.782 255.994 232.652 255.494L236.021 253.55C236.891 253.05 237.594 251.717 237.594 250.55V203.579C237.594 202.432 236.891 201.895 236.021 202.394Z" fill="#267FE5"/>
<path d="M248.425 195.229L247.61 195.692V241.812C247.61 242.96 246.907 244.311 246.037 244.811L243.482 246.292V247.144C243.482 248.292 244.186 248.829 245.056 248.329L248.425 246.385C249.295 245.885 249.998 244.552 249.998 243.385V196.414C249.98 195.266 249.295 194.73 248.425 195.229Z" fill="#267FE5"/>
<path d="M177.523 273.619C177.134 273.619 176.709 273.49 176.283 273.249L132.483 247.958C130.965 247.088 129.78 244.829 129.78 242.83V193.119C129.78 191.971 130.188 191.101 130.891 190.693C131.502 190.342 132.261 190.379 133.02 190.823L176.82 216.114C178.338 216.984 179.522 219.243 179.522 221.242V270.953C179.522 272.101 179.115 272.971 178.412 273.379C178.134 273.545 177.838 273.619 177.523 273.619ZM131.78 191.489C131.65 191.489 131.52 191.526 131.409 191.582C131.039 191.786 130.817 192.36 130.817 193.119V242.83C130.817 244.441 131.817 246.385 133.001 247.07L176.801 272.36C177.097 272.527 177.523 272.694 177.893 272.49C178.264 272.286 178.486 271.712 178.486 270.953V221.242C178.486 219.631 177.486 217.687 176.283 217.002L132.483 191.712C132.298 191.601 132.039 191.489 131.78 191.489Z" fill="#480689"/>
<path d="M138.35 202.876C138.35 204.227 137.388 204.783 136.222 204.098C135.037 203.413 134.093 201.765 134.093 200.413C134.093 199.062 135.055 198.506 136.222 199.191C137.388 199.858 138.35 201.506 138.35 202.876Z" fill="#6DE0F6"/>
<path d="M138.35 209.782C138.35 211.133 137.388 211.689 136.222 211.004C135.037 210.319 134.093 208.671 134.093 207.319C134.093 205.968 135.055 205.412 136.222 206.097C137.388 206.782 138.35 208.43 138.35 209.782Z" fill="#6DE0F6"/>
<path d="M138.35 216.706C138.35 218.058 137.388 218.613 136.222 217.928C135.037 217.243 134.093 215.595 134.093 214.244C134.093 212.892 135.055 212.337 136.222 213.022C137.388 213.688 138.35 215.336 138.35 216.706Z" fill="#6DE0F6"/>
<path d="M137.277 217.095C136.092 216.41 135.148 214.762 135.148 213.411C135.148 213.151 135.185 212.948 135.259 212.744C134.574 212.744 134.093 213.299 134.093 214.262C134.093 215.614 135.055 217.28 136.222 217.947C137.184 218.502 137.98 218.224 138.239 217.391C137.962 217.373 137.628 217.299 137.277 217.095Z" fill="#267FE5"/>
<path d="M137.277 210.17C136.092 209.485 135.148 207.838 135.148 206.486C135.148 206.227 135.185 206.023 135.259 205.82C134.574 205.82 134.093 206.375 134.093 207.338C134.093 208.689 135.055 210.356 136.222 211.022C137.184 211.578 137.98 211.3 138.239 210.467C137.962 210.448 137.628 210.374 137.277 210.17Z" fill="#267FE5"/>
<path d="M137.277 203.246C136.092 202.561 135.148 200.913 135.148 199.562C135.148 199.303 135.185 199.099 135.259 198.895C134.574 198.895 134.093 199.451 134.093 200.413C134.093 201.765 135.055 203.431 136.222 204.098C137.184 204.653 137.98 204.375 138.239 203.542C137.962 203.524 137.628 203.45 137.277 203.246Z" fill="#267FE5"/>
<path d="M173.58 248.81L172.173 247.995C171.729 247.736 171.377 247.07 171.377 246.477V239.701C171.377 239.108 171.729 238.849 172.173 239.108L173.58 239.923C174.024 240.182 174.376 240.849 174.376 241.441V248.218C174.376 248.792 174.024 249.069 173.58 248.81Z" fill="#480689"/>
<path opacity="0.2" d="M228.82 0.365356H151.902V164.384C151.902 165.236 152.421 166.051 153.457 166.643L186.15 185.509C188.482 186.842 192.537 186.676 195.221 185.139L226.599 167.013C227.987 166.217 228.728 165.199 228.802 164.218H228.82V0.365356Z" fill="url(#paint5_linear_1864_4081)"/>
<path opacity="0.2" d="M225.173 16.01H155.549V164.458C155.549 165.218 156.012 165.958 156.956 166.514L186.538 183.602C188.649 184.824 192.314 184.658 194.739 183.269L223.137 166.865C224.396 166.143 225.062 165.218 225.136 164.329H225.155V16.01H225.173Z" fill="url(#paint6_linear_1864_4081)"/>
<path d="M174.968 150.647C174.968 152.221 173.691 153.517 172.099 153.517C170.525 153.517 169.229 152.239 169.229 150.647C169.229 149.073 170.507 147.777 172.099 147.777C173.691 147.777 174.968 149.055 174.968 150.647Z" fill="#6DE0F6"/>
<path d="M193.702 136.317C196.401 136.317 198.589 134.128 198.589 131.429C198.589 128.729 196.401 126.541 193.702 126.541C191.003 126.541 188.815 128.729 188.815 131.429C188.815 134.128 191.003 136.317 193.702 136.317Z" fill="#6DE0F6"/>
<path d="M188.945 128.318C188.945 129.003 188.39 129.577 187.686 129.577C187.002 129.577 186.428 129.022 186.428 128.318C186.428 127.615 186.983 127.059 187.686 127.059C188.371 127.059 188.945 127.615 188.945 128.318Z" fill="#6DE0F6"/>
<path d="M209.049 106.194C210.398 106.194 211.492 105.1 211.492 103.75C211.492 102.4 210.398 101.306 209.049 101.306C207.699 101.306 206.605 102.4 206.605 103.75C206.605 105.1 207.699 106.194 209.049 106.194Z" fill="#6DE0F6"/>
<path d="M196.145 84.6984C197.096 84.6984 197.867 83.9275 197.867 82.9766C197.867 82.0257 197.096 81.2548 196.145 81.2548C195.195 81.2548 194.424 82.0257 194.424 82.9766C194.424 83.9275 195.195 84.6984 196.145 84.6984Z" fill="#6DE0F6"/>
<path d="M178.115 69.7389C178.115 71.4792 176.708 72.8678 174.987 72.8678C173.265 72.8678 171.858 71.4607 171.858 69.7389C171.858 68.017 173.265 66.6099 174.987 66.6099C176.708 66.5914 178.115 67.9985 178.115 69.7389Z" fill="#6DE0F6"/>
<path d="M184.169 45.2444C185.13 45.2444 185.909 44.4652 185.909 43.504C185.909 42.5429 185.13 41.7637 184.169 41.7637C183.208 41.7637 182.429 42.5429 182.429 43.504C182.429 44.4652 183.208 45.2444 184.169 45.2444Z" fill="#6DE0F6"/>
<path d="M197.367 57.2047C198.502 57.2047 199.422 56.2846 199.422 55.1496C199.422 54.0146 198.502 53.0945 197.367 53.0945C196.232 53.0945 195.312 54.0146 195.312 55.1496C195.312 56.2846 196.232 57.2047 197.367 57.2047Z" fill="#6DE0F6"/>
<path d="M200.959 50.8541C200.959 51.4096 200.515 51.8539 199.96 51.8539C199.404 51.8539 198.96 51.4096 198.96 50.8541C198.96 50.2987 199.404 49.8544 199.96 49.8544C200.515 49.8544 200.959 50.2987 200.959 50.8541Z" fill="#6DE0F6"/>
<path d="M213.88 29.4515C213.88 31.0438 212.584 32.3213 211.011 32.3213C209.419 32.3213 208.142 31.0252 208.142 29.4515C208.142 27.8593 209.437 26.5818 211.011 26.5818C212.584 26.5818 213.88 27.8778 213.88 29.4515Z" fill="#6DE0F6"/>
<path d="M77.3721 424.993L16.7263 389.982C12.4129 387.501 12.9498 383.15 17.9296 380.262L76.1503 346.64C81.1301 343.77 88.6646 343.456 92.9779 345.937L153.624 380.947C157.937 383.428 157.4 387.779 152.42 390.667L94.1997 424.289C89.2199 427.178 81.6855 427.492 77.3721 424.993Z" fill="url(#paint7_linear_1864_4081)"/>
<path d="M84.5918 434.713C81.2411 434.713 78.02 434.028 75.6319 432.658L4.19343 391.39C1.74983 389.982 0.398438 388.001 0.398438 385.817C0.398438 383.225 2.30519 380.633 5.60036 378.726L74.1879 339.123C80.2414 335.624 89.4605 335.254 94.7179 338.309L166.156 379.559C168.6 380.966 169.951 382.947 169.951 385.15C169.951 387.742 168.045 390.334 164.749 392.241L96.1619 431.843C92.8667 433.732 88.6274 434.713 84.5918 434.713ZM76.3354 431.418C81.204 434.232 89.7752 433.862 95.4399 430.603L164.027 391.001C166.878 389.353 168.526 387.224 168.526 385.15C168.526 383.484 167.434 381.947 165.453 380.799L94.0145 339.549C89.1458 336.735 80.5746 337.105 74.9099 340.364L6.32233 379.948C3.47146 381.595 1.82387 383.725 1.82387 385.798C1.82387 387.464 2.91609 389.001 4.89689 390.149L76.3354 431.418Z" fill="url(#paint8_linear_1864_4081)"/>
<path d="M156.549 229.537H126.467L92.9784 210.208C88.665 207.727 81.1306 208.023 76.1508 210.911L43.8841 229.555H13.8389V316.591H13.8574C13.7278 318.276 14.6719 319.905 16.7453 321.09L77.3911 356.101C81.7045 358.582 89.2389 358.286 94.2187 355.398L152.439 321.775C155.031 320.276 156.401 318.387 156.531 316.573H156.549V229.537Z" fill="url(#paint9_linear_1864_4081)"/>
<path d="M152.421 320.387L94.2002 354.009C89.2204 356.879 81.686 357.193 77.3726 354.713L16.7268 319.683C14.6534 318.48 13.7093 316.869 13.8389 315.184V316.573H13.8574C13.7278 318.258 14.6719 319.887 16.7453 321.072L77.3911 356.083C81.7045 358.564 89.2389 358.267 94.2187 355.379L152.439 321.757C155.031 320.257 156.401 318.369 156.531 316.554H156.549V315.166H156.531C156.401 316.999 155.013 318.887 152.421 320.387Z" fill="url(#paint10_linear_1864_4081)"/>
<path d="M15.7456 317.961L15.7271 230.925H45.7909L78.0576 212.281C83.0374 209.412 90.5718 209.097 94.8851 211.578L128.374 230.907H156.549V229.518H126.467L92.9784 210.189C88.665 207.708 81.1306 208.004 76.1508 210.893L43.8841 229.537H13.8389V316.573H13.8574C13.7278 318.258 14.6719 319.887 16.7453 321.072L17.0785 321.275C16.0974 320.276 15.6531 319.128 15.7456 317.961Z" fill="#D4088C"/>
<path d="M154.846 231.147V318.091H154.828C154.754 319.128 154.254 320.183 153.402 321.164C155.365 319.776 156.438 318.146 156.549 316.573H156.568V229.74C155.938 230.148 155.346 230.592 154.846 231.147Z" fill="#6EE8FC"/>
<path d="M77.3721 269.065L16.7263 234.036C12.4129 231.555 12.9498 227.204 17.9296 224.316L76.1503 190.693C81.1301 187.824 88.6646 187.509 92.9779 189.99L153.624 225.001C157.937 227.482 157.4 231.832 152.42 234.721L94.1997 268.343C89.2199 271.231 81.6855 271.546 77.3721 269.065Z" fill="url(#paint11_linear_1864_4081)"/>
<path d="M153.642 225.019L92.9958 190.008C90.7558 188.712 87.6643 188.194 84.4987 188.361C86.7942 188.49 88.9416 189.046 90.6077 190.008L151.254 225.019C155.567 227.5 155.03 231.851 150.05 234.739L91.8295 268.361C89.4229 269.75 86.4425 270.527 83.499 270.694C87.1459 270.916 91.1445 270.12 94.1991 268.361L152.42 234.739C157.4 231.869 157.955 227.518 153.642 225.019Z" fill="#6EE8FC"/>
<path d="M79.3714 258.956L34.2202 232.888C31.0176 231.036 31.4063 227.796 35.1273 225.649L78.4828 200.617C82.1852 198.47 87.7944 198.247 91.0155 200.099L136.167 226.167C139.369 228.018 138.981 231.259 135.26 233.406L91.9041 258.438C88.1831 260.585 82.574 260.807 79.3714 258.956Z" fill="url(#paint12_linear_1864_4081)"/>
<path d="M80.9627 250.847L48.2517 231.962C45.9192 230.611 46.2154 228.278 48.8996 226.723L80.3148 208.578C82.999 207.023 87.0717 206.857 89.3857 208.208L122.097 227.093C124.429 228.444 124.133 230.777 121.449 232.332L90.0337 250.476C87.3679 252.032 83.2952 252.198 80.9627 250.847Z" fill="#6DE0F6"/>
<path d="M80.0934 269.065L19.4476 234.054C15.1342 231.573 15.6711 227.222 20.6509 224.334L78.8901 190.693C81.2597 189.323 84.1846 188.546 87.091 188.361C83.3886 188.101 79.2789 188.898 76.1688 190.693L17.9296 224.316C12.9498 227.185 12.4129 231.536 16.7263 234.036L77.3721 269.046C79.6306 270.361 82.7962 270.879 85.9988 270.676C83.7773 270.527 81.704 269.991 80.0934 269.065Z" fill="#D4088C"/>
<path d="M48.9005 229.277L80.3156 211.133C82.9999 209.578 87.0726 209.411 89.3866 210.763L122.116 229.666C122.634 229.962 123.005 230.314 123.264 230.703C124.041 229.426 123.708 228.037 122.116 227.111L89.3866 208.208C87.054 206.856 82.9999 207.042 80.3156 208.578L48.9005 226.722C46.8086 227.926 46.1977 229.611 47.1048 230.944C47.4565 230.333 48.0489 229.759 48.9005 229.277Z" fill="#267FE5"/>
<path d="M48.9006 232.351L80.3157 214.207C83 212.651 87.0727 212.485 89.3867 213.836L122.116 232.739C122.523 232.98 122.82 233.258 123.079 233.536C124.116 232.184 123.838 230.647 122.116 229.648L89.3867 210.744C87.0542 209.393 83 209.578 80.3157 211.115L48.9006 229.259C46.6791 230.536 46.1238 232.351 47.29 233.702C47.6603 233.239 48.1971 232.777 48.9006 232.351Z" fill="#25BFEC"/>
<path d="M47.6048 237.128C47.9566 236.776 48.3638 236.424 48.9007 236.109L80.3158 217.965C83.0001 216.41 87.0728 216.243 89.3868 217.595L122.116 236.498C122.357 236.646 122.561 236.794 122.764 236.961C124.153 235.517 123.986 233.813 122.116 232.74L89.3868 213.836C87.0543 212.485 83.0001 212.67 80.3158 214.207L48.9007 232.351C46.4941 233.739 46.0313 235.757 47.6048 237.128Z" fill="#18D0F7"/>
<path d="M106.084 333.18L102.715 335.124C101.845 335.624 101.142 335.087 101.142 333.939V286.968C101.142 285.82 101.845 284.469 102.715 283.969L106.084 282.025C106.954 281.525 107.658 282.062 107.658 283.21V330.181C107.658 331.347 106.954 332.68 106.084 333.18Z" fill="#6DE0F6"/>
<path d="M106.084 282.025L105.27 282.488V328.607C105.27 329.755 104.566 331.107 103.696 331.607L101.142 333.088V333.939C101.142 335.087 101.845 335.624 102.715 335.124L106.084 333.18C106.954 332.68 107.658 331.347 107.658 330.181V283.21C107.658 282.062 106.954 281.525 106.084 282.025Z" fill="#267FE5"/>
<path d="M118.487 326.034L115.118 327.978C114.248 328.478 113.545 327.941 113.545 326.793V279.822C113.545 278.674 114.248 277.322 115.118 276.822L118.487 274.878C119.357 274.378 120.061 274.915 120.061 276.063V323.034C120.061 324.182 119.357 325.534 118.487 326.034Z" fill="#6DE0F6"/>
<path d="M130.872 318.869L127.503 320.813C126.633 321.313 125.93 320.776 125.93 319.628V272.657C125.93 271.509 126.633 270.157 127.503 269.657L130.872 267.713C131.742 267.213 132.446 267.75 132.446 268.898V315.869C132.446 317.036 131.742 318.369 130.872 318.869Z" fill="#6DE0F6"/>
<path d="M143.276 311.722L139.906 313.666C139.036 314.166 138.333 313.629 138.333 312.481V265.492C138.333 264.344 139.036 262.992 139.906 262.492L143.276 260.548C144.146 260.048 144.849 260.585 144.849 261.733V308.704C144.83 309.871 144.127 311.222 143.276 311.722Z" fill="#6DE0F6"/>
<path d="M118.487 274.878L117.673 275.341V321.461C117.673 322.609 116.97 323.96 116.099 324.46L113.545 325.941V326.793C113.545 327.941 114.248 328.478 115.118 327.978L118.487 326.034C119.357 325.534 120.061 324.201 120.061 323.034V276.063C120.061 274.897 119.357 274.379 118.487 274.878Z" fill="#267FE5"/>
<path d="M130.872 267.713L130.058 268.176V314.296C130.058 315.443 129.354 316.795 128.484 317.295L125.93 318.776V319.628C125.93 320.776 126.633 321.313 127.503 320.813L130.872 318.869C131.742 318.369 132.446 317.036 132.446 315.869V268.898C132.446 267.75 131.742 267.213 130.872 267.713Z" fill="#267FE5"/>
<path d="M143.276 260.567L142.461 261.03V307.149C142.461 308.297 141.758 309.649 140.888 310.148L138.333 311.63V312.481C138.333 313.629 139.036 314.166 139.906 313.666L143.276 311.722C144.146 311.222 144.849 309.889 144.849 308.723V261.752C144.83 260.585 144.127 260.067 143.276 260.567Z" fill="#267FE5"/>
<path d="M72.3737 338.938C71.985 338.938 71.5592 338.809 71.1334 338.568L27.3336 313.277C25.8156 312.407 24.6309 310.148 24.6309 308.149V258.456C24.6309 257.308 25.0381 256.438 25.7416 256.031C26.3525 255.679 27.1115 255.716 27.852 256.16L71.6518 281.451C73.1698 282.321 74.3545 284.58 74.3545 286.579V336.291C74.3545 337.42 73.9473 338.309 73.2438 338.716C72.9846 338.864 72.6884 338.938 72.3737 338.938ZM71.6518 337.698C71.948 337.864 72.3922 338.031 72.744 337.827C73.1142 337.605 73.3364 337.031 73.3364 336.291V286.579C73.3364 284.969 72.3367 283.025 71.1334 282.34L27.3336 257.049C27.0374 256.882 26.6117 256.716 26.2414 256.919C25.8712 257.123 25.649 257.697 25.649 258.456V308.167C25.649 309.778 26.6487 311.722 27.852 312.407L71.6518 337.698Z" fill="#480689"/>
<path d="M33.2019 268.195C33.2019 269.546 32.2393 270.102 31.0731 269.417C29.8884 268.732 28.9443 267.084 28.9443 265.732C28.9443 264.381 29.9069 263.825 31.0731 264.51C32.2393 265.177 33.2019 266.843 33.2019 268.195Z" fill="#6DE0F6"/>
<path d="M33.2019 275.119C33.2019 276.471 32.2393 277.026 31.0731 276.341C29.8884 275.656 28.9443 274.008 28.9443 272.657C28.9443 271.305 29.9069 270.75 31.0731 271.435C32.2393 272.101 33.2019 273.749 33.2019 275.119Z" fill="#6DE0F6"/>
<path d="M33.2019 282.025C33.2019 283.376 32.2393 283.932 31.0731 283.247C29.8884 282.562 28.9443 280.914 28.9443 279.562C28.9443 278.211 29.9069 277.655 31.0731 278.34C32.2393 279.007 33.2019 280.673 33.2019 282.025Z" fill="#6DE0F6"/>
<path d="M32.1283 282.414C30.9436 281.729 29.9995 280.081 29.9995 278.729C29.9995 278.47 30.0365 278.267 30.1105 278.063C29.4256 278.063 28.9443 278.618 28.9443 279.581C28.9443 280.933 29.9069 282.599 31.0731 283.265C32.0357 283.821 32.8317 283.543 33.0909 282.71C32.7947 282.691 32.48 282.617 32.1283 282.414Z" fill="#267FE5"/>
<path d="M32.1283 275.489C30.9436 274.804 29.9995 273.157 29.9995 271.805C29.9995 271.546 30.0365 271.342 30.1105 271.138C29.4256 271.138 28.9443 271.694 28.9443 272.657C28.9443 274.008 29.9069 275.674 31.0731 276.341C32.0357 276.896 32.8317 276.619 33.0909 275.786C32.7947 275.786 32.48 275.693 32.1283 275.489Z" fill="#267FE5"/>
<path d="M32.1283 268.583C30.9436 267.898 29.9995 266.251 29.9995 264.899C29.9995 264.64 30.0365 264.436 30.1105 264.233C29.4256 264.233 28.9443 264.788 28.9443 265.751C28.9443 267.102 29.9069 268.769 31.0731 269.435C32.0357 269.991 32.8317 269.713 33.0909 268.88C32.7947 268.861 32.48 268.769 32.1283 268.583Z" fill="#267FE5"/>
<path d="M68.4304 314.129L67.0235 313.314C66.5793 313.055 66.2275 312.389 66.2275 311.796V305.02C66.2275 304.427 66.5793 304.168 67.0235 304.427L68.4304 305.242C68.8746 305.501 69.2264 306.168 69.2264 306.76V313.536C69.2264 314.11 68.8746 314.388 68.4304 314.129Z" fill="#480689"/>
<path opacity="0.2" d="M123.671 65.6842H46.7529V229.703C46.7529 230.555 47.2713 231.351 48.3079 231.962L81.0004 250.828C83.333 252.161 87.3871 251.995 90.0714 250.458L121.45 232.332C122.838 231.536 123.578 230.518 123.652 229.537H123.671V65.6842Z" fill="url(#paint13_linear_1864_4081)"/>
<path opacity="0.25" d="M120.024 81.3289H50.3994V229.777C50.3994 230.536 50.8622 231.277 51.8063 231.832L81.3888 248.921C83.4992 250.143 87.1646 249.977 89.5897 248.588L117.987 232.184C119.246 231.462 119.913 230.536 119.987 229.648H120.005V81.3289H120.024Z" fill="url(#paint14_linear_1864_4081)"/>
<path d="M66.9679 218.835C68.5525 218.835 69.8371 217.55 69.8371 215.966C69.8371 214.381 68.5525 213.096 66.9679 213.096C65.3832 213.096 64.0986 214.381 64.0986 215.966C64.0986 217.55 65.3832 218.835 66.9679 218.835Z" fill="#6DE0F6"/>
<path d="M88.553 201.635C91.252 201.635 93.4399 199.447 93.4399 196.748C93.4399 194.048 91.252 191.86 88.553 191.86C85.854 191.86 83.666 194.048 83.666 196.748C83.666 199.447 85.854 201.635 88.553 201.635Z" fill="#6DE0F6"/>
<path d="M82.5371 194.896C83.2323 194.896 83.7959 194.333 83.7959 193.637C83.7959 192.942 83.2323 192.378 82.5371 192.378C81.8419 192.378 81.2783 192.942 81.2783 193.637C81.2783 194.333 81.8419 194.896 82.5371 194.896Z" fill="#6DE0F6"/>
<path d="M103.881 171.513C105.23 171.513 106.324 170.418 106.324 169.069C106.324 167.719 105.23 166.625 103.881 166.625C102.531 166.625 101.438 167.719 101.438 169.069C101.438 170.418 102.531 171.513 103.881 171.513Z" fill="#6DE0F6"/>
<path d="M90.9969 150.017C91.9477 150.017 92.7185 149.246 92.7185 148.295C92.7185 147.345 91.9477 146.574 90.9969 146.574C90.0462 146.574 89.2754 147.345 89.2754 148.295C89.2754 149.246 90.0462 150.017 90.9969 150.017Z" fill="#6DE0F6"/>
<path d="M69.8188 138.187C71.5466 138.187 72.9472 136.786 72.9472 135.058C72.9472 133.33 71.5466 131.929 69.8188 131.929C68.0911 131.929 66.6904 133.33 66.6904 135.058C66.6904 136.786 68.0911 138.187 69.8188 138.187Z" fill="#6DE0F6"/>
<path d="M80.7594 108.841C80.7594 109.804 79.9819 110.582 79.0194 110.582C78.0568 110.582 77.2793 109.804 77.2793 108.841C77.2793 107.879 78.0568 107.101 79.0194 107.101C79.9819 107.082 80.7594 107.879 80.7594 108.841Z" fill="#6DE0F6"/>
<path d="M94.2726 120.468C94.2726 121.598 93.347 122.523 92.2178 122.523C91.0886 122.523 90.1631 121.598 90.1631 120.468C90.1631 119.339 91.0886 118.413 92.2178 118.413C93.347 118.413 94.2726 119.339 94.2726 120.468Z" fill="#6DE0F6"/>
<path d="M95.8098 116.173C95.8098 116.728 95.3655 117.173 94.8102 117.173C94.2548 117.173 93.8105 116.728 93.8105 116.173C93.8105 115.618 94.2548 115.173 94.8102 115.173C95.3655 115.173 95.8098 115.618 95.8098 116.173Z" fill="#6DE0F6"/>
<path d="M108.732 94.7889C108.732 96.3811 107.436 97.6586 105.862 97.6586C104.27 97.6586 102.993 96.3626 102.993 94.7889C102.993 93.1966 104.289 91.9191 105.862 91.9191C107.436 91.9006 108.732 93.1966 108.732 94.7889Z" fill="#6DE0F6"/>
<path d="M285.819 424.327L225.174 389.316C220.86 386.835 221.397 382.484 226.377 379.596L284.598 345.974C289.577 343.104 297.112 342.789 301.425 345.27L362.071 380.281C366.384 382.762 365.847 387.113 360.868 390.001L302.647 423.623C297.667 426.493 290.133 426.807 285.819 424.327Z" fill="url(#paint15_linear_1864_4081)"/>
<path d="M293.039 434.047C289.688 434.047 286.467 433.362 284.079 431.992L212.641 390.742C210.197 389.334 208.846 387.353 208.846 385.15C208.846 382.558 210.752 379.966 214.048 378.059L282.635 338.457C288.689 334.958 297.908 334.587 303.165 337.642L374.604 378.892C377.047 380.299 378.399 382.28 378.399 384.484C378.399 387.076 376.492 389.668 373.197 391.575L304.609 431.177C301.314 433.065 297.075 434.047 293.039 434.047ZM284.801 430.733C289.67 433.547 298.241 433.176 303.906 429.918L372.493 390.316C375.344 388.668 376.992 386.539 376.992 384.465C376.992 382.799 375.9 381.262 373.919 380.114L302.48 338.864C297.612 336.05 289.04 336.42 283.376 339.679L214.788 379.281C211.937 380.929 210.29 383.058 210.29 385.132C210.29 386.798 211.382 388.335 213.363 389.483L284.801 430.733Z" fill="url(#paint16_linear_1864_4081)"/>
<path d="M364.996 228.852H334.914L301.426 209.523C297.112 207.042 289.578 207.338 284.598 210.226L252.331 228.87H222.268V315.906H222.286C222.157 317.591 223.101 319.22 225.174 320.405L285.82 355.416C290.133 357.897 297.668 357.601 302.647 354.713L360.868 321.09C363.46 319.591 364.83 317.702 364.959 315.888H364.978V228.852H364.996Z" fill="url(#paint17_linear_1864_4081)"/>
<path d="M360.887 319.702L302.666 353.324C297.686 356.194 290.152 356.508 285.838 354.028L225.193 319.017C223.119 317.813 222.175 316.203 222.305 314.518H222.286V315.906H222.305C222.175 317.591 223.119 319.22 225.193 320.405L285.838 355.416C290.152 357.897 297.686 357.601 302.666 354.713L360.887 321.09C363.478 319.591 364.848 317.702 364.978 315.888H364.996V314.499H364.978C364.848 316.332 363.46 318.221 360.887 319.702Z" fill="url(#paint18_linear_1864_4081)"/>
<path d="M224.193 317.295L224.174 230.259H254.238L286.505 211.615C291.485 208.745 299.019 208.43 303.332 210.911L336.821 230.24H364.996V228.852H334.914L301.426 209.523C297.112 207.042 289.578 207.338 284.598 210.226L252.331 228.87H222.268V315.906H222.286C222.157 317.591 223.101 319.22 225.174 320.405L225.507 320.609C224.545 319.609 224.1 318.461 224.193 317.295Z" fill="#D4088C"/>
<path d="M363.292 230.481V317.424H363.274C363.2 318.461 362.7 319.517 361.849 320.498C363.811 319.109 364.884 317.48 364.996 315.906H365.014V229.074C364.385 229.463 363.792 229.925 363.292 230.481Z" fill="#6EE8FC"/>
<path d="M285.819 268.38L225.174 233.369C220.86 230.888 221.397 226.537 226.377 223.649L284.598 190.027C289.577 187.157 297.112 186.842 301.425 189.323L362.071 224.334C366.384 226.815 365.847 231.166 360.868 234.054L302.647 267.676C297.667 270.564 290.133 270.879 285.819 268.38Z" fill="url(#paint19_linear_1864_4081)"/>
<path d="M362.089 224.353L301.443 189.342C299.203 188.046 296.112 187.527 292.946 187.694C295.241 187.824 297.389 188.379 299.055 189.342L359.701 224.353C364.014 226.833 363.477 231.184 358.497 234.073L300.277 267.695C297.87 269.083 294.89 269.861 291.946 270.028C295.593 270.25 299.592 269.454 302.646 267.695L360.867 234.073C365.847 231.184 366.402 226.833 362.089 224.353Z" fill="#6EE8FC"/>
<path d="M287.819 258.29L242.667 232.221C239.465 230.37 239.854 227.13 243.575 224.982L286.93 199.951C290.632 197.803 296.242 197.581 299.463 199.432L344.614 225.501C347.817 227.352 347.428 230.592 343.707 232.74L300.351 257.771C296.63 259.9 291.021 260.141 287.819 258.29Z" fill="url(#paint20_linear_1864_4081)"/>
<path d="M289.429 250.18L256.718 231.295C254.385 229.944 254.681 227.611 257.365 226.056L288.781 207.912C291.465 206.357 295.538 206.19 297.852 207.541L330.563 226.426C332.895 227.778 332.599 230.111 329.915 231.666L298.499 249.81C295.815 251.347 291.743 251.513 289.429 250.18Z" fill="#6DE0F6"/>
<path d="M288.541 268.38L227.895 233.369C223.582 230.888 224.118 226.537 229.098 223.649L287.337 190.027C289.707 188.657 292.632 187.879 295.538 187.694C291.836 187.435 287.726 188.231 284.616 190.027L226.395 223.649C221.416 226.519 220.879 230.87 225.192 233.369L285.838 268.38C288.096 269.694 291.262 270.213 294.465 270.009C292.225 269.861 290.17 269.324 288.541 268.38Z" fill="#D4088C"/>
<path d="M257.347 228.611L288.762 210.467C291.446 208.912 295.519 208.745 297.833 210.096L330.562 229C331.081 229.296 331.451 229.648 331.71 230.036C332.488 228.759 332.154 227.37 330.562 226.445L297.833 207.541C295.5 206.19 291.446 206.375 288.762 207.912L257.347 226.056C255.255 227.259 254.644 228.944 255.551 230.277C255.921 229.666 256.495 229.092 257.347 228.611Z" fill="#267FE5"/>
<path d="M257.347 231.684L288.762 213.54C291.446 211.985 295.519 211.818 297.833 213.17L330.563 232.073C330.97 232.314 331.266 232.592 331.525 232.869C332.562 231.518 332.284 229.981 330.563 228.981L297.833 210.078C295.5 208.726 291.446 208.912 288.762 210.448L257.347 228.592C255.125 229.87 254.57 231.684 255.736 233.036C256.107 232.554 256.643 232.092 257.347 231.684Z" fill="#25BFEC"/>
<path d="M256.051 236.461C256.403 236.109 256.81 235.757 257.347 235.443L288.762 217.299C291.446 215.743 295.519 215.577 297.833 216.928L330.563 235.832C330.803 235.98 331.007 236.128 331.211 236.294C332.599 234.85 332.432 233.147 330.563 232.073L297.833 213.17C295.501 211.818 291.446 212.003 288.762 213.54L257.347 231.684C254.94 233.073 254.478 235.091 256.051 236.461Z" fill="#18D0F7"/>
<path d="M314.55 332.514L311.181 334.458C310.311 334.958 309.607 334.421 309.607 333.273V286.302C309.607 285.154 310.311 283.802 311.181 283.302L314.55 281.358C315.42 280.858 316.123 281.395 316.123 282.543V329.514C316.105 330.662 315.401 332.014 314.55 332.514Z" fill="#6DE0F6"/>
<path d="M314.55 281.358L313.735 281.821V327.941C313.735 329.088 313.032 330.44 312.162 330.94L309.607 332.421V333.273C309.607 334.421 310.311 334.958 311.181 334.458L314.55 332.514C315.42 332.014 316.123 330.681 316.123 329.514V282.543C316.105 281.395 315.401 280.858 314.55 281.358Z" fill="#267FE5"/>
<path d="M326.935 325.349L323.566 327.293C322.696 327.792 321.992 327.256 321.992 326.108V279.137C321.992 277.989 322.696 276.637 323.566 276.137L326.935 274.193C327.805 273.693 328.508 274.23 328.508 275.378V322.349C328.508 323.516 327.805 324.849 326.935 325.349Z" fill="#6DE0F6"/>
<path d="M339.318 318.202L335.949 320.146C335.079 320.646 334.376 320.109 334.376 318.961V271.99C334.376 270.842 335.079 269.491 335.949 268.991L339.318 267.047C340.188 266.547 340.892 267.084 340.892 268.232V315.203C340.892 316.351 340.188 317.702 339.318 318.202Z" fill="#6DE0F6"/>
<path d="M351.723 311.037L348.354 312.981C347.484 313.481 346.78 312.944 346.78 311.796V264.825C346.78 263.677 347.484 262.326 348.354 261.826L351.723 259.882C352.593 259.382 353.296 259.919 353.296 261.067V308.038C353.278 309.204 352.593 310.537 351.723 311.037Z" fill="#6DE0F6"/>
<path d="M326.935 274.193L326.12 274.656V320.776C326.12 321.923 325.417 323.275 324.547 323.775L321.992 325.256V326.108C321.992 327.256 322.696 327.792 323.566 327.293L326.935 325.349C327.805 324.849 328.508 323.516 328.508 322.349V275.378C328.508 274.23 327.805 273.693 326.935 274.193Z" fill="#267FE5"/>
<path d="M339.318 267.047L338.504 267.51V313.629C338.504 314.777 337.801 316.128 336.931 316.628L334.376 318.109V318.961C334.376 320.109 335.079 320.646 335.949 320.146L339.318 318.202C340.188 317.702 340.892 316.369 340.892 315.203V268.232C340.892 267.084 340.188 266.547 339.318 267.047Z" fill="#267FE5"/>
<path d="M351.723 259.882L350.908 260.345V306.464C350.908 307.612 350.205 308.963 349.335 309.463L346.78 310.944V311.796C346.78 312.944 347.484 313.481 348.354 312.981L351.723 311.037C352.593 310.537 353.296 309.204 353.296 308.038V261.067C353.278 259.919 352.593 259.382 351.723 259.882Z" fill="#267FE5"/>
<path d="M280.821 338.272C280.432 338.272 280.006 338.142 279.581 337.901L235.781 312.611C234.263 311.741 233.078 309.482 233.078 307.482V257.771C233.078 256.623 233.485 255.753 234.189 255.346C234.8 254.994 235.559 255.049 236.318 255.475L280.118 280.766C281.636 281.636 282.82 283.895 282.82 285.894V335.606C282.82 336.753 282.413 337.624 281.71 338.031C281.432 338.198 281.136 338.272 280.821 338.272ZM235.077 256.142C234.948 256.142 234.818 256.179 234.707 256.234C234.337 256.438 234.115 257.012 234.115 257.771V307.482C234.115 309.093 235.114 311.037 236.299 311.722L280.099 337.013C280.395 337.179 280.821 337.346 281.191 337.142C281.561 336.92 281.784 336.346 281.784 335.606V285.894C281.784 284.284 280.784 282.34 279.581 281.655L235.781 256.364C235.596 256.253 235.337 256.142 235.077 256.142Z" fill="#480689"/>
<path d="M241.648 267.528C241.648 268.88 240.686 269.435 239.519 268.75C238.335 268.065 237.391 266.417 237.391 265.066C237.391 263.714 238.353 263.159 239.519 263.844C240.686 264.51 241.648 266.158 241.648 267.528Z" fill="#6DE0F6"/>
<path d="M241.648 274.434C241.648 275.786 240.686 276.341 239.519 275.656C238.335 274.971 237.391 273.323 237.391 271.972C237.391 270.62 238.353 270.065 239.519 270.75C240.686 271.435 241.648 273.082 241.648 274.434Z" fill="#6DE0F6"/>
<path d="M241.648 281.358C241.648 282.71 240.686 283.265 239.519 282.58C238.335 281.895 237.391 280.248 237.391 278.896C237.391 277.545 238.353 276.989 239.519 277.674C240.686 278.341 241.648 279.988 241.648 281.358Z" fill="#6DE0F6"/>
<path d="M240.575 281.747C239.39 281.062 238.446 279.415 238.446 278.063C238.446 277.804 238.483 277.6 238.557 277.396C237.872 277.396 237.391 277.952 237.391 278.915C237.391 280.266 238.353 281.933 239.519 282.599C240.482 283.154 241.278 282.877 241.537 282.044C241.259 282.025 240.926 281.951 240.575 281.747Z" fill="#267FE5"/>
<path d="M240.575 274.823C239.39 274.138 238.446 272.49 238.446 271.139C238.446 270.879 238.483 270.676 238.557 270.472C237.872 270.472 237.391 271.027 237.391 271.99C237.391 273.342 238.353 275.008 239.519 275.675C240.482 276.23 241.278 275.952 241.537 275.119C241.259 275.101 240.926 275.027 240.575 274.823Z" fill="#267FE5"/>
<path d="M240.575 267.899C239.39 267.213 238.446 265.566 238.446 264.214C238.446 263.955 238.483 263.751 238.557 263.548C237.872 263.548 237.391 264.103 237.391 265.066C237.391 266.417 238.353 268.084 239.519 268.75C240.482 269.306 241.278 269.028 241.537 268.195C241.259 268.176 240.926 268.102 240.575 267.899Z" fill="#267FE5"/>
<path d="M276.878 313.462L275.471 312.648C275.027 312.389 274.675 311.722 274.675 311.13V304.353C274.675 303.761 275.027 303.502 275.471 303.761L276.878 304.575C277.322 304.835 277.674 305.501 277.674 306.094V312.87C277.674 313.444 277.322 313.722 276.878 313.462Z" fill="#480689"/>
<path opacity="0.2" d="M332.118 65.0177H255.182V229.037C255.182 229.888 255.7 230.685 256.737 231.296L289.429 250.162C291.762 251.495 295.816 251.328 298.5 249.791L329.878 231.666C331.267 230.87 332.007 229.851 332.081 228.87H332.1V65.0177H332.118Z" fill="url(#paint21_linear_1864_4081)"/>
<path opacity="0.2" d="M328.471 80.6624H258.847V229.111C258.847 229.87 259.309 230.61 260.254 231.166L289.836 248.255C291.946 249.477 295.612 249.31 298.037 247.921L326.435 231.518C327.693 230.796 328.36 229.87 328.434 228.981H328.452V80.6624H328.471Z" fill="url(#paint22_linear_1864_4081)"/>
<path d="M278.265 215.299C278.265 216.873 276.988 218.169 275.396 218.169C273.822 218.169 272.526 216.891 272.526 215.299C272.526 213.725 273.804 212.429 275.396 212.429C276.988 212.429 278.265 213.707 278.265 215.299Z" fill="#6DE0F6"/>
<path d="M296.999 200.969C299.698 200.969 301.886 198.781 301.886 196.081C301.886 193.382 299.698 191.193 296.999 191.193C294.3 191.193 292.112 193.382 292.112 196.081C292.112 198.781 294.3 200.969 296.999 200.969Z" fill="#6DE0F6"/>
<path d="M292.242 192.971C292.242 193.656 291.687 194.23 290.983 194.23C290.298 194.23 289.725 193.674 289.725 192.971C289.725 192.286 290.28 191.712 290.983 191.712C291.668 191.712 292.242 192.267 292.242 192.971Z" fill="#6DE0F6"/>
<path d="M312.346 170.846C313.695 170.846 314.789 169.752 314.789 168.402C314.789 167.052 313.695 165.958 312.346 165.958C310.996 165.958 309.902 167.052 309.902 168.402C309.902 169.752 310.996 170.846 312.346 170.846Z" fill="#6DE0F6"/>
<path d="M299.442 149.351C300.393 149.351 301.164 148.58 301.164 147.629C301.164 146.678 300.393 145.907 299.442 145.907C298.491 145.907 297.721 146.678 297.721 147.629C297.721 148.58 298.491 149.351 299.442 149.351Z" fill="#6DE0F6"/>
<path d="M281.412 134.391C281.412 136.113 280.005 137.52 278.284 137.52C276.562 137.52 275.155 136.113 275.155 134.391C275.155 132.669 276.562 131.262 278.284 131.262C280.005 131.244 281.412 132.651 281.412 134.391Z" fill="#6DE0F6"/>
<path d="M289.206 108.156C289.206 109.119 288.428 109.897 287.466 109.897C286.503 109.897 285.726 109.119 285.726 108.156C285.726 107.194 286.503 106.416 287.466 106.416C288.428 106.416 289.206 107.194 289.206 108.156Z" fill="#6DE0F6"/>
<path d="M300.664 121.857C301.799 121.857 302.719 120.937 302.719 119.802C302.719 118.667 301.799 117.747 300.664 117.747C299.529 117.747 298.609 118.667 298.609 119.802C298.609 120.937 299.529 121.857 300.664 121.857Z" fill="#6DE0F6"/>
<path d="M304.256 115.506C304.256 116.062 303.812 116.506 303.256 116.506C302.701 116.506 302.257 116.062 302.257 115.506C302.257 114.951 302.701 114.507 303.256 114.507C303.812 114.507 304.256 114.951 304.256 115.506Z" fill="#6DE0F6"/>
<path d="M317.177 94.1039C317.177 95.6961 315.881 96.9736 314.308 96.9736C312.716 96.9736 311.438 95.6776 311.438 94.1039C311.438 92.5116 312.734 91.2341 314.308 91.2341C315.881 91.2341 317.177 92.5301 317.177 94.1039Z" fill="#6DE0F6"/>
<path d="M180.67 489.645L120.024 454.635C115.711 452.154 116.248 447.803 121.227 444.915L179.448 411.292C184.428 408.423 191.962 408.108 196.276 410.589L256.922 445.6C261.235 448.081 260.698 452.431 255.718 455.32L197.498 488.942C192.518 491.83 184.983 492.145 180.67 489.645Z" fill="url(#paint23_linear_1864_4081)"/>
<path d="M187.89 499.365C184.539 499.365 181.318 498.68 178.93 497.31L107.491 456.06C105.048 454.653 103.696 452.672 103.696 450.469C103.696 447.877 105.603 445.285 108.898 443.378L177.486 403.776C183.539 400.276 192.758 399.906 198.016 402.961L269.454 444.211C271.898 445.618 273.249 447.599 273.249 449.802C273.249 452.394 271.342 454.986 268.047 456.893L199.46 496.496C196.165 498.384 191.907 499.365 187.89 499.365ZM179.633 496.07C184.502 498.884 193.073 498.514 198.738 495.255L267.325 455.653C270.176 454.005 271.824 451.876 271.824 449.802C271.824 448.136 270.732 446.599 268.751 445.451L197.312 404.201C192.444 401.387 183.872 401.757 178.208 405.016L109.62 444.6C106.769 446.248 105.122 448.377 105.122 450.45C105.122 452.117 106.214 453.653 108.195 454.801L179.633 496.07Z" fill="url(#paint24_linear_1864_4081)"/>
<path d="M259.847 294.189H229.765L196.276 274.86C191.963 272.379 184.428 272.675 179.449 275.563L147.182 294.189H117.137V381.225H117.155C117.026 382.91 117.97 384.539 120.043 385.724L180.689 420.735C185.002 423.216 192.537 422.919 197.517 420.031L255.737 386.409C258.329 384.909 259.699 383.021 259.828 381.206H259.847V294.189Z" fill="url(#paint25_linear_1864_4081)"/>
<path d="M255.719 385.039L197.498 418.661C192.518 421.531 184.984 421.846 180.67 419.365L120.025 384.354C117.951 383.151 117.007 381.54 117.137 379.855H117.118V381.244H117.137C117.007 382.928 117.951 384.558 120.025 385.743L180.67 420.753C184.984 423.234 192.518 422.938 197.498 420.05L255.719 386.428C258.31 384.928 259.68 383.04 259.81 381.225H259.828V379.837H259.81C259.699 381.651 258.31 383.539 255.719 385.039Z" fill="url(#paint26_linear_1864_4081)"/>
<path d="M119.043 382.614L119.025 295.577H149.089L181.355 276.933C186.335 274.064 193.87 273.749 198.183 276.23L231.671 295.559H259.847V294.17H229.765L196.276 274.841C191.963 272.36 184.428 272.657 179.449 275.545L147.182 294.189H117.137V381.225H117.155C117.026 382.91 117.97 384.539 120.043 385.724L120.376 385.928C119.395 384.928 118.951 383.78 119.043 382.614Z" fill="#D4088C"/>
<path d="M258.144 295.8V382.743H258.126C258.052 383.78 257.552 384.835 256.7 385.817C258.662 384.428 259.736 382.799 259.847 381.225H259.866V294.393C259.218 294.8 258.644 295.244 258.144 295.8Z" fill="#6EE8FC"/>
<path d="M180.67 333.717L120.024 298.706C115.711 296.225 116.248 291.875 121.227 288.986L179.448 255.364C184.428 252.494 191.962 252.18 196.276 254.661L256.922 289.671C261.235 292.152 260.698 296.503 255.718 299.391L197.498 333.014C192.518 335.883 184.983 336.198 180.67 333.717Z" fill="url(#paint27_linear_1864_4081)"/>
<path d="M256.939 289.671L196.294 254.661C194.054 253.365 190.962 252.846 187.797 253.013C190.092 253.143 192.239 253.698 193.906 254.661L254.551 289.671C258.865 292.152 258.328 296.503 253.348 299.391L195.127 333.014C192.721 334.402 189.74 335.18 186.797 335.346C190.444 335.569 194.442 334.772 197.497 333.014L255.718 299.391C260.697 296.522 261.253 292.171 256.939 289.671Z" fill="#6EE8FC"/>
<path d="M182.669 323.608L137.518 297.54C134.315 295.689 134.704 292.449 138.425 290.301L181.781 265.269C185.483 263.122 191.092 262.9 194.313 264.751L239.465 290.819C242.667 292.671 242.278 295.911 238.557 298.058L195.202 323.09C191.481 325.238 185.872 325.46 182.669 323.608Z" fill="url(#paint28_linear_1864_4081)"/>
<path d="M184.261 315.499L151.55 296.614C149.217 295.263 149.513 292.93 152.197 291.375L183.613 273.231C186.297 271.675 190.37 271.509 192.684 272.86L225.395 291.745C227.727 293.097 227.431 295.429 224.747 296.985L193.332 315.129C190.647 316.684 186.593 316.851 184.261 315.499Z" fill="#6DE0F6"/>
<path d="M183.391 333.717L122.745 298.706C118.432 296.225 118.969 291.875 123.949 288.986L182.169 255.364C184.539 253.994 187.464 253.217 190.37 253.031C186.668 252.772 182.558 253.568 179.448 255.364L121.227 288.986C116.248 291.856 115.711 296.207 120.024 298.706L180.67 333.717C182.928 335.032 186.094 335.55 189.297 335.346C187.075 335.18 185.002 334.643 183.391 333.717Z" fill="#D4088C"/>
<path d="M152.198 293.93L183.613 275.786C186.298 274.23 190.37 274.064 192.684 275.415L225.414 294.319C225.932 294.615 226.303 294.967 226.562 295.355C227.339 294.078 227.006 292.689 225.414 291.764L192.684 272.86C190.352 271.509 186.298 271.694 183.613 273.231L152.198 291.375C150.106 292.578 149.496 294.263 150.403 295.596C150.754 294.985 151.347 294.411 152.198 293.93Z" fill="#267FE5"/>
<path d="M152.198 297.003L183.614 278.859C186.298 277.304 190.371 277.137 192.685 278.489L225.414 297.392C225.821 297.633 226.118 297.91 226.377 298.188C227.413 296.836 227.136 295.3 225.414 294.3L192.685 275.397C190.352 274.045 186.298 274.23 183.614 275.767L152.198 293.93C149.977 295.207 149.422 297.022 150.588 298.373C150.958 297.892 151.495 297.429 152.198 297.003Z" fill="#25BFEC"/>
<path d="M150.903 301.78C151.254 301.428 151.662 301.076 152.199 300.762L183.614 282.617C186.298 281.062 190.371 280.896 192.685 282.247L225.414 301.15C225.655 301.298 225.858 301.447 226.062 301.613C227.45 300.169 227.284 298.466 225.414 297.392L192.685 278.489C190.352 277.137 186.298 277.322 183.614 278.859L152.199 297.003C149.792 298.392 149.329 300.41 150.903 301.78Z" fill="#18D0F7"/>
<path d="M209.382 397.833L206.013 399.777C205.143 400.276 204.439 399.739 204.439 398.592V351.621C204.439 350.473 205.143 349.121 206.013 348.621L209.382 346.677C210.252 346.177 210.955 346.714 210.955 347.862V394.833C210.955 396 210.252 397.333 209.382 397.833Z" fill="#6DE0F6"/>
<path d="M209.382 346.677L208.567 347.14V393.259C208.567 394.407 207.864 395.759 206.994 396.259L204.439 397.74V398.592C204.439 399.739 205.143 400.276 206.013 399.777L209.382 397.833C210.252 397.333 210.955 396 210.955 394.833V347.862C210.955 346.714 210.252 346.177 209.382 346.677Z" fill="#267FE5"/>
<path d="M221.785 390.686L218.416 392.63C217.546 393.13 216.843 392.593 216.843 391.445V344.474C216.843 343.326 217.546 341.975 218.416 341.475L221.785 339.531C222.655 339.031 223.359 339.568 223.359 340.716V387.687C223.359 388.834 222.655 390.186 221.785 390.686Z" fill="#6DE0F6"/>
<path d="M234.17 383.521L230.801 385.465C229.931 385.965 229.228 385.428 229.228 384.28V337.309C229.228 336.161 229.931 334.809 230.801 334.31L234.17 332.366C235.04 331.866 235.743 332.403 235.743 333.55V380.522C235.743 381.688 235.04 383.021 234.17 383.521Z" fill="#6DE0F6"/>
<path d="M246.573 376.374L243.204 378.318C242.334 378.818 241.631 378.281 241.631 377.133V330.162C241.631 329.014 242.334 327.663 243.204 327.163L246.573 325.219C247.443 324.719 248.147 325.256 248.147 326.404V373.375C248.128 374.523 247.425 375.874 246.573 376.374Z" fill="#6DE0F6"/>
<path d="M221.785 339.531L220.971 339.993V386.113C220.971 387.261 220.267 388.612 219.397 389.112L216.843 390.593V391.445C216.843 392.593 217.546 393.13 218.416 392.63L221.785 390.686C222.655 390.186 223.359 388.853 223.359 387.687V340.716C223.359 339.549 222.655 339.031 221.785 339.531Z" fill="#267FE5"/>
<path d="M234.17 332.366L233.356 332.828V378.948C233.356 380.096 232.652 381.447 231.782 381.947L229.228 383.428V384.28C229.228 385.428 229.931 385.965 230.801 385.465L234.17 383.521C235.04 383.021 235.743 381.688 235.743 380.522V333.55C235.743 332.403 235.04 331.866 234.17 332.366Z" fill="#267FE5"/>
<path d="M246.573 325.219L245.759 325.682V371.801C245.759 372.949 245.055 374.301 244.185 374.801L241.631 376.282V377.133C241.631 378.281 242.334 378.818 243.204 378.318L246.573 376.374C247.443 375.874 248.147 374.541 248.147 373.375V326.404C248.128 325.237 247.425 324.719 246.573 325.219Z" fill="#267FE5"/>
<path d="M175.672 403.59C175.283 403.59 174.857 403.461 174.431 403.22L130.631 377.93C129.113 377.059 127.929 374.801 127.929 372.801V323.09C127.929 321.942 128.336 321.072 129.039 320.665C129.65 320.313 130.409 320.35 131.168 320.794L174.968 346.085C176.486 346.955 177.671 349.214 177.671 351.213V400.924C177.671 402.072 177.264 402.942 176.56 403.35C176.283 403.516 175.986 403.59 175.672 403.59ZM129.928 321.479C129.798 321.479 129.669 321.516 129.558 321.572C129.188 321.775 128.965 322.349 128.965 323.108V372.82C128.965 374.43 129.965 376.374 131.15 377.059L174.95 402.35C175.246 402.517 175.69 402.683 176.042 402.48C176.412 402.257 176.634 401.684 176.634 400.943V351.232C176.634 349.621 175.635 347.677 174.431 346.992L130.631 321.701C130.446 321.59 130.187 321.479 129.928 321.479Z" fill="#480689"/>
<path d="M136.499 332.847C136.499 334.198 135.536 334.754 134.37 334.069C133.185 333.384 132.241 331.736 132.241 330.384C132.241 329.033 133.204 328.477 134.37 329.163C135.536 329.829 136.499 331.495 136.499 332.847Z" fill="#6DE0F6"/>
<path d="M136.499 339.771C136.499 341.123 135.536 341.678 134.37 340.993C133.185 340.308 132.241 338.66 132.241 337.309C132.241 335.957 133.204 335.402 134.37 336.087C135.536 336.753 136.499 338.401 136.499 339.771Z" fill="#6DE0F6"/>
<path d="M136.499 346.677C136.499 348.029 135.536 348.584 134.37 347.899C133.185 347.214 132.241 345.566 132.241 344.215C132.241 342.863 133.204 342.308 134.37 342.993C135.536 343.659 136.499 345.326 136.499 346.677Z" fill="#6DE0F6"/>
<path d="M135.425 347.066C134.24 346.381 133.296 344.733 133.296 343.382C133.296 343.122 133.333 342.919 133.407 342.715C132.722 342.715 132.241 343.271 132.241 344.233C132.241 345.585 133.204 347.251 134.37 347.918C135.333 348.473 136.129 348.195 136.388 347.362C136.092 347.344 135.777 347.27 135.425 347.066Z" fill="#267FE5"/>
<path d="M135.425 340.142C134.24 339.457 133.296 337.809 133.296 336.457C133.296 336.198 133.333 335.994 133.407 335.791C132.722 335.791 132.241 336.346 132.241 337.309C132.241 338.66 133.204 340.327 134.37 340.993C135.333 341.549 136.129 341.271 136.388 340.438C136.092 340.438 135.777 340.345 135.425 340.142Z" fill="#267FE5"/>
<path d="M135.425 333.236C134.24 332.551 133.296 330.903 133.296 329.551C133.296 329.292 133.333 329.088 133.407 328.885C132.722 328.885 132.241 329.44 132.241 330.403C132.241 331.754 133.204 333.421 134.37 334.087C135.333 334.643 136.129 334.365 136.388 333.532C136.092 333.513 135.777 333.421 135.425 333.236Z" fill="#267FE5"/>
<path d="M171.728 378.781L170.321 377.967C169.877 377.707 169.525 377.041 169.525 376.448V369.672C169.525 369.08 169.877 368.82 170.321 369.08L171.728 369.894C172.173 370.153 172.524 370.82 172.524 371.412V378.189C172.524 378.763 172.154 379.04 171.728 378.781Z" fill="#480689"/>
<path opacity="0.25" d="M226.969 130.336H150.051V294.355C150.051 295.207 150.569 296.003 151.606 296.614L184.298 315.48C186.631 316.813 190.685 316.647 193.369 315.11L224.747 296.984C226.136 296.188 226.876 295.17 226.95 294.189H226.969V130.336Z" fill="url(#paint29_linear_1864_4081)"/>
<path opacity="0.25" d="M223.322 145.981H153.697V294.43C153.697 295.189 154.16 295.929 155.104 296.485L184.687 313.573C186.797 314.795 190.462 314.629 192.888 313.24L221.285 296.836C222.544 296.114 223.21 295.189 223.284 294.3H223.303V145.981H223.322Z" fill="url(#paint30_linear_1864_4081)"/>
<path d="M170.266 283.488C171.85 283.488 173.135 282.203 173.135 280.618C173.135 279.033 171.85 277.748 170.266 277.748C168.681 277.748 167.396 279.033 167.396 280.618C167.396 282.203 168.681 283.488 170.266 283.488Z" fill="#6DE0F6"/>
<path d="M191.851 266.288C194.55 266.288 196.738 264.099 196.738 261.4C196.738 258.7 194.55 256.512 191.851 256.512C189.152 256.512 186.964 258.7 186.964 261.4C186.964 264.099 189.152 266.288 191.851 266.288Z" fill="#6DE0F6"/>
<path d="M185.835 259.548C186.53 259.548 187.094 258.985 187.094 258.289C187.094 257.594 186.53 257.031 185.835 257.031C185.14 257.031 184.576 257.594 184.576 258.289C184.576 258.985 185.14 259.548 185.835 259.548Z" fill="#6DE0F6"/>
<path d="M207.179 236.165C208.528 236.165 209.622 235.071 209.622 233.721C209.622 232.371 208.528 231.277 207.179 231.277C205.829 231.277 204.735 232.371 204.735 233.721C204.735 235.071 205.829 236.165 207.179 236.165Z" fill="#6DE0F6"/>
<path d="M194.295 214.67C195.246 214.67 196.016 213.899 196.016 212.948C196.016 211.997 195.246 211.226 194.295 211.226C193.344 211.226 192.573 211.997 192.573 212.948C192.573 213.899 193.344 214.67 194.295 214.67Z" fill="#6DE0F6"/>
<path d="M173.117 202.839C174.844 202.839 176.245 201.438 176.245 199.71C176.245 197.982 174.844 196.581 173.117 196.581C171.389 196.581 169.988 197.982 169.988 199.71C169.988 201.438 171.389 202.839 173.117 202.839Z" fill="#6DE0F6"/>
<path d="M190.407 183.843C193.903 183.843 196.738 181.008 196.738 177.511C196.738 174.014 193.903 171.179 190.407 171.179C186.911 171.179 184.076 174.014 184.076 177.511C184.076 181.008 186.911 183.843 190.407 183.843Z" fill="#6DE0F6"/>
<path d="M184.057 173.493C184.057 174.456 183.28 175.234 182.317 175.234C181.355 175.234 180.577 174.456 180.577 173.493C180.577 172.531 181.355 171.753 182.317 171.753C183.28 171.735 184.057 172.531 184.057 173.493Z" fill="#6DE0F6"/>
<path d="M197.57 185.121C197.57 186.25 196.645 187.176 195.516 187.176C194.387 187.176 193.461 186.25 193.461 185.121C193.461 183.991 194.387 183.065 195.516 183.065C196.645 183.065 197.57 183.991 197.57 185.121Z" fill="#6DE0F6"/>
<path d="M198.108 181.825C198.66 181.825 199.108 181.377 199.108 180.825C199.108 180.273 198.66 179.825 198.108 179.825C197.556 179.825 197.108 180.273 197.108 180.825C197.108 181.377 197.556 181.825 198.108 181.825Z" fill="#6DE0F6"/>
<path d="M212.03 159.441C212.03 161.033 210.734 162.311 209.16 162.311C207.568 162.311 206.291 161.015 206.291 159.441C206.291 157.849 207.587 156.571 209.16 156.571C210.734 156.553 212.03 157.849 212.03 159.441Z" fill="#6DE0F6"/>
<defs>
<linearGradient id="paint0_linear_1864_4081" x1="105.551" y1="320.144" x2="275.116" y2="320.144" gradientUnits="userSpaceOnUse">
<stop stop-color="#D4088C"/>
<stop offset="0.2258" stop-color="#D4088C"/>
<stop offset="0.5108" stop-color="#6EE1F8"/>
<stop offset="0.7796" stop-color="#6EE8FC"/>
<stop offset="1" stop-color="#6EE8FC"/>
</linearGradient>
<linearGradient id="paint1_linear_1864_4081" x1="105.476" y1="217.821" x2="279.363" y2="217.821" gradientUnits="userSpaceOnUse">
<stop stop-color="#A31FA9"/>
<stop offset="0.0668" stop-color="#8B17A0"/>
<stop offset="0.1494" stop-color="#740F98"/>
<stop offset="0.2393" stop-color="#640A92"/>
<stop offset="0.3408" stop-color="#5B078F"/>
<stop offset="0.4785" stop-color="#58068E"/>
<stop offset="0.6264" stop-color="#4D22A3"/>
<stop offset="0.9436" stop-color="#3168DA"/>
<stop offset="1" stop-color="#2C75E4"/>
</linearGradient>
<linearGradient id="paint2_linear_1864_4081" x1="105.476" y1="271.15" x2="279.363" y2="271.15" gradientUnits="userSpaceOnUse">
<stop stop-color="#D4088C"/>
<stop offset="0.2258" stop-color="#D4088C"/>
<stop offset="0.5108" stop-color="#6EE1F8"/>
<stop offset="0.7796" stop-color="#6EE8FC"/>
<stop offset="1" stop-color="#6EE8FC"/>
</linearGradient>
<linearGradient id="paint3_linear_1864_4081" x1="117.806" y1="164.207" x2="251.675" y2="197.329" gradientUnits="userSpaceOnUse">
<stop stop-color="#8D139B"/>
<stop offset="0.1651" stop-color="#851BA1"/>
<stop offset="0.4284" stop-color="#6E33B2"/>
<stop offset="0.7551" stop-color="#4958CD"/>
<stop offset="1" stop-color="#2979E4"/>
</linearGradient>
<linearGradient id="paint4_linear_1864_4081" x1="136.338" y1="164.207" x2="236.003" y2="188.866" gradientUnits="userSpaceOnUse">
<stop stop-color="#630692"/>
<stop offset="0.2262" stop-color="#5B0E94"/>
<stop offset="0.587" stop-color="#432399"/>
<stop offset="1" stop-color="#2142A1"/>
</linearGradient>
<linearGradient id="paint5_linear_1864_4081" x1="190.36" y1="186.391" x2="190.36" y2="0.365556" gradientUnits="userSpaceOnUse">
<stop stop-color="#70E8FC"/>
<stop offset="0.994792" stop-color="#13113D" stop-opacity="0"/>
</linearGradient>
<linearGradient id="paint6_linear_1864_4081" x1="190.36" y1="184.407" x2="190.36" y2="16.0102" gradientUnits="userSpaceOnUse">
<stop stop-color="#70E8FC"/>
<stop offset="0.994792" stop-color="#D5D3FF" stop-opacity="0"/>
</linearGradient>
<linearGradient id="paint7_linear_1864_4081" x1="12.6445" y1="385.477" x2="146.491" y2="418.59" gradientUnits="userSpaceOnUse">
<stop stop-color="#630692"/>
<stop offset="0.2262" stop-color="#5B0E94"/>
<stop offset="0.587" stop-color="#432399"/>
<stop offset="1" stop-color="#2142A1"/>
</linearGradient>
<linearGradient id="paint8_linear_1864_4081" x1="0.398438" y1="385.469" x2="169.965" y2="385.469" gradientUnits="userSpaceOnUse">
<stop stop-color="#D4088C"/>
<stop offset="0.2258" stop-color="#D4088C"/>
<stop offset="0.5108" stop-color="#6EE1F8"/>
<stop offset="0.7796" stop-color="#6EE8FC"/>
<stop offset="1" stop-color="#6EE8FC"/>
</linearGradient>
<linearGradient id="paint9_linear_1864_4081" x1="0.324615" y1="283.145" x2="174.211" y2="283.145" gradientUnits="userSpaceOnUse">
<stop stop-color="#A31FA9"/>
<stop offset="0.0668" stop-color="#8B17A0"/>
<stop offset="0.1494" stop-color="#740F98"/>
<stop offset="0.2393" stop-color="#640A92"/>
<stop offset="0.3408" stop-color="#5B078F"/>
<stop offset="0.4785" stop-color="#58068E"/>
<stop offset="0.6264" stop-color="#4D22A3"/>
<stop offset="0.9436" stop-color="#3168DA"/>
<stop offset="1" stop-color="#2C75E4"/>
</linearGradient>
<linearGradient id="paint10_linear_1864_4081" x1="0.324615" y1="336.475" x2="174.211" y2="336.475" gradientUnits="userSpaceOnUse">
<stop stop-color="#D4088C"/>
<stop offset="0.2258" stop-color="#D4088C"/>
<stop offset="0.5108" stop-color="#6EE1F8"/>
<stop offset="0.7796" stop-color="#6EE8FC"/>
<stop offset="1" stop-color="#6EE8FC"/>
</linearGradient>
<linearGradient id="paint11_linear_1864_4081" x1="12.6538" y1="229.532" x2="146.523" y2="262.653" gradientUnits="userSpaceOnUse">
<stop stop-color="#8D139B"/>
<stop offset="0.1651" stop-color="#851BA1"/>
<stop offset="0.4284" stop-color="#6E33B2"/>
<stop offset="0.7551" stop-color="#4958CD"/>
<stop offset="1" stop-color="#2979E4"/>
</linearGradient>
<linearGradient id="paint12_linear_1864_4081" x1="31.185" y1="229.532" x2="130.85" y2="254.19" gradientUnits="userSpaceOnUse">
<stop stop-color="#630692"/>
<stop offset="0.2262" stop-color="#5B0E94"/>
<stop offset="0.587" stop-color="#432399"/>
<stop offset="1" stop-color="#2142A1"/>
</linearGradient>
<linearGradient id="paint13_linear_1864_4081" x1="85.2108" y1="251.757" x2="85.2108" y2="65.6901" gradientUnits="userSpaceOnUse">
<stop offset="0.0108" stop-color="#25BFEC"/>
<stop offset="1" stop-color="#3F097A" stop-opacity="0.24"/>
</linearGradient>
<linearGradient id="paint14_linear_1864_4081" x1="85.2106" y1="249.725" x2="85.2106" y2="81.329" gradientUnits="userSpaceOnUse">
<stop stop-color="#70E8FC"/>
<stop offset="0.994792" stop-color="#D5D3FF" stop-opacity="0"/>
</linearGradient>
<linearGradient id="paint15_linear_1864_4081" x1="221.092" y1="384.804" x2="354.936" y2="417.922" gradientUnits="userSpaceOnUse">
<stop stop-color="#630692"/>
<stop offset="0.2262" stop-color="#5B0E94"/>
<stop offset="0.587" stop-color="#432399"/>
<stop offset="1" stop-color="#2142A1"/>
</linearGradient>
<linearGradient id="paint16_linear_1864_4081" x1="208.848" y1="384.796" x2="378.414" y2="384.796" gradientUnits="userSpaceOnUse">
<stop stop-color="#D4088C"/>
<stop offset="0.2258" stop-color="#D4088C"/>
<stop offset="0.5108" stop-color="#6EE1F8"/>
<stop offset="0.7796" stop-color="#6EE8FC"/>
<stop offset="1" stop-color="#6EE8FC"/>
</linearGradient>
<linearGradient id="paint17_linear_1864_4081" x1="208.774" y1="282.473" x2="382.66" y2="282.473" gradientUnits="userSpaceOnUse">
<stop stop-color="#A31FA9"/>
<stop offset="0.0668" stop-color="#8B17A0"/>
<stop offset="0.1494" stop-color="#740F98"/>
<stop offset="0.2393" stop-color="#640A92"/>
<stop offset="0.3408" stop-color="#5B078F"/>
<stop offset="0.4785" stop-color="#58068E"/>
<stop offset="0.6264" stop-color="#4D22A3"/>
<stop offset="0.9436" stop-color="#3168DA"/>
<stop offset="1" stop-color="#2C75E4"/>
</linearGradient>
<linearGradient id="paint18_linear_1864_4081" x1="208.774" y1="335.802" x2="382.66" y2="335.802" gradientUnits="userSpaceOnUse">
<stop stop-color="#D4088C"/>
<stop offset="0.2258" stop-color="#D4088C"/>
<stop offset="0.5108" stop-color="#6EE1F8"/>
<stop offset="0.7796" stop-color="#6EE8FC"/>
<stop offset="1" stop-color="#6EE8FC"/>
</linearGradient>
<linearGradient id="paint19_linear_1864_4081" x1="221.103" y1="228.86" x2="354.972" y2="261.981" gradientUnits="userSpaceOnUse">
<stop stop-color="#8D139B"/>
<stop offset="0.1651" stop-color="#851BA1"/>
<stop offset="0.4284" stop-color="#6E33B2"/>
<stop offset="0.7551" stop-color="#4958CD"/>
<stop offset="1" stop-color="#2979E4"/>
</linearGradient>
<linearGradient id="paint20_linear_1864_4081" x1="239.634" y1="228.859" x2="339.299" y2="253.518" gradientUnits="userSpaceOnUse">
<stop stop-color="#630692"/>
<stop offset="0.2262" stop-color="#5B0E94"/>
<stop offset="0.587" stop-color="#432399"/>
<stop offset="1" stop-color="#2142A1"/>
</linearGradient>
<linearGradient id="paint21_linear_1864_4081" x1="293.649" y1="251.043" x2="293.649" y2="65.0179" gradientUnits="userSpaceOnUse">
<stop stop-color="#70E8FC"/>
<stop offset="0.994792" stop-color="#13113D" stop-opacity="0"/>
</linearGradient>
<linearGradient id="paint22_linear_1864_4081" x1="293.658" y1="249.059" x2="293.658" y2="80.6625" gradientUnits="userSpaceOnUse">
<stop stop-color="#70E8FC"/>
<stop offset="0.994792" stop-color="#D5D3FF" stop-opacity="0"/>
</linearGradient>
<linearGradient id="paint23_linear_1864_4081" x1="115.942" y1="450.13" x2="249.789" y2="483.242" gradientUnits="userSpaceOnUse">
<stop stop-color="#630692"/>
<stop offset="0.2262" stop-color="#5B0E94"/>
<stop offset="0.587" stop-color="#432399"/>
<stop offset="1" stop-color="#2142A1"/>
</linearGradient>
<linearGradient id="paint24_linear_1864_4081" x1="103.696" y1="450.121" x2="273.263" y2="450.121" gradientUnits="userSpaceOnUse">
<stop stop-color="#D4088C"/>
<stop offset="0.2258" stop-color="#D4088C"/>
<stop offset="0.5108" stop-color="#6EE1F8"/>
<stop offset="0.7796" stop-color="#6EE8FC"/>
<stop offset="1" stop-color="#6EE8FC"/>
</linearGradient>
<linearGradient id="paint25_linear_1864_4081" x1="103.622" y1="347.798" x2="277.508" y2="347.798" gradientUnits="userSpaceOnUse">
<stop stop-color="#A31FA9"/>
<stop offset="0.0668" stop-color="#8B17A0"/>
<stop offset="0.1494" stop-color="#740F98"/>
<stop offset="0.2393" stop-color="#640A92"/>
<stop offset="0.3408" stop-color="#5B078F"/>
<stop offset="0.4785" stop-color="#58068E"/>
<stop offset="0.6264" stop-color="#4D22A3"/>
<stop offset="0.9436" stop-color="#3168DA"/>
<stop offset="1" stop-color="#2C75E4"/>
</linearGradient>
<linearGradient id="paint26_linear_1864_4081" x1="103.622" y1="401.127" x2="277.508" y2="401.127" gradientUnits="userSpaceOnUse">
<stop stop-color="#D4088C"/>
<stop offset="0.2258" stop-color="#D4088C"/>
<stop offset="0.5108" stop-color="#6EE1F8"/>
<stop offset="0.7796" stop-color="#6EE8FC"/>
<stop offset="1" stop-color="#6EE8FC"/>
</linearGradient>
<linearGradient id="paint27_linear_1864_4081" x1="115.951" y1="294.184" x2="249.82" y2="327.305" gradientUnits="userSpaceOnUse">
<stop stop-color="#8D139B"/>
<stop offset="0.1651" stop-color="#851BA1"/>
<stop offset="0.4284" stop-color="#6E33B2"/>
<stop offset="0.7551" stop-color="#4958CD"/>
<stop offset="1" stop-color="#2979E4"/>
</linearGradient>
<linearGradient id="paint28_linear_1864_4081" x1="134.482" y1="294.184" x2="234.147" y2="318.843" gradientUnits="userSpaceOnUse">
<stop stop-color="#630692"/>
<stop offset="0.2262" stop-color="#5B0E94"/>
<stop offset="0.587" stop-color="#432399"/>
<stop offset="1" stop-color="#2142A1"/>
</linearGradient>
<linearGradient id="paint29_linear_1864_4081" x1="188.509" y1="316.362" x2="188.509" y2="130.337" gradientUnits="userSpaceOnUse">
<stop stop-color="#70E8FC"/>
<stop offset="0.994792" stop-color="#13113D" stop-opacity="0"/>
</linearGradient>
<linearGradient id="paint30_linear_1864_4081" x1="188.508" y1="314.378" x2="188.508" y2="145.981" gradientUnits="userSpaceOnUse">
<stop stop-color="#70E8FC"/>
<stop offset="0.994792" stop-color="#13113D" stop-opacity="0"/>
</linearGradient>
</defs>
</svg>
