<svg width="81" height="80" viewBox="0 0 81 80" fill="none" xmlns="http://www.w3.org/2000/svg">
<circle cx="40.5" cy="40" r="40" fill="#FAEFE1"/>
<path d="M60.5087 60C55.7944 60 51.0744 60 46.3601 60C46.3601 57.2686 46.3601 54.5371 46.3601 51.7657C44.7773 51.7657 43.2344 51.7657 41.6573 51.7657C41.6573 48.2114 41.6573 44.7029 41.6573 41.1943C40.863 41.1943 40.103 41.1943 39.303 41.1943C39.303 45.9029 39.303 50.5829 39.303 55.2971C39.0973 55.2971 38.9316 55.2971 38.7658 55.2971C32.8401 55.2971 26.9201 55.2971 20.9944 55.2971C20.823 55.2971 20.6573 55.3086 20.4858 55.3143C20.4916 45.0971 20.4916 34.8857 20.4916 24.6686C26.7658 24.6686 33.0344 24.6686 39.3373 24.6686C39.3373 29.4114 39.3373 34.0914 39.3373 38.7943C40.1258 38.7943 40.8858 38.7943 41.6858 38.7943C41.6858 35.2629 41.6858 31.7543 41.6858 28.1943C43.263 28.1943 44.8058 28.1943 46.383 28.1943C46.383 25.4286 46.383 22.7143 46.383 20C51.1087 20 55.7887 20 60.4858 20C60.4858 26.2743 60.4858 32.5314 60.4858 38.7886C55.7658 38.7886 51.0744 38.7886 46.343 38.7886C46.343 36.0457 46.343 33.3257 46.343 30.6114C45.5544 30.6114 44.8058 30.6114 44.0458 30.6114C44.0458 36.8743 44.0458 43.12 44.0458 49.3657C44.823 49.3657 45.5773 49.3657 46.3658 49.3657C46.3658 46.6286 46.3658 43.9143 46.3658 41.1829C51.0973 41.1829 55.7887 41.1829 60.5144 41.1829C60.5087 47.4743 60.5087 53.7371 60.5087 60ZM22.8516 34.04C27.583 34.04 32.2744 34.04 36.9601 34.04C36.9601 31.6857 36.9601 29.3657 36.9601 27.0457C32.2401 27.0457 27.5487 27.0457 22.8516 27.0457C22.8516 29.3829 22.8516 31.6971 22.8516 34.04ZM22.8516 43.48C27.5773 43.48 32.2687 43.48 36.9601 43.48C36.9601 41.1314 36.9601 38.8057 36.9601 36.48C32.2458 36.48 27.5544 36.48 22.8516 36.48C22.8516 38.8229 22.8516 41.1371 22.8516 43.48ZM22.8687 45.8571C22.8687 48.2057 22.8687 50.5429 22.8687 52.8857C27.583 52.8857 32.263 52.8857 36.9544 52.8857C36.9544 50.5314 36.9544 48.2 36.9544 45.8571C32.2458 45.8571 27.5773 45.8571 22.8687 45.8571ZM48.7316 22.3429C48.7316 23.3943 48.7316 24.4114 48.7316 25.4286C51.8858 25.4286 55.0173 25.4286 58.143 25.4286C58.143 24.3829 58.143 23.3714 58.143 22.3429C55.0058 22.3429 51.8858 22.3429 48.7316 22.3429ZM48.7373 33.3543C48.7373 34.4114 48.7373 35.4343 48.7373 36.4514C51.8858 36.4514 55.0058 36.4514 58.143 36.4514C58.143 35.4114 58.143 34.3886 58.143 33.3543C55.0001 33.3543 51.8801 33.3543 48.7373 33.3543ZM48.7258 46.6171C51.8858 46.6171 55.0116 46.6171 58.1373 46.6171C58.1373 45.5657 58.1373 44.5486 58.1373 43.5314C54.9887 43.5314 51.863 43.5314 48.7258 43.5314C48.7258 44.56 48.7258 45.5714 48.7258 46.6171ZM58.1487 54.5486C54.9887 54.5486 51.8573 54.5486 48.7373 54.5486C48.7373 55.6 48.7373 56.6171 48.7373 57.6343C51.8916 57.6343 55.0116 57.6343 58.1487 57.6343C58.1487 56.6 58.1487 55.5886 58.1487 54.5486ZM48.7201 30.9314C51.8801 30.9314 55.0116 30.9314 58.143 30.9314C58.143 29.8914 58.143 28.88 58.143 27.8686C54.9887 27.8686 51.863 27.8686 48.7201 27.8686C48.7201 28.8971 48.7201 29.8971 48.7201 30.9314ZM48.7201 52.1086C51.8858 52.1086 55.0116 52.1086 58.143 52.1086C58.143 51.0686 58.143 50.0571 58.143 49.0514C54.9887 49.0514 51.863 49.0514 48.7201 49.0514C48.7201 50.08 48.7201 51.08 48.7201 52.1086Z" fill="#202124"/>
<path d="M32.3262 29.3828C33.0976 29.3828 33.8462 29.3828 34.6176 29.3828C34.6176 30.16 34.6176 30.92 34.6176 31.7085C33.8576 31.7085 33.1033 31.7085 32.3262 31.7085C32.3262 30.9485 32.3262 30.1885 32.3262 29.3828Z" fill="#202124"/>
<path d="M32.3262 38.76C33.0976 38.76 33.8462 38.76 34.6176 38.76C34.6176 39.5372 34.6176 40.2972 34.6176 41.0857C33.8576 41.0857 33.1033 41.0857 32.3262 41.0857C32.3262 40.3257 32.3262 39.5657 32.3262 38.76Z" fill="#202124"/>
<path d="M34.606 50.5485C33.846 50.5485 33.0917 50.5485 32.3203 50.5485C32.3203 49.7771 32.3203 49.0114 32.3203 48.2285C33.0746 48.2285 33.8232 48.2285 34.606 48.2285C34.606 48.9885 34.606 49.7599 34.606 50.5485Z" fill="#202124"/>
</svg>
