<svg width="360" height="315" viewBox="0 0 482 498" fill="none" xmlns="http://www.w3.org/2000/svg">
<path d="M366.26 72.5165H352.642V67.8336H361.576V58.9023H366.26V72.5165Z" fill="#6EE1F8"/>
<path d="M354.976 83.7812H341.358V79.1144H350.308V70.1831H354.976V83.7812Z" fill="#6EE1F8"/>
<path d="M354.976 81.4477H350.308V67.8335H363.926V72.5164H354.976V81.4477Z" fill="#6EE1F8"/>
<path d="M452.349 198.697C446.763 198.697 442.224 194.159 442.224 188.575C442.224 182.991 446.763 178.453 452.349 178.453C457.935 178.453 462.474 182.991 462.474 188.575C462.474 194.159 457.935 198.697 452.349 198.697ZM452.349 183.119C449.339 183.119 446.892 185.565 446.892 188.575C446.892 191.584 449.339 194.03 452.349 194.03C455.359 194.03 457.806 191.584 457.806 188.575C457.806 185.565 455.359 183.119 452.349 183.119Z" fill="#267FE5"/>
<path d="M96.2278 202.624L84.686 191.086L96.2278 179.547L107.77 191.086L96.2278 202.624ZM91.2859 191.086L96.2278 196.026L101.17 191.086L96.2278 186.145L91.2859 191.086Z" fill="#D4088C"/>
<path d="M452.349 339.184L440.807 327.646L452.349 316.107L463.891 327.646L452.349 339.184ZM447.423 327.63L452.365 332.57L457.307 327.63L452.365 322.689L447.423 327.63Z" fill="#267FE5"/>
<path d="M244.388 70.3604H227.453V75.0271H244.388V70.3604Z" fill="#6EE1F8"/>
<path d="M238.254 64.229H233.586V81.1582H238.254V64.229Z" fill="#6EE1F8"/>
<path d="M26.8324 380.316L14.856 368.343L18.1559 365.028L30.1323 377.017L26.8324 380.316Z" fill="#D4088C"/>
<path d="M18.1559 380.316L14.856 377.017L26.8324 365.028L30.1323 368.343L18.1559 380.316Z" fill="#D4088C"/>
<path d="M282.78 439.423C277.87 439.423 273.17 438.426 269.66 436.414L163.74 375.279C160.231 373.251 158.299 370.419 158.299 367.297C158.299 363.58 161.052 359.863 165.849 357.095L267.552 298.389C276.437 293.256 289.927 292.725 297.637 297.166L403.574 358.302C407.083 360.329 409.015 363.161 409.015 366.283C409.015 370.001 406.262 373.718 401.465 376.486L299.762 435.191C294.917 437.991 288.687 439.423 282.78 439.423ZM270.369 435.191C277.693 439.423 290.555 438.876 299.038 433.968L400.741 375.263C405.087 372.753 407.582 369.486 407.582 366.283C407.582 363.692 405.908 361.295 402.85 359.525L296.913 298.389C289.589 294.157 276.727 294.704 268.244 299.612L166.541 358.318C162.195 360.828 159.7 364.095 159.7 367.297C159.7 369.888 161.374 372.286 164.432 374.056L270.369 435.191Z" fill="url(#paint0_linear_2352_41199)"/>
<path d="M415.744 188.076H360.079L298.12 152.318C290.136 147.716 276.196 148.295 266.988 153.606L207.251 188.076H151.603V343.947H151.619C151.393 347.069 153.132 350.078 156.963 352.283L269.21 417.071C277.194 421.673 291.134 421.094 300.342 415.784L408.113 353.586C412.894 350.818 415.454 347.326 415.695 343.947H415.744V188.076Z" fill="url(#paint1_linear_2352_41199)"/>
<path d="M165.688 188.076H151.587V343.947H151.603C151.442 346.152 152.295 348.308 154.162 350.175C152.971 348.582 152.424 346.844 152.568 345.042H152.552V189.17H166.799C166.444 188.784 166.074 188.414 165.688 188.076Z" fill="#D4088C"/>
<path d="M397.924 188.076C397.827 188.382 397.714 188.704 397.602 189.01H414.745V344.881H414.697C414.552 346.973 413.506 349.113 411.59 351.092C414.134 348.856 415.518 346.377 415.695 343.947H415.743V188.076H397.924Z" fill="#6DE0F6"/>
<path opacity="0.5" d="M190.912 371.884V191.085H170.71V360.217L190.912 371.884Z" fill="#D4088C"/>
<path opacity="0.3" d="M203.323 379.045V203.219H197.802V375.858L203.323 379.045Z" fill="#D4088C"/>
<path opacity="0.15" d="M213.223 384.758V205.343H207.686V381.571L213.223 384.758Z" fill="#D4088C"/>
<path d="M269.21 261.2L156.963 196.412C148.979 191.809 149.977 183.763 159.201 178.436L266.972 116.239C276.18 110.913 290.12 110.349 298.104 114.952L410.351 179.74C418.335 184.342 417.337 192.389 408.113 197.715L300.342 259.912C291.134 265.223 277.194 265.802 269.21 261.2Z" fill="url(#paint2_linear_2352_41199)"/>
<path d="M270.449 261.2L158.202 196.412C150.218 191.809 151.216 183.763 160.44 178.437L268.211 116.239C272.783 113.6 278.498 112.136 284.083 111.895C278.111 111.975 271.882 113.423 266.972 116.239L159.2 178.437C149.993 183.763 148.979 191.793 156.963 196.412L269.209 261.2C273.234 263.517 278.787 264.515 284.47 264.258C279.222 264.322 274.184 263.356 270.449 261.2Z" fill="#D4088C"/>
<path d="M410.351 179.724L298.104 114.936C294.064 112.603 288.51 111.621 282.812 111.878C287.995 111.83 292.969 112.812 296.655 114.936L408.902 179.724C416.886 184.326 415.888 192.373 406.665 197.699L298.893 259.896C294.337 262.519 288.623 263.984 283.037 264.241C289.058 264.193 295.368 262.745 300.326 259.896L408.097 197.699C417.321 192.389 418.335 184.343 410.351 179.724Z" fill="#6DE0F6"/>
<path d="M272.896 242.517L189.335 194.288C183.395 190.86 184.135 184.874 190.993 180.915L271.222 134.601C278.079 130.642 288.462 130.208 294.402 133.635L377.963 181.864C383.903 185.292 383.163 191.278 376.305 195.237L296.076 241.551C289.219 245.51 278.836 245.944 272.896 242.517Z" fill="#6DE0F6"/>
<path d="M190.993 189.91L271.222 143.596C278.079 139.638 288.462 139.203 294.402 142.631L377.963 190.86C378.736 191.31 379.396 191.809 379.943 192.324C383.13 188.72 382.583 184.503 377.963 181.848L294.402 133.619C288.462 130.191 278.079 130.626 271.222 134.585L190.993 180.899C185.037 184.342 183.7 189.315 187.338 192.807C188.272 191.777 189.463 190.795 190.993 189.91Z" fill="#267FE5"/>
<path d="M303.545 272.255L398.487 217.348C399.357 216.849 400.065 215.497 400.065 214.339V212.778C400.065 211.619 399.357 211.088 398.487 211.587L303.545 266.494C302.676 266.993 301.968 268.345 301.968 269.503V271.064C301.968 272.223 302.676 272.754 303.545 272.255Z" fill="#6DE0F6"/>
<path d="M396.411 216.173C397.28 215.674 397.988 214.323 397.988 213.164V211.893L398.487 211.603C399.357 211.104 400.065 211.635 400.065 212.794V214.355C400.065 215.513 399.357 216.849 398.487 217.364L303.545 272.271C302.676 272.77 301.968 272.239 301.968 271.08V270.791L396.411 216.173Z" fill="#267FE5"/>
<path d="M303.545 288.959L398.487 234.052C399.357 233.553 400.065 232.201 400.065 231.043V229.482C400.065 228.323 399.357 227.792 398.487 228.291L303.545 283.198C302.676 283.697 301.968 285.049 301.968 286.208V287.769C301.968 288.927 302.676 289.458 303.545 288.959Z" fill="#6DE0F6"/>
<path d="M396.411 232.877C397.28 232.378 397.988 231.027 397.988 229.868V228.597L398.487 228.307C399.357 227.808 400.065 228.339 400.065 229.498V231.059C400.065 232.217 399.357 233.553 398.487 234.068L303.545 288.975C302.676 289.474 301.968 288.943 301.968 287.785V287.495L396.411 232.877Z" fill="#267FE5"/>
<path d="M303.545 305.663L398.487 250.756C399.357 250.257 400.065 248.905 400.065 247.746V246.185C400.065 245.027 399.357 244.496 398.487 244.995L303.545 299.902C302.676 300.401 301.968 301.753 301.968 302.911V304.472C301.968 305.631 302.676 306.162 303.545 305.663Z" fill="#6DE0F6"/>
<path d="M396.411 249.581C397.28 249.082 397.988 247.73 397.988 246.572V245.3L398.487 245.011C399.357 244.512 400.065 245.043 400.065 246.201V247.762C400.065 248.921 399.357 250.257 398.487 250.772L303.545 305.679C302.676 306.178 301.968 305.647 301.968 304.488V304.199L396.411 249.581Z" fill="#267FE5"/>
<path d="M303.545 322.367L398.487 267.46C399.357 266.961 400.065 265.609 400.065 264.45V262.889C400.065 261.731 399.357 261.2 398.487 261.699L303.545 316.606C302.676 317.105 301.968 318.457 301.968 319.615V321.176C301.968 322.335 302.676 322.866 303.545 322.367Z" fill="#6DE0F6"/>
<path d="M396.411 266.285C397.28 265.786 397.988 264.434 397.988 263.276V262.004L398.487 261.715C399.357 261.216 400.065 261.747 400.065 262.906V264.467C400.065 265.625 399.357 266.961 398.487 267.476L303.545 322.383C302.676 322.882 301.968 322.351 301.968 321.192V320.903L396.411 266.285Z" fill="#267FE5"/>
<path d="M303.545 339.071L398.487 284.164C399.357 283.665 400.065 282.313 400.065 281.155V279.594C400.065 278.435 399.357 277.904 398.487 278.403L303.545 333.31C302.676 333.809 301.968 335.161 301.968 336.319V337.88C301.968 339.039 302.676 339.57 303.545 339.071Z" fill="#6DE0F6"/>
<path d="M396.411 282.989C397.28 282.49 397.988 281.138 397.988 279.98V278.708L398.487 278.419C399.357 277.92 400.065 278.451 400.065 279.61V281.171C400.065 282.329 399.357 283.665 398.487 284.18L303.545 339.087C302.676 339.586 301.968 339.055 301.968 337.896V337.607L396.411 282.989Z" fill="#267FE5"/>
<path d="M303.545 355.775L398.487 300.867C399.357 300.369 400.065 299.017 400.065 297.858V296.297C400.065 295.139 399.357 294.607 398.487 295.106L303.545 350.014C302.676 350.513 301.968 351.864 301.968 353.023V354.584C301.968 355.743 302.676 356.29 303.545 355.775Z" fill="#6DE0F6"/>
<path d="M396.411 299.693C397.28 299.194 397.988 297.842 397.988 296.683V295.412L398.487 295.122C399.357 294.624 400.065 295.155 400.065 296.313V297.874C400.065 299.033 399.357 300.369 398.487 300.884L303.545 355.791C302.676 356.29 301.968 355.759 301.968 354.6V354.31L396.411 299.693Z" fill="#267FE5"/>
<path d="M303.545 372.479L398.487 317.572C399.357 317.073 400.065 315.721 400.065 314.562V313.001C400.065 311.843 399.357 311.312 398.487 311.81L303.545 366.718C302.676 367.217 301.968 368.568 301.968 369.727V371.288C301.968 372.463 302.676 372.994 303.545 372.479Z" fill="#6DE0F6"/>
<path d="M396.411 316.397C397.28 315.898 397.988 314.546 397.988 313.388V312.116L398.487 311.827C399.357 311.328 400.065 311.859 400.065 313.017V314.578C400.065 315.737 399.357 317.089 398.487 317.588L303.545 372.495C302.676 372.994 301.968 372.463 301.968 371.304V371.014L396.411 316.397Z" fill="#267FE5"/>
<path d="M303.545 389.199L398.487 334.291C399.357 333.792 400.065 332.441 400.065 331.282V329.721C400.065 328.562 399.357 328.031 398.487 328.53L303.545 383.438C302.676 383.936 301.968 385.288 301.968 386.447V388.008C301.968 389.166 302.676 389.697 303.545 389.199Z" fill="#6DE0F6"/>
<path d="M396.411 333.1C397.28 332.602 397.988 331.25 397.988 330.091V328.82L398.487 328.53C399.357 328.031 400.065 328.562 400.065 329.721V331.282C400.065 332.441 399.357 333.792 398.487 334.291L303.545 389.199C302.676 389.697 301.968 389.166 301.968 388.008V387.718L396.411 333.1Z" fill="#267FE5"/>
<path d="M303.545 405.903L398.487 350.995C399.357 350.496 400.065 349.145 400.065 347.986V346.425C400.065 345.266 399.357 344.735 398.487 345.234L303.545 400.142C302.676 400.64 301.968 401.992 301.968 403.151V404.712C301.968 405.87 302.676 406.401 303.545 405.903Z" fill="#6DE0F6"/>
<path d="M396.411 349.805C397.28 349.306 397.988 347.954 397.988 346.795V345.524L398.487 345.234C399.357 344.735 400.065 345.266 400.065 346.425V347.986C400.065 349.145 399.357 350.48 398.487 350.995L303.545 405.903C302.676 406.401 301.968 405.87 301.968 404.712V404.422L396.411 349.805Z" fill="#267FE5"/>
<path d="M286.208 274.975C286.208 276.375 285.065 277.518 283.665 277.518C282.264 277.518 281.122 276.375 281.122 274.975C281.122 273.575 282.264 272.433 283.665 272.433C285.065 272.433 286.208 273.575 286.208 274.975Z" fill="#6DE0F6"/>
<path d="M283.649 276.568C282.409 276.568 281.379 275.683 281.154 274.492C281.122 274.653 281.105 274.814 281.105 274.975C281.105 276.375 282.248 277.518 283.649 277.518C285.049 277.518 286.192 276.375 286.192 274.975C286.192 274.814 286.176 274.653 286.144 274.492C285.935 275.667 284.904 276.568 283.649 276.568Z" fill="#267FE5"/>
<path d="M286.208 291.679C286.208 293.079 285.065 294.222 283.665 294.222C282.264 294.222 281.122 293.079 281.122 291.679C281.122 290.279 282.264 289.137 283.665 289.137C285.065 289.137 286.208 290.279 286.208 291.679Z" fill="#6DE0F6"/>
<path d="M283.649 293.273C282.409 293.273 281.379 292.388 281.154 291.197C281.122 291.358 281.105 291.519 281.105 291.68C281.105 293.08 282.248 294.222 283.649 294.222C285.049 294.222 286.192 293.08 286.192 291.68C286.192 291.519 286.176 291.358 286.144 291.197C285.935 292.388 284.904 293.273 283.649 293.273Z" fill="#267FE5"/>
<path d="M283.649 310.926C285.054 310.926 286.192 309.787 286.192 308.383C286.192 306.979 285.054 305.84 283.649 305.84C282.244 305.84 281.105 306.979 281.105 308.383C281.105 309.787 282.244 310.926 283.649 310.926Z" fill="#6DE0F6"/>
<path d="M283.649 309.976C282.409 309.976 281.379 309.091 281.154 307.9C281.122 308.061 281.105 308.222 281.105 308.383C281.105 309.783 282.248 310.926 283.649 310.926C285.049 310.926 286.192 309.783 286.192 308.383C286.192 308.222 286.176 308.061 286.144 307.9C285.935 309.091 284.904 309.976 283.649 309.976Z" fill="#267FE5"/>
<path d="M286.208 325.087C286.208 326.487 285.065 327.63 283.665 327.63C282.264 327.63 281.122 326.487 281.122 325.087C281.122 323.687 282.264 322.544 283.665 322.544C285.065 322.544 286.208 323.687 286.208 325.087Z" fill="#6DE0F6"/>
<path d="M283.649 326.68C282.409 326.68 281.379 325.795 281.154 324.604C281.122 324.765 281.105 324.926 281.105 325.087C281.105 326.487 282.248 327.63 283.649 327.63C285.049 327.63 286.192 326.487 286.192 325.087C286.192 324.926 286.176 324.765 286.144 324.604C285.935 325.795 284.904 326.68 283.649 326.68Z" fill="#267FE5"/>
<path d="M286.208 341.791C286.208 343.191 285.065 344.334 283.665 344.334C282.264 344.334 281.122 343.191 281.122 341.791C281.122 340.391 282.264 339.249 283.665 339.249C285.065 339.249 286.208 340.391 286.208 341.791Z" fill="#6DE0F6"/>
<path d="M283.649 343.384C282.409 343.384 281.379 342.499 281.154 341.308C281.122 341.469 281.105 341.63 281.105 341.791C281.105 343.191 282.248 344.333 283.649 344.333C285.049 344.333 286.192 343.191 286.192 341.791C286.192 341.63 286.176 341.469 286.144 341.308C285.935 342.499 284.904 343.384 283.649 343.384Z" fill="#267FE5"/>
<path d="M286.208 358.495C286.208 359.895 285.065 361.037 283.665 361.037C282.264 361.037 281.122 359.895 281.122 358.495C281.122 357.095 282.264 355.952 283.665 355.952C285.065 355.952 286.208 357.095 286.208 358.495Z" fill="#6DE0F6"/>
<path d="M283.649 360.088C282.409 360.088 281.379 359.203 281.154 358.012C281.122 358.173 281.105 358.334 281.105 358.495C281.105 359.895 282.248 361.038 283.649 361.038C285.049 361.038 286.192 359.895 286.192 358.495C286.192 358.334 286.176 358.173 286.144 358.012C285.935 359.203 284.904 360.088 283.649 360.088Z" fill="#267FE5"/>
<path d="M286.208 375.199C286.208 376.599 285.065 377.742 283.665 377.742C282.264 377.742 281.122 376.599 281.122 375.199C281.122 373.799 282.264 372.656 283.665 372.656C285.065 372.656 286.208 373.799 286.208 375.199Z" fill="#6DE0F6"/>
<path d="M283.649 376.792C282.409 376.792 281.379 375.907 281.154 374.716C281.122 374.877 281.105 375.038 281.105 375.199C281.105 376.599 282.248 377.742 283.649 377.742C285.049 377.742 286.192 376.599 286.192 375.199C286.192 375.038 286.176 374.877 286.144 374.716C285.935 375.907 284.904 376.792 283.649 376.792Z" fill="#267FE5"/>
<path d="M286.208 391.903C286.208 393.303 285.065 394.446 283.665 394.446C282.264 394.446 281.122 393.303 281.122 391.903C281.122 390.503 282.264 389.36 283.665 389.36C285.065 389.36 286.208 390.503 286.208 391.903Z" fill="#6DE0F6"/>
<path d="M283.649 393.496C282.409 393.496 281.379 392.611 281.154 391.42C281.122 391.581 281.105 391.742 281.105 391.903C281.105 393.303 282.248 394.445 283.649 394.445C285.049 394.445 286.192 393.303 286.192 391.903C286.192 391.742 286.176 391.581 286.144 391.42C285.935 392.611 284.904 393.496 283.649 393.496Z" fill="#267FE5"/>
<path d="M286.208 408.607C286.208 410.007 285.065 411.149 283.665 411.149C282.264 411.149 281.122 410.007 281.122 408.607C281.122 407.207 282.264 406.064 283.665 406.064C285.065 406.064 286.208 407.207 286.208 408.607Z" fill="#6DE0F6"/>
<path d="M283.649 410.2C282.409 410.2 281.379 409.315 281.154 408.124C281.122 408.285 281.105 408.446 281.105 408.607C281.105 410.007 282.248 411.149 283.649 411.149C285.049 411.149 286.192 410.007 286.192 408.607C286.192 408.446 286.176 408.285 286.144 408.124C285.935 409.315 284.904 410.2 283.649 410.2Z" fill="#267FE5"/>
<path d="M247.221 384.178C246.706 384.178 246.158 384.017 245.611 383.696L241.812 381.507C239.751 380.316 238.061 377.114 238.061 374.378V271.853C238.061 270.341 238.576 269.166 239.478 268.635C240.25 268.2 241.216 268.249 242.198 268.828L245.997 271.016C248.058 272.207 249.748 275.41 249.748 278.145V380.67C249.748 382.183 249.233 383.358 248.331 383.873C247.993 384.082 247.607 384.178 247.221 384.178ZM240.589 269.134C240.331 269.134 240.09 269.198 239.864 269.327C239.204 269.713 238.834 270.63 238.834 271.869V374.394C238.834 376.888 240.347 379.785 242.198 380.847L245.997 383.036C246.722 383.454 247.414 383.519 247.945 383.229C248.605 382.843 248.975 381.925 248.975 380.686V278.161C248.975 275.667 247.462 272.77 245.611 271.708L241.812 269.52C241.377 269.262 240.959 269.134 240.589 269.134Z" fill="#161242"/>
<path d="M183.974 348.228C183.459 348.228 182.912 348.067 182.365 347.745L178.566 345.557C176.505 344.366 174.815 341.163 174.815 338.428V235.903C174.815 234.39 175.33 233.215 176.232 232.7C177.004 232.25 177.97 232.314 178.952 232.894L182.751 235.082C184.811 236.273 186.502 239.475 186.502 242.211V344.736C186.502 346.249 185.986 347.423 185.085 347.938C184.731 348.131 184.361 348.228 183.974 348.228ZM178.952 344.881L182.751 347.069C183.475 347.488 184.167 347.552 184.683 347.262C185.343 346.876 185.713 345.959 185.713 344.72V242.195C185.713 239.701 184.2 236.804 182.348 235.742L178.55 233.553C177.825 233.135 177.133 233.071 176.602 233.36C175.942 233.746 175.572 234.664 175.572 235.903V338.428C175.588 340.922 177.101 343.819 178.952 344.881Z" fill="#161242"/>
<path d="M215.59 366.203C215.074 366.203 214.527 366.042 213.98 365.72L210.181 363.532C208.12 362.341 206.43 359.138 206.43 356.403V253.878C206.43 252.365 206.945 251.191 207.847 250.676C208.619 250.225 209.585 250.289 210.567 250.869L214.366 253.057C216.427 254.248 218.117 257.45 218.117 260.186V362.711C218.117 364.224 217.602 365.398 216.7 365.929C216.362 366.107 215.992 366.203 215.59 366.203ZM208.974 251.158C208.716 251.158 208.475 251.223 208.249 251.351C207.589 251.738 207.219 252.655 207.219 253.894V356.419C207.219 358.913 208.732 361.81 210.583 362.872L214.382 365.061C215.123 365.479 215.799 365.543 216.314 365.254C216.974 364.867 217.344 363.95 217.344 362.711V260.186C217.344 257.692 215.831 254.795 213.98 253.733L210.181 251.545C209.762 251.287 209.344 251.158 208.974 251.158Z" fill="#161242"/>
<path opacity="0.5" d="M384.209 164.517L380.619 184.037L399.26 173.351L384.209 164.517Z" fill="#13113D"/>
<path d="M286.337 70.1831L281.991 72.7096L286.337 77.6661V114.405C286.337 122.435 291.214 131.753 297.235 135.213L377.222 181.382C377.303 181.43 377.383 181.462 377.464 181.51L380.039 184.455L384.096 182.09C384.16 182.058 384.209 182.025 384.257 181.993L384.643 181.768L384.627 181.752C386.752 180.336 388.088 177.343 388.088 173.142V128.92L286.337 70.1831Z" fill="url(#paint3_linear_2352_41199)"/>
<path d="M281.991 72.6934L383.774 131.431V175.653C383.774 183.667 378.897 187.368 372.876 183.892L292.889 137.723C286.868 134.247 281.991 124.929 281.991 116.915V72.6934Z" fill="#6DE0F6"/>
<path opacity="0.5" d="M279.592 244.609L260.098 255.938L172.658 205.472L190.767 195.06L279.592 244.609Z" fill="#38025B"/>
<g style="mix-blend-mode:lighten">
<path d="M382.052 0.486816H185.407V187.497H185.536C185.085 190.023 186.325 192.502 189.415 194.272L272.976 242.501C278.916 245.928 289.299 245.494 296.157 241.535L376.386 195.237C380.217 193.017 382.068 190.184 381.987 187.497H382.068V0.486816H382.052Z" fill="url(#paint4_linear_2352_41199)"/>
</g>
<path d="M187.21 129.806L182.864 132.332L187.21 137.289V174.028C187.21 182.058 192.087 191.375 198.108 194.835L278.095 241.004C278.176 241.053 278.256 241.085 278.337 241.133L280.912 244.078L284.969 241.712C285.033 241.68 285.081 241.648 285.13 241.616L285.516 241.391L285.5 241.374C287.625 239.958 288.961 236.965 288.961 232.765V188.543L187.21 129.806Z" fill="url(#paint5_linear_2352_41199)"/>
<path d="M182.864 132.332L284.647 191.069V235.291C284.647 243.321 279.769 247.007 273.749 243.531L193.761 197.361C187.741 193.886 182.864 184.568 182.864 176.554V132.332Z" fill="url(#paint6_linear_2352_41199)"/>
<path opacity="0.5" d="M399.566 173.528L384.225 164.517L399.566 173.528Z" fill="#38025B"/>
<path opacity="0.8" d="M113.339 108.531C113.339 110.253 111.939 111.653 110.216 111.653C108.494 111.653 107.094 110.253 107.094 108.531C107.094 106.809 108.494 105.409 110.216 105.409C111.939 105.393 113.339 106.793 113.339 108.531Z" fill="#D4088C"/>
<path d="M481.195 213.615C481.195 214.725 480.294 215.61 479.199 215.61C478.088 215.61 477.203 214.709 477.203 213.615C477.203 212.504 478.105 211.619 479.199 211.619C480.294 211.603 481.195 212.504 481.195 213.615Z" fill="#6EE8FC"/>
<path d="M84.8147 295.847C84.8147 297.408 83.5591 298.663 81.9977 298.663C80.4362 298.663 79.1807 297.408 79.1807 295.847C79.1807 294.286 80.4362 293.031 81.9977 293.031C83.5591 293.031 84.8147 294.302 84.8147 295.847Z" fill="#6EE8FC"/>
<path d="M56.0328 262.455C56.0328 263.324 55.3406 264.016 54.4714 264.016C53.6021 264.016 52.9099 263.324 52.9099 262.455C52.9099 261.586 53.6021 260.895 54.4714 260.895C55.3406 260.895 56.0328 261.586 56.0328 262.455Z" fill="#6EE8FC"/>
<path d="M341.358 65.983C341.358 66.9968 340.537 67.8336 339.506 67.8336C338.492 67.8336 337.655 67.0129 337.655 65.983C337.655 64.953 338.476 64.1323 339.506 64.1323C340.537 64.1323 341.358 64.9691 341.358 65.983Z" fill="#D4088C"/>
<path d="M399.904 461.808C399.904 463.273 398.712 464.479 397.232 464.479C395.767 464.479 394.559 463.289 394.559 461.808C394.559 460.328 395.751 459.137 397.232 459.137C398.712 459.137 399.904 460.328 399.904 461.808Z" fill="#D4088C"/>
<path d="M368.868 442.143C369.757 442.143 370.478 441.423 370.478 440.534C370.478 439.645 369.757 438.925 368.868 438.925C367.979 438.925 367.258 439.645 367.258 440.534C367.258 441.423 367.979 442.143 368.868 442.143Z" fill="#D4088C"/>
<path d="M401.835 433.325C401.835 433.775 401.481 434.129 401.03 434.129C400.58 434.129 400.226 433.775 400.226 433.325C400.226 432.874 400.58 432.52 401.03 432.52C401.481 432.52 401.835 432.874 401.835 433.325Z" fill="#D4088C"/>
<path d="M5.93799 414.368C5.93799 415.864 4.71459 417.087 3.21753 417.087C1.72047 417.087 0.49707 415.864 0.49707 414.368C0.49707 412.871 1.72047 411.648 3.21753 411.648C4.71459 411.648 5.93799 412.871 5.93799 414.368Z" fill="#6EE8FC"/>
<path d="M190.333 497.614C185.375 497.614 180.642 496.616 177.101 494.572L69.9409 432.729C66.4156 430.702 64.4839 427.853 64.4839 424.731C64.4839 420.998 67.2526 417.264 72.0818 414.464L97.8053 399.708C106.772 394.542 120.39 393.995 128.165 398.484L235.325 460.328C238.85 462.355 240.782 465.204 240.782 468.326C240.782 472.059 238.013 475.793 233.184 478.593L207.46 493.349C202.583 496.166 196.289 497.614 190.333 497.614ZM177.745 493.462C185.182 497.743 198.22 497.195 206.832 492.223L232.556 477.466C236.983 474.924 239.51 471.576 239.51 468.31C239.51 465.654 237.804 463.208 234.681 461.406L127.521 399.579C120.1 395.282 107.045 395.845 98.4331 400.802L72.7096 415.559C68.2828 418.101 65.7556 421.448 65.7556 424.715C65.7556 427.37 67.4619 429.816 70.5848 431.619L177.745 493.462Z" fill="url(#paint7_linear_2352_41199)"/>
<path d="M240.138 397.1H187.001L127.843 362.952C120.229 358.559 106.917 359.106 98.1113 364.191L118.249 352.476H65.1279V403.505H65.144C64.9348 406.482 66.5928 409.347 70.2469 411.471L177.407 473.314C185.021 477.707 198.333 477.16 207.138 472.075L232.862 457.318C237.434 454.679 239.864 451.348 240.106 448.129H240.138V397.1Z" fill="url(#paint8_linear_2352_41199)"/>
<path d="M238.592 397.101V449.819H238.56C238.447 451.364 237.82 452.941 236.725 454.47C238.802 452.458 239.961 450.27 240.105 448.13H240.138V397.101H238.592Z" fill="#6EE8FC"/>
<path d="M177.423 422.285L70.2628 360.442C62.6488 356.049 63.5985 348.357 72.4037 343.287L98.1273 328.531C106.932 323.445 120.229 322.898 127.859 327.292L235.019 389.135C242.633 393.528 241.683 401.22 232.878 406.289L207.154 421.046C198.349 426.131 185.037 426.678 177.423 422.285Z" fill="url(#paint9_linear_2352_41199)"/>
<path d="M179.547 422.285L72.3877 360.442C64.7736 356.049 65.7234 348.357 74.5286 343.288L100.252 328.531C104.759 325.924 110.458 324.524 115.979 324.363C109.846 324.186 103.23 325.602 98.1434 328.531L72.4199 343.288C63.6146 348.373 62.6649 356.049 70.2789 360.442L177.439 422.285C181.157 424.425 186.212 425.391 191.443 425.23C186.968 425.101 182.751 424.136 179.547 422.285Z" fill="#F88B93"/>
<path d="M235.003 389.135L127.843 327.291C124.108 325.135 119.022 324.186 113.774 324.347C118.233 324.475 122.434 325.441 125.638 327.291L232.798 389.135C240.412 393.528 239.462 401.22 230.657 406.289L204.933 421.046C200.442 423.637 194.776 425.037 189.286 425.214C195.436 425.391 202.052 423.991 207.138 421.046L232.862 406.289C241.667 401.204 242.617 393.528 235.003 389.135Z" fill="#6EE8FC"/>
<path d="M240.138 375.36H187.001L127.843 341.212C120.229 336.818 106.917 337.365 98.1113 342.451L118.249 330.735H65.1279V341.71H65.144C64.9348 344.687 66.5928 347.552 70.2469 349.676L177.407 411.519C185.021 415.913 198.333 415.365 207.138 410.28L232.862 395.523C237.434 392.884 239.864 389.553 240.106 386.335H240.138V375.36Z" fill="url(#paint10_linear_2352_41199)"/>
<path d="M238.592 375.36V388.025H238.56C238.447 389.569 237.82 391.146 236.725 392.659C238.802 390.648 239.961 388.459 240.105 386.319H240.138V375.344H238.592V375.36Z" fill="#6EE8FC"/>
<path d="M177.423 400.544L70.2628 338.701C62.6488 334.308 63.5985 326.616 72.4037 321.547L98.1273 306.79C106.932 301.705 120.229 301.158 127.859 305.551L235.019 367.394C242.633 371.787 241.683 379.479 232.878 384.549L207.154 399.305C198.349 404.39 185.037 404.938 177.423 400.544Z" fill="url(#paint11_linear_2352_41199)"/>
<path d="M182.043 389.923L87.9538 335.595C83.3982 332.956 83.9616 328.37 89.2255 325.328L104.631 316.493C109.894 313.452 117.863 313.13 122.434 315.753L216.523 370.081C221.079 372.72 220.515 377.307 215.251 380.348L199.846 389.183C194.566 392.24 186.598 392.562 182.043 389.923Z" fill="#6EE8FC"/>
<path d="M89.2416 326.97L104.647 318.135C109.911 315.094 117.879 314.772 122.45 317.395L216.539 371.723C218.262 372.704 219.244 373.976 219.533 375.344C219.904 373.396 218.938 371.465 216.539 370.081L122.45 315.753C117.895 313.114 109.927 313.452 104.647 316.494L89.2416 325.328C85.9577 327.227 84.4929 329.738 84.9758 331.991C85.2977 330.22 86.7304 328.418 89.2416 326.97Z" fill="#267FE5"/>
<path d="M179.548 400.545L72.3877 338.701C64.7736 334.308 65.7234 326.616 74.5286 321.547L100.252 306.79C104.759 304.183 110.458 302.783 115.979 302.622C109.846 302.445 103.23 303.861 98.1434 306.79L72.4037 321.531C63.5985 326.616 62.6488 334.292 70.2628 338.685L177.423 400.529C181.141 402.669 186.196 403.634 191.427 403.473C186.968 403.361 182.751 402.395 179.548 400.545Z" fill="#F88B93"/>
<path d="M235.003 367.394L127.843 305.551C124.108 303.394 119.022 302.445 113.774 302.606C118.233 302.735 122.434 303.7 125.638 305.551L232.798 367.394C240.412 371.787 239.462 379.479 230.657 384.549L204.933 399.305C200.442 401.896 194.776 403.296 189.286 403.473C195.436 403.65 202.052 402.25 207.138 399.305L232.862 384.549C241.667 379.479 242.617 371.787 235.003 367.394Z" fill="#6EE8FC"/>
<path opacity="0.5" d="M207.541 460.553C207.17 460.553 206.816 460.456 206.478 460.279C205.673 459.813 205.207 458.831 205.207 457.56V436.913C205.207 434.821 206.462 432.472 208.056 431.538L226.696 420.772C227.566 420.274 228.435 420.225 229.159 420.644C229.964 421.11 230.431 422.092 230.431 423.347V444.01C230.431 446.102 229.175 448.451 227.582 449.385L208.941 460.151C208.474 460.424 208.007 460.553 207.541 460.553ZM228.113 422.124C227.92 422.124 227.694 422.237 227.598 422.301L208.957 433.067C207.879 433.679 206.977 435.449 206.977 436.929V457.592C206.977 458.3 207.186 458.686 207.38 458.783C207.605 458.911 207.943 458.734 208.088 458.654L226.729 447.888C227.807 447.277 228.709 445.506 228.709 444.026V423.363C228.709 422.655 228.499 422.269 228.306 422.172C228.242 422.124 228.177 422.124 228.113 422.124Z" fill="#0F133B"/>
<path d="M79.1968 395.169V391.307C79.1968 389.311 80.8065 388.636 82.8026 389.778L160.987 434.869C162.983 436.028 164.609 438.57 164.609 440.566V444.428C164.609 446.423 162.999 447.099 161.003 445.957L82.8187 400.866C80.8226 399.707 79.1968 397.165 79.1968 395.169Z" fill="#38025B"/>
<path opacity="0.5" d="M44.3945 422.14L101.073 389.392L178.034 433.775L121.356 466.523L44.3945 422.14Z" fill="#6EE8FC"/>
<path opacity="0.5" d="M44.4429 416.46L101.122 383.728L178.067 428.11L121.388 460.842L44.4429 416.46Z" fill="#25BFEC"/>
<path opacity="0.5" d="M178.035 433.775L178.067 428.11L121.388 460.842L121.356 466.523L178.035 433.775Z" fill="#6EE8FC"/>
<path opacity="0.5" d="M101.073 389.392L101.121 383.728L44.4428 416.459L44.3945 422.14L101.073 389.392Z" fill="#6EE8FC"/>
<path d="M124.978 470.063L128.133 468.277H128.1C128.632 467.955 128.97 467.344 128.97 466.443V462.58C128.97 460.585 127.344 458.042 125.348 456.884L47.1632 411.793C46.0847 411.165 45.1189 411.101 44.4589 411.471L44.4428 411.455L41.4165 413.177L43.5574 413.708V417.168C43.5574 419.163 45.1833 421.706 47.1793 422.864L125.364 467.955C125.38 467.955 125.38 467.955 125.38 467.971L124.978 470.063Z" fill="url(#paint12_linear_2352_41199)"/>
<path d="M128.97 462.565V466.427C128.97 467.167 128.728 467.698 128.358 468.036C128.471 467.762 128.535 467.441 128.535 467.07V463.128C128.535 461.1 126.877 458.493 124.849 457.318L45.119 411.326C45.0707 411.294 45.0224 411.294 44.9741 411.262C45.5858 411.133 46.3424 411.278 47.1794 411.761L125.364 456.852C127.36 458.026 128.97 460.569 128.97 462.565Z" fill="#6DE0F6"/>
<path d="M40.4507 418.938V415.075C40.4507 413.08 42.0604 412.404 44.0565 413.547L122.241 458.638C124.237 459.796 125.863 462.339 125.863 464.334V468.197C125.863 470.192 124.253 470.868 122.257 469.725L44.0726 424.634C42.0765 423.476 40.4507 420.933 40.4507 418.938Z" fill="url(#paint13_linear_2352_41199)"/>
<path d="M120.036 407.013V413.965L127.682 418.374V411.423L120.036 407.013Z" fill="#50DEFF"/>
<path d="M116.204 404.808L108.091 400.125V407.077L116.204 411.76V404.808Z" fill="#50DEFF"/>
<path d="M130.483 442.304L124.205 438.683L122.112 439.89L128.406 443.511L130.483 442.304Z" fill="#50DEFF"/>
<path d="M129.002 435.899L126.925 437.106L133.203 440.743L135.296 439.536L129.002 435.899Z" fill="#50DEFF"/>
<path d="M93.475 428.094L75.7358 417.859L100.88 403.344V396.086L63.4214 417.715L93.475 435.046V428.094Z" fill="#50DEFF"/>
<path d="M134.153 422.108L143.538 427.515L131.722 434.338L138 437.959L155.836 427.66L134.153 415.156V422.108Z" fill="#50DEFF"/>
<path d="M100.88 439.311V432.359L97.3062 430.299V437.251L100.88 439.311Z" fill="#50DEFF"/>
<path d="M119.408 441.451L118.023 442.256L108.107 436.527V443.479L118.281 449.353L125.686 445.072L119.408 441.451Z" fill="#50DEFF"/>
<path d="M128.728 427.306L132.929 424.876L137.131 427.306L132.929 429.736L128.728 427.306Z" fill="#50DEFF"/>
<path d="M121.42 431.538L125.621 429.108L129.823 431.522L125.621 433.952L121.42 431.538Z" fill="#50DEFF"/>
<path d="M114.885 427.757L119.086 425.343L123.287 427.757L119.086 430.186L114.885 427.757Z" fill="#50DEFF"/>
<path d="M83.0923 417.876L87.2937 415.446L91.4951 417.876L87.2937 420.29L83.0923 417.876Z" fill="#50DEFF"/>
<path d="M122.193 423.54L126.394 421.11L130.595 423.54L126.41 425.97L122.193 423.54Z" fill="#50DEFF"/>
<path d="M114.112 435.754L118.313 433.324L122.515 435.754L118.313 438.184L114.112 435.754Z" fill="#50DEFF"/>
<path opacity="0.4" d="M160.456 443.929L160.553 438.217L83.5913 393.834L86.7303 392.047L114.627 403.988L167.297 434.37C167.297 434.37 165.317 440.823 165.237 440.711C165.156 440.582 164.625 441.548 164.625 441.548L160.456 443.929Z" fill="#0C0F38"/>
<path d="M238.979 497.743L219.372 486.43L220.032 485.287L238.979 496.23L377.19 416.09L354.654 403.071L355.298 401.944L379.814 416.09L378.832 416.653L238.979 497.743Z" fill="url(#paint14_linear_2352_41199)"/>
<defs>
<linearGradient id="paint0_linear_2352_41199" x1="158.301" y1="366.789" x2="409.011" y2="366.789" gradientUnits="userSpaceOnUse">
<stop stop-color="#D4088C"/>
<stop offset="0.2258" stop-color="#8D139B"/>
<stop offset="0.5108" stop-color="#6EE1F8"/>
<stop offset="0.7796" stop-color="#6EE8FC"/>
<stop offset="1" stop-color="#6EE8FC"/>
</linearGradient>
<linearGradient id="paint1_linear_2352_41199" x1="126.603" y1="284.689" x2="448.427" y2="284.689" gradientUnits="userSpaceOnUse">
<stop stop-color="#A31FA9"/>
<stop offset="0.0668" stop-color="#8B17A0"/>
<stop offset="0.1494" stop-color="#740F98"/>
<stop offset="0.2393" stop-color="#640A92"/>
<stop offset="0.3408" stop-color="#5B078F"/>
<stop offset="0.4785" stop-color="#58068E"/>
<stop offset="0.6264" stop-color="#4D22A3"/>
<stop offset="0.9436" stop-color="#3168DA"/>
<stop offset="1" stop-color="#2C75E4"/>
</linearGradient>
<linearGradient id="paint2_linear_2352_41199" x1="149.422" y1="188.074" x2="397.172" y2="249.397" gradientUnits="userSpaceOnUse">
<stop stop-color="#8D139B"/>
<stop offset="0.1651" stop-color="#851BA1"/>
<stop offset="0.4284" stop-color="#6E33B2"/>
<stop offset="0.7551" stop-color="#4958CD"/>
<stop offset="1" stop-color="#2979E4"/>
</linearGradient>
<linearGradient id="paint3_linear_2352_41199" x1="169.314" y1="89.6499" x2="388.429" y2="140.032" gradientUnits="userSpaceOnUse">
<stop stop-color="#8D139B"/>
<stop offset="0.1651" stop-color="#851BA1"/>
<stop offset="0.4284" stop-color="#6E33B2"/>
<stop offset="0.7551" stop-color="#4958CD"/>
<stop offset="1" stop-color="#2979E4"/>
</linearGradient>
<linearGradient id="paint4_linear_2352_41199" x1="283.737" y1="0.486816" x2="283.737" y2="244.813" gradientUnits="userSpaceOnUse">
<stop stop-color="#EEFDFF" stop-opacity="0"/>
<stop offset="1" stop-color="#2D75E1" stop-opacity="0.46"/>
</linearGradient>
<linearGradient id="paint5_linear_2352_41199" x1="70.1921" y1="149.278" x2="289.307" y2="199.66" gradientUnits="userSpaceOnUse">
<stop stop-color="#8D139B"/>
<stop offset="0.1651" stop-color="#851BA1"/>
<stop offset="0.4284" stop-color="#6E33B2"/>
<stop offset="0.7551" stop-color="#4958CD"/>
<stop offset="1" stop-color="#2979E4"/>
</linearGradient>
<linearGradient id="paint6_linear_2352_41199" x1="166.11" y1="188.886" x2="353.858" y2="137.165" gradientUnits="userSpaceOnUse">
<stop stop-color="#8D139B"/>
<stop offset="0.1651" stop-color="#851BA1"/>
<stop offset="0.4284" stop-color="#6E33B2"/>
<stop offset="0.7551" stop-color="#4958CD"/>
<stop offset="1" stop-color="#2979E4"/>
</linearGradient>
<linearGradient id="paint7_linear_2352_41199" x1="64.4857" y1="446.519" x2="240.783" y2="446.519" gradientUnits="userSpaceOnUse">
<stop stop-color="#6EE8FC"/>
<stop offset="0.2204" stop-color="#6EE8FC"/>
<stop offset="0.4892" stop-color="#6EE1F8"/>
<stop offset="0.7742" stop-color="#8D139B"/>
<stop offset="1" stop-color="#D4088C"/>
</linearGradient>
<linearGradient id="paint8_linear_2352_41199" x1="48.5855" y1="414.374" x2="261.802" y2="414.374" gradientUnits="userSpaceOnUse">
<stop stop-color="#A31FA9"/>
<stop offset="0.0668" stop-color="#8B17A0"/>
<stop offset="0.1494" stop-color="#740F98"/>
<stop offset="0.2393" stop-color="#640A92"/>
<stop offset="0.3408" stop-color="#5B078F"/>
<stop offset="0.4785" stop-color="#58068E"/>
<stop offset="0.6264" stop-color="#4D22A3"/>
<stop offset="0.9436" stop-color="#3168DA"/>
<stop offset="1" stop-color="#2C75E4"/>
</linearGradient>
<linearGradient id="paint9_linear_2352_41199" x1="58.0616" y1="374.786" x2="232.611" y2="417.99" gradientUnits="userSpaceOnUse">
<stop stop-color="#8D139B"/>
<stop offset="0.1651" stop-color="#851BA1"/>
<stop offset="0.4284" stop-color="#6E33B2"/>
<stop offset="0.7551" stop-color="#4958CD"/>
<stop offset="1" stop-color="#2979E4"/>
</linearGradient>
<linearGradient id="paint10_linear_2352_41199" x1="48.5855" y1="372.607" x2="261.802" y2="372.607" gradientUnits="userSpaceOnUse">
<stop stop-color="#A31FA9"/>
<stop offset="0.0668" stop-color="#8B17A0"/>
<stop offset="0.1494" stop-color="#740F98"/>
<stop offset="0.2393" stop-color="#640A92"/>
<stop offset="0.3408" stop-color="#5B078F"/>
<stop offset="0.4785" stop-color="#58068E"/>
<stop offset="0.6264" stop-color="#4D22A3"/>
<stop offset="0.9436" stop-color="#3168DA"/>
<stop offset="1" stop-color="#2C75E4"/>
</linearGradient>
<linearGradient id="paint11_linear_2352_41199" x1="58.0617" y1="353.045" x2="232.611" y2="396.25" gradientUnits="userSpaceOnUse">
<stop stop-color="#8D139B"/>
<stop offset="0.1651" stop-color="#851BA1"/>
<stop offset="0.4284" stop-color="#6E33B2"/>
<stop offset="0.7551" stop-color="#4958CD"/>
<stop offset="1" stop-color="#2979E4"/>
</linearGradient>
<linearGradient id="paint12_linear_2352_41199" x1="116.712" y1="417.5" x2="37.6503" y2="475.013" gradientUnits="userSpaceOnUse">
<stop stop-color="#2C75E4"/>
<stop offset="0.0564" stop-color="#3168DA"/>
<stop offset="0.3736" stop-color="#4D22A3"/>
<stop offset="0.5215" stop-color="#58068E"/>
<stop offset="0.6592" stop-color="#5B078F"/>
<stop offset="0.7607" stop-color="#640A92"/>
<stop offset="0.8506" stop-color="#740F98"/>
<stop offset="0.9332" stop-color="#8B17A0"/>
<stop offset="1" stop-color="#A31FA9"/>
</linearGradient>
<linearGradient id="paint13_linear_2352_41199" x1="83.693" y1="440.708" x2="142.866" y2="338.104" gradientUnits="userSpaceOnUse">
<stop stop-color="#A31FA9"/>
<stop offset="0.0668" stop-color="#8B17A0"/>
<stop offset="0.1494" stop-color="#740F98"/>
<stop offset="0.2393" stop-color="#640A92"/>
<stop offset="0.3408" stop-color="#5B078F"/>
<stop offset="0.4785" stop-color="#58068E"/>
<stop offset="0.6264" stop-color="#4D22A3"/>
<stop offset="0.9436" stop-color="#3168DA"/>
<stop offset="1" stop-color="#2C75E4"/>
</linearGradient>
<linearGradient id="paint14_linear_2352_41199" x1="226.563" y1="490.581" x2="297.113" y2="368.351" gradientUnits="userSpaceOnUse">
<stop stop-color="#D4088C"/>
<stop offset="0.2258" stop-color="#8D139B"/>
<stop offset="0.5108" stop-color="#6EE1F8"/>
<stop offset="0.7796" stop-color="#6EE8FC"/>
<stop offset="1" stop-color="#6EE8FC"/>
</linearGradient>
</defs>
</svg>
