<svg width="360" height="315" viewBox="0 0 515 390" fill="none" xmlns="http://www.w3.org/2000/svg">
<path d="M404.348 386.294H97.9541V389.663H404.348V386.294Z" fill="#1D0030"/>
<path d="M446.263 62.1348V310.627C446.263 319.915 438.696 327.474 429.398 327.474H307.973" stroke="#C370FF" stroke-width="1.335" stroke-miterlimit="10" stroke-dasharray="2.67 2.67"/>
<path d="M68.4941 290.688V62.1347C68.4941 52.8467 76.0611 45.2876 85.3588 45.2876H207.012" stroke="#C370FF" stroke-width="1.335" stroke-miterlimit="10" stroke-dasharray="2.67 2.67"/>
<path d="M283.303 289.842H231.458L198.146 377.599H316.603L283.303 289.842Z" fill="#C1C9D9"/>
<path d="M323.298 389.638H191.45L185.74 377.435H329.021L323.298 389.638Z" fill="#DCE6F2"/>
<path d="M220.316 319.196L306.699 351.489L290.845 309.718H223.904L220.316 319.196Z" fill="#A5ACBA"/>
<path d="M429.4 319.044H85.3606C80.6991 319.044 76.9346 315.271 76.9346 310.627V62.1345C76.9346 57.4779 80.7118 53.7173 85.3606 53.7173H429.4C434.062 53.7173 437.826 57.4905 437.826 62.1345V310.627C437.826 315.283 434.049 319.044 429.4 319.044Z" fill="#C1C9D9"/>
<path d="M263.002 64.103C263.002 67.2074 260.488 69.7187 257.38 69.7187C254.273 69.7187 251.759 67.2074 251.759 64.103C251.759 60.9986 254.273 58.4873 257.38 58.4873C260.475 58.4873 263.002 60.9986 263.002 64.103Z" fill="#0A1D45"/>
<path d="M417.591 289.852L417.591 73.9307L97.1617 73.9307L97.1617 289.852L417.591 289.852Z" fill="#0A1D45"/>
<path d="M17.7116 334.478C17.7116 336.017 16.461 337.267 14.9198 337.267C13.3786 337.267 12.1279 336.017 12.1279 334.478C12.1279 332.938 13.3786 331.689 14.9198 331.689C16.461 331.689 17.7116 332.938 17.7116 334.478Z" fill="#F15A24"/>
<path d="M26.8582 337.267C28.4001 337.267 29.6501 336.018 29.6501 334.478C29.6501 332.938 28.4001 331.689 26.8582 331.689C25.3164 331.689 24.0664 332.938 24.0664 334.478C24.0664 336.018 25.3164 337.267 26.8582 337.267Z" fill="#F15A24"/>
<path d="M38.783 337.267C40.3249 337.267 41.5749 336.018 41.5749 334.478C41.5749 332.938 40.3249 331.689 38.783 331.689C37.2412 331.689 35.9912 332.938 35.9912 334.478C35.9912 336.018 37.2412 337.267 38.783 337.267Z" fill="#F15A24"/>
<path d="M50.7206 337.267C52.2624 337.267 53.5124 336.018 53.5124 334.478C53.5124 332.938 52.2624 331.689 50.7206 331.689C49.1787 331.689 47.9287 332.938 47.9287 334.478C47.9287 336.018 49.1787 337.267 50.7206 337.267Z" fill="#F15A24"/>
<path d="M62.659 337.267C64.2009 337.267 65.4509 336.018 65.4509 334.478C65.4509 332.938 64.2009 331.689 62.659 331.689C61.1171 331.689 59.8672 332.938 59.8672 334.478C59.8672 336.018 61.1171 337.267 62.659 337.267Z" fill="#F15A24"/>
<path d="M74.5838 337.267C76.1257 337.267 77.3757 336.018 77.3757 334.478C77.3757 332.938 76.1257 331.689 74.5838 331.689C73.0419 331.689 71.792 332.938 71.792 334.478C71.792 336.018 73.0419 337.267 74.5838 337.267Z" fill="#F15A24"/>
<path d="M86.5213 337.267C88.0632 337.267 89.3132 336.018 89.3132 334.478C89.3132 332.938 88.0632 331.689 86.5213 331.689C84.9794 331.689 83.7295 332.938 83.7295 334.478C83.7295 336.018 84.9794 337.267 86.5213 337.267Z" fill="#F15A24"/>
<path d="M98.4598 337.267C100.002 337.267 101.252 336.018 101.252 334.478C101.252 332.938 100.002 331.689 98.4598 331.689C96.9179 331.689 95.668 332.938 95.668 334.478C95.668 336.018 96.9179 337.267 98.4598 337.267Z" fill="#F15A24"/>
<path d="M249.244 3.12536C249.244 4.66495 247.993 5.91429 246.452 5.91429C244.911 5.91429 243.66 4.66495 243.66 3.12536C243.66 1.58577 244.911 0.336426 246.452 0.336426C247.993 0.336426 249.244 1.57315 249.244 3.12536Z" fill="#F15A24"/>
<path d="M261.182 3.12535C261.182 4.66494 259.932 5.91429 258.39 5.91429C256.849 5.91429 255.599 4.66494 255.599 3.12535C255.599 1.58576 256.849 0.336426 258.39 0.336426C259.932 0.336426 261.182 1.57314 261.182 3.12535Z" fill="#F15A24"/>
<path d="M273.107 3.12545C273.107 4.66504 271.856 5.91438 270.315 5.91438C268.774 5.91438 267.523 4.66504 267.523 3.12545C267.523 1.58586 268.774 0.336521 270.315 0.336521C271.856 0.323901 273.107 1.57324 273.107 3.12545Z" fill="#F15A24"/>
<path d="M285.045 3.12545C285.045 4.66504 283.794 5.91438 282.253 5.91438C280.712 5.91438 279.461 4.66504 279.461 3.12545C279.461 1.58586 280.712 0.336521 282.253 0.336521C283.794 0.323901 285.045 1.57324 285.045 3.12545Z" fill="#F15A24"/>
<path d="M296.983 3.12535C296.983 4.66494 295.732 5.91429 294.191 5.91429C292.65 5.91429 291.399 4.66494 291.399 3.12535C291.399 1.58576 292.65 0.336426 294.191 0.336426C295.732 0.336426 296.983 1.57314 296.983 3.12535Z" fill="#F15A24"/>
<path d="M308.908 3.12535C308.908 4.66494 307.657 5.91429 306.116 5.91429C304.575 5.91429 303.324 4.66494 303.324 3.12535C303.324 1.58576 304.575 0.336426 306.116 0.336426C307.657 0.336426 308.908 1.57314 308.908 3.12535Z" fill="#F15A24"/>
<path d="M320.845 3.12545C320.845 4.66504 319.595 5.91438 318.054 5.91438C316.512 5.91438 315.262 4.66504 315.262 3.12545C315.262 1.58586 316.512 0.336521 318.054 0.336521C319.595 0.323901 320.845 1.57324 320.845 3.12545Z" fill="#F15A24"/>
<path d="M332.784 3.12545C332.784 4.66504 331.533 5.91438 329.992 5.91438C328.451 5.91438 327.2 4.66504 327.2 3.12545C327.2 1.58586 328.451 0.336521 329.992 0.336521C331.533 0.323901 332.784 1.57324 332.784 3.12545Z" fill="#F15A24"/>
<path d="M476.115 283.369C476.115 287.395 472.856 290.65 468.826 290.65C464.796 290.65 461.537 287.395 461.537 283.369C461.537 279.343 464.796 276.087 468.826 276.087C472.843 276.087 476.115 279.343 476.115 283.369Z" fill="#0CBA83"/>
<path d="M55.2178 48.0261C55.2178 52.0518 51.9586 55.3076 47.9287 55.3076C43.8989 55.3076 40.6396 52.0518 40.6396 48.0261C40.6396 44.0005 43.8989 40.7446 47.9287 40.7446C51.9459 40.7446 55.2178 44.0005 55.2178 48.0261Z" fill="#ED1E79"/>
<path d="M165.173 322.401C165.173 326.427 161.914 329.683 157.884 329.683C153.854 329.683 150.595 326.427 150.595 322.401C150.595 318.376 153.854 315.12 157.884 315.12C161.901 315.12 165.173 318.388 165.173 322.401Z" fill="#29ABE2"/>
<path d="M313.608 99.9683H122.475C117.813 99.9683 114.049 103.742 114.049 108.386V113.446V297.642H322.047V113.446V108.386C322.047 103.742 318.269 99.9683 313.608 99.9683Z" fill="#A5ACBA"/>
<path d="M313.596 91.0588C313.596 86.4022 309.818 82.6289 305.169 82.6289H114.024C109.362 82.6289 105.598 86.4022 105.598 91.0588V96.1066H313.596V91.0588Z" fill="#0059D6"/>
<path d="M313.596 96.1064H105.598V280.302H313.596V96.1064Z" fill="#E4EBFD"/>
<path d="M298.687 110.152H243.457V118.784H298.687V110.152Z" fill="#BECBEB"/>
<path d="M298.687 125.523H243.457V134.155H298.687V125.523Z" fill="#BECBEB"/>
<path d="M298.687 140.894H243.457V149.525H298.687V140.894Z" fill="#BECBEB"/>
<path d="M298.687 156.264H243.457V164.896H298.687V156.264Z" fill="#BECBEB"/>
<path d="M298.687 171.635H243.457V180.267H298.687V171.635Z" fill="#BECBEB"/>
<path d="M302.212 190.968H241.499V274.358H302.212V190.968Z" stroke="#0068FA" stroke-width="0.6675" stroke-miterlimit="10" stroke-dasharray="2.67 2.67"/>
<path d="M297.916 195.246H245.781V270.093H297.916V195.246Z" fill="white"/>
<path d="M292.573 199.65H251.125V265.676H292.573V199.65Z" fill="#2FCBE0"/>
<path d="M269.342 208.459H273.524L282.139 256.868H278.173L276.581 247.05H266.892L265.426 256.868H261.548L269.342 208.459ZM276.038 243.668L271.578 216.271H271.528L267.422 243.668H276.038Z" fill="black"/>
<path d="M230.951 190.173H116.271V198.805H230.951V190.173Z" fill="#BECBEB"/>
<path d="M230.951 207.096H116.271V215.728H230.951V207.096Z" fill="#BECBEB"/>
<path d="M184.892 224.006H116.271V232.638H184.892V224.006Z" fill="#BECBEB"/>
<path d="M170.491 240.929H116.271V249.56H170.491V240.929Z" fill="#BECBEB"/>
<path d="M201.012 257.852H186.851V266.483H201.012V257.852Z" fill="#ED1E79"/>
<path d="M180.736 257.852H116.271V266.483H180.736V257.852Z" fill="#BECBEB"/>
<path d="M218.041 224.006H190.249V232.638H218.041V224.006Z" fill="#FBB03B"/>
<path d="M230.951 240.929H178.664V249.56H230.951V240.929Z" fill="#BECBEB"/>
<path d="M230.964 257.852H208.907V266.483H230.964V257.852Z" fill="#BECBEB"/>
<path d="M223.093 117.168H124.128V174.865H223.093V117.168Z" fill="#0A1D45"/>
<path d="M183.603 138.861L172.373 162.611L154.839 125.522L131.506 174.865H178.159L178.095 174.726H200.556L183.603 138.861Z" fill="#133785"/>
<path d="M207.012 123.478C202.199 123.478 198.296 127.377 198.296 132.186C198.296 136.994 202.199 140.893 207.012 140.893C211.826 140.893 215.729 136.994 215.729 132.186C215.729 127.377 211.826 123.478 207.012 123.478Z" fill="#FBB03B"/>
<path d="M230.951 110.152H116.271V181.895H230.951V110.152Z" stroke="#0068FA" stroke-width="0.6675" stroke-miterlimit="10" stroke-dasharray="2.67 2.67"/>
<path d="M232.935 108.171H228.98V112.121H232.935V108.171Z" fill="#0A1D45"/>
<path d="M118.255 108.171H114.301V112.121H118.255V108.171Z" fill="#0A1D45"/>
<path d="M232.935 179.913H228.98V183.863H232.935V179.913Z" fill="#0A1D45"/>
<path d="M118.255 179.913H114.301V183.863H118.255V179.913Z" fill="#0A1D45"/>
<path d="M403.389 89.3677H327.782V164.896H403.389V89.3677Z" stroke="#0068FA" stroke-width="0.6675" stroke-miterlimit="10" stroke-dasharray="2.67 2.67"/>
<path d="M396.643 96.1064H334.528V158.157H396.643V96.1064Z" fill="#103173"/>
<path d="M379.008 140.54C386.418 133.137 386.418 121.136 379.008 113.734C371.598 106.332 359.584 106.332 352.175 113.734C344.765 121.136 344.765 133.137 352.175 140.54C359.584 147.942 371.598 147.942 379.008 140.54Z" fill="#0A1D45"/>
<path d="M361.474 115.439V138.824L376.405 127.138L361.474 115.439Z" fill="#ED1E79"/>
<path d="M296.97 53.7046C297.968 62.7024 305.598 69.7062 314.883 69.7062H408.062C417.334 69.7062 424.977 62.7024 425.975 53.7046H296.97Z" fill="#A5ACBA"/>
<path d="M402.214 64.1031H309.035C299.08 64.1031 291.008 56.0392 291.008 46.095V46.0824C291.008 36.1381 299.08 28.0742 309.035 28.0742H402.214C412.168 28.0742 420.241 36.1381 420.241 46.0824V46.095C420.241 56.0392 412.168 64.1031 402.214 64.1031Z" fill="#DCE6F2"/>
<path d="M400.722 57.5664H310.183C303.842 57.5664 298.7 52.4303 298.7 46.0952C298.7 39.7602 303.842 34.624 310.183 34.624H400.722C407.064 34.624 412.205 39.7602 412.205 46.0952C412.205 52.4303 407.064 57.5664 400.722 57.5664Z" fill="#BECBEB"/>
<path d="M320.176 50.5628L316.26 46.9536C316.664 46.209 316.879 45.3761 316.879 44.5306C316.879 41.6912 314.567 39.3818 311.724 39.3818C308.882 39.3818 306.57 41.6912 306.57 44.5306C306.57 47.37 308.882 49.6794 311.724 49.6794C312.71 49.6794 313.657 49.3892 314.504 48.8465L318.42 52.4557C318.66 52.6829 318.963 52.7965 319.291 52.7965C319.645 52.7965 319.999 52.645 320.239 52.38C320.479 52.1276 320.593 51.7995 320.58 51.4588C320.58 51.1054 320.428 50.7899 320.176 50.5628ZM314.756 44.518C314.756 46.1838 313.405 47.5341 311.737 47.5341C310.07 47.5341 308.718 46.1838 308.718 44.518C308.718 42.8522 310.07 41.5019 311.737 41.5019C313.405 41.5019 314.756 42.8648 314.756 44.518Z" fill="#E4EBFD"/>
<path d="M437.824 207.096H349.004C347.147 207.096 345.631 208.611 345.631 210.466V263.077C345.631 264.932 347.147 266.446 349.004 266.446H437.824V207.096Z" fill="#A5ACBA"/>
<path d="M461.85 256.3V257.978H460.17" stroke="#0068FA" stroke-width="0.6675" stroke-miterlimit="10"/>
<path d="M456.835 257.979H331.974" stroke="#0068FA" stroke-width="0.6675" stroke-miterlimit="10" stroke-dasharray="2.64 2.64"/>
<path d="M330.319 257.978H328.626V256.3" stroke="#0068FA" stroke-width="0.6675" stroke-miterlimit="10"/>
<path d="M328.626 253.07V190.136" stroke="#0068FA" stroke-width="0.6675" stroke-miterlimit="10" stroke-dasharray="2.56 2.56"/>
<path d="M328.626 188.52V186.842H330.319" stroke="#0068FA" stroke-width="0.6675" stroke-miterlimit="10"/>
<path d="M333.642 186.842H458.503" stroke="#0068FA" stroke-width="0.6675" stroke-miterlimit="10" stroke-dasharray="2.64 2.64"/>
<path d="M460.17 186.842H461.85V188.52" stroke="#0068FA" stroke-width="0.6675" stroke-miterlimit="10"/>
<path d="M461.851 191.751V254.685" stroke="#0068FA" stroke-width="0.6675" stroke-miterlimit="10" stroke-dasharray="2.56 2.56"/>
<path d="M463.833 184.86H459.879V188.81H463.833V184.86Z" fill="#DCE6F2"/>
<path d="M330.608 184.86H326.654V188.81H330.608V184.86Z" fill="#DCE6F2"/>
<path d="M463.833 256.01H459.879V259.96H463.833V256.01Z" fill="#DCE6F2"/>
<path d="M330.608 256.01H326.654V259.96H330.608V256.01Z" fill="#DCE6F2"/>
<path d="M452.579 252.085H337.899C336.042 252.085 334.526 250.57 334.526 248.715V196.104C334.526 194.249 336.042 192.735 337.899 192.735H452.579C454.436 192.735 455.952 194.249 455.952 196.104V248.715C455.952 250.57 454.449 252.085 452.579 252.085Z" fill="#DCE6F2"/>
<path d="M417.156 201.708H379.637V209.04H417.156V201.708Z" fill="#BECBEB"/>
<path d="M427.477 213.772H379.637V221.104H427.477V213.772Z" fill="#BECBEB"/>
<path d="M451.946 213.772H431.607V221.104H451.946V213.772Z" fill="#E43438"/>
<path d="M420.013 209.044H430.46V201.712H420.013V209.044Z" fill="#BECBEB"/>
<path d="M432.973 209.044H449.282V201.712H432.973V209.044Z" fill="#BECBEB"/>
<path d="M417.156 225.849H379.637V233.181H417.156V225.849Z" fill="#BECBEB"/>
<path d="M451.934 237.913H379.637V245.245H451.934V237.913Z" fill="#BECBEB"/>
<path d="M420.013 233.183H430.46V225.851H420.013V233.183Z" fill="#ED1E79"/>
<path d="M432.973 233.183H449.282V225.851H432.973V233.183Z" fill="#BECBEB"/>
<path d="M357.188 203.121C350.544 203.121 345.162 208.497 345.162 215.135V218.921H348.99V214.756C348.99 210.226 352.666 206.566 357.188 206.566C361.724 206.566 365.387 210.239 365.387 214.756V218.921H369.215V215.135C369.215 208.497 363.833 203.121 357.188 203.121Z" fill="#0A1D45"/>
<path d="M369.127 218.921H345.251C344.367 218.921 343.659 219.628 343.659 220.511V240.097C343.659 240.98 344.367 241.687 345.251 241.687H369.127C370.011 241.687 370.718 240.98 370.718 240.097V220.511C370.718 219.64 369.998 218.921 369.127 218.921ZM359.008 234.569H355.382L355.85 230.594C355.168 230.152 354.725 229.395 354.725 228.524C354.725 227.161 355.837 226.051 357.201 226.051C358.566 226.051 359.677 227.161 359.677 228.524C359.677 229.395 359.223 230.152 358.553 230.594L359.008 234.569Z" fill="#FBBF62"/>
<path d="M358.492 282.561C337.42 282.561 320.341 293.742 320.341 307.523C320.341 318.35 330.889 327.575 345.644 331.033V347.703L360.93 332.434C380.864 331.613 396.655 320.786 396.655 307.523C396.642 293.729 379.563 282.561 358.492 282.561ZM341.766 312.798C338.848 312.798 336.473 310.425 336.473 307.51C336.473 304.595 338.835 302.222 341.766 302.222C344.684 302.222 347.059 304.595 347.059 307.51C347.059 310.438 344.684 312.798 341.766 312.798ZM358.492 312.798C355.573 312.798 353.199 310.425 353.199 307.51C353.199 304.595 355.573 302.222 358.492 302.222C361.41 302.222 363.785 304.595 363.785 307.51C363.785 310.438 361.41 312.798 358.492 312.798ZM375.217 312.798C372.299 312.798 369.924 310.425 369.924 307.51C369.924 304.595 372.299 302.222 375.217 302.222C378.136 302.222 380.51 304.595 380.51 307.51C380.51 310.438 378.136 312.798 375.217 312.798Z" fill="#E43438"/>
<path d="M214.05 22.2063V15.5305L209.742 14.6598C209.628 14.3443 209.489 14.0414 209.35 13.7386L209.363 13.7512L211.789 10.1041L207.064 5.3844L203.413 7.80736V7.81997C203.11 7.68116 202.807 7.55497 202.491 7.42877L201.619 3.12549H194.937L194.065 7.42877C193.749 7.54235 193.446 7.68116 193.143 7.81997L193.155 7.80736L189.504 5.3844L184.78 10.1041L187.205 13.7512L187.218 13.7386C187.079 14.0414 186.953 14.3443 186.826 14.6598L182.519 15.5305V22.2063L186.826 23.0771C186.94 23.3925 187.079 23.6954 187.218 23.9983L187.205 23.9857L184.78 27.6327L189.504 32.3525L193.155 29.9295L193.143 29.9169C193.446 30.0557 193.749 30.1819 194.065 30.3081L194.937 34.6114H201.619L202.491 30.3081C202.807 30.1945 203.11 30.0557 203.413 29.9169V29.9295L207.064 32.3525L211.789 27.6327L209.363 23.9857L209.35 23.9983C209.489 23.6954 209.616 23.3925 209.742 23.0771L214.05 22.2063ZM198.297 25.1088C194.848 25.1088 192.056 22.3199 192.056 18.8747C192.056 15.4296 194.848 12.6407 198.297 12.6407C201.746 12.6407 204.537 15.4296 204.537 18.8747C204.537 22.3073 201.746 25.1088 198.297 25.1088Z" fill="#0059D6"/>
<path d="M123.662 53.7046L132.682 62.715L139.807 57.9826L139.794 57.97C140.388 58.2476 140.982 58.5 141.601 58.7272L143.293 67.1066H156.318L158.01 58.7272C158.629 58.5 159.223 58.2476 159.817 57.97L159.804 57.9826L166.929 62.715L175.949 53.7046H123.662Z" fill="#A5ACBA"/>
<path d="M174.22 37.8798V24.869L165.832 23.178C165.604 22.5596 165.352 21.9665 165.074 21.3734L165.086 21.386L169.824 14.2685L160.614 5.06886L153.49 9.8012L153.502 9.81383C152.909 9.5362 152.315 9.28381 151.696 9.05665L150.003 0.677246H136.979L135.286 9.05665C134.667 9.28381 134.073 9.5362 133.479 9.81383L133.492 9.8012L126.367 5.06886L117.158 14.2685L121.895 21.386L121.908 21.3734C121.63 21.9665 121.377 22.5596 121.15 23.178L112.762 24.869V37.8798L121.15 39.5708C121.377 40.1892 121.63 40.7823 121.908 41.3754L121.895 41.3628L117.158 48.4802L126.367 57.6799L133.492 52.9476L133.479 52.935C134.073 53.2126 134.667 53.465 135.286 53.6921L136.979 62.0715H150.003L151.696 53.6921C152.315 53.465 152.909 53.2126 153.502 52.935L153.49 52.9476L160.614 57.6799L169.824 48.4802L165.086 41.3628L165.074 41.3754C165.352 40.7823 165.604 40.1892 165.832 39.5708L174.22 37.8798ZM143.51 43.5334C136.789 43.5334 131.344 38.0943 131.344 31.3807C131.344 24.6671 136.789 19.228 143.51 19.228C150.23 19.228 155.675 24.6671 155.675 31.3807C155.675 38.0943 150.23 43.5334 143.51 43.5334Z" fill="#0CBA83"/>
<path d="M489.417 145.513C503.546 131.399 503.546 108.515 489.417 94.4002C475.288 80.2858 452.38 80.2858 438.251 94.4002C424.122 108.515 424.122 131.399 438.251 145.513C452.38 159.627 475.288 159.627 489.417 145.513Z" fill="#E4EBFD"/>
<path d="M470.14 91.854V112.676L463.836 116.008L457.532 112.676V91.854C450.054 94.4536 444.697 101.558 444.697 109.913C444.697 118.065 449.814 125.018 457.002 127.769V150.371C459.2 150.863 461.486 151.141 463.836 151.141C466.186 151.141 468.472 150.863 470.67 150.371V127.769C477.858 125.018 482.974 118.065 482.974 109.913C482.974 101.546 477.606 94.4536 470.14 91.854Z" fill="#0059D6"/>
<path d="M129.448 224.208H77.2119V283.23H129.461C131.318 283.23 132.834 282.22 132.834 280.971V226.48C132.821 225.218 131.318 224.208 129.448 224.208Z" fill="#A5ACBA"/>
<path d="M122.841 274.358H6.30386C4.80057 274.358 3.5752 273.134 3.5752 271.632V219.589C3.5752 218.087 4.80057 216.863 6.30386 216.863H122.841C124.344 216.863 125.569 218.087 125.569 219.589V271.632C125.569 273.134 124.344 274.358 122.841 274.358Z" fill="#DCE6F2"/>
<path d="M62.776 265.673H115.72V258.278H62.776V265.673Z" fill="#BECBEB"/>
<path d="M62.776 254.447H115.72V247.052H62.776V254.447Z" fill="#BECBEB"/>
<path d="M62.7811 243.221H95.083V235.826H62.7811V243.221Z" fill="#BECBEB"/>
<path d="M100.83 243.221H115.724V235.826H100.83V243.221Z" fill="#0CBA83"/>
<path d="M62.776 231.995H115.72V224.6H62.776V231.995Z" fill="#BECBEB"/>
<path d="M55.2936 224.044H13.4287V265.865H55.2936V224.044Z" fill="#0059D6"/>
<path d="M20.7432 245.396V243.365L29.0176 239.755V241.838L22.8023 244.387L29.0176 246.898V249.006L20.7432 245.396Z" fill="white"/>
<path d="M36.0547 237.156H38.7833L32.6817 251.605H29.9404L36.0547 237.156Z" fill="white"/>
<path d="M39.7178 246.898L45.9331 244.387L39.7178 241.838V239.755L47.9922 243.365V245.396L39.7178 249.006V246.898Z" fill="white"/>
<path d="M94.5688 133.221H76.9209V181.364H94.5688V133.221Z" fill="#A5ACBA"/>
<path d="M87.6964 123.403H0V171.547H87.6964V123.403Z" fill="#FBB03B"/>
<path d="M43.8482 171.547H87.6964L43.8482 141.386L0 171.547H43.8482Z" fill="#FBBF62"/>
<path d="M43.8482 123.403H0L43.8482 153.564L87.6964 123.403H43.8482Z" fill="#FF9129"/>
</svg>
