<svg width="88" height="27" viewBox="0 0 88 27" fill="none" xmlns="http://www.w3.org/2000/svg">
<path d="M17.7684 0.769043L13.2209 3.39924L0.235107 25.9263L26.2435 25.9098L30.791 23.2797L17.7684 0.769043ZM14.5753 6.04586L4.76207 23.0745L1.15044 25.1631L13.3727 3.96139L14.5753 6.04586ZM13.6477 3.62491L17.1322 1.61021L14.8133 5.63553L13.6477 3.62491ZM14.8133 6.45619L24.3843 23.0047L5.26688 23.017L14.8133 6.45619ZM4.96728 23.4274L24.6224 23.4151L25.829 25.4995L1.35154 25.516L4.96728 23.4274ZM25.0943 23.4151L29.7403 23.411L26.2559 25.4257L25.0943 23.4151ZM24.8604 23.0047L15.0514 6.04586L17.6944 1.4625L30.1549 23.0047H24.8604Z" fill="#909192"/>
<path d="M17.7491 21.599H19.9272L16.6495 14.1978H14.5877L11.3206 21.599H13.4563L14.0379 20.1611H17.1675L17.7491 21.599ZM14.6511 18.6174L15.6027 16.249L16.5543 18.6174H14.6511Z" fill="#909192"/>
<path d="M41.2169 11.6305C41.2269 11.5902 41.232 11.56 41.232 11.5398C41.232 11.5197 41.2219 11.5096 41.2018 11.5096C41.1917 11.5096 41.1615 11.5348 41.1111 11.5852C41.0709 11.6355 41.0155 11.706 40.945 11.7966C40.8745 11.8873 40.7235 12.0584 40.4919 12.3102C40.2703 12.5619 40.0387 12.7986 39.797 13.0201C39.1425 13.6444 38.488 14.1227 37.8334 14.455C37.6723 14.5356 37.4961 14.5759 37.3048 14.5759C36.5697 14.5759 36.2021 14.022 36.2021 12.9144C36.2021 11.9275 36.6704 10.7393 37.6069 9.34968C38.0499 8.70522 38.5786 8.07586 39.1929 7.4616C39.8172 6.83728 40.4768 6.28344 41.1716 5.8001C41.8664 5.31675 42.6216 4.92906 43.4373 4.63704C44.2529 4.33495 45.0484 4.1839 45.8238 4.1839C45.9547 4.1839 46.1309 4.22922 46.3524 4.31984C46.725 4.48096 46.9113 4.65215 46.9113 4.8334C46.9113 4.9341 46.8459 4.98948 46.715 4.99955C46.6646 4.99955 46.6394 5.01969 46.6394 5.05997C46.6394 5.10025 46.7099 5.18081 46.8509 5.30164C47.0019 5.41241 47.0775 5.52318 47.0775 5.63395C47.0775 5.73464 47.0422 5.82527 46.9717 5.90583C46.4682 6.45966 46.0655 6.92287 45.7634 7.29545C45.4613 7.65796 45.2297 7.92985 45.0686 8.1111C44.9175 8.29236 44.7413 8.50382 44.5399 8.7455C44.3486 8.9771 44.1321 9.27416 43.8904 9.63667C43.6487 9.98911 43.4272 10.3415 43.2258 10.694C42.7626 11.5499 42.531 12.3354 42.531 13.0503C42.531 13.7552 42.5964 14.4248 42.7273 15.0592C42.8582 15.7037 42.9942 16.0964 43.1352 16.2374C43.1352 16.2676 43.0999 16.2827 43.0294 16.2827C42.5662 16.2827 42.1685 16.1014 41.8362 15.7389C41.232 15.0643 40.9299 14.1781 40.9299 13.0805C40.9299 12.6878 41.0256 12.2045 41.2169 11.6305ZM43.1956 8.23194L46.0957 5.31675C46.1662 5.24626 46.2014 5.19591 46.2014 5.1657C46.2014 5.13549 46.1762 5.12039 46.1259 5.12039C45.3505 5.24123 44.5298 5.55842 43.6638 6.07198C42.7978 6.58554 42.0124 7.17965 41.3075 7.85432C40.6026 8.529 39.9531 9.21877 39.359 9.92365C38.7649 10.6285 38.3017 11.2629 37.9694 11.8268C37.6472 12.3907 37.486 12.7935 37.486 13.0352C37.486 13.0755 37.5112 13.0956 37.5616 13.0956C37.622 13.0956 37.7327 13.0604 37.8939 12.9899C38.055 12.9093 38.6088 12.4663 39.5554 11.6607C40.512 10.845 41.7254 9.70212 43.1956 8.23194Z" fill="#909192"/>
<path d="M51.1723 4.15369C51.4644 3.91202 51.7967 3.79118 52.1693 3.79118C52.5418 3.79118 52.7281 3.86671 52.7281 4.01775C52.7281 4.07817 52.6828 4.1688 52.5922 4.28964C52.5116 4.47089 52.134 5.15563 51.4593 6.34386C49.6971 9.4252 48.816 11.4794 48.816 12.5065C48.816 12.5871 48.8362 12.6274 48.8764 12.6274C48.9369 12.6274 49.0376 12.5267 49.1785 12.3253C49.5914 11.6103 50.1201 10.7897 50.7645 9.86324C51.409 8.93682 52.0182 8.12117 52.5922 7.41629C53.1662 6.71141 53.8157 6.05184 54.5407 5.43759C55.2657 4.82333 55.9253 4.44068 56.5194 4.28964C57.5062 4.12852 58.1456 4.04796 58.4377 4.04796C58.4679 4.05803 58.483 4.08321 58.483 4.12348C58.483 4.15369 58.4276 4.19901 58.3168 4.25943C57.1789 4.89382 55.7641 6.10219 54.0724 7.88453C52.3908 9.65681 50.8703 11.4794 49.5108 13.3524C49.1483 13.9667 48.8664 14.3493 48.665 14.5004C48.4636 14.6514 48.2219 14.7269 47.94 14.7269C47.4163 14.7269 47.1545 14.1731 47.1545 13.0654C47.1545 12.5821 47.2502 12.0886 47.4415 11.5852C48.1464 9.70212 48.806 8.35278 49.4202 7.53713C49.7626 7.03364 49.9338 6.75672 49.9338 6.70637C49.9338 6.67616 49.8734 6.73658 49.7525 6.88763C47.2452 10.0395 45.4729 12.1038 44.4357 13.0805C43.7207 13.8257 42.9101 14.591 42.0039 15.3764C41.0976 16.1619 40.3726 16.7006 39.8288 16.9926C39.6576 17.1336 39.4763 17.2041 39.285 17.2041C39.0937 17.2041 38.8621 17.1235 38.5902 16.9624C38.3183 16.8013 38.1824 16.615 38.1824 16.4035C38.1824 16.2928 38.2428 16.1921 38.3636 16.1014L40.8408 14.017C40.9918 13.8861 41.0875 13.8206 41.1278 13.8206C41.158 13.8206 41.1731 13.8408 41.1731 13.8811C41.1731 13.9113 41.158 13.9566 41.1278 14.017C41.0976 14.0774 41.0523 14.1429 40.9918 14.2134C40.9214 14.2839 40.8509 14.3493 40.7804 14.4097L40.5236 14.6816C40.2114 14.9938 40.0554 15.165 40.0554 15.1952C40.0554 15.2354 40.0654 15.2556 40.0856 15.2556C40.1057 15.2556 40.1561 15.2254 40.2366 15.165C41.2033 14.5004 42.598 13.2517 44.4206 11.419C46.2432 9.57625 47.8242 7.90467 49.1634 6.40428L51.1723 4.15369Z" fill="#909192"/>
<path d="M55.6725 11.6305C55.6825 11.5902 55.6876 11.56 55.6876 11.5398C55.6876 11.5197 55.6775 11.5096 55.6574 11.5096C55.6473 11.5096 55.6171 11.5348 55.5667 11.5852C55.5264 11.6355 55.4711 11.706 55.4006 11.7966C55.3301 11.8873 55.179 12.0584 54.9474 12.3102C54.7259 12.5619 54.4943 12.7986 54.2526 13.0201C53.5981 13.6444 52.9436 14.1227 52.289 14.455C52.1279 14.5356 51.9517 14.5759 51.7604 14.5759C51.0253 14.5759 50.6577 14.022 50.6577 12.9144C50.6577 11.9275 51.126 10.7393 52.0625 9.34968C52.5055 8.70522 53.0342 8.07586 53.6484 7.4616C54.2728 6.83728 54.9323 6.28344 55.6271 5.8001C56.322 5.31675 57.0772 4.92906 57.8928 4.63704C58.7085 4.33495 59.504 4.1839 60.2794 4.1839C60.4103 4.1839 60.5865 4.22922 60.808 4.31984C61.1806 4.48096 61.3669 4.65215 61.3669 4.8334C61.3669 4.9341 61.3014 4.98948 61.1705 4.99955C61.1202 4.99955 61.095 5.01969 61.095 5.05997C61.095 5.10025 61.1655 5.18081 61.3065 5.30164C61.4575 5.41241 61.533 5.52318 61.533 5.63395C61.533 5.73464 61.4978 5.82527 61.4273 5.90583C60.9238 6.45966 60.521 6.92287 60.2189 7.29545C59.9169 7.65796 59.6853 7.92985 59.5241 8.1111C59.3731 8.29236 59.1969 8.50382 58.9955 8.7455C58.8041 8.9771 58.5877 9.27416 58.346 9.63667C58.1043 9.98911 57.8828 10.3415 57.6814 10.694C57.2182 11.5499 56.9866 12.3354 56.9866 13.0503C56.9866 13.7552 57.052 14.4248 57.1829 15.0592C57.3138 15.7037 57.4498 16.0964 57.5907 16.2374C57.5907 16.2676 57.5555 16.2827 57.485 16.2827C57.0218 16.2827 56.6241 16.1014 56.2917 15.7389C55.6876 15.0643 55.3855 14.1781 55.3855 13.0805C55.3855 12.6878 55.4811 12.2045 55.6725 11.6305ZM57.6512 8.23194L60.5512 5.31675C60.6217 5.24626 60.657 5.19591 60.657 5.1657C60.657 5.13549 60.6318 5.12039 60.5815 5.12039C59.8061 5.24123 58.9854 5.55842 58.1194 6.07198C57.2534 6.58554 56.468 7.17965 55.7631 7.85432C55.0582 8.529 54.4087 9.21877 53.8146 9.92365C53.2205 10.6285 52.7573 11.2629 52.425 11.8268C52.1027 12.3907 51.9416 12.7935 51.9416 13.0352C51.9416 13.0755 51.9668 13.0956 52.0171 13.0956C52.0776 13.0956 52.1883 13.0604 52.3494 12.9899C52.5106 12.9093 53.0644 12.4663 54.011 11.6607C54.9676 10.845 56.181 9.70212 57.6512 8.23194Z" fill="#909192"/>
<path d="M61.1419 12.4159C61.8669 11.5902 62.8034 10.4825 63.9513 9.0929C65.0993 7.70328 65.9451 6.71644 66.4889 6.1324C67.0327 5.54835 67.5009 5.10528 67.8936 4.80319C68.81 4.11845 69.7414 3.77608 70.688 3.77608C70.8994 3.77608 71.1361 3.86167 71.3979 4.03286C71.6698 4.20404 71.8057 4.47089 71.8057 4.8334C71.8057 5.18584 71.4684 5.72961 70.7937 6.4647C70.4614 6.82721 69.9781 7.19979 69.3437 7.58244C68.7193 7.95502 68.0195 8.25711 67.2441 8.48872C66.9521 8.53907 66.7356 8.56424 66.5946 8.56424C66.4637 8.56424 66.3983 8.54914 66.3983 8.51893C66.3983 8.48872 66.4335 8.45347 66.504 8.41319C67.3499 7.94999 68.2964 7.25014 69.3437 6.31365C70.401 5.37717 70.9296 4.76291 70.9296 4.47089C70.9296 4.43061 70.8994 4.41047 70.839 4.41047C70.7887 4.41047 70.7283 4.42054 70.6578 4.44068C70.5973 4.46082 70.5269 4.48096 70.4463 4.5011C70.3657 4.52124 70.1946 4.60683 69.9327 4.75788C69.6709 4.89885 69.394 5.08011 69.102 5.30164C68.82 5.51311 68.4626 5.84541 68.0296 6.29855C67.6066 6.74162 67.1787 7.25517 66.7457 7.83922C65.0842 10.1653 64.0067 11.5952 63.5133 12.1289C63.4327 12.2196 63.332 12.3303 63.2112 12.4612C63.4629 12.4914 63.8406 12.5267 64.344 12.567C64.8475 12.6072 65.1849 12.6425 65.356 12.6727C65.5373 12.6928 65.7991 12.7432 66.1415 12.8237C66.4839 12.9043 66.7557 13.005 66.9571 13.1258C67.4808 13.4481 67.9842 13.8861 68.4676 14.4399C68.5784 14.5608 68.6337 14.6413 68.6337 14.6816C68.6337 14.7219 68.6186 14.742 68.5884 14.742C68.5381 14.742 68.4726 14.7219 68.3921 14.6816C68.241 14.6413 68.0195 14.5859 67.7275 14.5155C67.4455 14.445 66.8313 14.3543 65.8847 14.2436C64.9382 14.1328 64.0671 14.0774 63.2716 14.0774C62.4862 14.0774 61.9122 14.0825 61.5497 14.0925C61.016 14.596 60.2658 15.0643 59.2991 15.4973C58.3324 15.9303 57.6074 16.1468 57.124 16.1468C56.6306 16.1468 56.1674 16.0158 55.7344 15.754C55.3014 15.5023 55.0849 15.1599 55.0849 14.7269C55.0849 14.4148 55.3216 14.0724 55.7948 13.6998C56.8824 12.8439 58.6647 12.4159 61.1419 12.4159ZM55.9157 15.165C55.9157 15.2657 56.0365 15.3311 56.2782 15.3613C56.5903 15.3613 56.8572 15.3412 57.0787 15.3009C57.3003 15.2707 57.6275 15.1599 58.0605 14.9686C58.4835 14.7773 58.9316 14.4953 59.4048 14.1227C58.7604 14.1227 58.0202 14.2385 57.1845 14.4701C56.3386 14.7017 55.9157 14.9333 55.9157 15.165Z" fill="#909192"/>
<path d="M75.759 4.33495C76.484 3.87174 77.0983 3.64014 77.6018 3.64014C78.065 3.64014 78.357 3.81636 78.4778 4.1688C78.5181 4.28964 78.5382 4.3853 78.5382 4.45579C78.5382 4.83844 78.3217 5.43759 77.8887 6.25323C77.4557 7.06888 76.8818 7.95502 76.1668 8.91165C75.4519 9.8582 74.6815 10.7695 73.8558 11.6456C73.0301 12.5216 72.1691 13.2517 71.2729 13.8357C70.3767 14.4198 69.5913 14.7118 68.9166 14.7118C68.4433 14.7118 68.0053 14.5104 67.6025 14.1076C67.1997 13.7048 66.9983 13.2165 66.9983 12.6425C66.9983 12.0584 67.1594 11.4089 67.4817 10.694C67.8039 9.96897 68.247 9.23891 68.8109 8.50382C69.3848 7.76873 70.0142 7.08399 70.6989 6.44959C71.3837 5.80513 72.1288 5.2815 72.9344 4.87871C73.7501 4.47592 74.5254 4.27453 75.2605 4.27453C75.4619 4.27453 75.6281 4.29467 75.759 4.33495ZM68.5239 13.5639C69.0374 13.5639 70.0394 12.9093 71.5297 11.6003C73.02 10.2912 74.3945 8.92675 75.6533 7.50692C76.922 6.07701 77.5564 5.18584 77.5564 4.8334C77.5564 4.80319 77.5363 4.78809 77.496 4.78809C77.1536 4.78809 76.6703 4.98948 76.046 5.39227C75.4317 5.79506 74.8426 6.2482 74.2787 6.75169C73.7148 7.25517 73.2265 7.70328 72.8136 8.096C72.4108 8.48872 72.1792 8.73039 72.1188 8.82102C72.0584 8.91165 72.008 8.95696 71.9677 8.95696C71.9476 8.95696 71.9375 8.93179 71.9375 8.88144L71.9677 8.65487C72.0785 8.29236 72.4158 7.70328 72.9797 6.88763L73.2667 6.4647C73.3372 6.33379 73.3725 6.25827 73.3725 6.23813C73.3725 6.20792 73.3624 6.19282 73.3423 6.19282C73.2617 6.19282 73.1258 6.27841 72.9344 6.44959C72.1792 7.13434 71.5096 7.82915 70.9255 8.53403C70.3415 9.22884 69.8934 9.83303 69.5812 10.3466C69.2791 10.8501 69.0324 11.3334 68.8411 11.7966C68.539 12.5015 68.3879 12.9748 68.3879 13.2165C68.3879 13.4481 68.4333 13.5639 68.5239 13.5639Z" fill="#909192"/>
<path d="M86.9724 5.52821C87.2745 5.62891 87.4406 5.72961 87.4708 5.83031L87.4859 5.89072C87.4859 6.10219 87.2745 6.39925 86.8516 6.7819C85.1296 8.71529 83.9062 10.2106 83.1811 11.268C82.9697 11.5701 82.6726 12.0131 82.29 12.5972C81.9073 13.1711 81.5951 13.6293 81.3535 13.9717C81.1219 14.3241 80.8097 14.7622 80.417 15.2858C80.0343 15.8195 79.692 16.2575 79.3899 16.5999C79.0979 16.9423 78.7353 17.3249 78.3023 17.7478C77.8794 18.1708 77.4716 18.5232 77.0789 18.8052C76.1927 19.4396 75.2411 19.9078 74.2241 20.2099C73.9623 20.2099 73.7156 20.1444 73.484 20.0135C73.2423 19.8927 73.1164 19.7165 73.1064 19.4849C73.1164 18.9411 73.5394 18.2664 74.3751 17.4609C75.2109 16.6653 76.3337 16.0561 77.7435 15.6332C77.9449 15.5828 78.0858 15.5073 78.1664 15.4066L82.4863 10.256L82.7129 9.95386C82.733 9.91359 82.7431 9.88841 82.7431 9.87834C82.7431 9.8582 82.733 9.84813 82.7129 9.84813C82.7028 9.84813 82.4813 10.0697 82.0483 10.5127C81.6153 10.9457 81.2377 11.3334 80.9154 11.6758C80.6033 12.0182 80.1904 12.431 79.6769 12.9144C79.1633 13.3876 78.534 13.8559 77.7888 14.3191C77.0537 14.7924 76.4344 15.029 75.9309 15.029C75.2663 15.029 74.8535 14.591 74.6923 13.7149C74.6621 13.5135 74.647 13.3121 74.647 13.1107C74.647 12.2045 75.0398 11.2327 75.8252 10.1955C76.6006 9.14829 77.5522 8.22187 78.68 7.41629C79.8178 6.60064 81.0413 5.92093 82.3504 5.37717C83.6594 4.82333 84.8225 4.54138 85.8395 4.53131H85.8547C86.1769 4.53131 86.4437 4.64208 86.6552 4.86361C86.8767 5.07507 86.9875 5.26136 86.9875 5.42248C86.9875 5.47283 86.9825 5.50807 86.9724 5.52821ZM73.8616 19.4245C73.8616 19.4849 73.8868 19.5151 73.9371 19.5151H73.9673C74.2191 19.5151 74.8535 19.0317 75.8705 18.065C76.8976 17.1084 77.5018 16.3985 77.6831 15.9353C77.6831 15.9151 77.673 15.9051 77.6528 15.9051C76.9782 16.1468 76.1776 16.7308 75.2512 17.6572C74.3248 18.5937 73.8616 19.1828 73.8616 19.4245ZM86.4135 5.78499C86.4739 5.72457 86.5041 5.67926 86.5041 5.64905C86.5041 5.60877 86.4588 5.58863 86.3682 5.58863C85.754 5.58863 84.9685 5.8001 84.0119 6.22303C83.0653 6.63588 82.0936 7.18469 81.0967 7.86943C80.1099 8.55417 79.1381 9.40003 78.1815 10.407C77.235 11.4039 76.4848 12.426 75.9309 13.4732C75.9007 13.5135 75.8856 13.5538 75.8856 13.5941C75.8856 13.6243 75.9108 13.6394 75.9611 13.6394C76.525 13.6394 77.8593 12.8187 79.9639 11.1773C82.0785 9.5259 84.2284 7.72845 86.4135 5.78499Z" fill="#909192"/>
<path d="M39.8093 19.7098V22.2836L37.7657 19.7098H37.4893V22.8818H37.8246V20.3079L39.8637 22.8818H40.1401V19.7098H39.8093Z" fill="#909192"/>
<path d="M42.4533 22.909C43.2644 22.909 43.7538 22.4377 43.7538 21.5269V19.7098H43.4275V21.5133C43.4275 22.2655 43.0741 22.6099 42.4533 22.6099C41.837 22.6099 41.4836 22.2655 41.4836 21.5133V19.7098H41.1482V21.5269C41.1482 22.4377 41.6422 22.909 42.4533 22.909Z" fill="#909192"/>
<path d="M47.2973 22.8818L46.5224 21.7942C46.9846 21.6447 47.2474 21.2958 47.2474 20.7973C47.2474 20.1176 46.7581 19.7098 45.9515 19.7098H44.7643V22.8818H45.0996V21.8758H45.9515C46.0421 21.8758 46.1237 21.8713 46.2052 21.8622L46.9303 22.8818H47.2973ZM45.9424 21.5903H45.0996V19.9998H45.9424C46.5768 19.9998 46.9121 20.2898 46.9121 20.7973C46.9121 21.2958 46.5768 21.5903 45.9424 21.5903Z" fill="#909192"/>
<path d="M48.3742 22.5918V21.4136H50.0146V21.1281H48.3742V19.9998H50.2139V19.7098H48.0389V22.8818H50.2819V22.5918H48.3742Z" fill="#909192"/>
<path d="M53.3902 19.7098V22.2836L51.3465 19.7098H51.0701V22.8818H51.4055V20.3079L53.4446 22.8818H53.721V19.7098H53.3902Z" fill="#909192"/>
<path d="M56.1338 22.909C56.6006 22.909 57.0175 22.7504 57.2984 22.4422L57.0854 22.2293C56.8271 22.4966 56.5099 22.6099 56.1474 22.6099C55.3816 22.6099 54.8061 22.048 54.8061 21.2958C54.8061 20.5436 55.3816 19.9817 56.1474 19.9817C56.5099 19.9817 56.8271 20.095 57.0854 20.3578L57.2984 20.1448C57.0175 19.8367 56.6006 19.6826 56.1384 19.6826C55.1823 19.6826 54.4754 20.3669 54.4754 21.2958C54.4754 22.2247 55.1823 22.909 56.1338 22.909Z" fill="#909192"/>
<path d="M60.3032 19.7098H59.9678L58.8803 21.4906L57.7928 19.7098H57.4348L58.7036 21.7852V22.8818H59.0344V21.7852L60.3032 19.7098Z" fill="#909192"/>
</svg>
